<?xml version="1.0" encoding="UTF-8"?>
<svg version="1.1" xmlns="http://www.w3.org/2000/svg" width="530" height="471">
<path d="M0 0 C0.95132813 0.28359375 1.90265625 0.5671875 2.8828125 0.859375 C15.72935432 5.12813184 29.30046762 11.34924969 40.08203125 19.5546875 C41.85724667 20.89242621 43.60619656 21.95370738 45.5625 23 C50.00324182 25.58370433 54.21339343 28.51391776 58 32 C58 32.66 58 33.32 58 34 C58.598125 34.28875 59.19625 34.5775 59.8125 34.875 C62 36 62 36 65 38 C65 38.66 65 39.32 65 40 C65.56589844 40.22945312 66.13179688 40.45890625 66.71484375 40.6953125 C69.60322427 42.34440497 71.37241037 44.37733433 73.5625 46.875 C74.32691406 47.73867187 75.09132813 48.60234375 75.87890625 49.4921875 C81 55.54696133 81 55.54696133 81 58 C81.66 58 82.32 58 83 58 C84.47265625 59.828125 84.47265625 59.828125 86.0625 62.25 C86.58972656 63.03890625 87.11695313 63.8278125 87.66015625 64.640625 C88.89430764 66.81388284 89.54673055 68.56017928 90 71 C90.66 71 91.32 71 92 71 C92 71.99 92 72.98 92 74 C92.66 74 93.32 74 94 74 C94 75.32 94 76.64 94 78 C94.66 78 95.32 78 96 78 C118.27536146 121.02423876 125.87314518 168.46592717 111.23071289 215.46948242 C104.69049549 235.27310619 94.76281111 257.16953652 81 273 C80.34 273 79.68 273 79 273 C79 273.66 79 274.32 79 275 C78.34 275 77.68 275 77 275 C76.5978125 275.86625 76.5978125 275.86625 76.1875 276.75 C74.97070811 279.05550043 73.69666121 281.02056192 72 283 C71.34 283 70.68 283 70 283 C69.62681641 283.87591797 69.62681641 283.87591797 69.24609375 284.76953125 C67.82504563 287.31316284 66.26807085 288.79407698 64.0625 290.6875 C63.02802734 291.59048828 63.02802734 291.59048828 61.97265625 292.51171875 C60 294 60 294 57 295 C56.67 295.99 56.34 296.98 56 298 C54.2578125 299.60546875 54.2578125 299.60546875 52.125 301.1875 C51.42632812 301.71730469 50.72765625 302.24710937 50.0078125 302.79296875 C48 304 48 304 45 304 C44.67 304.99 44.34 305.98 44 307 C42.4765625 308.16796875 42.4765625 308.16796875 40.625 309.1875 C40.01914062 309.53167969 39.41328125 309.87585938 38.7890625 310.23046875 C37 311 37 311 34 311 C34 311.66 34 312.32 34 313 C16.72532395 322.39464017 0.07737536 329.24837972 -19.25 333.1875 C-20.06533203 333.35451416 -20.88066406 333.52152832 -21.72070312 333.69360352 C-52.75539911 339.77718042 -87.65046915 336.97778151 -117 325 C-118.22203125 324.50757813 -119.4440625 324.01515625 -120.703125 323.5078125 C-133.71521761 318.12229171 -145.41850459 311.1769473 -156.6796875 302.72265625 C-158.64182359 301.26591885 -160.6217355 299.92691205 -162.6875 298.625 C-163.450625 298.08875 -164.21375 297.5525 -165 297 C-165 296.34 -165 295.68 -165 295 C-166.32 294.34 -167.64 293.68 -169 293 C-169 292.34 -169 291.68 -169 291 C-169.99 291 -170.98 291 -172 291 C-172 290.34 -172 289.68 -172 289 C-172.66 289 -173.32 289 -174 289 C-174 288.34 -174 287.68 -174 287 C-174.66 287 -175.32 287 -176 287 C-178.125 285.1875 -178.125 285.1875 -180 283 C-180 282.01 -180 281.02 -180 280 C-180.639375 279.731875 -181.27875 279.46375 -181.9375 279.1875 C-184 278 -184 278 -185 275 C-185.66 275 -186.32 275 -187 275 C-188.6354808 273.09587525 -190.13794613 271.20199329 -191.625 269.1875 C-192.04523438 268.64029297 -192.46546875 268.09308594 -192.8984375 267.52929688 C-196 263.37541853 -196 263.37541853 -196 260 C-196.66 260 -197.32 260 -198 260 C-200.67989326 255.34079472 -203.34470799 250.67326463 -206 246 C-206.56976563 245.00097656 -207.13953125 244.00195312 -207.7265625 242.97265625 C-213.80360333 232.11189354 -217.2774423 221.06706814 -220.44042969 209.09472656 C-220.91284721 207.32625258 -221.41062107 205.56458104 -221.9140625 203.8046875 C-229.65853413 175.72119946 -227.57923029 143.87770993 -220 116 C-219.690625 114.83597656 -219.38125 113.67195313 -219.0625 112.47265625 C-217.16332184 105.81761944 -214.60704017 99.87019304 -211.39453125 93.74609375 C-209.61577826 90.24339528 -208.28382461 86.70882666 -207 83 C-206.34 83 -205.68 83 -205 83 C-204.9175 82.319375 -204.835 81.63875 -204.75 80.9375 C-203.77667472 77.1253093 -202.04192545 74.35929671 -200 71 C-199.34 71 -198.68 71 -198 71 C-197.34 69.02 -196.68 67.04 -196 65 C-195.34 65 -194.68 65 -194 65 C-193.79375 64.319375 -193.5875 63.63875 -193.375 62.9375 C-191.532191 59.00058986 -188.89391464 56.20803471 -186 53 C-185.47277344 52.38125 -184.94554687 51.7625 -184.40234375 51.125 C-177.80880545 43.39356975 -170.87998914 35.95918766 -162.49609375 30.15625 C-160.84605603 29.05397227 -160.84605603 29.05397227 -160 27 C-159.01 26.690625 -158.02 26.38125 -157 26.0625 C-156.01 25.711875 -155.02 25.36125 -154 25 C-153.67 24.01 -153.34 23.02 -153 22 C-151.31347656 20.68139648 -151.31347656 20.68139648 -149.140625 19.37109375 C-148.35429687 18.89349609 -147.56796875 18.41589844 -146.7578125 17.92382812 C-145.93023437 17.43333984 -145.10265625 16.94285156 -144.25 16.4375 C-143.43789062 15.94314453 -142.62578125 15.44878906 -141.7890625 14.93945312 C-131.9194435 9 -131.9194435 9 -127 9 C-127 8.34 -127 7.68 -127 7 C-125.948125 6.61908203 -125.948125 6.61908203 -124.875 6.23046875 C-123.92625 5.88628906 -122.9775 5.54210937 -122 5.1875 C-121.071875 4.85105469 -120.14375 4.51460937 -119.1875 4.16796875 C-117.50191061 3.55033244 -115.81736517 2.92935687 -114.14306641 2.28173828 C-77.71893748 -11.74689859 -37.03813879 -11.3240018 0 0 Z " fill="#131D26" transform="translate(318,71)"/>
<path d="M0 0 C6.3938346 3.7210021 10.48585278 9.41042141 12.6875 16.4375 C13.13093867 19.2014079 13.21229531 21.89135184 13.1875 24.6875 C13.18250488 25.42967773 13.17750977 26.17185547 13.17236328 26.93652344 C12.9426282 34.24051466 11.11466338 40.50499081 6.23046875 46.109375 C4.75 47.4375 4.75 47.4375 1.6875 49.4375 C0.800625 50.035625 -0.08625 50.63375 -1 51.25 C-6.51857851 53.22835833 -12.30104154 53.77539317 -17.765625 51.34765625 C-20.12231233 49.88532329 -22.34670798 48.40329202 -24.3125 46.4375 C-24.6425 54.3575 -24.9725 62.2775 -25.3125 70.4375 C-29.9325 70.4375 -34.5525 70.4375 -39.3125 70.4375 C-39.3125 47.0075 -39.3125 23.5775 -39.3125 -0.5625 C-34.6925 -0.5625 -30.0725 -0.5625 -25.3125 -0.5625 C-25.3125 1.0875 -25.3125 2.7375 -25.3125 4.4375 C-24.590625 3.81875 -23.86875 3.2 -23.125 2.5625 C-16.4016489 -2.51736528 -7.76997519 -3.48154658 0 0 Z " fill="#F5F6F6" transform="translate(294.3125,216.5625)"/>
<path d="M0 0 C4.49046305 2.96179477 6.45937384 5.3830277 7.54077148 10.61767578 C8.0691698 14.5094516 8.12518121 18.32451301 8.09765625 22.2421875 C8.0962413 23.01055939 8.09482635 23.77893127 8.09336853 24.57058716 C8.08780683 27.00543239 8.0752616 29.44018294 8.0625 31.875 C8.05748004 33.53385283 8.05291801 35.19270712 8.04882812 36.8515625 C8.03784998 40.9010777 8.02061206 44.95052284 8 49 C3.71 49 -0.58 49 -5 49 C-5 47.68 -5 46.36 -5 45 C-6.299375 45.928125 -6.299375 45.928125 -7.625 46.875 C-13.75380736 50.73387871 -19.80990825 52.25232829 -27 51 C-31.85051845 48.70160049 -36.27293281 45.70812816 -39 41 C-39.96031139 35.34947209 -40.35859268 29.46720431 -37.53515625 24.33984375 C-34.85239794 21.21468555 -32.94308858 19.31436286 -29 18 C-13.71833481 17.06731621 -13.71833481 17.06731621 -7 21 C-6.40327054 15.3568049 -6.40327054 15.3568049 -8.8125 10.5 C-13.54016463 8.27521664 -17.86437747 8.21897276 -23 9 C-25.12391471 9.91618311 -25.12391471 9.91618311 -26.9375 11.125 C-30 13 -30 13 -32.3125 12.5 C-34.28630176 10.74550955 -35.18555116 9.51738732 -36 7 C-36.0625 5 -36.0625 5 -35 3 C-24.47971228 -4.01352514 -11.59756957 -5.68983058 0 0 Z " fill="#F6F8F8" transform="translate(234,218)"/>
<path d="M0 0 C7.23474662 -0.47097808 12.16903948 -0.54814921 18 4 C24.18385647 10.41995084 23.64581486 16.6554144 23.5625 25.25 C23.54594867 27.77598778 23.54642237 30.30216205 23.56640625 32.828125 C23.55009155 34.4972998 23.55009155 34.4972998 23.53344727 36.20019531 C23.71748667 39.12601222 23.71748667 39.12601222 26.00268555 40.75805664 C26.66179932 41.16789795 27.32091309 41.57773926 28 42 C28.52799676 44.76142303 28.18598981 47.16365545 28 50 C26.515 50.495 26.515 50.495 25 51 C23.65067635 53.6986473 23.8380377 55.87213545 23.7890625 58.890625 C23.74652344 60.66759766 23.74652344 60.66759766 23.703125 62.48046875 C23.65136848 64.97772066 23.60700218 67.47513754 23.5703125 69.97265625 C23.539375 71.16246094 23.5084375 72.35226562 23.4765625 73.578125 C23.45674316 74.66512695 23.43692383 75.75212891 23.41650391 76.87207031 C22.94389445 80.42135072 21.75335557 82.90091054 20 86 C19.34 86 18.68 86 18 86 C18 86.66 18 87.32 18 88 C11.97181491 92.28670939 7.28695785 92.474377 0 92 C0 89.03 0 86.06 0 83 C5.445 82.505 5.445 82.505 11 82 C12.04504561 78.86486316 12.1700002 76.52298807 12.24609375 73.23046875 C12.27896484 72.09416016 12.31183594 70.95785156 12.34570312 69.78710938 C12.40659992 67.39917776 12.46392754 65.01115229 12.51757812 62.62304688 C12.55173828 61.48287109 12.58589844 60.34269531 12.62109375 59.16796875 C12.6461499 58.12922607 12.67120605 57.0904834 12.69702148 56.02026367 C13.02255743 52.77513462 13.86204343 50.04735606 15 47 C15.66 47 16.32 47 17 47 C16.525625 46.4225 16.05125 45.845 15.5625 45.25 C12.85278098 41.34800461 12.8672711 37.69941069 12.7890625 33.02734375 C12.76070313 31.88072266 12.73234375 30.73410156 12.703125 29.55273438 C12.65096066 27.13882954 12.60671392 24.72474086 12.5703125 22.31054688 C12.539375 21.16521484 12.5084375 20.01988281 12.4765625 18.83984375 C12.45674316 17.79175537 12.43692383 16.74366699 12.41650391 15.66381836 C12.21212136 12.97955692 12.21212136 12.97955692 10.61157227 11.16699219 C8.49684956 9.63565231 6.89991815 9.49999407 4.3125 9.3125 C2.1778125 9.1578125 2.1778125 9.1578125 0 9 C0 6.03 0 3.06 0 0 Z " fill="#F1F2F3" transform="translate(361,191)"/>
<path d="M0 0 C1.50433594 0.01353516 1.50433594 0.01353516 3.0390625 0.02734375 C3.80992187 0.03894531 4.58078125 0.05054688 5.375 0.0625 C5.375 3.0325 5.375 6.0025 5.375 9.0625 C3.12890625 9.22526042 0.8828125 9.38802083 -1.36328125 9.55078125 C-4.16042179 10.18364034 -4.9248082 10.75864728 -6.625 13.0625 C-7.10005809 16.12774563 -7.10005809 16.12774563 -7.06640625 19.62890625 C-7.09283203 20.91861328 -7.11925781 22.20832031 -7.14648438 23.53710938 C-7.16138263 24.89972673 -7.17504027 26.26235817 -7.1875 27.625 C-7.21878968 30.29347206 -7.26434917 32.96064715 -7.31640625 35.62890625 C-7.32873291 36.81427979 -7.34105957 37.99965332 -7.35375977 39.22094727 C-7.625 42.0625 -7.625 42.0625 -9.625 44.0625 C-9.21971099 46.84487655 -9.21971099 46.84487655 -7.625 49.0625 C-7.50300532 51.16039298 -7.44522536 53.26207528 -7.4140625 55.36328125 C-7.38570312 56.65041016 -7.35734375 57.93753906 -7.328125 59.26367188 C-7.28692337 61.31762201 -7.25004705 63.37134064 -7.22363281 65.42553711 C-7.19595789 67.40500992 -7.14898971 69.38418318 -7.1015625 71.36328125 C-7.08174316 72.55091064 -7.06192383 73.73854004 -7.04150391 74.9621582 C-6.59420319 78.29174311 -5.9732839 79.70283221 -3.625 82.0625 C-1.36199105 82.7546369 -1.36199105 82.7546369 1.0625 82.8125 C2.485625 82.895 3.90875 82.9775 5.375 83.0625 C5.375 86.0325 5.375 89.0025 5.375 92.0625 C-2.05038083 92.45871597 -6.89141418 92.0701108 -12.875 87.25 C-16.25300988 83.02748764 -16.8696937 78.39614154 -16.96875 73.11328125 C-17.01322266 71.47069336 -17.01322266 71.47069336 -17.05859375 69.79492188 C-17.10309205 67.50325961 -17.14736057 65.21159288 -17.19140625 62.91992188 C-17.22105469 61.82873047 -17.25070313 60.73753906 -17.28125 59.61328125 C-17.29994141 58.61981689 -17.31863281 57.62635254 -17.33789062 56.6027832 C-17.45614394 53.81989329 -17.45614394 53.81989329 -19.625 51.0625 C-20.615 50.7325 -21.605 50.4025 -22.625 50.0625 C-22.625 47.4225 -22.625 44.7825 -22.625 42.0625 C-21.14 41.5675 -21.14 41.5675 -19.625 41.0625 C-17.76182948 37.52656447 -17.36824439 34.49281196 -17.31640625 30.53515625 C-17.29126953 29.49552734 -17.26613281 28.45589844 -17.24023438 27.38476562 C-17.20514227 25.21555354 -17.17387811 23.04627608 -17.14648438 20.87695312 C-16.98207319 14.40075645 -16.72066601 9.37872236 -12.08984375 4.41796875 C-7.60731955 0.99015613 -5.60977546 -0.06522995 0 0 Z " fill="#F8F9F9" transform="translate(161.625,190.9375)"/>
<path d="M0 0 C4.62 0 9.24 0 14 0 C14 17.16 14 34.32 14 52 C9.38 52 4.76 52 0 52 C0 34.84 0 17.68 0 0 Z " fill="#F2F3F4" transform="translate(317,216)"/>
<path d="M0 0 C3.65730648 1.7114774 6.26423605 3.84836947 8.4375 7.25 C9.81974883 14.00766097 9.66786674 19.96576763 6 26 C2.78793433 28.80537001 -0.26732984 29.86678724 -4.4375 30.625 C-8.50943387 29.91062564 -11.20987556 29.11332143 -14.44140625 26.51171875 C-16.76698956 22.76397422 -16.81302824 19.28072369 -16.875 14.9375 C-16.8948999 14.14553223 -16.9147998 13.35356445 -16.93530273 12.53759766 C-16.84036892 9.30032066 -16.75859967 6.93527134 -14.67285156 4.36376953 C-10.0387972 0.43145954 -6.02721728 -0.96652674 0 0 Z " fill="#182129" transform="translate(284,227)"/>
<path d="M0 0 C0.85980469 0.17144531 1.71960938 0.34289062 2.60546875 0.51953125 C4.8125 1.1875 4.8125 1.1875 6.8125 3.1875 C7.08241906 5.87589385 6.89987357 8.47891936 6.8125 11.1875 C2.75126277 13.70417094 -0.62197599 15.61455838 -5.5 15.0625 C-9.1875 14.1875 -9.1875 14.1875 -12.1875 12.1875 C-13.72901625 5.3607852 -13.72901625 5.3607852 -12.0625 1.75 C-8.37893449 -1.31963792 -4.48639045 -0.94343158 0 0 Z " fill="#192329" transform="translate(221.1875,244.8125)"/>
<path d="M0 0 C1.63671875 1.10546875 1.63671875 1.10546875 3.94921875 4.23046875 C4.42091461 7.62564223 4.30593204 10.82848086 3.94921875 14.23046875 C3.61921875 13.57046875 3.28921875 12.91046875 2.94921875 12.23046875 C-2.62121227 10.07825676 -8.12986369 9.85307357 -14.0625 9.57421875 C-16.93571338 9.24370532 -18.5987134 8.6917462 -21.05078125 7.23046875 C-21.71078125 6.90046875 -22.37078125 6.57046875 -23.05078125 6.23046875 C-23.71078125 6.89046875 -24.37078125 7.55046875 -25.05078125 8.23046875 C-25.05078125 5.59046875 -25.05078125 2.95046875 -25.05078125 0.23046875 C-24.06078125 1.22046875 -23.07078125 2.21046875 -22.05078125 3.23046875 C-18.55523397 1.8758437 -18.55523397 1.8758437 -15.21484375 0.1875 C-10.57241542 -1.86555946 -4.73531203 -1.77686947 0 0 Z " fill="#202930" transform="translate(224.05078125,226.76953125)"/>
<path d="M0 0 C2.4375 1 2.4375 1 4 3 C4.72084915 7.9658497 4.75377517 9.88075808 1.9375 14.0625 C-1 16 -1 16 -4.5625 16.125 C-8.61808807 14.79771663 -9.90599656 13.68544605 -12 10 C-12.5625 7.5 -12.5625 7.5 -12 5 C-8.47183859 0.1888708 -5.8889691 -0.85657732 0 0 Z " fill="#F2F4F4" transform="translate(327,195)"/>
<path d="M0 0 C2.70884621 0.20837279 4.45585214 0.59511273 6.6484375 2.2265625 C8.48255299 4.63317647 8.30390766 6.19970345 8.1875 9.1875 C8.16042969 10.08855469 8.13335937 10.98960937 8.10546875 11.91796875 C8.07066406 12.60503906 8.03585938 13.29210937 8 14 C7.67 13.34 7.34 12.68 7 12 C6.360625 11.690625 5.72125 11.38125 5.0625 11.0625 C3 10 3 10 1 7 C1 5.68 1 4.36 1 3 C0.01 2.67 -0.98 2.34 -2 2 C-1.34 1.34 -0.68 0.68 0 0 Z " fill="#161E24" transform="translate(220,227)"/>
<path d="M0 0 C0.66 0.33 1.32 0.66 2 1 C-0.84968196 6.56983292 -4.03394117 8.33170832 -9.7578125 10.7265625 C-12.37151864 12.21100187 -12.75802086 13.35262342 -14 16 C-17.125 16.75 -17.125 16.75 -20 17 C-17.51017809 14.43904032 -15.04769994 12.03794313 -12.25 9.8125 C-9.92512612 8.19690923 -9.92512612 8.19690923 -9 6 C-8.01 5.690625 -7.02 5.38125 -6 5.0625 C-4.515 4.5365625 -4.515 4.5365625 -3 4 C-2.67 3.01 -2.34 2.02 -2 1 C-1.34 0.67 -0.68 0.34 0 0 Z " fill="#52575D" transform="translate(167,92)"/>
<path d="M0 0 C2.97 0 5.94 0 9 0 C5.71195019 2.91227269 3.40114397 4.49701212 -1 5 C-1 5.66 -1 6.32 -1 7 C-3.375 8.6875 -3.375 8.6875 -6 10 C-6.66 9.67 -7.32 9.34 -8 9 C-7.34 7.68 -6.68 6.36 -6 5 C-5.01 5.33 -4.02 5.66 -3 6 C-3 5.01 -3 4.02 -3 3 C-2.34 3 -1.68 3 -1 3 C-0.67 2.01 -0.34 1.02 0 0 Z " fill="#4D5257" transform="translate(353,377)"/>
<path d="M0 0 C3.63 0.33 7.26 0.66 11 1 C9.02 1.99 9.02 1.99 7 3 C7 3.33 7 3.66 7 4 C8.423125 3.938125 8.423125 3.938125 9.875 3.875 C13 4 13 4 15 6 C10.71 6 6.42 6 2 6 C1.34 4.02 0.68 2.04 0 0 Z " fill="#0E161C" transform="translate(315,210)"/>
<path d="M0 0 C-0.33 2.31 -0.66 4.62 -1 7 C-1.66 7 -2.32 7 -3 7 C-3.33 8.32 -3.66 9.64 -4 11 C-4 8.69 -4 6.38 -4 4 C-4.99 3.67 -5.98 3.34 -7 3 C-7 2.01 -7 1.02 -7 0 C-4.3333581 -1.33332095 -2.83319697 -0.67102033 0 0 Z " fill="#1E262D" transform="translate(335,194)"/>
<path d="M0 0 C8.19256018 -0.63019694 8.19256018 -0.63019694 11.5625 2 C12.036875 2.66 12.51125 3.32 13 4 C12.67 4.99 12.34 5.98 12 7 C10.68 6.67 9.36 6.34 8 6 C7.67 4.68 7.34 3.36 7 2 C4.69 1.67 2.38 1.34 0 1 C0 0.67 0 0.34 0 0 Z " fill="#282F35" transform="translate(361,200)"/>
<path d="M0 0 C0.66 0 1.32 0 2 0 C4.125 4.625 4.125 4.625 3 8 C1.35 7.01 -0.3 6.02 -2 5 C-1.34 3.35 -0.68 1.7 0 0 Z " fill="#41474C" transform="translate(155,363)"/>
<path d="M0 0 C1.46015291 0.28241641 2.91809793 0.57626614 4.375 0.875 C5.18710937 1.03742188 5.99921875 1.19984375 6.8359375 1.3671875 C9 2 9 2 11 4 C10.01 4.99 9.02 5.98 8 7 C2.25 2.25 2.25 2.25 0 0 Z " fill="#5A5E63" transform="translate(318,72)"/>
<path d="M0 0 C1.23556641 0.01740234 1.23556641 0.01740234 2.49609375 0.03515625 C3.32238281 0.04417969 4.14867187 0.05320313 5 0.0625 C5.63808594 0.07410156 6.27617187 0.08570313 6.93359375 0.09765625 C6.93359375 0.42765625 6.93359375 0.75765625 6.93359375 1.09765625 C6.36769531 1.21882812 5.80179688 1.34 5.21875 1.46484375 C4.11853516 1.71621094 4.11853516 1.71621094 2.99609375 1.97265625 C2.26519531 2.13507813 1.53429687 2.2975 0.78125 2.46484375 C-1.27340919 2.92727148 -1.27340919 2.92727148 -2.06640625 5.09765625 C-3.05640625 5.09765625 -4.04640625 5.09765625 -5.06640625 5.09765625 C-2.6606399 0.12573913 -2.6606399 0.12573913 0 0 Z " fill="#2C3237" transform="translate(160.06640625,199.90234375)"/>
<path d="M0 0 C0.66 0 1.32 0 2 0 C2 0.66 2 1.32 2 2 C3.65 2.33 5.3 2.66 7 3 C7.33 3.99 7.66 4.98 8 6 C6.68 6.33 5.36 6.66 4 7 C3.67 5.68 3.34 4.36 3 3 C2.34 3 1.68 3 1 3 C0.67 2.01 0.34 1.02 0 0 Z " fill="#4F5459" transform="translate(119,328)"/>
<path d="M0 0 C3.465 1.98 3.465 1.98 7 4 C6.01 4.495 6.01 4.495 5 5 C4.67 5.66 4.34 6.32 4 7 C2.68 6.34 1.36 5.68 0 5 C0 3.35 0 1.7 0 0 Z " fill="#20262C" transform="translate(270,263)"/>
<path d="M0 0 C1.33333333 2.66666667 2.66666667 5.33333333 4 8 C2.35 8.33 0.7 8.66 -1 9 C-0.67 6.03 -0.34 3.06 0 0 Z " fill="#262D33" transform="translate(374,230)"/>
<path d="M0 0 C1.32 0.66 2.64 1.32 4 2 C2.71349294 2.69710731 1.42059335 3.38242876 0.125 4.0625 C-0.95394531 4.63677734 -0.95394531 4.63677734 -2.0546875 5.22265625 C-2.69664062 5.47917969 -3.33859375 5.73570312 -4 6 C-4.66 5.67 -5.32 5.34 -6 5 C-6 4.01 -6 3.02 -6 2 C-4.35 2 -2.7 2 -1 2 C-0.67 1.34 -0.34 0.68 0 0 Z " fill="#696E72" transform="translate(339,387)"/>
<path d="M0 0 C1.32 0.33 2.64 0.66 4 1 C0.535 3.97 0.535 3.97 -3 7 C-3.66 6.67 -4.32 6.34 -5 6 C-5 5.34 -5 4.68 -5 4 C-3.68 4 -2.36 4 -1 4 C-0.67 2.68 -0.34 1.36 0 0 Z " fill="#55595E" transform="translate(382,357)"/>
<path d="M0 0 C0.66 0 1.32 0 2 0 C1.45773019 3.79588866 -0.20127563 5.47211993 -3 8 C-3.33 6.35 -3.66 4.7 -4 3 C-3.01 2.67 -2.02 2.34 -1 2 C-0.67 1.34 -0.34 0.68 0 0 Z " fill="#41474B" transform="translate(393,345)"/>
<path d="M0 0 C-0.33 0.99 -0.66 1.98 -1 3 C-1.22325814 5.05893621 -1.40705759 7.12233653 -1.5625 9.1875 C-1.64628906 10.27417969 -1.73007813 11.36085937 -1.81640625 12.48046875 C-1.87699219 13.31191406 -1.93757812 14.14335937 -2 15 C-2.33 15 -2.66 15 -3 15 C-3.33 10.38 -3.66 5.76 -4 1 C-2 0 -2 0 0 0 Z " fill="#383F45" transform="translate(197,242)"/>
<path d="M0 0 C0.33 0 0.66 0 1 0 C1 2.31 1 4.62 1 7 C2.98 7.495 2.98 7.495 5 8 C5.33 9.32 5.66 10.64 6 12 C5.01 11.67 4.02 11.34 3 11 C3 10.01 3 9.02 3 8 C2.01 8 1.02 8 0 8 C0 5.36 0 2.72 0 0 Z " fill="#33393D" transform="translate(138,234)"/>
<path d="M0 0 C0.66 0 1.32 0 2 0 C1.67 1.98 1.34 3.96 1 6 C-0.32 6.33 -1.64 6.66 -3 7 C-1.125 1.125 -1.125 1.125 0 0 Z " fill="#242B30" transform="translate(306,252)"/>
<path d="M0 0 C0.99 0 1.98 0 3 0 C3.33 1.98 3.66 3.96 4 6 C2.68 5.67 1.36 5.34 0 5 C0 3.35 0 1.7 0 0 Z " fill="#3B4046" transform="translate(428,191)"/>
<path d="M0 0 C2 1 2 1 3.125 3.75 C3.91973395 6.70186896 4.17810598 8.97219837 4 12 C0.46209597 8.30827405 0.40884117 4.90609405 0 0 Z " fill="#656A6E" transform="translate(424,173)"/>
<path d="M0 0 C-0.66 1.32 -1.32 2.64 -2 4 C-4.97 3.505 -4.97 3.505 -8 3 C-7 1 -7 1 -4.5625 -0.1875 C-2 -1 -2 -1 0 0 Z " fill="#6B757A" transform="translate(190,81)"/>
</svg>
