<?xml version="1.0" encoding="UTF-8"?>
<svg version="1.1" xmlns="http://www.w3.org/2000/svg" width="348" height="348">
<path d="M0 0 C1.56483773 -0.00514704 3.12966966 -0.01243422 4.69448853 -0.02168274 C8.91766036 -0.04010226 13.14019599 -0.02731978 17.36334085 -0.00759244 C21.79585335 0.00886817 26.22832789 -0.00002883 30.66085815 -0.00511169 C38.10017997 -0.00962346 45.53924959 0.00618245 52.97851562 0.03417969 C61.56629256 0.06625106 70.15361541 0.06620375 78.74142468 0.04896492 C87.02282256 0.03307705 95.30405474 0.03984638 103.5854454 0.05690193 C107.10123 0.06375527 110.61688109 0.06275777 114.13266373 0.05535698 C118.27465661 0.04767048 122.41613529 0.05989676 126.55804062 0.08720589 C128.07370223 0.09406522 129.5894121 0.09421408 131.10507202 0.08699036 C140.65940115 0.04671573 147.40556096 0.52991799 154.99169922 6.88110352 C160.70495094 13.6752407 163.38986417 18.96023857 163.47998047 27.88110352 C163.04663287 59.46145246 163.04663287 59.46145246 176.30419922 86.63110352 C176.30419922 87.29110352 176.30419922 87.95110352 176.30419922 88.63110352 C176.84044922 88.89922852 177.37669922 89.16735352 177.92919922 89.44360352 C179.71270778 90.33535779 181.4812312 91.25718436 183.24169922 92.19360352 C186.52060356 93.88162532 186.52060356 93.88162532 191.30419922 94.63110352 C191.30419922 98.92110352 191.30419922 103.21110352 191.30419922 107.63110352 C189.12320964 108.57511393 186.94222005 109.51912435 184.76123047 110.46313477 C176.37946332 114.44747241 172.51180061 120.18704947 169.03857422 128.75219727 C164.49721794 142.59655577 163.97383618 156.6793914 163.91357422 171.12719727 C163.73267296 180.5843132 162.38856284 189.74352777 155.30419922 196.63110352 C149.0803602 201.14467272 144.61119623 202.74955938 136.88545227 202.77827454 C136.24318339 202.78195122 135.60091451 202.78562791 134.93918294 202.78941602 C132.78911836 202.80042042 130.63910216 202.80429117 128.48901367 202.80810547 C126.94639432 202.81437261 125.40377648 202.82101963 123.86116028 202.82801819 C118.79661098 202.84903247 113.73206148 202.85941861 108.66748047 202.86938477 C106.92178011 202.87343341 105.17607991 202.87755036 103.43037987 202.88173485 C95.22751955 202.90078131 87.02466821 202.91501308 78.82179004 202.92334682 C69.36361973 202.93311538 59.90568368 202.95942717 50.44759589 202.99984771 C43.1302357 203.03004271 35.81294252 203.04481893 28.49552125 203.04812783 C24.12839651 203.05047459 19.76152221 203.05938604 15.39446449 203.084589 C11.28299563 203.10793392 7.17194095 203.11207737 3.0604229 203.10182762 C1.55644475 203.10133369 0.05244576 203.10761177 -1.45146942 203.12138367 C-11.07223116 203.20451239 -18.77823736 202.6545645 -26.44580078 196.38110352 C-32.09844165 189.47232023 -34.76684132 184.25791827 -34.90673828 175.27563477 C-34.9328418 174.02129639 -34.95894531 172.76695801 -34.98583984 171.47460938 C-34.99909302 170.81588837 -35.01234619 170.15716736 -35.02600098 169.47848511 C-35.52451128 141.23381948 -35.52451128 141.23381948 -47.18017578 116.05688477 C-51.53105903 111.9639147 -57.20539367 109.76733586 -62.69580078 107.63110352 C-62.72276443 105.83951862 -62.74217995 104.04781878 -62.75830078 102.25610352 C-62.76990234 101.25836914 -62.78150391 100.26063477 -62.79345703 99.23266602 C-62.69580078 96.63110352 -62.69580078 96.63110352 -61.69580078 94.63110352 C-59.73794401 93.90105523 -57.77950362 93.17249671 -55.81689453 92.45532227 C-48.33715549 89.54883067 -45.04064783 84.64205411 -41.69580078 77.63110352 C-36.0139151 62.96218296 -35.36744417 48.09862029 -35.30517578 32.53930664 C-35.13290858 23.16509988 -33.64439382 16.22743972 -28.57080078 8.31860352 C-20.08408079 0.38536527 -11.09191606 -0.0932395 0 0 Z " fill="#7C11F9" transform="translate(109.69580078125,72.368896484375)"/>
<path d="M0 0 C59.5 0 59.5 0 70 9 C74.80712018 14.00692713 76.94306086 19.53739511 77.03125 26.44921875 C76.62352648 33.10530527 75.06187274 38.85980028 70.3203125 43.72265625 C68.5936422 45.23071379 66.83941968 46.63253668 65 48 C64.2678125 48.55042969 63.535625 49.10085937 62.78125 49.66796875 C62.1934375 50.10753906 61.605625 50.54710937 61 51 C61.64066406 51.20753906 62.28132813 51.41507813 62.94140625 51.62890625 C70.32379608 54.25840129 75.31264975 57.3988098 79.31640625 64.25390625 C83.0602705 72.38083108 83.39772001 80.86754336 80.4375 89.3125 C76.90002023 97.00374522 71.41538745 101.16659349 64.015625 104.95703125 C44.44638149 111.72515044 17.53328975 108 0 108 C0 72.36 0 36.72 0 0 Z " fill="#F6EDFB" transform="translate(135,120)"/>
<path d="M0 0 C49 1 49 1 54 5 C54.99 4.34 55.98 3.68 57 3 C58.98 5.97 58.98 5.97 61 9 C59.02 9.99 59.02 9.99 57 11 C57 13.31 57 15.62 57 18 C54.29663232 17.5084786 51.80994012 16.93166386 49.21875 16 C43.18878923 14.25813461 36.7885113 14.52640764 30.5625 14.375 C26.086875 14.25125 21.61125 14.1275 17 14 C17 23.57 17 33.14 17 43 C16.34 43 15.68 43 15 43 C15 42.01 15 41.02 15 40 C14.34 40.99 13.68 41.98 13 43 C12.01 42.01 11.02 41.02 10 40 C10.03480469 40.77085937 10.06960937 41.54171875 10.10546875 42.3359375 C10.13253906 43.33882812 10.15960938 44.34171875 10.1875 45.375 C10.22230469 46.37273437 10.25710937 47.37046875 10.29296875 48.3984375 C10.19628906 49.25695312 10.09960938 50.11546875 10 51 C9.01 51.66 8.02 52.32 7 53 C7.33 53.99 7.66 54.98 8 56 C5.525 56.495 5.525 56.495 3 57 C3 59.31 3 61.62 3 64 C5.87137415 64 8.2303041 63.72886734 11 63 C11.33 62.34 11.66 61.68 12 61 C12.66 61.66 13.32 62.32 14 63 C11.97549079 60.97549079 10.57066248 58.38132699 9 56 C10.08073852 53.83852297 11.19363264 52.58960328 13 51 C13.66 51 14.32 51 15 51 C15 53.31 15 55.62 15 58 C16.32 57.01 17.64 56.02 19 55 C18.67 53.68 18.34 52.36 18 51 C20.475 50.505 20.475 50.505 23 50 C23.33 51.32 23.66 52.64 24 54 C24.33 53.01 24.66 52.02 25 51 C26.32 51.99 27.64 52.98 29 54 C30.32 53.34 31.64 52.68 33 52 C33 52.99 33 53.98 33 55 C33.66 55 34.32 55 35 55 C35 55.66 35 56.32 35 57 C37.31 56.67 39.62 56.34 42 56 C42 55.01 42 54.02 42 53 C42.99 53.495 42.99 53.495 44 54 C44 54.99 44 55.98 44 57 C46.31 57 48.62 57 51 57 C51 57.66 51 58.32 51 59 C40.11 59 29.22 59 18 59 C18 70.55 18 82.1 18 94 C22.434375 93.87625 26.86875 93.7525 31.4375 93.625 C32.81736084 93.59100098 34.19722168 93.55700195 35.61889648 93.52197266 C48.16543655 93.56065607 48.16543655 93.56065607 58.9375 88.0625 C59.48277344 87.55847656 60.02804688 87.05445313 60.58984375 86.53515625 C62.21380426 84.84651806 62.21380426 84.84651806 64 82 C64.33 82.33 64.66 82.66 65 83 C65.33 80.36 65.66 77.72 66 75 C68.31 75 70.62 75 73 75 C73 77.31 73 79.62 73 82 C71.02 82.99 71.02 82.99 69 84 C69.33 84.33 69.66 84.66 70 85 C69.5625 87.0625 69.5625 87.0625 69 89 C70.98 89.99 70.98 89.99 73 91 C72.01 92.32 71.02 93.64 70 95 C68.515 94.505 68.515 94.505 67 94 C67 95.32 67 96.64 67 98 C67.66 98.66 68.32 99.32 69 100 C68 103 68 103 65.7421875 104.1328125 C64.79601562 104.46023437 63.84984375 104.78765625 62.875 105.125 C61.47894531 105.62386719 61.47894531 105.62386719 60.0546875 106.1328125 C41.61630146 111.36723923 14.41346966 108 0 108 C0 72.36 0 36.72 0 0 Z " fill="#F1E3FB" transform="translate(135,120)"/>
<path d="M0 0 C4.764375 -0.061875 9.52875 -0.12375 14.4375 -0.1875 C15.9217749 -0.21481201 17.4060498 -0.24212402 18.93530273 -0.27026367 C27.58160265 -0.32444505 34.62157575 0.11210316 41.9375 4.9375 C45.67421246 8.67421246 46.29269361 11.70201132 46.3125 16.9375 C46.32925781 17.95714844 46.34601563 18.97679687 46.36328125 20.02734375 C45.7839212 24.76812867 43.65450326 27.32991333 40.375 30.6875 C32.91915755 36.47646374 22.33073484 35.24235103 13.4375 35.125 C9.003125 35.08375 4.56875 35.0425 0 35 C0 23.45 0 11.9 0 0 Z " fill="#7A11F7" transform="translate(153,179)"/>
<path d="M0 0 C48 1 48 1 53 5 C53.99 4.34 54.98 3.68 56 3 C57.98 5.97 57.98 5.97 60 9 C58.02 9.99 58.02 9.99 56 11 C56 13.31 56 15.62 56 18 C53.29663232 17.5084786 50.80994012 16.93166386 48.21875 16 C42.18878923 14.25813461 35.7885113 14.52640764 29.5625 14.375 C25.086875 14.25125 20.61125 14.1275 16 14 C16 23.57 16 33.14 16 43 C15.34 43 14.68 43 14 43 C14 42.01 14 41.02 14 40 C13.34 40.99 12.68 41.98 12 43 C11.01 42.01 10.02 41.02 9 40 C9.03480469 40.77085937 9.06960937 41.54171875 9.10546875 42.3359375 C9.13253906 43.33882812 9.15960938 44.34171875 9.1875 45.375 C9.22230469 46.37273437 9.25710937 47.37046875 9.29296875 48.3984375 C9.19628906 49.25695312 9.09960938 50.11546875 9 51 C8.01 51.66 7.02 52.32 6 53 C6.33 53.99 6.66 54.98 7 56 C4.525 56.495 4.525 56.495 2 57 C2 59.31 2 61.62 2 64 C4.87137415 64 7.2303041 63.72886734 10 63 C10.33 62.34 10.66 61.68 11 61 C11.66 61.66 12.32 62.32 13 63 C10.97549079 60.97549079 9.57066248 58.38132699 8 56 C9.08073852 53.83852297 10.19363264 52.58960328 12 51 C12.66 51 13.32 51 14 51 C14 53.31 14 55.62 14 58 C14.66 58 15.32 58 16 58 C16 62.62 16 67.24 16 72 C14.68 71.34 13.36 70.68 12 70 C12.99 69.505 12.99 69.505 14 69 C14 68.01 14 67.02 14 66 C10.45481116 67.39759905 10.45481116 67.39759905 7 69 C7 69.66 7 70.32 7 71 C4.525 71.99 4.525 71.99 2 73 C1.67 72.34 1.34 71.68 1 71 C1 82.22 1 93.44 1 105 C0.67 105 0.34 105 0 105 C0 70.35 0 35.7 0 0 Z " fill="#FCF9FC" transform="translate(136,120)"/>
<path d="M0 0 C6.4040625 -0.0928125 6.4040625 -0.0928125 12.9375 -0.1875 C14.26515381 -0.21481201 15.59280762 -0.24212402 16.96069336 -0.27026367 C23.676921 -0.31712459 29.93482922 -0.1760505 36 3 C39.89344189 6.99077794 41.16995492 9.75826317 41.3125 15.25 C41.23920826 20.34710725 40.67704532 23.23102855 37 27 C31.02165993 30.86907186 25.3514495 32.13556925 18.26171875 32.09765625 C17.29967529 32.09515869 16.33763184 32.09266113 15.34643555 32.09008789 C14.13898682 32.08098389 12.93153809 32.07187988 11.6875 32.0625 C7.830625 32.041875 3.97375 32.02125 0 32 C0 21.44 0 10.88 0 0 Z " fill="#7E12F9" transform="translate(153,134)"/>
<path d="M0 0 C20.72319925 -0.09349959 41.44636365 -0.1640068 62.16973114 -0.20724869 C71.79226234 -0.22786158 81.41466237 -0.25595784 91.03710938 -0.30175781 C99.42541356 -0.34166455 107.81362273 -0.36744207 116.20201921 -0.37635398 C120.64240311 -0.38156223 125.08251522 -0.39377693 129.52281189 -0.42292023 C133.70561129 -0.45015003 137.88802797 -0.45842979 142.07090759 -0.45243073 C143.60272301 -0.45352759 145.13455174 -0.46143652 146.66629028 -0.4768219 C156.28655164 -0.56867958 163.04640052 -0.14719957 170.6875 6.25 C176.52102592 13.18716596 179.04647871 18.51666279 179.28125 27.6015625 C179.33732422 29.54482422 179.33732422 29.54482422 179.39453125 31.52734375 C179.430123 32.89321789 179.46527657 34.25910351 179.5 35.625 C179.71941408 44.12063108 179.96880444 52.55771208 181 61 C180.01 61.495 180.01 61.495 179 62 C178.7834375 60.2984375 178.7834375 60.2984375 178.5625 58.5625 C178.38828522 55.19222799 178.38828522 55.19222799 177 54 C176.91152257 51.47905924 176.88472699 48.98569107 176.90234375 46.46484375 C176.90446617 45.33496788 176.90446617 45.33496788 176.90663147 44.18226624 C176.91224624 41.7673044 176.92480117 39.35243399 176.9375 36.9375 C176.9425131 35.30403779 176.94707634 33.67057414 176.95117188 32.03710938 C176.96222046 28.02470415 176.97949494 24.01236759 177 20 C176.34 20 175.68 20 175 20 C174.566875 18.14375 174.566875 18.14375 174.125 16.25 C173.09512015 11.89336417 173.09512015 11.89336417 171 8 C168.46229997 6.71745356 168.46229997 6.71745356 166 6 C166 5.34 166 4.68 166 4 C164.35 4 162.7 4 161 4 C161 3.34 161 2.68 161 2 C107.54 2 54.08 2 -1 2 C-0.67 1.34 -0.34 0.68 0 0 Z " fill="#863CDA" transform="translate(94,73)"/>
<path d="M0 0 C0.99 0 1.98 0 3 0 C2.54741183 4.97846983 0.33899133 8.4154946 -3 12 C-8.64749125 16.37008251 -13.31715274 18.12709085 -20.45428467 18.12025452 C-21.56203751 18.12162918 -22.66979034 18.12300385 -23.81111145 18.12442017 C-25.62695992 18.11902725 -25.62695992 18.11902725 -27.47949219 18.11352539 C-28.75779404 18.11367142 -30.03609589 18.11381744 -31.35313416 18.1139679 C-34.8548658 18.11425475 -38.35656318 18.108376 -41.85828686 18.10139394 C-45.51914992 18.09514189 -49.18001377 18.09455513 -52.84088135 18.09336853 C-59.77166051 18.09026068 -66.7024239 18.08205464 -73.63319612 18.07201904 C-81.52430947 18.06084096 -89.41542357 18.05534318 -97.30654287 18.05032361 C-113.53770448 18.03987159 -129.76885023 18.0222827 -146 18 C-144 16 -144 16 -141.70802879 15.75390434 C-140.74383333 15.75574793 -139.77963787 15.75759151 -138.78622437 15.75949097 C-137.68122086 15.75674164 -136.57621735 15.75399231 -135.43772888 15.75115967 C-133.61109459 15.7619455 -133.61109459 15.7619455 -131.74755859 15.77294922 C-129.8305439 15.77251114 -129.8305439 15.77251114 -127.87480164 15.77206421 C-124.36464556 15.77148902 -120.85462543 15.7832701 -117.34450102 15.79721212 C-113.67829288 15.80969186 -110.01208182 15.8108878 -106.34585571 15.81326294 C-99.40082099 15.81948584 -92.45584902 15.83590757 -85.51084197 15.85596192 C-77.60527163 15.87829577 -69.69969835 15.88930801 -61.79410434 15.89935279 C-45.52936612 15.92027313 -29.26469106 15.95546478 -13 16 C-13 15.34 -13 14.68 -13 14 C-12.01 13.67 -11.02 13.34 -10 13 C-10.33 12.34 -10.66 11.68 -11 11 C-10.67 10.01 -10.34 9.02 -10 8 C-9.01 8.33 -8.02 8.66 -7 9 C-7.33 9.66 -7.66 10.32 -8 11 C-7.01 11 -6.02 11 -5 11 C-5.33 10.01 -5.66 9.02 -6 8 C-4.7934375 7.4121875 -4.7934375 7.4121875 -3.5625 6.8125 C-0.76935262 5.23051809 -0.76935262 5.23051809 -0.1875 2.3125 C-0.125625 1.549375 -0.06375 0.78625 0 0 Z " fill="#772ED1" transform="translate(268,257)"/>
<path d="M0 0 C0.66 0 1.32 0 2 0 C2 35.64 2 71.28 2 108 C1.34 108 0.68 108 0 108 C-0.15377025 94.06626451 -0.30173995 80.13247789 -0.4429636 66.19860935 C-0.50870286 59.72929811 -0.57632868 53.26001781 -0.64819336 46.79077148 C-0.71741471 40.55333798 -0.78177541 34.31587189 -0.84269524 28.07835197 C-0.86686233 25.69278056 -0.89281253 23.30722656 -0.92053413 20.9216938 C-0.9589171 17.59308727 -0.99108935 14.26447652 -1.02172852 10.93579102 C-1.03467453 9.93885727 -1.04762054 8.94192352 -1.06095886 7.91477966 C-1.06799835 7.01309052 -1.07503784 6.11140137 -1.08229065 5.18238831 C-1.09058679 4.3942553 -1.09888292 3.6061223 -1.10743046 2.79410648 C-1 1 -1 1 0 0 Z " fill="#7119D8" transform="translate(133,120)"/>
<path d="M0 0 C9.24 0 18.48 0 28 0 C28 0.33 28 0.66 28 1 C19.09 1 10.18 1 1 1 C1 11.89 1 22.78 1 34 C4.939375 33.87625 8.87875 33.7525 12.9375 33.625 C14.16073975 33.59100098 15.38397949 33.55700195 16.64428711 33.52197266 C22.9898326 33.29433439 28.86976534 32.65562807 35 31 C36.33298312 30.66526894 37.66622016 30.33154221 39 30 C39 29.01 39 28.02 39 27 C39.639375 26.773125 40.27875 26.54625 40.9375 26.3125 C43.1930152 25.17850506 43.1930152 25.17850506 43.75 22.8125 C44.28424906 16.80219812 44.49268417 13.09349775 41 8 C41 7.34 41 6.68 41 6 C40.34 6 39.68 6 39 6 C39 5.34 39 4.68 39 4 C42.87294102 5.46904659 44.17808734 7.33051393 46 11 C46.3984375 13.9375 46.3984375 13.9375 46.375 17 C46.38660156 18.5159375 46.38660156 18.5159375 46.3984375 20.0625 C45.6915314 25.27419988 42.8770259 28.74484398 38.76098633 31.94067383 C31.43807555 36.34579096 21.61148706 35.23286017 13.4375 35.125 C9.003125 35.08375 4.56875 35.0425 0 35 C0 23.45 0 11.9 0 0 Z " fill="#6B21CA" transform="translate(153,179)"/>
<path d="M0 0 C5.26984365 1.94152134 7.29726868 4.08594306 10 9 C10 9.66 10 10.32 10 11 C10.66 11 11.32 11 12 11 C13.31403443 16.91315492 13.31877874 22.97133153 13 29 C12.67 29.33 12.34 29.66 12 30 C11.6775729 31.55644353 11.39200582 33.12059745 11.125 34.6875 C10.3094187 38.87335109 9.39934749 42.40097877 7 46 C4.875 46.6875 4.875 46.6875 3 47 C2.67 47.99 2.34 48.98 2 50 C-0.97 50 -3.94 50 -7 50 C-6.34 49.484375 -5.68 48.96875 -5 48.4375 C-4.01 47.633125 -3.02 46.82875 -2 46 C-1.34902344 45.51402344 -0.69804687 45.02804688 -0.02734375 44.52734375 C6.40900185 39.43842003 9.33947668 34.20850161 10.375 26.04296875 C10.74432367 17.05224562 8.58217928 9.7713447 2.75 2.875 C1.8425 1.92625 0.935 0.9775 0 0 Z " fill="#6D21D3" transform="translate(206,175)"/>
<path d="M0 0 C8.24781332 2.30171534 11.53940189 6.41713309 15.765625 13.5625 C17.96387585 17.90334977 18.15604749 21.75662507 18.28125 26.6015625 C18.31863281 27.89707031 18.35601562 29.19257812 18.39453125 30.52734375 C18.430123 31.89321789 18.46527657 33.25910351 18.5 34.625 C18.71941408 43.12063108 18.96880444 51.55771208 20 60 C19.01 60.495 19.01 60.495 18 61 C17.855625 59.865625 17.71125 58.73125 17.5625 57.5625 C17.38828522 54.19222799 17.38828522 54.19222799 16 53 C15.91152257 50.47905924 15.88472699 47.98569107 15.90234375 45.46484375 C15.9037587 44.71159317 15.90517365 43.95834259 15.90663147 43.18226624 C15.91224624 40.7673044 15.92480117 38.35243399 15.9375 35.9375 C15.9425131 34.30403779 15.94707634 32.67057414 15.95117188 31.03710938 C15.96222046 27.02470415 15.97949494 23.01236759 16 19 C15.34 19 14.68 19 14 19 C13.71125 17.7625 13.4225 16.525 13.125 15.25 C12.09512015 10.89336417 12.09512015 10.89336417 10 7 C7.46229997 5.71745356 7.46229997 5.71745356 5 5 C5 4.34 5 3.68 5 3 C3.35 3 1.7 3 0 3 C0 2.01 0 1.02 0 0 Z " fill="#803AD7" transform="translate(255,74)"/>
<path d="M0 0 C6.63444549 -0.07660942 13.2687752 -0.12883271 19.90356445 -0.16479492 C22.1565375 -0.17980076 24.40948175 -0.20021191 26.66235352 -0.22631836 C29.91690214 -0.26306443 33.17106166 -0.27980894 36.42578125 -0.29296875 C37.41894852 -0.30845261 38.41211578 -0.32393646 39.43537903 -0.33988953 C48.0154342 -0.34191437 56.88759538 0.88153917 64.0625 5.9375 C64.77535156 6.42089844 65.48820312 6.90429688 66.22265625 7.40234375 C68.1409382 9.1266895 69.01449892 10.63581864 70 13 C69.34 13 68.68 13 68 13 C68 12.34 68 11.68 68 11 C67.01 10.67 66.02 10.34 65 10 C64.34 10.66 63.68 11.32 63 12 C62.62875 11.030625 62.2575 10.06125 61.875 9.0625 C60.28855632 5.72784137 60.28855632 5.72784137 56.9375 5 C55.968125 5 54.99875 5 54 5 C53.34 5.66 52.68 6.32 52 7 C50 6 50 6 49 3 C46.62617015 1.81308507 45.10821107 1.84427133 42.45849609 1.79467773 C41.51767181 1.77473251 40.57684753 1.75478729 39.60751343 1.73423767 C38.58976837 1.71752518 37.57202332 1.70081268 36.5234375 1.68359375 C35.48305328 1.66281265 34.44266907 1.64203156 33.37075806 1.62062073 C30.03890751 1.55510128 26.7069765 1.49622908 23.375 1.4375 C21.11978326 1.39431706 18.86457473 1.35070285 16.609375 1.30664062 C11.07300236 1.19941748 5.53654922 1.09765554 0 1 C0 0.67 0 0.34 0 0 Z " fill="#EBD2FE" transform="translate(137,120)"/>
<path d="M0 0 C0.33 0 0.66 0 1 0 C1 1.65 1 3.3 1 5 C0.01 5.33 -0.98 5.66 -2 6 C-2.80563638 8.10584438 -2.80563638 8.10584438 -3.1875 10.5625 C-3.34605469 11.38878906 -3.50460938 12.21507813 -3.66796875 13.06640625 C-3.77753906 13.70449219 -3.88710937 14.34257813 -4 15 C-4.33 15 -4.66 15 -5 15 C-5.01458252 15.98919434 -5.02916504 16.97838867 -5.04418945 17.99755859 C-5.1020897 21.66182919 -5.17932152 25.32547985 -5.26245117 28.98925781 C-5.2957398 30.57606965 -5.32375947 32.16300103 -5.34643555 33.75 C-5.37991078 36.02916484 -5.4322186 38.30723041 -5.48828125 40.5859375 C-5.49467117 41.29744965 -5.5010611 42.00896179 -5.50764465 42.74203491 C-5.56762695 44.74365234 -5.56762695 44.74365234 -6 48 C-6.99 48.66 -7.98 49.32 -9 50 C-8.95547227 45.1979151 -8.88525644 40.39709868 -8.79248047 35.59570312 C-8.76446976 33.96657475 -8.74315749 32.3373155 -8.72900391 30.70800781 C-8.62423099 19.32268386 -8.42285835 8.71330174 0 0 Z " fill="#974DE0" transform="translate(83,79)"/>
<path d="M0 0 C1.98 0.495 1.98 0.495 4 1 C3.01 1 2.02 1 1 1 C1 4.63 1 8.26 1 12 C4.63 12.33 8.26 12.66 12 13 C12.33 14.32 12.66 15.64 13 17 C14.64551962 17.71727778 16.31422289 18.38325228 18 19 C20.00993705 22.01490557 20.72623341 24.2149927 21.625 27.6875 C21.88539062 28.68136719 22.14578125 29.67523438 22.4140625 30.69921875 C22.60742188 31.45847656 22.80078125 32.21773437 23 33 C22.01 33.495 22.01 33.495 21 34 C20.69707031 33.33613281 20.39414063 32.67226562 20.08203125 31.98828125 C15.23131463 21.76446315 9.47631145 17.07212791 -1 13 C-1.02696365 11.20841511 -1.04637917 9.41671527 -1.0625 7.625 C-1.07410156 6.62726563 -1.08570313 5.62953125 -1.09765625 4.6015625 C-1 2 -1 2 0 0 Z " fill="#9040DE" transform="translate(48,167)"/>
<path d="M0 0 C6.4040625 -0.0928125 6.4040625 -0.0928125 12.9375 -0.1875 C14.26515381 -0.21481201 15.59280762 -0.24212402 16.96069336 -0.27026367 C23.56547987 -0.31634703 30.09532812 -0.33351925 36 3 C36.66 3.99 37.32 4.98 38 6 C37.34 6.33 36.68 6.66 36 7 C36 6.34 36 5.68 36 5 C35.28972656 4.86722656 34.57945312 4.73445312 33.84765625 4.59765625 C32.92855469 4.42105469 32.00945312 4.24445313 31.0625 4.0625 C30.14597656 3.88847656 29.22945312 3.71445313 28.28515625 3.53515625 C26 3 26 3 25 2 C23.22130274 1.84235595 21.43681524 1.74899323 19.65234375 1.68359375 C18.19429321 1.62643188 18.19429321 1.62643188 16.70678711 1.56811523 C15.46292236 1.52501221 14.21905762 1.48190918 12.9375 1.4375 C8.998125 1.293125 5.05875 1.14875 1 1 C1 10.9 1 20.8 1 31 C7.93 31 14.86 31 22 31 C22 31.33 22 31.66 22 32 C14.74 32 7.48 32 0 32 C0 21.44 0 10.88 0 0 Z " fill="#6C1EC8" transform="translate(153,134)"/>
<path d="M0 0 C7.22246261 -0.05097556 14.4448783 -0.08584878 21.66748047 -0.10986328 C24.12127415 -0.1198814 26.57505601 -0.13349966 29.02880859 -0.15087891 C32.56871469 -0.17531188 36.10846206 -0.18652534 39.6484375 -0.1953125 C40.73426117 -0.20563507 41.82008484 -0.21595764 42.93881226 -0.22659302 C49.5312446 -0.22755028 55.59426998 0.42663737 62 2 C62 2.66 62 3.32 62 4 C62.99 4 63.98 4 65 4 C65 4.66 65 5.32 65 6 C66.32 6 67.64 6 69 6 C69.495 8.475 69.495 8.475 70 11 C69.23816406 10.51789063 68.47632813 10.03578125 67.69140625 9.5390625 C66.65886719 8.90742187 65.62632812 8.27578125 64.5625 7.625 C63.55316406 6.99851562 62.54382813 6.37203125 61.50390625 5.7265625 C53.79120492 1.92610097 45.87746325 1.68141375 37.40234375 1.5859375 C36.32747208 1.56657135 35.2526004 1.5472052 34.14515686 1.5272522 C30.742683 1.46790699 27.34017447 1.42125228 23.9375 1.375 C21.61782453 1.33677872 19.29816262 1.29772463 16.97851562 1.2578125 C11.31913163 1.16224297 5.65966461 1.07706622 0 1 C0 0.67 0 0.34 0 0 Z " fill="#6B1CD0" transform="translate(136,119)"/>
<path d="M0 0 C2.97 0.495 2.97 0.495 6 1 C6.268125 1.969375 6.53625 2.93875 6.8125 3.9375 C7.204375 4.948125 7.59625 5.95875 8 7 C8.99 7.33 9.98 7.66 11 8 C11.33 8.66 11.66 9.32 12 10 C14.98141339 11.03585484 17.89066328 11.17189517 21.02734375 11.28125 C21.98447266 11.31863281 22.94160156 11.35601562 23.92773438 11.39453125 C24.92095703 11.42933594 25.91417969 11.46414063 26.9375 11.5 C28.90508152 11.56921785 30.87254102 11.64201593 32.83984375 11.71875 C33.70988037 11.74904297 34.57991699 11.77933594 35.47631836 11.81054688 C38.05160612 12.00387408 40.4807504 12.44186151 43 13 C43 13.33 43 13.66 43 14 C38.85440907 14.11727273 34.70925138 14.18760933 30.5625 14.25 C28.81549805 14.30027344 28.81549805 14.30027344 27.03320312 14.3515625 C18.27323106 14.45026641 11.89549675 13.30270376 5.125 7.5625 C3.11836246 5.1427312 1.49813519 2.75972272 0 0 Z " fill="#7D36D4" transform="translate(78,261)"/>
<path d="M0 0 C0.33 0 0.66 0 1 0 C1 10.56 1 21.12 1 32 C0.67 31.34 0.34 30.68 0 30 C-0.66 31.98 -1.32 33.96 -2 36 C-2.99 35.67 -3.98 35.34 -5 35 C-5.33 35.66 -5.66 36.32 -6 37 C-6 36.34 -6 35.68 -6 35 C-6.66 35 -7.32 35 -8 35 C-8 31.7 -8 28.4 -8 25 C-7.01 24.67 -6.02 24.34 -5 24 C-4.67 24.99 -4.34 25.98 -4 27 C-3.01 26.34 -2.02 25.68 -1 25 C-1.33 26.32 -1.66 27.64 -2 29 C-1.34 29 -0.68 29 0 29 C0 19.43 0 9.86 0 0 Z " fill="#EDDAFB" transform="translate(152,134)"/>
<path d="M0 0 C0.66 0.33 1.32 0.66 2 1 C2 12.88 2 24.76 2 37 C-0.85897424 34.14102576 -0.37205293 31.23875738 -0.44921875 27.40234375 C-0.47095657 26.65287979 -0.4926944 25.90341583 -0.51509094 25.13124084 C-0.55901575 23.54684333 -0.59821388 21.9623088 -0.63305664 20.37768555 C-0.68736822 17.94340656 -0.75751926 15.50996832 -0.83007812 13.07617188 C-0.87072766 11.53908697 -0.91047216 10.0019778 -0.94921875 8.46484375 C-0.96997971 7.73257065 -0.99074066 7.00029755 -1.01213074 6.24583435 C-1.04750409 4.49757605 -1.02918619 2.74837253 -1 1 C-0.67 0.67 -0.34 0.34 0 0 Z " fill="#873DD8" transform="translate(75,219)"/>
<path d="M0 0 C1.18504789 3.55514368 0.77142408 4.29496512 -0.6875 7.625 C-1.02136719 8.42164063 -1.35523438 9.21828125 -1.69921875 10.0390625 C-3.31285496 12.47163119 -4.24941443 12.40618723 -7 13 C-7.33 13.99 -7.66 14.98 -8 16 C-10.97 16 -13.94 16 -17 16 C-16.34 15.484375 -15.68 14.96875 -15 14.4375 C-11.85917838 11.88558244 -8.86174782 9.2090199 -5.8671875 6.48828125 C-4 5 -4 5 -1 4 C-0.26676204 1.98491642 -0.26676204 1.98491642 0 0 Z " fill="#6F1BE2" transform="translate(216,209)"/>
<path d="M0 0 C-0.75 4.75 -0.75 4.75 -3 7 C-2.05125 6.95875 -1.1025 6.9175 -0.125 6.875 C3 7 3 7 5 9 C1.00999834 10.42500059 -2.80530429 11.40075776 -7 12 C-9 9 -9 9 -8.625 6.8125 C-8.41875 6.214375 -8.2125 5.61625 -8 5 C-7.34 5 -6.68 5 -6 5 C-5.67 5.99 -5.34 6.98 -5 8 C-4.67 6.02 -4.34 4.04 -4 2 C-5.32 1.67 -6.64 1.34 -8 1 C-2.25 0 -2.25 0 0 0 Z " fill="#ECE0F6" transform="translate(189,212)"/>
<path d="M0 0 C0.66 1.32 1.32 2.64 2 4 C1.01 5.485 1.01 5.485 0 7 C-0.02639829 9.29714187 -0.02639829 9.29714187 0.375 11.6875 C0.48585937 12.49574219 0.59671875 13.30398437 0.7109375 14.13671875 C0.80632812 14.75160156 0.90171875 15.36648437 1 16 C-2.04794934 16.93131785 -3.42050674 17.29757762 -6.3125 15.8125 C-8 14 -8 14 -8 10 C-5.83125748 10.50603992 -4.00032373 10.99983813 -2 12 C-2.33 11.01 -2.66 10.02 -3 9 C-3.66 9 -4.32 9 -5 9 C-5 7.68 -5 6.36 -5 5 C-4.34 5 -3.68 5 -3 5 C-2.67 4.34 -2.34 3.68 -2 3 C-1.34 3.33 -0.68 3.66 0 4 C-0.33 3.01 -0.66 2.02 -1 1 C-0.67 0.67 -0.34 0.34 0 0 Z " fill="#ECE2F5" transform="translate(214,194)"/>
<path d="M0 0 C1.24546405 2.49092811 0.7767578 3.41080733 0 6 C-0.66 6 -1.32 6 -2 6 C-1.34 8.31 -0.68 10.62 0 13 C-1.60597325 12.54803755 -3.20972508 12.08817673 -4.8125 11.625 C-5.70582031 11.36976563 -6.59914062 11.11453125 -7.51953125 10.8515625 C-10 10 -10 10 -13 8 C-12.31292969 7.67386719 -11.62585938 7.34773437 -10.91796875 7.01171875 C-10.01691406 6.57472656 -9.11585938 6.13773438 -8.1875 5.6875 C-7.29417969 5.25824219 -6.40085938 4.82898438 -5.48046875 4.38671875 C-3.21068067 3.11778211 -1.70751829 1.93443102 0 0 Z " fill="#721AE7" transform="translate(206,162)"/>
<path d="M0 0 C0.99 0 1.98 0 3 0 C2.55183136 4.92985504 0.17966006 8.35166172 -3 12 C-6 14 -6 14 -8.125 13.75 C-10 13 -10 13 -11 11 C-10.67 10.01 -10.34 9.02 -10 8 C-9.01 8.33 -8.02 8.66 -7 9 C-7.33 9.66 -7.66 10.32 -8 11 C-7.01 11 -6.02 11 -5 11 C-5.33 10.01 -5.66 9.02 -6 8 C-4.7934375 7.4121875 -4.7934375 7.4121875 -3.5625 6.8125 C-0.76935262 5.23051809 -0.76935262 5.23051809 -0.1875 2.3125 C-0.125625 1.549375 -0.06375 0.78625 0 0 Z " fill="#762BDD" transform="translate(268,257)"/>
<path d="M0 0 C1.65 0.33 3.3 0.66 5 1 C2.9163501 2.62061659 0.94168415 4.03029395 -1.40625 5.25 C-4.52276827 7.35271112 -5.88643957 9.47739928 -7.8125 12.6875 C-8.71935547 14.17830078 -8.71935547 14.17830078 -9.64453125 15.69921875 C-10.31548828 16.83810547 -10.31548828 16.83810547 -11 18 C-13.0859375 14.3359375 -13.0859375 14.3359375 -12.3125 11.3125 C-11 9 -11 9 -8 8 C-7.26676204 5.98491642 -7.26676204 5.98491642 -7 4 C-3.535 3.505 -3.535 3.505 0 3 C0 2.01 0 1.02 0 0 Z " fill="#7B2EDF" transform="translate(291,180)"/>
<path d="M0 0 C5.875 4.75 5.875 4.75 7 7 C9.02463255 7.65213292 9.02463255 7.65213292 11 8 C10.67 8.99 10.34 9.98 10 11 C7 11 4 11 1 11 C0.34 10.34 -0.32 9.68 -1 9 C-0.9765625 6.8359375 -0.9765625 6.8359375 -0.625 4.375 C-0.51414062 3.55773437 -0.40328125 2.74046875 -0.2890625 1.8984375 C-0.19367188 1.27195313 -0.09828125 0.64546875 0 0 Z " fill="#6C0FF0" transform="translate(281,157)"/>
<path d="M0 0 C0.7734375 0.61875 0.7734375 0.61875 1.5625 1.25 C-0.10416667 2.91666667 -1.77083333 4.58333333 -3.4375 6.25 C-3.994375 6.848125 -4.55125 7.44625 -5.125 8.0625 C-6.4375 9.25 -6.4375 9.25 -8.4375 9.25 C-8.1075 7.6 -7.7775 5.95 -7.4375 4.25 C-8.0975 3.92 -8.7575 3.59 -9.4375 3.25 C-3.0375 -0.93461538 -3.0375 -0.93461538 0 0 Z " fill="#902AF1" transform="translate(93.4375,74.75)"/>
<path d="M0 0 C4.455 0.99 4.455 0.99 9 2 C9 6.29 9 10.58 9 15 C7.35 15.33 5.7 15.66 4 16 C4 15.34 4 14.68 4 14 C4.99 14 5.98 14 7 14 C7 10.7 7 7.4 7 4 C5.35 4 3.7 4 2 4 C1.34 2.68 0.68 1.36 0 0 Z " fill="#8340D6" transform="translate(292,165)"/>
<path d="M0 0 C3.07979079 2.23984784 3.90254083 5.03311005 4.7265625 8.66015625 C5.21322785 12.82462115 4.6255133 16.87499337 4 21 C1.77810176 18.77810176 1.07401108 16.91517292 0 14 C0.66 13.67 1.32 13.34 2 13 C2.33 12.01 2.66 11.02 3 10 C2.34 9.67 1.68 9.34 1 9 C1.33 7.68 1.66 6.36 2 5 C1.01 4.67 0.02 4.34 -1 4 C-0.67 2.68 -0.34 1.36 0 0 Z " fill="#F4E1FE" transform="translate(207,133)"/>
<path d="M0 0 C3.9790243 -0.08802152 7.95779388 -0.14073233 11.9375 -0.1875 C13.05447266 -0.21263672 14.17144531 -0.23777344 15.32226562 -0.26367188 C21.83701369 -0.32098637 28.16088661 -0.22852883 34 3 C34.66 3.99 35.32 4.98 36 6 C35.34 6.33 34.68 6.66 34 7 C34 6.34 34 5.68 34 5 C33.28972656 4.86722656 32.57945312 4.73445312 31.84765625 4.59765625 C30.92855469 4.42105469 30.00945312 4.24445313 29.0625 4.0625 C28.14597656 3.88847656 27.22945312 3.71445313 26.28515625 3.53515625 C24 3 24 3 23 2 C21.29436222 1.84259395 19.58272756 1.74906608 17.87109375 1.68359375 C16.83662109 1.64169922 15.80214844 1.59980469 14.73632812 1.55664062 C13.64771484 1.51732422 12.55910156 1.47800781 11.4375 1.4375 C10.34501953 1.39431641 9.25253906 1.35113281 8.12695312 1.30664062 C5.41810436 1.20017932 2.70916008 1.09816484 0 1 C0 0.67 0 0.34 0 0 Z " fill="#7827D5" transform="translate(155,134)"/>
<path d="M0 0 C0.33 0 0.66 0 1 0 C1.33321563 5.2018662 1.61147189 9.59871025 -0.5 14.4375 C-4.57657643 18.61599084 -8.64774857 20.83198204 -14.5 21.25 C-15.325 21.1675 -16.15 21.085 -17 21 C-17 20.67 -17 20.34 -17 20 C-16.31292969 19.81824219 -15.62585938 19.63648438 -14.91796875 19.44921875 C-14.01691406 19.19785156 -13.11585938 18.94648438 -12.1875 18.6875 C-10.84751953 18.32205078 -10.84751953 18.32205078 -9.48046875 17.94921875 C-6.89704421 16.96060117 -5.69029712 16.15952787 -4 14 C-3.67 13.01 -3.34 12.02 -3 11 C-2.34 11 -1.68 11 -1 11 C-0.67 7.37 -0.34 3.74 0 0 Z " fill="#7327D3" transform="translate(193,144)"/>
<path d="M0 0 C0.33 0 0.66 0 1 0 C1 1.65 1 3.3 1 5 C0.01 5.33 -0.98 5.66 -2 6 C-2.80563638 8.10584438 -2.80563638 8.10584438 -3.1875 10.5625 C-3.34605469 11.38878906 -3.50460938 12.21507813 -3.66796875 13.06640625 C-3.77753906 13.70449219 -3.88710937 14.34257813 -4 15 C-4.33 15 -4.66 15 -5 15 C-5.33 19.29 -5.66 23.58 -6 28 C-6.33 28 -6.66 28 -7 28 C-7.65595645 17.52899141 -8.09801219 9.49402013 -1 1 C-0.67 0.67 -0.34 0.34 0 0 Z " fill="#8024DE" transform="translate(83,79)"/>
<path d="M0 0 C5.3592233 0.46601942 5.3592233 0.46601942 7.875 2.5625 C8.431875 3.2740625 8.431875 3.2740625 9 4 C7 6 7 6 3.375 6.125 C2.26125 6.08375 1.1475 6.0425 0 6 C-0.38218767 4.34385343 -0.71395102 2.67542976 -1 1 C-0.67 0.67 -0.34 0.34 0 0 Z " fill="#EEE5F7" transform="translate(161,220)"/>
<path d="M0 0 C0.33 1.98 0.66 3.96 1 6 C-0.98 6.33 -2.96 6.66 -5 7 C-5 6.34 -5 5.68 -5 5 C-5.66 4.67 -6.32 4.34 -7 4 C-7 3.01 -7 2.02 -7 1 C-4.50935112 0.31292445 -2.62113708 0 0 0 Z " fill="#7513F5" transform="translate(199,225)"/>
<path d="M0 0 C5.26984365 1.94152134 7.29726868 4.08594306 10 9 C10 9.66 10 10.32 10 11 C10.66 11 11.32 11 12 11 C12 12.65 12 14.3 12 16 C11.34 16.33 10.68 16.66 10 17 C9.78085938 16.35933594 9.56171875 15.71867188 9.3359375 15.05859375 C7.08044585 8.90641937 4.52872981 4.73458117 0 0 Z " fill="#7326DE" transform="translate(206,175)"/>
<path d="M0 0 C2.97 0.495 2.97 0.495 6 1 C6.268125 1.969375 6.53625 2.93875 6.8125 3.9375 C7.204375 4.948125 7.59625 5.95875 8 7 C8.99 7.33 9.98 7.66 11 8 C11.6875 10.0625 11.6875 10.0625 12 12 C6.19413239 9.15398646 3.42291511 6.49740912 0 1 C0 0.67 0 0.34 0 0 Z " fill="#8336E0" transform="translate(78,261)"/>
<path d="M0 0 C1.96099207 1.96099207 2.80989009 3.41110058 4 5.875 C4.33 6.55304688 4.66 7.23109375 5 7.9296875 C5.68200534 9.34165168 6.34806879 10.76140048 7 12.1875 C8.28396839 14.51469271 9.60656365 14.9528716 12 16 C12.66 16.66 13.32 17.32 14 18 C12.35 17.67 10.7 17.34 9 17 C9 16.34 9 15.68 9 15 C8.01 14.67 7.02 14.34 6 14 C4.39453125 11.85546875 4.39453125 11.85546875 2.8125 9.1875 C2.28269531 8.31480469 1.75289063 7.44210938 1.20703125 6.54296875 C0 4 0 4 0 0 Z " fill="#894DDA" transform="translate(278,147)"/>
<path d="M0 0 C0.75410156 0.09990234 1.50820312 0.19980469 2.28515625 0.30273438 C4.14917753 0.55048404 6.01219288 0.80578057 7.875 1.0625 C7.875 1.3925 7.875 1.7225 7.875 2.0625 C1.935 2.0625 -4.005 2.0625 -10.125 2.0625 C-10.125 1.4025 -10.125 0.7425 -10.125 0.0625 C-6.87932383 -1.56033808 -3.48660376 -0.48475234 0 0 Z " fill="#F5DBFF" transform="translate(162.125,176.9375)"/>
<path d="M0 0 C0.33 0.66 0.66 1.32 1 2 C1.99 1.67 2.98 1.34 4 1 C4.33 2.32 4.66 3.64 5 5 C3.68 5 2.36 5 1 5 C0.34 5.66 -0.32 6.32 -1 7 C-2.32 6.34 -3.64 5.68 -5 5 C-5 4.01 -5 3.02 -5 2 C-2.525 2.495 -2.525 2.495 0 3 C0 2.01 0 1.02 0 0 Z " fill="#6E0EF2" transform="translate(291,176)"/>
<path d="M0 0 C1 3 1 3 -0.3125 5.6875 C-0.869375 6.450625 -1.42625 7.21375 -2 8 C-2.66 8 -3.32 8 -4 8 C-4.33 8.99 -4.66 9.98 -5 11 C-7.64 11.33 -10.28 11.66 -13 12 C-10.70025285 10.23096373 -8.41698715 8.64305336 -5.9375 7.125 C-2.94976678 4.96366107 -1.63032496 3.26064991 0 0 Z " fill="#9549E0" transform="translate(65,155)"/>
<path d="M0 0 C3.63 0.33 7.26 0.66 11 1 C11.33 2.65 11.66 4.3 12 6 C8.30581799 6 6.22163822 4.71820705 3 3 C3 2.34 3 1.68 3 1 C2.01 0.67 1.02 0.34 0 0 Z " fill="#963AE9" transform="translate(49,179)"/>
<path d="M0 0 C0.66 0.33 1.32 0.66 2 1 C3.1577506 4.47325181 3.06866652 7.36067448 3 11 C2.34 11 1.68 11 1 11 C0.87625 10.030625 0.7525 9.06125 0.625 8.0625 C0.41875 7.051875 0.2125 6.04125 0 5 C-0.66 4.67 -1.32 4.34 -2 4 C-1.34 2.68 -0.68 1.36 0 0 Z " fill="#7512EC" transform="translate(195,188)"/>
<path d="M0 0 C0.28875 0.61875 0.5775 1.2375 0.875 1.875 C1.93720042 4.13325765 1.93720042 4.13325765 4 6 C4.40047444 8.32275177 4.7397104 10.65739357 5 13 C4.54625 12.505 4.0925 12.01 3.625 11.5 C2.12364481 9.77390663 2.12364481 9.77390663 0 10 C-1.125 3.375 -1.125 3.375 0 0 Z " fill="#6F0FEF" transform="translate(274,140)"/>
<path d="M0 0 C0.66 0 1.32 0 2 0 C2 0.66 2 1.32 2 2 C2.99 2 3.98 2 5 2 C5 2.66 5 3.32 5 4 C6.32 4 7.64 4 9 4 C9.33 5.65 9.66 7.3 10 9 C8.32572385 8.07615834 6.66071997 7.13549431 5 6.1875 C4.071875 5.66542969 3.14375 5.14335938 2.1875 4.60546875 C1.1046875 3.81076172 1.1046875 3.81076172 0 3 C0 2.01 0 1.02 0 0 Z " fill="#741FDC" transform="translate(196,121)"/>
<path d="M0 0 C0.66 1.32 1.32 2.64 2 4 C0.71937515 5.7074998 -0.61767557 7.37373596 -2 9 C-2.66 9 -3.32 9 -4 9 C-3.35455571 5.51460083 -1.89865603 2.97180943 0 0 Z " fill="#720EF3" transform="translate(221,199)"/>
<path d="M0 0 C2.6815279 3.07692746 3.42087807 5.19734663 3.6875 9.25 C3.75324219 10.14203125 3.81898438 11.0340625 3.88671875 11.953125 C3.92410156 12.62859375 3.96148437 13.3040625 4 14 C3.01 14.495 3.01 14.495 2 15 C1.855625 13.865625 1.71125 12.73125 1.5625 11.5625 C1.38828522 8.19222799 1.38828522 8.19222799 0 7 C-0.04092937 4.66702567 -0.04241723 2.33294775 0 0 Z " fill="#853BE1" transform="translate(271,120)"/>
<path d="M0 0 C0.66 0.33 1.32 0.66 2 1 C2.25 7.625 2.25 7.625 0 11 C-0.19406478 9.35492782 -0.38007935 7.70890406 -0.5625 6.0625 C-0.66691406 5.14597656 -0.77132812 4.22945312 -0.87890625 3.28515625 C-0.91886719 2.53105469 -0.95882812 1.77695313 -1 1 C-0.67 0.67 -0.34 0.34 0 0 Z " fill="#8939DE" transform="translate(75,219)"/>
<path d="M0 0 C0.99 0.33 1.98 0.66 3 1 C2.67 1.66 2.34 2.32 2 3 C3.32 3.33 4.64 3.66 6 4 C5.34 4.66 4.68 5.32 4 6 C1.9375 5.75 1.9375 5.75 0 5 C-0.33 4.34 -0.66 3.68 -1 3 C-0.67 2.01 -0.34 1.02 0 0 Z " fill="#6A15E3" transform="translate(258,265)"/>
<path d="M0 0 C0.66 0.66 1.32 1.32 2 2 C1 3.5 1 3.5 -1 5 C-3.71846235 5.27345479 -6.25677199 5.13491285 -9 5 C-6.3534665 2.3534665 -3.43778736 1.40058003 0 0 Z " fill="#6D13E9" transform="translate(208,220)"/>
<path d="M0 0 C2.0625 0.4375 2.0625 0.4375 4 1 C4 1.99 4 2.98 4 4 C2.02 4.99 2.02 4.99 0 6 C-0.38218767 4.34385343 -0.71395102 2.67542976 -1 1 C-0.67 0.67 -0.34 0.34 0 0 Z " fill="#EBE2F6" transform="translate(171,220)"/>
<path d="M0 0 C-0.33 0.99 -0.66 1.98 -1 3 C-0.34 3.33 0.32 3.66 1 4 C-1.66666667 3.33333333 -4.33333333 2.66666667 -7 2 C-7 1.34 -7 0.68 -7 0 C-4.3333581 -1.33332095 -2.83319697 -0.67102033 0 0 Z " fill="#8A13FC" transform="translate(56,177)"/>
<path d="M0 0 C0 0.66 0 1.32 0 2 C0.763125 2.103125 1.52625 2.20625 2.3125 2.3125 C5.22636046 3.05790616 6.02950397 3.84458939 8 6 C6.39402675 5.54803755 4.79027492 5.08817673 3.1875 4.625 C2.29417969 4.36976563 1.40085938 4.11453125 0.48046875 3.8515625 C-2 3 -2 3 -5 1 C-2 0 -2 0 0 0 Z " fill="#732CC5" transform="translate(198,169)"/>
<path d="M0 0 C0.33 0 0.66 0 1 0 C1 1.65 1 3.3 1 5 C0.01 5.33 -0.98 5.66 -2 6 C-3.20882096 8.00016466 -3.20882096 8.00016466 -4 10 C-4.66 9.67 -5.32 9.34 -6 9 C-5.02501855 7.4972763 -4.04490611 5.99788037 -3.0625 4.5 C-2.51722656 3.6646875 -1.97195312 2.829375 -1.41015625 1.96875 C-0.94480469 1.3190625 -0.47945313 0.669375 0 0 Z " fill="#974BE3" transform="translate(83,79)"/>
<path d="M0 0 C0.99 0 1.98 0 3 0 C5.1875 3 5.1875 3 7 6 C2.25 5.25 2.25 5.25 0 3 C0.66 3 1.32 3 2 3 C2 2.34 2 1.68 2 1 C1.34 0.67 0.68 0.34 0 0 Z " fill="#8A13FA" transform="translate(58,179)"/>
<path d="M0 0 C0 1.32 0 2.64 0 4 C-2.97 3.505 -2.97 3.505 -6 3 C-6 2.34 -6 1.68 -6 1 C-3 0 -3 0 0 0 Z " fill="#6D19E4" transform="translate(199,225)"/>
<path d="M0 0 C0.33 0 0.66 0 1 0 C1.22174933 1.45635371 1.42698698 2.91522956 1.625 4.375 C1.74101562 5.18710938 1.85703125 5.99921875 1.9765625 6.8359375 C1.98429688 7.55007812 1.99203125 8.26421875 2 9 C1.34 9.66 0.68 10.32 0 11 C-0.66 11 -1.32 11 -2 11 C-1.34 7.37 -0.68 3.74 0 0 Z " fill="#F3DEFD" transform="translate(194,148)"/>
<path d="M0 0 C1.2065625 0.0309375 1.2065625 0.0309375 2.4375 0.0625 C2.4375 1.0525 2.4375 2.0425 2.4375 3.0625 C1.10416667 3.72916667 -0.22916667 4.39583333 -1.5625 5.0625 C-1.5625 4.0725 -1.5625 3.0825 -1.5625 2.0625 C-2.2225 1.7325 -2.8825 1.4025 -3.5625 1.0625 C-2.5625 0.0625 -2.5625 0.0625 0 0 Z " fill="#ECE7F4" transform="translate(156.5625,217.9375)"/>
<path d="M0 0 C3.29148243 1.13499394 3.9959869 1.99283376 5.75 5.125 C6.1625 6.07375 6.575 7.0225 7 8 C6.01 8.495 6.01 8.495 5 9 C2 4.25 2 4.25 2 2 C1.34 2 0.68 2 0 2 C0 1.34 0 0.68 0 0 Z " fill="#7630D7" transform="translate(192,183)"/>
<path d="M0 0 C1.32 0.66 2.64 1.32 4 2 C3.01 2.495 3.01 2.495 2 3 C1.67 3.99 1.34 4.98 1 6 C0.34 6 -0.32 6 -1 6 C-1.042721 4.33388095 -1.04063832 2.66617115 -1 1 C-0.67 0.67 -0.34 0.34 0 0 Z " fill="#6E0EEF" transform="translate(275,195)"/>
</svg>
