<?xml version="1.0" encoding="UTF-8"?>
<svg version="1.1" xmlns="http://www.w3.org/2000/svg" width="320" height="320">
<path d="M0 0 C4.40830916 2.16407904 7.12843553 4.42506462 9 9 C9.53896671 14.65915042 9.14986196 18.11228317 6 23 C5.15824219 23.74378906 4.31648438 24.48757812 3.44921875 25.25390625 C0.46668855 28.59795526 0.30856119 30.33371804 0 34.75 C-0.60958866 41.35797387 -2.15397886 47.26286983 -4.18579102 53.56445312 C-6.1468616 59.88964722 -6.78513033 66.01288666 -7.15234375 72.609375 C-8.44425962 77.7770385 -11.73726743 79.59160758 -16.08984375 82.30078125 C-18.35446536 83.12975317 -20.15544964 83.23230128 -22.5625 83.1875 C-23.32691406 83.18105469 -24.09132813 83.17460937 -24.87890625 83.16796875 C-27 83 -27 83 -30 82 C-30.680625 82.309375 -31.36125 82.61875 -32.0625 82.9375 C-36.37208089 84.49628458 -40.46786916 84.63391541 -45 84 C-47.04049422 82.7295036 -49.05017465 81.40568804 -51 80 C-53.67140463 80.06709284 -53.67140463 80.06709284 -56 81 C-60.98079383 82.66026461 -65.30273629 82.59903425 -70.1875 80.875 C-74.42051121 78.05299253 -77.35909664 74.92271008 -79 70 C-79.804375 71.03125 -80.60875 72.0625 -81.4375 73.125 C-85.89300089 78.34430105 -92.10082717 83.45165222 -99.12890625 84.23828125 C-105.10281204 84.42047099 -109.4477421 83.38210317 -114.87109375 80.875 C-117.07884371 79.80992389 -117.07884371 79.80992389 -120 80 C-120.70125 80.66 -121.4025 81.32 -122.125 82 C-126.13967821 84.79281962 -129.24536488 84.7847456 -134 84 C-138.37130037 82.52451375 -142.16693134 80.55537911 -146 78 C-146.88751953 78.52400391 -146.88751953 78.52400391 -147.79296875 79.05859375 C-148.58316406 79.51363281 -149.37335938 79.96867187 -150.1875 80.4375 C-150.96480469 80.88996094 -151.74210937 81.34242188 -152.54296875 81.80859375 C-159.6659858 85.26252093 -169.49142424 85.37993348 -176.9609375 83.09375 C-182.23675546 80.62219564 -185.79298788 77.86224418 -189 73 C-189.8125 70.625 -189.8125 70.625 -190 69 C-190.99 69.495 -190.99 69.495 -192 70 C-198.22796396 70.52917341 -203.70706194 70.70505664 -209 67 C-210.02927369 65.68913256 -211.03445846 64.3584945 -212 63 C-212.89742628 64.33226169 -213.79283151 65.66588477 -214.6875 67 C-215.51121094 68.22783203 -215.51121094 68.22783203 -216.3515625 69.48046875 C-218.2114023 72.32311488 -219.94172845 75.2278552 -221.62890625 78.17578125 C-223.53663444 80.71398372 -225.30344059 82.29592426 -228 84 C-231.55859375 84.3203125 -231.55859375 84.3203125 -235.4375 84.125 C-240.59700366 83.8855074 -244.15501079 84.29000381 -249 86 C-256.91347481 86.85390067 -264.29208929 86.61168861 -271 82 C-276.00419192 77.54583779 -278.61572857 73.08288398 -279.25 66.34375 C-279.77660564 53.57356313 -274.64257487 42.30683235 -266.0859375 32.89453125 C-260.49173308 27.66807334 -254.19791545 23.94419379 -246.4375 23.4375 C-242.11499494 23.62642068 -239.29384354 25.22328199 -235.82421875 27.7109375 C-233.95646048 29.03076669 -232.06495781 30.02450117 -230 31 C-229.236875 30.360625 -228.47375 29.72125 -227.6875 29.0625 C-223.47753499 25.83159662 -220.20982194 25.64070194 -215 26 C-213.30280873 26.94726954 -211.63064764 27.94228261 -210 29 C-206.13883312 29.22782871 -206.13883312 29.22782871 -203.25 28 C-196.44786444 25.90703521 -191.81389083 26.63461054 -185.6640625 29.83203125 C-184 31 -184 31 -182 34 C-179.50629873 32.84906095 -177.39124515 31.57651836 -175.125 30 C-169.25865953 26.2455421 -163.85338429 25.23464744 -157 26 C-152.36384611 27.19378918 -148.73074214 28.98670827 -145 32 C-144.34 32 -143.68 32 -143 32 C-142.38125 31.38125 -141.7625 30.7625 -141.125 30.125 C-137.96012681 26.96012681 -136.11266271 26.10302433 -131.625 25.6875 C-127.5751253 26.03662713 -125.376462 26.74902533 -122 29 C-119.625 32.1875 -119.625 32.1875 -118 35 C-117.51789063 34.57847656 -117.03578125 34.15695313 -116.5390625 33.72265625 C-115.90742188 33.17480469 -115.27578125 32.62695312 -114.625 32.0625 C-113.99851563 31.51722656 -113.37203125 30.97195312 -112.7265625 30.41015625 C-108.84059536 27.23632336 -104.8276416 27.5239177 -100 28 C-96.36532921 29.62400184 -95.22591304 30.66113044 -93 34 C-92.61500109 35.65549531 -92.27206865 37.3222433 -92 39 C-91.443125 38.0925 -90.88625 37.185 -90.3125 36.25 C-87.24806796 31.94323065 -83.85763286 29.07046646 -79 27 C-72.17099981 26.01625793 -67.61403154 27.09458675 -62 31 C-61.2265625 30.319375 -61.2265625 30.319375 -60.4375 29.625 C-55.35988905 26.23992603 -49.99355007 25.56410545 -44 26 C-42 26.66666667 -40 27.33333333 -38 28 C-35.4239191 28.29475534 -32.85740052 28.49724114 -30.26953125 28.65625 C-28 29 -28 29 -25 31 C-22.04629014 29.03086009 -20.69745233 28.05340537 -19 25 C-18.76373364 21.5633984 -18.76469491 18.33870264 -19.046875 14.9140625 C-19.38947405 9.65415942 -18.31367917 7.05139606 -15 3 C-10.63453818 -0.85187808 -5.54054055 -0.79911643 0 0 Z M-262 39 C-268.135145 46.95064709 -272.73122327 55.6245375 -272.35546875 65.859375 C-271.60107717 70.40230453 -269.35674457 73.72805196 -266 76.875 C-261.38482107 79.47103815 -256.1673773 79.63487217 -251 79 C-248.32844977 78.03386105 -245.8094163 76.9350747 -243.26171875 75.6796875 C-241 75 -241 75 -238.92578125 75.85546875 C-238.29027344 76.23316406 -237.65476563 76.61085937 -237 77 C-233.5 77.58333333 -233.5 77.58333333 -230 77 C-226.11389033 73.58493393 -224.11648647 68.50048475 -221.70703125 63.98046875 C-218.86852329 59.02444685 -215.46918931 54.52722008 -212 50 C-211.28457031 49.01580078 -211.28457031 49.01580078 -210.5546875 48.01171875 C-208.57429693 45.40233621 -207.35965267 44.11189194 -204.1875 43.125 C-203.465625 43.08375 -202.74375 43.0425 -202 43 C-202.48110006 46.17526039 -203.23729783 48.50197617 -204.625 51.4375 C-206.11899363 55.30830168 -206.27291013 57.09034747 -205 61 C-201.28897525 63.4740165 -198.30162749 63.54504052 -194 63 C-191.00286318 61.72462263 -189.48792199 61.0083721 -188.0625 58.0625 C-187.80352693 55.94271115 -187.80352693 55.94271115 -189.125 54.25 C-190.21852678 51.43807399 -189.71019136 50.83211057 -188.5625 48.125 C-186.98618484 44.36286115 -186.70105918 41.98960396 -188 38 C-189.73284031 35.20820173 -191.03135649 34.99155787 -194.25 34.125 C-203.05061772 33.83164608 -208.61417092 39.59067597 -215 45 C-214.62875 43.9275 -214.2575 42.855 -213.875 41.75 C-212.75965601 38.22836878 -212.75965601 38.22836878 -213.5625 35.625 C-214.94147024 33.83949257 -214.94147024 33.83949257 -217.25 33 C-221.21411529 33 -222.91472618 34.57049501 -226 37 C-228.03261974 39.98988689 -228.03261974 39.98988689 -229.5625 43.4375 C-229.85713135 44.047146 -230.1517627 44.65679199 -230.45532227 45.28491211 C-232.42714482 49.45361679 -233.95462194 53.69348345 -235.4375 58.0625 C-237.34479192 63.26478128 -239.18496375 65.76282213 -244.1328125 68.265625 C-247.39395179 69.54824882 -250.07415906 70.18103774 -253.5625 70.25 C-254.34753906 70.27578125 -255.13257813 70.3015625 -255.94140625 70.328125 C-256.62074219 70.21984375 -257.30007813 70.1115625 -258 70 C-260.71994085 65.92008872 -260.85719641 62.69822154 -260 58 C-257.05118521 50.40276534 -253.54698613 43.09210032 -247 38 C-244.82421875 37.36328125 -244.82421875 37.36328125 -243 37 C-243.433125 37.8353125 -243.433125 37.8353125 -243.875 38.6875 C-246.50276028 44.08900724 -247.72551224 47.98861287 -247 54 C-245.93281702 56.15565917 -245.93281702 56.15565917 -244 57 C-241.98572726 57.0227302 -241.98572726 57.0227302 -240 56 C-236.97478082 51.06943712 -235.08733717 45.83408058 -234.8125 40.0625 C-236.41642035 35.92607382 -238.26113376 34.35410097 -242 32 C-250.12768944 29.44128296 -256.01906256 33.75257375 -262 39 Z M-176.13671875 39.86328125 C-182.13410373 46.74078562 -184.34224061 54.60263871 -184.2109375 63.53125 C-183.91412393 67.00506808 -183.02439375 69.16584875 -181 72 C-174.48402855 77.02272799 -169.02065206 77.74537473 -161 77 C-154.00195762 75.2504894 -149.79134573 72.25879409 -145 67 C-144.01 66.67 -143.02 66.34 -142 66 C-141.731875 66.928125 -141.46375 67.85625 -141.1875 68.8125 C-139.67286741 72.87809274 -138.44564298 74.21857136 -134.6875 76.25 C-131.13418465 77.24162289 -129.50702874 77.26253035 -126 76 C-124.02714355 74.1154804 -122.32043464 72.13488638 -120.61328125 70.0078125 C-119.16690506 68.20772203 -117.6632259 66.59790283 -116 65 C-115.9175 65.9075 -115.835 66.815 -115.75 67.75 C-114.8847145 71.49957052 -114.00252933 72.66469941 -111 75 C-106.9662651 77.18039724 -103.54305033 77.46997072 -99 77 C-87.29916417 72.23299281 -80.98499196 60.24817086 -75.02685547 49.77148438 C-73.09197007 46.43350804 -70.98453666 43.19816814 -68.8984375 39.953125 C-67.66643697 37.8611058 -67.66643697 37.8611058 -69 35 C-71.86608129 33.56695936 -73.81300783 33.69355845 -77 34 C-82.55598128 36.91027591 -84.53973396 40.0769893 -87 45.5625 C-87.6795227 46.99548818 -88.36052139 48.42777735 -89.04296875 49.859375 C-89.53676025 50.9122168 -89.53676025 50.9122168 -90.04052734 51.98632812 C-91.38414416 54.80621401 -92.83108571 57.56287745 -94.3125 60.3125 C-94.76238281 61.15425781 -95.21226562 61.99601562 -95.67578125 62.86328125 C-96.97668011 64.96237174 -98.03602674 66.50156114 -100 68 C-101.32 68 -102.64 68 -104 68 C-104.55538363 60.30176586 -103.34355977 54.25685732 -100.8984375 46.96484375 C-99.80114843 43.34378981 -99.50219699 40.73352254 -100 37 C-100.99 36.01 -100.99 36.01 -102 35 C-105.45426142 34.93318991 -105.45426142 34.93318991 -109 36 C-112.0076367 39.24922549 -114.00986855 42.67083707 -115.9453125 46.6328125 C-116.46480469 47.68597656 -116.98429687 48.73914063 -117.51953125 49.82421875 C-118.04933594 50.91347656 -118.57914062 52.00273437 -119.125 53.125 C-120.1883821 55.29511551 -121.25341235 57.46442441 -122.3203125 59.6328125 C-122.78711426 60.59074707 -123.25391602 61.54868164 -123.73486328 62.53564453 C-126.44517928 67.81505976 -126.44517928 67.81505976 -130 69 C-130.62949916 61.06131615 -129.32149242 54.00701056 -127.33496094 46.37158203 C-126.21619764 41.88771198 -125.83863329 38.59433747 -127 34 C-129.70590396 33.04632548 -129.70590396 33.04632548 -133 33 C-137.56318411 35.77370014 -139.70845832 38.35731356 -141.42578125 43.5390625 C-142.4013168 47.71992915 -142.84662661 51.97462228 -143.27734375 56.2421875 C-144 59 -144 59 -145.83203125 60.21875 C-146.54746094 60.4765625 -147.26289063 60.734375 -148 61 C-149.25394755 61.86933339 -150.5038828 62.74447917 -151.75 63.625 C-156.09685424 66.38233292 -158.9158778 66.50841222 -164 66 C-164.78375 65.938125 -165.5675 65.87625 -166.375 65.8125 C-168 65 -168 65 -169.25 62.4375 C-169.4975 61.633125 -169.745 60.82875 -170 60 C-168.5459375 60.0928125 -168.5459375 60.0928125 -167.0625 60.1875 C-161.81539486 60.15557035 -156.36150783 59.09849629 -152.3515625 55.53515625 C-148.79066023 51.32588161 -147.67677974 48.55563182 -147.796875 43.03125 C-148.11116702 39.88832983 -148.86342952 38.33687396 -151 36 C-160.36855616 31.0670872 -168.57639507 32.8608067 -176.13671875 39.86328125 Z " fill="#242424" transform="translate(295,117)"/>
<path d="M0 0 C4.40830916 2.16407904 7.12843553 4.42506462 9 9 C9.53896671 14.65915042 9.14986196 18.11228317 6 23 C5.15824219 23.74378906 4.31648437 24.48757812 3.44921875 25.25390625 C0.46668855 28.59795526 0.30856119 30.33371804 0 34.75 C-0.60958866 41.35797387 -2.15397886 47.26286983 -4.18579102 53.56445312 C-6.1468616 59.88964722 -6.78513033 66.01288666 -7.15234375 72.609375 C-8.44425962 77.7770385 -11.73726743 79.59160758 -16.08984375 82.30078125 C-18.35446536 83.12975317 -20.15544964 83.23230128 -22.5625 83.1875 C-23.32691406 83.18105469 -24.09132813 83.17460937 -24.87890625 83.16796875 C-27 83 -27 83 -30 82 C-30.680625 82.309375 -31.36125 82.61875 -32.0625 82.9375 C-36.37208089 84.49628458 -40.46786916 84.63391541 -45 84 C-47.04049422 82.7295036 -49.05017465 81.40568804 -51 80 C-53.67140463 80.06709284 -53.67140463 80.06709284 -56 81 C-60.98079383 82.66026461 -65.30273629 82.59903425 -70.1875 80.875 C-74.42051121 78.05299253 -77.35909664 74.92271008 -79 70 C-79.804375 71.03125 -80.60875 72.0625 -81.4375 73.125 C-85.89300089 78.34430105 -92.10082717 83.45165222 -99.12890625 84.23828125 C-105.10281204 84.42047099 -109.4477421 83.38210317 -114.87109375 80.875 C-117.07884371 79.80992389 -117.07884371 79.80992389 -120 80 C-121.051875 80.99 -121.051875 80.99 -122.125 82 C-126.13967821 84.79281962 -129.24536488 84.7847456 -134 84 C-138.37130037 82.52451375 -142.16693134 80.55537911 -146 78 C-146.59167969 78.34933594 -147.18335938 78.69867188 -147.79296875 79.05859375 C-148.58316406 79.51363281 -149.37335938 79.96867187 -150.1875 80.4375 C-150.96480469 80.88996094 -151.74210937 81.34242188 -152.54296875 81.80859375 C-159.79419047 85.32468695 -170.72360842 85.50920338 -178.3125 82.9375 C-181 81 -181 81 -181.9375 77.4375 C-181.97045128 75.6251798 -182 73.81261973 -182 72 C-177 74 -177 74 -174.6484375 75.046875 C-167.45376716 77.63610739 -160.06536297 76.3068189 -153.2265625 73.2890625 C-149.87697728 71.34982895 -147.62915849 68.82153594 -145 66 C-144.01 66 -143.02 66 -142 66 C-139 71.75 -139 71.75 -139 74 C-134.20262796 75.63110649 -130.90831526 76.42049434 -126 75 C-123.64561823 72.74722627 -123.64561823 72.74722627 -121.75 69.9375 C-120.53833566 68.26324288 -119.29675075 66.609256 -118 65 C-117.34 65 -116.68 65 -116 65 C-115.86464844 65.62648438 -115.72929687 66.25296875 -115.58984375 66.8984375 C-114.92077757 69.43848515 -114.20817303 71.66476802 -113 74 C-108.45359133 76.1857734 -103.99350792 76.53501871 -99 76 C-89.35420807 71.96630519 -83.76654922 63.11679018 -78.640625 54.3828125 C-76.98296014 51.97525163 -75.4275603 50.59374611 -73 49 C-72.01 51.97 -72.01 51.97 -71 55 C-70.60167969 54.26394531 -70.20335937 53.52789062 -69.79296875 52.76953125 C-69.26316406 51.79371094 -68.73335938 50.81789062 -68.1875 49.8125 C-67.66542969 48.84957031 -67.14335937 47.88664062 -66.60546875 46.89453125 C-63.23226439 40.81291463 -60.46318089 36.0825982 -54 33 C-48.97749079 32.20257216 -44.02612909 31.68167428 -39.640625 34.53515625 C-38.82851563 35.26025391 -38.82851563 35.26025391 -38 36 C-37.34 35.67 -36.68 35.34 -36 35 C-32.9375 34.875 -32.9375 34.875 -30 35 C-29 36 -29 36 -28.6875 38.75 C-28.72778361 43.65452986 -30.53150803 48.07300507 -32.04296875 52.6875 C-33.31981269 57.10694353 -33.79313702 61.41798492 -34 66 C-30.61251465 63.02269033 -29.23551462 60.61111986 -27.9375 56.3125 C-27.6075 55.25417969 -27.2775 54.19585937 -26.9375 53.10546875 C-26.628125 52.08066406 -26.31875 51.05585938 -26 50 C-23.37102473 41.67069856 -23.37102473 41.67069856 -21.375 38.0625 C-18.90643931 32.5643421 -18.95747754 26.97536168 -19.0859375 21.0078125 C-19.10100342 20.30575684 -19.11606934 19.60370117 -19.1315918 18.88037109 C-19.16809518 17.48941702 -19.2234184 16.0987939 -19.30004883 14.70947266 C-19.44291202 9.61800472 -18.16263621 6.92562947 -15 3 C-10.63453818 -0.85187808 -5.54054055 -0.79911643 0 0 Z " fill="#262626" transform="translate(295,117)"/>
<path d="M0 0 C0.99 0.495 0.99 0.495 2 1 C1.44619228 9.03021188 -0.69861172 16.31044075 -3 24 C-4.3563324 28.62099293 -5.05342491 32.93708087 -5.25 37.75 C-5.62965616 42.63807307 -5.62965616 42.63807307 -8.75 45.6875 C-11.84098699 46.93578321 -13.72168524 47.38568409 -17 47 C-17.66 45.68 -18.32 44.36 -19 43 C-20.11375 43.66 -21.2275 44.32 -22.375 45 C-27.1731928 47.38202098 -31.72019692 48.10463965 -37 47 C-39.5 44.6875 -39.5 44.6875 -41 42 C-41.66 41.01 -42.32 40.02 -43 39 C-43.42410156 39.42152344 -43.84820312 39.84304687 -44.28515625 40.27734375 C-48.37290819 44.09557359 -51.17240422 46 -57 46 C-60.88192461 44.9648201 -61.72249908 44.41625138 -64 41 C-65.40630614 30.84484698 -63.28603353 23.59966649 -58 15 C-57.38125 13.88625 -56.7625 12.7725 -56.125 11.625 C-52.40176218 7.02570623 -48.99074019 3.47161672 -42.953125 2.51953125 C-37.59092489 2.38220661 -34.13085898 2.31173305 -30 6 C-29.34 5.67 -28.68 5.34 -28 5 C-24.9375 4.875 -24.9375 4.875 -22 5 C-21 6 -21 6 -20.6875 8.75 C-20.72778361 13.65452986 -22.53150803 18.07300507 -24.04296875 22.6875 C-25.31981269 27.10694353 -25.79313702 31.41798492 -26 36 C-22.61251465 33.02269033 -21.23551462 30.61111986 -19.9375 26.3125 C-19.60492188 25.25160156 -19.27234375 24.19070312 -18.9296875 23.09765625 C-18.36955131 21.23132011 -17.81157974 19.36432955 -17.2578125 17.49609375 C-14.38708474 8.22267543 -10.74183067 -0.78122405 0 0 Z " fill="#F85A50" transform="translate(287,147)"/>
<path d="M0 0 C2.359375 1.53515625 2.359375 1.53515625 4 3 C4.66 2.67 5.32 2.34 6 2 C9.0625 1.875 9.0625 1.875 12 2 C13 3 13 3 13.0625 6.5625 C13.041875 7.696875 13.02125 8.83125 13 10 C12.67 10 12.34 10 12 10 C11.34 8.02 10.68 6.04 10 4 C8.35 4.33 6.7 4.66 5 5 C5 5.66 5 6.32 5 7 C4.06027344 7.11601562 4.06027344 7.11601562 3.1015625 7.234375 C0.83784572 7.79019416 0.83784572 7.79019416 0.0234375 9.890625 C-0.19054687 10.66921875 -0.40453125 11.4478125 -0.625 12.25 C-0.86089844 13.05824219 -1.09679687 13.86648437 -1.33984375 14.69921875 C-1.55769531 15.45847656 -1.77554688 16.21773437 -2 17 C-2.64896236 18.67363977 -3.30580437 20.34461042 -4 22 C-4.66 22 -5.32 22 -6 22 C-6 22.99 -6 23.98 -6 25 C-7.63631892 26.04892238 -9.30485863 27.04906703 -11 28 C-11.33 28.66 -11.66 29.32 -12 30 C-11.34 30.99 -10.68 31.98 -10 33 C-9.92518441 35.84299237 -10.41735399 37.36683555 -12.3515625 39.46875 C-15.55073024 42.09820294 -17.99244622 43.40030396 -22.1875 43.0625 C-26.25930508 41.92773465 -27.47559089 41.28008906 -30 38 C-31.96637279 28.09152414 -29.13073933 20.34702369 -24 12 C-23.38125 10.88625 -22.7625 9.7725 -22.125 8.625 C-15.96189582 1.01175366 -9.92869786 -1.82971718 0 0 Z " fill="#F65A51" transform="translate(253,150)"/>
<path d="M0 0 C4.40830916 2.16407904 7.12843553 4.42506462 9 9 C9.63789271 15.69787341 8.62395737 19.69989286 4.34765625 25.078125 C1.703446 28.18632986 -0.58608245 30.72405497 -4 33 C-4.2502157 36.08365871 -4.2502157 36.08365871 -4 39 C-4.66 39 -5.32 39 -6 39 C-6.66 40.98 -7.32 42.96 -8 45 C-9.49341969 42.01316063 -8.40648676 40.04839022 -7.5625 36.875 C-7.13130859 35.23144531 -7.13130859 35.23144531 -6.69140625 33.5546875 C-6.46324219 32.71164063 -6.23507812 31.86859375 -6 31 C-7.41569064 30.91832554 -8.83276805 30.86050302 -10.25 30.8125 C-11.03890625 30.77769531 -11.8278125 30.74289063 -12.640625 30.70703125 C-15.52662145 31.06539174 -16.7630813 32.21087776 -19 34 C-19.11662261 29.95857785 -19.1873935 25.91759135 -19.25 21.875 C-19.28351563 20.73289063 -19.31703125 19.59078125 -19.3515625 18.4140625 C-19.42656592 11.96376867 -19.44418675 7.85416708 -15 3 C-10.63453818 -0.85187808 -5.54054055 -0.79911643 0 0 Z " fill="#392725" transform="translate(295,117)"/>
<path d="M0 0 C4.40830916 2.16407904 7.12843553 4.42506462 9 9 C9.22805455 11.72145101 9.13934685 14.259512 9 17 C7.35 17.33 5.7 17.66 4 18 C4 15.03 4 12.06 4 9 C3.34 8.67 2.68 8.34 2 8 C2 7.34 2 6.68 2 6 C0.22950311 5.94589313 -1.54146849 5.90715881 -3.3125 5.875 C-4.29863281 5.85179688 -5.28476562 5.82859375 -6.30078125 5.8046875 C-9.22406527 5.79317361 -9.22406527 5.79317361 -12 8 C-12.40420306 10.42691949 -12.40420306 10.42691949 -12.25 13.1875 C-12.22421875 14.1671875 -12.1984375 15.146875 -12.171875 16.15625 C-11.97002314 19.49598081 -11.58540918 22.70707337 -11 26 C-15 26 -15 26 -17 25 C-20.13061263 20.18196496 -19.59782885 14.5133105 -19 9 C-15.00819203 0.57284983 -8.80262943 -1.26961001 0 0 Z " fill="#242423" transform="translate(295,117)"/>
<path d="M0 0 C3.69982839 1.14358332 5.33106864 1.81508499 7.4375 5.0625 C7.80623895 10.47067131 4.72815501 13.61734562 1.421875 17.5234375 C-1.06033874 19.44861903 -2.49632337 19.36911766 -5.5625 19.0625 C-8.57301666 14.04497224 -9.2878621 10.7747265 -8.5625 5.0625 C-5.92505032 1.14628685 -4.76629682 0.08361924 0 0 Z " fill="#ED5A52" transform="translate(290.5625,122.9375)"/>
<path d="M0 0 C-0.3028444 8.17679875 -3.653222 14.17882435 -9.01171875 20.296875 C-11 22 -11 22 -14 22 C-14.31811891 17.15591653 -13.4692416 14.17066071 -11.25 9.875 C-10.73953125 8.86179688 -10.2290625 7.84859375 -9.703125 6.8046875 C-5.57103064 0 -5.57103064 0 0 0 Z " fill="#46221F" transform="translate(251,158)"/>
<path d="M0 0 C3.00698793 1.50349397 3.58257459 4.0418948 5 7 C6.63930993 8.63930993 8.49743674 8.21001367 10.75 8.25 C15.06382343 8.22538475 17.45623715 7.57728208 21 5 C21.99 5 22.98 5 24 5 C24.99 6.485 24.99 6.485 26 8 C30.05606165 7.53199289 33.46588679 7.12046792 37 5 C36.34 6.65 35.68 8.3 35 10 C30.545 10.495 30.545 10.495 26 11 C26.33 11.66 26.66 12.32 27 13 C29.52733235 13.65555119 29.52733235 13.65555119 32 14 C32 14.33 32 14.66 32 15 C30.741875 15.020625 29.48375 15.04125 28.1875 15.0625 C27.47980469 15.07410156 26.77210938 15.08570313 26.04296875 15.09765625 C24 15 24 15 21 14 C20.01 14.33 19.02 14.66 18 15 C17.01 14.34 16.02 13.68 15 13 C15 12.67 15 12.34 15 12 C14.24074219 11.91363281 13.48148437 11.82726562 12.69921875 11.73828125 C9.71563853 11.31647808 6.89116163 10.85489029 4 10 C2.125 7.375 2.125 7.375 1 5 C-1.62694422 4.58219121 -1.62694422 4.58219121 -4 5 C-2.68 3.35 -1.36 1.7 0 0 Z " fill="#252223" transform="translate(244,185)"/>
<path d="M0 0 C0.66 0.99 1.32 1.98 2 3 C1.67 3.33 1.34 3.66 1 4 C0.76636119 5.84891946 0.58696365 7.70488031 0.4375 9.5625 C0.35371094 10.57441406 0.26992188 11.58632812 0.18359375 12.62890625 C0.12300781 13.41136719 0.06242187 14.19382813 0 15 C0.66 15 1.32 15 2 15 C2.33 13.68 2.66 12.36 3 11 C5.06514012 15.13028024 2.28973243 20.78336458 1 25 C-0.13838249 27.92019855 -1.36773814 30.2965663 -3 33 C-4.485 33.495 -4.485 33.495 -6 34 C-6.59448512 26.68453028 -5.21454583 20.93047808 -2.890625 14.0078125 C-1.83129937 10.43026543 -1.65718402 7.68527173 -2 4 C-5.34252724 3.92572162 -7.8035914 3.93453047 -11 5 C-11.66 4.01 -12.32 3.02 -13 2 C-12.14535156 1.93941406 -11.29070312 1.87882813 -10.41015625 1.81640625 C-8.75306641 1.69072266 -8.75306641 1.69072266 -7.0625 1.5625 C-5.96035156 1.48128906 -4.85820312 1.40007812 -3.72265625 1.31640625 C-1.08890097 1.29581916 -1.08890097 1.29581916 0 0 Z " fill="#4C2624" transform="translate(267,149)"/>
<path d="M0 0 C1.91595968 -0.08133791 3.83291932 -0.13934367 5.75 -0.1875 C7.35101563 -0.23970703 7.35101563 -0.23970703 8.984375 -0.29296875 C12.30027855 0.02917214 13.59016673 0.77148914 16 3 C16.66 2.67 17.32 2.34 18 2 C21.0625 1.875 21.0625 1.875 24 2 C25 3 25 3 25.0625 6.5625 C25.041875 7.696875 25.02125 8.83125 25 10 C24.67 10 24.34 10 24 10 C23.34 8.02 22.68 6.04 22 4 C20.35 4.33 18.7 4.66 17 5 C17 5.66 17 6.32 17 7 C16.06027344 7.11601562 16.06027344 7.11601562 15.1015625 7.234375 C12.83784572 7.79019416 12.83784572 7.79019416 12.0234375 9.890625 C11.80945313 10.66921875 11.59546875 11.4478125 11.375 12.25 C11.13910156 13.05824219 10.90320313 13.86648437 10.66015625 14.69921875 C10.44230469 15.45847656 10.22445312 16.21773437 10 17 C9.35103764 18.67363977 8.69419563 20.34461042 8 22 C7.34 22 6.68 22 6 22 C6 22.99 6 23.98 6 25 C5.34 25 4.68 25 4 25 C5.12885442 22.13444648 6.30654039 19.31334952 7.5625 16.5 C8.75655869 13.59272667 9.5322325 11.0872655 10 8 C5.54058421 9.36259927 3.68558306 11.24018371 1 15 C0.4225 15.763125 -0.155 16.52625 -0.75 17.3125 C-1.1625 17.869375 -1.575 18.42625 -2 19 C-2 17.35 -2 15.7 -2 14 C-1.34 14 -0.68 14 0 14 C0.12375 13.401875 0.2475 12.80375 0.375 12.1875 C1 10 1 10 3 7 C5.625 6.8125 5.625 6.8125 8 7 C8.144375 6.38125 8.28875 5.7625 8.4375 5.125 C9 3 9 3 10 1 C6.7 1 3.4 1 0 1 C0 0.67 0 0.34 0 0 Z " fill="#E25A55" transform="translate(241,150)"/>
<path d="M0 0 C0.8125 2.625 0.8125 2.625 1 6 C-0.72105102 8.99462878 -2.87385491 11.43692746 -6 13 C-7.99960012 13.039992 -10.00047242 13.04346799 -12 13 C-8.0801105 -0.89779006 -8.0801105 -0.89779006 0 0 Z " fill="#252525" transform="translate(137,159)"/>
<path d="M0 0 C0.66 0.99 1.32 1.98 2 3 C4.56282742 3.72965366 4.56282742 3.72965366 7 4 C7 4.66 7 5.32 7 6 C6.34 6 5.68 6 5 6 C5.33 6.99 5.66 7.98 6 9 C4 10 4 10 0.625 9.875 C-3.17550316 10.00605183 -4.32511434 10.43210977 -7 13 C-7 10.03 -7 7.06 -7 4 C-5.35 3.67 -3.7 3.34 -2 3 C-1.67 3.66 -1.34 4.32 -1 5 C-0.67 3.35 -0.34 1.7 0 0 Z " fill="#372B2B" transform="translate(283,138)"/>
<path d="M0 0 C1.61648438 0.04060547 1.61648438 0.04060547 3.265625 0.08203125 C4.08546875 0.11683594 4.9053125 0.15164062 5.75 0.1875 C5.42 1.1775 5.09 2.1675 4.75 3.1875 C5.74 3.5175 6.73 3.8475 7.75 4.1875 C7.42 7.1575 7.09 10.1275 6.75 13.1875 C8.07 13.1875 9.39 13.1875 10.75 13.1875 C10.09 14.5075 9.43 15.8275 8.75 17.1875 C6.77 16.5275 4.79 15.8675 2.75 15.1875 C3.100625 14.48625 3.45125 13.785 3.8125 13.0625 C4.94195389 9.5988414 4.82838759 7.65374583 3.75 4.1875 C0.90364744 1.95108013 -1.71832454 1.91583266 -5.25 2.1875 C-6.24 2.5175 -7.23 2.8475 -8.25 3.1875 C-8.58 4.1775 -8.91 5.1675 -9.25 6.1875 C-9.58 5.1975 -9.91 4.2075 -10.25 3.1875 C-6.86416198 0.05642164 -4.53890538 -0.14800778 0 0 Z " fill="#45211D" transform="translate(292.25,121.8125)"/>
<path d="M0 0 C3.25 0.5 3.25 0.5 5.25 1.5 C4.92 4.47 4.59 7.44 4.25 10.5 C3.92 10.5 3.59 10.5 3.25 10.5 C3.25 7.86 3.25 5.22 3.25 2.5 C1.27 2.5 -0.71 2.5 -2.75 2.5 C-3.059375 3.44875 -3.36875 4.3975 -3.6875 5.375 C-4.75 8.5 -4.75 8.5 -5.75 10.5 C-6.74 10.17 -7.73 9.84 -8.75 9.5 C-8.75 10.82 -8.75 12.14 -8.75 13.5 C-9.74 13.5 -10.73 13.5 -11.75 13.5 C-10.14340058 6.91294238 -7.07370008 0.94316001 0 0 Z " fill="#D75B54" transform="translate(283.75,146.5)"/>
<path d="M0 0 C1.375 2.1875 1.375 2.1875 2 4 C-0.57667134 5.21676146 -2.37782003 6.05184833 -5.25 5.8125 C-5.8275 5.544375 -6.405 5.27625 -7 5 C-7.33 4.01 -7.66 3.02 -8 2 C-8.66 1.34 -9.32 0.68 -10 0 C-10 -0.66 -10 -1.32 -10 -2 C-5.93650005 -3.71917305 -3.57274916 -2.25238534 0 0 Z " fill="#2C2C2C" transform="translate(200,148)"/>
<path d="M0 0 C0.66 0 1.32 0 2 0 C2.06058594 0.83144531 2.12117187 1.66289062 2.18359375 2.51953125 C2.26738281 3.60621094 2.35117188 4.69289062 2.4375 5.8125 C2.55931641 7.43091797 2.55931641 7.43091797 2.68359375 9.08203125 C2.90212461 12.05989905 2.90212461 12.05989905 4 15 C11.717505 16.28873322 11.717505 16.28873322 19 14 C18.67 14.99 18.34 15.98 18 17 C16.29296875 17.765625 16.29296875 17.765625 14.1875 18.25 C13.50042969 18.42015625 12.81335938 18.5903125 12.10546875 18.765625 C8.23062213 19.19696229 6.23025276 18.15350184 3 16 C3 15.34 3 14.68 3 14 C2.01 13.67 1.02 13.34 0 13 C0 8.71 0 4.42 0 0 Z " fill="#49231E" transform="translate(221,176)"/>
<path d="M0 0 C0.66 0.33 1.32 0.66 2 1 C2.3129725 6.2162083 1.85058429 9.56575777 -1 14 C-1.99 14.33 -2.98 14.66 -4 15 C-4.45356243 8.53673535 -3.59378942 5.39068413 0 0 Z " fill="#411F1C" transform="translate(265,168)"/>
<path d="M0 0 C3.00698793 1.50349397 3.58257459 4.0418948 5 7 C6.01796809 8.23865033 6.01796809 8.23865033 8.14453125 8.1328125 C9.02496094 8.13023437 9.90539062 8.12765625 10.8125 8.125 C11.68519531 8.12757813 12.55789063 8.13015625 13.45703125 8.1328125 C15.78654215 8.01114834 17.76938015 7.65514709 20 7 C20 7.66 20 8.32 20 9 C15.67445031 11.16277484 11.74763975 11.63301863 7 11 C4.0625 9.6875 4.0625 9.6875 2 8 C1.67 7.01 1.34 6.02 1 5 C-0.65 5 -2.3 5 -4 5 C-2.68 3.35 -1.36 1.7 0 0 Z " fill="#592821" transform="translate(244,185)"/>
<path d="M0 0 C-0.71428571 8.57142857 -0.71428571 8.57142857 -4 12 C-4.125 5.25 -4.125 5.25 -3 3 C-3.66 3 -4.32 3 -5 3 C-5.33 4.65 -5.66 6.3 -6 8 C-7.32 8.33 -8.64 8.66 -10 9 C-8.11841723 3.35525168 -6.26153661 0 0 0 Z " fill="#552823" transform="translate(251,158)"/>
<path d="M0 0 C6.27 0 12.54 0 19 0 C18.67 0.66 18.34 1.32 18 2 C17.19175781 1.97679687 16.38351563 1.95359375 15.55078125 1.9296875 C14.48214844 1.91164062 13.41351563 1.89359375 12.3125 1.875 C11.25675781 1.85179687 10.20101562 1.82859375 9.11328125 1.8046875 C5.92590599 2.00464831 3.79968657 2.47656695 1 4 C0.67 4.99 0.34 5.98 0 7 C-0.66 7 -1.32 7 -2 7 C-2.66 8.65 -3.32 10.3 -4 12 C-4.33 10.68 -4.66 9.36 -5 8 C-4.34 8 -3.68 8 -3 8 C-3.33 7.01 -3.66 6.02 -4 5 C-3.01 5 -2.02 5 -1 5 C-0.67 3.35 -0.34 1.7 0 0 Z " fill="#462422" transform="translate(235,149)"/>
<path d="M0 0 C2.00841268 0.01421885 4.01537247 0.13420475 6.01953125 0.265625 C5.68953125 1.585625 5.35953125 2.905625 5.01953125 4.265625 C3.36953125 4.595625 1.71953125 4.925625 0.01953125 5.265625 C0.01953125 6.255625 0.01953125 7.245625 0.01953125 8.265625 C-3.85546875 6.515625 -3.85546875 6.515625 -4.98046875 4.265625 C-3.72152968 1.74774686 -2.88459378 0.38688832 0 0 Z " fill="#2F2F2F" transform="translate(96.98046875,143.734375)"/>
<path d="M0 0 C1.65 0.33 3.3 0.66 5 1 C5 4 5 4 4 5.75 C0.69692681 7.81442074 -2.25628566 6.67509603 -6 6 C-6 5.34 -6 4.68 -6 4 C-4.35 3.67 -2.7 3.34 -1 3 C-0.67 2.01 -0.34 1.02 0 0 Z " fill="#232323" transform="translate(103,145)"/>
<path d="M0 0 C0.33 0 0.66 0 1 0 C1 1.98 1 3.96 1 6 C1.33 5.34 1.66 4.68 2 4 C2.99 4 3.98 4 5 4 C5 7.3 5 10.6 5 14 C4.01 12.68 3.02 11.36 2 10 C1.67 10.66 1.34 11.32 1 12 C0.34 12 -0.32 12 -1 12 C-1.02687279 10.18757948 -1.04633715 8.37504767 -1.0625 6.5625 C-1.07410156 5.55316406 -1.08570313 4.54382813 -1.09765625 3.50390625 C-1 1 -1 1 0 0 Z " fill="#35201F" transform="translate(282,178)"/>
<path d="M0 0 C0.99 0.66 1.98 1.32 3 2 C2.2575 2.53625 1.515 3.0725 0.75 3.625 C-2.17130287 6.14794339 -3.88859679 8.79649169 -6 12 C-6.66 12 -7.32 12 -8 12 C-8.66 10.02 -9.32 8.04 -10 6 C-6.48812804 3.59185923 -4.27343092 2.63370592 0 3 C0 2.01 0 1.02 0 0 Z " fill="#2D2D2D" transform="translate(36,150)"/>
<path d="M0 0 C0.66 0 1.32 0 2 0 C1.50547046 7.41794311 1.50547046 7.41794311 -1.0625 10.375 C-1.701875 10.91125 -2.34125 11.4475 -3 12 C-3 12.66 -3 13.32 -3 14 C-3.66 14 -4.32 14 -5 14 C-5.49304175 6.60437376 -5.49304175 6.60437376 -3.0625 3.625 C-2.0415625 2.820625 -2.0415625 2.820625 -1 2 C-0.67 1.34 -0.34 0.68 0 0 Z " fill="#262525" transform="translate(246,161)"/>
<path d="M0 0 C0.66 0.99 1.32 1.98 2 3 C1.01 3.33 0.02 3.66 -1 4 C-1.22370596 6.20682907 -1.42830391 8.41559973 -1.625 10.625 C-1.74101562 11.85476562 -1.85703125 13.08453125 -1.9765625 14.3515625 C-2.00034163 18.05318114 -1.37441976 20.59017997 0 24 C-0.66 24.33 -1.32 24.66 -2 25 C-5.39141937 19.91287094 -4.56306795 13.93840265 -4 8 C-2.97478965 4.9199115 -1.7634169 2.7553389 0 0 Z " fill="#CC5751" transform="translate(227,166)"/>
<path d="M0 0 C6.52307692 -0.36923077 6.52307692 -0.36923077 8.9375 1.5 C9.288125 1.995 9.63875 2.49 10 3 C8 5 8 5 5.6171875 5.1953125 C4.71226562 5.17210937 3.80734375 5.14890625 2.875 5.125 C1.50988281 5.09792969 1.50988281 5.09792969 0.1171875 5.0703125 C-0.58148438 5.04710937 -1.28015625 5.02390625 -2 5 C-1.34 3.35 -0.68 1.7 0 0 Z " fill="#2D2B2A" transform="translate(252,196)"/>
<path d="M0 0 C0.66 0.33 1.32 0.66 2 1 C1.67 1.66 1.34 2.32 1 3 C0.01 3 -0.98 3 -2 3 C-1.34 3.33 -0.68 3.66 0 4 C0 9.94 0 15.88 0 22 C-2 20 -2 20 -2.1953125 17.3984375 C-2.17210937 16.40070313 -2.14890625 15.40296875 -2.125 14.375 C-2.10695313 13.37210938 -2.08890625 12.36921875 -2.0703125 11.3359375 C-2.04710937 10.56507813 -2.02390625 9.79421875 -2 9 C-2.66 9 -3.32 9 -4 9 C-4.8125 7.3125 -4.8125 7.3125 -5 5 C-2.5625 2.25 -2.5625 2.25 0 0 Z " fill="#2C201F" transform="translate(283,118)"/>
<path d="M0 0 C0.12375 0.639375 0.2475 1.27875 0.375 1.9375 C0.684375 2.9584375 0.684375 2.9584375 1 4 C1.66 4.33 2.32 4.66 3 5 C2.01 6.485 2.01 6.485 1 8 C0.34 7.67 -0.32 7.34 -1 7 C-0.67 6.34 -0.34 5.68 0 5 C-1.98 5.33 -3.96 5.66 -6 6 C-6.33 4.35 -6.66 2.7 -7 1 C-3.535 0.505 -3.535 0.505 0 0 Z " fill="#262728" transform="translate(225,144)"/>
<path d="M0 0 C2.64 0 5.28 0 8 0 C7.67 0.66 7.34 1.32 7 2 C6.34 2 5.68 2 5 2 C7.39509338 4.89932357 9.31245243 5.50168276 13 6 C13 6.33 13 6.66 13 7 C4.96858639 7.30890052 4.96858639 7.30890052 2 5 C0.75 2.375 0.75 2.375 0 0 Z " fill="#252525" transform="translate(125,177)"/>
<path d="M0 0 C1.65 0 3.3 0 5 0 C4.52797514 4.24822374 2.03344482 6.19989709 -1 9 C-1 8.34 -1 7.68 -1 7 C-1.99 7 -2.98 7 -4 7 C-4 5 -4 5 -2.5625 3.5 C-2.046875 3.005 -1.53125 2.51 -1 2 C-0.67 1.34 -0.34 0.68 0 0 Z " fill="#303133" transform="translate(212,183)"/>
<path d="M0 0 C0.99 0 1.98 0 3 0 C3.66 0.99 4.32 1.98 5 3 C9.05606165 2.53199289 12.46588679 2.12046792 16 0 C15.34 1.65 14.68 3.3 14 5 C12.37509046 5.02698189 10.75005367 5.04638757 9.125 5.0625 C8.22007812 5.07410156 7.31515625 5.08570313 6.3828125 5.09765625 C4 5 4 5 2 4 C2 3.34 2 2.68 2 2 C1.01 1.67 0.02 1.34 -1 1 C-0.67 0.67 -0.34 0.34 0 0 Z " fill="#48221B" transform="translate(265,190)"/>
<path d="M0 0 C0.66 0 1.32 0 2 0 C1.87882812 0.57105469 1.75765625 1.14210937 1.6328125 1.73046875 C0.17461372 8.78590744 -0.94999538 15.87337286 -2 23 C-2.33 23 -2.66 23 -3 23 C-3.18451025 11.47835991 -3.18451025 11.47835991 -2 6 C-1.34 6 -0.68 6 0 6 C0 4.02 0 2.04 0 0 Z " fill="#CE5A51" transform="translate(263,160)"/>
<path d="M0 0 C0.33 0 0.66 0 1 0 C1.33 2.64 1.66 5.28 2 8 C2.66 8 3.32 8 4 8 C4.33 8.99 4.66 9.98 5 11 C3.35 11 1.7 11 0 11 C-0.38909985 9.54536519 -0.76088029 8.08608793 -1.125 6.625 C-1.33382813 5.81289062 -1.54265625 5.00078125 -1.7578125 4.1640625 C-1.83773438 3.44992188 -1.91765625 2.73578125 -2 2 C-1.34 1.34 -0.68 0.68 0 0 Z " fill="#FC594C" transform="translate(285,129)"/>
<path d="M0 0 C0.99 0.33 1.98 0.66 3 1 C1.02 4.96 -0.96 8.92 -3 13 C-3.33 13 -3.66 13 -4 13 C-4 10.69 -4 8.38 -4 6 C-3.34 6 -2.68 6 -2 6 C-1.855625 5.195625 -1.71125 4.39125 -1.5625 3.5625 C-1 1 -1 1 0 0 Z " fill="#40231D" transform="translate(227,161)"/>
<path d="M0 0 C0.99 0.33 1.98 0.66 3 1 C3 1.66 3 2.32 3 3 C4.32 3.33 5.64 3.66 7 4 C7 4.33 7 4.66 7 5 C3.37 5.66 -0.26 6.32 -4 7 C-4 6.01 -4 5.02 -4 4 C-3.01 4 -2.02 4 -1 4 C-0.67 2.68 -0.34 1.36 0 0 Z " fill="#2D2C2D" transform="translate(285,117)"/>
<path d="M0 0 C2.32472205 2.85306797 3.7508258 5.54074837 5 9 C3.35 9.33 1.7 9.66 0 10 C0 9.01 0 8.02 0 7 C-0.99 6.67 -1.98 6.34 -3 6 C-2.01 4.02 -1.02 2.04 0 0 Z " fill="#E5564C" transform="translate(266,176)"/>
<path d="M0 0 C1.5625 1.125 1.5625 1.125 3 3 C2.91956698 6.78035175 2.43199957 8.50254595 -0.0625 11.375 C-0.701875 11.91125 -1.34125 12.4475 -2 13 C-1.855625 12.34 -1.71125 11.68 -1.5625 11 C-0.87700084 7.34400449 -0.43824485 3.69377805 0 0 Z " fill="#D95A59" transform="translate(295,125)"/>
<path d="M0 0 C0.66 0 1.32 0 2 0 C2.33 1.98 2.66 3.96 3 6 C1.02 6.66 -0.96 7.32 -3 8 C-3 3.77471908 -2.74375671 2.95481492 0 0 Z " fill="#232323" transform="translate(177,182)"/>
<path d="M0 0 C2.475 0.495 2.475 0.495 5 1 C5 1.66 5 2.32 5 3 C6.41681634 2.68817931 7.83344651 2.37551263 9.25 2.0625 C10.03890625 1.88847656 10.8278125 1.71445313 11.640625 1.53515625 C13.76878703 1.052444 15.88532842 0.53836822 18 0 C16 3 16 3 13 4 C10.625 4.23828125 10.625 4.23828125 8 4.3125 C7.13375 4.34988281 6.2675 4.38726562 5.375 4.42578125 C3 4 3 4 1.1875 1.98046875 C0.5996875 1.00013672 0.5996875 1.00013672 0 0 Z " fill="#D85E56" transform="translate(247,190)"/>
<path d="M0 0 C0.33 0 0.66 0 1 0 C1 1.65 1 3.3 1 5 C2.32 5 3.64 5 5 5 C4.34 6.32 3.68 7.64 3 9 C1.02 8.34 -0.96 7.68 -3 7 C-2.01 4.69 -1.02 2.38 0 0 Z " fill="#44302C" transform="translate(298,130)"/>
<path d="M0 0 C1.65 0 3.3 0 5 0 C5.33 1.98 5.66 3.96 6 6 C3.03 5.505 3.03 5.505 0 5 C0 3.35 0 1.7 0 0 Z " fill="#2D2D2D" transform="translate(126,145)"/>
<path d="M0 0 C0.93065133 2.60582371 1.14917407 3.64198224 0.0625 6.25 C-0.4634375 7.11625 -0.4634375 7.11625 -1 8 C-0.01 8.33 0.98 8.66 2 9 C2 9.33 2 9.66 2 10 C0.02 10 -1.96 10 -4 10 C-3.52449439 8.51965236 -3.04448784 7.04074979 -2.5625 5.5625 C-2.29566406 4.73878906 -2.02882813 3.91507813 -1.75390625 3.06640625 C-1 1 -1 1 0 0 Z " fill="#1D1D1D" transform="translate(129,162)"/>
<path d="M0 0 C0.33 1.32 0.66 2.64 1 4 C-2 5 -2 5 -4.125 4.25 C-6 3 -6 3 -7 0 C-3.86650268 -1.04449911 -3.01031744 -0.93423645 0 0 Z " fill="#323232" transform="translate(111,169)"/>
<path d="M0 0 C0.66 0.99 1.32 1.98 2 3 C4.56282742 3.72965366 4.56282742 3.72965366 7 4 C7 4.66 7 5.32 7 6 C6.34 6 5.68 6 5 6 C5.33 6.99 5.66 7.98 6 9 C3.13822943 10.43088528 1.06624227 9.59991697 -2 9 C-2 8.67 -2 8.34 -2 8 C-0.35 7.67 1.3 7.34 3 7 C3 6.34 3 5.68 3 5 C2.01 4.67 1.02 4.34 0 4 C0 2.68 0 1.36 0 0 Z " fill="#622E2A" transform="translate(283,138)"/>
<path d="M0 0 C0.66 0 1.32 0 2 0 C2 0.99 2 1.98 2 3 C2.66 3 3.32 3 4 3 C3.67 5.31 3.34 7.62 3 10 C0.11192273 7.61419704 -0.61954948 5.70939253 -1 2 C-0.67 1.34 -0.34 0.68 0 0 Z " fill="#262C2C" transform="translate(277,124)"/>
<path d="M0 0 C0.66 0 1.32 0 2 0 C2.05422947 1.4370809 2.09289723 2.87475462 2.125 4.3125 C2.14820313 5.11300781 2.17140625 5.91351563 2.1953125 6.73828125 C2 9 2 9 0 12 C-1.21724428 8.04395608 -1.89679663 3.79359325 0 0 Z " fill="#1D2222" transform="translate(293,147)"/>
<path d="M0 0 C0 1.98 0 3.96 0 6 C-1.65 6.33 -3.3 6.66 -5 7 C-5 3 -5 3 -3.625 1.25 C-2 0 -2 0 0 0 Z " fill="#1D2221" transform="translate(304,128)"/>
<path d="M0 0 C1.32 0 2.64 0 4 0 C4 0.99 4 1.98 4 3 C6.64 2.67 9.28 2.34 12 2 C10.8125 3.5 10.8125 3.5 9 5 C6.3125 5.1875 6.3125 5.1875 4 5 C3.71125 4.360625 3.4225 3.72125 3.125 3.0625 C2.17176549 0.84793921 2.17176549 0.84793921 0 0 Z " fill="#D95A57" transform="translate(266,189)"/>
<path d="M0 0 C0.66 0.33 1.32 0.66 2 1 C2 2.65 2 4.3 2 6 C1.34 6 0.68 6 0 6 C0 7.32 0 8.64 0 10 C-0.66 10 -1.32 10 -2 10 C-2.17942163 6.05272412 -2.09350689 3.4019487 0 0 Z " fill="#262421" transform="translate(265,168)"/>
<path d="M0 0 C1.32 0 2.64 0 4 0 C4 2.64 4 5.28 4 8 C3.67 8 3.34 8 3 8 C3 6.35 3 4.7 3 3 C2.34 3 1.68 3 1 3 C1 3.66 1 4.32 1 5 C0.01 4.67 -0.98 4.34 -2 4 C-1.34 2.68 -0.68 1.36 0 0 Z " fill="#1A1A1A" transform="translate(107,173)"/>
<path d="M0 0 C2.97 0.495 2.97 0.495 6 1 C5.25 2.9375 5.25 2.9375 4 5 C1.875 5.75 1.875 5.75 0 6 C0.33 5.01 0.66 4.02 1 3 C0.67 2.01 0.34 1.02 0 0 Z " fill="#212224" transform="translate(295,137)"/>
<path d="M0 0 C0.33 0 0.66 0 1 0 C1.13277344 0.60328125 1.26554688 1.2065625 1.40234375 1.828125 C1.66724609 3.02695313 1.66724609 3.02695313 1.9375 4.25 C2.11152344 5.03890625 2.28554687 5.8278125 2.46484375 6.640625 C2.947556 8.76878703 3.46163178 10.88532842 4 13 C3.34 13 2.68 13 2 13 C-0.20914 9.68629 -0.22481553 8.6553979 -0.125 4.8125 C-0.10695312 3.91144531 -0.08890625 3.01039063 -0.0703125 2.08203125 C-0.04710937 1.39496094 -0.02390625 0.70789063 0 0 Z " fill="#D85D56" transform="translate(223,178)"/>
<path d="M0 0 C2 3 2 3 2 5 C2.66 5 3.32 5 4 5 C3 7 3 7 1 8 C0.67 7.34 0.34 6.68 0 6 C-0.66 6.66 -1.32 7.32 -2 8 C-1.47731534 5.23723823 -0.89130413 2.6739124 0 0 Z " fill="#291F1F" transform="translate(288,158)"/>
<path d="M0 0 C-1.62339805 1.70884005 -3.29319053 3.37446717 -5 5 C-5.66 5 -6.32 5 -7 5 C-6.625 2.5625 -6.625 2.5625 -6 0 C-3.50907189 -1.24546405 -2.58919267 -0.7767578 0 0 Z " fill="#1E1E1E" transform="translate(87,157)"/>
<path d="M0 0 C0.66 0.66 1.32 1.32 2 2 C0.25 4 0.25 4 -2 6 C-3.32 6 -4.64 6 -6 6 C-5.67 5.01 -5.34 4.02 -5 3 C-3.67696283 2.6278958 -2.34262065 2.29369827 -1 2 C-0.67 1.34 -0.34 0.68 0 0 Z " fill="#343034" transform="translate(285,191)"/>
<path d="M0 0 C2.31 0.33 4.62 0.66 7 1 C5.625 3 5.625 3 4 5 C3.34 5 2.68 5 2 5 C1.34 3.35 0.68 1.7 0 0 Z " fill="#EC5C58" transform="translate(236,185)"/>
<path d="M0 0 C1 2 1 2 0.3125 4.5625 C-1 7 -1 7 -3.125 7.8125 C-3.74375 7.874375 -4.3625 7.93625 -5 8 C-3.8141763 4.62496331 -2.72426311 2.35277269 0 0 Z " fill="#4C241F" transform="translate(246,159)"/>
<path d="M0 0 C0.556875 0.474375 1.11375 0.94875 1.6875 1.4375 C4.18346074 3.12395996 6.0446237 3.58953107 9 4 C9 4.33 9 4.66 9 5 C2.375 5.25 2.375 5.25 -1 3 C-0.67 2.01 -0.34 1.02 0 0 Z " fill="#1A1A1A" transform="translate(129,179)"/>
<path d="M0 0 C0.66 0 1.32 0 2 0 C3 3 3 3 1.5625 6.1875 C0.7890625 7.5796875 0.7890625 7.5796875 0 9 C-1.10844919 5.67465243 -0.84454356 3.37817425 0 0 Z " fill="#3D231E" transform="translate(272,151)"/>
</svg>
