<?xml version="1.0" encoding="UTF-8"?>
<svg version="1.1" xmlns="http://www.w3.org/2000/svg" width="225" height="225">
<path d="M0 0 C1.92809509 -0.00525696 1.92809509 -0.00525696 3.8951416 -0.01062012 C7.40552159 -0.01970263 10.91578341 -0.01621679 14.42616534 -0.00986195 C18.10996478 -0.00477937 21.79375446 -0.00949976 25.47755432 -0.01263428 C31.66360276 -0.01626781 37.84960336 -0.0114914 44.03564453 -0.00195312 C51.17305827 0.00892544 58.31035767 0.00540775 65.44776863 -0.00560594 C71.58981978 -0.01470204 77.73183665 -0.01595261 83.87389237 -0.0107286 C87.53606384 -0.00762103 91.19818169 -0.00716594 94.86034966 -0.01380157 C98.94603035 -0.02068806 103.03151615 -0.01112443 107.1171875 0 C108.92302055 -0.00607269 108.92302055 -0.00607269 110.76533508 -0.01226807 C125.5920075 0.06239259 125.5920075 0.06239259 131.43579102 4.50878906 C135.34740152 8.51136725 137.2494602 11.92100207 137.62329102 17.50878906 C137.08975062 27.86648112 129.0512079 37.55128516 123.74829102 46.19628906 C123.01097232 47.40636871 122.27399161 48.61665435 121.53735352 49.82714844 C119.41290665 53.3128386 117.2702409 56.78691056 115.12329102 60.25878906 C114.14972656 61.84336914 114.14972656 61.84336914 113.15649414 63.45996094 C112.54999023 64.43384766 111.94348633 65.40773438 111.31860352 66.41113281 C110.52607178 67.68911743 110.52607178 67.68911743 109.7175293 68.99291992 C106.67535214 73.31672485 103.15170069 76.5826525 98.12329102 78.25878906 C95.68548724 78.41148088 93.270452 78.51561603 90.83032227 78.57519531 C90.12429367 78.59597641 89.41826508 78.61675751 88.69084167 78.63816833 C86.43925551 78.70346398 84.1875544 78.76245553 81.93579102 78.82128906 C80.40778442 78.86449332 78.87978937 78.90810822 77.35180664 78.95214844 C73.6090854 79.0591248 69.86624872 79.16044828 66.12329102 79.25878906 C66.51709961 80.07444336 66.9109082 80.89009766 67.31665039 81.73046875 C68.78908201 84.80863497 70.23974238 87.89531547 71.67749023 90.98974609 C72.29978299 92.31818209 72.9301213 93.64288386 73.5690918 94.96337891 C77.51282408 103.12944308 81.2923476 111.02082499 79.12329102 120.25878906 C76.99304054 125.25393462 74.26849904 129.75085445 71.37329102 134.32128906 C70.5914889 135.5953945 69.81180284 136.87080066 69.03417969 138.14746094 C67.48260424 140.68413968 65.91582043 143.2102651 64.33374023 145.72802734 C62.36515577 148.8620189 60.44292822 152.02195484 58.53344727 155.19238281 C57.50271698 156.88229742 56.47030658 158.57118904 55.43579102 160.25878906 C54.98042969 161.01039307 54.52506836 161.76199707 54.0559082 162.53637695 C50.72317566 167.83458296 47.26733913 172.21077302 41.12329102 174.25878906 C38.11163596 174.32986383 35.11881782 174.34748591 32.10766602 174.32910156 C30.28083358 174.33768805 28.45400923 174.34816481 26.62719727 174.36035156 C23.7520695 174.37702466 20.87874738 174.38383734 18.00366211 174.35839844 C15.22470964 174.33735664 12.44896674 174.36073436 9.67016602 174.39160156 C8.39323883 174.36551315 8.39323883 174.36551315 7.09051514 174.33889771 C2.24896384 174.43603669 -0.28503061 175.13746137 -3.78198242 178.59033203 C-4.83835603 179.7917933 -5.87085411 181.01472702 -6.87670898 182.25878906 C-11.41905097 187.5572739 -16.11009424 192.65601195 -21.00170898 197.63378906 C-21.89901733 198.56300171 -21.89901733 198.56300171 -22.81445312 199.51098633 C-25.93099453 202.65177087 -28.46291178 205.14975739 -32.87670898 206.25878906 C-38.45780016 206.17020031 -41.0161711 205.56895431 -45.36436462 201.85456848 C-48.07219229 198.99735172 -49.41874445 195.59396142 -50.92749023 192.00097656 C-51.27176559 191.2161087 -51.61604095 190.43124084 -51.9707489 189.62258911 C-53.05862458 187.1325519 -54.12396566 184.63357935 -55.18920898 182.13378906 C-55.92280027 180.44696645 -56.65781289 178.76076122 -57.39428711 177.07519531 C-65.59530832 158.23077964 -65.59530832 158.23077964 -63.14624023 151.14550781 C-59.22275173 142.94442533 -54.07129724 135.27979038 -49.29321289 127.55712891 C-47.10940982 124.01381245 -44.95792177 120.45146351 -42.81420898 116.88378906 C-42.44457031 116.27188721 -42.07493164 115.65998535 -41.6940918 115.02954102 C-40.74320567 113.44629329 -39.8090667 111.8530183 -38.87670898 110.25878906 C-38.45905273 109.66630371 -38.04139648 109.07381836 -37.61108398 108.46337891 C-36.47181627 105.04330328 -37.8494904 103.14971689 -39.34936523 99.94628906 C-39.62888535 99.33672363 -39.90840546 98.7271582 -40.19639587 98.09912109 C-41.09602633 96.14515906 -42.01676545 94.20207012 -42.93920898 92.25878906 C-43.82874257 90.34887248 -44.71380077 88.43692304 -45.59880066 86.52490234 C-46.18158246 85.26616435 -46.76565488 84.00802308 -47.35102844 82.75048828 C-56.40661838 63.24442 -56.40661838 63.24442 -54.87670898 57.25878906 C-51.64888131 48.91918761 -46.5945372 41.41911553 -41.80249023 33.91113281 C-39.57037466 30.39751663 -37.4213969 26.84106526 -35.29467773 23.26269531 C-34.6772168 22.22862549 -34.05975586 21.19455566 -33.42358398 20.12915039 C-32.20404099 18.08254075 -30.99154128 16.03171413 -29.78686523 13.97631836 C-25.86985706 7.43288019 -22.82305717 2.76353459 -15.13689995 0.67017365 C-10.14892841 -0.237703 -5.05278251 -0.01696308 0 0 Z M-18.01733398 18.37988281 C-19.01691316 20.31623498 -19.96593005 22.27911738 -20.87670898 24.25878906 C-21.91349707 26.00739622 -22.95135655 27.75552897 -24.01353455 29.48883057 C-25.91732591 32.60995243 -27.73248045 35.78254003 -29.56420898 38.94628906 C-30.31707147 40.2388356 -31.07032481 41.53115456 -31.82397461 42.82324219 C-33.84840771 46.29781667 -35.86651565 49.77594929 -37.87670898 53.25878906 C-38.2509903 53.88202057 -38.62527161 54.50525208 -39.01089478 55.14736938 C-41.24192569 58.64039086 -41.24192569 58.64039086 -41.75170898 62.63378906 C-40.97514865 64.44935815 -40.97514865 64.44935815 -38.87670898 65.25878906 C-36.22190518 65.35187977 -33.59356179 65.38457866 -30.9387207 65.37231445 C-30.11912872 65.37246048 -29.29953674 65.37260651 -28.45510864 65.37275696 C-25.73884458 65.3720588 -23.02264861 65.36427094 -20.30639648 65.35644531 C-18.42595456 65.35458079 -16.54551216 65.35315705 -14.66506958 65.35215759 C-9.71008977 65.34833513 -4.75513916 65.33850714 0.1998291 65.32745361 C5.25373947 65.31723368 10.30765455 65.31265872 15.36157227 65.30761719 C25.28215803 65.29688465 35.2027221 65.27981146 45.12329102 65.25878906 C43.2237236 59.24057508 41.02541432 53.46870699 38.43579102 47.71582031 C38.09201416 46.94372726 37.7482373 46.17163422 37.39404297 45.37614441 C36.67327039 43.75940693 35.95051103 42.14355383 35.22583008 40.52856445 C34.12218294 38.06881945 33.02456128 35.60645606 31.92797852 33.14355469 C31.22259677 31.56332143 30.51687916 29.98323805 29.81079102 28.40332031 C29.32316284 27.31093803 29.32316284 27.31093803 28.82568359 26.19648743 C27.01633472 22.16745185 25.12944156 18.1950879 23.12329102 14.25878906 C17.9824525 14.01047629 12.84513878 13.82965933 7.69970703 13.70947266 C5.9523436 13.65935862 4.20539597 13.59124008 2.45947266 13.50439453 C-9.08125744 12.43105965 -9.08125744 12.43105965 -18.01733398 18.37988281 Z M37.12329102 14.25878906 C38.89909174 19.84597712 40.86979447 25.1981343 43.30297852 30.53222656 C43.74494064 31.50610825 43.74494064 31.50610825 44.1958313 32.49966431 C45.12578637 34.54631524 46.06187718 36.59008651 46.99829102 38.63378906 C47.61719471 39.99297557 48.23568685 41.35234956 48.85375977 42.71191406 C50.33152644 45.96028762 51.81401977 49.20647565 53.29797363 52.45202637 C55.24656866 56.71783838 57.18416383 60.98866708 59.12329102 65.25878906 C64.17694394 65.35776087 69.23003126 65.43030509 74.28442383 65.47851562 C76.00327381 65.49861534 77.72205554 65.52589995 79.44067383 65.56054688 C81.91317591 65.6091394 84.38477312 65.63177341 86.85766602 65.64941406 C87.62447693 65.6700592 88.39128784 65.69070435 89.18133545 65.7119751 C92.51958016 65.71337502 94.64926192 65.59850653 97.40063477 63.62670898 C99.43748436 60.8269068 101.22199817 57.98268592 102.95141602 54.98144531 C103.3041156 54.37425156 103.65681519 53.7670578 104.02020264 53.14146423 C105.14381375 51.20475752 106.25892383 49.26332671 107.37329102 47.32128906 C108.47054688 45.41991319 109.56963041 43.51961736 110.67028809 41.62020874 C111.39794604 40.36349822 112.12346119 39.10554448 112.84680176 37.84634399 C114.66097812 34.70394231 116.51985027 31.60744798 118.48852539 28.55908203 C118.8653949 27.97066025 119.2422644 27.38223846 119.6305542 26.77598572 C120.66958819 25.16517231 121.72361087 23.56405561 122.77856445 21.96362305 C124.34393126 19.41485004 124.34393126 19.41485004 123.89770508 16.95825195 C123.24565236 15.26440308 123.24565236 15.26440308 122.12329102 14.25878906 C119.47591012 14.1636764 116.85470101 14.13323272 114.20703125 14.14526367 C113.37783173 14.14511765 112.5486322 14.14497162 111.69430542 14.14482117 C108.94013903 14.14552055 106.18603941 14.15331413 103.43188477 14.16113281 C101.52759335 14.1629969 99.62330146 14.16442085 97.7190094 14.16542053 C92.69661139 14.16924643 87.6742421 14.17907733 82.65185547 14.19012451 C77.53100981 14.20033708 72.41015954 14.20491782 67.28930664 14.20996094 C57.23395545 14.22069954 47.17862562 14.23777682 37.12329102 14.25878906 Z M-33.87670898 78.25878906 C-30.89415645 87.72987059 -30.89415645 87.72987059 -25.87670898 98.25878906 C2.17329102 97.92878906 30.22329102 97.59878906 59.12329102 97.25878906 C56.24114215 87.90523567 56.24114215 87.90523567 51.12329102 78.25878906 C23.07329102 78.25878906 -4.97670898 78.25878906 -33.87670898 78.25878906 Z M-19.87670898 110.25878906 C-19.28806063 113.64654891 -18.44166842 116.58450224 -17.05078125 119.72607422 C-16.67691788 120.57690582 -16.3030545 121.42773743 -15.91786194 122.30435181 C-15.51369553 123.20970673 -15.10952911 124.11506165 -14.69311523 125.04785156 C-14.27754868 125.98809174 -13.86198212 126.92833191 -13.43382263 127.89706421 C-12.55610818 129.88003462 -11.67592968 131.86191596 -10.79345703 133.84277344 C-9.44212339 136.87724465 -8.09924868 139.91535171 -6.75756836 142.95410156 C-5.90324786 144.88140537 -5.04844648 146.80849611 -4.19311523 148.73535156 C-3.79097305 149.64475494 -3.38883087 150.55415833 -2.97450256 151.49111938 C-2.59748703 152.33564667 -2.2204715 153.18017395 -1.83203125 154.05029297 C-1.50195572 154.79244049 -1.17188019 155.53458801 -0.83180237 156.29922485 C0.18503994 158.49666572 0.18503994 158.49666572 2.12329102 161.25878906 C4.85442031 161.56307717 7.35502961 161.67884546 10.08813477 161.65722656 C10.87724747 161.66009674 11.66636017 161.66296692 12.47938538 161.66592407 C14.14967566 161.66796706 15.81998975 161.66242075 17.49023438 161.64990234 C20.04750151 161.63387237 22.60318307 161.64973108 25.16040039 161.66894531 C26.78214867 161.6669625 28.40389597 161.66311804 30.02563477 161.65722656 C30.79133286 161.66329926 31.55703094 161.66937195 32.34593201 161.67562866 C36.29462924 161.66034688 36.29462924 161.66034688 39.86450195 160.16992188 C41.78462779 157.25472694 43.60841998 154.29955716 45.36157227 151.28222656 C45.76482224 150.59754303 46.1680722 149.9128595 46.58354187 149.20742798 C47.87194708 147.01872046 49.15430743 144.82655523 50.43579102 142.63378906 C52.11611184 139.76466766 53.7998084 136.89756462 55.48657227 134.03222656 C55.88989273 133.34525696 56.2932132 132.65828735 56.70875549 131.95050049 C59.33601233 127.50389081 62.09510447 123.191902 65.10864258 118.99365234 C66.64287461 116.37039613 66.63745134 114.19684805 66.12329102 111.25878906 C64.34607411 109.48157216 61.97081901 110.13890807 59.60466003 110.1343689 C58.81344254 110.13796417 58.02222504 110.14155945 57.20703125 110.14526367 C56.37783173 110.14511765 55.5486322 110.14497162 54.69430542 110.14482117 C51.94013903 110.14552055 49.18603941 110.15331413 46.43188477 110.16113281 C44.52759335 110.1629969 42.62330146 110.16442085 40.7190094 110.16542053 C35.69661139 110.16924643 30.6742421 110.17907733 25.65185547 110.19012451 C20.53100981 110.20033708 15.41015954 110.20491782 10.28930664 110.20996094 C0.23395545 110.22069954 -9.82137438 110.23777682 -19.87670898 110.25878906 Z M-30.87670898 122.25878906 C-32.2448831 124.28964552 -33.47641166 126.30280972 -34.68530273 128.42675781 C-35.05269058 129.05858475 -35.42007843 129.69041168 -35.79859924 130.34138489 C-36.9774953 132.3723774 -38.14597843 134.40914653 -39.31420898 136.44628906 C-40.09802477 137.80150575 -40.88252176 139.15632869 -41.66772461 140.51074219 C-43.11856374 143.01439482 -44.56478779 145.5206089 -46.00732422 148.02905273 C-47.87670898 151.25878906 -47.87670898 151.25878906 -49.74804688 153.87329102 C-50.30673462 155.05411255 -50.30673462 155.05411255 -50.87670898 156.25878906 C-50.21670898 157.90878906 -49.55670898 159.55878906 -48.87670898 161.25878906 C-36.99670898 161.25878906 -25.11670898 161.25878906 -12.87670898 161.25878906 C-13.816392 156.560374 -15.31087916 152.65612261 -17.25561523 148.33300781 C-17.75290382 147.21162163 -17.75290382 147.21162163 -18.26023865 146.06758118 C-19.31515602 143.69167571 -20.37706811 141.31897278 -21.43920898 138.94628906 C-22.1577725 137.3312613 -22.87587663 135.71602906 -23.59350586 134.10058594 C-25.34926122 130.15093203 -27.11129441 126.20413439 -28.87670898 122.25878906 C-29.53670898 122.25878906 -30.19670898 122.25878906 -30.87670898 122.25878906 Z M-42.87670898 174.25878906 C-40.52632874 181.44345443 -40.52632874 181.44345443 -37.68920898 188.32128906 C-37.3450293 189.07539063 -37.00084961 189.82949219 -36.64624023 190.60644531 C-36.26532227 191.42435547 -36.26532227 191.42435547 -35.87670898 192.25878906 C-32.74598531 190.88149341 -30.73982672 189.32202649 -28.42358398 186.81738281 C-27.80483398 186.15158203 -27.18608398 185.48578125 -26.54858398 184.79980469 C-25.91436523 184.10564453 -25.28014648 183.41148437 -24.62670898 182.69628906 C-23.97702148 181.99826172 -23.32733398 181.30023438 -22.65795898 180.58105469 C-19.5187032 177.77654656 -19.5187032 177.77654656 -17.87670898 174.25878906 C-26.12670898 174.25878906 -34.37670898 174.25878906 -42.87670898 174.25878906 Z " fill="#4D38F4" transform="translate(75.876708984375,8.7412109375)"/>
<path d="M0 0 C16.81171948 -0.04677534 33.62341857 -0.08201593 50.43518829 -0.10362434 C58.24164509 -0.11392535 66.04806139 -0.12796317 73.85449219 -0.15087891 C80.66066437 -0.17084882 87.46680721 -0.18372498 94.27300787 -0.18817699 C97.87493873 -0.19077828 101.47678568 -0.19686784 105.07868958 -0.21146011 C109.10523154 -0.22763954 113.13162874 -0.22797738 117.15820312 -0.22705078 C118.93845383 -0.23783661 118.93845383 -0.23783661 120.75466919 -0.24884033 C135.44959296 -0.2122728 135.44959296 -0.2122728 141.3125 4.25 C145.2241105 8.25257819 147.12616918 11.66221301 147.5 17.25 C146.9664596 27.60769206 138.92791689 37.2924961 133.625 45.9375 C132.88768131 47.14757964 132.15070059 48.35786529 131.4140625 49.56835938 C129.28961563 53.05404953 127.14694988 56.5281215 125 60 C124.02643555 61.58458008 124.02643555 61.58458008 123.03320312 63.20117188 C122.42669922 64.17505859 121.82019531 65.14894531 121.1953125 66.15234375 C120.40278076 67.43032837 120.40278076 67.43032837 119.59423828 68.73413086 C116.55206113 73.05793579 113.02840967 76.32386344 108 78 C105.48631945 78.0846817 103.00130626 78.11601885 100.48828125 78.09765625 C99.76005661 78.0962413 99.03183197 78.09482635 98.28153992 78.09336853 C95.95848461 78.08777659 93.63552612 78.07522562 91.3125 78.0625 C89.73632952 78.05748396 88.16015752 78.05292123 86.58398438 78.04882812 C82.72261902 78.0378098 78.86132592 78.02055074 75 78 C75.495 81.465 75.495 81.465 76 85 C73.34339364 86.37115167 71.93492106 87 69 87 C69.165 88.0725 69.33 89.145 69.5 90.25 C70 94 70 94 70 98 C41.95 98 13.9 98 -15 98 C-15 97.67 -15 97.34 -15 97 C12.72 97 40.44 97 69 97 C66.36 91.06 63.72 85.12 61 79 C32.95 78.67 4.9 78.34 -24 78 C-24 77.34 -24 76.68 -24 76 C4.05 75.67 32.1 75.34 61 75 C60.34 73.35 59.68 71.7 59 70 C65.4 65.93846154 65.4 65.93846154 68.4375 66.25 C69.2109375 66.62125 69.2109375 66.62125 70 67 C69.4225 66.54625 68.845 66.0925 68.25 65.625 C64.97487543 61.80402133 62 56.15985839 62 51 C61.21625 51.825 60.4325 52.65 59.625 53.5 C57 56 57 56 55 56 C55 57.98 55 59.96 55 62 C55.66 62 56.32 62 57 62 C56.67 63.32 56.34 64.64 56 66 C48.75376676 52.42607013 42.97437516 38.16355442 37 24 C37.66 23.67 38.32 23.34 39 23 C43.57419632 31.6401486 46.96159362 40.71752914 50 50 C51.33333333 47 51.33333333 47 50 44 C50.639375 43.21625 51.27875 42.4325 51.9375 41.625 C54.13171898 39.25991119 54.13171898 39.25991119 54.375 36.83203125 C53.83599806 32.76144369 52.00619546 29.64089318 50.0625 26.0625 C47.51923702 21.35812235 45.53462107 17.42258515 45 12 C48.01087383 10.49456309 51.09007112 10.91916498 54.38720703 10.97827148 C55.14827759 10.98787903 55.90934814 10.99748657 56.69348145 11.00738525 C59.21501768 11.04042852 61.73638352 11.08074046 64.2578125 11.12109375 C66.00372716 11.14538967 67.74964817 11.16923349 69.49557495 11.19264221 C74.09551205 11.25553575 78.6953371 11.32458744 83.29516602 11.39489746 C87.98708993 11.46553336 92.67909341 11.53037869 97.37109375 11.59570312 C106.58081661 11.72478337 115.79043153 11.86036574 125 12 C125.33 11.01 125.66 10.02 126 9 C127.65 9.66 129.3 10.32 131 11 C130.67 10.67 130.34 10.34 130 10 C128.99357052 8.67151309 127.99307821 7.33849671 127 6 C127.99 5.34 128.98 4.68 130 4 C130 4.66 130 5.32 130 6 C130.66 6 131.32 6 132 6 C131.67 5.01 131.34 4.02 131 3 C129.17980095 2.9845388 129.17980095 2.9845388 127.3228302 2.96876526 C115.75021937 2.86997059 104.17764985 2.76716119 92.60510731 2.66066074 C86.65903511 2.60606245 80.71295784 2.55276156 74.7668457 2.50268555 C23.539773 2.06947948 23.539773 2.06947948 0 1 C0 0.67 0 0.34 0 0 Z M47 14 C48.77580072 19.58718805 50.74650345 24.93934523 53.1796875 30.2734375 C53.62164963 31.24731918 53.62164963 31.24731918 54.07254028 32.24087524 C55.00249535 34.28752618 55.93858617 36.33129744 56.875 38.375 C57.4939037 39.73418651 58.11239584 41.0935605 58.73046875 42.453125 C60.20823542 45.70149856 61.69072875 48.94768659 63.17468262 52.1932373 C65.12327765 56.45904932 67.06087282 60.72987801 69 65 C74.05365292 65.09897181 79.10674024 65.17151603 84.16113281 65.21972656 C85.87998279 65.23982628 87.59876452 65.26711089 89.31738281 65.30175781 C91.78988489 65.35035034 94.2614821 65.37298435 96.734375 65.390625 C97.50118591 65.41127014 98.26799683 65.43191528 99.05804443 65.45318604 C102.39628914 65.45458595 104.5259709 65.33971746 107.27734375 63.36791992 C109.31419334 60.56811774 111.09870716 57.72389685 112.828125 54.72265625 C113.18082458 54.11546249 113.53352417 53.50826874 113.89691162 52.88267517 C115.02052273 50.94596845 116.13563282 49.00453764 117.25 47.0625 C118.34725587 45.16112413 119.44633939 43.26082829 120.54699707 41.36141968 C121.27465502 40.10470916 122.00017018 38.84675542 122.72351074 37.58755493 C124.53768711 34.44515325 126.39655926 31.34865892 128.36523438 28.30029297 C128.74210388 27.71187119 129.11897339 27.1234494 129.50726318 26.51719666 C130.54629717 24.90638325 131.60031986 23.30526655 132.65527344 21.70483398 C134.22064025 19.15606098 134.22064025 19.15606098 133.77441406 16.69946289 C133.12236134 15.00561402 133.12236134 15.00561402 132 14 C129.35261911 13.90488734 126.73140999 13.87444365 124.08374023 13.88647461 C123.25454071 13.88632858 122.42534119 13.88618256 121.5710144 13.8860321 C118.81684802 13.88673149 116.06274839 13.89452507 113.30859375 13.90234375 C111.40430234 13.90420784 109.50001045 13.90563178 107.59571838 13.90663147 C102.57332037 13.91045737 97.55095108 13.92028827 92.52856445 13.93133545 C87.4077188 13.94154802 82.28686852 13.94612876 77.16601562 13.95117188 C67.11066443 13.96191047 57.0553346 13.97898776 47 14 Z " fill="#4C3AE0" transform="translate(66,9)"/>
<path d="M0 0 C16.81171948 -0.04677534 33.62341857 -0.08201593 50.43518829 -0.10362434 C58.24164509 -0.11392535 66.04806139 -0.12796317 73.85449219 -0.15087891 C80.66066437 -0.17084882 87.46680721 -0.18372498 94.27300787 -0.18817699 C97.87493873 -0.19077828 101.47678568 -0.19686784 105.07868958 -0.21146011 C109.10523154 -0.22763954 113.13162874 -0.22797738 117.15820312 -0.22705078 C118.93845383 -0.23783661 118.93845383 -0.23783661 120.75466919 -0.24884033 C135.44959296 -0.2122728 135.44959296 -0.2122728 141.3125 4.25 C145.2241105 8.25257819 147.12616918 11.66221301 147.5 17.25 C147.18968707 26.02742274 141.18485917 34.35373328 135.4765625 40.69140625 C134 42 134 42 132 42 C131.67 42.66 131.34 43.32 131 44 C128 43 128 43 126 42 C126 43.32 126 44.64 126 46 C125.34 46 124.68 46 124 46 C123 43 123 43 123.6875 41.0625 C125 39 125 39 127.0625 37 C129.14170594 34.8537229 129.73325974 33.93414286 130 31 C129.773125 30.236875 129.54625 29.47375 129.3125 28.6875 C128.95149566 25.58286272 129.39637013 24.99892928 131 22.4375 C133.50634063 19.04907371 133.50634063 19.04907371 132 15 C103.95 14.67 75.9 14.34 47 14 C49.64 19.94 52.28 25.88 55 32 C54.505 32.99 54.505 32.99 54 34 C52.677356 31.46317484 51.36682639 28.92122349 50.0625 26.375 C49.50272461 25.30572266 49.50272461 25.30572266 48.93164062 24.21484375 C46.85216012 20.13081898 45.46005679 16.6297779 45 12 C48.01087383 10.49456309 51.09007112 10.91916498 54.38720703 10.97827148 C55.52881287 10.9926828 55.52881287 10.9926828 56.69348145 11.00738525 C59.21501768 11.04042852 61.73638352 11.08074046 64.2578125 11.12109375 C66.00372716 11.14538967 67.74964817 11.16923349 69.49557495 11.19264221 C74.09551205 11.25553575 78.6953371 11.32458744 83.29516602 11.39489746 C87.98708993 11.46553336 92.67909341 11.53037869 97.37109375 11.59570312 C106.58081661 11.72478337 115.79043153 11.86036574 125 12 C125.33 11.01 125.66 10.02 126 9 C127.65 9.66 129.3 10.32 131 11 C130.67 10.67 130.34 10.34 130 10 C128.99357052 8.67151309 127.99307821 7.33849671 127 6 C127.99 5.34 128.98 4.68 130 4 C130 4.66 130 5.32 130 6 C130.66 6 131.32 6 132 6 C131.67 5.01 131.34 4.02 131 3 C129.17980095 2.9845388 129.17980095 2.9845388 127.3228302 2.96876526 C115.75021937 2.86997059 104.17764985 2.76716119 92.60510731 2.66066074 C86.65903511 2.60606245 80.71295784 2.55276156 74.7668457 2.50268555 C23.539773 2.06947948 23.539773 2.06947948 0 1 C0 0.67 0 0.34 0 0 Z " fill="#6352EF" transform="translate(66,9)"/>
<path d="M0 0 C0.495 1.485 0.495 1.485 1 3 C1.66 3.33 2.32 3.66 3 4 C0.375 10.75 0.375 10.75 -3 13 C-3.73343428 16.06556598 -3.73343428 16.06556598 -4 19 C-3.34 17.68 -2.68 16.36 -2 15 C-1.236875 15.185625 -0.47375 15.37125 0.3125 15.5625 C3.08967375 16.22819173 3.08967375 16.22819173 6 15 C6.33 14.01 6.66 13.02 7 12 C7.66 12.33 8.32 12.66 9 13 C5 19.66666667 1 26.33333333 -3 33 C-3.49330811 33.92530518 -3.98661621 34.85061035 -4.49487305 35.80395508 C-4.99156494 36.5286499 -5.48825684 37.25334473 -6 38 C-6.99 38 -7.98 38 -9 38 C-9.2475 38.7425 -9.495 39.485 -9.75 40.25 C-11.12389704 43.27257349 -12.40563834 44.93977162 -15 47 C-16.32 47 -17.64 47 -19 47 C-19 47.66 -19 48.32 -19 49 C-23.66305038 49.07405887 -28.32575984 49.12855763 -32.98925781 49.16479492 C-34.57623251 49.17989814 -36.16316537 49.20038223 -37.75 49.22631836 C-40.02875073 49.26263595 -42.30695058 49.27971023 -44.5859375 49.29296875 C-45.29744965 49.30845261 -46.00896179 49.32393646 -46.74203491 49.33988953 C-48.74365234 49.34057617 -48.74365234 49.34057617 -52 49 C-52.66 48.01 -53.32 47.02 -54 46 C-53.34 45.34 -52.68 44.68 -52 44 C-52.3185177 41.89179203 -52.3185177 41.89179203 -53 40 C-50.16345335 38.58172668 -47.83765101 38.97977428 -44.671875 39.0703125 C-42.71078316 39.08220992 -40.74968748 39.09397782 -38.78857422 39.1015625 C-37.43635985 39.11710892 -36.08422586 39.15046413 -34.73291016 39.20214844 C-30.29528977 39.36075127 -26.2726305 39.26178086 -22 38 C-18.90617021 34.81124152 -17.65675953 31.07086045 -16 27 C-14.6705088 24.64323561 -13.32092628 22.32801794 -11.9140625 20.01953125 C-11.20337458 18.82549561 -10.49374317 17.63083053 -9.78515625 16.43554688 C-9.06514792 15.2278385 -8.34509533 14.02015651 -7.625 12.8125 C-6.88132864 11.56195704 -6.13783801 10.31130658 -5.39453125 9.06054688 C-3.59842847 6.03912695 -1.79991069 3.01915343 0 0 Z " fill="#4E38F8" transform="translate(194,36)"/>
<path d="M0 0 C0.66 0.66 1.32 1.32 2 2 C1.8885022 6.0139207 0.14411306 8.52890052 -2.2578125 11.66796875 C-7.14525235 15.40477814 -13.77730926 15.34680767 -19.671875 15.484375 C-20.47610901 15.5084845 -21.28034302 15.53259399 -22.10894775 15.55743408 C-23.79630569 15.6054405 -25.48379882 15.64889233 -27.17138672 15.68798828 C-29.75681023 15.75016378 -32.34101088 15.83319808 -34.92578125 15.91796875 C-36.57027931 15.96218967 -38.21481043 16.00520117 -39.859375 16.046875 C-40.6312616 16.07279724 -41.40314819 16.09871948 -42.19842529 16.12542725 C-46.03792065 16.19878105 -47.72113353 16.18591098 -51 14 C-50 11 -50 11 -49 10 C-49.66 9.67 -50.32 9.34 -51 9 C-49.92598892 6.08482708 -49.22189824 4.22189824 -47 2 C-46.67 2.66 -46.34 3.32 -46 4 C-44.37989014 4.029729 -44.37989014 4.029729 -42.72705078 4.06005859 C-38.72746087 4.13601623 -34.72823948 4.22474816 -30.72900391 4.31738281 C-28.99665593 4.35571341 -27.26422726 4.39055906 -25.53173828 4.421875 C-23.04430251 4.46743765 -20.55742434 4.52544503 -18.0703125 4.5859375 C-17.29317902 4.59748871 -16.51604553 4.60903992 -15.71536255 4.62094116 C-10.22774341 4.77225659 -10.22774341 4.77225659 -8 7 C-7.401875 6.360625 -6.80375 5.72125 -6.1875 5.0625 C-4 3 -4 3 -1 2 C-0.67 1.34 -0.34 0.68 0 0 Z " fill="#4D39F7" transform="translate(125,167)"/>
<path d="M0 0 C0.33 0.99 0.66 1.98 1 3 C1.66 3.33 2.32 3.66 3 4 C0.375 10.75 0.375 10.75 -3 13 C-3.73343428 16.06556598 -3.73343428 16.06556598 -4 19 C-3.34 17.68 -2.68 16.36 -2 15 C-1.236875 15.185625 -0.47375 15.37125 0.3125 15.5625 C3.08967375 16.22819173 3.08967375 16.22819173 6 15 C6.33 14.01 6.66 13.02 7 12 C7.66 12.33 8.32 12.66 9 13 C7.08949576 16.23284995 5.17051478 19.46058854 3.25 22.6875 C2.71117187 23.59951172 2.17234375 24.51152344 1.6171875 25.45117188 C-1.01866187 29.87104125 -3.61544088 34.09789907 -7 38 C-7.99 34.535 -7.99 34.535 -9 31 C-15.89259235 32.34773523 -15.89259235 32.34773523 -21 37 C-19.38792518 32.50057052 -17.09922636 28.58843973 -14.6484375 24.51171875 C-14.22954254 23.80852005 -13.81064758 23.10532135 -13.37905884 22.3808136 C-12.04773769 20.14768031 -10.71145186 17.91756573 -9.375 15.6875 C-8.46842006 14.1688167 -7.56216644 12.64993855 -6.65625 11.13085938 C-4.4412725 7.4183059 -2.22183931 3.70845064 0 0 Z " fill="#4B37EB" transform="translate(194,36)"/>
<path d="M0 0 C0.66 0 1.32 0 2 0 C2 0.66 2 1.32 2 2 C1.01 2.66 0.02 3.32 -1 4 C-2.20450304 6.55183404 -2.20450304 6.55183404 -3 9 C-3.66 9 -4.32 9 -5 9 C-6.50930183 12.3863251 -6.50930183 12.3863251 -7 16 C-6.34 16.33 -5.68 16.66 -5 17 C-5.375 18.9375 -5.375 18.9375 -6 21 C-6.66 21.33 -7.32 21.66 -8 22 C-7.67 22.99 -7.34 23.98 -7 25 C-6.34 25 -5.68 25 -5 25 C-5 24.01 -5 23.02 -5 22 C-4.34 22 -3.68 22 -3 22 C-3 22.66 -3 23.32 -3 24 C-2.34 24 -1.68 24 -1 24 C-0.7525 23.2575 -0.505 22.515 -0.25 21.75 C1.09147301 18.79875938 2.60905526 17.15185026 5 15 C3.55287861 18.93376885 1.69186875 22.37360673 -0.4765625 25.95703125 C-1.146875 27.06884766 -1.8171875 28.18066406 -2.5078125 29.32617188 C-3.21346122 30.4883301 -3.9191914 31.65043887 -4.625 32.8125 C-5.33888165 33.99393526 -6.05242679 35.17557392 -6.765625 36.35742188 C-8.50711795 39.24029871 -10.25201382 42.12105724 -12 45 C-12.33 44.34 -12.66 43.68 -13 43 C-11.75717988 40.54961707 -10.47117661 38.226675 -9.0625 35.875 C-8.67642578 35.21628906 -8.29035156 34.55757812 -7.89257812 33.87890625 C-6.93553422 32.248387 -5.96867185 30.62363816 -5 29 C-5.66 28.67 -6.32 28.34 -7 28 C-7 28.66 -7 29.32 -7 30 C-8.670625 30.12375 -8.670625 30.12375 -10.375 30.25 C-14.05753944 30.57873787 -14.05753944 30.57873787 -15.4375 33.0625 C-15.623125 33.701875 -15.80875 34.34125 -16 35 C-16.33 34.34 -16.66 33.68 -17 33 C-19.2477975 35.05233685 -20.0022242 36.00667261 -21 39 C-21.66 39 -22.32 39 -23 39 C-23.2475 39.66 -23.495 40.32 -23.75 41 C-25 44 -25 44 -26.0234375 45.76171875 C-29.15356719 51.23389583 -29.81340891 55.74882202 -29 62 C-27.7241393 66.05864076 -26.00195494 69.84408571 -24.1875 73.6875 C-23.73568359 74.68072266 -23.28386719 75.67394531 -22.81835938 76.69726562 C-21.23042136 80.18609294 -19.64254027 83.67375053 -17.97119141 87.12353516 C-16.34809978 90.59235079 -15.85544514 92.36322967 -17 96 C-18.81568983 91.81948674 -20.63043923 87.63856698 -22.44433594 83.45727539 C-23.06094238 82.03626604 -23.67780118 80.61536617 -24.29492188 79.19458008 C-25.18426556 77.14693795 -26.07268716 75.09889786 -26.9609375 73.05078125 C-27.23497406 72.4203743 -27.50901062 71.78996735 -27.79135132 71.14045715 C-33.70299618 57.49885999 -33.70299618 57.49885999 -31.0078125 50.37890625 C-27.53559111 43.15001596 -23.2385797 36.41398367 -18.9375 29.66015625 C-14.72510911 23.02534644 -10.69546335 16.27706884 -6.64648438 9.54174805 C-6.07220703 8.59211182 -5.49792969 7.64247559 -4.90625 6.6640625 C-4.13764648 5.38716553 -4.13764648 5.38716553 -3.35351562 4.08447266 C-2 2 -2 2 0 0 Z " fill="#4837D9" transform="translate(53,13)"/>
<path d="M0 0 C1.46925502 0.01496062 2.93845769 0.0356406 4.40757751 0.06056213 C5.60748573 0.07497345 5.60748573 0.07497345 6.83163452 0.0896759 C9.48846415 0.12278415 12.14513533 0.16307106 14.80186462 0.2033844 C16.6388899 0.22767398 18.47592112 0.2515181 20.31295776 0.27493286 C25.15785975 0.33788951 30.00265712 0.40692312 34.84745789 0.47718811 C39.78728962 0.54776725 44.72719577 0.61264647 49.667099 0.67799377 C59.36705057 0.80715528 69.06690122 0.94273159 78.76670837 1.08229065 C78.76670837 1.74229065 78.76670837 2.40229065 78.76670837 3.08229065 C52.03670837 3.08229065 25.30670837 3.08229065 -2.23329163 3.08229065 C0.40670837 9.02229065 3.04670837 14.96229065 5.76670837 21.08229065 C5.43670837 21.74229065 5.10670837 22.40229065 4.76670837 23.08229065 C3.44406438 20.54546549 2.13353477 18.00351414 0.82920837 15.45729065 C0.45602478 14.74443909 0.08284119 14.03158752 -0.301651 13.2971344 C-2.36730034 9.24027354 -3.89921179 5.70254363 -4.23329163 1.08229065 C-3.23329163 0.08229065 -3.23329163 0.08229065 0 0 Z " fill="#4B3FC8" transform="translate(115.23329162597656,19.917709350585938)"/>
<path d="M0 0 C1.52430636 2.84667469 2.52343464 5.57678183 3.375 8.6875 C4.62921622 13.03544957 6.25893785 17.02125377 8.23046875 21.08984375 C9 23 9 23 9 26 C9.66 26 10.32 26 11 26 C11.30292969 26.83402344 11.60585938 27.66804688 11.91796875 28.52734375 C15.5433283 38.72221083 15.5433283 38.72221083 21 48 C22.485 48.495 22.485 48.495 24 49 C24 49.66 24 50.32 24 51 C30.24322616 50.97168605 33.92112959 49.98109839 38.4453125 45.61328125 C38.95835938 45.08089844 39.47140625 44.54851562 40 44 C41.299375 42.7315625 41.299375 42.7315625 42.625 41.4375 C43.40875 40.633125 44.1925 39.82875 45 39 C45.9075 38.13375 46.815 37.2675 47.75 36.375 C50.19004674 34.13466888 50.19004674 34.13466888 51 31 C51.99 31 52.98 31 54 31 C53.505 29.515 53.505 29.515 53 28 C53.7425 27.5875 54.485 27.175 55.25 26.75 C57.90171685 25.06254382 59.86674014 23.29127911 62 21 C62.66 21.33 63.32 21.66 64 22 C63.57589844 22.4125 63.15179688 22.825 62.71484375 23.25 C59.65980884 26.25803437 56.70841862 29.28970581 53.9375 32.5625 C50.39985663 36.64811547 46.66165556 40.52164516 42.875 44.375 C41.97769165 45.30421265 41.97769165 45.30421265 41.06225586 46.25219727 C37.94571445 49.39298181 35.41379721 51.89096832 31 53 C25.41890883 52.91141125 22.86053789 52.31016524 18.51234436 48.59577942 C15.8045167 45.73856266 14.45796454 42.33517236 12.94921875 38.7421875 C12.60494339 37.95731964 12.26066803 37.17245178 11.90596008 36.36380005 C10.81808441 33.87376284 9.75274333 31.37479029 8.6875 28.875 C7.95390872 27.18817739 7.21889609 25.50197216 6.48242188 23.81640625 C-0.14093711 8.59716382 -0.14093711 8.59716382 0 0 Z " fill="#4535CD" transform="translate(12,162)"/>
<path d="M0 0 C0.66 0 1.32 0 2 0 C0.65157445 5.56225539 -3.56689879 8.73442841 -8 12 C-11.5062443 13.1687481 -14.6477866 13.12514267 -18.29296875 13.09765625 C-19.35201164 13.09553383 -19.35201164 13.09553383 -20.43244934 13.09336853 C-22.68417626 13.08777764 -24.93580321 13.07522688 -27.1875 13.0625 C-28.71549335 13.05748382 -30.24348827 13.05292112 -31.77148438 13.04882812 C-35.51436135 13.0378112 -39.25716373 13.02055287 -43 13 C-43 12.34 -43 11.68 -43 11 C-32.11 11 -21.22 11 -10 11 C-10 10.34 -10 9.68 -10 9 C-9.2575 8.773125 -8.515 8.54625 -7.75 8.3125 C-3.90853437 6.47907322 -1.88511588 3.77023176 0 0 Z " fill="#4738CC" transform="translate(185,74)"/>
<path d="M0 0 C0.66 0.33 1.32 0.66 2 1 C0.576875 2.3303125 0.576875 2.3303125 -0.875 3.6875 C-3.43086544 6.2676492 -5.32255808 8.32245817 -6 12 C-4.6083124 14.13344768 -4.6083124 14.13344768 -3 16 C-3.33 16.99 -3.66 17.98 -4 19 C-5.175625 18.690625 -5.175625 18.690625 -6.375 18.375 C-7.674375 18.189375 -7.674375 18.189375 -9 18 C-9.66 18.66 -10.32 19.32 -11 20 C-11.66 19.01 -12.32 18.02 -13 17 C-14.98 17.99 -14.98 17.99 -17 19 C-17 18.34 -17 17.68 -17 17 C-15.71484375 15.7734375 -15.71484375 15.7734375 -13.9375 14.375 C-10.42821964 11.4778862 -7.50940426 8.30436439 -4.578125 4.83203125 C-3.11895215 3.13809049 -1.60177682 1.55835516 0 0 Z " fill="#4836E4" transform="translate(57,184)"/>
<path d="M0 0 C0.66 0.33 1.32 0.66 2 1 C1.6918335 1.4940332 1.38366699 1.98806641 1.06616211 2.49707031 C-0.32308071 4.74028035 -1.69286136 6.99477172 -3.0625 9.25 C-3.54783203 10.02730469 -4.03316406 10.80460938 -4.53320312 11.60546875 C-4.98759766 12.35957031 -5.44199219 13.11367187 -5.91015625 13.890625 C-6.33433838 14.58188477 -6.75852051 15.27314453 -7.19555664 15.98535156 C-8.34251655 18.28743132 -8.34251655 18.28743132 -7 22 C4.88 22.33 16.76 22.66 29 23 C28.34 20.69 27.68 18.38 27 16 C28.5 17.1875 28.5 17.1875 30 19 C30.09375 21.61328125 30.09375 21.61328125 30 24 C24.64317867 24.0741205 19.28665538 24.12858776 13.92944336 24.16479492 C12.10679933 24.1798876 10.28419164 24.20036395 8.46166992 24.22631836 C5.842845 24.26268103 3.22449993 24.27972124 0.60546875 24.29296875 C-0.61811089 24.31619453 -0.61811089 24.31619453 -1.8664093 24.33988953 C-7.60944422 24.34160054 -7.60944422 24.34160054 -9.73930359 22.47871399 C-10.1553334 21.99073837 -10.57136322 21.50276276 -11 21 C-9.53171057 15.82064939 -7.18508737 11.65626588 -4.375 7.125 C-3.95476563 6.43664062 -3.53453125 5.74828125 -3.1015625 5.0390625 C-2.07307528 3.35608342 -1.037279 1.67757468 0 0 Z " fill="#4C3CD1" transform="translate(34,147)"/>
<path d="M0 0 C-2.66178221 1.3308911 -4.68739396 1.11268993 -7.6640625 1.09765625 C-8.78554688 1.09443359 -9.90703125 1.09121094 -11.0625 1.08789062 C-12.238125 1.07951172 -13.41375 1.07113281 -14.625 1.0625 C-15.80835938 1.05798828 -16.99171875 1.05347656 -18.2109375 1.04882812 C-21.14067507 1.03701467 -24.07031272 1.02054258 -27 1 C-26.67 2.32 -26.34 3.64 -26 5 C-26.99 4.67 -27.98 4.34 -29 4 C-29 2.68 -29 1.36 -29 0 C-24.74013264 -2.12993368 -19.18966288 -1.49317695 -14.5 -1.6875 C-13.33339844 -1.74744141 -12.16679688 -1.80738281 -10.96484375 -1.86914062 C-9.85238281 -1.91619141 -8.73992188 -1.96324219 -7.59375 -2.01171875 C-6.56958984 -2.05772217 -5.54542969 -2.10372559 -4.49023438 -2.15112305 C-2 -2 -2 -2 0 0 Z " fill="#4839CD" transform="translate(60,182)"/>
<path d="M0 0 C3.42931954 3.7559214 4.56429083 8.23466745 6 13 C5.34 13 4.68 13 4 13 C3.34 11.35 2.68 9.7 2 8 C0.02 10.97 0.02 10.97 -2 14 C-2.99 13.01 -3.98 12.02 -5 11 C-4 8 -4 8 -2.5 6.625 C-0.56690264 4.53081119 -0.37547204 2.77849308 0 0 Z " fill="#4A38E5" transform="translate(121,43)"/>
<path d="M0 0 C1.50514538 0.0633626 3.0103547 0.1252249 4.515625 0.18554688 C8.17798279 0.33555361 11.83905613 0.50591566 15.5 0.6875 C15.5 1.0175 15.5 1.3475 15.5 1.6875 C14.4805127 1.70731934 13.46102539 1.72713867 12.41064453 1.74755859 C8.63467352 1.82352808 4.85909227 1.91225809 1.08349609 2.00488281 C-0.5518424 2.04320852 -2.18726624 2.07805507 -3.82275391 2.109375 C-6.1712091 2.15494842 -8.51907495 2.21295367 -10.8671875 2.2734375 C-11.96726639 2.29076431 -11.96726639 2.29076431 -13.08956909 2.30844116 C-17.24977105 2.30618097 -17.24977105 2.30618097 -20.5 4.6875 C-21.82 4.0275 -23.14 3.3675 -24.5 2.6875 C-16.59308009 -1.35959453 -8.59955463 -0.431299 0 0 Z " fill="#4635D9" transform="translate(79.5,9.3125)"/>
<path d="M0 0 C0 1.98 0 3.96 0 6 C-1.32 6.33 -2.64 6.66 -4 7 C-3.649375 7.763125 -3.29875 8.52625 -2.9375 9.3125 C-2 12 -2 12 -3 15 C-2.34 15 -1.68 15 -1 15 C-1 16.65 -1 18.3 -1 20 C-1.66 20.33 -2.32 20.66 -3 21 C-3.13664062 20.27683594 -3.27328125 19.55367187 -3.4140625 18.80859375 C-3.95479872 16.04090485 -3.95479872 16.04090485 -4.7109375 13.53515625 C-6.47079485 6.98227566 -6.47079485 6.98227566 -5.05078125 4.01953125 C-1.71867577 0 -1.71867577 0 0 0 Z " fill="#4936E7" transform="translate(42,97)"/>
<path d="M0 0 C0.66 1.32 1.32 2.64 2 4 C1.38125 4.04125 0.7625 4.0825 0.125 4.125 C-0.57625 4.41375 -1.2775 4.7025 -2 5 C-2.69643985 6.98982813 -3.354876 8.99294757 -4 11 C-5.47444493 13.34773876 -7.04410051 15.59935768 -8.66015625 17.8515625 C-9.96585575 19.94524974 -10.5584282 21.59043536 -11 24 C-11.66 24 -12.32 24 -13 24 C-12.43047883 20.18450324 -11.36587116 17.58719011 -9.27734375 14.35546875 C-8.73916016 13.51435547 -8.20097656 12.67324219 -7.64648438 11.80664062 C-7.08251953 10.94232422 -6.51855469 10.07800781 -5.9375 9.1875 C-5.36966797 8.30384766 -4.80183594 7.42019531 -4.21679688 6.50976562 C-2.81806956 4.33527359 -1.41233662 2.1656675 0 0 Z " fill="#4737CD" transform="translate(26,138)"/>
<path d="M0 0 C0.33 0.99 0.66 1.98 1 3 C1.66 3.33 2.32 3.66 3 4 C2.875 5.8125 2.875 5.8125 2 8 C0.03533587 9.06775224 -1.96855359 10.06553465 -4 11 C-5.81554159 12.56102491 -5.81554159 12.56102491 -7 14 C-5.23570801 9.02790438 -2.6060834 4.56561939 0 0 Z " fill="#4735DF" transform="translate(194,36)"/>
<path d="M0 0 C0.66 0 1.32 0 2 0 C3.37283042 3.07535458 4.71989793 6.16134281 6.0625 9.25 C6.45244141 10.12269531 6.84238281 10.99539062 7.24414062 11.89453125 C7.60830078 12.73886719 7.97246094 13.58320313 8.34765625 14.453125 C8.68804932 15.22817383 9.02844238 16.00322266 9.37915039 16.80175781 C10.0817996 19.28962782 9.84697413 20.59104242 9 23 C7.49414477 19.54418685 5.99631711 16.08495247 4.5 12.625 C4.07074219 11.64015625 3.64148437 10.6553125 3.19921875 9.640625 C2.79316406 8.69960937 2.38710938 7.75859375 1.96875 6.7890625 C1.59169922 5.91975098 1.21464844 5.05043945 0.82617188 4.15478516 C0 2 0 2 0 0 Z " fill="#4837D1" transform="translate(51,140)"/>
<path d="M0 0 C0.66 0.33 1.32 0.66 2 1 C-4.46021452 11.38962335 -4.46021452 11.38962335 -9 14 C-12.3125 14.25 -12.3125 14.25 -15 14 C-15 13.67 -15 13.34 -15 13 C-13.948125 12.79375 -12.89625 12.5875 -11.8125 12.375 C-7.30199061 11.09412512 -5.60540461 8.83147736 -3 5 C-2.30420546 2.80869466 -2.30420546 2.80869466 -2 1 C-1.34 0.67 -0.68 0.34 0 0 Z " fill="#4837CC" transform="translate(129,168)"/>
<path d="M0 0 C2.48794878 3.31726504 3.52821942 4.99613909 4.6875 8.75 C5.06455078 9.94882813 5.06455078 9.94882813 5.44921875 11.171875 C5.63097656 11.77515625 5.81273437 12.3784375 6 13 C5.01 12.67 4.02 12.34 3 12 C3 11.34 3 10.68 3 10 C2.01 10 1.02 10 0 10 C0 6.7 0 3.4 0 0 Z " fill="#4C39D8" transform="translate(34,188)"/>
<path d="M0 0 C0.66 0.33 1.32 0.66 2 1 C1.31164062 1.67095703 1.31164062 1.67095703 0.609375 2.35546875 C-2.203984 5.12745483 -4.86537844 7.82899424 -7.3125 10.9375 C-8.1478125 11.9584375 -8.1478125 11.9584375 -9 13 C-9.66 13 -10.32 13 -11 13 C-11 12.01 -11 11.02 -11 10 C-10.01 10 -9.02 10 -8 10 C-8.33 9.01 -8.66 8.02 -9 7 C-8.2575 6.5875 -7.515 6.175 -6.75 5.75 C-4.09828315 4.06254382 -2.13325986 2.29127911 0 0 Z " fill="#4637D6" transform="translate(74,183)"/>
<path d="M0 0 C0.33 0.99 0.66 1.98 1 3 C-0.39949349 5.50973885 -1.82628407 7.82169398 -3.4375 10.1875 C-3.87126953 10.84169922 -4.30503906 11.49589844 -4.75195312 12.16992188 C-5.82545983 13.78608033 -6.9115597 15.39386099 -8 17 C-8.33 16.34 -8.66 15.68 -9 15 C-7.59104764 12.38211357 -6.13756909 9.88954328 -4.5625 7.375 C-3.9118457 6.31539062 -3.9118457 6.31539062 -3.24804688 5.234375 C-2.17251868 3.48516432 -1.08716275 1.74200346 0 0 Z " fill="#4536CD" transform="translate(142,124)"/>
</svg>
