<?xml version="1.0" encoding="UTF-8"?>
<svg version="1.1" xmlns="http://www.w3.org/2000/svg" width="225" height="225">
<path d="M0 0 C0.85746826 0.49314697 1.71493652 0.98629395 2.59838867 1.49438477 C3.56212402 2.0408667 4.52585937 2.58734863 5.51879883 3.15039062 C6.50799316 3.71894775 7.4971875 4.28750488 8.51635742 4.87329102 C10.41478595 5.92773823 12.31453071 6.97981916 14.21557617 8.02954102 C25.80256763 14.48966446 37.32278618 21.04998471 48.76831055 27.75756836 C55.22605702 31.54157003 61.70278683 35.28922198 68.20385742 38.99829102 C69.04722656 39.48064209 69.8905957 39.96299316 70.75952148 40.45996094 C75.2660037 43.03379916 79.78436428 45.58430325 84.31713867 48.11157227 C85.27080322 48.6470166 86.22446777 49.18246094 87.20703125 49.73413086 C89.0272357 50.75567256 90.85109066 51.77074763 92.67919922 52.77807617 C103.51889792 58.88091251 103.51889792 58.88091251 105.51635742 64.87329102 C105.78979492 67.36157227 105.78979492 67.36157227 105.89135742 70.18579102 C105.9403418 71.11004883 105.98932617 72.03430664 106.03979492 72.98657227 C105.32768471 76.91380693 103.38287105 79.24503427 100.51635742 81.87329102 C97.38745117 83.96313477 97.38745117 83.96313477 93.95385742 85.81079102 C92.72042053 86.48590771 91.4873549 87.16170308 90.25463867 87.83813477 C89.63540527 88.17312988 89.01617187 88.508125 88.37817383 88.85327148 C85.4307858 90.46803508 82.53941991 92.17158173 79.64135742 93.87329102 C78.65393555 94.45079102 77.66651367 95.02829102 76.64916992 95.62329102 C75.9453418 96.03579102 75.24151367 96.44829102 74.51635742 96.87329102 C79.77366241 101.53914919 86.00117112 104.44484761 92.21166992 107.63110352 C98.14840309 110.78554681 102.43168579 113.70394774 105.51635742 119.87329102 C105.75463867 122.04516602 105.75463867 122.04516602 105.82885742 124.62329102 C105.88493164 125.88399414 105.88493164 125.88399414 105.94213867 127.17016602 C105.34639041 130.95234763 103.94553829 132.9207818 101.51635742 135.87329102 C99.12384044 137.56280724 96.87900654 138.97741992 94.32885742 140.37329102 C93.59546143 140.78998047 92.86206543 141.20666992 92.10644531 141.63598633 C89.58456674 143.063455 87.05113886 144.46887262 84.51635742 145.87329102 C82.57058332 146.96100736 80.62529036 148.04958472 78.68041992 149.13891602 C75.53676802 150.89881197 72.39248467 152.65750115 69.24560547 154.41162109 C58.84494679 160.21796998 48.56401007 166.22144652 38.28979492 172.24780273 C31.81224543 176.04423975 25.32014364 179.81436873 18.80737305 183.55004883 C16.41488436 184.93189971 14.03621692 186.3359504 11.65698242 187.74047852 C10.06887478 188.66049895 8.48034764 189.57979573 6.89135742 190.49829102 C5.82618896 191.13782715 5.82618896 191.13782715 4.73950195 191.7902832 C-0.16429123 194.59014252 -4.75874691 196.3299128 -10.48364258 195.87329102 C-13.40840581 194.92613705 -15.87202279 193.47727797 -18.48364258 191.87329102 C-19.98124713 191.03020006 -21.48000011 190.18914669 -22.97973633 189.34985352 C-24.62793608 188.40117943 -26.27501422 187.45055483 -27.92114258 186.49829102 C-35.84688537 181.93839083 -43.80780676 177.44753803 -51.79614258 172.99829102 C-61.07231688 167.82497139 -70.27193444 162.53507077 -79.42163086 157.14135742 C-84.69583617 154.043034 -90.00041191 151.02178796 -95.37036133 148.09204102 C-96.50666992 147.46942383 -97.64297852 146.84680664 -98.8137207 146.20532227 C-100.99537868 145.0148655 -103.18262499 143.83457339 -105.3762207 142.66625977 C-111.57417857 139.27820452 -116.24417682 136.35222254 -119.48364258 129.87329102 C-120.00337498 125.13605798 -120.00963931 121.09264707 -118.10864258 116.68579102 C-110.63615218 108.6795513 -100.2640748 103.58012402 -90.48364258 98.87329102 C-89.82364258 98.87329102 -89.16364258 98.87329102 -88.48364258 98.87329102 C-89.7385622 95.10853215 -90.73749841 94.91683881 -94.18286133 93.13110352 C-95.14514648 92.62192383 -96.10743164 92.11274414 -97.09887695 91.58813477 C-98.11272461 91.06348633 -99.12657227 90.53883789 -100.17114258 89.99829102 C-117.49070975 80.99615695 -117.49070975 80.99615695 -119.48364258 74.87329102 C-120.16160793 70.09600028 -120.00496183 66.05192585 -118.04614258 61.62329102 C-111.44715023 54.54144557 -102.01599589 50.21466569 -93.67114258 45.49829102 C-92.43737793 44.79755861 -91.20382106 44.09646026 -89.97045898 43.39501953 C-87.41398504 41.94150654 -84.85663707 40.48955033 -82.29858398 39.03881836 C-76.31143017 35.6420498 -70.33502348 32.22646593 -64.35864258 28.81079102 C-63.21306885 28.15626953 -62.06749512 27.50174805 -60.88720703 26.82739258 C-52.70278867 22.14860555 -44.52688838 17.45524705 -36.35864258 12.74829102 C-35.31047363 12.1449292 -34.26230469 11.54156738 -33.18237305 10.91992188 C-27.59354347 7.69524947 -22.04378673 4.42071309 -16.54663086 1.04174805 C-11.33358617 -1.91087111 -5.50059404 -2.49535452 0 0 Z M-14.01489258 33.76782227 C-15.68201294 34.69860596 -15.68201294 34.69860596 -17.3828125 35.64819336 C-18.58321462 36.32717087 -19.78348857 37.00637504 -20.98364258 37.68579102 C-22.21298454 38.37581969 -23.4425598 39.06543288 -24.67236328 39.75463867 C-33.21159564 44.54961469 -41.69971275 49.4317333 -50.15942383 54.36547852 C-55.18276074 57.29017185 -60.24877048 60.13738675 -65.32421875 62.97045898 C-67.04678232 63.93315547 -68.76536319 64.90296854 -70.48364258 65.87329102 C-71.4555957 66.40954102 -72.42754883 66.94579102 -73.42895508 67.49829102 C-74.44602539 68.17891602 -74.44602539 68.17891602 -75.48364258 68.87329102 C-75.48364258 69.53329102 -75.48364258 70.19329102 -75.48364258 70.87329102 C-74.41243164 71.43918945 -73.3412207 72.00508789 -72.23754883 72.58813477 C-70.84036278 73.32892469 -69.44323011 74.06981531 -68.04614258 74.81079102 C-67.3390918 75.18397461 -66.63204102 75.5571582 -65.90356445 75.94165039 C-60.59692383 78.76000977 -60.59692383 78.76000977 -59.48364258 79.87329102 C-55.0583369 80.38390321 -52.87601862 79.17993312 -49.23364258 76.74829102 C-42.50257091 72.38999145 -35.54720521 68.4672103 -28.54614258 64.56079102 C-27.45591797 63.95025879 -26.36569336 63.33972656 -25.24243164 62.71069336 C-10.01380097 54.21662704 -10.01380097 54.21662704 -3.48364258 54.87329102 C-0.58129883 55.91235352 -0.58129883 55.91235352 2.45385742 57.49829102 C3.30765991 57.94168823 3.30765991 57.94168823 4.17871094 58.39404297 C12.62918764 62.87063495 20.8407454 67.80793756 29.07495117 72.66625977 C30.4901001 73.49456299 30.4901001 73.49456299 31.93383789 74.33959961 C33.51045038 75.2759089 35.0755487 76.23244639 36.6184082 77.22338867 C39.15380625 78.81939538 40.95997873 79.87241483 43.99682617 79.87719727 C47.47138835 78.49275931 50.62057461 76.72386593 53.82885742 74.81079102 C54.79662109 74.24521484 54.79662109 74.24521484 55.78393555 73.66821289 C57.36513894 72.74291609 58.94127202 71.80896421 60.51635742 70.87329102 C59.25963604 67.10312686 58.22073411 66.86617699 54.79370117 65.01000977 C53.79201904 64.45982178 52.79033691 63.90963379 51.75830078 63.34277344 C50.12260132 62.46069214 50.12260132 62.46069214 48.45385742 61.56079102 C46.16112902 60.3023067 43.86948927 59.04183734 41.57885742 57.77954102 C40.99212753 57.45725021 40.40539764 57.13495941 39.80088806 56.80290222 C33.79048874 53.49364161 27.8688723 50.0372681 21.95385742 46.56079102 C11.59967799 40.4936236 11.59967799 40.4936236 1.20385742 34.49829102 C0.2350061 33.93501099 0.2350061 33.93501099 -0.75341797 33.36035156 C-6.34542763 30.18758556 -8.53095761 30.68866209 -14.01489258 33.76782227 Z M-12.71411133 88.06079102 C-13.51655273 88.51196289 -14.31899414 88.96313477 -15.14575195 89.42797852 C-15.97913086 89.90493164 -16.81250977 90.38188477 -17.67114258 90.87329102 C-18.93861328 91.5887207 -18.93861328 91.5887207 -20.23168945 92.31860352 C-22.3189609 93.49785292 -24.4027024 94.68291599 -26.48364258 95.87329102 C-24.94544462 100.48788488 -21.29939092 101.74432422 -17.23364258 104.12329102 C-16.46922852 104.59508789 -15.70481445 105.06688477 -14.91723633 105.55297852 C-10.71185467 108.08077628 -10.71185467 108.08077628 -5.98754883 108.98657227 C-2.03122691 107.22752118 1.63488825 105.06185186 5.32885742 102.81079102 C6.11711914 102.33834961 6.90538086 101.8659082 7.7175293 101.37915039 C9.6544835 100.21697787 11.58714037 99.04824684 13.51635742 97.87329102 C10.30575012 94.43732378 6.58967201 92.45800476 2.51635742 90.18579102 C1.7919043 89.77006836 1.06745117 89.3543457 0.32104492 88.92602539 C-0.37762695 88.53350586 -1.07629883 88.14098633 -1.79614258 87.73657227 C-2.43165039 87.37861572 -3.0671582 87.02065918 -3.72192383 86.65185547 C-7.34989654 85.04852884 -9.50636725 86.24079438 -12.71411133 88.06079102 Z M-67.79614258 119.37329102 C-68.53670898 119.80254883 -69.27727539 120.23180664 -70.0402832 120.67407227 C-71.86034294 121.73088114 -73.67277177 122.80081289 -75.48364258 123.87329102 C-72.81495981 126.73109903 -70.33186891 128.71518441 -66.87817383 130.53735352 C-65.98606201 131.01430664 -65.0939502 131.49125977 -64.17480469 131.98266602 C-63.22484619 132.48282227 -62.2748877 132.98297852 -61.29614258 133.49829102 C-54.43185554 137.17508721 -47.61128181 140.88736449 -40.92114258 144.87329102 C-33.44982219 149.32308803 -25.91154705 153.64746748 -18.34863281 157.93969727 C-17.49857666 158.4230957 -16.64852051 158.90649414 -15.77270508 159.40454102 C-14.63889404 160.04746094 -14.63889404 160.04746094 -13.48217773 160.70336914 C-11.77948738 161.70010652 -10.125259 162.77888006 -8.48364258 163.87329102 C-4.88009164 163.50381908 -1.94397691 161.6169919 1.18041992 159.88110352 C2.29416992 159.26356201 3.40791992 158.64602051 4.55541992 158.00976562 C5.75092496 157.33961745 6.94623355 156.66911872 8.14135742 155.99829102 C8.7452832 155.66137238 9.34920898 155.32445374 9.97143555 154.97732544 C18.32387295 150.31713813 26.56677357 145.50616813 34.69238281 140.45922852 C40.19072404 137.04570473 45.79969919 133.90737499 51.51635742 130.87329102 C53.24764652 129.91879732 54.97693501 128.96066264 56.70385742 127.99829102 C57.43991211 127.58836914 58.1759668 127.17844727 58.93432617 126.75610352 C59.71743164 126.31911133 59.71743164 126.31911133 60.51635742 125.87329102 C59.14521539 121.75986493 56.41019974 120.66768622 52.82885742 118.62329102 C52.2159082 118.24688477 51.60295898 117.87047852 50.97143555 117.48266602 C48.05885152 115.80244787 45.90680023 114.87329102 42.52416992 114.87329102 C38.71482187 116.13977556 35.46526297 118.01421388 32.07885742 120.12329102 C30.58919437 121.02505298 29.09823225 121.9246713 27.60620117 122.82250977 C26.80037598 123.30896973 25.99455078 123.79542969 25.16430664 124.29663086 C20.20019991 127.25239347 15.16994809 130.09160657 10.14135742 132.93579102 C9.13661377 133.5078125 8.13187012 134.07983398 7.09667969 134.66918945 C6.15493896 135.20189453 5.21319824 135.73459961 4.24291992 136.28344727 C3.40325684 136.75919189 2.56359375 137.23493652 1.69848633 137.72509766 C-2.48799663 139.92794274 -5.7958049 140.17493458 -10.48364258 139.87329102 C-13.56176758 138.72875977 -13.56176758 138.72875977 -16.73364258 137.06079102 C-17.31863525 136.7552832 -17.90362793 136.44977539 -18.50634766 136.13500977 C-30.06494991 130.01108856 -41.51331586 123.48946285 -52.25708008 116.01782227 C-58.25215871 112.9361415 -62.56173182 116.25790445 -67.79614258 119.37329102 Z " fill="#F99D02" transform="translate(119.483642578125,15.126708984375)"/>
<path d="M0 0 C2 1 2 1 3 3 C1.1875 4.0625 1.1875 4.0625 -1 5 C-1.99 4.67 -2.98 4.34 -4 4 C-4.0928125 4.928125 -4.0928125 4.928125 -4.1875 5.875 C-4.455625 6.57625 -4.72375 7.2775 -5 8 C-6.65204456 8.70211894 -8.31923769 9.36971413 -10 10 C-10.33 10.99 -10.66 11.98 -11 13 C-12.60875 13.2165625 -12.60875 13.2165625 -14.25 13.4375 C-18.20158956 13.93604202 -18.20158956 13.93604202 -22 15 C-22.33 15.99 -22.66 16.98 -23 18 C-26.74996601 22.43177801 -30.7966479 24.68883368 -36 27 C-36 27.99 -36 28.98 -36 30 C-36.94875 29.938125 -37.8975 29.87625 -38.875 29.8125 C-40.421875 29.9053125 -40.421875 29.9053125 -42 30 C-42.66 30.99 -43.32 31.98 -44 33 C-47.125 33.1875 -47.125 33.1875 -50 33 C-50.66 35.31 -51.32 37.62 -52 40 C-54.49064888 40.68707555 -56.37886292 41 -59 41 C-62.20077832 41.32007783 -63.55989865 41.51274493 -65.75 43.9375 C-67.01340045 45.95919502 -67.01340045 45.95919502 -68 48 C-71 49 -71 49 -72.921875 48.44140625 C-75.67891651 47.85579405 -76.81442478 48.59793363 -79.25 49.9375 C-79.95640625 50.31777344 -80.6628125 50.69804688 -81.390625 51.08984375 C-81.92171875 51.39019531 -82.4528125 51.69054687 -83 52 C-83 53.98 -83 55.96 -83 58 C-83.66 58 -84.32 58 -85 58 C-85.66 58.99 -86.32 59.98 -87 61 C-87.99 61 -88.98 61 -90 61 C-90 61.99 -90 62.98 -90 64 C-88.02 64.33 -86.04 64.66 -84 65 C-83.67 64.34 -83.34 63.68 -83 63 C-82.67 65.97 -82.34 68.94 -82 72 C-77.14432955 72.78989071 -77.14432955 72.78989071 -72.25 72.75 C-71.5075 72.8325 -70.765 72.915 -70 73 C-68.3125 75.4375 -68.3125 75.4375 -67 78 C-66.34 78.33 -65.68 78.66 -65 79 C-65 79.66 -65 80.32 -65 81 C-63.02 81 -61.04 81 -59 81 C-58.67 81.99 -58.34 82.98 -58 84 C-57.67 84.66 -57.34 85.32 -57 86 C-54.525 85.01 -54.525 85.01 -52 84 C-52 83.34 -52 82.68 -52 82 C-49.69 81.67 -47.38 81.34 -45 81 C-48.35583515 84.915141 -52.28066362 87.0795774 -57 89 C-57.66 89 -58.32 89 -59 89 C-59 88.34 -59 87.68 -59 87 C-59.804375 86.93296875 -60.60875 86.8659375 -61.4375 86.796875 C-66.14625602 85.74360063 -69.83430209 83.62843478 -74 81.25 C-74.78117187 80.81945312 -75.56234375 80.38890625 -76.3671875 79.9453125 C-89.12054361 72.77423347 -89.12054361 72.77423347 -91 67 C-91.67796535 62.22270926 -91.52131925 58.17863483 -89.5625 53.75 C-83.4041713 47.14106189 -74.74641935 43.02787339 -66.95611572 38.62466431 C-65.13419584 37.5948712 -63.31465532 36.56097656 -61.49560547 35.52612305 C-58.94212747 34.07395757 -56.38774879 32.62339814 -53.83251953 31.17431641 C-48.34443727 28.06158195 -42.86120201 24.94037277 -37.38095093 21.81387329 C-36.21328891 21.14798592 -35.04534175 20.4825983 -33.87710571 19.81771851 C-27.68852708 16.29503931 -21.52702347 12.7359714 -15.421875 9.0703125 C-14.39884277 8.45696045 -13.37581055 7.8436084 -12.32177734 7.21166992 C-10.40094731 6.05519338 -8.48436658 4.89162039 -6.57275391 3.7199707 C-5.73147949 3.21296631 -4.89020508 2.70596191 -4.0234375 2.18359375 C-3.29044434 1.73556396 -2.55745117 1.28753418 -1.80224609 0.82592773 C-1.20750488 0.55337158 -0.61276367 0.28081543 0 0 Z " fill="#EE7515" transform="translate(91,23)"/>
<path d="M0 0 C5.23492069 2.01752917 10.07100647 4.58548611 15 7.25 C15.88945312 7.71535156 16.77890625 8.18070313 17.6953125 8.66015625 C23.5904072 11.85406577 27.92633124 14.85266248 31 21 C31.23828125 23.171875 31.23828125 23.171875 31.3125 25.75 C31.36857422 27.01070312 31.36857422 27.01070312 31.42578125 28.296875 C30.83003299 32.07905662 29.42918086 34.04749078 27 37 C24.60748302 38.68951622 22.36264911 40.10412891 19.8125 41.5 C19.079104 41.91668945 18.34570801 42.33337891 17.59008789 42.76269531 C15.06820932 44.19016398 12.53478144 45.5955816 10 47 C8.0542259 48.08771634 6.10893294 49.1762937 4.1640625 50.265625 C1.02182629 52.02469857 -2.12101349 53.78262095 -5.26635742 55.53613281 C-16.60370367 61.86610126 -27.80812103 68.41724116 -39 75 C-40.76038535 76.03390748 -42.5208007 77.06776391 -44.28125 78.1015625 C-48.18941332 80.39780464 -52.09546351 82.69759669 -56 85 C-56.33 84.01 -56.66 83.02 -57 82 C-52.25 78 -52.25 78 -50 78 C-49.67 77.01 -49.34 76.02 -49 75 C-45.55152617 72.47996143 -42.13426005 72.84099 -38 73 C-38 72.34 -38 71.68 -38 71 C-37.34 71 -36.68 71 -36 71 C-35.01 68.03 -34.02 65.06 -33 62 C-32.16855469 62.01160156 -31.33710938 62.02320313 -30.48046875 62.03515625 C-28.85044922 62.04869141 -28.85044922 62.04869141 -27.1875 62.0625 C-25.56908203 62.07990234 -25.56908203 62.07990234 -23.91796875 62.09765625 C-20.93487831 62.13624766 -20.93487831 62.13624766 -18 61 C-17.32843384 59.06381575 -17.32843384 59.06381575 -17 57 C-16.505 56.01 -16.505 56.01 -16 55 C-16.99 54.505 -16.99 54.505 -18 54 C-17.12988281 54.08701172 -17.12988281 54.08701172 -16.2421875 54.17578125 C-11.5260253 54.54060677 -11.5260253 54.54060677 -7.2421875 52.88671875 C-6.74976563 52.42910156 -6.25734375 51.97148437 -5.75 51.5 C-3 49 -3 49 -0.125 48.6875 C0.57625 48.790625 1.2775 48.89375 2 49 C2 48.34 2 47.68 2 47 C3.98 46.505 3.98 46.505 6 46 C6 43.69 6 41.38 6 39 C7.98 39.33 9.96 39.66 12 40 C12.495 39.01 12.495 39.01 13 38 C13.99 38 14.98 38 16 38 C18.00309329 37.68578929 20.00371336 37.3548954 22 37 C22 34.69 22 32.38 22 30 C24.31 30 26.62 30 29 30 C28.505 29.01 28.505 29.01 28 28 C27.960008 26.00039988 27.95653201 23.99952758 28 22 C26.02 22 24.04 22 22 22 C22 19.69 22 17.38 22 15 C19.05248736 13.83087406 19.05248736 13.83087406 16 14.0625 C13 14 13 14 10 12 C9.67 12.66 9.34 13.32 9 14 C8.01 11.03 7.02 8.06 6 5 C5.01 5 4.02 5 3 5 C3 4.34 3 3.68 3 3 C2.01 3 1.02 3 0 3 C0 2.01 0 1.02 0 0 Z " fill="#EE7916" transform="translate(194,114)"/>
<path d="M0 0 C1.23556641 0.01740234 1.23556641 0.01740234 2.49609375 0.03515625 C3.32238281 0.04417969 4.14867188 0.05320313 5 0.0625 C5.63808594 0.07410156 6.27617188 0.08570313 6.93359375 0.09765625 C7.42859375 2.07765625 7.42859375 2.07765625 7.93359375 4.09765625 C6.85078125 3.57171875 6.85078125 3.57171875 5.74609375 3.03515625 C1.82110879 1.72682793 -0.71676618 2.45528489 -4.41210938 4.21411133 C-5.21583984 4.67712646 -6.01957031 5.1401416 -6.84765625 5.6171875 C-7.761521 6.13893555 -8.67538574 6.66068359 -9.61694336 7.19824219 C-10.59026611 7.76317383 -11.56358887 8.32810547 -12.56640625 8.91015625 C-13.58162354 9.4918457 -14.59684082 10.07353516 -15.64282227 10.67285156 C-17.75199492 11.88202108 -19.85948373 13.09413219 -21.96533203 14.30908203 C-26.63651077 17.00322905 -31.32082132 19.67427929 -36.00390625 22.34765625 C-37.72138549 23.32937228 -39.43883403 24.31114203 -41.15625 25.29296875 C-42.7929273 26.22793715 -44.42964507 27.16283471 -46.06640625 28.09765625 C-46.85289551 28.5472168 -47.63938477 28.99677734 -48.44970703 29.45996094 C-50.65330446 30.71769436 -52.85940119 31.97091436 -55.06640625 33.22265625 C-56.02728149 33.77228027 -56.02728149 33.77228027 -57.00756836 34.33300781 C-60.28513907 36.18568241 -63.53092133 37.79863338 -67.06640625 39.09765625 C-67.06640625 39.75765625 -67.06640625 40.41765625 -67.06640625 41.09765625 C-66.28265625 41.30390625 -65.49890625 41.51015625 -64.69140625 41.72265625 C-58.79130546 43.96062551 -52.62272409 46.76317949 -49.06640625 52.09765625 C-50.38640625 52.09765625 -51.70640625 52.09765625 -53.06640625 52.09765625 C-53.06640625 52.75765625 -53.06640625 53.41765625 -53.06640625 54.09765625 C-55.97189507 56.1393511 -57.46782671 57.09765625 -61.06640625 57.09765625 C-61.06640625 57.75765625 -61.06640625 58.41765625 -61.06640625 59.09765625 C-62.05640625 59.09765625 -63.04640625 59.09765625 -64.06640625 59.09765625 C-63.31640625 53.34765625 -63.31640625 53.34765625 -61.06640625 51.09765625 C-61.06640625 50.43765625 -61.06640625 49.77765625 -61.06640625 49.09765625 C-61.72640625 48.43765625 -62.38640625 47.77765625 -63.06640625 47.09765625 C-63.76389208 45.78018301 -64.43600582 44.44851432 -65.06640625 43.09765625 C-67.04640625 43.09765625 -69.02640625 43.09765625 -71.06640625 43.09765625 C-71.06640625 42.43765625 -71.06640625 41.77765625 -71.06640625 41.09765625 C-70.40640625 41.09765625 -69.74640625 41.09765625 -69.06640625 41.09765625 C-69.72640625 39.77765625 -70.38640625 38.45765625 -71.06640625 37.09765625 C-70.07640625 36.60265625 -70.07640625 36.60265625 -69.06640625 36.09765625 C-68.40640625 36.42765625 -67.74640625 36.75765625 -67.06640625 37.09765625 C-67.06640625 36.43765625 -67.06640625 35.77765625 -67.06640625 35.09765625 C-64.59140625 34.60265625 -64.59140625 34.60265625 -62.06640625 34.09765625 C-61.73640625 31.78765625 -61.40640625 29.47765625 -61.06640625 27.09765625 C-58.75640625 27.09765625 -56.44640625 27.09765625 -54.06640625 27.09765625 C-54.06640625 27.75765625 -54.06640625 28.41765625 -54.06640625 29.09765625 C-51.26577193 27.95571196 -48.59308412 26.76964393 -46.06640625 25.09765625 C-44.9382526 22.48292955 -44.9382526 22.48292955 -45.06640625 20.09765625 C-41.37222424 18.86626225 -38.86078015 19.45332861 -35.06640625 20.09765625 C-35.06640625 19.43765625 -35.06640625 18.77765625 -35.06640625 18.09765625 C-34.42703125 17.85015625 -33.78765625 17.60265625 -33.12890625 17.34765625 C-30.87899084 16.28203192 -30.87899084 16.28203192 -30.31640625 13.97265625 C-30.23390625 13.35390625 -30.15140625 12.73515625 -30.06640625 12.09765625 C-26.60140625 11.60265625 -26.60140625 11.60265625 -23.06640625 11.09765625 C-23.06640625 8.78765625 -23.06640625 6.47765625 -23.06640625 4.09765625 C-22.35613281 3.96488281 -21.64585938 3.83210938 -20.9140625 3.6953125 C-19.99496094 3.51871094 -19.07585937 3.34210937 -18.12890625 3.16015625 C-17.21238281 2.98613281 -16.29585937 2.81210937 -15.3515625 2.6328125 C-13.11350781 2.32050637 -13.11350781 2.32050637 -12.06640625 1.09765625 C-9.73805397 1.02601464 -7.42611015 1.10120805 -5.09765625 1.16015625 C-2.61370095 1.08372686 -2.49293786 0.1178137 0 0 Z " fill="#F07B13" transform="translate(111.06640625,44.90234375)"/>
<path d="M0 0 C3 1 3 1 4 2 C4.495 3.485 4.495 3.485 5 5 C6.65 5 8.3 5 10 5 C10 5.66 10 6.32 10 7 C12.31 7.33 14.62 7.66 17 8 C17 10.64 17 13.28 17 16 C15.576875 16.309375 15.576875 16.309375 14.125 16.625 C10.70833333 17.70833333 10.70833333 17.70833333 9.625 21.125 C9.41875 22.07375 9.2125 23.0225 9 24 C8.360625 23.7525 7.72125 23.505 7.0625 23.25 C2.45018362 22.87348438 -1.14078331 24.52456619 -5 27 C-6.65060634 29.56469493 -6.65060634 29.56469493 -7 32 C-7.495 31.01 -7.495 31.01 -8 30 C-11.96 31.98 -11.96 31.98 -16 34 C-16 34.66 -16 35.32 -16 36 C-16 36.66 -16 37.32 -16 38 C-16.99 38 -17.98 38 -19 38 C-19.495 38.99 -19.495 38.99 -20 40 C-21.32 40 -22.64 40 -24 40 C-24 39.34 -24 38.68 -24 38 C-28.57748509 40.8795976 -28.57748509 40.8795976 -32 45 C-35.465 44.505 -35.465 44.505 -39 44 C-39 45.32 -39 46.64 -39 48 C-39.7425 48.020625 -40.485 48.04125 -41.25 48.0625 C-44.42791249 49.14587926 -44.72751232 49.74474412 -46.3125 52.5625 C-47.1478125 54.2640625 -47.1478125 54.2640625 -48 56 C-48.99 56 -49.98 56 -51 56 C-51 55.01 -51 54.02 -51 53 C-51.78375 52.855625 -52.5675 52.71125 -53.375 52.5625 C-56 52 -56 52 -58 51 C-58 50.34 -58 49.68 -58 49 C-56.75476563 49.38091797 -56.75476563 49.38091797 -55.484375 49.76953125 C-50.64607255 50.0895535 -48.22139791 48.25523813 -44.25 45.6875 C-42.74362074 44.755492 -41.23575697 43.82587991 -39.7265625 42.8984375 C-38.95086914 42.41729492 -38.17517578 41.93615234 -37.37597656 41.44042969 C-33.52708573 39.1070495 -29.57633331 36.96614149 -25.625 34.8125 C-19.77821445 31.60183023 -14.10606068 28.23391609 -8.515625 24.58984375 C-1.62587101 20.23560482 5.68883345 16.58661001 13 13 C13 12.34 13 11.68 13 11 C12.00097656 10.44570312 11.00195312 9.89140625 9.97265625 9.3203125 C8.66911089 8.58882662 7.36573416 7.85704018 6.0625 7.125 C5.0734668 6.57779297 5.0734668 6.57779297 4.06445312 6.01953125 C-0.88671875 3.2265625 -0.88671875 3.2265625 -2 1 C-1.34 0.67 -0.68 0.34 0 0 Z " fill="#ED861D" transform="translate(166,128)"/>
<path d="M0 0 C3.63632623 1.37448867 6.97064121 3.00434858 10.359375 4.90625 C11.38426025 5.48028564 12.40914551 6.05432129 13.46508789 6.64575195 C14.54910889 7.25765381 15.63312988 7.86955566 16.75 8.5 C17.86947021 9.1293042 18.98894043 9.7586084 20.14233398 10.40698242 C27.16442821 14.36595334 34.14792907 18.3829811 41.07226562 22.51049805 C44.49124284 24.54441823 47.92839619 26.52674345 51.41796875 28.4375 C52.1442749 28.83670654 52.87058105 29.23591309 53.61889648 29.6472168 C54.98799328 30.39583623 56.36092758 31.13750297 57.73852539 31.87036133 C61.80706357 34.0976245 64.99634471 36.453785 68 40 C68.8125 43.8125 68.8125 43.8125 69 47 C68.62875 46.360625 68.2575 45.72125 67.875 45.0625 C65.41947207 42.36141928 63.55421195 42.31592995 60 42 C60.33 40.02 60.66 38.04 61 36 C54.02238162 35.13852726 54.02238162 35.13852726 47 35 C44.875 30.375 44.875 30.375 46 27 C43.03 27 40.06 27 37 27 C37.33 25.68 37.66 24.36 38 23 C37.01 23.33 36.02 23.66 35 24 C31.125 20.25 31.125 20.25 30 18 C29.01 18.33 28.02 18.66 27 19 C27 18.01 27 17.02 27 16 C25.35 16.33 23.7 16.66 22 17 C21.67 16.01 21.34 15.02 21 14 C18.99983534 12.79117904 18.99983534 12.79117904 17 12 C17 11.34 17 10.68 17 10 C12.31034294 8.88341499 9.46236469 9.19380477 5 11 C4.67 10.34 4.34 9.68 4 9 C4.66 9 5.32 9 6 9 C6 8.34 6 7.68 6 7 C5.34 6.67 4.68 6.34 4 6 C4 5.01 4 4.02 4 3 C2.68 2.67 1.36 2.34 0 2 C0 1.34 0 0.68 0 0 Z " fill="#F2C213" transform="translate(156,37)"/>
<path d="M0 0 C0.33 0 0.66 0 1 0 C1.33 2.97 1.66 5.94 2 9 C6.85567045 9.78989071 6.85567045 9.78989071 11.75 9.75 C12.4925 9.8325 13.235 9.915 14 10 C15.6875 12.4375 15.6875 12.4375 17 15 C17.66 15.33 18.32 15.66 19 16 C19 16.66 19 17.32 19 18 C20.98 18 22.96 18 25 18 C25.33 18.99 25.66 19.98 26 21 C26.495 21.99 26.495 21.99 27 23 C28.65 22.34 30.3 21.68 32 21 C32 20.34 32 19.68 32 19 C34.31 18.67 36.62 18.34 39 18 C35.64416485 21.915141 31.71933638 24.0795774 27 26 C26.34 26 25.68 26 25 26 C25 25.34 25 24.68 25 24 C24.19949219 23.93683594 23.39898438 23.87367187 22.57421875 23.80859375 C17.78579451 22.72531089 14.03699275 20.50537375 9.8125 18.0625 C9.00619141 17.60681641 8.19988281 17.15113281 7.36914062 16.68164062 C-2.4241146 11.12154643 -2.4241146 11.12154643 -4 7 C-4 5.68 -4 4.36 -4 3 C-4.66 3 -5.32 3 -6 3 C-6 2.34 -6 1.68 -6 1 C-3.03 1.495 -3.03 1.495 0 2 C0 1.34 0 0.68 0 0 Z " fill="#EF7813" transform="translate(7,86)"/>
<path d="M0 0 C1.23556641 0.01740234 1.23556641 0.01740234 2.49609375 0.03515625 C3.32238281 0.04417969 4.14867187 0.05320313 5 0.0625 C5.63808594 0.07410156 6.27617188 0.08570313 6.93359375 0.09765625 C7.42859375 2.07765625 7.42859375 2.07765625 7.93359375 4.09765625 C7.21171875 3.74703125 6.48984375 3.39640625 5.74609375 3.03515625 C1.77257396 1.71064965 -0.77029099 2.47954487 -4.50732422 4.26171875 C-5.34924316 4.74382813 -6.19116211 5.2259375 -7.05859375 5.72265625 C-8.47773071 6.52956909 -8.47773071 6.52956909 -9.92553711 7.3527832 C-11.41839233 8.21649536 -11.41839233 8.21649536 -12.94140625 9.09765625 C-13.96049072 9.6805542 -14.9795752 10.26345215 -16.02954102 10.86401367 C-24.10719407 15.50011126 -32.12037938 20.23965878 -40.06640625 25.09765625 C-40.39640625 23.77765625 -40.72640625 22.45765625 -41.06640625 21.09765625 C-39.08640625 20.76765625 -37.10640625 20.43765625 -35.06640625 20.09765625 C-35.06640625 19.43765625 -35.06640625 18.77765625 -35.06640625 18.09765625 C-34.42703125 17.85015625 -33.78765625 17.60265625 -33.12890625 17.34765625 C-30.87899084 16.28203192 -30.87899084 16.28203192 -30.31640625 13.97265625 C-30.23390625 13.35390625 -30.15140625 12.73515625 -30.06640625 12.09765625 C-26.60140625 11.60265625 -26.60140625 11.60265625 -23.06640625 11.09765625 C-23.06640625 8.78765625 -23.06640625 6.47765625 -23.06640625 4.09765625 C-22.35613281 3.96488281 -21.64585938 3.83210938 -20.9140625 3.6953125 C-19.99496094 3.51871094 -19.07585937 3.34210937 -18.12890625 3.16015625 C-17.21238281 2.98613281 -16.29585937 2.81210937 -15.3515625 2.6328125 C-13.11350781 2.32050637 -13.11350781 2.32050637 -12.06640625 1.09765625 C-9.73805397 1.02601464 -7.42611015 1.10120805 -5.09765625 1.16015625 C-2.61370095 1.08372686 -2.49293786 0.1178137 0 0 Z " fill="#F68D09" transform="translate(111.06640625,44.90234375)"/>
<path d="M0 0 C0.66 0 1.32 0 2 0 C3.125 1.625 3.125 1.625 4 4 C3.125 7.25 3.125 7.25 2 10 C1.236875 9.896875 0.47375 9.79375 -0.3125 9.6875 C-1.199375 9.790625 -2.08625 9.89375 -3 10 C-4.81883009 12.3832946 -6 13.95818337 -6 17 C-9.48056158 17.55688985 -12.65960339 18.02002333 -16.1875 17.8125 C-19.10765335 17.74865951 -19.10765335 17.74865951 -21.3125 19.75 C-22.98511358 21.98015144 -23.36351347 23.36312725 -24 26 C-24.99 26.33 -25.98 26.66 -27 27 C-28.66710346 28.49985609 -28.66710346 28.49985609 -30 30 C-29.6547532 24.24588666 -28.20892992 20.8503849 -24 17 C-20.60155921 14.66623904 -17.04833929 12.67210229 -13.4375 10.6875 C-12.01920898 9.8821582 -12.01920898 9.8821582 -10.57226562 9.06054688 C-2.97347351 4.80200119 -2.97347351 4.80200119 1 4 C0.67 2.68 0.34 1.36 0 0 Z " fill="#F2CD27" transform="translate(30,110)"/>
<path d="M0 0 C2 1 2 1 3 3 C1.1875 4.0625 1.1875 4.0625 -1 5 C-1.99 4.67 -2.98 4.34 -4 4 C-4.0928125 4.928125 -4.0928125 4.928125 -4.1875 5.875 C-4.455625 6.57625 -4.72375 7.2775 -5 8 C-6.65204456 8.70211894 -8.31923769 9.36971413 -10 10 C-10.33 10.99 -10.66 11.98 -11 13 C-12.0725 13.144375 -13.145 13.28875 -14.25 13.4375 C-18.20158956 13.93604202 -18.20158956 13.93604202 -22 15 C-22.33 15.99 -22.66 16.98 -23 18 C-26.74996601 22.43177801 -30.7966479 24.68883368 -36 27 C-36 27.99 -36 28.98 -36 30 C-42.0546875 30.1953125 -42.0546875 30.1953125 -44 30 C-44.66 29.34 -45.32 28.68 -46 28 C-46 28.66 -46 29.32 -46 30 C-47.32 29.67 -48.64 29.34 -50 29 C-49.26700684 28.58339111 -48.53401367 28.16678223 -47.77880859 27.73754883 C-44.94737358 26.12706251 -42.11675216 24.5151662 -39.2868042 22.90206909 C-38.0152318 22.17737878 -36.74346341 21.45303222 -35.47149658 20.72903442 C-28.71520079 16.88172625 -21.97803352 13.01075518 -15.3125 9.0078125 C-13.80163818 8.10131958 -13.80163818 8.10131958 -12.26025391 7.17651367 C-10.36244772 6.03265909 -8.46874931 4.88195645 -6.57958984 3.72387695 C-5.31429443 2.96143677 -5.31429443 2.96143677 -4.0234375 2.18359375 C-3.29044434 1.73556396 -2.55745117 1.28753418 -1.80224609 0.82592773 C-1.20750488 0.55337158 -0.61276367 0.28081543 0 0 Z " fill="#EF7F16" transform="translate(91,23)"/>
<path d="M0 0 C9.39351458 4.9182304 18.68162082 10.01527646 27.9375 15.1875 C29.53549438 16.07816162 29.53549438 16.07816162 31.16577148 16.98681641 C36.8746724 20.18595099 42.48533409 23.47618821 48 27 C47.01 27.66 46.02 28.32 45 29 C45 28.34 45 27.68 45 27 C44.01 27 43.02 27 42 27 C42 26.34 42 25.68 42 25 C41.34 25 40.68 25 40 25 C40 25.66 40 26.32 40 27 C38.1875 27.6875 38.1875 27.6875 36 28 C34.25 26.5625 34.25 26.5625 33 25 C32.01 25.33 31.02 25.66 30 26 C29.34 23.03 28.68 20.06 28 17 C27.05125 16.855625 26.1025 16.71125 25.125 16.5625 C22 16 22 16 20 15 C20 14.34 20 13.68 20 13 C12.575 12.01 12.575 12.01 5 11 C4.67 9.02 4.34 7.04 4 5 C2.02329393 3.24577228 2.02329393 3.24577228 0 2 C0 1.34 0 0.68 0 0 Z " fill="#F1B818" transform="translate(44,140)"/>
<path d="M0 0 C1 3 1 3 1 7 C2.32 7 3.64 7 5 7 C5 7.66 5 8.32 5 9 C5.94875 8.814375 6.8975 8.62875 7.875 8.4375 C11 8 11 8 13 9 C13 9.99 13 10.98 13 12 C19.42623846 16.78231699 25.18501571 16.42306682 33 16 C32.67 18.97 32.34 21.94 32 25 C27.76101672 23.44249478 23.90879847 21.36092344 20 19.125 C19.32517578 18.742229 18.65035156 18.35945801 17.95507812 17.96508789 C15.63455608 16.64715438 13.31713372 15.32388124 11 14 C9.09375078 12.91275904 7.18750075 11.82551952 5.28125 10.73828125 C0.1850852 7.82973424 -4.90833617 4.9164183 -10 2 C-6.48375245 0.05841983 -4.0284349 -0.18311068 0 0 Z " fill="#F2B432" transform="translate(143,56)"/>
<path d="M0 0 C0.66 0.33 1.32 0.66 2 1 C2 1.66 2 2.32 2 3 C2.495 3.99 2.495 3.99 3 5 C2.0925 5.28875 1.185 5.5775 0.25 5.875 C-4.28131331 7.44353153 -8.30252193 9.69369337 -12.5 12 C-15.0461082 13.39896055 -17.58419935 14.79247159 -20.18359375 16.08984375 C-22.15810864 17.04780399 -22.15810864 17.04780399 -24.5625 18.5625 C-27 20 -27 20 -30 21 C-30 21.66 -30 22.32 -30 23 C-29.01 23.33 -28.02 23.66 -27 24 C-30.28696233 24.79953138 -31.71023192 25.09658936 -35 24 C-36.32 25.32 -37.64 26.64 -39 28 C-39 27.34 -39 26.68 -39 26 C-40.32 25.67 -41.64 25.34 -43 25 C-40.54429825 23.66161267 -38.08570084 22.32913768 -35.625 21 C-34.92632812 20.6184375 -34.22765625 20.236875 -33.5078125 19.84375 C-28.2265625 17 -28.2265625 17 -26 17 C-26 16.34 -26 15.68 -26 15 C-20.25 12 -20.25 12 -18 12 C-18 11.34 -18 10.68 -18 10 C-17.3709375 9.69707031 -16.741875 9.39414063 -16.09375 9.08203125 C-11.03198284 6.60450967 -6.24692393 4.00506679 -1.59375 0.8203125 C-1.0678125 0.54960938 -0.541875 0.27890625 0 0 Z " fill="#FBB309" transform="translate(76,87)"/>
<path d="M0 0 C5.14258773 -0.26964879 8.38143677 0.24435435 12.9375 2.625 C13.50670166 2.92059814 14.07590332 3.21619629 14.66235352 3.52075195 C24.08331278 8.51145156 33.22107665 14.04931076 42.39794922 19.47021484 C45.58263616 21.34254064 48.78611189 23.17834471 52 25 C52 25.33 52 25.66 52 26 C50.35 26 48.7 26 47 26 C47 25.34 47 24.68 47 24 C44.69 23.34 42.38 22.68 40 22 C40 21.34 40 20.68 40 20 C38.7625 20.20625 37.525 20.4125 36.25 20.625 C31.72739067 21.18334683 29.77325731 20.34522968 26.1875 17.625 C25 16 25 16 25.3125 13.8125 C25.539375 13.214375 25.76625 12.61625 26 12 C25.01 12 24.02 12 23 12 C23 11.34 23 10.68 23 10 C22.4225 10.20625 21.845 10.4125 21.25 10.625 C18.39351159 11.1010814 17.35409582 10.64786707 15 9 C14.67 8.319375 14.34 7.63875 14 6.9375 C13.1704178 4.78719721 13.1704178 4.78719721 10.875 4.25 C10.25625 4.1675 9.6375 4.085 9 4 C9 3.34 9 2.68 9 2 C5.7 2 2.4 2 -1 2 C-0.67 1.34 -0.34 0.68 0 0 Z " fill="#ED8A1B" transform="translate(109,69)"/>
<path d="M0 0 C0.33 0 0.66 0 1 0 C0.90783899 4.60805045 0.49679802 6.50320198 -2.8125 9.8125 C-7.77020106 13.84423187 -13.35262917 16.8104278 -18.9375 19.875 C-20.00291016 20.46796875 -21.06832031 21.0609375 -22.16601562 21.671875 C-24.77347559 23.12176305 -27.38475513 24.56421684 -30 26 C-30.66 25.34 -31.32 24.68 -32 24 C-30 21 -30 21 -26.875 20.3125 C-25.92625 20.209375 -24.9775 20.10625 -24 20 C-23.87625 19.236875 -23.7525 18.47375 -23.625 17.6875 C-23 15 -23 15 -21 12 C-17.875 11.8125 -17.875 11.8125 -15 12 C-15 11.34 -15 10.68 -15 10 C-14.236875 10.20625 -13.47375 10.4125 -12.6875 10.625 C-9.78114056 11.33391203 -9.78114056 11.33391203 -7 9 C-6.01 9 -5.02 9 -4 9 C-4 8.01 -4 7.02 -4 6 C-3.34 6 -2.68 6 -2 6 C-1.855625 5.195625 -1.71125 4.39125 -1.5625 3.5625 C-1 1 -1 1 0 0 Z " fill="#F6C905" transform="translate(224,86)"/>
<path d="M0 0 C0 1.32 0 2.64 0 4 C0.99 4 1.98 4 3 4 C3 4.66 3 5.32 3 6 C4.485 6.495 4.485 6.495 6 7 C3.1875 7.1875 3.1875 7.1875 0 7 C-1 6 -2 5 -3 4 C-6.9120138 4.20061609 -9.02433183 5.58226961 -12 8 C-12.886875 8.515625 -13.77375 9.03125 -14.6875 9.5625 C-17.11355864 10.7908468 -17.11355864 10.7908468 -18 13 C-18.99 13 -19.98 13 -21 13 C-21 13.99 -21 14.98 -21 16 C-20.34 16.66 -19.68 17.32 -19 18 C-19.33 18.99 -19.66 19.98 -20 21 C-20.99 20.67 -21.98 20.34 -23 20 C-23.33 19.34 -23.66 18.68 -24 18 C-24.99 17.67 -25.98 17.34 -27 17 C-26.67 16.67 -26.34 16.34 -26 16 C-26.66 15.67 -27.32 15.34 -28 15 C-28 14.34 -28 13.68 -28 13 C-26.71086513 12.32845067 -25.41859796 11.66291141 -24.125 11 C-23.40570313 10.62875 -22.68640625 10.2575 -21.9453125 9.875 C-20 9 -20 9 -18 9 C-18 8.34 -18 7.68 -18 7 C-15.75474054 5.82333996 -13.50455858 4.6585926 -11.25 3.5 C-10.61578125 3.16613281 -9.9815625 2.83226563 -9.328125 2.48828125 C-5.87989007 0.72824467 -3.95159931 0 0 0 Z " fill="#F58202" transform="translate(194,113)"/>
<path d="M0 0 C-0.7425 0.556875 -1.485 1.11375 -2.25 1.6875 C-5.09900054 3.86431397 -5.09900054 3.86431397 -6.875 6.8125 C-7.57625 7.534375 -8.2775 8.25625 -9 9 C-12.75 8.8125 -12.75 8.8125 -16 8 C-16 9.32 -16 10.64 -16 12 C-16.7425 12.020625 -17.485 12.04125 -18.25 12.0625 C-21.42791249 13.14587926 -21.72751232 13.74474412 -23.3125 16.5625 C-23.869375 17.696875 -24.42625 18.83125 -25 20 C-25.99 20 -26.98 20 -28 20 C-28 19.01 -28 18.02 -28 17 C-29.175625 16.7834375 -29.175625 16.7834375 -30.375 16.5625 C-33 16 -33 16 -35 15 C-35 14.34 -35 13.68 -35 13 C-34.18144531 13.26039063 -33.36289063 13.52078125 -32.51953125 13.7890625 C-27.5156516 14.08896206 -24.80489559 12.01784242 -20.6875 9.375 C-19.17861903 8.44883804 -17.66950655 7.52305315 -16.16015625 6.59765625 C-15.44230957 6.14922363 -14.72446289 5.70079102 -13.98486328 5.23876953 C-11.55461228 3.72202986 -9.10495713 2.2465444 -6.625 0.8125 C-5.97789062 0.42707031 -5.33078125 0.04164063 -4.6640625 -0.35546875 C-3 -1 -3 -1 0 0 Z " fill="#EE991D" transform="translate(143,164)"/>
<path d="M0 0 C2.475 0.495 2.475 0.495 5 1 C5.66 2.98 6.32 4.96 7 7 C6.34 7 5.68 7 5 7 C5.66 7.33 6.32 7.66 7 8 C7 8.66 7 9.32 7 10 C8.093125 10.268125 9.18625 10.53625 10.3125 10.8125 C13.99675726 11.99895573 14.4841031 12.47161726 17 15 C18.59614581 15.88734886 20.22488488 16.71757459 21.875 17.5 C29.46432358 21.2004877 29.46432358 21.2004877 32 23 C32.495 24.485 32.495 24.485 33 26 C27.4212363 23.85797469 22.25876668 21.07211301 17 18.25 C15.52273438 17.48042969 15.52273438 17.48042969 14.015625 16.6953125 C8.52669162 13.74315644 4.46207189 11.24028491 1 6 C0.1875 2.625 0.1875 2.625 0 0 Z " fill="#ECCB2E" transform="translate(0,141)"/>
<path d="M0 0 C3.77718412 1.42058995 7.22668241 3.14590178 10.74609375 5.1171875 C11.83083984 5.72433594 12.91558594 6.33148438 14.03320312 6.95703125 C15.15662109 7.58996094 16.28003906 8.22289062 17.4375 8.875 C18.55705078 9.50019531 19.67660156 10.12539063 20.83007812 10.76953125 C26.02248364 13.68467405 31.07594599 16.6545841 36 20 C35.01 20.66 34.02 21.32 33 22 C31 20 31 20 30 18 C29.01 18.33 28.02 18.66 27 19 C27 18.01 27 17.02 27 16 C25.35 16.33 23.7 16.66 22 17 C21.67 16.01 21.34 15.02 21 14 C18.99983534 12.79117904 18.99983534 12.79117904 17 12 C17 11.34 17 10.68 17 10 C12.31034294 8.88341499 9.46236469 9.19380477 5 11 C4.67 10.34 4.34 9.68 4 9 C4.66 9 5.32 9 6 9 C6 8.34 6 7.68 6 7 C5.34 6.67 4.68 6.34 4 6 C4 5.01 4 4.02 4 3 C2.68 2.67 1.36 2.34 0 2 C0 1.34 0 0.68 0 0 Z " fill="#EDBC31" transform="translate(156,37)"/>
<path d="M0 0 C2.475 0.495 2.475 0.495 5 1 C5 1.66 5 2.32 5 3 C5.78375 3.144375 6.5675 3.28875 7.375 3.4375 C10 4 10 4 12 5 C12 5.66 12 6.32 12 7 C13.65 7 15.3 7 17 7 C15.63166868 11.10499396 13.71196951 11.86905454 10 14 C7.67607992 14.83196339 5.40674193 15.42238194 3 16 C3.66 15.01 4.32 14.02 5 13 C5.99 13 6.98 13 8 13 C8 11.35 8 9.7 8 8 C8.66 8 9.32 8 10 8 C10 7.34 10 6.68 10 6 C8.35 5.67 6.7 5.34 5 5 C5.33 5.99 5.66 6.98 6 8 C3.03 7.505 3.03 7.505 0 7 C0 4.69 0 2.38 0 0 Z " fill="#F68803" transform="translate(144,88)"/>
<path d="M0 0 C5.66666667 0 11.33333333 0 17 0 C17 0.66 17 1.32 17 2 C19.475 2.495 19.475 2.495 22 3 C20.06745228 5.0245738 18.36841312 6.42105792 16 8 C11.85716007 7.67275046 8.76406771 5.96278533 5.1875 3.9375 C4.21167969 3.38964844 3.23585938 2.84179688 2.23046875 2.27734375 C1.49441406 1.85582031 0.75835937 1.43429688 0 1 C0 0.67 0 0.34 0 0 Z " fill="#F78D03" transform="translate(119,104)"/>
<path d="M0 0 C2.05078125 0.03255208 4.1015625 0.06510417 6.15234375 0.09765625 C3.39029705 3.32681379 -0.19217124 5.17768205 -3.84765625 7.22265625 C-4.79125 7.76212891 -4.79125 7.76212891 -5.75390625 8.3125 C-11.08758079 11.32964217 -14.69601816 12.41584443 -20.84765625 12.09765625 C-23.78515625 11.09765625 -23.78515625 11.09765625 -25.84765625 10.09765625 C-25.84765625 9.76765625 -25.84765625 9.43765625 -25.84765625 9.09765625 C-20.56765625 9.09765625 -15.28765625 9.09765625 -9.84765625 9.09765625 C-9.18765625 7.11765625 -8.52765625 5.13765625 -7.84765625 3.09765625 C-5.28515625 1.78515625 -5.28515625 1.78515625 -2.84765625 1.09765625 C-1.84765625 0.09765625 -1.84765625 0.09765625 0 0 Z " fill="#F2A218" transform="translate(129.84765625,143.90234375)"/>
<path d="M0 0 C3 1 3 1 4 2 C4.33 2.99 4.66 3.98 5 5 C6.65 5 8.3 5 10 5 C10 5.66 10 6.32 10 7 C12.31 7.33 14.62 7.66 17 8 C17 10.64 17 13.28 17 16 C15.5882217 16.53394179 14.17029756 17.05165104 12.75 17.5625 C11.96109375 17.85253906 11.1721875 18.14257812 10.359375 18.44140625 C8 19 8 19 4 18 C6.97 16.35 9.94 14.7 13 13 C13 12.34 13 11.68 13 11 C12.00097656 10.44570312 11.00195312 9.89140625 9.97265625 9.3203125 C8.66911089 8.58882662 7.36573416 7.85704018 6.0625 7.125 C5.0734668 6.57779297 5.0734668 6.57779297 4.06445312 6.01953125 C-0.88671875 3.2265625 -0.88671875 3.2265625 -2 1 C-1.34 0.67 -0.68 0.34 0 0 Z " fill="#E77A1D" transform="translate(166,128)"/>
<path d="M0 0 C1.2065625 0.0309375 1.2065625 0.0309375 2.4375 0.0625 C0.4575 1.0525 0.4575 1.0525 -1.5625 2.0625 C1.71458863 5.73283927 5.15272208 7.75531189 9.4375 10.0625 C6.43436252 11.56406874 3.64682478 11.15531204 0.3125 11.125 C-0.96882813 11.11597656 -2.25015625 11.10695313 -3.5703125 11.09765625 C-5.05144531 11.08025391 -5.05144531 11.08025391 -6.5625 11.0625 C-6.0872412 9.41553396 -5.60718109 7.76995272 -5.125 6.125 C-4.85816406 5.20847656 -4.59132813 4.29195313 -4.31640625 3.34765625 C-3.23802118 0.07897613 -3.23802118 0.07897613 0 0 Z " fill="#EC9419" transform="translate(94.5625,108.9375)"/>
<path d="M0 0 C2 1 2 1 3 3 C1.1875 4.0625 1.1875 4.0625 -1 5 C-1.99 4.67 -2.98 4.34 -4 4 C-4.0928125 4.928125 -4.0928125 4.928125 -4.1875 5.875 C-4.455625 6.57625 -4.72375 7.2775 -5 8 C-6.65204456 8.70211894 -8.31923769 9.36971413 -10 10 C-10.33 10.99 -10.66 11.98 -11 13 C-12.4540625 13.1546875 -12.4540625 13.1546875 -13.9375 13.3125 C-18.48593839 13.94629879 -22.69417104 15.44755827 -27 17 C-24.55582209 14.27007268 -21.90395853 12.67063794 -18.7109375 10.8984375 C-17.17566406 10.03992188 -17.17566406 10.03992188 -15.609375 9.1640625 C-14.54203125 8.57367188 -13.4746875 7.98328125 -12.375 7.375 C-10.2570559 6.19667139 -8.13982792 5.01705438 -6.0234375 3.8359375 C-5.08419434 3.31563965 -4.14495117 2.7953418 -3.17724609 2.25927734 C-1.09238493 1.17840917 -1.09238493 1.17840917 0 0 Z " fill="#E98A27" transform="translate(91,23)"/>
<path d="M0 0 C2.12577907 0.0868276 4.25069581 0.1949951 6.375 0.3125 C7.55835938 0.37050781 8.74171875 0.42851562 9.9609375 0.48828125 C10.96382812 0.65714844 11.96671875 0.82601562 13 1 C13.66 1.99 14.32 2.98 15 4 C14.34 4 13.68 4 13 4 C13 4.66 13 5.32 13 6 C13.7425 6.28875 14.485 6.5775 15.25 6.875 C21.38461538 9.38461538 21.38461538 9.38461538 24 12 C24.99 12.33 25.98 12.66 27 13 C26.67 13.66 26.34 14.32 26 15 C21.01075047 13.21235391 16.49231306 10.63055614 11.875 8.0625 C11.06417969 7.61970703 10.25335938 7.17691406 9.41796875 6.72070312 C8.63808594 6.28822266 7.85820313 5.85574219 7.0546875 5.41015625 C6.34812012 5.01965088 5.64155273 4.62914551 4.91357422 4.22680664 C2.99402205 2.99616749 1.54300624 1.67023022 0 0 Z " fill="#F3BB1E" transform="translate(33,167)"/>
<path d="M0 0 C3.3 0.66 6.6 1.32 10 2 C10 1.34 10 0.68 10 0 C10.66 0.33 11.32 0.66 12 1 C11.67 1.66 11.34 2.32 11 3 C11.66 3 12.32 3 13 3 C13.33 3.66 13.66 4.32 14 5 C16.32156597 5.40729228 18.6568787 5.74438677 21 6 C21.495 7.485 21.495 7.485 22 9 C20.33984375 9.71484375 20.33984375 9.71484375 18 10 C15.37890625 8.56640625 15.37890625 8.56640625 12.5625 6.5625 C8.86076893 3.91099004 8.86076893 3.91099004 4.6015625 2.5234375 C0.87358932 3.20633949 -2.02201183 5.08117564 -5.1875 7.0625 C-7.43422209 8.45661986 -9.66568682 9.74852411 -12 11 C-12.66 10.67 -13.32 10.34 -14 10 C-13.0409375 9.5978125 -13.0409375 9.5978125 -12.0625 9.1875 C-9.66868314 8.11332248 -9.66868314 8.11332248 -9 5 C-7.35 5 -5.7 5 -4 5 C-4 4.34 -4 3.68 -4 3 C-2.68 3 -1.36 3 0 3 C0 2.01 0 1.02 0 0 Z " fill="#F0B32B" transform="translate(58,128)"/>
<path d="M0 0 C0.66 0.33 1.32 0.66 2 1 C-6.26236953 6.13066495 -14.57392336 11.14172158 -23 16 C-23.33 15.01 -23.66 14.02 -24 13 C-19.25 9 -19.25 9 -17 9 C-16.67 8.01 -16.34 7.02 -16 6 C-12.55152617 3.47996143 -9.13426005 3.84099 -5 4 C-5 3.34 -5 2.68 -5 2 C-2.625 0.9375 -2.625 0.9375 0 0 Z " fill="#EA851A" transform="translate(161,183)"/>
<path d="M0 0 C1.23556641 0.01740234 1.23556641 0.01740234 2.49609375 0.03515625 C3.32238281 0.04417969 4.14867188 0.05320313 5 0.0625 C5.63808594 0.07410156 6.27617188 0.08570313 6.93359375 0.09765625 C7.26359375 1.41765625 7.59359375 2.73765625 7.93359375 4.09765625 C7.21171875 3.74703125 6.48984375 3.39640625 5.74609375 3.03515625 C1.6921409 1.68383863 -0.89292701 2.57515819 -4.7421875 4.2890625 C-6.04736328 4.96775391 -6.04736328 4.96775391 -7.37890625 5.66015625 C-8.26191406 6.11519531 -9.14492187 6.57023437 -10.0546875 7.0390625 C-10.71855469 7.38839844 -11.38242188 7.73773438 -12.06640625 8.09765625 C-12.06640625 7.43765625 -12.06640625 6.77765625 -12.06640625 6.09765625 C-14.04640625 5.43765625 -16.02640625 4.77765625 -18.06640625 4.09765625 C-18.06640625 3.76765625 -18.06640625 3.43765625 -18.06640625 3.09765625 C-13.50213265 1.22513375 -9.76596521 0.93837676 -4.921875 1.125 C-2.55171399 1.09007131 -2.43723926 0.11518144 0 0 Z " fill="#F59310" transform="translate(111.06640625,44.90234375)"/>
<path d="M0 0 C0.61875 0.185625 1.2375 0.37125 1.875 0.5625 C4.04160178 1.23686176 4.04160178 1.23686176 6 0 C8.00800456 0.28112064 10.01014051 0.61067967 12 1 C7.42019842 4.05320106 2.66841538 6.81348458 -2.0625 9.625 C-3.08150391 10.23601562 -4.10050781 10.84703125 -5.15039062 11.4765625 C-6.12298828 12.0540625 -7.09558594 12.6315625 -8.09765625 13.2265625 C-8.98976807 13.75846191 -9.88187988 14.29036133 -10.80102539 14.83837891 C-13 16 -13 16 -15 16 C-15 15.34 -15 14.68 -15 14 C-13.02 13.34 -11.04 12.68 -9 12 C-9.33 10.68 -9.66 9.36 -10 8 C-7.03 8.495 -7.03 8.495 -4 9 C-4 8.34 -4 7.68 -4 7 C-3.34 6.54625 -2.68 6.0925 -2 5.625 C-1.34 5.08875 -0.68 4.5525 0 4 C0 2.68 0 1.36 0 0 Z " fill="#F6AF11" transform="translate(152,128)"/>
<path d="M0 0 C6.77410989 1.70740884 12.28498896 3.96117935 18 8 C17.01 8.66 16.02 9.32 15 10 C15 9.34 15 8.68 15 8 C14.01 8 13.02 8 12 8 C12 7.34 12 6.68 12 6 C11.34 6 10.68 6 10 6 C10 6.66 10 7.32 10 8 C8.1875 8.6875 8.1875 8.6875 6 9 C4.25 7.5625 4.25 7.5625 3 6 C2.01 6.33 1.02 6.66 0 7 C-0.38133299 5.0085944 -0.71325582 3.00720923 -1 1 C-0.67 0.67 -0.34 0.34 0 0 Z " fill="#F1AA16" transform="translate(74,159)"/>
<path d="M0 0 C5.55298278 -0.35279433 8.9112694 0.53715025 13.8125 3.125 C14.41271973 3.43832275 15.01293945 3.75164551 15.63134766 4.07446289 C20.87452101 6.84405925 25.98102162 9.8429007 31 13 C29.68 13.33 28.36 13.66 27 14 C27 13.34 27 12.68 27 12 C25.68 12 24.36 12 23 12 C23 11.34 23 10.68 23 10 C22.4225 10.20625 21.845 10.4125 21.25 10.625 C18.39351159 11.1010814 17.35409582 10.64786707 15 9 C14.67 8.319375 14.34 7.63875 14 6.9375 C13.1704178 4.78719721 13.1704178 4.78719721 10.875 4.25 C10.25625 4.1675 9.6375 4.085 9 4 C9 3.34 9 2.68 9 2 C5.7 2 2.4 2 -1 2 C-0.67 1.34 -0.34 0.68 0 0 Z " fill="#EA932B" transform="translate(109,69)"/>
<path d="M0 0 C11.48832346 5.24224468 11.48832346 5.24224468 15 10 C15.8125 13.8125 15.8125 13.8125 16 17 C15.62875 16.360625 15.2575 15.72125 14.875 15.0625 C12.41947207 12.36141928 10.55421195 12.31592995 7 12 C7.33 10.02 7.66 8.04 8 6 C5.69 5.67 3.38 5.34 1 5 C0.67 3.35 0.34 1.7 0 0 Z " fill="#F1D01C" transform="translate(209,67)"/>
<path d="M0 0 C7.56147318 3.68515617 14.96678328 7.35807696 22 12 C20.68 12.33 19.36 12.66 18 13 C18 12.34 18 11.68 18 11 C17.01 11 16.02 11 15 11 C14.67 11.66 14.34 12.32 14 13 C13.34 12.67 12.68 12.34 12 12 C12 11.34 12 10.68 12 10 C11.34 10 10.68 10 10 10 C10 9.34 10 8.68 10 8 C9.236875 7.855625 8.47375 7.71125 7.6875 7.5625 C3.79047886 6.74684441 1.66952155 5.9237617 -1 3 C-0.67 2.01 -0.34 1.02 0 0 Z " fill="#EEAE2A" transform="translate(134,24)"/>
<path d="M0 0 C0.391875 0.495 0.78375 0.99 1.1875 1.5 C3.93030315 3.76990606 6.54435034 3.06282999 10 3 C12 5 12 5 12 8 C12.94978897 10.15028304 12.94978897 10.15028304 14 12 C9.60616294 10.40376856 5.71004193 8.21975667 1.6875 5.875 C1.04232422 5.50246094 0.39714844 5.12992188 -0.26757812 4.74609375 C-1.84675945 3.83367787 -3.42361864 2.91724491 -5 2 C-2 0 -2 0 0 0 Z " fill="#F6AD06" transform="translate(64,181)"/>
<path d="M0 0 C0.66 0.33 1.32 0.66 2 1 C2 1.66 2 2.32 2 3 C2.33 3.66 2.66 4.32 3 5 C2.0925 5.28875 1.185 5.5775 0.25 5.875 C-3.43522635 7.15065527 -6.55998202 8.74722371 -9.9375 10.6875 C-13.27565483 12.11813778 -14.61053509 12.09659159 -18 11 C-15.74961674 8.2201148 -13.25264514 7.19492978 -9.9765625 5.8984375 C-7.00848245 4.5493102 -4.38544722 2.72718199 -1.69921875 0.890625 C-0.85810547 0.44976562 -0.85810547 0.44976562 0 0 Z " fill="#EFA818" transform="translate(76,87)"/>
<path d="M0 0 C0.90105469 0.00902344 1.80210937 0.01804687 2.73046875 0.02734375 C3.41753906 0.03894531 4.10460937 0.05054687 4.8125 0.0625 C4.4825 3.0325 4.1525 6.0025 3.8125 9.0625 C-0.49514815 7.49608249 -4.24921464 5.37913844 -8.1875 3.0625 C-8.1875 2.4025 -8.1875 1.7425 -8.1875 1.0625 C-5.17259443 0.05753148 -3.14568308 -0.04085303 0 0 Z " fill="#F5B817" transform="translate(171.1875,71.9375)"/>
<path d="M0 0 C0.99 0.33 1.98 0.66 3 1 C2.67 3.31 2.34 5.62 2 8 C1.278125 7.649375 0.55625 7.29875 -0.1875 6.9375 C-4.16367609 5.61210797 -6.57757541 6.34645356 -10.3125 8.0625 C-10.869375 8.371875 -11.42625 8.68125 -12 9 C-11.34 6.69 -10.68 4.38 -10 2 C-10.66 1.67 -11.32 1.34 -12 1 C-9.69 1 -7.38 1 -5 1 C-5 1.66 -5 2.32 -5 3 C-3.35 2.67 -1.7 2.34 0 2 C0 1.34 0 0.68 0 0 Z " fill="#F09918" transform="translate(117,96)"/>
<path d="M0 0 C7.50769231 0.49230769 7.50769231 0.49230769 10 3.0625 C10.33 3.701875 10.66 4.34125 11 5 C10.34 5 9.68 5 9 5 C9 5.99 9 6.98 9 8 C9.66 8 10.32 8 11 8 C11 8.66 11 9.32 11 10 C6.02790438 8.23570801 1.56561939 5.6060834 -3 3 C-2.01 2.67 -1.02 2.34 0 2 C0 1.34 0 0.68 0 0 Z " fill="#F3A416" transform="translate(92,197)"/>
<path d="M0 0 C0.33 0 0.66 0 1 0 C1.04898437 0.62648438 1.09796875 1.25296875 1.1484375 1.8984375 C1.22320313 2.71570313 1.29796875 3.53296875 1.375 4.375 C1.44460937 5.18710938 1.51421875 5.99921875 1.5859375 6.8359375 C1.82892588 9.20334191 1.82892588 9.20334191 4 11 C2.02 11 0.04 11 -2 11 C-3.76462683 7.91190305 -4 6.76687864 -4 3 C-4.66 3 -5.32 3 -6 3 C-6 2.34 -6 1.68 -6 1 C-3.03 1.495 -3.03 1.495 0 2 C0 1.34 0 0.68 0 0 Z " fill="#F3760B" transform="translate(7,86)"/>
<path d="M0 0 C4.77609498 1.64178265 8.79382904 4.26546702 13 7 C10.53721199 9.46278801 8.29323018 9.99771255 5 11 C4.67 10.34 4.34 9.68 4 9 C4.66 9 5.32 9 6 9 C6 8.34 6 7.68 6 7 C5.34 6.67 4.68 6.34 4 6 C4 5.01 4 4.02 4 3 C2.68 2.67 1.36 2.34 0 2 C0 1.34 0 0.68 0 0 Z " fill="#F7B30A" transform="translate(156,37)"/>
<path d="M0 0 C2.475 0.495 2.475 0.495 5 1 C5.66 2.98 6.32 4.96 7 7 C6.34 7 5.68 7 5 7 C5.66 7.33 6.32 7.66 7 8 C7 8.66 7 9.32 7 10 C7.66 10 8.32 10 9 10 C9.33 10.99 9.66 11.98 10 13 C5.57677803 11.64845995 3.48356116 9.90273896 1 6 C0.25 2.6875 0.25 2.6875 0 0 Z " fill="#F2D336" transform="translate(0,141)"/>
<path d="M0 0 C2.875 -0.125 2.875 -0.125 6 0 C6.66 0.66 7.32 1.32 8 2 C10.10820797 1.6814823 10.10820797 1.6814823 12 1 C11.67 1.99 11.34 2.98 11 4 C11.99 4.99 12.98 5.98 14 7 C12.328125 7.67578125 12.328125 7.67578125 10 8 C7.421875 6.85546875 7.421875 6.85546875 4.75 5.1875 C3.85796875 4.64480469 2.9659375 4.10210937 2.046875 3.54296875 C1.37140625 3.03378906 0.6959375 2.52460938 0 2 C0 1.34 0 0.68 0 0 Z " fill="#EE9013" transform="translate(92,145)"/>
<path d="M0 0 C7.56139223 3.66376737 14.86998546 7.5516281 22 12 C18.37673261 13.2077558 17.35853631 12.54311128 14 11 C14 10.34 14 9.68 14 9 C13.05125 8.855625 12.1025 8.71125 11.125 8.5625 C8 8 8 8 6 7 C6 6.34 6 5.68 6 5 C5.01 5 4.02 5 3 5 C1.3125 3.625 1.3125 3.625 0 2 C0 1.34 0 0.68 0 0 Z " fill="#E9B132" transform="translate(58,148)"/>
<path d="M0 0 C-5.28 2.97 -10.56 5.94 -16 9 C-16.66 8.34 -17.32 7.68 -18 7 C-16 4 -16 4 -12.875 3.3125 C-11.92625 3.209375 -10.9775 3.10625 -10 3 C-9.67 2.01 -9.34 1.02 -9 0 C-5.32431536 -0.91892116 -3.83619425 -0.95904856 0 0 Z " fill="#F2C72A" transform="translate(210,103)"/>
<path d="M0 0 C0.33 0 0.66 0 1 0 C0.93233783 3.38310867 0.81461728 6.02335939 -1.4140625 8.6953125 C-4.96936182 11.8120727 -8.65436737 14.09216129 -13 16 C-13 15.01 -13 14.02 -13 13 C-12.01 13 -11.02 13 -10 13 C-10 12.34 -10 11.68 -10 11 C-7 9 -7 9 -4 9 C-4 8.01 -4 7.02 -4 6 C-3.34 6 -2.68 6 -2 6 C-1.855625 5.195625 -1.71125 4.39125 -1.5625 3.5625 C-1 1 -1 1 0 0 Z " fill="#F3D635" transform="translate(224,86)"/>
<path d="M0 0 C3.9745504 0.69849772 7.26574098 2.62892769 10.75 4.5625 C11.65298828 5.0565332 11.65298828 5.0565332 12.57421875 5.56054688 C14.05170503 6.3696465 15.52616036 7.18427662 17 8 C16.67 8.66 16.34 9.32 16 10 C15.236875 9.690625 14.47375 9.38125 13.6875 9.0625 C11.81210323 8.32106407 9.91315348 7.63771783 8 7 C7.67 7.66 7.34 8.32 7 9 C6.34 9 5.68 9 5 9 C4 6 4 6 4 5 C2.70730268 1.86550788 2.70730268 1.86550788 0 0 Z " fill="#EFA829" transform="translate(117,15)"/>
<path d="M0 0 C1.21236328 0.01353516 1.21236328 0.01353516 2.44921875 0.02734375 C3.37154297 0.04474609 3.37154297 0.04474609 4.3125 0.0625 C4.3125 0.3925 4.3125 0.7225 4.3125 1.0625 C1.28515625 1.30664062 1.28515625 1.30664062 -1.7421875 1.55078125 C-4.08269216 1.93643036 -4.08269216 1.93643036 -5.6875 5.0625 C-8.3125 5.25 -8.3125 5.25 -10.6875 5.0625 C-10.6875 5.7225 -10.6875 6.3825 -10.6875 7.0625 C-11.47125 7.18625 -12.255 7.31 -13.0625 7.4375 C-15.82807822 7.85367993 -15.82807822 7.85367993 -17.6875 10.0625 C-18.3475 9.4025 -19.0075 8.7425 -19.6875 8.0625 C-17.75203884 6.91322616 -15.81405872 5.76819358 -13.875 4.625 C-12.79605469 3.98691406 -11.71710938 3.34882813 -10.60546875 2.69140625 C-6.85437342 0.59742131 -4.22716653 -0.06126328 0 0 Z " fill="#ECA438" transform="translate(112.6875,13.9375)"/>
<path d="M0 0 C1.67578125 1.17578125 1.67578125 1.17578125 3 3 C3.29296875 5.48046875 3.29296875 5.48046875 3.1875 8.1875 C3.16042969 9.08855469 3.13335937 9.98960937 3.10546875 10.91796875 C3.07066406 11.60503906 3.03585938 12.29210937 3 13 C1.51171875 11.69921875 1.51171875 11.69921875 0 10 C-0.1875 6.8125 -0.1875 6.8125 0 4 C-1.98 4 -3.96 4 -6 4 C-5.67 3.01 -5.34 2.02 -5 1 C-3 0 -3 0 0 0 Z " fill="#F57308" transform="translate(222,132)"/>
<path d="M0 0 C0.66 0.33 1.32 0.66 2 1 C0.02 1.99 0.02 1.99 -2 3 C-2 3.66 -2 4.32 -2 5 C-0.68 5.33 0.64 5.66 2 6 C2 6.66 2 7.32 2 8 C-4.14587738 7.7589852 -4.14587738 7.7589852 -6.578125 5.59765625 C-7.78844931 4.11953029 -8.90220903 2.56352047 -10 1 C-9.36191406 1.01160156 -8.72382813 1.02320313 -8.06640625 1.03515625 C-7.24011719 1.04417969 -6.41382813 1.05320313 -5.5625 1.0625 C-4.32693359 1.07990234 -4.32693359 1.07990234 -3.06640625 1.09765625 C-1.00836062 1.23267348 -1.00836062 1.23267348 0 0 Z " fill="#F6C007" transform="translate(38,160)"/>
<path d="M0 0 C0.66 0.33 1.32 0.66 2 1 C0.625 2.5 0.625 2.5 -1 4 C-1.66 4 -2.32 4 -3 4 C-3 4.66 -3 5.32 -3 6 C-2.34 6.33 -1.68 6.66 -1 7 C-2.95603851 7.52938657 -4.91492289 8.04826801 -6.875 8.5625 C-7.96554688 8.85253906 -9.05609375 9.14257812 -10.1796875 9.44140625 C-13 10 -13 10 -15 9 C-12.54732365 7.46931512 -10.08866106 5.95031377 -7.625 4.4375 C-6.92632812 3.99986328 -6.22765625 3.56222656 -5.5078125 3.11132812 C-3.70814097 2.01249022 -1.85677657 0.99932133 0 0 Z " fill="#ED9C20" transform="translate(104,71)"/>
<path d="M0 0 C0.33 1.65 0.66 3.3 1 5 C0.01 5 -0.98 5 -2 5 C-2.33 5.66 -2.66 6.32 -3 7 C-4.32 7 -5.64 7 -7 7 C-7 6.34 -7 5.68 -7 5 C-7.66 4.67 -8.32 4.34 -9 4 C-8.34 3.67 -7.68 3.34 -7 3 C-7 2.34 -7 1.68 -7 1 C-4.53721199 -0.231394 -2.7204945 -0.07159196 0 0 Z " fill="#F18608" transform="translate(149,161)"/>
<path d="M0 0 C0 1.65 0 3.3 0 5 C-1.6875 5.6875 -1.6875 5.6875 -4 6 C-8.63076923 3.73846154 -8.63076923 3.73846154 -10 1 C-6.78548731 -0.60725635 -3.56387464 -0.05748185 0 0 Z " fill="#F9C607" transform="translate(24,152)"/>
<path d="M0 0 C0 0.66 0 1.32 0 2 C-0.59167969 2.25394531 -1.18335938 2.50789063 -1.79296875 2.76953125 C-5.30143305 4.2976878 -8.63131886 5.76757058 -11.875 7.8125 C-12.57625 8.204375 -13.2775 8.59625 -14 9 C-14.99 8.67 -15.98 8.34 -17 8 C-16.34 8 -15.68 8 -15 8 C-15 6.35 -15 4.7 -15 3 C-14.443125 3.226875 -13.88625 3.45375 -13.3125 3.6875 C-10.06590348 4.12622926 -8.69262057 2.75020337 -6 1 C-3.85469245 0.32576048 -2.24230893 0 0 0 Z " fill="#FCB611" transform="translate(193,111)"/>
<path d="M0 0 C0.66 0 1.32 0 2 0 C2 0.66 2 1.32 2 2 C3.65 2 5.3 2 7 2 C7 2.66 7 3.32 7 4 C7.66 4.33 8.32 4.66 9 5 C5.77208445 7.1519437 4.71599191 7.20086443 1 7 C-0.0625 4.625 -0.0625 4.625 -1 2 C-0.67 1.34 -0.34 0.68 0 0 Z " fill="#F6C707" transform="translate(202,65)"/>
<path d="M0 0 C1 3 1 3 1 6 C-3.87362847 5.54663921 -6.39042389 4.2910841 -10 1 C-6.61981469 -0.04005702 -3.5219721 -0.08004482 0 0 Z " fill="#F2A91B" transform="translate(143,56)"/>
<path d="M0 0 C0.66 0 1.32 0 2 0 C2.66 2.64 3.32 5.28 4 8 C0.71303767 8.79953138 -0.71023192 9.09658936 -4 8 C-5.1875 5.9375 -5.1875 5.9375 -6 4 C-4.35 3.67 -2.7 3.34 -1 3 C-0.67 2.01 -0.34 1.02 0 0 Z " fill="#F48C05" transform="translate(93,23)"/>
<path d="M0 0 C1.32 0.33 2.64 0.66 4 1 C-1.1132524 3.97498322 -4.92330156 5.68792813 -11 5 C-13.9375 4 -13.9375 4 -16 3 C-16 2.67 -16 2.34 -16 2 C-10.72 2 -5.44 2 0 2 C0 1.34 0 0.68 0 0 Z " fill="#ED9F31" transform="translate(120,151)"/>
<path d="M0 0 C2.01822917 0.06510417 4.03645833 0.13020833 6.0546875 0.1953125 C6.3846875 1.5153125 6.7146875 2.8353125 7.0546875 4.1953125 C4.70030017 5.62476195 3.57436317 6.28192511 0.8046875 5.8203125 C0.2271875 5.6140625 -0.3503125 5.4078125 -0.9453125 5.1953125 C-0.9453125 4.5353125 -0.9453125 3.8753125 -0.9453125 3.1953125 C-1.9353125 2.8653125 -2.9253125 2.5353125 -3.9453125 2.1953125 C-1.9453125 0.1953125 -1.9453125 0.1953125 0 0 Z " fill="#F77608" transform="translate(14.9453125,95.8046875)"/>
<path d="M0 0 C0.90492187 0.59941406 0.90492187 0.59941406 1.828125 1.2109375 C2.488125 1.5409375 3.148125 1.8709375 3.828125 2.2109375 C3.828125 2.8709375 3.828125 3.5309375 3.828125 4.2109375 C3.22484375 4.18773438 2.6215625 4.16453125 2 4.140625 C1.20078125 4.12257813 0.4015625 4.10453125 -0.421875 4.0859375 C-1.60523437 4.05113281 -1.60523437 4.05113281 -2.8125 4.015625 C-5.37919441 4.2280997 -6.9634817 4.92439645 -9.171875 6.2109375 C-9.831875 5.5509375 -10.491875 4.8909375 -11.171875 4.2109375 C-9.76733857 3.31659593 -8.34765631 2.44600558 -6.921875 1.5859375 C-6.13296875 1.09867187 -5.3440625 0.61140625 -4.53125 0.109375 C-2.171875 -0.7890625 -2.171875 -0.7890625 0 0 Z " fill="#F1A722" transform="translate(89.171875,81.7890625)"/>
<path d="M0 0 C0.99 0.33 1.98 0.66 3 1 C2.2575 1.556875 1.515 2.11375 0.75 2.6875 C-2.07544208 4.90826999 -2.07544208 4.90826999 -4.1875 7.75 C-4.785625 8.4925 -5.38375 9.235 -6 10 C-6.66 10 -7.32 10 -8 10 C-8 9.34 -8 8.68 -8 8 C-8.66 7.67 -9.32 7.34 -10 7 C-7.19527484 3.70032335 -3.83081791 1.91540896 0 0 Z " fill="#ED8E1D" transform="translate(140,163)"/>
<path d="M0 0 C-2.79854744 3.29240875 -6.20673275 5.03562946 -10 7 C-10.99 7 -11.98 7 -13 7 C-10.30332745 0.48304134 -6.81821784 -0.39335872 0 0 Z " fill="#EB720B" transform="translate(198,163)"/>
<path d="M0 0 C3.50935186 0 6.56484998 0.37542727 10 1 C7.63202009 3.61724095 5.10399646 5.32861729 2 7 C1.34 7 0.68 7 0 7 C-1.125 2.25 -1.125 2.25 0 0 Z " fill="#E9781A" transform="translate(206,152)"/>
<path d="M0 0 C2.31 0 4.62 0 7 0 C6.67 1.98 6.34 3.96 6 6 C4.35 6.33 2.7 6.66 1 7 C-0.0625 5.1875 -0.0625 5.1875 -1 3 C-0.67 2.01 -0.34 1.02 0 0 Z " fill="#F7C706" transform="translate(18,121)"/>
<path d="M0 0 C3.79049707 1.42749981 7.27122456 3.16236542 10.8125 5.125 C12.27623047 5.93324219 12.27623047 5.93324219 13.76953125 6.7578125 C14.50558594 7.16773437 15.24164063 7.57765625 16 8 C12.06329512 9.31223496 9.87511856 8.24296256 6 7 C6 6.34 6 5.68 6 5 C5.01 5 4.02 5 3 5 C3 4.34 3 3.68 3 3 C2.01 3 1.02 3 0 3 C0 2.01 0 1.02 0 0 Z " fill="#E57B26" transform="translate(194,114)"/>
<path d="M0 0 C0.66 0.33 1.32 0.66 2 1 C1.67 1.66 1.34 2.32 1 3 C1.66 3 2.32 3 3 3 C3.33 3.66 3.66 4.32 4 5 C6.32156597 5.40729228 8.6568787 5.74438677 11 6 C11.33 6.99 11.66 7.98 12 9 C10.35546875 9.70703125 10.35546875 9.70703125 8 10 C5.23828125 8.63671875 5.23828125 8.63671875 2.3125 6.6875 C1.33925781 6.05199219 0.36601563 5.41648438 -0.63671875 4.76171875 C-3 3 -3 3 -4 1 C-2.68 1.33 -1.36 1.66 0 2 C0 1.34 0 0.68 0 0 Z " fill="#EC8D2F" transform="translate(68,128)"/>
<path d="M0 0 C-0.185625 1.093125 -0.37125 2.18625 -0.5625 3.3125 C-1.2578068 6.93624133 -1.2578068 6.93624133 0 10 C-0.99 9.67 -1.98 9.34 -3 9 C-3 8.34 -3 7.68 -3 7 C-3.66 7 -4.32 7 -5 7 C-5.33 6.67 -5.66 6.34 -6 6 C-7.66014616 5.63557767 -9.32706064 5.30027117 -11 5 C-10.443125 4.731875 -9.88625 4.46375 -9.3125 4.1875 C-6.91066602 2.99300335 -6.91066602 2.99300335 -4.375 1.375 C-2 0 -2 0 0 0 Z " fill="#F38403" transform="translate(74,124)"/>
<path d="M0 0 C1.32 0 2.64 0 4 0 C4 0.66 4 1.32 4 2 C3.01 2 2.02 2 1 2 C0.91878906 2.61359375 0.83757812 3.2271875 0.75390625 3.859375 C0 6 0 6 -1.84765625 7.265625 C-2.57855469 7.59046875 -3.30945313 7.9153125 -4.0625 8.25 C-4.79597656 8.58515625 -5.52945313 8.9203125 -6.28515625 9.265625 C-7.13400391 9.62914062 -7.13400391 9.62914062 -8 10 C-8 9.01 -8 8.02 -8 7 C-3.65714286 3 -3.65714286 3 -1 3 C-0.67 2.01 -0.34 1.02 0 0 Z " fill="#F18408" transform="translate(145,189)"/>
<path d="M0 0 C0.66 0.33 1.32 0.66 2 1 C1.01 1.66 0.02 2.32 -1 3 C2.465 2.505 2.465 2.505 6 2 C4.875 4 4.875 4 3 6 C0.0625 6.1875 0.0625 6.1875 -3 6 C-4.11375 6.309375 -4.11375 6.309375 -5.25 6.625 C-5.8275 6.74875 -6.405 6.8725 -7 7 C-7.66 6.34 -8.32 5.68 -9 5 C-7.54735962 4.1361871 -6.0876837 3.28419546 -4.625 2.4375 C-3.40683594 1.72400391 -3.40683594 1.72400391 -2.1640625 0.99609375 C-1.44992188 0.66738281 -0.73578125 0.33867188 0 0 Z " fill="#F3B723" transform="translate(171,90)"/>
<path d="M0 0 C0.99 0.33 1.98 0.66 3 1 C1.6875 3 1.6875 3 0 5 C-0.99 5 -1.98 5 -3 5 C-3 6.65 -3 8.3 -3 10 C-2.34 10 -1.68 10 -1 10 C-0.34 12.31 0.32 14.62 1 17 C-3.95044053 12.2092511 -3.95044053 12.2092511 -4.09765625 8.6171875 C-4.08605469 7.71226563 -4.07445312 6.80734375 -4.0625 5.875 C-4.05347656 4.96492188 -4.04445313 4.05484375 -4.03515625 3.1171875 C-4.02355469 2.41851562 -4.01195312 1.71984375 -4 1 C-3.67 1.66 -3.34 2.32 -3 3 C-2.34 3 -1.68 3 -1 3 C-0.67 2.01 -0.34 1.02 0 0 Z " fill="#F27E1C" transform="translate(4,79)"/>
<path d="M0 0 C-2.45518735 1.50537035 -4.9138452 3.00444426 -7.375 4.5 C-8.07367188 4.92925781 -8.77234375 5.35851562 -9.4921875 5.80078125 C-14.7734375 9 -14.7734375 9 -17 9 C-17 8.34 -17 7.68 -17 7 C-15.02 6.34 -13.04 5.68 -11 5 C-11.33 3.68 -11.66 2.36 -12 1 C-9.03 1.495 -9.03 1.495 -6 2 C-6 1.34 -6 0.68 -6 0 C-2.25 -1.125 -2.25 -1.125 0 0 Z " fill="#EDAE37" transform="translate(154,135)"/>
<path d="M0 0 C-0.66 1.98 -1.32 3.96 -2 6 C-3.32 5.67 -4.64 5.34 -6 5 C-6 4.34 -6 3.68 -6 3 C-7.65 3 -9.3 3 -11 3 C-8.15930939 0.15930939 -3.81147953 -1.90573977 0 0 Z " fill="#F38018" transform="translate(177,146)"/>
<path d="M0 0 C1.32 0 2.64 0 4 0 C4 1.32 4 2.64 4 4 C4.99 4 5.98 4 7 4 C7 4.66 7 5.32 7 6 C7.99 6.33 8.98 6.66 10 7 C4.45378151 7.3697479 4.45378151 7.3697479 2.3125 5.625 C1.879375 5.08875 1.44625 4.5525 1 4 C0.01 3.34 -0.98 2.68 -2 2 C-1.34 1.34 -0.68 0.68 0 0 Z " fill="#F17907" transform="translate(190,113)"/>
<path d="M0 0 C-4.62 2.64 -9.24 5.28 -14 8 C-14 5 -14 5 -13 3 C-11.35 3 -9.7 3 -8 3 C-8 2.01 -8 1.02 -8 0 C-4.63458162 -1.08174162 -3.70152678 -0.92538169 0 0 Z " fill="#EA9423" transform="translate(136,200)"/>
<path d="M0 0 C1.0725 0.165 2.145 0.33 3.25 0.5 C7.03028752 1.08810915 7.03028752 1.08810915 11 1 C11 2.32 11 3.64 11 5 C9.35 5.33 7.7 5.66 6 6 C6 5.34 6 4.68 6 4 C4.68 3.67 3.36 3.34 2 3 C2 2.34 2 1.68 2 1 C1.34 0.67 0.68 0.34 0 0 Z " fill="#F8B308" transform="translate(53,176)"/>
<path d="M0 0 C1.29409289 0.61996078 2.58519673 1.24616353 3.875 1.875 C4.95394531 2.39707031 4.95394531 2.39707031 6.0546875 2.9296875 C8 4 8 4 10 6 C10.99 6.33 11.98 6.66 13 7 C12.67 7.66 12.34 8.32 12 9 C7.02790438 7.23570801 2.56561939 4.6060834 -2 2 C-1.34 1.34 -0.68 0.68 0 0 Z " fill="#F1B731" transform="translate(47,173)"/>
<path d="M0 0 C1.43861294 0.08746284 2.87597508 0.19565348 4.3125 0.3125 C5.11300781 0.37050781 5.91351563 0.42851562 6.73828125 0.48828125 C9.41109031 1.09301007 10.38866591 1.80462248 12 4 C12 4.99 12 5.98 12 7 C7.69235185 5.43358249 3.93828536 3.31663844 0 1 C0 0.67 0 0.34 0 0 Z " fill="#EE9529" transform="translate(78,138)"/>
<path d="M0 0 C5.75 2.625 5.75 2.625 8 6 C6.68 6 5.36 6 4 6 C4 6.66 4 7.32 4 8 C2.68 7.67 1.36 7.34 0 7 C0 6.01 0 5.02 0 4 C0.66 4 1.32 4 2 4 C2 3.34 2 2.68 2 2 C1.34 2 0.68 2 0 2 C0 1.34 0 0.68 0 0 Z " fill="#EB8013" transform="translate(54,91)"/>
<path d="M0 0 C1.98 0 3.96 0 6 0 C6 1.32 6 2.64 6 4 C5.38125 4.144375 4.7625 4.28875 4.125 4.4375 C1.96741678 4.93152225 1.96741678 4.93152225 0 6 C0 6.66 0 7.32 0 8 C-0.99 7.67 -1.98 7.34 -3 7 C-2.01 4.69 -1.02 2.38 0 0 Z " fill="#F68008" transform="translate(161,176)"/>
<path d="M0 0 C3.05448544 0.17967561 4.62545344 0.61085596 7.1875 2.1875 C7.1875 2.5175 7.1875 2.8475 7.1875 3.1875 C6.28 3.31125 5.3725 3.435 4.4375 3.5625 C1.59779677 4.10859677 -0.33840591 4.76013803 -2.8125 6.1875 C-3.19468767 4.53135343 -3.52645102 2.86292976 -3.8125 1.1875 C-2.8125 0.1875 -2.8125 0.1875 0 0 Z " fill="#F88608" transform="translate(148.8125,183.8125)"/>
<path d="M0 0 C-0.33 0.66 -0.66 1.32 -1 2 C-4 3 -4 3 -5.9375 2.4375 C-8.60357285 1.8719694 -9.72275075 2.61738438 -12 4 C-12.66 3.34 -13.32 2.68 -14 2 C-8.77729131 -0.66464729 -5.9180497 -1.32854177 0 0 Z " fill="#F77605" transform="translate(24,69)"/>
<path d="M0 0 C1.62463842 -0.05395478 3.24978541 -0.09277195 4.875 -0.125 C5.77992187 -0.14820312 6.68484375 -0.17140625 7.6171875 -0.1953125 C10 0 10 0 12 2 C11.01 2.99 10.02 3.98 9 5 C5.52276264 3.74433095 2.90617542 2.26656844 0 0 Z " fill="#F09925" transform="translate(119,104)"/>
<path d="M0 0 C1.32 0.33 2.64 0.66 4 1 C4 1.66 4 2.32 4 3 C4.66 3.33 5.32 3.66 6 4 C5.34 4 4.68 4 4 4 C4 4.99 4 5.98 4 7 C2.68 7 1.36 7 0 7 C0 4.69 0 2.38 0 0 Z " fill="#FBCD07" transform="translate(216,88)"/>
<path d="M0 0 C-4.29 2.31 -8.58 4.62 -13 7 C-13 5.68 -13 4.36 -13 3 C-11.02 2.67 -9.04 2.34 -7 2 C-7 1.34 -7 0.68 -7 0 C-4 -1 -4 -1 0 0 Z " fill="#EC9433" transform="translate(83,63)"/>
<path d="M0 0 C2 1 2 1 3 3 C1.35 3 -0.3 3 -2 3 C-2 4.32 -2 5.64 -2 7 C-4.64 7 -7.28 7 -10 7 C-7.20283196 3.70921407 -3.80471422 1.93694542 0 0 Z " fill="#EA9A37" transform="translate(129,169)"/>
<path d="M0 0 C4.95 2.64 9.9 5.28 15 8 C14.01 8.33 13.02 8.66 12 9 C10.30963442 8.04060332 8.64605826 7.03357147 7 6 C5.9275 5.690625 4.855 5.38125 3.75 5.0625 C2.8425 4.711875 1.935 4.36125 1 4 C0.67 2.68 0.34 1.36 0 0 Z " fill="#E5A335" transform="translate(93,168)"/>
<path d="M0 0 C-0.3125 1.9375 -0.3125 1.9375 -1 4 C-1.99 4.33 -2.98 4.66 -4 5 C-5.66710346 6.49985609 -5.66710346 6.49985609 -7 8 C-6.67 5.69 -6.34 3.38 -6 1 C-3 0 -3 0 0 0 Z " fill="#F6D111" transform="translate(7,132)"/>
<path d="M0 0 C1.32 0 2.64 0 4 0 C4 0.99 4 1.98 4 3 C2.68 3 1.36 3 0 3 C0 3.66 0 4.32 0 5 C-1.32 5.33 -2.64 5.66 -4 6 C-4.33 4.68 -4.66 3.36 -5 2 C-3.35 1.67 -1.7 1.34 0 1 C0 0.67 0 0.34 0 0 Z " fill="#FAB709" transform="translate(54,128)"/>
<path d="M0 0 C2.88575819 0.39803561 3.82189513 0.79009069 5.75 3.0625 C6.1625 3.701875 6.575 4.34125 7 5 C6.67 5.66 6.34 6.32 6 7 C5.67 6.01 5.34 5.02 5 4 C3.02 4.33 1.04 4.66 -1 5 C-0.67 3.35 -0.34 1.7 0 0 Z " fill="#E6731B" transform="translate(217,128)"/>
<path d="M0 0 C0.99 0.99 1.98 1.98 3 3 C2.34 4.65 1.68 6.3 1 8 C-0.32 7.34 -1.64 6.68 -3 6 C-2.625 3.5625 -2.625 3.5625 -2 1 C-1.34 0.67 -0.68 0.34 0 0 Z " fill="#FABF05" transform="translate(187,56)"/>
<path d="M0 0 C2.64 0.66 5.28 1.32 8 2 C8 2.99 8 3.98 8 5 C4.95613276 5.08226668 2.92824652 4.97608217 0 4 C0 2.68 0 1.36 0 0 Z " fill="#F8AE09" transform="translate(64,155)"/>
<path d="M0 0 C0 0.99 0 1.98 0 3 C-1.65 3.33 -3.3 3.66 -5 4 C-5 4.66 -5 5.32 -5 6 C-6.75 7.0625 -6.75 7.0625 -9 8 C-10.32 7.67 -11.64 7.34 -13 7 C-8.71 4.69 -4.42 2.38 0 0 Z " fill="#E7A332" transform="translate(132,113)"/>
<path d="M0 0 C-4.455 2.97 -4.455 2.97 -9 6 C-9.66 5.67 -10.32 5.34 -11 5 C-10.34 4.01 -9.68 3.02 -9 2 C-8.34 2 -7.68 2 -7 2 C-7 1.34 -7 0.68 -7 0 C-2.25 -1.125 -2.25 -1.125 0 0 Z " fill="#F18001" transform="translate(46,105)"/>
<path d="M0 0 C2.125 0.9375 2.125 0.9375 4 2 C3.34 2 2.68 2 2 2 C2 3.32 2 4.64 2 6 C0.35 5.67 -1.3 5.34 -3 5 C-2.625 3.0625 -2.625 3.0625 -2 1 C-1.34 0.67 -0.68 0.34 0 0 Z " fill="#F58105" transform="translate(68,64)"/>
<path d="M0 0 C1.21236328 0.02707031 1.21236328 0.02707031 2.44921875 0.0546875 C3.37154297 0.08949219 3.37154297 0.08949219 4.3125 0.125 C4.6425 1.445 4.9725 2.765 5.3125 4.125 C4.590625 3.774375 3.86875 3.42375 3.125 3.0625 C-1.00850718 1.68466427 -3.6596948 2.78239827 -7.6875 4.125 C-7.6875 3.465 -7.6875 2.805 -7.6875 2.125 C-4.48369983 -0.01086678 -3.66810033 -0.10632175 0 0 Z " fill="#E5A234" transform="translate(113.6875,44.875)"/>
<path d="M0 0 C0.66 0 1.32 0 2 0 C3.125 1.625 3.125 1.625 4 4 C3.125 7.25 3.125 7.25 2 10 C1.01 9.67 0.02 9.34 -1 9 C-0.34 9 0.32 9 1 9 C0.67 8.34 0.34 7.68 0 7 C-0.33 6.01 -0.66 5.02 -1 4 C-0.34 4 0.32 4 1 4 C0.67 2.68 0.34 1.36 0 0 Z " fill="#F3BF22" transform="translate(30,110)"/>
<path d="M0 0 C4.75 0.875 4.75 0.875 7 2 C7 2.66 7 3.32 7 4 C8.65 4.33 10.3 4.66 12 5 C12 5.66 12 6.32 12 7 C7.39104317 5.68315519 3.85859765 3.84801255 0 1 C0 0.67 0 0.34 0 0 Z " fill="#EC8236" transform="translate(7,97)"/>
<path d="M0 0 C0 0.66 0 1.32 0 2 C0.66 2.33 1.32 2.66 2 3 C-0.25 4.125 -0.25 4.125 -3 5 C-5.3125 4.125 -5.3125 4.125 -7 3 C-7 2.34 -7 1.68 -7 1 C-4.50935112 0.31292445 -2.62113708 0 0 0 Z " fill="#FAAC0B" transform="translate(152,35)"/>
<path d="M0 0 C0.33 1.32 0.66 2.64 1 4 C-5.45 8.09326923 -5.45 8.09326923 -8.234375 7.62109375 C-8.81703125 7.41613281 -9.3996875 7.21117187 -10 7 C-9.36191406 6.66226563 -8.72382813 6.32453125 -8.06640625 5.9765625 C-7.24011719 5.53054687 -6.41382813 5.08453125 -5.5625 4.625 C-4.73878906 4.18414062 -3.91507813 3.74328125 -3.06640625 3.2890625 C-0.86533422 2.16581441 -0.86533422 2.16581441 0 0 Z " fill="#EA7E31" transform="translate(180,139)"/>
<path d="M0 0 C0.66 0.33 1.32 0.66 2 1 C2 2.98 2 4.96 2 7 C1.195625 7.12375 0.39125 7.2475 -0.4375 7.375 C-1.7059375 7.684375 -1.7059375 7.684375 -3 8 C-3.33 8.66 -3.66 9.32 -4 10 C-4.66 9.34 -5.32 8.68 -6 8 C-4.02 7.01 -2.04 6.02 0 5 C0 4.34 0 3.68 0 3 C-0.66 2.34 -1.32 1.68 -2 1 C-1.34 0.67 -0.68 0.34 0 0 Z " fill="#EEBE31" transform="translate(179,81)"/>
<path d="M0 0 C2.8125 0.1875 2.8125 0.1875 6 1 C7.875 3.5625 7.875 3.5625 9 6 C5.9168649 4.80100302 2.93720508 3.52299523 0 2 C0 1.34 0 0.68 0 0 Z " fill="#ECBD25" transform="translate(24,161)"/>
<path d="M0 0 C1.32 0 2.64 0 4 0 C4 2.64 4 5.28 4 8 C3.01 8 2.02 8 1 8 C0.40267181 5.23735711 0 2.83967231 0 0 Z " fill="#F4BB07" transform="translate(41,136)"/>
<path d="M0 0 C2.475 0.495 2.475 0.495 5 1 C5.66 2.98 6.32 4.96 7 7 C5.68 7 4.36 7 3 7 C3 5.68 3 4.36 3 3 C2.01 3.33 1.02 3.66 0 4 C0 2.68 0 1.36 0 0 Z " fill="#FAD20C" transform="translate(0,141)"/>
<path d="M0 0 C0.99 0 1.98 0 3 0 C3 2.64 3 5.28 3 8 C1.68 7.67 0.36 7.34 -1 7 C-0.34 7 0.32 7 1 7 C1 5.68 1 4.36 1 3 C0.34 3 -0.32 3 -1 3 C-0.67 2.01 -0.34 1.02 0 0 Z M-3 8 C-1 9 -1 9 -1 9 Z " fill="#F6750A" transform="translate(180,136)"/>
<path d="M0 0 C0.99 0.33 1.98 0.66 3 1 C3 1.66 3 2.32 3 3 C0 5 0 5 -3 5 C-3 5.66 -3 6.32 -3 7 C-3.99 7 -4.98 7 -6 7 C-6 6.34 -6 5.68 -6 5 C-5.38125 4.9175 -4.7625 4.835 -4.125 4.75 C-1.81562433 4.18741541 -1.81562433 4.18741541 -0.75 1.9375 C-0.5025 1.298125 -0.255 0.65875 0 0 Z " fill="#F28200" transform="translate(53,97)"/>
<path d="M0 0 C4.30764815 1.56641751 8.06171464 3.68336156 12 6 C10 7 10 7 6.875 6.0625 C5.92625 5.711875 4.9775 5.36125 4 5 C4 4.34 4 3.68 4 3 C2.68 2.67 1.36 2.34 0 2 C0 1.34 0 0.68 0 0 Z " fill="#E9B43D" transform="translate(156,37)"/>
<path d="M0 0 C2 1 2 1 3 3 C1.1875 4.0625 1.1875 4.0625 -1 5 C-1.99 4.67 -2.98 4.34 -4 4 C-4 4.66 -4 5.32 -4 6 C-5.32 5.67 -6.64 5.34 -8 5 C-6.71475739 4.13619741 -5.42157581 3.28419631 -4.125 2.4375 C-3.04605469 1.72400391 -3.04605469 1.72400391 -1.9453125 0.99609375 C-1.30335937 0.66738281 -0.66140625 0.33867187 0 0 Z " fill="#EC9534" transform="translate(91,23)"/>
<path d="M0 0 C2.125 1.875 2.125 1.875 4 4 C4 4.66 4 5.32 4 6 C0.22454612 4.90931332 -2.47043472 4.0916909 -5 1 C-2 0 -2 0 0 0 Z " fill="#EFB32E" transform="translate(64,181)"/>
<path d="M0 0 C2.625 0.9375 2.625 0.9375 5 2 C4.360625 2.268125 3.72125 2.53625 3.0625 2.8125 C0.66868314 3.88667752 0.66868314 3.88667752 0 7 C-0.66 5.02 -1.32 3.04 -2 1 C-1.34 0.67 -0.68 0.34 0 0 Z " fill="#F77709" transform="translate(203,121)"/>
<path d="M0 0 C0 0.99 0 1.98 0 3 C-3.13498292 4.85776765 -5.37471432 5.20140476 -9 5 C-4.32258065 0 -4.32258065 0 0 0 Z " fill="#F4B407" transform="translate(178,89)"/>
<path d="M0 0 C2.31 0.66 4.62 1.32 7 2 C5.25 3.5625 5.25 3.5625 3 5 C0.75 4.6875 0.75 4.6875 -1 4 C-0.67 2.68 -0.34 1.36 0 0 Z " fill="#F08C17" transform="translate(81,57)"/>
<path d="M0 0 C0.99 0.33 1.98 0.66 3 1 C2.67 2.32 2.34 3.64 2 5 C-0.97 4.505 -0.97 4.505 -4 4 C-4 3.34 -4 2.68 -4 2 C-2.68 2 -1.36 2 0 2 C0 1.34 0 0.68 0 0 Z " fill="#F47508" transform="translate(45,51)"/>
<path d="M0 0 C2.97 0.33 5.94 0.66 9 1 C9 1.66 9 2.32 9 3 C5.7 3 2.4 3 -1 3 C-0.67 2.01 -0.34 1.02 0 0 Z " fill="#F78F06" transform="translate(127,172)"/>
<path d="M0 0 C0.99 0.66 1.98 1.32 3 2 C2.01 3.485 2.01 3.485 1 5 C-3.75 4.25 -3.75 4.25 -6 2 C-4.7934375 1.7834375 -4.7934375 1.7834375 -3.5625 1.5625 C-1.07896294 1.25864751 -1.07896294 1.25864751 0 0 Z " fill="#F29215" transform="translate(134,107)"/>
<path d="M0 0 C2.97 0.495 2.97 0.495 6 1 C3.37801226 3.15377564 1.35595828 4.40072174 -2 5 C-1.34 3.35 -0.68 1.7 0 0 Z " fill="#EE961C" transform="translate(93,52)"/>
<path d="M0 0 C0.33 1.32 0.66 2.64 1 4 C0.34 4 -0.32 4 -1 4 C-1 3.34 -1 2.68 -1 2 C-2.98 2.99 -2.98 2.99 -5 4 C-5.33 2.68 -5.66 1.36 -6 0 C-3.50907189 -1.24546405 -2.58919267 -0.7767578 0 0 Z " fill="#F88603" transform="translate(79,36)"/>
<path d="M0 0 C1.65 0 3.3 0 5 0 C5 0.66 5 1.32 5 2 C5.99 2 6.98 2 8 2 C8.66 3.32 9.32 4.64 10 6 C6.00499382 4.6302836 3.19990508 2.74277578 0 0 Z " fill="#EEB430" transform="translate(68,187)"/>
<path d="M0 0 C1.32 0.33 2.64 0.66 4 1 C3.34 1 2.68 1 2 1 C2 1.99 2 2.98 2 4 C1.01 4 0.02 4 -1 4 C-1.33 4.66 -1.66 5.32 -2 6 C-2.66 4.68 -3.32 3.36 -4 2 C-3.34 1.67 -2.68 1.34 -2 1 C-1.34 1.33 -0.68 1.66 0 2 C0 1.34 0 0.68 0 0 Z " fill="#F5790E" transform="translate(44,80)"/>
<path d="M0 0 C0.66 0.33 1.32 0.66 2 1 C1.67 1.99 1.34 2.98 1 4 C-1.06640625 4.73046875 -1.06640625 4.73046875 -3.5625 5.1875 C-4.38878906 5.34605469 -5.21507813 5.50460938 -6.06640625 5.66796875 C-7.02353516 5.83232422 -7.02353516 5.83232422 -8 6 C-5.54460659 3.45154504 -3.16995003 1.6256154 0 0 Z " fill="#E5A031" transform="translate(97,75)"/>
<path d="M0 0 C-4.95 2.475 -4.95 2.475 -10 5 C-9.67 3.68 -9.34 2.36 -9 1 C-5.31975221 -1.08878929 -4.24507101 -1.06126775 0 0 Z " fill="#E68525" transform="translate(69,71)"/>
<path d="M0 0 C0.66 0.33 1.32 0.66 2 1 C0.06745228 3.0245738 -1.63158688 4.42105792 -4 6 C-6.1875 5.625 -6.1875 5.625 -8 5 C-6.71475739 4.13619741 -5.42157581 3.28419631 -4.125 2.4375 C-3.04605469 1.72400391 -3.04605469 1.72400391 -1.9453125 0.99609375 C-1.30335937 0.66738281 -0.66140625 0.33867188 0 0 Z " fill="#E27C35" transform="translate(25,61)"/>
<path d="M0 0 C3.7910119 1.44950455 7.3874638 3.15172566 11 5 C11 5.33 11 5.66 11 6 C9.35 6 7.7 6 6 6 C6 5.34 6 4.68 6 4 C4.02 3.34 2.04 2.68 0 2 C0 1.34 0 0.68 0 0 Z " fill="#EACB4B" transform="translate(198,61)"/>
<path d="M0 0 C4.19360449 0.67097672 7.40334352 2.8558394 11 5 C9 6 9 6 5.9375 5.25 C4.968125 4.8375 3.99875 4.425 3 4 C2.67 3.01 2.34 2.02 2 1 C1.34 0.67 0.68 0.34 0 0 Z " fill="#EDB148" transform="translate(117,15)"/>
<path d="M0 0 C0.66 0.33 1.32 0.66 2 1 C0.71186658 1.83878455 -0.58063256 2.67086783 -1.875 3.5 C-2.59429687 3.9640625 -3.31359375 4.428125 -4.0546875 4.90625 C-6 6 -6 6 -8 6 C-8 5.34 -8 4.68 -8 4 C-7.01 4 -6.02 4 -5 4 C-5 3.34 -5 2.68 -5 2 C-2.625 0.9375 -2.625 0.9375 0 0 Z " fill="#DF8221" transform="translate(161,183)"/>
<path d="M0 0 C5.53846154 -0.36923077 5.53846154 -0.36923077 7.875 1.5 C8.24625 1.995 8.6175 2.49 9 3 C7.3125 3.75 7.3125 3.75 5 4 C2.25 2.0625 2.25 2.0625 0 0 Z " fill="#EC9B2E" transform="translate(97,149)"/>
<path d="M0 0 C2.475 0.99 2.475 0.99 5 2 C4.34 3.32 3.68 4.64 3 6 C2.01 5.34 1.02 4.68 0 4 C0 2.68 0 1.36 0 0 Z " fill="#F87507" transform="translate(216,144)"/>
<path d="M0 0 C2.31 0.33 4.62 0.66 7 1 C4.33440687 2.77706209 1.9719385 3.87548273 -1 5 C-0.67 3.35 -0.34 1.7 0 0 Z " fill="#F1B62C" transform="translate(157,128)"/>
<path d="M0 0 C3 1 3 1 4 2 C4.36162029 3.32594105 4.69728039 4.65938457 5 6 C-0.875 3.25 -0.875 3.25 -2 1 C-1.34 0.67 -0.68 0.34 0 0 Z " fill="#F08621" transform="translate(166,128)"/>
<path d="M0 0 C0.66 0.33 1.32 0.66 2 1 C1.67 1.66 1.34 2.32 1 3 C1.66 3 2.32 3 3 3 C3.33 3.99 3.66 4.98 4 6 C-1.75 4.375 -1.75 4.375 -4 1 C-2.68 1.33 -1.36 1.66 0 2 C0 1.34 0 0.68 0 0 Z " fill="#E7831D" transform="translate(68,128)"/>
<path d="M0 0 C0.99 0 1.98 0 3 0 C3.33 1.32 3.66 2.64 4 4 C3.01 4.66 2.02 5.32 1 6 C0.01 5.67 -0.98 5.34 -2 5 C-1.34 5 -0.68 5 0 5 C0 3.35 0 1.7 0 0 Z " fill="#F6B805" transform="translate(178,114)"/>
<path d="M0 0 C2 1 2 1 2 1 Z M0 1 C0 1.66 0 2.32 0 3 C0.99 3.33 1.98 3.66 3 4 C-1.75 5 -1.75 5 -4 5 C-4 4.01 -4 3.02 -4 2 C-2 1 -2 1 0 1 Z " fill="#F6B902" transform="translate(46,107)"/>
<path d="M0 0 C1.98 0 3.96 0 6 0 C5.67 1.65 5.34 3.3 5 5 C4.67 4.01 4.34 3.02 4 2 C2.02 2.99 2.02 2.99 0 4 C-0.33 3.34 -0.66 2.68 -1 2 C-0.67 1.34 -0.34 0.68 0 0 Z " fill="#F57605" transform="translate(26,104)"/>
<path d="M0 0 C2.4375 0.375 2.4375 0.375 5 1 C5.33 1.66 5.66 2.32 6 3 C5.01 3.33 4.02 3.66 3 4 C1.65909241 4.65129797 0.32407669 5.31513275 -1 6 C-0.67 4.02 -0.34 2.04 0 0 Z " fill="#F37704" transform="translate(50,72)"/>
<path d="M0 0 C-0.33 0.99 -0.66 1.98 -1 3 C-3.0625 3.6875 -3.0625 3.6875 -5 4 C-5.33 2.68 -5.66 1.36 -6 0 C-3 -1 -3 -1 0 0 Z " fill="#F7770A" transform="translate(40,60)"/>
<path d="M0 0 C3.375 0.25 3.375 0.25 7 1 C8.4375 3.0625 8.4375 3.0625 9 5 C5.54074837 3.7508258 2.85306797 2.32472205 0 0 Z " fill="#F1AA30" transform="translate(80,194)"/>
<path d="M0 0 C0.94875 0.04125 1.8975 0.0825 2.875 0.125 C0.18658141 2.37745881 -1.77141875 4.00713958 -5.125 5.125 C-5.125 0.85616396 -4.22482433 0.16899297 0 0 Z " fill="#E7973B" transform="translate(142.125,193.875)"/>
<path d="M0 0 C-0.33 0.66 -0.66 1.32 -1 2 C-4.0625 2.625 -4.0625 2.625 -7 3 C-7 2.01 -7 1.02 -7 0 C-3.86650268 -1.04449911 -3.01031744 -0.93423645 0 0 Z " fill="#FAC208" transform="translate(199,105)"/>
<path d="M0 0 C3.96 1.98 3.96 1.98 8 4 C8 4.33 8 4.66 8 5 C5.69 5 3.38 5 1 5 C0.67 3.35 0.34 1.7 0 0 Z " fill="#EFCD3F" transform="translate(209,67)"/>
<path d="M0 0 C0.66 0.33 1.32 0.66 2 1 C1.34 2.65 0.68 4.3 0 6 C-2.475 5.01 -2.475 5.01 -5 4 C-3.35 2.68 -1.7 1.36 0 0 Z " fill="#EE842C" transform="translate(58,42)"/>
<path d="M0 0 C0.33 0.66 0.66 1.32 1 2 C0.34 2 -0.32 2 -1 2 C-0.34 3.98 0.32 5.96 1 8 C0.34 8 -0.32 8 -1 8 C-3 5 -3 5 -2.75 2.875 C-2 1 -2 1 0 0 Z " fill="#F6A911" transform="translate(79,186)"/>
<path d="M0 0 C-6.75 4 -6.75 4 -9 4 C-9 3.34 -9 2.68 -9 2 C-8.34 2 -7.68 2 -7 2 C-7 1.34 -7 0.68 -7 0 C-3.98968256 -0.93423645 -3.13349732 -1.04449911 0 0 Z " fill="#DE7E24" transform="translate(197,165)"/>
<path d="M0 0 C0.66 0.33 1.32 0.66 2 1 C1.67 2.65 1.34 4.3 1 6 C-0.98 5.01 -2.96 4.02 -5 3 C-4.360625 2.690625 -3.72125 2.38125 -3.0625 2.0625 C-1.06389179 1.1654837 -1.06389179 1.1654837 0 0 Z " fill="#F67A03" transform="translate(175,145)"/>
<path d="M0 0 C-2.12780579 2.34058637 -4.11562221 3.70700306 -7 5 C-7 3.68 -7 2.36 -7 1 C-4.53721199 -0.231394 -2.7204945 -0.07159196 0 0 Z " fill="#EDA935" transform="translate(136,144)"/>
<path d="M0 0 C1.32 0.66 2.64 1.32 4 2 C3.01 2.99 2.02 3.98 1 5 C0.01 4.67 -0.98 4.34 -2 4 C-1.34 2.68 -0.68 1.36 0 0 Z " fill="#FDA60A" transform="translate(132,115)"/>
<path d="M0 0 C-0.33 1.32 -0.66 2.64 -1 4 C-2.98 4 -4.96 4 -7 4 C-2.25 0 -2.25 0 0 0 Z " fill="#E77D2E" transform="translate(41,53)"/>
<path d="M0 0 C1.98 0 3.96 0 6 0 C6 0.99 6 1.98 6 3 C4.02 3 2.04 3 0 3 C0 2.01 0 1.02 0 0 Z " fill="#FBBC08" transform="translate(177,53)"/>
</svg>
