<?xml version="1.0" encoding="UTF-8"?>
<svg version="1.1" xmlns="http://www.w3.org/2000/svg" width="450" height="450">
<path d="M0 0 C24.42 0 48.84 0 74 0 C74 0.66 74 1.32 74 2 C74.66 2 75.32 2 76 2 C76 3.32 76 4.64 76 6 C76.66 6 77.32 6 78 6 C78 6.66 78 7.32 78 8 C78.66 8 79.32 8 80 8 C80 9.32 80 10.64 80 12 C80.66 12 81.32 12 82 12 C82 12.66 82 13.32 82 14 C82.66 14 83.32 14 84 14 C84 15.32 84 16.64 84 18 C84.66 18 85.32 18 86 18 C86 18.66 86 19.32 86 20 C86.66 20 87.32 20 88 20 C88 21.32 88 22.64 88 24 C88.66 24 89.32 24 90 24 C90 24.66 90 25.32 90 26 C90.66 26 91.32 26 92 26 C92 27.32 92 28.64 92 30 C92.66 30 93.32 30 94 30 C94 30.66 94 31.32 94 32 C94.66 32 95.32 32 96 32 C96 33.32 96 34.64 96 36 C96.66 36 97.32 36 98 36 C98 36.66 98 37.32 98 38 C98.66 38 99.32 38 100 38 C100 39.32 100 40.64 100 42 C100.66 42 101.32 42 102 42 C102 42.66 102 43.32 102 44 C102.66 44 103.32 44 104 44 C104 45.32 104 46.64 104 48 C104.66 48 105.32 48 106 48 C106 48.66 106 49.32 106 50 C106.66 50 107.32 50 108 50 C108 51.32 108 52.64 108 54 C108.66 54 109.32 54 110 54 C110 54.66 110 55.32 110 56 C110.66 56 111.32 56 112 56 C112 57.32 112 58.64 112 60 C112.66 60 113.32 60 114 60 C114 60.66 114 61.32 114 62 C114.66 62 115.32 62 116 62 C116 63.32 116 64.64 116 66 C116.66 66 117.32 66 118 66 C118 66.66 118 67.32 118 68 C118.66 68 119.32 68 120 68 C120 69.32 120 70.64 120 72 C120.66 72 121.32 72 122 72 C122 72.66 122 73.32 122 74 C122.66 74 123.32 74 124 74 C124 75.32 124 76.64 124 78 C124.66 78 125.32 78 126 78 C126 78.66 126 79.32 126 80 C126.66 80 127.32 80 128 80 C128 81.32 128 82.64 128 84 C128.66 84 129.32 84 130 84 C130 84.66 130 85.32 130 86 C130.66 86 131.32 86 132 86 C132 87.32 132 88.64 132 90 C132.66 90 133.32 90 134 90 C134 90.66 134 91.32 134 92 C134.66 92 135.32 92 136 92 C136 93.32 136 94.64 136 96 C136.66 96 137.32 96 138 96 C138 96.66 138 97.32 138 98 C138.66 98 139.32 98 140 98 C140 99.32 140 100.64 140 102 C140.66 102 141.32 102 142 102 C142 102.66 142 103.32 142 104 C142.66 104 143.32 104 144 104 C144 105.32 144 106.64 144 108 C144.66 108 145.32 108 146 108 C146 108.66 146 109.32 146 110 C146.66 110 147.32 110 148 110 C148 111.32 148 112.64 148 114 C148.66 114 149.32 114 150 114 C150 114.66 150 115.32 150 116 C150.66 116 151.32 116 152 116 C152 117.32 152 118.64 152 120 C152.66 120 153.32 120 154 120 C154 120.66 154 121.32 154 122 C154.66 122 155.32 122 156 122 C156 123.32 156 124.64 156 126 C156.66 126 157.32 126 158 126 C158 126.66 158 127.32 158 128 C158.66 128 159.32 128 160 128 C160 129.32 160 130.64 160 132 C160.66 132 161.32 132 162 132 C162 132.66 162 133.32 162 134 C162.66 134 163.32 134 164 134 C164 135.32 164 136.64 164 138 C164.66 138 165.32 138 166 138 C166 138.66 166 139.32 166 140 C166.66 140 167.32 140 168 140 C168 141.32 168 142.64 168 144 C168.66 144 169.32 144 170 144 C170 144.66 170 145.32 170 146 C170.66 146 171.32 146 172 146 C172 147.32 172 148.64 172 150 C172.66 150 173.32 150 174 150 C174 150.66 174 151.32 174 152 C174.66 152 175.32 152 176 152 C176 153.32 176 154.64 176 156 C176.66 156 177.32 156 178 156 C178 156.66 178 157.32 178 158 C178.66 158 179.32 158 180 158 C180 159.32 180 160.64 180 162 C180.66 162 181.32 162 182 162 C182 162.66 182 163.32 182 164 C182.66 164 183.32 164 184 164 C184 165.32 184 166.64 184 168 C184.66 168 185.32 168 186 168 C186 168.66 186 169.32 186 170 C186.66 170 187.32 170 188 170 C188 171.32 188 172.64 188 174 C188.66 174 189.32 174 190 174 C190 174.66 190 175.32 190 176 C190.66 176 191.32 176 192 176 C192 177.32 192 178.64 192 180 C192.66 180 193.32 180 194 180 C194 180.66 194 181.32 194 182 C194.66 182 195.32 182 196 182 C196 183.32 196 184.64 196 186 C196.66 186 197.32 186 198 186 C198 186.66 198 187.32 198 188 C198.66 188 199.32 188 200 188 C200 189.32 200 190.64 200 192 C200.66 192 201.32 192 202 192 C202 192.66 202 193.32 202 194 C202.66 194 203.32 194 204 194 C204 195.32 204 196.64 204 198 C204.66 198 205.32 198 206 198 C206 198.66 206 199.32 206 200 C206.66 200 207.32 200 208 200 C208 201.32 208 202.64 208 204 C208.66 204 209.32 204 210 204 C210 204.66 210 205.32 210 206 C210.66 206 211.32 206 212 206 C212 207.32 212 208.64 212 210 C212.66 210 213.32 210 214 210 C214 210.66 214 211.32 214 212 C214.66 212 215.32 212 216 212 C216 213.32 216 214.64 216 216 C216.66 216 217.32 216 218 216 C218 216.66 218 217.32 218 218 C218.66 218 219.32 218 220 218 C220 219.32 220 220.64 220 222 C220.66 222 221.32 222 222 222 C222 222.66 222 223.32 222 224 C222.66 224 223.32 224 224 224 C224 225.32 224 226.64 224 228 C224.66 228 225.32 228 226 228 C226 228.66 226 229.32 226 230 C226.66 230 227.32 230 228 230 C228 231.32 228 232.64 228 234 C228.66 234 229.32 234 230 234 C230 234.66 230 235.32 230 236 C230.66 236 231.32 236 232 236 C232 237.32 232 238.64 232 240 C232.66 240 233.32 240 234 240 C234 240.66 234 241.32 234 242 C234.66 242 235.32 242 236 242 C236 243.32 236 244.64 236 246 C236.66 246 237.32 246 238 246 C238 246.66 238 247.32 238 248 C238.66 248 239.32 248 240 248 C240 249.32 240 250.64 240 252 C240.66 252 241.32 252 242 252 C242 252.66 242 253.32 242 254 C242.66 254 243.32 254 244 254 C244 255.32 244 256.64 244 258 C244.66 258 245.32 258 246 258 C246 258.66 246 259.32 246 260 C246.66 260 247.32 260 248 260 C248 261.32 248 262.64 248 264 C248.66 264 249.32 264 250 264 C250 264.66 250 265.32 250 266 C250.66 266 251.32 266 252 266 C252 267.32 252 268.64 252 270 C252.66 270 253.32 270 254 270 C254 270.66 254 271.32 254 272 C254.66 272 255.32 272 256 272 C256 273.32 256 274.64 256 276 C256.66 276 257.32 276 258 276 C258 277.32 258 278.64 258 280 C233.58 280 209.16 280 184 280 C184 278.68 184 277.36 184 276 C183.34 276 182.68 276 182 276 C182 275.34 182 274.68 182 274 C181.34 274 180.68 274 180 274 C180 272.68 180 271.36 180 270 C179.34 270 178.68 270 178 270 C178 269.34 178 268.68 178 268 C177.34 268 176.68 268 176 268 C176 266.68 176 265.36 176 264 C175.34 264 174.68 264 174 264 C174 263.34 174 262.68 174 262 C173.34 262 172.68 262 172 262 C172 260.68 172 259.36 172 258 C171.34 258 170.68 258 170 258 C170 257.34 170 256.68 170 256 C169.34 256 168.68 256 168 256 C168 254.68 168 253.36 168 252 C167.34 252 166.68 252 166 252 C166 251.34 166 250.68 166 250 C165.34 250 164.68 250 164 250 C164 248.68 164 247.36 164 246 C163.34 246 162.68 246 162 246 C162 245.34 162 244.68 162 244 C161.34 244 160.68 244 160 244 C160 242.68 160 241.36 160 240 C159.34 240 158.68 240 158 240 C158 239.34 158 238.68 158 238 C157.34 238 156.68 238 156 238 C156 236.68 156 235.36 156 234 C155.34 234 154.68 234 154 234 C154 233.34 154 232.68 154 232 C153.34 232 152.68 232 152 232 C152 230.68 152 229.36 152 228 C151.34 228 150.68 228 150 228 C150 227.34 150 226.68 150 226 C149.34 226 148.68 226 148 226 C148 224.68 148 223.36 148 222 C147.34 222 146.68 222 146 222 C146 221.34 146 220.68 146 220 C145.34 220 144.68 220 144 220 C144 218.68 144 217.36 144 216 C143.34 216 142.68 216 142 216 C142 215.34 142 214.68 142 214 C141.34 214 140.68 214 140 214 C140 212.68 140 211.36 140 210 C139.34 210 138.68 210 138 210 C138 209.34 138 208.68 138 208 C137.34 208 136.68 208 136 208 C136 206.68 136 205.36 136 204 C135.34 204 134.68 204 134 204 C134 203.34 134 202.68 134 202 C133.34 202 132.68 202 132 202 C132 200.68 132 199.36 132 198 C131.34 198 130.68 198 130 198 C130 197.34 130 196.68 130 196 C129.34 196 128.68 196 128 196 C128 197.32 128 198.64 128 200 C127.34 200 126.68 200 126 200 C126 200.66 126 201.32 126 202 C125.34 202 124.68 202 124 202 C124 203.32 124 204.64 124 206 C123.34 206 122.68 206 122 206 C122 206.66 122 207.32 122 208 C121.34 208 120.68 208 120 208 C120 209.32 120 210.64 120 212 C119.34 212 118.68 212 118 212 C118 212.66 118 213.32 118 214 C117.34 214 116.68 214 116 214 C116 215.32 116 216.64 116 218 C115.34 218 114.68 218 114 218 C114 218.66 114 219.32 114 220 C113.34 220 112.68 220 112 220 C112 221.32 112 222.64 112 224 C111.34 224 110.68 224 110 224 C110 224.66 110 225.32 110 226 C109.34 226 108.68 226 108 226 C108 227.32 108 228.64 108 230 C107.34 230 106.68 230 106 230 C106 230.66 106 231.32 106 232 C105.34 232 104.68 232 104 232 C104 233.32 104 234.64 104 236 C103.34 236 102.68 236 102 236 C102 236.66 102 237.32 102 238 C101.34 238 100.68 238 100 238 C100 239.32 100 240.64 100 242 C99.34 242 98.68 242 98 242 C98 242.66 98 243.32 98 244 C97.34 244 96.68 244 96 244 C96 245.32 96 246.64 96 248 C95.34 248 94.68 248 94 248 C94 248.66 94 249.32 94 250 C93.34 250 92.68 250 92 250 C92 251.32 92 252.64 92 254 C91.34 254 90.68 254 90 254 C90 254.66 90 255.32 90 256 C89.34 256 88.68 256 88 256 C88 257.32 88 258.64 88 260 C87.34 260 86.68 260 86 260 C86 260.66 86 261.32 86 262 C85.34 262 84.68 262 84 262 C84 263.32 84 264.64 84 266 C83.34 266 82.68 266 82 266 C82 266.66 82 267.32 82 268 C81.34 268 80.68 268 80 268 C80 269.32 80 270.64 80 272 C79.34 272 78.68 272 78 272 C78 272.66 78 273.32 78 274 C77.34 274 76.68 274 76 274 C76 275.32 76 276.64 76 278 C75.34 278 74.68 278 74 278 C74 278.66 74 279.32 74 280 C49.58 280 25.16 280 0 280 C0 278.68 0 277.36 0 276 C0.66 276 1.32 276 2 276 C2 275.34 2 274.68 2 274 C2.66 274 3.32 274 4 274 C4 272.68 4 271.36 4 270 C4.66 270 5.32 270 6 270 C6 269.34 6 268.68 6 268 C6.66 268 7.32 268 8 268 C8 266.68 8 265.36 8 264 C8.66 264 9.32 264 10 264 C10 263.34 10 262.68 10 262 C10.66 262 11.32 262 12 262 C12 260.68 12 259.36 12 258 C12.66 258 13.32 258 14 258 C14 257.34 14 256.68 14 256 C14.66 256 15.32 256 16 256 C16 254.68 16 253.36 16 252 C16.66 252 17.32 252 18 252 C18 251.34 18 250.68 18 250 C18.66 250 19.32 250 20 250 C20 248.68 20 247.36 20 246 C20.66 246 21.32 246 22 246 C22 245.34 22 244.68 22 244 C22.66 244 23.32 244 24 244 C24 242.68 24 241.36 24 240 C24.66 240 25.32 240 26 240 C26 239.34 26 238.68 26 238 C26.66 238 27.32 238 28 238 C28 236.68 28 235.36 28 234 C28.66 234 29.32 234 30 234 C30 233.34 30 232.68 30 232 C30.66 232 31.32 232 32 232 C32 230.68 32 229.36 32 228 C32.66 228 33.32 228 34 228 C34 227.34 34 226.68 34 226 C34.66 226 35.32 226 36 226 C36 224.68 36 223.36 36 222 C36.66 222 37.32 222 38 222 C38 221.34 38 220.68 38 220 C38.66 220 39.32 220 40 220 C40 218.68 40 217.36 40 216 C40.66 216 41.32 216 42 216 C42 215.34 42 214.68 42 214 C42.66 214 43.32 214 44 214 C44 212.68 44 211.36 44 210 C44.66 210 45.32 210 46 210 C46 209.34 46 208.68 46 208 C46.66 208 47.32 208 48 208 C48 206.68 48 205.36 48 204 C48.66 204 49.32 204 50 204 C50 203.34 50 202.68 50 202 C50.66 202 51.32 202 52 202 C52 200.68 52 199.36 52 198 C52.66 198 53.32 198 54 198 C54 197.34 54 196.68 54 196 C54.66 196 55.32 196 56 196 C56 194.68 56 193.36 56 192 C56.66 192 57.32 192 58 192 C58 191.34 58 190.68 58 190 C58.66 190 59.32 190 60 190 C60 188.68 60 187.36 60 186 C60.66 186 61.32 186 62 186 C62 185.34 62 184.68 62 184 C62.66 184 63.32 184 64 184 C64 182.68 64 181.36 64 180 C64.66 180 65.32 180 66 180 C66 179.34 66 178.68 66 178 C66.66 178 67.32 178 68 178 C68 176.68 68 175.36 68 174 C68.66 174 69.32 174 70 174 C70 173.34 70 172.68 70 172 C70.66 172 71.32 172 72 172 C72 170.68 72 169.36 72 168 C72.66 168 73.32 168 74 168 C74 167.34 74 166.68 74 166 C74.66 166 75.32 166 76 166 C76 164.68 76 163.36 76 162 C76.66 162 77.32 162 78 162 C78 161.34 78 160.68 78 160 C78.66 160 79.32 160 80 160 C80 158.68 80 157.36 80 156 C80.66 156 81.32 156 82 156 C82 155.34 82 154.68 82 154 C82.66 154 83.32 154 84 154 C84 152.68 84 151.36 84 150 C84.66 150 85.32 150 86 150 C86 149.34 86 148.68 86 148 C86.66 148 87.32 148 88 148 C88 146.68 88 145.36 88 144 C88.66 144 89.32 144 90 144 C90 143.34 90 142.68 90 142 C90.66 142 91.32 142 92 142 C92 140.68 92 139.36 92 138 C91.34 138 90.68 138 90 138 C90 137.34 90 136.68 90 136 C89.34 136 88.68 136 88 136 C88 134.68 88 133.36 88 132 C87.34 132 86.68 132 86 132 C86 131.34 86 130.68 86 130 C85.34 130 84.68 130 84 130 C84 128.68 84 127.36 84 126 C83.34 126 82.68 126 82 126 C82 125.34 82 124.68 82 124 C81.34 124 80.68 124 80 124 C80 122.68 80 121.36 80 120 C79.34 120 78.68 120 78 120 C78 119.34 78 118.68 78 118 C77.34 118 76.68 118 76 118 C76 116.68 76 115.36 76 114 C75.34 114 74.68 114 74 114 C74 113.34 74 112.68 74 112 C73.34 112 72.68 112 72 112 C72 110.68 72 109.36 72 108 C71.34 108 70.68 108 70 108 C70 107.34 70 106.68 70 106 C69.34 106 68.68 106 68 106 C68 104.68 68 103.36 68 102 C67.34 102 66.68 102 66 102 C66 101.34 66 100.68 66 100 C65.34 100 64.68 100 64 100 C64 98.68 64 97.36 64 96 C63.34 96 62.68 96 62 96 C62 95.34 62 94.68 62 94 C61.34 94 60.68 94 60 94 C60 92.68 60 91.36 60 90 C59.34 90 58.68 90 58 90 C58 89.34 58 88.68 58 88 C57.34 88 56.68 88 56 88 C56 86.68 56 85.36 56 84 C55.34 84 54.68 84 54 84 C54 83.34 54 82.68 54 82 C53.34 82 52.68 82 52 82 C52 80.68 52 79.36 52 78 C51.34 78 50.68 78 50 78 C50 77.34 50 76.68 50 76 C49.34 76 48.68 76 48 76 C48 74.68 48 73.36 48 72 C47.34 72 46.68 72 46 72 C46 71.34 46 70.68 46 70 C45.34 70 44.68 70 44 70 C44 68.68 44 67.36 44 66 C43.34 66 42.68 66 42 66 C42 65.34 42 64.68 42 64 C41.34 64 40.68 64 40 64 C40 62.68 40 61.36 40 60 C39.34 60 38.68 60 38 60 C38 59.34 38 58.68 38 58 C37.34 58 36.68 58 36 58 C36 56.68 36 55.36 36 54 C35.34 54 34.68 54 34 54 C34 53.34 34 52.68 34 52 C33.34 52 32.68 52 32 52 C32 50.68 32 49.36 32 48 C31.34 48 30.68 48 30 48 C30 47.34 30 46.68 30 46 C29.34 46 28.68 46 28 46 C28 44.68 28 43.36 28 42 C27.34 42 26.68 42 26 42 C26 41.34 26 40.68 26 40 C25.34 40 24.68 40 24 40 C24 38.68 24 37.36 24 36 C23.34 36 22.68 36 22 36 C22 35.34 22 34.68 22 34 C21.34 34 20.68 34 20 34 C20 32.68 20 31.36 20 30 C19.34 30 18.68 30 18 30 C18 29.34 18 28.68 18 28 C17.34 28 16.68 28 16 28 C16 26.68 16 25.36 16 24 C15.34 24 14.68 24 14 24 C14 23.34 14 22.68 14 22 C13.34 22 12.68 22 12 22 C12 20.68 12 19.36 12 18 C11.34 18 10.68 18 10 18 C10 17.34 10 16.68 10 16 C9.34 16 8.68 16 8 16 C8 14.68 8 13.36 8 12 C7.34 12 6.68 12 6 12 C6 11.34 6 10.68 6 10 C5.34 10 4.68 10 4 10 C4 8.68 4 7.36 4 6 C3.34 6 2.68 6 2 6 C2 5.34 2 4.68 2 4 C1.34 4 0.68 4 0 4 C0 2.68 0 1.36 0 0 Z " fill="#5D4E84" transform="translate(119,85)"/>
<path d="M0 0 C24.42 0 48.84 0 74 0 C74 1.32 74 2.64 74 4 C74.66 4 75.32 4 76 4 C76 4.66 76 5.32 76 6 C76.66 6 77.32 6 78 6 C78 7.32 78 8.64 78 10 C78.66 10 79.32 10 80 10 C80 10.66 80 11.32 80 12 C80.66 12 81.32 12 82 12 C82 13.32 82 14.64 82 16 C82.66 16 83.32 16 84 16 C84 16.66 84 17.32 84 18 C84.66 18 85.32 18 86 18 C86 19.32 86 20.64 86 22 C86.66 22 87.32 22 88 22 C88 22.66 88 23.32 88 24 C88.66 24 89.32 24 90 24 C90 25.32 90 26.64 90 28 C90.66 28 91.32 28 92 28 C92 28.66 92 29.32 92 30 C92.66 30 93.32 30 94 30 C94 31.32 94 32.64 94 34 C94.66 34 95.32 34 96 34 C96 34.66 96 35.32 96 36 C96.66 36 97.32 36 98 36 C98 37.32 98 38.64 98 40 C98.66 40 99.32 40 100 40 C100 40.66 100 41.32 100 42 C100.66 42 101.32 42 102 42 C102 43.32 102 44.64 102 46 C102.66 46 103.32 46 104 46 C104 46.66 104 47.32 104 48 C104.66 48 105.32 48 106 48 C106 49.32 106 50.64 106 52 C106.66 52 107.32 52 108 52 C108 52.66 108 53.32 108 54 C108.66 54 109.32 54 110 54 C110 55.32 110 56.64 110 58 C110.66 58 111.32 58 112 58 C112 58.66 112 59.32 112 60 C112.66 60 113.32 60 114 60 C114 61.32 114 62.64 114 64 C114.66 64 115.32 64 116 64 C116 64.66 116 65.32 116 66 C116.66 66 117.32 66 118 66 C118 67.32 118 68.64 118 70 C118.66 70 119.32 70 120 70 C120 70.66 120 71.32 120 72 C120.66 72 121.32 72 122 72 C122 73.32 122 74.64 122 76 C122.66 76 123.32 76 124 76 C124 76.66 124 77.32 124 78 C124.66 78 125.32 78 126 78 C126 79.32 126 80.64 126 82 C126.66 82 127.32 82 128 82 C128 82.66 128 83.32 128 84 C128.66 84 129.32 84 130 84 C130 85.32 130 86.64 130 88 C130.66 88 131.32 88 132 88 C132 88.66 132 89.32 132 90 C132.66 90 133.32 90 134 90 C134 91.32 134 92.64 134 94 C134.66 94 135.32 94 136 94 C136 94.66 136 95.32 136 96 C136.66 96 137.32 96 138 96 C138 97.32 138 98.64 138 100 C138.66 100 139.32 100 140 100 C140 100.66 140 101.32 140 102 C140.66 102 141.32 102 142 102 C142 103.32 142 104.64 142 106 C142.66 106 143.32 106 144 106 C144 106.66 144 107.32 144 108 C144.66 108 145.32 108 146 108 C146 109.32 146 110.64 146 112 C146.66 112 147.32 112 148 112 C148 112.66 148 113.32 148 114 C148.66 114 149.32 114 150 114 C150 115.32 150 116.64 150 118 C150.66 118 151.32 118 152 118 C152 118.66 152 119.32 152 120 C152.66 120 153.32 120 154 120 C154 121.32 154 122.64 154 124 C154.66 124 155.32 124 156 124 C156 124.66 156 125.32 156 126 C156.66 126 157.32 126 158 126 C158 127.32 158 128.64 158 130 C158.66 130 159.32 130 160 130 C160 130.66 160 131.32 160 132 C160.66 132 161.32 132 162 132 C162 133.32 162 134.64 162 136 C162.66 136 163.32 136 164 136 C164 138.64 164 141.28 164 144 C163.34 144 162.68 144 162 144 C162 145.32 162 146.64 162 148 C161.34 148 160.68 148 160 148 C160 148.66 160 149.32 160 150 C159.34 150 158.68 150 158 150 C158 151.32 158 152.64 158 154 C157.34 154 156.68 154 156 154 C156 154.66 156 155.32 156 156 C155.34 156 154.68 156 154 156 C154 157.32 154 158.64 154 160 C153.34 160 152.68 160 152 160 C152 160.66 152 161.32 152 162 C151.34 162 150.68 162 150 162 C150 163.32 150 164.64 150 166 C149.34 166 148.68 166 148 166 C148 166.66 148 167.32 148 168 C147.34 168 146.68 168 146 168 C146 169.32 146 170.64 146 172 C145.34 172 144.68 172 144 172 C144 172.66 144 173.32 144 174 C143.34 174 142.68 174 142 174 C142 175.32 142 176.64 142 178 C141.34 178 140.68 178 140 178 C140 178.66 140 179.32 140 180 C139.34 180 138.68 180 138 180 C138 181.32 138 182.64 138 184 C137.34 184 136.68 184 136 184 C136 184.66 136 185.32 136 186 C135.34 186 134.68 186 134 186 C134 187.32 134 188.64 134 190 C133.34 190 132.68 190 132 190 C132 190.66 132 191.32 132 192 C131.34 192 130.68 192 130 192 C130 193.32 130 194.64 130 196 C129.34 196 128.68 196 128 196 C128 196.66 128 197.32 128 198 C127.34 198 126.68 198 126 198 C126 199.32 126 200.64 126 202 C125.34 202 124.68 202 124 202 C124 202.66 124 203.32 124 204 C123.34 204 122.68 204 122 204 C122 205.32 122 206.64 122 208 C121.34 208 120.68 208 120 208 C120 208.66 120 209.32 120 210 C119.34 210 118.68 210 118 210 C118 211.32 118 212.64 118 214 C117.34 214 116.68 214 116 214 C116 214.66 116 215.32 116 216 C115.34 216 114.68 216 114 216 C114 217.32 114 218.64 114 220 C113.34 220 112.68 220 112 220 C112 220.66 112 221.32 112 222 C111.34 222 110.68 222 110 222 C110 223.32 110 224.64 110 226 C109.34 226 108.68 226 108 226 C108 226.66 108 227.32 108 228 C107.34 228 106.68 228 106 228 C106 229.32 106 230.64 106 232 C105.34 232 104.68 232 104 232 C104 232.66 104 233.32 104 234 C103.34 234 102.68 234 102 234 C102 235.32 102 236.64 102 238 C101.34 238 100.68 238 100 238 C100 238.66 100 239.32 100 240 C99.34 240 98.68 240 98 240 C98 241.32 98 242.64 98 244 C97.34 244 96.68 244 96 244 C96 244.66 96 245.32 96 246 C95.34 246 94.68 246 94 246 C94 247.32 94 248.64 94 250 C93.34 250 92.68 250 92 250 C92 250.66 92 251.32 92 252 C91.34 252 90.68 252 90 252 C90 253.32 90 254.64 90 256 C89.34 256 88.68 256 88 256 C88 256.66 88 257.32 88 258 C87.34 258 86.68 258 86 258 C86 259.32 86 260.64 86 262 C85.34 262 84.68 262 84 262 C84 262.66 84 263.32 84 264 C83.34 264 82.68 264 82 264 C82 265.32 82 266.64 82 268 C81.34 268 80.68 268 80 268 C80 268.66 80 269.32 80 270 C79.34 270 78.68 270 78 270 C78 271.32 78 272.64 78 274 C77.34 274 76.68 274 76 274 C76 274.66 76 275.32 76 276 C75.34 276 74.68 276 74 276 C74 277.32 74 278.64 74 280 C49.58 280 25.16 280 0 280 C0 278.68 0 277.36 0 276 C0.66 276 1.32 276 2 276 C2 274.68 2 273.36 2 272 C2.66 272 3.32 272 4 272 C4 271.34 4 270.68 4 270 C4.66 270 5.32 270 6 270 C6 268.68 6 267.36 6 266 C6.66 266 7.32 266 8 266 C8 265.34 8 264.68 8 264 C8.66 264 9.32 264 10 264 C10 262.68 10 261.36 10 260 C10.66 260 11.32 260 12 260 C12 259.34 12 258.68 12 258 C12.66 258 13.32 258 14 258 C14 256.68 14 255.36 14 254 C14.66 254 15.32 254 16 254 C16 253.34 16 252.68 16 252 C16.66 252 17.32 252 18 252 C18 250.68 18 249.36 18 248 C18.66 248 19.32 248 20 248 C20 247.34 20 246.68 20 246 C20.66 246 21.32 246 22 246 C22 244.68 22 243.36 22 242 C22.66 242 23.32 242 24 242 C24 241.34 24 240.68 24 240 C24.66 240 25.32 240 26 240 C26 238.68 26 237.36 26 236 C26.66 236 27.32 236 28 236 C28 235.34 28 234.68 28 234 C28.66 234 29.32 234 30 234 C30 232.68 30 231.36 30 230 C30.66 230 31.32 230 32 230 C32 229.34 32 228.68 32 228 C32.66 228 33.32 228 34 228 C34 226.68 34 225.36 34 224 C34.66 224 35.32 224 36 224 C36 223.34 36 222.68 36 222 C36.66 222 37.32 222 38 222 C38 220.68 38 219.36 38 218 C38.66 218 39.32 218 40 218 C40 217.34 40 216.68 40 216 C40.66 216 41.32 216 42 216 C42 214.68 42 213.36 42 212 C42.66 212 43.32 212 44 212 C44 211.34 44 210.68 44 210 C44.66 210 45.32 210 46 210 C46 208.68 46 207.36 46 206 C46.66 206 47.32 206 48 206 C48 205.34 48 204.68 48 204 C48.66 204 49.32 204 50 204 C50 202.68 50 201.36 50 200 C50.66 200 51.32 200 52 200 C52 199.34 52 198.68 52 198 C52.66 198 53.32 198 54 198 C54 196.68 54 195.36 54 194 C54.66 194 55.32 194 56 194 C56 193.34 56 192.68 56 192 C56.66 192 57.32 192 58 192 C58 190.68 58 189.36 58 188 C58.66 188 59.32 188 60 188 C60 187.34 60 186.68 60 186 C60.66 186 61.32 186 62 186 C62 184.68 62 183.36 62 182 C62.66 182 63.32 182 64 182 C64 181.34 64 180.68 64 180 C64.66 180 65.32 180 66 180 C66 178.68 66 177.36 66 176 C66.66 176 67.32 176 68 176 C68 175.34 68 174.68 68 174 C68.66 174 69.32 174 70 174 C70 172.68 70 171.36 70 170 C70.66 170 71.32 170 72 170 C72 169.34 72 168.68 72 168 C72.66 168 73.32 168 74 168 C74 166.68 74 165.36 74 164 C74.66 164 75.32 164 76 164 C76 163.34 76 162.68 76 162 C76.66 162 77.32 162 78 162 C78 160.68 78 159.36 78 158 C78.66 158 79.32 158 80 158 C80 157.34 80 156.68 80 156 C80.66 156 81.32 156 82 156 C82 154.68 82 153.36 82 152 C82.66 152 83.32 152 84 152 C84 151.34 84 150.68 84 150 C84.66 150 85.32 150 86 150 C86 148.68 86 147.36 86 146 C86.66 146 87.32 146 88 146 C88 145.34 88 144.68 88 144 C88.66 144 89.32 144 90 144 C90 141.36 90 138.72 90 136 C89.34 136 88.68 136 88 136 C88 135.34 88 134.68 88 134 C87.34 134 86.68 134 86 134 C86 132.68 86 131.36 86 130 C85.34 130 84.68 130 84 130 C84 129.34 84 128.68 84 128 C83.34 128 82.68 128 82 128 C82 126.68 82 125.36 82 124 C81.34 124 80.68 124 80 124 C80 123.34 80 122.68 80 122 C79.34 122 78.68 122 78 122 C78 120.68 78 119.36 78 118 C77.34 118 76.68 118 76 118 C76 117.34 76 116.68 76 116 C75.34 116 74.68 116 74 116 C74 114.68 74 113.36 74 112 C73.34 112 72.68 112 72 112 C72 111.34 72 110.68 72 110 C71.34 110 70.68 110 70 110 C70 108.68 70 107.36 70 106 C69.34 106 68.68 106 68 106 C68 105.34 68 104.68 68 104 C67.34 104 66.68 104 66 104 C66 102.68 66 101.36 66 100 C65.34 100 64.68 100 64 100 C64 99.34 64 98.68 64 98 C63.34 98 62.68 98 62 98 C62 96.68 62 95.36 62 94 C61.34 94 60.68 94 60 94 C60 93.34 60 92.68 60 92 C59.34 92 58.68 92 58 92 C58 90.68 58 89.36 58 88 C57.34 88 56.68 88 56 88 C56 87.34 56 86.68 56 86 C55.34 86 54.68 86 54 86 C54 84.68 54 83.36 54 82 C53.34 82 52.68 82 52 82 C52 81.34 52 80.68 52 80 C51.34 80 50.68 80 50 80 C50 78.68 50 77.36 50 76 C49.34 76 48.68 76 48 76 C48 75.34 48 74.68 48 74 C47.34 74 46.68 74 46 74 C46 72.68 46 71.36 46 70 C45.34 70 44.68 70 44 70 C44 69.34 44 68.68 44 68 C43.34 68 42.68 68 42 68 C42 66.68 42 65.36 42 64 C41.34 64 40.68 64 40 64 C40 63.34 40 62.68 40 62 C39.34 62 38.68 62 38 62 C38 60.68 38 59.36 38 58 C37.34 58 36.68 58 36 58 C36 57.34 36 56.68 36 56 C35.34 56 34.68 56 34 56 C34 54.68 34 53.36 34 52 C33.34 52 32.68 52 32 52 C32 51.34 32 50.68 32 50 C31.34 50 30.68 50 30 50 C30 48.68 30 47.36 30 46 C29.34 46 28.68 46 28 46 C28 45.34 28 44.68 28 44 C27.34 44 26.68 44 26 44 C26 42.68 26 41.36 26 40 C25.34 40 24.68 40 24 40 C24 39.34 24 38.68 24 38 C23.34 38 22.68 38 22 38 C22 36.68 22 35.36 22 34 C21.34 34 20.68 34 20 34 C20 33.34 20 32.68 20 32 C19.34 32 18.68 32 18 32 C18 30.68 18 29.36 18 28 C17.34 28 16.68 28 16 28 C16 27.34 16 26.68 16 26 C15.34 26 14.68 26 14 26 C14 24.68 14 23.36 14 22 C13.34 22 12.68 22 12 22 C12 21.34 12 20.68 12 20 C11.34 20 10.68 20 10 20 C10 18.68 10 17.36 10 16 C9.34 16 8.68 16 8 16 C8 15.34 8 14.68 8 14 C7.34 14 6.68 14 6 14 C6 12.68 6 11.36 6 10 C5.34 10 4.68 10 4 10 C4 9.34 4 8.68 4 8 C3.34 8 2.68 8 2 8 C2 6.68 2 5.36 2 4 C1.34 4 0.68 4 0 4 C0 2.68 0 1.36 0 0 Z " fill="#443961" transform="translate(27,85)"/>
<path d="M0 0 C51.48 0 102.96 0 156 0 C156 16.5 156 33 156 50 C114.42 50 72.84 50 30 50 C30 49.34 30 48.68 30 48 C29.34 48 28.68 48 28 48 C28 47.34 28 46.68 28 46 C27.34 46 26.68 46 26 46 C26 44.68 26 43.36 26 42 C25.34 42 24.68 42 24 42 C24 41.34 24 40.68 24 40 C23.34 40 22.68 40 22 40 C22 38.68 22 37.36 22 36 C21.34 36 20.68 36 20 36 C20 35.34 20 34.68 20 34 C19.34 34 18.68 34 18 34 C18 32.68 18 31.36 18 30 C17.34 30 16.68 30 16 30 C16 29.34 16 28.68 16 28 C15.34 28 14.68 28 14 28 C14 26.68 14 25.36 14 24 C13.34 24 12.68 24 12 24 C12 23.34 12 22.68 12 22 C11.34 22 10.68 22 10 22 C10 20.68 10 19.36 10 18 C9.34 18 8.68 18 8 18 C8 17.34 8 16.68 8 16 C7.34 16 6.68 16 6 16 C6 14.68 6 13.36 6 12 C5.34 12 4.68 12 4 12 C4 11.34 4 10.68 4 10 C3.34 10 2.68 10 2 10 C2 8.68 2 7.36 2 6 C1.34 6 0.68 6 0 6 C0 4.02 0 2.04 0 0 Z " fill="#8C4D88" transform="translate(267,165)"/>
<path d="M0 0 C36.3 0 72.6 0 110 0 C110 16.5 110 33 110 50 C83.6 50 57.2 50 30 50 C30 49.34 30 48.68 30 48 C29.34 48 28.68 48 28 48 C28 46.68 28 45.36 28 44 C27.34 44 26.68 44 26 44 C26 43.34 26 42.68 26 42 C25.34 42 24.68 42 24 42 C24 40.68 24 39.36 24 38 C23.34 38 22.68 38 22 38 C22 37.34 22 36.68 22 36 C21.34 36 20.68 36 20 36 C20 34.68 20 33.36 20 32 C19.34 32 18.68 32 18 32 C18 31.34 18 30.68 18 30 C17.34 30 16.68 30 16 30 C16 28.68 16 27.36 16 26 C15.34 26 14.68 26 14 26 C14 25.34 14 24.68 14 24 C13.34 24 12.68 24 12 24 C12 22.68 12 21.36 12 20 C11.34 20 10.68 20 10 20 C10 19.34 10 18.68 10 18 C9.34 18 8.68 18 8 18 C8 16.68 8 15.36 8 14 C7.34 14 6.68 14 6 14 C6 13.34 6 12.68 6 12 C5.34 12 4.68 12 4 12 C4 10.68 4 9.36 4 8 C3.34 8 2.68 8 2 8 C2 7.34 2 6.68 2 6 C1.34 6 0.68 6 0 6 C0 4.02 0 2.04 0 0 Z " fill="#8C4D89" transform="translate(313,235)"/>
<path d="M0 0 C0 0.66 0 1.32 0 2 C0.66 2 1.32 2 2 2 C2 3.32 2 4.64 2 6 C2.66 6 3.32 6 4 6 C4 6.66 4 7.32 4 8 C4.66 8 5.32 8 6 8 C6 9.32 6 10.64 6 12 C6.66 12 7.32 12 8 12 C8 14.64 8 17.28 8 20 C7.34 20 6.68 20 6 20 C6 21.32 6 22.64 6 24 C5.34 24 4.68 24 4 24 C4 24.66 4 25.32 4 26 C3.34 26 2.68 26 2 26 C2 27.32 2 28.64 2 30 C1.34 30 0.68 30 0 30 C0 30.66 0 31.32 0 32 C-0.66 32 -1.32 32 -2 32 C-2 33.32 -2 34.64 -2 36 C-2.66 36 -3.32 36 -4 36 C-4 36.66 -4 37.32 -4 38 C-4.66 38 -5.32 38 -6 38 C-6 39.32 -6 40.64 -6 42 C-6.66 42 -7.32 42 -8 42 C-8 42.66 -8 43.32 -8 44 C-8.66 44 -9.32 44 -10 44 C-10 45.32 -10 46.64 -10 48 C-10.66 48 -11.32 48 -12 48 C-12 48.66 -12 49.32 -12 50 C-12.66 50 -13.32 50 -14 50 C-14 51.32 -14 52.64 -14 54 C-14.66 54 -15.32 54 -16 54 C-16 54.66 -16 55.32 -16 56 C-16.66 56 -17.32 56 -18 56 C-18 57.32 -18 58.64 -18 60 C-18.66 60 -19.32 60 -20 60 C-20 60.66 -20 61.32 -20 62 C-20.66 62 -21.32 62 -22 62 C-22 63.32 -22 64.64 -22 66 C-22.66 66 -23.32 66 -24 66 C-24 66.66 -24 67.32 -24 68 C-24.66 68 -25.32 68 -26 68 C-26 69.32 -26 70.64 -26 72 C-26.66 72 -27.32 72 -28 72 C-28 72.66 -28 73.32 -28 74 C-28.66 74 -29.32 74 -30 74 C-30 75.32 -30 76.64 -30 78 C-30.66 78 -31.32 78 -32 78 C-32 78.66 -32 79.32 -32 80 C-32.66 80 -33.32 80 -34 80 C-34 81.32 -34 82.64 -34 84 C-34.66 84 -35.32 84 -36 84 C-36 84.66 -36 85.32 -36 86 C-36.66 86 -37.32 86 -38 86 C-38 87.32 -38 88.64 -38 90 C-38.66 90 -39.32 90 -40 90 C-40 90.66 -40 91.32 -40 92 C-40.66 92 -41.32 92 -42 92 C-42 93.32 -42 94.64 -42 96 C-42.66 96 -43.32 96 -44 96 C-44 96.66 -44 97.32 -44 98 C-44.66 98 -45.32 98 -46 98 C-46 99.32 -46 100.64 -46 102 C-46.66 102 -47.32 102 -48 102 C-48 102.66 -48 103.32 -48 104 C-48.66 104 -49.32 104 -50 104 C-50 105.32 -50 106.64 -50 108 C-50.66 108 -51.32 108 -52 108 C-52 108.66 -52 109.32 -52 110 C-52.66 110 -53.32 110 -54 110 C-54 111.32 -54 112.64 -54 114 C-54.66 114 -55.32 114 -56 114 C-56 114.66 -56 115.32 -56 116 C-56.66 116 -57.32 116 -58 116 C-58 117.32 -58 118.64 -58 120 C-58.66 120 -59.32 120 -60 120 C-60 120.66 -60 121.32 -60 122 C-60.66 122 -61.32 122 -62 122 C-62 123.32 -62 124.64 -62 126 C-62.66 126 -63.32 126 -64 126 C-64 126.66 -64 127.32 -64 128 C-64.66 128 -65.32 128 -66 128 C-66 129.32 -66 130.64 -66 132 C-66.66 132 -67.32 132 -68 132 C-68 132.66 -68 133.32 -68 134 C-68.66 134 -69.32 134 -70 134 C-70 135.32 -70 136.64 -70 138 C-70.66 138 -71.32 138 -72 138 C-72 138.66 -72 139.32 -72 140 C-72.66 140 -73.32 140 -74 140 C-74 141.32 -74 142.64 -74 144 C-74.66 144 -75.32 144 -76 144 C-76 144.66 -76 145.32 -76 146 C-76.66 146 -77.32 146 -78 146 C-78 147.32 -78 148.64 -78 150 C-78.66 150 -79.32 150 -80 150 C-80 150.66 -80 151.32 -80 152 C-80.66 152 -81.32 152 -82 152 C-82 153.32 -82 154.64 -82 156 C-102.46 156 -122.92 156 -144 156 C-143.67 155.01 -143.34 154.02 -143 153 C-141.96762711 153.01118614 -141.96762711 153.01118614 -140.91439819 153.02259827 C-133.74365523 153.09146881 -126.57480387 153.09746837 -119.40380859 153.06713867 C-116.72751336 153.05902623 -114.05498232 153.07693391 -111.37841797 153.10620117 C-107.52962806 153.14550371 -103.68473967 153.1271547 -99.8359375 153.09765625 C-98.64197357 153.12223404 -97.44800964 153.14681183 -96.21786499 153.1721344 C-90.01245702 153.16749112 -90.01245702 153.16749112 -84.90753174 150.06369019 C-82.86264523 147.10637469 -81.31817146 144.38770299 -80.51107788 140.86756897 C-79.67163506 137.80009642 -77.25636915 136.14630236 -75 134 C-74.34 133.01 -73.68 132.02 -73 131 C-72.34 131 -71.68 131 -71 131 C-70.01 128.03 -70.01 128.03 -69 125 C-68.34 125 -67.68 125 -67 125 C-66.896875 124.071875 -66.79375 123.14375 -66.6875 122.1875 C-65.96879051 118.85530145 -65.50450848 118.10378712 -63 116 C-62.01 114.515 -62.01 114.515 -61 113 C-60.34 113 -59.68 113 -59 113 C-59 112.01 -59 111.02 -59 110 C-58.34 110 -57.68 110 -57 110 C-56.7834375 109.1028125 -56.7834375 109.1028125 -56.5625 108.1875 C-56.1127561 106.43849596 -55.57107659 104.71322977 -55 103 C-54.34 103 -53.68 103 -53 103 C-52.9175 102.4225 -52.835 101.845 -52.75 101.25 C-51.78601056 98.35803168 -50.15278177 97.15278177 -48 95 C-46.54584781 92.73195666 -45.27593982 90.37187153 -44 88 C-42.375 85.0625 -42.375 85.0625 -41 83 C-40.34 83 -39.68 83 -39 83 C-38.34 81.02 -37.68 79.04 -37 77 C-36.34 77 -35.68 77 -35 77 C-35 76.01 -35 75.02 -35 74 C-34.34 74 -33.68 74 -33 74 C-32.896875 73.2575 -32.79375 72.515 -32.6875 71.75 C-31.95066203 68.8026481 -31.05200858 67.21616926 -29 65 C-28.34 65 -27.68 65 -27 65 C-25.92525661 62.86041869 -24.86228106 60.71638079 -23.81640625 58.5625 C-23.19572266 57.2940625 -23.19572266 57.2940625 -22.5625 56 C-21.94568359 54.7315625 -21.94568359 54.7315625 -21.31640625 53.4375 C-20.04251312 51.07871865 -18.7575241 49.02466776 -17 47 C-16.34 47 -15.68 47 -15 47 C-15 45.68 -15 44.36 -15 43 C-14.34 43 -13.68 43 -13 43 C-12.71125 42.4225 -12.4225 41.845 -12.125 41.25 C-11.08333333 39.16666667 -10.04166667 37.08333333 -9 35 C-8.34 35 -7.68 35 -7 35 C-6.62875 33.4221875 -6.62875 33.4221875 -6.25 31.8125 C-5.21740482 28.1836655 -3.65228327 25.73516712 -1 23 C-0.34 23 0.32 23 1 23 C1.66 19.04 2.32 15.08 3 11 C2.34 11 1.68 11 1 11 C1 10.34 1 9.68 1 9 C0.34 9 -0.32 9 -1 9 C-1.433125 7.5459375 -1.433125 7.5459375 -1.875 6.0625 C-2.64214682 2.89335797 -2.64214682 2.89335797 -5 2 C-2 0 -2 0 0 0 Z " fill="#342E4A" transform="translate(183,209)"/>
<path d="M0 0 C0.598125 0.309375 1.19625 0.61875 1.8125 0.9375 C4.08956772 2.10209704 4.08956772 2.10209704 7 3 C7 3.99 7 4.98 7 6 C7.66 6 8.32 6 9 6 C9 6.66 9 7.32 9 8 C9.66 8 10.32 8 11 8 C11.17835515 12.54805635 10.99785435 15.8794254 9 20 C8.34 20 7.68 20 7 20 C6.731875 20.94875 6.46375 21.8975 6.1875 22.875 C5 26 5 26 2 28 C1.67 29.010625 1.34 30.02125 1 31.0625 C0.67 32.031875 0.34 33.00125 0 34 C-1.485 34.495 -1.485 34.495 -3 35 C-3 36.32 -3 37.64 -3 39 C-3.66 39 -4.32 39 -5 39 C-5.37125 40.3303125 -5.37125 40.3303125 -5.75 41.6875 C-7.04964625 45.13156256 -8.48729227 47.33024803 -11 50 C-11.66 50 -12.32 50 -13 50 C-13 51.32 -13 52.64 -13 54 C-13.66 54 -14.32 54 -15 54 C-15 54.66 -15 55.32 -15 56 C-15.66 56 -16.32 56 -17 56 C-17.185625 57.1446875 -17.185625 57.1446875 -17.375 58.3125 C-18 61 -18 61 -20 64 C-20.99 64 -21.98 64 -23 64 C-23 65.32 -23 66.64 -23 68 C-23.99 68 -24.98 68 -26 68 C-26.33 69.98 -26.66 71.96 -27 74 C-27.66 74 -28.32 74 -29 74 C-29.66 75.98 -30.32 77.96 -31 80 C-31.66 80 -32.32 80 -33 80 C-33.66 81.98 -34.32 83.96 -35 86 C-35.66 86 -36.32 86 -37 86 C-37.0825 86.5775 -37.165 87.155 -37.25 87.75 C-38 90 -38 90 -39.875 91.75 C-42.82050265 94.86876751 -43.64809717 97.94429151 -45 102 C-45.66 102 -46.32 102 -47 102 C-47 102.66 -47 103.32 -47 104 C-48.485 104.99 -48.485 104.99 -50 106 C-51.21284876 109.05429073 -51.21284876 109.05429073 -52 112 C-52.99 112 -53.98 112 -55 112 C-55 113.32 -55 114.64 -55 116 C-56.4375 117.5625 -56.4375 117.5625 -58 119 C-58.33 119.99 -58.66 120.98 -59 122 C-60.485 122.99 -60.485 122.99 -62 124 C-63.07136051 126.30144109 -64.07989717 128.6340213 -65 131 C-65.66 131 -66.32 131 -67 131 C-67 131.99 -67 132.98 -67 134 C-67.66 134 -68.32 134 -69 134 C-69.226875 134.61875 -69.45375 135.2375 -69.6875 135.875 C-71.37929835 138.61410209 -72.99244161 139.05024472 -76 140 C-76 139.01 -76 138.02 -76 137 C-75.34 137 -74.68 137 -74 137 C-74 136.34 -74 135.68 -74 135 C-73.34 135 -72.68 135 -72 135 C-72 133.68 -72 132.36 -72 131 C-71.34 131 -70.68 131 -70 131 C-70 130.34 -70 129.68 -70 129 C-69.34 129 -68.68 129 -68 129 C-68 127.68 -68 126.36 -68 125 C-67.34 125 -66.68 125 -66 125 C-66 124.34 -66 123.68 -66 123 C-65.34 123 -64.68 123 -64 123 C-64 121.68 -64 120.36 -64 119 C-63.34 119 -62.68 119 -62 119 C-62 118.34 -62 117.68 -62 117 C-61.34 117 -60.68 117 -60 117 C-60 115.68 -60 114.36 -60 113 C-59.34 113 -58.68 113 -58 113 C-58 112.34 -58 111.68 -58 111 C-57.34 111 -56.68 111 -56 111 C-56 109.68 -56 108.36 -56 107 C-55.34 107 -54.68 107 -54 107 C-54 106.34 -54 105.68 -54 105 C-53.34 105 -52.68 105 -52 105 C-52 103.68 -52 102.36 -52 101 C-51.34 101 -50.68 101 -50 101 C-50 100.34 -50 99.68 -50 99 C-49.34 99 -48.68 99 -48 99 C-48 97.68 -48 96.36 -48 95 C-47.34 95 -46.68 95 -46 95 C-46 94.34 -46 93.68 -46 93 C-45.34 93 -44.68 93 -44 93 C-44 91.68 -44 90.36 -44 89 C-43.34 89 -42.68 89 -42 89 C-42 88.34 -42 87.68 -42 87 C-41.34 87 -40.68 87 -40 87 C-40 85.68 -40 84.36 -40 83 C-39.34 83 -38.68 83 -38 83 C-38 82.34 -38 81.68 -38 81 C-37.34 81 -36.68 81 -36 81 C-36 79.68 -36 78.36 -36 77 C-35.34 77 -34.68 77 -34 77 C-34 76.34 -34 75.68 -34 75 C-33.34 75 -32.68 75 -32 75 C-32 73.68 -32 72.36 -32 71 C-31.34 71 -30.68 71 -30 71 C-30 70.34 -30 69.68 -30 69 C-29.34 69 -28.68 69 -28 69 C-28 67.68 -28 66.36 -28 65 C-27.34 65 -26.68 65 -26 65 C-26 64.34 -26 63.68 -26 63 C-25.34 63 -24.68 63 -24 63 C-24 61.68 -24 60.36 -24 59 C-23.34 59 -22.68 59 -22 59 C-22 58.34 -22 57.68 -22 57 C-21.34 57 -20.68 57 -20 57 C-20 55.68 -20 54.36 -20 53 C-19.34 53 -18.68 53 -18 53 C-18 52.34 -18 51.68 -18 51 C-17.34 51 -16.68 51 -16 51 C-16 49.68 -16 48.36 -16 47 C-15.34 47 -14.68 47 -14 47 C-14 46.34 -14 45.68 -14 45 C-13.34 45 -12.68 45 -12 45 C-12 43.68 -12 42.36 -12 41 C-11.34 41 -10.68 41 -10 41 C-10 40.34 -10 39.68 -10 39 C-9.34 39 -8.68 39 -8 39 C-8 37.68 -8 36.36 -8 35 C-7.34 35 -6.68 35 -6 35 C-6 34.34 -6 33.68 -6 33 C-5.34 33 -4.68 33 -4 33 C-4 31.68 -4 30.36 -4 29 C-3.34 29 -2.68 29 -2 29 C-2 28.34 -2 27.68 -2 27 C-1.34 27 -0.68 27 0 27 C0 25.68 0 24.36 0 23 C0.66 23 1.32 23 2 23 C2 22.34 2 21.68 2 21 C2.66 21 3.32 21 4 21 C4 19.68 4 18.36 4 17 C4.66 17 5.32 17 6 17 C6 16.34 6 15.68 6 15 C6.66 15 7.32 15 8 15 C8 13.68 8 12.36 8 11 C7.34 11 6.68 11 6 11 C6 10.34 6 9.68 6 9 C5.34 9 4.68 9 4 9 C4 7.68 4 6.36 4 5 C3.34 5 2.68 5 2 5 C2 4.34 2 3.68 2 3 C1.34 3 0.68 3 0 3 C0 2.01 0 1.02 0 0 Z " fill="#4D446C" transform="translate(203,212)"/>
<path d="M0 0 C24.42 0 48.84 0 74 0 C74 1.32 74 2.64 74 4 C74.66 4 75.32 4 76 4 C76 4.66 76 5.32 76 6 C76.66 6 77.32 6 78 6 C78 7.32 78 8.64 78 10 C78.66 10 79.32 10 80 10 C79.67 11.98 79.34 13.96 79 16 C78.34 16 77.68 16 77 16 C77 15.01 77 14.02 77 13 C76.01 13 75.02 13 74 13 C72.74231289 9.98155093 71.79802815 7.1921126 71 4 C39.32 3.505 39.32 3.505 7 3 C7 4.32 7 5.64 7 7 C7.66 7 8.32 7 9 7 C9 8.32 9 9.64 9 11 C10.32 11.66 11.64 12.32 13 13 C13 13.99 13 14.98 13 16 C14.32 16.66 15.64 17.32 17 18 C17 19.65 17 21.3 17 23 C17.598125 23.226875 18.19625 23.45375 18.8125 23.6875 C21.64276332 25.38565799 22.56000848 27.05144593 24 30 C24.6875 32.8125 24.6875 32.8125 25 35 C25.66 35 26.32 35 27 35 C28.85776765 38.13498292 29.20140476 40.37471432 29 44 C28.01 44 27.02 44 26 44 C26 42.68 26 41.36 26 40 C25.34 40 24.68 40 24 40 C24 39.34 24 38.68 24 38 C23.34 38 22.68 38 22 38 C22 36.68 22 35.36 22 34 C21.34 34 20.68 34 20 34 C20 33.34 20 32.68 20 32 C19.34 32 18.68 32 18 32 C18 30.68 18 29.36 18 28 C17.34 28 16.68 28 16 28 C16 27.34 16 26.68 16 26 C15.34 26 14.68 26 14 26 C14 24.68 14 23.36 14 22 C13.34 22 12.68 22 12 22 C12 21.34 12 20.68 12 20 C11.34 20 10.68 20 10 20 C10 18.68 10 17.36 10 16 C9.34 16 8.68 16 8 16 C8 15.34 8 14.68 8 14 C7.34 14 6.68 14 6 14 C6 12.68 6 11.36 6 10 C5.34 10 4.68 10 4 10 C4 9.34 4 8.68 4 8 C3.34 8 2.68 8 2 8 C2 6.68 2 5.36 2 4 C1.34 4 0.68 4 0 4 C0 2.68 0 1.36 0 0 Z " fill="#342D4C" transform="translate(27,85)"/>
<path d="M0 0 C-0.74468085 7.74468085 -0.74468085 7.74468085 -4 11 C-4.66 11 -5.32 11 -6 11 C-6.33 12.65 -6.66 14.3 -7 16 C-7.99 16.33 -8.98 16.66 -10 17 C-10.103125 17.7425 -10.20625 18.485 -10.3125 19.25 C-11.04933797 22.1973519 -11.94799142 23.78383074 -14 26 C-14.66 26 -15.32 26 -16 26 C-16.103125 26.5775 -16.20625 27.155 -16.3125 27.75 C-17.10896465 30.35661158 -18.19065277 31.9735311 -20 34 C-20.66 34 -21.32 34 -22 34 C-22.144375 34.61875 -22.28875 35.2375 -22.4375 35.875 C-23 38 -23 38 -24 40 C-24.66 40 -25.32 40 -26 40 C-26.1546875 41.0828125 -26.1546875 41.0828125 -26.3125 42.1875 C-27.06793947 45.27793421 -28.15531315 47.41743841 -30 50 C-30.66 50 -31.32 50 -32 50 C-32 50.66 -32 51.32 -32 52 C-32.66 52 -33.32 52 -34 52 C-34.020625 52.804375 -34.04125 53.60875 -34.0625 54.4375 C-35.22285422 58.84684602 -37.36610713 61.28637725 -40.2265625 64.765625 C-42.54812687 67.69059156 -44.20829711 70.72550851 -46 74 C-47.25461193 76.09256307 -48.5552166 78.02546269 -50 80 C-50.66 80 -51.32 80 -52 80 C-52 80.66 -52 81.32 -52 82 C-52.66 82 -53.32 82 -54 82 C-54.33 83.65 -54.66 85.3 -55 87 C-57.97 87.99 -57.97 87.99 -61 89 C-61 87.68 -61 86.36 -61 85 C-60.34 85 -59.68 85 -59 85 C-59 84.34 -59 83.68 -59 83 C-58.34 83 -57.68 83 -57 83 C-57 81.68 -57 80.36 -57 79 C-56.34 79 -55.68 79 -55 79 C-55 78.34 -55 77.68 -55 77 C-54.34 77 -53.68 77 -53 77 C-53 75.68 -53 74.36 -53 73 C-52.34 73 -51.68 73 -51 73 C-51 72.34 -51 71.68 -51 71 C-50.34 71 -49.68 71 -49 71 C-49 69.68 -49 68.36 -49 67 C-48.34 67 -47.68 67 -47 67 C-47 66.34 -47 65.68 -47 65 C-46.34 65 -45.68 65 -45 65 C-45 63.68 -45 62.36 -45 61 C-44.34 61 -43.68 61 -43 61 C-43 60.34 -43 59.68 -43 59 C-42.34 59 -41.68 59 -41 59 C-41 57.68 -41 56.36 -41 55 C-40.34 55 -39.68 55 -39 55 C-39 54.34 -39 53.68 -39 53 C-38.34 53 -37.68 53 -37 53 C-37 51.68 -37 50.36 -37 49 C-36.34 49 -35.68 49 -35 49 C-35 48.34 -35 47.68 -35 47 C-34.34 47 -33.68 47 -33 47 C-33 45.68 -33 44.36 -33 43 C-32.34 43 -31.68 43 -31 43 C-31 42.34 -31 41.68 -31 41 C-30.34 41 -29.68 41 -29 41 C-29 39.68 -29 38.36 -29 37 C-28.34 37 -27.68 37 -27 37 C-27 36.34 -27 35.68 -27 35 C-26.34 35 -25.68 35 -25 35 C-25 33.68 -25 32.36 -25 31 C-24.34 31 -23.68 31 -23 31 C-23 30.34 -23 29.68 -23 29 C-22.34 29 -21.68 29 -21 29 C-21 27.68 -21 26.36 -21 25 C-20.34 25 -19.68 25 -19 25 C-19 24.34 -19 23.68 -19 23 C-18.34 23 -17.68 23 -17 23 C-17 21.68 -17 20.36 -17 19 C-16.34 19 -15.68 19 -15 19 C-15 18.34 -15 17.68 -15 17 C-14.34 17 -13.68 17 -13 17 C-13 15.68 -13 14.36 -13 13 C-12.34 13 -11.68 13 -11 13 C-11 12.34 -11 11.68 -11 11 C-10.34 11 -9.68 11 -9 11 C-9 9.68 -9 8.36 -9 7 C-8.34 7 -7.68 7 -7 7 C-7 6.34 -7 5.68 -7 5 C-6.34 5 -5.68 5 -5 5 C-5 4.01 -5 3.02 -5 2 C-1.125 0 -1.125 0 0 0 Z " fill="#342B4B" transform="translate(122,224)"/>
<path d="M0 0 C43.23 0 86.46 0 131 0 C130.34 0.99 129.68 1.98 129 3 C127.03599358 3.36914349 127.03599358 3.36914349 124.58346558 3.36076355 C123.19100616 3.36694954 123.19100616 3.36694954 121.77041626 3.3732605 C120.23833023 3.35708176 120.23833023 3.35708176 118.67529297 3.34057617 C117.60210815 3.34101425 116.52892334 3.34145233 115.42321777 3.34190369 C111.86269166 3.33980741 108.30263173 3.31643642 104.7421875 3.29296875 C102.27882138 3.28737579 99.81545194 3.28310428 97.3520813 3.28010559 C90.85824422 3.26863325 84.36460739 3.23914539 77.87084961 3.20599365 C71.24856272 3.17534428 64.62624357 3.16161124 58.00390625 3.14648438 C45.00251857 3.11427809 32.00126992 3.06362686 19 3 C19 3.66 19 4.32 19 5 C16.03 5 13.06 5 10 5 C10 4.34 10 3.68 10 3 C6.88214887 3.64644661 6.88214887 3.64644661 6 6 C5.34 6 4.68 6 4 6 C4 7.32 4 8.64 4 10 C3.34 10 2.68 10 2 10 C2 8.68 2 7.36 2 6 C1.34 6 0.68 6 0 6 C0 4.02 0 2.04 0 0 Z " fill="#82557F" transform="translate(267,165)"/>
<path d="M0 0 C0.66 1.98 1.32 3.96 2 6 C4.64 6 7.28 6 10 6 C10.33 6.66 10.66 7.32 11 8 C19.01467964 8.06953428 27.02923307 8.1228284 35.04413986 8.15543652 C38.76586314 8.17108742 42.48737993 8.19231478 46.20898438 8.22631836 C49.80107908 8.25893295 53.39297525 8.27685734 56.9852066 8.28463173 C58.35514704 8.29017152 59.72507671 8.30098952 61.09493256 8.31719017 C63.01467783 8.33898955 64.93462318 8.34022562 66.85449219 8.34057617 C67.94703308 8.34723801 69.03957397 8.35389984 70.16522217 8.36076355 C73.37434725 7.95235928 74.72037756 7.26306349 77 5 C77.33 4.01 77.66 3.02 78 2 C78.99 2 79.98 2 81 2 C81 4.97 81 7.94 81 11 C54.6 11 28.2 11 1 11 C1 10.34 1 9.68 1 9 C0.34 9 -0.32 9 -1 9 C-1 7.68 -1 6.36 -1 5 C-1.66 5 -2.32 5 -3 5 C-3 4.34 -3 3.68 -3 3 C-3.66 3 -4.32 3 -5 3 C-3.7124791 0.4249582 -2.85933002 0 0 0 Z " fill="#885588" transform="translate(342,274)"/>
<path d="M0 0 C0 1.98 0 3.96 0 6 C-0.66 6 -1.32 6 -2 6 C-2 6.66 -2 7.32 -2 8 C-2.66 8 -3.32 8 -4 8 C-4 9.32 -4 10.64 -4 12 C-4.66 12 -5.32 12 -6 12 C-6 12.66 -6 13.32 -6 14 C-6.66 14 -7.32 14 -8 14 C-8 15.32 -8 16.64 -8 18 C-8.66 18 -9.32 18 -10 18 C-10 18.66 -10 19.32 -10 20 C-10.66 20 -11.32 20 -12 20 C-12 21.32 -12 22.64 -12 24 C-12.66 24 -13.32 24 -14 24 C-14 24.66 -14 25.32 -14 26 C-14.66 26 -15.32 26 -16 26 C-16 27.32 -16 28.64 -16 30 C-16.66 30 -17.32 30 -18 30 C-18 30.66 -18 31.32 -18 32 C-18.66 32 -19.32 32 -20 32 C-20 33.32 -20 34.64 -20 36 C-20.66 36 -21.32 36 -22 36 C-22 36.66 -22 37.32 -22 38 C-22.66 38 -23.32 38 -24 38 C-24 39.32 -24 40.64 -24 42 C-24.66 42 -25.32 42 -26 42 C-26 42.66 -26 43.32 -26 44 C-26.66 44 -27.32 44 -28 44 C-28 45.32 -28 46.64 -28 48 C-28.66 48 -29.32 48 -30 48 C-30 48.66 -30 49.32 -30 50 C-30.66 50 -31.32 50 -32 50 C-32 51.32 -32 52.64 -32 54 C-32.66 54 -33.32 54 -34 54 C-34 54.66 -34 55.32 -34 56 C-34.66 56 -35.32 56 -36 56 C-36 57.32 -36 58.64 -36 60 C-36.66 60 -37.32 60 -38 60 C-39 57 -39 57 -38.3125 55.1875 C-37.28978015 53.48296692 -36.19019506 51.82447671 -35.0625 50.1875 C-32.93080202 46.89305767 -31.51116844 43.61366367 -30 40 C-28.4375 37.0625 -28.4375 37.0625 -27 35 C-26.34 35 -25.68 35 -25 35 C-24.855625 34.38125 -24.71125 33.7625 -24.5625 33.125 C-24 31 -24 31 -23 29 C-22.34 29 -21.68 29 -21 29 C-20.896875 28.4225 -20.79375 27.845 -20.6875 27.25 C-19.89103535 24.64338842 -18.80934723 23.0264689 -17 21 C-16.34 21 -15.68 21 -15 21 C-15 19.68 -15 18.36 -15 17 C-14.34 17 -13.68 17 -13 17 C-13 15.68 -13 14.36 -13 13 C-11.125 10.75 -11.125 10.75 -9 9 C-8.34 9 -7.68 9 -7 9 C-7.12375 7.88625 -7.12375 7.88625 -7.25 6.75 C-7 4 -7 4 -5.1875 1.6875 C-3 0 -3 0 0 0 Z " fill="#514674" transform="translate(247,279)"/>
<path d="M0 0 C2.31 0 4.62 0 7 0 C7 0.66 7 1.32 7 2 C7.66 2 8.32 2 9 2 C9 3.32 9 4.64 9 6 C9.66 6 10.32 6 11 6 C11 6.66 11 7.32 11 8 C11.66 8 12.32 8 13 8 C13 9.32 13 10.64 13 12 C13.66 12 14.32 12 15 12 C15 12.66 15 13.32 15 14 C15.66 14 16.32 14 17 14 C17 15.32 17 16.64 17 18 C17.66 18 18.32 18 19 18 C19 18.66 19 19.32 19 20 C19.66 20 20.32 20 21 20 C21 21.32 21 22.64 21 24 C21.66 24 22.32 24 23 24 C23 24.66 23 25.32 23 26 C23.66 26 24.32 26 25 26 C25 27.32 25 28.64 25 30 C25.66 30 26.32 30 27 30 C27 30.66 27 31.32 27 32 C27.66 32 28.32 32 29 32 C29 33.32 29 34.64 29 36 C29.66 36 30.32 36 31 36 C31 36.66 31 37.32 31 38 C31.66 38 32.32 38 33 38 C33 38.66 33 39.32 33 40 C30.525 40.495 30.525 40.495 28 41 C24 36.375 24 36.375 24 33 C23.34 33 22.68 33 22 33 C22 32.01 22 31.02 22 30 C21.34 30 20.68 30 20 30 C20 28.35 20 26.7 20 25 C19.01 25 18.02 25 17 25 C17 23.68 17 22.36 17 21 C16.01 21 15.02 21 14 21 C11.09677182 17.35022743 10 15.74147821 10 11 C9.34 11 8.68 11 8 11 C8 10.34 8 9.68 8 9 C7.34 9 6.68 9 6 9 C6 7.68 6 6.36 6 5 C5.34 5 4.68 5 4 5 C4 4.01 4 3.02 4 2 C2.68 2 1.36 2 0 2 C0 1.34 0 0.68 0 0 Z " fill="#494063" transform="translate(186,85)"/>
<path d="M0 0 C0.66 0 1.32 0 2 0 C2 0.66 2 1.32 2 2 C2.66 2 3.32 2 4 2 C4 3.32 4 4.64 4 6 C4.66 6 5.32 6 6 6 C6 6.66 6 7.32 6 8 C6.66 8 7.32 8 8 8 C8 9.32 8 10.64 8 12 C8.66 12 9.32 12 10 12 C10 12.66 10 13.32 10 14 C10.66 14 11.32 14 12 14 C12 15.32 12 16.64 12 18 C12.66 18 13.32 18 14 18 C14 18.66 14 19.32 14 20 C14.66 20 15.32 20 16 20 C16 21.32 16 22.64 16 24 C16.66 24 17.32 24 18 24 C18 24.66 18 25.32 18 26 C18.66 26 19.32 26 20 26 C20 27.32 20 28.64 20 30 C20.66 30 21.32 30 22 30 C22 30.66 22 31.32 22 32 C22.66 32 23.32 32 24 32 C24 33.32 24 34.64 24 36 C24.66 36 25.32 36 26 36 C26 36.66 26 37.32 26 38 C26.66 38 27.32 38 28 38 C27.125 42.75 27.125 42.75 26 45 C25.34 45 24.68 45 24 45 C24.33 43.68 24.66 42.36 25 41 C24.34 41 23.68 41 23 41 C23 40.34 23 39.68 23 39 C22.34 39 21.68 39 21 39 C21 37.68 21 36.36 21 35 C20.34 35 19.68 35 19 35 C19 34.34 19 33.68 19 33 C18.34 33 17.68 33 17 33 C17 31.68 17 30.36 17 29 C16.34 29 15.68 29 15 29 C15 28.34 15 27.68 15 27 C14.34 27 13.68 27 13 27 C13 26.01 13 25.02 13 24 C12.34 24 11.68 24 11 24 C11 23.01 11 22.02 11 21 C10.34 21 9.68 21 9 21 C9 19.02 9 17.04 9 15 C7.68 15 6.36 15 5 15 C3.55078125 13.390625 3.55078125 13.390625 2.3125 11.25 C1.89613281 10.55390625 1.47976562 9.8578125 1.05078125 9.140625 C-0.70291367 5.56804204 -1.28274767 3.84824301 0 0 Z " fill="#332D48" transform="translate(129,131)"/>
<path d="M0 0 C0.33 0.66 0.66 1.32 1 2 C1.66 2 2.32 2 3 2 C3 3.32 3 4.64 3 6 C3.66 6 4.32 6 5 6 C5 6.66 5 7.32 5 8 C5.66 8 6.32 8 7 8 C7 9.32 7 10.64 7 12 C7.66 12 8.32 12 9 12 C9 12.66 9 13.32 9 14 C9.66 14 10.32 14 11 14 C11 15.32 11 16.64 11 18 C11.66 18 12.32 18 13 18 C13 18.66 13 19.32 13 20 C13.66 20 14.32 20 15 20 C15 21.32 15 22.64 15 24 C15.66 24 16.32 24 17 24 C17 24.66 17 25.32 17 26 C17.66 26 18.32 26 19 26 C19 27.32 19 28.64 19 30 C19.66 30 20.32 30 21 30 C21 30.66 21 31.32 21 32 C21.66 32 22.32 32 23 32 C23 33.32 23 34.64 23 36 C23.66 36.33 24.32 36.66 25 37 C24.34 37 23.68 37 23 37 C22.67 38.32 22.34 39.64 22 41 C22 40.34 22 39.68 22 39 C21.34 39 20.68 39 20 39 C20 38.01 20 37.02 20 36 C19.34 36 18.68 36 18 36 C18 35.34 18 34.68 18 34 C17.34 34 16.68 34 16 34 C16 32.35 16 30.7 16 29 C15.34 29 14.68 29 14 29 C14 28.34 14 27.68 14 27 C13.34 27 12.68 27 12 27 C12 25.68 12 24.36 12 23 C11.34 23 10.68 23 10 23 C8 20 8 20 8 17 C6.68 16.34 5.36 15.68 4 15 C4 13.68 4 12.36 4 11 C3.34 11 2.68 11 2 11 C2 10.34 2 9.68 2 9 C1.01 8.67 0.02 8.34 -1 8 C-1.04241723 5.66705225 -1.04092937 3.33297433 -1 1 C-0.67 0.67 -0.34 0.34 0 0 Z " fill="#4B4163" transform="translate(308,259)"/>
<path d="M0 0 C0.66 0 1.32 0 2 0 C2 0.66 2 1.32 2 2 C2.66 2 3.32 2 4 2 C4 3.32 4 4.64 4 6 C4.66 6 5.32 6 6 6 C6 6.66 6 7.32 6 8 C6.66 8 7.32 8 8 8 C8 9.32 8 10.64 8 12 C8.66 12 9.32 12 10 12 C10 12.66 10 13.32 10 14 C10.66 14 11.32 14 12 14 C12 15.32 12 16.64 12 18 C12.66 18 13.32 18 14 18 C14 18.66 14 19.32 14 20 C14.66 20 15.32 20 16 20 C16 21.32 16 22.64 16 24 C16.66 24 17.32 24 18 24 C18 24.66 18 25.32 18 26 C18.66 26 19.32 26 20 26 C20 27.32 20 28.64 20 30 C20.66 30 21.32 30 22 30 C22 30.66 22 31.32 22 32 C22.66 32 23.32 32 24 32 C24 32.66 24 33.32 24 34 C22.35 34.66 20.7 35.32 19 36 C17 33 17 33 17 29 C16.34 29 15.68 29 15 29 C15 28.34 15 27.68 15 27 C14.34 27 13.68 27 13 27 C12.6596875 25.576875 12.6596875 25.576875 12.3125 24.125 C11.30916286 20.80676612 11.30916286 20.80676612 8.375 19.625 C7.199375 19.315625 7.199375 19.315625 6 19 C5.67 16.36 5.34 13.72 5 11 C4.34 11 3.68 11 3 11 C3 10.34 3 9.68 3 9 C2.34 9 1.68 9 1 9 C1.33 7.02 1.66 5.04 2 3 C1.01 3 0.02 3 -1 3 C-0.67 2.01 -0.34 1.02 0 0 Z " fill="#4A3F62" transform="translate(243,163)"/>
<path d="M0 0 C1.65 0 3.3 0 5 0 C5 0.66 5 1.32 5 2 C5.66 2 6.32 2 7 2 C7.66 3.98 8.32 5.96 9 8 C9.66 8 10.32 8 11 8 C11 8.99 11 9.98 11 11 C11.66 11 12.32 11 13 11 C13 11.99 13 12.98 13 14 C13.66 14 14.32 14 15 14 C15 15.32 15 16.64 15 18 C15.66 18 16.32 18 17 18 C17 18.66 17 19.32 17 20 C17.99 20 18.98 20 20 20 C19.67 21.32 19.34 22.64 19 24 C19.99 24.33 20.98 24.66 22 25 C21.34 26.32 20.68 27.64 20 29 C19.34 29 18.68 29 18 29 C18 28.34 18 27.68 18 27 C17.34 27 16.68 27 16 27 C16 25.68 16 24.36 16 23 C15.34 23 14.68 23 14 23 C14 22.34 14 21.68 14 21 C13.34 21 12.68 21 12 21 C12 19.68 12 18.36 12 17 C11.34 17 10.68 17 10 17 C10 16.34 10 15.68 10 15 C9.34 15 8.68 15 8 15 C8 13.68 8 12.36 8 11 C7.34 11 6.68 11 6 11 C6 10.34 6 9.68 6 9 C5.34 9 4.68 9 4 9 C4 7.68 4 6.36 4 5 C3.34 5 2.68 5 2 5 C2 4.34 2 3.68 2 3 C1.34 3 0.68 3 0 3 C0 2.01 0 1.02 0 0 Z " fill="#50466E" transform="translate(267,308)"/>
<path d="M0 0 C0 0.66 0 1.32 0 2 C-0.66 2 -1.32 2 -2 2 C-2 3.32 -2 4.64 -2 6 C-2.66 6 -3.32 6 -4 6 C-4 6.66 -4 7.32 -4 8 C-4.66 8 -5.32 8 -6 8 C-6 9.32 -6 10.64 -6 12 C-6.66 12 -7.32 12 -8 12 C-8 12.66 -8 13.32 -8 14 C-8.66 14 -9.32 14 -10 14 C-10 15.32 -10 16.64 -10 18 C-10.66 18 -11.32 18 -12 18 C-12 18.66 -12 19.32 -12 20 C-12.66 20 -13.32 20 -14 20 C-14 21.32 -14 22.64 -14 24 C-14.66 24 -15.32 24 -16 24 C-16 24.66 -16 25.32 -16 26 C-16.99 26 -17.98 26 -19 26 C-19 25.34 -19 24.68 -19 24 C-19.66 23.67 -20.32 23.34 -21 23 C-20.34 22.67 -19.68 22.34 -19 22 C-18.835 21.175 -18.67 20.35 -18.5 19.5 C-18.335 18.675 -18.17 17.85 -18 17 C-17.34 16.67 -16.68 16.34 -16 16 C-15.814375 15.1028125 -15.814375 15.1028125 -15.625 14.1875 C-14.78091355 11.23319744 -13.25499803 10.06708153 -11 8 C-10.154375 7.154375 -9.30875 6.30875 -8.4375 5.4375 C-7.633125 4.633125 -6.82875 3.82875 -6 3 C-5.195625 2.1028125 -5.195625 2.1028125 -4.375 1.1875 C-3 0 -3 0 0 0 Z " fill="#4C4269" transform="translate(209,339)"/>
<path d="M0 0 C1.32 0 2.64 0 4 0 C4.0825 0.94875 4.165 1.8975 4.25 2.875 C4.65074923 6.10461791 4.65074923 6.10461791 7.0625 7.375 C7.701875 7.58125 8.34125 7.7875 9 8 C9 8.99 9 9.98 9 11 C9.99 11.33 10.98 11.66 12 12 C12.33 13.98 12.66 15.96 13 18 C13.99 18.33 14.98 18.66 16 19 C17.60769874 21.33116317 18.09530596 22.42816426 17.625 25.25 C17.315625 26.11625 17.315625 26.11625 17 27 C16.01 27 15.02 27 14 27 C14 25.68 14 24.36 14 23 C13.34 23 12.68 23 12 23 C12 22.34 12 21.68 12 21 C11.34 21 10.68 21 10 21 C10 19.68 10 18.36 10 17 C9.34 17 8.68 17 8 17 C8 16.34 8 15.68 8 15 C7.34 15 6.68 15 6 15 C6 13.68 6 12.36 6 11 C5.34 11 4.68 11 4 11 C4 10.34 4 9.68 4 9 C3.34 9 2.68 9 2 9 C2 7.68 2 6.36 2 5 C1.34 5 0.68 5 0 5 C0 3.35 0 1.7 0 0 Z " fill="#33284C" transform="translate(103,198)"/>
<path d="M0 0 C0 0.66 0 1.32 0 2 C0.66 2 1.32 2 2 2 C2 2.99 2 3.98 2 5 C3.32 5.66 4.64 6.32 6 7 C6 8.65 6 10.3 6 12 C6.66 12 7.32 12 8 12 C8 12.66 8 13.32 8 14 C8.66 14 9.32 14 10 14 C12.66590937 18.55426184 13.31563182 21.73946963 13 27 C12.34 27 11.68 27 11 27 C11 25.68 11 24.36 11 23 C10.34 23 9.68 23 9 23 C9 22.34 9 21.68 9 21 C8.34 21 7.68 21 7 21 C7 19.68 7 18.36 7 17 C6.34 17 5.68 17 5 17 C5 16.34 5 15.68 5 15 C4.34 15 3.68 15 3 15 C3 13.68 3 12.36 3 11 C2.34 11 1.68 11 1 11 C1 10.34 1 9.68 1 9 C0.34 9 -0.32 9 -1 9 C-1 7.68 -1 6.36 -1 5 C-1.66 5 -2.32 5 -3 5 C-3 4.34 -3 3.68 -3 3 C-3.66 3 -4.32 3 -5 3 C-5 2.34 -5 1.68 -5 1 C-3 0 -3 0 0 0 Z " fill="#332A48" transform="translate(70,144)"/>
<path d="M0 0 C1.65 0.66 3.3 1.32 5 2 C4.01 2.495 4.01 2.495 3 3 C3.12375 3.680625 3.2475 4.36125 3.375 5.0625 C2.82026838 9.4078977 0.21013034 12.11420926 -3 15 C-3.66 15 -4.32 15 -5 15 C-5.268125 15.721875 -5.53625 16.44375 -5.8125 17.1875 C-8.25842357 22.98047687 -10.06825239 25.49548434 -16 28 C-16 26.68 -16 25.36 -16 24 C-15.34 24 -14.68 24 -14 24 C-14 23.34 -14 22.68 -14 22 C-13.34 22 -12.68 22 -12 22 C-12 20.68 -12 19.36 -12 18 C-11.34 18 -10.68 18 -10 18 C-10 17.34 -10 16.68 -10 16 C-9.34 16 -8.68 16 -8 16 C-8 14.68 -8 13.36 -8 12 C-7.34 12 -6.68 12 -6 12 C-6 11.34 -6 10.68 -6 10 C-5.34 10 -4.68 10 -4 10 C-4 8.68 -4 7.36 -4 6 C-3.34 6 -2.68 6 -2 6 C-2 5.34 -2 4.68 -2 4 C-1.34 4 -0.68 4 0 4 C0 2.68 0 1.36 0 0 Z " fill="#31264D" transform="translate(53,321)"/>
<path d="M0 0 C0.66 0 1.32 0 2 0 C2 0.66 2 1.32 2 2 C2.66 2 3.32 2 4 2 C4 3.32 4 4.64 4 6 C4.66 6 5.32 6 6 6 C6 6.66 6 7.32 6 8 C6.66 8 7.32 8 8 8 C8 9.32 8 10.64 8 12 C8.66 12 9.32 12 10 12 C10 13.32 10 14.64 10 16 C3.07 16 -3.86 16 -11 16 C-11 15.34 -11 14.68 -11 14 C-7.11498265 12.05749132 -2.25705445 12.34650443 2 12 C1.34 8.04 0.68 4.08 0 0 Z " fill="#4D4466" transform="translate(367,349)"/>
<path d="M0 0 C0 0.66 0 1.32 0 2 C0.66 2 1.32 2 2 2 C2 3.32 2 4.64 2 6 C2.66 6 3.32 6 4 6 C4 6.66 4 7.32 4 8 C4.66 8 5.32 8 6 8 C6 9.32 6 10.64 6 12 C6.66 12 7.32 12 8 12 C8 12.66 8 13.32 8 14 C8.66 14 9.32 14 10 14 C10 15.32 10 16.64 10 18 C10.66 18 11.32 18 12 18 C11.67 18.99 11.34 19.98 11 21 C9.68 21 8.36 21 7 21 C6.34 19.02 5.68 17.04 5 15 C4.01 15 3.02 15 2 15 C1.67 13.02 1.34 11.04 1 9 C0.34 9 -0.32 9 -1 9 C-1 7.68 -1 6.36 -1 5 C-1.66 5 -2.32 5 -3 5 C-3 4.34 -3 3.68 -3 3 C-3.66 3 -4.32 3 -5 3 C-5 2.34 -5 1.68 -5 1 C-3 0 -3 0 0 0 Z " fill="#322D47" transform="translate(115,107)"/>
<path d="M0 0 C2 3 2 3 2 6 C2.66 6 3.32 6 4 6 C4 6.66 4 7.32 4 8 C4.66 8 5.32 8 6 8 C10 14.625 10 14.625 10 18 C10.66 18 11.32 18 12 18 C11.67 19.65 11.34 21.3 11 23 C10.34 23 9.68 23 9 23 C9 22.34 9 21.68 9 21 C8.34 21 7.68 21 7 21 C7 19.68 7 18.36 7 17 C6.34 17 5.68 17 5 17 C5 16.34 5 15.68 5 15 C4.34 15 3.68 15 3 15 C3 13.68 3 12.36 3 11 C2.34 11 1.68 11 1 11 C1 10.34 1 9.68 1 9 C0.34 9 -0.32 9 -1 9 C-1 7.68 -1 6.36 -1 5 C-1.66 5 -2.32 5 -3 5 C-3 4.34 -3 3.68 -3 3 C-3.66 3 -4.32 3 -5 3 C-5 2.34 -5 1.68 -5 1 C-2 0 -2 0 0 0 Z " fill="#50456F" transform="translate(176,164)"/>
<path d="M0 0 C10.23 0 20.46 0 31 0 C31 0.66 31 1.32 31 2 C32.32 2.33 33.64 2.66 35 3 C23.45 3 11.9 3 0 3 C0 2.01 0 1.02 0 0 Z " fill="#8A5C8B" transform="translate(353,235)"/>
<path d="M0 0 C0.66 0 1.32 0 2 0 C2 1.32 2 2.64 2 4 C2.66 4 3.32 4 4 4 C4 4.66 4 5.32 4 6 C4.66 6 5.32 6 6 6 C6 7.32 6 8.64 6 10 C6.66 10 7.32 10 8 10 C8 10.66 8 11.32 8 12 C8.66 12 9.32 12 10 12 C10 13.32 10 14.64 10 16 C10.66 16 11.32 16 12 16 C12 16.66 12 17.32 12 18 C12.66 18 13.32 18 14 18 C13 20 13 20 10 22 C6.9083091 19.47043472 6.09068668 16.77545388 5 13 C4.34 13 3.68 13 3 13 C3 11.68 3 10.36 3 9 C2.34 9 1.68 9 1 9 C1 8.34 1 7.68 1 7 C0.34 7 -0.32 7 -1 7 C-0.67 4.69 -0.34 2.38 0 0 Z " fill="#4A4063" transform="translate(349,321)"/>
<path d="M0 0 C0.99 0.33 1.98 0.66 3 1 C3 1.99 3 2.98 3 4 C3.66 4 4.32 4 5 4 C5 4.99 5 5.98 5 7 C5.99 7 6.98 7 8 7 C8.33 8.98 8.66 10.96 9 13 C9.66 13 10.32 13 11 13 C11 13.99 11 14.98 11 16 C11.99 16 12.98 16 14 16 C13.67 17.32 13.34 18.64 13 20 C12.01 20 11.02 20 10 20 C10 19.34 10 18.68 10 18 C9.34 18 8.68 18 8 18 C8 17.34 8 16.68 8 16 C7.34 16 6.68 16 6 16 C6 14.68 6 13.36 6 12 C5.34 12 4.68 12 4 12 C4 11.34 4 10.68 4 10 C3.34 10 2.68 10 2 10 C2 8.68 2 7.36 2 6 C1.34 6 0.68 6 0 6 C0 5.34 0 4.68 0 4 C-0.66 4 -1.32 4 -2 4 C-2 3.34 -2 2.68 -2 2 C-1.34 2 -0.68 2 0 2 C0 1.34 0 0.68 0 0 Z " fill="#784B74" transform="translate(287,195)"/>
<path d="M0 0 C2.475 0.495 2.475 0.495 5 1 C5 1.66 5 2.32 5 3 C5.66 3 6.32 3 7 3 C9 6 9 6 9 9 C9.66 9 10.32 9 11 9 C11 9.66 11 10.32 11 11 C11.66 11 12.32 11 13 11 C15 14 15 14 14.75 16.0625 C14 18 14 18 12 20 C12 19.34 12 18.68 12 18 C11.34 18 10.68 18 10 18 C10 16.68 10 15.36 10 14 C9.34 14 8.68 14 8 14 C8 13.34 8 12.68 8 12 C7.34 12 6.68 12 6 12 C6 10.68 6 9.36 6 8 C5.34 8 4.68 8 4 8 C4 7.34 4 6.68 4 6 C3.34 6 2.68 6 2 6 C2 4.68 2 3.36 2 2 C1.34 2 0.68 2 0 2 C0 1.34 0 0.68 0 0 Z " fill="#4F4470" transform="translate(137,113)"/>
<path d="M0 0 C1.32 0 2.64 0 4 0 C4 0.66 4 1.32 4 2 C4.66 2 5.32 2 6 2 C6 3.32 6 4.64 6 6 C6.66 6 7.32 6 8 6 C8 6.66 8 7.32 8 8 C8.66 8 9.32 8 10 8 C10 9.32 10 10.64 10 12 C10.66 12 11.32 12 12 12 C12 12.66 12 13.32 12 14 C12.66 14 13.32 14 14 14 C14 14.99 14 15.98 14 17 C12.35 17 10.7 17 9 17 C9 16.34 9 15.68 9 15 C8.34 15 7.68 15 7 15 C7 13.68 7 12.36 7 11 C6.34 11 5.68 11 5 11 C5 10.34 5 9.68 5 9 C4.34 9 3.68 9 3 9 C3.33 7.68 3.66 6.36 4 5 C3.01 5 2.02 5 1 5 C1 4.34 1 3.68 1 3 C0.34 3 -0.32 3 -1 3 C-0.67 2.01 -0.34 1.02 0 0 Z " fill="#473D5E" transform="translate(285,229)"/>
<path d="M0 0 C0.99 0.33 1.98 0.66 3 1 C3 2.32 3 3.64 3 5 C2.01 5.66 1.02 6.32 0 7 C-0.72382467 9.05925139 -0.72382467 9.05925139 -1 11 C-1.66 11 -2.32 11 -3 11 C-3 11.66 -3 12.32 -3 13 C-1.35 13 0.3 13 2 13 C1.67 13.99 1.34 14.98 1 16 C-1.97 16 -4.94 16 -8 16 C-8 14.68 -8 13.36 -8 12 C-7.34 12 -6.68 12 -6 12 C-6 10.68 -6 9.36 -6 8 C-5.34 8 -4.68 8 -4 8 C-4 7.34 -4 6.68 -4 6 C-3.34 6 -2.68 6 -2 6 C-2 4.68 -2 3.36 -2 2 C-1.34 2 -0.68 2 0 2 C0 1.34 0 0.68 0 0 Z " fill="#2E2646" transform="translate(35,349)"/>
<path d="M0 0 C0.33 0.66 0.66 1.32 1 2 C1.66 2 2.32 2 3 2 C3 2.66 3 3.32 3 4 C3.66 4 4.32 4 5 4 C5 5.32 5 6.64 5 8 C5.66 8 6.32 8 7 8 C7 8.66 7 9.32 7 10 C7.66 10 8.32 10 9 10 C9 11.32 9 12.64 9 14 C9.66 14 10.32 14 11 14 C11 14.66 11 15.32 11 16 C9.35 16.33 7.7 16.66 6 17 C6 16.34 6 15.68 6 15 C5.34 15 4.68 15 4 15 C1.125 8.375 1.125 8.375 0 5 C-0.66 5 -1.32 5 -2 5 C-2 3.68 -2 2.36 -2 1 C-1.34 0.67 -0.68 0.34 0 0 Z " fill="#342D48" transform="translate(168,189)"/>
<path d="M0 0 C0 0.66 0 1.32 0 2 C0.66 2 1.32 2 2 2 C2 3.32 2 4.64 2 6 C2.66 6 3.32 6 4 6 C4 6.66 4 7.32 4 8 C4.66 8 5.32 8 6 8 C6 9.32 6 10.64 6 12 C6.66 12 7.32 12 8 12 C8 12.66 8 13.32 8 14 C8.66 14 9.32 14 10 14 C10 14.66 10 15.32 10 16 C8.35 16.33 6.7 16.66 5 17 C5 16.34 5 15.68 5 15 C4.34 15 3.68 15 3 15 C2.71125 14.195625 2.4225 13.39125 2.125 12.5625 C1.26737432 9.8673532 1.26737432 9.8673532 -1 9 C-1 7.68 -1 6.36 -1 5 C-1.66 5 -2.32 5 -3 5 C-3.33 3.68 -3.66 2.36 -4 1 C-2 0 -2 0 0 0 Z " fill="#4B4262" transform="translate(225,133)"/>
<path d="M0 0 C0 0.66 0 1.32 0 2 C-0.66 2 -1.32 2 -2 2 C-2 3.32 -2 4.64 -2 6 C-2.66 6 -3.32 6 -4 6 C-4 6.66 -4 7.32 -4 8 C-4.66 8 -5.32 8 -6 8 C-6 9.32 -6 10.64 -6 12 C-6.66 12 -7.32 12 -8 12 C-8 12.66 -8 13.32 -8 14 C-8.66 14 -9.32 14 -10 14 C-10 15.32 -10 16.64 -10 18 C-10.66 18 -11.32 18 -12 18 C-12 18.66 -12 19.32 -12 20 C-12.66 20 -13.32 20 -14 20 C-14 21.32 -14 22.64 -14 24 C-14.66 24 -15.32 24 -16 24 C-16.33 24.66 -16.66 25.32 -17 26 C-17.75 24.375 -17.75 24.375 -18 22 C-12.35820896 12.17910448 -12.35820896 12.17910448 -8 10 C-7.855625 9.4225 -7.71125 8.845 -7.5625 8.25 C-6.85887467 5.43549867 -5.61833937 3.39514227 -4 1 C-2 0 -2 0 0 0 Z " fill="#473B5C" transform="translate(241,291)"/>
<path d="M0 0 C1.98 0 3.96 0 6 0 C6 2.31 6 4.62 6 7 C6.99 7 7.98 7 9 7 C9 8.32 9 9.64 9 11 C9.66 11 10.32 11 11 11 C10.67 12.65 10.34 14.3 10 16 C9.34 16 8.68 16 8 16 C8 15.34 8 14.68 8 14 C7.34 14 6.68 14 6 14 C6 12.68 6 11.36 6 10 C5.34 10 4.68 10 4 10 C4 9.34 4 8.68 4 8 C3.34 8 2.68 8 2 8 C2 6.68 2 5.36 2 4 C1.34 4 0.68 4 0 4 C0 2.68 0 1.36 0 0 Z " fill="#33264C" transform="translate(27,85)"/>
<path d="M0 0 C2.31 0 4.62 0 7 0 C6.67 0.99 6.34 1.98 6 3 C6.66 3.33 7.32 3.66 8 4 C7.979375 4.7425 7.95875 5.485 7.9375 6.25 C7.99328688 8.70462279 8.3069904 10.66109261 9 13 C8.01 13.33 7.02 13.66 6 14 C6 13.34 6 12.68 6 12 C5.34 12 4.68 12 4 12 C4 10.68 4 9.36 4 8 C3.34 8 2.68 8 2 8 C2 7.34 2 6.68 2 6 C1.34 6 0.68 6 0 6 C0 4.02 0 2.04 0 0 Z " fill="#694C6D" transform="translate(313,235)"/>
<path d="M0 0 C0 0.66 0 1.32 0 2 C-0.66 2 -1.32 2 -2 2 C-2 2.66 -2 3.32 -2 4 C-2.66 4 -3.32 4 -4 4 C-4 5.32 -4 6.64 -4 8 C-4.66 8 -5.32 8 -6 8 C-6 8.66 -6 9.32 -6 10 C-6.66 10 -7.32 10 -8 10 C-8 11.32 -8 12.64 -8 14 C-8.66 14 -9.32 14 -10 14 C-10 14.66 -10 15.32 -10 16 C-10.66 16 -11.32 16 -12 16 C-12 17.32 -12 18.64 -12 20 C-12.66 20 -13.32 20 -14 20 C-15 17 -15 17 -14.2421875 15.09375 C-5.28731343 0 -5.28731343 0 0 0 Z " fill="#494061" transform="translate(223,319)"/>
<path d="M0 0 C0.66 0 1.32 0 2 0 C2 0.66 2 1.32 2 2 C2.66 2 3.32 2 4 2 C4 3.32 4 4.64 4 6 C4.66 6 5.32 6 6 6 C6 6.66 6 7.32 6 8 C6.66 8 7.32 8 8 8 C8 9.32 8 10.64 8 12 C8.66 12 9.32 12 10 12 C10 12.66 10 13.32 10 14 C10.66 14 11.32 14 12 14 C12 14.66 12 15.32 12 16 C10.35 16.33 8.7 16.66 7 17 C7 16.34 7 15.68 7 15 C6.01 14.67 5.02 14.34 4 14 C1.69558446 10.54337669 1.74139865 9.05142119 2 5 C2.33 4.34 2.66 3.68 3 3 C2.01 2.67 1.02 2.34 0 2 C0 1.34 0 0.68 0 0 Z " fill="#4A3F62" transform="translate(335,301)"/>
<path d="M0 0 C0.66 0 1.32 0 2 0 C2.80967438 2.91482778 3.21845993 4.46113217 2.0625 7.3125 C1.711875 7.869375 1.36125 8.42625 1 9 C0.34 9 -0.32 9 -1 9 C-1.33 10.65 -1.66 12.3 -2 14 C-3.98 14.66 -5.96 15.32 -8 16 C-8 14.68 -8 13.36 -8 12 C-7.34 12 -6.68 12 -6 12 C-6 11.34 -6 10.68 -6 10 C-5.34 10 -4.68 10 -4 10 C-4 8.68 -4 7.36 -4 6 C-3.34 6 -2.68 6 -2 6 C-2 5.34 -2 4.68 -2 4 C-1.34 4 -0.68 4 0 4 C0 2.68 0 1.36 0 0 Z " fill="#2C2747" transform="translate(69,297)"/>
<path d="M0 0 C0.66 1.98 1.32 3.96 2 6 C4.64 6 7.28 6 10 6 C10 6.99 10 7.98 10 9 C8.35 9 6.7 9 5 9 C5 9.66 5 10.32 5 11 C3.68 11 2.36 11 1 11 C1 10.34 1 9.68 1 9 C0.34 9 -0.32 9 -1 9 C-1 7.68 -1 6.36 -1 5 C-1.66 5 -2.32 5 -3 5 C-3 4.34 -3 3.68 -3 3 C-3.66 3 -4.32 3 -5 3 C-3.7124791 0.4249582 -2.85933002 0 0 0 Z " fill="#764A76" transform="translate(342,274)"/>
<path d="M0 0 C2.31 0 4.62 0 7 0 C7.12375 1.0725 7.2475 2.145 7.375 3.25 C7.89643936 6.37863615 8.40088254 8.33480424 10 11 C8.68 11.33 7.36 11.66 6 12 C6 11.34 6 10.68 6 10 C5.34 10 4.68 10 4 10 C4 8.68 4 7.36 4 6 C3.34 6 2.68 6 2 6 C2 5.34 2 4.68 2 4 C1.34 4 0.68 4 0 4 C0 2.68 0 1.36 0 0 Z " fill="#474066" transform="translate(119,85)"/>
<path d="M0 0 C0.598125 0.309375 1.19625 0.61875 1.8125 0.9375 C4.08956772 2.10209704 4.08956772 2.10209704 7 3 C7 3.99 7 4.98 7 6 C7.66 6 8.32 6 9 6 C9 6.66 9 7.32 9 8 C9.66 8 10.32 8 11 8 C10.67 9.98 10.34 11.96 10 14 C9.34 14 8.68 14 8 14 C8 13.01 8 12.02 8 11 C7.34 11 6.68 11 6 11 C6 10.34 6 9.68 6 9 C5.34 9 4.68 9 4 9 C4 7.68 4 6.36 4 5 C3.34 5 2.68 5 2 5 C2 4.34 2 3.68 2 3 C1.34 3 0.68 3 0 3 C0 2.01 0 1.02 0 0 Z " fill="#534673" transform="translate(203,212)"/>
<path d="M0 0 C0.99 0 1.98 0 3 0 C3 1.65 3 3.3 3 5 C2.34 5 1.68 5 1 5 C1 5.66 1 6.32 1 7 C0.34 7 -0.32 7 -1 7 C-1 8.65 -1 10.3 -1 12 C-2.65 12 -4.3 12 -6 12 C-6 10.68 -6 9.36 -6 8 C-5.34 8 -4.68 8 -4 8 C-4 7.34 -4 6.68 -4 6 C-3.34 6 -2.68 6 -2 6 C-2 4.68 -2 3.36 -2 2 C-1.34 2 -0.68 2 0 2 C0 1.34 0 0.68 0 0 Z " fill="#4C4064" transform="translate(125,353)"/>
<path d="M0 0 C0.33 1.98 0.66 3.96 1 6 C3.31 6 5.62 6 8 6 C8 6.99 8 7.98 8 9 C5.03 9 2.06 9 -1 9 C-1 7.68 -1 6.36 -1 5 C-1.66 5 -2.32 5 -3 5 C-3 4.34 -3 3.68 -3 3 C-3.66 3 -4.32 3 -5 3 C-3.7124791 0.4249582 -2.85933002 0 0 0 Z " fill="#4E466B" transform="translate(304,356)"/>
<path d="M0 0 C1.65 0 3.3 0 5 0 C5 0.66 5 1.32 5 2 C5.66 2 6.32 2 7 2 C8.4783226 4.95664519 8.06032783 7.74229737 8 11 C7.34 11 6.68 11 6 11 C6 10.34 6 9.68 6 9 C5.34 9 4.68 9 4 9 C4 7.68 4 6.36 4 5 C3.34 5 2.68 5 2 5 C2 4.34 2 3.68 2 3 C1.34 3 0.68 3 0 3 C0 2.01 0 1.02 0 0 Z " fill="#774975" transform="translate(277,184)"/>
<path d="M0 0 C4.95 0 9.9 0 15 0 C13 3 13 3 9.6875 3.75 C6.45451235 3.9691856 4.09658215 3.8445224 1 3 C0.67 4.32 0.34 5.64 0 7 C0 4.69 0 2.38 0 0 Z " fill="#504574" transform="translate(126,85)"/>
<path d="M0 0 C0.99 0 1.98 0 3 0 C3 2.97 3 5.94 3 9 C0.69 9 -1.62 9 -4 9 C-4.33 8.01 -4.66 7.02 -5 6 C-4.360625 5.566875 -3.72125 5.13375 -3.0625 4.6875 C-0.73253997 3.08760823 -0.73253997 3.08760823 0 0 Z " fill="#745574" transform="translate(420,276)"/>
<path d="M0 0 C0.66 0 1.32 0 2 0 C2 0.66 2 1.32 2 2 C2.66 2 3.32 2 4 2 C4 3.32 4 4.64 4 6 C4.66 6 5.32 6 6 6 C6 6.66 6 7.32 6 8 C6.66 8 7.32 8 8 8 C8 8.66 8 9.32 8 10 C5.625 10.625 5.625 10.625 3 11 C2.34 10.34 1.68 9.68 1 9 C1.375 5.875 1.375 5.875 2 3 C1.34 3 0.68 3 0 3 C0 2.01 0 1.02 0 0 Z " fill="#4A3E62" transform="translate(275,211)"/>
<path d="M0 0 C0.66 0.33 1.32 0.66 2 1 C2 1.99 2 2.98 2 4 C3.32 4.66 4.64 5.32 6 6 C6 6.99 6 7.98 6 9 C4.35 9.33 2.7 9.66 1 10 C1 9.34 1 8.68 1 8 C0.34 8 -0.32 8 -1 8 C-0.67 5.36 -0.34 2.72 0 0 Z " fill="#373150" transform="translate(38,97)"/>
<path d="M0 0 C0 3.62335132 -0.85866121 4.19939462 -3 7 C-3.78233233 8.72688742 -4.51162313 10.47873647 -5.1875 12.25 C-5.53167969 13.14203125 -5.87585938 14.0340625 -6.23046875 14.953125 C-6.48441406 15.62859375 -6.73835938 16.3040625 -7 17 C-7.66 17 -8.32 17 -9 17 C-9 15.35 -9 13.7 -9 12 C-8.34 12 -7.68 12 -7 12 C-7 11.34 -7 10.68 -7 10 C-6.34 10 -5.68 10 -5 10 C-5.33 8.02 -5.66 6.04 -6 4 C-4.02 2.68 -2.04 1.36 0 0 Z " fill="#554975" transform="translate(133,348)"/>
<path d="M0 0 C2.475 0.99 2.475 0.99 5 2 C4.01 2.495 4.01 2.495 3 3 C3.103125 3.70125 3.20625 4.4025 3.3125 5.125 C2.85497807 9.33420175 0.89514696 10.96362636 -2 14 C-2.33 14 -2.66 14 -3 14 C-3 12.35 -3 10.7 -3 9 C-2.01 9 -1.02 9 0 9 C-0.185625 8.443125 -0.37125 7.88625 -0.5625 7.3125 C-1.07551165 4.600867 -0.6640724 2.65628961 0 0 Z " fill="#372B53" transform="translate(53,321)"/>
<path d="M0 0 C2.475 0.495 2.475 0.495 5 1 C5 1.66 5 2.32 5 3 C5.66 3 6.32 3 7 3 C7 3.66 7 4.32 7 5 C7.66 5 8.32 5 9 5 C9 5.66 9 6.32 9 7 C7.35 7.33 5.7 7.66 4 8 C0 3.375 0 3.375 0 0 Z " fill="#484160" transform="translate(210,118)"/>
<path d="M0 0 C0.33 0.99 0.66 1.98 1 3 C1.639375 3.12375 2.27875 3.2475 2.9375 3.375 C3.618125 3.58125 4.29875 3.7875 5 4 C6.25 6.5625 6.25 6.5625 7 9 C5.68 9.33 4.36 9.66 3 10 C3 9.34 3 8.68 3 8 C2.34 8 1.68 8 1 8 C1 6.68 1 5.36 1 4 C0.34 4 -0.32 4 -1 4 C-0.67 2.68 -0.34 1.36 0 0 Z " fill="#4E476C" transform="translate(250,279)"/>
<path d="M0 0 C1.32 0 2.64 0 4 0 C4.74926071 3.66305234 5.2380014 6.42355152 4 10 C3.34 10 2.68 10 2 10 C2 8.68 2 7.36 2 6 C1.34 6 0.68 6 0 6 C0 4.02 0 2.04 0 0 Z " fill="#6F4F70" transform="translate(267,165)"/>
<path d="M0 0 C0.91007812 0.00902344 1.82015625 0.01804687 2.7578125 0.02734375 C3.45648438 0.03894531 4.15515625 0.05054688 4.875 0.0625 C4.875 1.0525 4.875 2.0425 4.875 3.0625 C0.915 3.0625 -3.045 3.0625 -7.125 3.0625 C-7.125 2.4025 -7.125 1.7425 -7.125 1.0625 C-4.60024538 -0.19987731 -2.81299534 -0.03606404 0 0 Z " fill="#53486E" transform="translate(363.125,361.9375)"/>
<path d="M0 0 C0 0.99 0 1.98 0 3 C-0.66 3.66 -1.32 4.32 -2 5 C-1.125 1.125 -1.125 1.125 0 0 Z M-4 5 C-3.34 5.33 -2.68 5.66 -2 6 C-2.99 6.33 -3.98 6.66 -5 7 C-5 9.64 -5 12.28 -5 15 C-5.61875 15.12375 -6.2375 15.2475 -6.875 15.375 C-9.19120832 15.87197356 -9.19120832 15.87197356 -11 18 C-10.6875 16.0625 -10.6875 16.0625 -10 14 C-9.01 13.67 -8.02 13.34 -7 13 C-7.33 11.35 -7.66 9.7 -8 8 C-6.68 7.01 -5.36 6.02 -4 5 Z " fill="#393058" transform="translate(45,341)"/>
<path d="M0 0 C2.31 0 4.62 0 7 0 C7 1.98 7 3.96 7 6 C4.625 5.8125 4.625 5.8125 2 5 C0.6875 2.4375 0.6875 2.4375 0 0 Z " fill="#74506D" transform="translate(416,165)"/>
<path d="M0 0 C0.99 0.33 1.98 0.66 3 1 C2.34 1 1.68 1 1 1 C1 2.32 1 3.64 1 5 C0.34 5 -0.32 5 -1 5 C-1 5.66 -1 6.32 -1 7 C-1.66 7 -2.32 7 -3 7 C-3 8.32 -3 9.64 -3 11 C-3.66 11 -4.32 11 -5 11 C-5.3125 8.3125 -5.3125 8.3125 -5 5 C-2.5 2.125 -2.5 2.125 0 0 Z " fill="#4A3F5E" transform="translate(198,352)"/>
<path d="M0 0 C0.33 0 0.66 0 1 0 C1 1.98 1 3.96 1 6 C0.34 6 -0.32 6 -1 6 C-1 6.66 -1 7.32 -1 8 C-1.66 8 -2.32 8 -3 8 C-3 9.32 -3 10.64 -3 12 C-3.66 12 -4.32 12 -5 12 C-5.35133708 9.04876854 -5.52850886 6.8502099 -3.921875 4.265625 C-2.6895356 2.77831883 -1.34923232 1.38214043 0 0 Z " fill="#49425C" transform="translate(246,279)"/>
<path d="M0 0 C1.65 0 3.3 0 5 0 C5.66 2.64 6.32 5.28 7 8 C6.01 8.33 5.02 8.66 4 9 C4 7.68 4 6.36 4 5 C3.34 5 2.68 5 2 5 C2 4.34 2 3.68 2 3 C1.34 3 0.68 3 0 3 C0 2.01 0 1.02 0 0 Z " fill="#50436F" transform="translate(195,200)"/>
<path d="M0 0 C1.98 0 3.96 0 6 0 C5.67 1.98 5.34 3.96 5 6 C4.01 6.33 3.02 6.66 2 7 C2 6.01 2 5.02 2 4 C1.34 4 0.68 4 0 4 C0 2.68 0 1.36 0 0 Z " fill="#2D2B38" transform="translate(27,85)"/>
<path d="M0 0 C0.33 0 0.66 0 1 0 C1 1.65 1 3.3 1 5 C0.34 5 -0.32 5 -1 5 C-1 6.32 -1 7.64 -1 9 C-1.66 9 -2.32 9 -3 9 C-3.33 9.66 -3.66 10.32 -4 11 C-4.75 9.375 -4.75 9.375 -5 7 C-3.50594347 4.4601039 -2.09462345 2.09462345 0 0 Z " fill="#4B4164" transform="translate(228,306)"/>
<path d="M0 0 C0.66 0.33 1.32 0.66 2 1 C1.67 1.66 1.34 2.32 1 3 C1.66 3.33 2.32 3.66 3 4 C2.979375 4.7425 2.95875 5.485 2.9375 6.25 C2.99328688 8.70462279 3.3069904 10.66109261 4 13 C3.01 13.33 2.02 13.66 1 14 C1 11.36 1 8.72 1 6 C0.34 6 -0.32 6 -1 6 C-0.67 4.02 -0.34 2.04 0 0 Z " fill="#784C7A" transform="translate(318,235)"/>
<path d="M0 0 C2.76276177 0.52268466 5.3260876 1.10869587 8 2 C7.67 3.32 7.34 4.64 7 6 C6.01 6 5.02 6 4 6 C4 5.34 4 4.68 4 4 C3.34 4 2.68 4 2 4 C2 3.34 2 2.68 2 2 C1.34 2 0.68 2 0 2 C0 1.34 0 0.68 0 0 Z " fill="#6F4B6C" transform="translate(293,209)"/>
<path d="M0 0 C1.32 0 2.64 0 4 0 C4 2.64 4 5.28 4 8 C3.01 8 2.02 8 1 8 C0.67 5.36 0.34 2.72 0 0 Z " fill="#2F283D" transform="translate(187,221)"/>
<path d="M0 0 C1.65 0 3.3 0 5 0 C5 1.65 5 3.3 5 5 C4.01 5.33 3.02 5.66 2 6 C2 5.34 2 4.68 2 4 C1.34 4 0.68 4 0 4 C0 2.68 0 1.36 0 0 Z " fill="#3D3A4E" transform="translate(119,85)"/>
<path d="M0 0 C0 3.63306931 -1.07932067 4.97123644 -3 8 C-3.68096422 9.32608822 -4.35330586 10.65686601 -5 12 C-5.75 10.4375 -5.75 10.4375 -6 8 C-4.63931677 4.77102114 -3.23360633 1.61680316 0 0 Z " fill="#534776" transform="translate(214,324)"/>
<path d="M0 0 C1.32 0.33 2.64 0.66 4 1 C4 2.98 4 4.96 4 7 C3.34 7 2.68 7 2 7 C2 6.34 2 5.68 2 5 C1.34 5 0.68 5 0 5 C0 3.35 0 1.7 0 0 Z " fill="#7C487A" transform="translate(333,266)"/>
<path d="M0 0 C0.99 0.33 1.98 0.66 3 1 C3 3.97 3 6.94 3 10 C2.67 8.68 2.34 7.36 2 6 C1.34 6 0.68 6 0 6 C0 5.34 0 4.68 0 4 C-0.66 4 -1.32 4 -2 4 C-1.34 2.68 -0.68 1.36 0 0 Z " fill="#4E446C" transform="translate(290,234)"/>
<path d="M0 0 C2.31 0 4.62 0 7 0 C7 0.66 7 1.32 7 2 C7.66 2 8.32 2 9 2 C9 2.66 9 3.32 9 4 C5.97580475 3.41196203 2.98241547 2.77321882 0 2 C0 1.34 0 0.68 0 0 Z " fill="#433B5F" transform="translate(186,85)"/>
<path d="M0 0 C0.185625 0.8971875 0.185625 0.8971875 0.375 1.8125 C0.95475985 4.26231348 0.95475985 4.26231348 3 7 C2.67 7.99 2.34 8.98 2 10 C1.01 9.34 0.02 8.68 -1 8 C-1.6875 4.375 -1.6875 4.375 -2 1 C-1.34 0.67 -0.68 0.34 0 0 Z " fill="#524670" transform="translate(250,174)"/>
<path d="M0 0 C1.98 0 3.96 0 6 0 C6 0.99 6 1.98 6 3 C4.35 3 2.7 3 1 3 C1 3.66 1 4.32 1 5 C0.34 4.67 -0.32 4.34 -1 4 C-0.67 2.68 -0.34 1.36 0 0 Z " fill="#814B7D" transform="translate(346,280)"/>
<path d="M0 0 C0.99 0 1.98 0 3 0 C3 3 3 3 1.6875 4.38671875 C0.125 5.59114583 -1.4375 6.79557292 -3 8 C-3.66 7.34 -4.32 6.68 -5 6 C-4.360625 5.566875 -3.72125 5.13375 -3.0625 4.6875 C-0.73253997 3.08760823 -0.73253997 3.08760823 0 0 Z " fill="#7D5077" transform="translate(420,276)"/>
<path d="M0 0 C1.98 0 3.96 0 6 0 C6 0.66 6 1.32 6 2 C7.32 2.33 8.64 2.66 10 3 C7.03 3 4.06 3 1 3 C0.67 2.01 0.34 1.02 0 0 Z " fill="#524672" transform="translate(180,85)"/>
<path d="M0 0 C0.66 0 1.32 0 2 0 C2 1.98 2 3.96 2 6 C0.68 6 -0.64 6 -2 6 C-2 4.68 -2 3.36 -2 2 C-1.34 2 -0.68 2 0 2 C0 1.34 0 0.68 0 0 Z " fill="#3E3A55" transform="translate(121,359)"/>
<path d="M0 0 C0 0.66 0 1.32 0 2 C-1.63790712 3.04644066 -3.31008021 4.0398183 -5 5 C-6.34631825 5.98244845 -7.68441297 6.97676564 -9 8 C-7.38794515 3.02949753 -5.53380518 0 0 0 Z " fill="#524776" transform="translate(209,337)"/>
<path d="M0 0 C1.65 0 3.3 0 5 0 C4.67 1.65 4.34 3.3 4 5 C3.34 5 2.68 5 2 5 C2 4.34 2 3.68 2 3 C1.34 3 0.68 3 0 3 C0 2.01 0 1.02 0 0 Z " fill="#2C2546" transform="translate(97,192)"/>
<path d="M0 0 C1.65 0 3.3 0 5 0 C5 1.65 5 3.3 5 5 C4.01 5 3.02 5 2 5 C2 4.34 2 3.68 2 3 C1.34 3 0.68 3 0 3 C0 2.01 0 1.02 0 0 Z " fill="#4C4568" transform="translate(163,152)"/>
<path d="M0 0 C1.65 0 3.3 0 5 0 C4.67 1.65 4.34 3.3 4 5 C3.34 5 2.68 5 2 5 C2 4.34 2 3.68 2 3 C1.34 3 0.68 3 0 3 C0 2.01 0 1.02 0 0 Z " fill="#2B2445" transform="translate(33,96)"/>
<path d="M0 0 C1.32 0.33 2.64 0.66 4 1 C3.34 1 2.68 1 2 1 C2 1.66 2 2.32 2 3 C1.34 3 0.68 3 0 3 C0 4.32 0 5.64 0 7 C-0.66 7 -1.32 7 -2 7 C-2.33 6.01 -2.66 5.02 -3 4 C-1.5625 1.8125 -1.5625 1.8125 0 0 Z " fill="#453956" transform="translate(211,332)"/>
<path d="M0 0 C0.66 0 1.32 0 2 0 C2 1.65 2 3.3 2 5 C0.35 5 -1.3 5 -3 5 C-1.125 1.125 -1.125 1.125 0 0 Z " fill="#765673" transform="translate(421,210)"/>
<path d="M0 0 C0.66 0.33 1.32 0.66 2 1 C2 1.99 2 2.98 2 4 C2.66 4.33 3.32 4.66 4 5 C3.01 5 2.02 5 1 5 C1 5.99 1 6.98 1 8 C0.34 8 -0.32 8 -1 8 C-0.67 5.36 -0.34 2.72 0 0 Z " fill="#3A3453" transform="translate(102,193)"/>
<path d="M0 0 C0 0.66 0 1.32 0 2 C0.66 2 1.32 2 2 2 C1.67 2.66 1.34 3.32 1 4 C-1.0625 4.625 -1.0625 4.625 -3 5 C-3.33 3.68 -3.66 2.36 -4 1 C-2 0 -2 0 0 0 Z " fill="#473B5C" transform="translate(225,133)"/>
<path d="M0 0 C1.65 0 3.3 0 5 0 C4.67 1.65 4.34 3.3 4 5 C3.34 5 2.68 5 2 5 C2 4.34 2 3.68 2 3 C1.34 3 0.68 3 0 3 C0 2.01 0 1.02 0 0 Z " fill="#4F426D" transform="translate(151,134)"/>
<path d="M0 0 C0.66 0.33 1.32 0.66 2 1 C2 2.65 2 4.3 2 6 C1.01 6.33 0.02 6.66 -1 7 C-1.04254356 5.00045254 -1.04080783 2.99958364 -1 1 C-0.67 0.67 -0.34 0.34 0 0 Z " fill="#524872" transform="translate(325,286)"/>
<path d="M0 0 C0.99 0 1.98 0 3 0 C3 0.66 3 1.32 3 2 C3.66 2 4.32 2 5 2 C4.67 2.66 4.34 3.32 4 4 C1.9375 4.625 1.9375 4.625 0 5 C-0.5625 3.0625 -0.5625 3.0625 -1 1 C-0.67 0.67 -0.34 0.34 0 0 Z " fill="#473A79" transform="translate(322,283)"/>
<path d="M0 0 C2.475 0.495 2.475 0.495 5 1 C4.01 1.495 4.01 1.495 3 2 C2.34444881 4.52733235 2.34444881 4.52733235 2 7 C0.5393715 4.35261084 0 3.10551666 0 0 Z M-1 7 C1 8 1 8 1 8 Z " fill="#383055" transform="translate(113,233)"/>
<path d="M0 0 C1.32 0 2.64 0 4 0 C4 1.32 4 2.64 4 4 C2.68 4.33 1.36 4.66 0 5 C0 3.35 0 1.7 0 0 Z " fill="#332D4E" transform="translate(103,198)"/>
<path d="M0 0 C2.475 0.495 2.475 0.495 5 1 C4.01 1.495 4.01 1.495 3 2 C3.33 3.65 3.66 5.3 4 7 C2 5.1875 2 5.1875 0 3 C0 2.01 0 1.02 0 0 Z " fill="#534870" transform="translate(210,118)"/>
<path d="M0 0 C0 1.32 0 2.64 0 4 C-1.65 4 -3.3 4 -5 4 C-5 3.01 -5 2.02 -5 1 C-2 0 -2 0 0 0 Z " fill="#3D395E" transform="translate(377,361)"/>
<path d="M0 0 C0.66 0.99 1.32 1.98 2 3 C-0.31 4.98 -2.62 6.96 -5 9 C-5 6 -5 6 -3.0625 3.9375 C-2.381875 3.298125 -1.70125 2.65875 -1 2 C-0.67 1.34 -0.34 0.68 0 0 Z " fill="#544979" transform="translate(199,345)"/>
<path d="M0 0 C0.66 0 1.32 0 2 0 C2 0.66 2 1.32 2 2 C2.66 2 3.32 2 4 2 C3 4 3 4 0 6 C-0.38218767 4.34385343 -0.71395102 2.67542976 -1 1 C-0.67 0.67 -0.34 0.34 0 0 Z " fill="#453A5C" transform="translate(359,337)"/>
<path d="M0 0 C0.66 0 1.32 0 2 0 C2 0.66 2 1.32 2 2 C2.66 2 3.32 2 4 2 C4 2.66 4 3.32 4 4 C2.68 4.33 1.36 4.66 0 5 C-0.5625 3.0625 -0.5625 3.0625 -1 1 C-0.67 0.67 -0.34 0.34 0 0 Z " fill="#483C58" transform="translate(263,193)"/>
</svg>
