<?xml version="1.0" encoding="UTF-8"?>
<svg version="1.1" xmlns="http://www.w3.org/2000/svg" width="577" height="433">
<path d="M0 0 C7.26 0 14.52 0 22 0 C23.41421356 9.89949494 22.43437224 20.00943842 22 30 C42.79 30 63.58 30 85 30 C85 36.6 85 43.2 85 50 C64.54 50.33 44.08 50.66 23 51 C22.79052378 63.38429388 22.79052378 63.38429388 22.61206055 75.76904297 C22.45774551 84.24079395 22.27296228 92.04809232 19 100 C18.67 100.99 18.34 101.98 18 103 C16.0625 105.1875 16.0625 105.1875 14 107 C13.34 107 12.68 107 12 107 C11.67 107.99 11.34 108.98 11 110 C7.18939869 110.70894908 3.91978817 111 0 111 C0 74.37 0 37.74 0 0 Z " fill="#010101" transform="translate(271,161)"/>
<path d="M0 0 C10.89 0.495 10.89 0.495 22 1 C22.04632648 6.03157076 22.08602354 11.06237871 22.10986328 16.09399414 C22.11981874 17.79974905 22.13338799 19.50548736 22.15087891 21.21118164 C22.31864038 38.01199999 22.00086871 53.39366238 11 67 C10.34 67 9.68 67 9 67 C8.938125 67.598125 8.87625 68.19625 8.8125 68.8125 C7.62441218 72.01119798 6.04607511 72.44588005 3 74 C2.27296875 74.40476562 1.5459375 74.80953125 0.796875 75.2265625 C-0.43289063 75.88785156 -0.43289063 75.88785156 -1.6875 76.5625 C-2.45449219 76.97628906 -3.22148437 77.39007813 -4.01171875 77.81640625 C-11.89288772 80.93796729 -19.98018262 81.36152288 -28.375 81.3125 C-29.38651123 81.30686035 -30.39802246 81.3012207 -31.44018555 81.29541016 C-48.28491688 81.02146798 -60.40196176 74.85691669 -72.67578125 63.44140625 C-74.52384773 61.42979407 -75.25137397 59.62019112 -76 57 C-75.625 54.1875 -75.625 54.1875 -75 52 C-74.34 52 -73.68 52 -73 52 C-72.67 51.01 -72.34 50.02 -72 49 C-69.93758941 46.64295933 -67.64159262 44.68101349 -65 43 C-63.68 43 -62.36 43 -61 43 C-59.18359375 44.93359375 -59.18359375 44.93359375 -57.4375 47.4375 C-54.95636005 51.15757083 -54.95636005 51.15757083 -51 53 C-51 53.66 -51 54.32 -51 55 C-50.360625 55.2475 -49.72125 55.495 -49.0625 55.75 C-46 57 -46 57 -44.19140625 58.0234375 C-35.84568009 62.47238793 -25.79257884 62.4366021 -16.8125 59.75 C-13.4590898 58.43506054 -11.41598528 56.69475281 -9 54 C-8.01 54 -7.02 54 -6 54 C-5.53536131 52.68971889 -5.07875419 51.37659011 -4.625 50.0625 C-4.36976563 49.33160156 -4.11453125 48.60070312 -3.8515625 47.84765625 C-3.57054687 46.90792969 -3.28953125 45.96820313 -3 45 C-2.72990112 44.11356812 -2.72990112 44.11356812 -2.4543457 43.20922852 C-0.48980241 35.81938298 -0.81189795 28.40088052 -0.9375 20.8125 C-0.97416781 18.15232989 -1.00215871 15.492367 -1.02734375 12.83203125 C-1.04531006 11.66389893 -1.06327637 10.4957666 -1.08178711 9.29223633 C-1 6 -1 6 0 0 Z " fill="#161616" transform="translate(297,214)"/>
<path d="M0 0 C28.05 0 56.1 0 85 0 C85 16.17 85 32.34 85 49 C77.74 49 70.48 49 63 49 C63 38.77 63 28.54 63 18 C42.21 18 21.42 18 0 18 C0 12.06 0 6.12 0 0 Z " fill="#000000" transform="translate(234,138)"/>
<path d="M0 0 C28.05 0 56.1 0 85 0 C85 16.17 85 32.34 85 49 C77.74 49 70.48 49 63 49 C63 38.77 63 28.54 63 18 C42.21 18 21.42 18 0 18 C0 12.06 0 6.12 0 0 Z M3 3 C3 6.96 3 10.92 3 15 C23.46 15 43.92 15 65 15 C66.39560045 17.79120091 66.21808288 20.20205692 66.31640625 23.3203125 C66.35830078 24.57714844 66.40019531 25.83398438 66.44335938 27.12890625 C66.48267578 28.44761719 66.52199219 29.76632813 66.5625 31.125 C66.60569512 32.46485751 66.64930973 33.80470156 66.69335938 35.14453125 C66.7997091 38.4295562 66.90038317 41.71476398 67 45 C71.95 45 76.9 45 82 45 C82 31.14 82 17.28 82 3 C55.93 3 29.86 3 3 3 Z " fill="#575757" transform="translate(234,138)"/>
<path d="M0 0 C1.29228516 0.00322266 2.58457031 0.00644531 3.91601562 0.00976562 C5.27083401 0.0181196 6.62565172 0.02658453 7.98046875 0.03515625 C9.3548161 0.04017625 10.7291652 0.04473828 12.10351562 0.04882812 C15.45837799 0.06059957 18.81315096 0.07704342 22.16796875 0.09765625 C21.83796875 0.75765625 21.50796875 1.41765625 21.16796875 2.09765625 C20.93509962 4.97833362 20.74850935 7.83778144 20.60546875 10.72265625 C20.46109375 13.48640625 20.31671875 16.25015625 20.16796875 19.09765625 C9.60796875 19.09765625 -0.95203125 19.09765625 -11.83203125 19.09765625 C-11.83203125 13.15765625 -11.83203125 7.21765625 -11.83203125 1.09765625 C-7.61385867 0.25402173 -4.25325757 -0.01873682 0 0 Z " fill="#000000" transform="translate(335.83203125,136.90234375)"/>
<path d="M0 0 C7.26 0 14.52 0 22 0 C23.41421356 9.89949494 22.43437224 20.00943842 22 30 C42.79 30 63.58 30 85 30 C85 36.6 85 43.2 85 50 C64.54 50.33 44.08 50.66 23 51 C22.79052378 63.38429388 22.79052378 63.38429388 22.61206055 75.76904297 C22.45774551 84.24079395 22.27296228 92.04809232 19 100 C18.67 100.99 18.34 101.98 18 103 C16.0625 105.1875 16.0625 105.1875 14 107 C13.34 107 12.68 107 12 107 C11.67 107.99 11.34 108.98 11 110 C7.18939869 110.70894908 3.91978817 111 0 111 C0 74.37 0 37.74 0 0 Z M1 1 C1 36.64 1 72.28 1 109 C8.19878015 107.97160284 12.20090921 106.31822505 17 101 C20.00652874 94.65361668 20.40767923 89.33109175 20.29296875 82.375 C20.28994751 81.4984375 20.28692627 80.621875 20.28381348 79.71875 C20.26824876 76.47904498 20.22636586 73.23950927 20.1875 70 C20.125625 62.74 20.06375 55.48 20 48 C41.12 48 62.24 48 84 48 C84 42.72 84 37.44 84 32 C62.88 32 41.76 32 20 32 C20 21.77 20 11.54 20 1 C13.73 1 7.46 1 1 1 Z " fill="#BFBFBF" transform="translate(271,161)"/>
<path d="M0 0 C1.29228516 0.00322266 2.58457031 0.00644531 3.91601562 0.00976562 C5.27083401 0.0181196 6.62565172 0.02658453 7.98046875 0.03515625 C9.3548161 0.04017625 10.7291652 0.04473828 12.10351562 0.04882812 C15.45837799 0.06059957 18.81315096 0.07704342 22.16796875 0.09765625 C21.83796875 0.75765625 21.50796875 1.41765625 21.16796875 2.09765625 C20.93509962 4.97833362 20.74850935 7.83778144 20.60546875 10.72265625 C20.46109375 13.48640625 20.31671875 16.25015625 20.16796875 19.09765625 C9.60796875 19.09765625 -0.95203125 19.09765625 -11.83203125 19.09765625 C-11.83203125 13.15765625 -11.83203125 7.21765625 -11.83203125 1.09765625 C-7.61385867 0.25402173 -4.25325757 -0.01873682 0 0 Z M-7.83203125 4.09765625 C-9.1265262 7.98114109 -8.96406437 11.00462961 -8.83203125 15.09765625 C-7.78331872 16.37071181 -7.78331872 16.37071181 -5.42358398 16.21118164 C-4.38145752 16.20594482 -3.33933105 16.20070801 -2.265625 16.1953125 C-1.14091797 16.19208984 -0.01621094 16.18886719 1.14257812 16.18554688 C2.91858398 16.17297852 2.91858398 16.17297852 4.73046875 16.16015625 C5.91833984 16.15564453 7.10621094 16.15113281 8.33007812 16.14648438 C11.27606287 16.13465311 14.22202191 16.11671701 17.16796875 16.09765625 C17.16796875 12.13765625 17.16796875 8.17765625 17.16796875 4.09765625 C8.91796875 4.09765625 0.66796875 4.09765625 -7.83203125 4.09765625 Z " fill="#161616" transform="translate(335.83203125,136.90234375)"/>
<path d="M0 0 C6.27 0 12.54 0 19 0 C18.67 9.9 18.34 19.8 18 30 C17.67 30 17.34 30 17 30 C17 20.76 17 11.52 17 2 C12.05 2 7.1 2 2 2 C2.1073663 15.52542645 2.21997191 29.05079802 2.33933926 42.57612419 C2.39459508 48.85590708 2.44801932 55.13569461 2.49731445 61.41552734 C2.54491878 67.47149954 2.59726012 73.52741367 2.65294075 79.5833168 C2.67338215 81.89825121 2.69209222 84.21320154 2.70907402 86.52816391 C2.73307853 89.76085951 2.76313848 92.99344462 2.79467773 96.22607422 C2.8004332 97.19136047 2.80618866 98.15664673 2.81211853 99.15118408 C2.82190735 100.02900543 2.83169617 100.90682678 2.84178162 101.81124878 C2.84823417 102.57633696 2.85468672 103.34142513 2.8613348 104.1296978 C2.88776821 106.09208451 2.88776821 106.09208451 4 108 C2.68 108 1.36 108 0 108 C0 72.36 0 36.72 0 0 Z " fill="#0E0E0E" transform="translate(272,162)"/>
<path d="M0 0 C8.25 0 16.5 0 25 0 C25 6.6 25 13.2 25 20 C-5.69 20.495 -5.69 20.495 -37 21 C-37.20947622 33.38429388 -37.20947622 33.38429388 -37.38793945 45.76904297 C-37.71327588 63.73301527 -37.71327588 63.73301527 -41 70 C-41.99 70.495 -41.99 70.495 -43 71 C-42 67 -42 67 -41.47767639 65.14593506 C-40.96673495 62.85055859 -40.84088936 60.76523016 -40.79467773 58.41503906 C-40.77449585 57.50189941 -40.75431396 56.58875977 -40.73352051 55.64794922 C-40.71704468 54.69678223 -40.70056885 53.74561523 -40.68359375 52.765625 C-40.66494263 51.88503418 -40.6462915 51.00444336 -40.6270752 50.09716797 C-40.55889414 46.81487849 -40.49867106 43.5324276 -40.4375 40.25 C-40.293125 32.9075 -40.14875 25.565 -40 18 C-18.88 18 2.24 18 24 18 C24 12.39 24 6.78 24 1 C16.08 1 8.16 1 0 1 C0 0.67 0 0.34 0 0 Z " fill="#D6D6D6" transform="translate(331,191)"/>
<path d="M0 0 C0.66 0 1.32 0 2 0 C2 4.62 2 9.24 2 14 C-18.79 14 -39.58 14 -61 14 C-61.33 13.34 -61.66 12.68 -62 12 C-41.54 12 -21.08 12 0 12 C0 8.04 0 4.08 0 0 Z " fill="#0A0A0A" transform="translate(353,195)"/>
<path d="M0 0 C2.12946539 1.05982609 4.25236109 2.12992848 6.3671875 3.21875 C7.19476563 3.6415625 8.02234375 4.064375 8.875 4.5 C10.10863281 5.13421875 10.10863281 5.13421875 11.3671875 5.78125 C18.61966741 9.13848106 25.24699523 9.37244445 33.09301758 9.37060547 C35.16507827 9.37495296 37.2349594 9.41125149 39.30664062 9.44921875 C46.78317902 9.50951974 52.97934062 8.85827736 59.85668945 5.76416016 C62 5 62 5 65 6 C55.4873637 11.28479795 46.41538489 12.37551218 35.625 12.3125 C34.61348877 12.30686035 33.60197754 12.3012207 32.55981445 12.29541016 C21.00758226 12.10753874 11.36371474 10.16268219 2 3 C1.34 2.01 0.68 1.02 0 0 Z " fill="#8F8F8F" transform="translate(233,283)"/>
<path d="M0 0 C1.29228516 0.00322266 2.58457031 0.00644531 3.91601562 0.00976562 C5.27083401 0.0181196 6.62565172 0.02658453 7.98046875 0.03515625 C9.3548161 0.04017625 10.7291652 0.04473828 12.10351562 0.04882812 C15.45837799 0.06059957 18.81315096 0.07704342 22.16796875 0.09765625 C21.83796875 0.75765625 21.50796875 1.41765625 21.16796875 2.09765625 C20.93509962 4.97833362 20.74850935 7.83778144 20.60546875 10.72265625 C20.46109375 13.48640625 20.31671875 16.25015625 20.16796875 19.09765625 C9.60796875 19.09765625 -0.95203125 19.09765625 -11.83203125 19.09765625 C-11.83203125 13.15765625 -11.83203125 7.21765625 -11.83203125 1.09765625 C-7.61385867 0.25402173 -4.25325757 -0.01873682 0 0 Z M-10.83203125 2.09765625 C-10.83203125 7.37765625 -10.83203125 12.65765625 -10.83203125 18.09765625 C-0.93203125 18.09765625 8.96796875 18.09765625 19.16796875 18.09765625 C19.16796875 12.81765625 19.16796875 7.53765625 19.16796875 2.09765625 C9.26796875 2.09765625 -0.63203125 2.09765625 -10.83203125 2.09765625 Z " fill="#C8C8C8" transform="translate(335.83203125,136.90234375)"/>
<path d="M0 0 C6.6 0 13.2 0 20 0 C20 0.33 20 0.66 20 1 C18.02 1 16.04 1 14 1 C14 1.66 14 2.32 14 3 C12.18757948 3.02687279 10.37504767 3.04633715 8.5625 3.0625 C7.55316406 3.07410156 6.54382813 3.08570313 5.50390625 3.09765625 C3 3 3 3 2 2 C1.67 12.56 1.34 23.12 1 34 C0.67 34 0.34 34 0 34 C0 22.78 0 11.56 0 0 Z " fill="#4B4B4B" transform="translate(298,216)"/>
<path d="M0 0 C0.33 0 0.66 0 1 0 C1.33 9.57 1.66 19.14 2 29 C5.96 29.33 9.92 29.66 14 30 C14 30.33 14 30.66 14 31 C9.05 31 4.1 31 -1 31 C-1.0229132 26.74578286 -1.04283889 22.49177843 -1.05493164 18.23754883 C-1.05997101 16.78929927 -1.06680253 15.34105483 -1.07543945 13.89282227 C-1.08752247 11.81525412 -1.09323211 9.73775303 -1.09765625 7.66015625 C-1.10289307 6.40855713 -1.10812988 5.15695801 -1.11352539 3.86743164 C-1 1 -1 1 0 0 Z " fill="#080808" transform="translate(300,154)"/>
<path d="M0 0 C1.703125 1.53125 1.703125 1.53125 3.25 3.5 C3.77078125 4.1496875 4.2915625 4.799375 4.828125 5.46875 C5.21484375 5.9740625 5.6015625 6.479375 6 7 C5.67 7.66 5.34 8.32 5 9 C3.99403703 8.0479279 2.99538437 7.08812654 2 6.125 C1.443125 5.59132813 0.88625 5.05765625 0.3125 4.5078125 C-1 3 -1 3 -1 1 C-7.42783457 5.09927721 -7.42783457 5.09927721 -11.0625 11.4375 C-11.0315625 12.7059375 -11.0315625 12.7059375 -11 14 C-11.99 14.33 -12.98 14.66 -14 15 C-14.33 13.35 -14.66 11.7 -15 10 C-14.01 9.67 -13.02 9.34 -12 9 C-11.67 8.01 -11.34 7.02 -11 6 C-7.64097588 2.1611153 -5.21469792 0 0 0 Z " fill="#E5E5E5" transform="translate(236,257)"/>
<path d="M0 0 C1.32 0.33 2.64 0.66 4 1 C4 1.66 4 2.32 4 3 C4.639375 3.2475 5.27875 3.495 5.9375 3.75 C9 5 9 5 10.80859375 5.98828125 C17.93989836 9.69548119 25.10909084 9.7920709 33 10 C33 10.33 33 10.66 33 11 C20.0036098 11.58048393 10.3996252 10.59099473 0 2 C0 1.34 0 0.68 0 0 Z " fill="#E1E1E1" transform="translate(242,266)"/>
<path d="M0 0 C1.65 0 3.3 0 5 0 C4.67 0.66 4.34 1.32 4 2 C3.01 2 2.02 2 1 2 C1 2.66 1 3.32 1 4 C-5.6 4 -12.2 4 -19 4 C-19 3.01 -19 2.02 -19 1 C-12.73 1.33 -6.46 1.66 0 2 C0 1.34 0 0.68 0 0 Z " fill="#414141" transform="translate(275,275)"/>
<path d="M0 0 C0.66 0.66 1.32 1.32 2 2 C0.71034824 3.37562854 -0.62689293 4.70766393 -2 6 C-2.66 6 -3.32 6 -4 6 C-4.33 6.99 -4.66 7.98 -5 9 C-8.72430357 9.69289369 -12.21083746 10.11144596 -16 10 C-16 9.34 -16 8.68 -16 8 C-15.34773438 7.84144531 -14.69546875 7.68289063 -14.0234375 7.51953125 C-8.13861813 5.94851015 -4.37079057 4.25576977 0 0 Z " fill="#E2E2E2" transform="translate(287,262)"/>
<path d="M0 0 C0.33 0 0.66 0 1 0 C1.45718424 7.01015831 0.40961781 14.10845863 -4.1875 19.625 C-5.0846875 20.305625 -5.0846875 20.305625 -6 21 C-5.21511292 16.42600291 -3.84473878 12.09842491 -2.4375 7.6875 C-2.20353516 6.94693359 -1.96957031 6.20636719 -1.72851562 5.44335938 C-1.15468028 3.62816595 -0.57765989 1.81397994 0 0 Z " fill="#CDCDCD" transform="translate(317,254)"/>
<path d="M0 0 C0.66 0.99 1.32 1.98 2 3 C1.390625 5.375 1.390625 5.375 0.25 8 C-0.11609375 8.86625 -0.4821875 9.7325 -0.859375 10.625 C-2 13 -2 13 -4 16 C-4.66 16 -5.32 16 -6 16 C-6.33 15.01 -6.66 14.02 -7 13 C-5.68 12.67 -4.36 12.34 -3 12 C-3.061875 11.319375 -3.12375 10.63875 -3.1875 9.9375 C-2.94131737 6.08063875 -1.64197838 3.48920406 0 0 Z " fill="#4D4D4D" transform="translate(312,265)"/>
<path d="M0 0 C0.33 0 0.66 0 1 0 C1 2.31 1 4.62 1 7 C0.67 7 0.34 7 0 7 C0 4.69 0 2.38 0 0 Z M-1 7 C-0.34 7.33 0.32 7.66 1 8 C0.875 9.75 0.875 9.75 0 12 C-3.0625 14.25 -3.0625 14.25 -6 16 C-5.34 14.35 -4.68 12.7 -4 11 C-3.34 11 -2.68 11 -2 11 C-1.67 9.68 -1.34 8.36 -1 7 Z " fill="#454545" transform="translate(297,252)"/>
<path d="M0 0 C0.66 0 1.32 0 2 0 C3.2890625 1.53125 3.2890625 1.53125 4.625 3.5 C5.07101563 4.1496875 5.51703125 4.799375 5.9765625 5.46875 C6.31429687 5.9740625 6.65203125 6.479375 7 7 C6.34 7 5.68 7 5 7 C4.67 7.66 4.34 8.32 4 9 C3.566875 8.21625 3.13375 7.4325 2.6875 6.625 C1.10779753 3.78301625 1.10779753 3.78301625 -2 2 C-1.34 1.34 -0.68 0.68 0 0 Z " fill="#1E1E1E" transform="translate(233,258)"/>
<path d="M0 0 C0.99 0 1.98 0 3 0 C3 1.65 3 3.3 3 5 C2.01 5.33 1.02 5.66 0 6 C-0.38218767 4.34385343 -0.71395102 2.67542976 -1 1 C-0.67 0.67 -0.34 0.34 0 0 Z " fill="#7F7F7F" transform="translate(222,266)"/>
<path d="M0 0 C0.99 0 1.98 0 3 0 C3 0.66 3 1.32 3 2 C3.598125 2.28875 4.19625 2.5775 4.8125 2.875 C7 4 7 4 10 6 C9.01 6.33 8.02 6.66 7 7 C5.17578125 5.8203125 5.17578125 5.8203125 3.3125 4.125 C2.68988281 3.57070313 2.06726563 3.01640625 1.42578125 2.4453125 C0 1 0 1 0 0 Z " fill="#1A1A1A" transform="translate(229,278)"/>
<path d="M0 0 C1.8125 0.1875 1.8125 0.1875 4 1 C5.75 3.5625 5.75 3.5625 7 6 C6.01 6 5.02 6 4 6 C1.8125 3 1.8125 3 0 0 Z " fill="#1B1B1B" transform="translate(223,271)"/>
<path d="M0 0 C0.99 0.33 1.98 0.66 3 1 C1.19587357 4.26460973 0.16605307 5.88929795 -3 8 C-2.6875 6.0625 -2.6875 6.0625 -2 4 C-1.01 3.67 -0.02 3.34 1 3 C0.67 2.01 0.34 1.02 0 0 Z " fill="#191919" transform="translate(286,258)"/>
<path d="" fill="#FFFFFF" transform="translate(0,0)"/>
<path d="" fill="#FFFFFF" transform="translate(0,0)"/>
</svg>
