<?xml version="1.0" encoding="UTF-8"?>
<svg xmlns="http://www.w3.org/2000/svg" xmlns:xlink="http://www.w3.org/1999/xlink" width="24px" height="24px" viewBox="0 0 24 24" version="1.1">
<g id="surface1">
<path style=" stroke:none;fill-rule:nonzero;fill:rgb(7.450981%,11.372549%,14.901961%);fill-opacity:1;" d="M 14.398438 3.617188 C 14.441406 3.632812 14.484375 3.648438 14.53125 3.660156 C 15.113281 3.878906 15.726562 4.195312 16.214844 4.613281 C 16.296875 4.683594 16.375 4.738281 16.464844 4.789062 C 16.664062 4.921875 16.855469 5.070312 17.027344 5.25 C 17.027344 5.28125 17.027344 5.316406 17.027344 5.351562 C 17.054688 5.363281 17.082031 5.378906 17.109375 5.394531 C 17.207031 5.453125 17.207031 5.453125 17.34375 5.554688 C 17.34375 5.585938 17.34375 5.621094 17.34375 5.65625 C 17.367188 5.667969 17.394531 5.679688 17.421875 5.691406 C 17.550781 5.777344 17.632812 5.878906 17.730469 6.007812 C 17.765625 6.050781 17.800781 6.09375 17.835938 6.140625 C 18.066406 6.449219 18.066406 6.449219 18.066406 6.574219 C 18.097656 6.574219 18.128906 6.574219 18.160156 6.574219 C 18.226562 6.667969 18.226562 6.667969 18.296875 6.789062 C 18.320312 6.828125 18.34375 6.871094 18.371094 6.910156 C 18.425781 7.023438 18.453125 7.113281 18.476562 7.234375 C 18.503906 7.234375 18.535156 7.234375 18.566406 7.234375 C 18.566406 7.285156 18.566406 7.335938 18.566406 7.386719 C 18.597656 7.386719 18.625 7.386719 18.65625 7.386719 C 18.65625 7.457031 18.65625 7.523438 18.65625 7.59375 C 18.6875 7.59375 18.714844 7.59375 18.746094 7.59375 C 19.757812 9.785156 20.101562 12.203125 19.4375 14.597656 C 19.140625 15.605469 18.691406 16.722656 18.066406 17.527344 C 18.039062 17.527344 18.007812 17.527344 17.976562 17.527344 C 17.976562 17.5625 17.976562 17.597656 17.976562 17.628906 C 17.949219 17.628906 17.917969 17.628906 17.886719 17.628906 C 17.867188 17.675781 17.867188 17.675781 17.851562 17.71875 C 17.792969 17.835938 17.738281 17.9375 17.660156 18.039062 C 17.628906 18.039062 17.601562 18.039062 17.570312 18.039062 C 17.554688 18.082031 17.554688 18.082031 17.535156 18.128906 C 17.472656 18.257812 17.402344 18.332031 17.300781 18.429688 C 17.253906 18.476562 17.253906 18.476562 17.207031 18.523438 C 17.117188 18.597656 17.117188 18.597656 16.980469 18.648438 C 16.964844 18.699219 16.953125 18.75 16.9375 18.800781 C 16.855469 18.882812 16.855469 18.882812 16.761719 18.964844 C 16.730469 18.992188 16.695312 19.019531 16.664062 19.046875 C 16.574219 19.109375 16.574219 19.109375 16.4375 19.109375 C 16.421875 19.160156 16.40625 19.210938 16.390625 19.261719 C 16.324219 19.320312 16.324219 19.320312 16.238281 19.371094 C 16.210938 19.390625 16.183594 19.40625 16.15625 19.425781 C 16.074219 19.464844 16.074219 19.464844 15.941406 19.464844 C 15.941406 19.5 15.941406 19.53125 15.941406 19.566406 C 15.15625 20.046875 14.402344 20.394531 13.527344 20.59375 C 13.492188 20.605469 13.453125 20.613281 13.417969 20.621094 C 12.011719 20.929688 10.429688 20.789062 9.101562 20.179688 C 9.046875 20.152344 8.992188 20.128906 8.933594 20.101562 C 8.34375 19.828125 7.816406 19.472656 7.304688 19.042969 C 7.214844 18.96875 7.125 18.902344 7.03125 18.835938 C 7 18.808594 6.964844 18.78125 6.929688 18.75 C 6.929688 18.71875 6.929688 18.683594 6.929688 18.648438 C 6.867188 18.617188 6.808594 18.582031 6.746094 18.546875 C 6.746094 18.515625 6.746094 18.480469 6.746094 18.445312 C 6.703125 18.445312 6.65625 18.445312 6.609375 18.445312 C 6.609375 18.414062 6.609375 18.378906 6.609375 18.34375 C 6.582031 18.34375 6.550781 18.34375 6.519531 18.34375 C 6.519531 18.308594 6.519531 18.277344 6.519531 18.242188 C 6.492188 18.242188 6.460938 18.242188 6.429688 18.242188 C 6.332031 18.148438 6.332031 18.148438 6.25 18.039062 C 6.25 17.988281 6.25 17.9375 6.25 17.886719 C 6.21875 17.871094 6.191406 17.859375 6.160156 17.84375 C 6.066406 17.785156 6.066406 17.785156 6.023438 17.628906 C 5.992188 17.628906 5.960938 17.628906 5.933594 17.628906 C 5.859375 17.535156 5.789062 17.4375 5.722656 17.335938 C 5.703125 17.304688 5.683594 17.277344 5.664062 17.25 C 5.523438 17.039062 5.523438 17.039062 5.523438 16.867188 C 5.496094 16.867188 5.464844 16.867188 5.433594 16.867188 C 5.3125 16.628906 5.191406 16.390625 5.070312 16.152344 C 5.046875 16.101562 5.019531 16.050781 4.992188 16 C 4.71875 15.445312 4.5625 14.882812 4.417969 14.273438 C 4.394531 14.183594 4.375 14.09375 4.351562 14.003906 C 4 12.570312 4.09375 10.949219 4.4375 9.527344 C 4.453125 9.46875 4.464844 9.410156 4.480469 9.347656 C 4.566406 9.011719 4.683594 8.707031 4.828125 8.394531 C 4.90625 8.214844 4.96875 8.035156 5.027344 7.847656 C 5.054688 7.847656 5.085938 7.847656 5.117188 7.847656 C 5.121094 7.8125 5.125 7.777344 5.128906 7.742188 C 5.171875 7.546875 5.25 7.40625 5.34375 7.234375 C 5.375 7.234375 5.402344 7.234375 5.433594 7.234375 C 5.464844 7.136719 5.492188 7.035156 5.523438 6.929688 C 5.554688 6.929688 5.585938 6.929688 5.613281 6.929688 C 5.625 6.894531 5.632812 6.859375 5.644531 6.824219 C 5.726562 6.625 5.847656 6.480469 5.976562 6.320312 C 6 6.285156 6.023438 6.253906 6.050781 6.222656 C 6.347656 5.828125 6.660156 5.449219 7.042969 5.15625 C 7.117188 5.097656 7.117188 5.097656 7.15625 4.992188 C 7.199219 4.976562 7.246094 4.960938 7.289062 4.945312 C 7.335938 4.929688 7.378906 4.910156 7.425781 4.890625 C 7.441406 4.839844 7.457031 4.789062 7.472656 4.738281 C 7.546875 4.671875 7.546875 4.671875 7.644531 4.605469 C 7.683594 4.582031 7.71875 4.554688 7.753906 4.53125 C 7.792969 4.507812 7.828125 4.480469 7.867188 4.457031 C 7.90625 4.429688 7.941406 4.40625 7.980469 4.378906 C 8.425781 4.078125 8.425781 4.078125 8.648438 4.078125 C 8.648438 4.042969 8.648438 4.007812 8.648438 3.972656 C 8.695312 3.957031 8.695312 3.957031 8.746094 3.933594 C 8.789062 3.917969 8.832031 3.898438 8.875 3.882812 C 8.917969 3.863281 8.960938 3.847656 9.003906 3.832031 C 9.078125 3.796875 9.15625 3.765625 9.230469 3.734375 C 10.878906 3.019531 12.722656 3.039062 14.398438 3.617188 Z M 14.398438 3.617188 "/>
<path style=" stroke:none;fill-rule:nonzero;fill:rgb(96.078432%,96.470588%,96.470588%);fill-opacity:1;" d="M 13.328125 11.035156 C 13.617188 11.226562 13.800781 11.515625 13.902344 11.871094 C 13.921875 12.011719 13.925781 12.152344 13.925781 12.292969 C 13.925781 12.332031 13.925781 12.367188 13.925781 12.40625 C 13.914062 12.78125 13.832031 13.097656 13.609375 13.382812 C 13.542969 13.453125 13.542969 13.453125 13.402344 13.554688 C 13.363281 13.585938 13.324219 13.613281 13.28125 13.648438 C 13.03125 13.746094 12.769531 13.773438 12.523438 13.652344 C 12.417969 13.578125 12.316406 13.5 12.226562 13.402344 C 12.210938 13.804688 12.195312 14.207031 12.179688 14.625 C 11.972656 14.625 11.761719 14.625 11.546875 14.625 C 11.546875 13.429688 11.546875 12.238281 11.546875 11.007812 C 11.757812 11.007812 11.964844 11.007812 12.179688 11.007812 C 12.179688 11.089844 12.179688 11.175781 12.179688 11.261719 C 12.214844 11.230469 12.246094 11.199219 12.28125 11.164062 C 12.585938 10.90625 12.976562 10.859375 13.328125 11.035156 Z M 13.328125 11.035156 "/>
<path style=" stroke:none;fill-rule:nonzero;fill:rgb(96.470588%,97.254902%,97.254902%);fill-opacity:1;" d="M 10.597656 11.109375 C 10.800781 11.257812 10.890625 11.382812 10.9375 11.648438 C 10.960938 11.847656 10.964844 12.042969 10.964844 12.242188 C 10.960938 12.28125 10.960938 12.320312 10.960938 12.359375 C 10.960938 12.484375 10.960938 12.609375 10.960938 12.734375 C 10.960938 12.816406 10.960938 12.902344 10.960938 12.984375 C 10.960938 13.191406 10.960938 13.398438 10.957031 13.605469 C 10.765625 13.605469 10.570312 13.605469 10.371094 13.605469 C 10.371094 13.539062 10.371094 13.46875 10.371094 13.402344 C 10.3125 13.449219 10.3125 13.449219 10.25 13.496094 C 9.972656 13.695312 9.699219 13.769531 9.375 13.707031 C 9.152344 13.589844 8.953125 13.4375 8.832031 13.199219 C 8.785156 12.910156 8.769531 12.609375 8.898438 12.347656 C 9.019531 12.1875 9.105469 12.09375 9.28125 12.027344 C 9.976562 11.976562 9.976562 11.976562 10.277344 12.179688 C 10.304688 11.890625 10.304688 11.890625 10.195312 11.644531 C 9.984375 11.53125 9.789062 11.527344 9.554688 11.566406 C 9.457031 11.613281 9.457031 11.613281 9.375 11.675781 C 9.238281 11.769531 9.238281 11.769531 9.132812 11.746094 C 9.042969 11.65625 9.003906 11.59375 8.964844 11.464844 C 8.964844 11.363281 8.964844 11.363281 9.011719 11.261719 C 9.488281 10.902344 10.070312 10.816406 10.597656 11.109375 Z M 10.597656 11.109375 "/>
<path style=" stroke:none;fill-rule:nonzero;fill:rgb(94.509804%,94.901961%,95.294118%);fill-opacity:1;" d="M 16.347656 9.734375 C 16.675781 9.707031 16.898438 9.703125 17.164062 9.9375 C 17.441406 10.261719 17.417969 10.582031 17.414062 11.019531 C 17.414062 11.148438 17.414062 11.277344 17.414062 11.40625 C 17.414062 11.492188 17.414062 11.492188 17.414062 11.578125 C 17.421875 11.726562 17.421875 11.726562 17.523438 11.808594 C 17.554688 11.832031 17.585938 11.851562 17.613281 11.871094 C 17.640625 12.011719 17.625 12.136719 17.613281 12.28125 C 17.546875 12.304688 17.546875 12.304688 17.480469 12.332031 C 17.417969 12.46875 17.425781 12.578125 17.425781 12.734375 C 17.421875 12.824219 17.421875 12.824219 17.421875 12.917969 C 17.417969 13.042969 17.417969 13.171875 17.414062 13.296875 C 17.414062 13.359375 17.410156 13.417969 17.410156 13.480469 C 17.410156 13.535156 17.410156 13.59375 17.40625 13.648438 C 17.386719 13.832031 17.332031 13.957031 17.253906 14.113281 C 17.222656 14.113281 17.191406 14.113281 17.164062 14.113281 C 17.164062 14.148438 17.164062 14.183594 17.164062 14.214844 C 16.890625 14.433594 16.675781 14.445312 16.347656 14.421875 C 16.347656 14.269531 16.347656 14.117188 16.347656 13.960938 C 16.59375 13.9375 16.59375 13.9375 16.84375 13.910156 C 16.894531 13.75 16.898438 13.632812 16.902344 13.464844 C 16.902344 13.40625 16.90625 13.347656 16.90625 13.289062 C 16.910156 13.167969 16.910156 13.046875 16.914062 12.921875 C 16.914062 12.867188 16.917969 12.808594 16.917969 12.746094 C 16.917969 12.695312 16.921875 12.640625 16.921875 12.585938 C 16.9375 12.421875 16.976562 12.28125 17.027344 12.128906 C 17.054688 12.128906 17.085938 12.128906 17.117188 12.128906 C 17.09375 12.097656 17.074219 12.070312 17.050781 12.039062 C 16.929688 11.839844 16.929688 11.652344 16.925781 11.414062 C 16.925781 11.355469 16.921875 11.296875 16.921875 11.238281 C 16.921875 11.117188 16.917969 10.992188 16.917969 10.871094 C 16.914062 10.8125 16.914062 10.753906 16.914062 10.691406 C 16.910156 10.640625 16.910156 10.585938 16.910156 10.53125 C 16.898438 10.394531 16.898438 10.394531 16.828125 10.300781 C 16.730469 10.222656 16.660156 10.214844 16.542969 10.207031 C 16.445312 10.199219 16.445312 10.199219 16.347656 10.191406 C 16.347656 10.039062 16.347656 9.886719 16.347656 9.734375 Z M 16.347656 9.734375 "/>
<path style=" stroke:none;fill-rule:nonzero;fill:rgb(97.254902%,97.647059%,97.647059%);fill-opacity:1;" d="M 7.320312 9.730469 C 7.386719 9.730469 7.386719 9.730469 7.457031 9.730469 C 7.492188 9.730469 7.527344 9.730469 7.5625 9.734375 C 7.5625 9.882812 7.5625 10.035156 7.5625 10.191406 C 7.460938 10.199219 7.359375 10.207031 7.257812 10.214844 C 7.128906 10.25 7.097656 10.277344 7.019531 10.394531 C 6.996094 10.550781 6.996094 10.550781 7 10.730469 C 6.996094 10.796875 6.996094 10.859375 6.996094 10.929688 C 6.996094 11 6.992188 11.066406 6.992188 11.136719 C 6.992188 11.273438 6.988281 11.410156 6.988281 11.542969 C 6.988281 11.605469 6.988281 11.664062 6.984375 11.726562 C 6.972656 11.871094 6.972656 11.871094 6.882812 11.972656 C 6.902344 12.117188 6.902344 12.117188 6.972656 12.230469 C 6.980469 12.335938 6.980469 12.441406 6.984375 12.550781 C 6.984375 12.617188 6.984375 12.679688 6.988281 12.75 C 6.988281 12.855469 6.992188 12.957031 6.992188 13.0625 C 6.992188 13.164062 6.996094 13.265625 6.996094 13.367188 C 7 13.425781 7 13.488281 7 13.550781 C 7.019531 13.71875 7.046875 13.789062 7.15625 13.910156 C 7.257812 13.945312 7.257812 13.945312 7.367188 13.949219 C 7.429688 13.953125 7.496094 13.957031 7.5625 13.960938 C 7.5625 14.113281 7.5625 14.265625 7.5625 14.421875 C 7.226562 14.441406 7.007812 14.421875 6.734375 14.175781 C 6.582031 13.960938 6.554688 13.722656 6.550781 13.453125 C 6.546875 13.371094 6.546875 13.371094 6.546875 13.285156 C 6.542969 13.167969 6.542969 13.050781 6.539062 12.933594 C 6.539062 12.878906 6.539062 12.824219 6.535156 12.765625 C 6.535156 12.714844 6.535156 12.664062 6.535156 12.613281 C 6.527344 12.472656 6.527344 12.472656 6.429688 12.332031 C 6.386719 12.3125 6.339844 12.296875 6.292969 12.28125 C 6.292969 12.144531 6.292969 12.011719 6.292969 11.871094 C 6.363281 11.847656 6.363281 11.847656 6.429688 11.820312 C 6.515625 11.640625 6.53125 11.488281 6.535156 11.285156 C 6.535156 11.230469 6.535156 11.179688 6.539062 11.125 C 6.539062 11.015625 6.542969 10.902344 6.542969 10.792969 C 6.550781 10.464844 6.5625 10.207031 6.769531 9.953125 C 6.972656 9.78125 7.066406 9.726562 7.320312 9.730469 Z M 7.320312 9.730469 "/>
<path style=" stroke:none;fill-rule:nonzero;fill:rgb(94.901961%,95.294118%,95.686275%);fill-opacity:1;" d="M 14.355469 11.007812 C 14.5625 11.007812 14.773438 11.007812 14.988281 11.007812 C 14.988281 11.878906 14.988281 12.753906 14.988281 13.65625 C 14.78125 13.65625 14.570312 13.65625 14.355469 13.65625 C 14.355469 12.78125 14.355469 11.90625 14.355469 11.007812 Z M 14.355469 11.007812 "/>
<path style=" stroke:none;fill-rule:nonzero;fill:rgb(9.411765%,12.941177%,16.078432%);fill-opacity:1;" d="M 12.859375 11.566406 C 13.027344 11.652344 13.144531 11.761719 13.242188 11.9375 C 13.304688 12.28125 13.296875 12.585938 13.132812 12.890625 C 12.988281 13.035156 12.847656 13.089844 12.660156 13.128906 C 12.476562 13.089844 12.351562 13.050781 12.207031 12.917969 C 12.101562 12.726562 12.097656 12.550781 12.097656 12.328125 C 12.09375 12.289062 12.09375 12.246094 12.09375 12.207031 C 12.097656 12.039062 12.101562 11.921875 12.195312 11.789062 C 12.40625 11.589844 12.585938 11.519531 12.859375 11.566406 Z M 12.859375 11.566406 "/>
<path style=" stroke:none;fill-rule:nonzero;fill:rgb(9.803922%,13.725491%,16.078432%);fill-opacity:1;" d="M 10.015625 12.472656 C 10.054688 12.484375 10.09375 12.492188 10.132812 12.5 C 10.234375 12.535156 10.234375 12.535156 10.324219 12.636719 C 10.335938 12.773438 10.328125 12.90625 10.324219 13.042969 C 10.140625 13.171875 9.988281 13.269531 9.765625 13.242188 C 9.601562 13.199219 9.601562 13.199219 9.464844 13.09375 C 9.394531 12.746094 9.394531 12.746094 9.46875 12.5625 C 9.636719 12.40625 9.8125 12.425781 10.015625 12.472656 Z M 10.015625 12.472656 "/>
<path style=" stroke:none;fill-rule:nonzero;fill:rgb(12.54902%,16.078432%,18.82353%);fill-opacity:1;" d="M 10.144531 11.554688 C 10.21875 11.613281 10.21875 11.613281 10.324219 11.769531 C 10.347656 11.945312 10.339844 12.105469 10.324219 12.28125 C 10.308594 12.246094 10.292969 12.214844 10.277344 12.179688 C 10.027344 12.070312 9.777344 12.058594 9.507812 12.042969 C 9.378906 12.027344 9.304688 11.996094 9.191406 11.921875 C 9.164062 11.90625 9.132812 11.890625 9.101562 11.871094 C 9.070312 11.90625 9.042969 11.941406 9.011719 11.972656 C 9.011719 11.839844 9.011719 11.707031 9.011719 11.566406 C 9.054688 11.617188 9.101562 11.667969 9.148438 11.71875 C 9.304688 11.652344 9.304688 11.652344 9.457031 11.566406 C 9.667969 11.460938 9.929688 11.464844 10.144531 11.554688 Z M 10.144531 11.554688 "/>
<path style=" stroke:none;fill-rule:nonzero;fill:rgb(94.901961%,95.686275%,95.686275%);fill-opacity:1;" d="M 14.808594 9.9375 C 14.917969 9.988281 14.917969 9.988281 14.988281 10.089844 C 15.019531 10.34375 15.023438 10.441406 14.894531 10.652344 C 14.761719 10.75 14.761719 10.75 14.601562 10.757812 C 14.417969 10.691406 14.359375 10.632812 14.265625 10.445312 C 14.238281 10.320312 14.238281 10.320312 14.265625 10.191406 C 14.425781 9.945312 14.539062 9.894531 14.808594 9.9375 Z M 14.808594 9.9375 "/>
<path style=" stroke:none;fill-rule:nonzero;fill:rgb(8.627451%,11.764706%,14.117648%);fill-opacity:1;" d="M 9.960938 11.566406 C 10.085938 11.578125 10.164062 11.597656 10.261719 11.679688 C 10.347656 11.804688 10.339844 11.882812 10.332031 12.035156 C 10.332031 12.082031 10.332031 12.125 10.328125 12.175781 C 10.328125 12.210938 10.324219 12.246094 10.324219 12.28125 C 10.308594 12.246094 10.292969 12.214844 10.277344 12.179688 C 10.25 12.164062 10.222656 12.148438 10.191406 12.128906 C 10.097656 12.078125 10.097656 12.078125 10.007812 11.921875 C 10.007812 11.855469 10.007812 11.789062 10.007812 11.71875 C 9.960938 11.703125 9.917969 11.6875 9.871094 11.667969 C 9.902344 11.636719 9.929688 11.601562 9.960938 11.566406 Z M 9.960938 11.566406 "/>
<path style=" stroke:none;fill-rule:nonzero;fill:rgb(32.156864%,34.117648%,36.470589%);fill-opacity:1;" d="M 7.5625 4.6875 C 7.59375 4.703125 7.621094 4.722656 7.652344 4.738281 C 7.523438 5.023438 7.378906 5.113281 7.121094 5.234375 C 7.003906 5.308594 6.984375 5.367188 6.929688 5.503906 C 6.785156 5.542969 6.785156 5.542969 6.65625 5.554688 C 6.769531 5.421875 6.878906 5.300781 7.007812 5.1875 C 7.113281 5.105469 7.113281 5.105469 7.15625 4.992188 C 7.199219 4.976562 7.246094 4.960938 7.289062 4.945312 C 7.359375 4.917969 7.359375 4.917969 7.425781 4.890625 C 7.441406 4.839844 7.457031 4.789062 7.472656 4.738281 C 7.5 4.722656 7.53125 4.707031 7.5625 4.6875 Z M 7.5625 4.6875 "/>
<path style=" stroke:none;fill-rule:nonzero;fill:rgb(30.19608%,32.156864%,34.117648%);fill-opacity:1;" d="M 15.984375 19.210938 C 16.121094 19.210938 16.253906 19.210938 16.390625 19.210938 C 16.242188 19.359375 16.140625 19.4375 15.941406 19.464844 C 15.941406 19.5 15.941406 19.53125 15.941406 19.566406 C 15.832031 19.652344 15.832031 19.652344 15.714844 19.71875 C 15.683594 19.703125 15.652344 19.6875 15.621094 19.667969 C 15.652344 19.601562 15.683594 19.535156 15.714844 19.464844 C 15.757812 19.480469 15.804688 19.5 15.847656 19.515625 C 15.847656 19.464844 15.847656 19.414062 15.847656 19.363281 C 15.878906 19.363281 15.910156 19.363281 15.941406 19.363281 C 15.953125 19.3125 15.96875 19.261719 15.984375 19.210938 Z M 15.984375 19.210938 "/>
<path style=" stroke:none;fill-rule:nonzero;fill:rgb(5.490196%,8.627451%,10.980392%);fill-opacity:1;" d="M 14.265625 10.699219 C 14.429688 10.71875 14.59375 10.734375 14.761719 10.75 C 14.671875 10.800781 14.671875 10.800781 14.582031 10.851562 C 14.582031 10.871094 14.582031 10.886719 14.582031 10.90625 C 14.644531 10.902344 14.644531 10.902344 14.710938 10.898438 C 14.851562 10.90625 14.851562 10.90625 14.945312 11.007812 C 14.75 11.007812 14.554688 11.007812 14.355469 11.007812 C 14.324219 10.90625 14.296875 10.804688 14.265625 10.699219 Z M 14.265625 10.699219 "/>
<path style=" stroke:none;fill-rule:nonzero;fill:rgb(11.764706%,14.901961%,17.647059%);fill-opacity:1;" d="M 15.167969 9.886719 C 15.15625 10.003906 15.140625 10.121094 15.125 10.242188 C 15.09375 10.242188 15.066406 10.242188 15.035156 10.242188 C 15.019531 10.308594 15.003906 10.375 14.988281 10.445312 C 14.988281 10.328125 14.988281 10.210938 14.988281 10.089844 C 14.945312 10.074219 14.898438 10.054688 14.851562 10.039062 C 14.851562 9.988281 14.851562 9.9375 14.851562 9.886719 C 14.972656 9.816406 15.042969 9.851562 15.167969 9.886719 Z M 15.167969 9.886719 "/>
<path style=" stroke:none;fill-rule:nonzero;fill:rgb(15.686275%,18.431373%,20.784314%);fill-opacity:1;" d="M 16.347656 10.191406 C 16.71875 10.160156 16.71875 10.160156 16.871094 10.292969 C 16.890625 10.328125 16.914062 10.359375 16.9375 10.394531 C 16.921875 10.445312 16.90625 10.496094 16.890625 10.546875 C 16.832031 10.53125 16.769531 10.515625 16.710938 10.496094 C 16.695312 10.429688 16.679688 10.363281 16.664062 10.292969 C 16.558594 10.277344 16.453125 10.257812 16.347656 10.242188 C 16.347656 10.226562 16.347656 10.207031 16.347656 10.191406 Z M 16.347656 10.191406 "/>
<path style=" stroke:none;fill-rule:nonzero;fill:rgb(25.490198%,27.843139%,29.803923%);fill-opacity:1;" d="M 7.019531 18.496094 C 7.046875 18.496094 7.078125 18.496094 7.109375 18.496094 C 7.207031 18.734375 7.207031 18.734375 7.15625 18.90625 C 7.078125 18.855469 7.003906 18.804688 6.929688 18.75 C 6.957031 18.667969 6.988281 18.582031 7.019531 18.496094 Z M 7.019531 18.496094 "/>
<path style=" stroke:none;fill-rule:nonzero;fill:rgb(35.294119%,36.862746%,38.82353%);fill-opacity:1;" d="M 14.398438 3.667969 C 14.464844 3.683594 14.53125 3.699219 14.597656 3.714844 C 14.636719 3.722656 14.671875 3.730469 14.710938 3.738281 C 14.808594 3.769531 14.808594 3.769531 14.898438 3.871094 C 14.851562 3.921875 14.808594 3.972656 14.761719 4.027344 C 14.5 3.785156 14.5 3.785156 14.398438 3.667969 Z M 14.398438 3.667969 "/>
<path style=" stroke:none;fill-rule:nonzero;fill:rgb(17.254902%,19.607843%,21.568628%);fill-opacity:1;" d="M 7.25 10.1875 C 7.304688 10.1875 7.304688 10.1875 7.359375 10.1875 C 7.398438 10.1875 7.4375 10.1875 7.476562 10.1875 C 7.503906 10.191406 7.53125 10.191406 7.5625 10.191406 C 7.5625 10.207031 7.5625 10.226562 7.5625 10.242188 C 7.535156 10.25 7.511719 10.253906 7.484375 10.261719 C 7.433594 10.273438 7.433594 10.273438 7.382812 10.285156 C 7.351562 10.292969 7.316406 10.304688 7.285156 10.3125 C 7.191406 10.335938 7.191406 10.335938 7.15625 10.445312 C 7.109375 10.445312 7.066406 10.445312 7.019531 10.445312 C 7.128906 10.191406 7.128906 10.191406 7.25 10.1875 Z M 7.25 10.1875 "/>
<path style=" stroke:none;fill-rule:nonzero;fill:rgb(30.980393%,32.941177%,34.901962%);fill-opacity:1;" d="M 5.390625 16.714844 C 5.417969 16.714844 5.449219 16.714844 5.480469 16.714844 C 5.480469 16.746094 5.480469 16.78125 5.480469 16.816406 C 5.554688 16.832031 5.628906 16.847656 5.707031 16.867188 C 5.71875 16.917969 5.734375 16.96875 5.75 17.019531 C 5.691406 17.035156 5.632812 17.054688 5.570312 17.070312 C 5.554688 17.003906 5.539062 16.933594 5.523438 16.867188 C 5.496094 16.867188 5.464844 16.867188 5.433594 16.867188 C 5.417969 16.816406 5.402344 16.765625 5.390625 16.714844 Z M 5.390625 16.714844 "/>
<path style=" stroke:none;fill-rule:nonzero;fill:rgb(12.54902%,14.901961%,17.254902%);fill-opacity:1;" d="M 12.226562 13.402344 C 12.382812 13.503906 12.382812 13.503906 12.542969 13.605469 C 12.5 13.628906 12.5 13.628906 12.453125 13.65625 C 12.4375 13.691406 12.421875 13.722656 12.40625 13.757812 C 12.347656 13.722656 12.289062 13.691406 12.226562 13.65625 C 12.226562 13.570312 12.226562 13.488281 12.226562 13.402344 Z M 12.226562 13.402344 "/>
<path style=" stroke:none;fill-rule:nonzero;fill:rgb(14.901961%,17.647059%,20%);fill-opacity:1;" d="M 16.9375 11.71875 C 16.996094 11.855469 17.054688 11.992188 17.117188 12.128906 C 17.042969 12.144531 16.96875 12.160156 16.890625 12.179688 C 16.90625 12.027344 16.921875 11.875 16.9375 11.71875 Z M 16.9375 11.71875 "/>
<path style=" stroke:none;fill-rule:nonzero;fill:rgb(41.176471%,43.137255%,44.705883%);fill-opacity:1;" d="M 15.351562 19.71875 C 15.410156 19.753906 15.46875 19.785156 15.53125 19.820312 C 15.472656 19.855469 15.414062 19.890625 15.355469 19.925781 C 15.308594 19.957031 15.308594 19.957031 15.257812 19.984375 C 15.230469 20 15.199219 20.011719 15.167969 20.027344 C 15.140625 20.007812 15.109375 19.992188 15.078125 19.972656 C 15.078125 19.925781 15.078125 19.875 15.078125 19.820312 C 15.152344 19.820312 15.230469 19.820312 15.304688 19.820312 C 15.320312 19.789062 15.335938 19.753906 15.351562 19.71875 Z M 15.351562 19.71875 "/>
<path style=" stroke:none;fill-rule:nonzero;fill:rgb(33.333334%,34.901962%,36.862746%);fill-opacity:1;" d="M 17.296875 18.191406 C 17.359375 18.207031 17.417969 18.226562 17.480469 18.242188 C 17.324219 18.394531 17.324219 18.394531 17.164062 18.546875 C 17.132812 18.53125 17.101562 18.515625 17.070312 18.496094 C 17.070312 18.464844 17.070312 18.429688 17.070312 18.394531 C 17.132812 18.394531 17.191406 18.394531 17.253906 18.394531 C 17.269531 18.328125 17.28125 18.261719 17.296875 18.191406 Z M 17.296875 18.191406 "/>
<path style=" stroke:none;fill-rule:nonzero;fill:rgb(25.490198%,27.843139%,29.411766%);fill-opacity:1;" d="M 17.796875 17.578125 C 17.824219 17.578125 17.855469 17.578125 17.886719 17.578125 C 17.863281 17.773438 17.789062 17.859375 17.660156 17.988281 C 17.644531 17.902344 17.628906 17.820312 17.613281 17.734375 C 17.660156 17.714844 17.703125 17.699219 17.75 17.679688 C 17.765625 17.648438 17.78125 17.613281 17.796875 17.578125 Z M 17.796875 17.578125 "/>
<path style=" stroke:none;fill-rule:nonzero;fill:rgb(21.960784%,24.705882%,27.058825%);fill-opacity:1;" d="M 8.921875 12.332031 C 8.90625 12.382812 8.890625 12.433594 8.875 12.484375 C 8.867188 12.589844 8.855469 12.695312 8.851562 12.800781 C 8.847656 12.855469 8.84375 12.910156 8.839844 12.96875 C 8.835938 13.007812 8.832031 13.050781 8.832031 13.09375 C 8.816406 13.09375 8.800781 13.09375 8.785156 13.09375 C 8.769531 12.859375 8.753906 12.625 8.738281 12.382812 C 8.832031 12.332031 8.832031 12.332031 8.921875 12.332031 Z M 8.921875 12.332031 "/>
<path style=" stroke:none;fill-rule:nonzero;fill:rgb(20%,22.352941%,23.921569%);fill-opacity:1;" d="M 6.25 11.921875 C 6.265625 11.921875 6.277344 11.921875 6.292969 11.921875 C 6.292969 12.042969 6.292969 12.160156 6.292969 12.28125 C 6.382812 12.304688 6.382812 12.304688 6.476562 12.332031 C 6.492188 12.398438 6.503906 12.464844 6.519531 12.535156 C 6.476562 12.519531 6.429688 12.5 6.386719 12.484375 C 6.386719 12.433594 6.386719 12.382812 6.386719 12.332031 C 6.339844 12.332031 6.296875 12.332031 6.25 12.332031 C 6.25 12.195312 6.25 12.0625 6.25 11.921875 Z M 6.25 11.921875 "/>
<path style=" stroke:none;fill-rule:nonzero;fill:rgb(14.117648%,16.862746%,18.82353%);fill-opacity:1;" d="M 13.855469 12.839844 C 13.886719 12.839844 13.917969 12.839844 13.945312 12.839844 C 13.933594 12.941406 13.917969 13.042969 13.902344 13.148438 C 13.84375 13.164062 13.78125 13.179688 13.722656 13.199219 C 13.804688 12.898438 13.804688 12.898438 13.855469 12.839844 Z M 13.855469 12.839844 "/>
<path style=" stroke:none;fill-rule:nonzero;fill:rgb(23.137255%,25.098041%,27.450982%);fill-opacity:1;" d="M 19.382812 9.734375 C 19.425781 9.734375 19.472656 9.734375 19.515625 9.734375 C 19.53125 9.832031 19.546875 9.933594 19.5625 10.039062 C 19.503906 10.019531 19.441406 10.003906 19.382812 9.988281 C 19.382812 9.902344 19.382812 9.820312 19.382812 9.734375 Z M 19.382812 9.734375 "/>
<path style=" stroke:none;fill-rule:nonzero;fill:rgb(39.607844%,41.568628%,43.137255%);fill-opacity:1;" d="M 19.199219 8.816406 C 19.289062 8.867188 19.289062 8.867188 19.339844 9.007812 C 19.378906 9.15625 19.390625 9.273438 19.382812 9.425781 C 19.222656 9.238281 19.21875 9.066406 19.199219 8.816406 Z M 19.199219 8.816406 "/>
<path style=" stroke:none;fill-rule:nonzero;fill:rgb(41.960785%,45.882353%,47.843137%);fill-opacity:1;" d="M 8.605469 4.128906 C 8.574219 4.195312 8.542969 4.261719 8.511719 4.332031 C 8.378906 4.304688 8.378906 4.304688 8.242188 4.28125 C 8.285156 4.179688 8.285156 4.179688 8.398438 4.117188 C 8.511719 4.078125 8.511719 4.078125 8.605469 4.128906 Z M 8.605469 4.128906 "/>
</g>
</svg>
