<?xml version="1.0" encoding="UTF-8"?>
<svg xmlns="http://www.w3.org/2000/svg" xmlns:xlink="http://www.w3.org/1999/xlink" width="300px" height="300px" viewBox="0 0 300 300" version="1.1">
<g id="surface1">
<path style=" stroke:none;fill-rule:nonzero;fill:rgb(7.450981%,11.372549%,14.901961%);fill-opacity:1;" d="M 179.980469 45.214844 C 180.515625 45.410156 181.054688 45.605469 181.640625 45.75 C 188.914062 48.484375 196.582031 52.441406 202.6875 57.664062 C 203.710938 58.546875 204.6875 59.226562 205.8125 59.863281 C 208.300781 61.523438 210.695312 63.378906 212.84375 65.625 C 212.84375 66.015625 212.84375 66.453125 212.84375 66.894531 C 213.183594 67.039062 213.523438 67.234375 213.867188 67.429688 C 215.085938 68.164062 215.085938 68.164062 216.796875 69.433594 C 216.796875 69.824219 216.796875 70.265625 216.796875 70.703125 C 217.089844 70.851562 217.429688 70.996094 217.773438 71.140625 C 219.382812 72.21875 220.410156 73.484375 221.632812 75.097656 C 222.070312 75.632812 222.507812 76.171875 222.949219 76.757812 C 225.828125 80.617188 225.828125 80.617188 225.828125 82.179688 C 226.21875 82.179688 226.609375 82.179688 227 82.179688 C 227.832031 83.351562 227.832031 83.351562 228.710938 84.863281 C 229.003906 85.351562 229.296875 85.890625 229.640625 86.375 C 230.320312 87.792969 230.664062 88.914062 230.957031 90.429688 C 231.296875 90.429688 231.6875 90.429688 232.078125 90.429688 C 232.078125 91.0625 232.078125 91.699219 232.078125 92.335938 C 232.46875 92.335938 232.8125 92.335938 233.203125 92.335938 C 233.203125 93.210938 233.203125 94.042969 233.203125 94.921875 C 233.59375 94.921875 233.9375 94.921875 234.328125 94.921875 C 246.972656 122.3125 251.269531 152.539062 242.96875 182.46875 C 239.257812 195.070312 233.640625 209.03125 225.828125 219.09375 C 225.488281 219.09375 225.097656 219.09375 224.707031 219.09375 C 224.707031 219.53125 224.707031 219.96875 224.707031 220.359375 C 224.367188 220.359375 223.976562 220.359375 223.585938 220.359375 C 223.339844 220.945312 223.339844 220.945312 223.144531 221.484375 C 222.414062 222.949219 221.726562 224.21875 220.75 225.488281 C 220.359375 225.488281 220.019531 225.488281 219.628906 225.488281 C 219.433594 226.023438 219.433594 226.023438 219.1875 226.609375 C 218.40625 228.222656 217.53125 229.148438 216.257812 230.371094 C 215.671875 230.957031 215.671875 230.957031 215.085938 231.542969 C 213.964844 232.46875 213.964844 232.46875 212.257812 233.105469 C 212.0625 233.742188 211.914062 234.375 211.71875 235.007812 C 210.695312 236.035156 210.695312 236.035156 209.523438 237.0625 C 209.132812 237.402344 208.691406 237.742188 208.300781 238.085938 C 207.179688 238.867188 207.179688 238.867188 205.46875 238.867188 C 205.273438 239.5 205.078125 240.136719 204.882812 240.773438 C 204.054688 241.503906 204.054688 241.503906 202.976562 242.140625 C 202.636719 242.382812 202.296875 242.578125 201.953125 242.820312 C 200.929688 243.3125 200.929688 243.3125 199.265625 243.3125 C 199.265625 243.75 199.265625 244.140625 199.265625 244.578125 C 189.453125 250.585938 180.03125 254.929688 169.09375 257.421875 C 168.652344 257.570312 168.164062 257.664062 167.726562 257.765625 C 150.148438 261.621094 130.371094 259.863281 113.769531 252.246094 C 113.085938 251.90625 112.402344 251.609375 111.671875 251.269531 C 104.296875 247.851562 97.703125 243.40625 91.308594 238.039062 C 90.1875 237.109375 89.0625 236.28125 87.890625 235.449219 C 87.5 235.109375 87.0625 234.765625 86.621094 234.375 C 86.621094 233.984375 86.621094 233.546875 86.621094 233.105469 C 85.839844 232.714844 85.109375 232.273438 84.328125 231.835938 C 84.328125 231.445312 84.328125 231.007812 84.328125 230.566406 C 83.789062 230.566406 83.203125 230.566406 82.617188 230.566406 C 82.617188 230.175781 82.617188 229.734375 82.617188 229.296875 C 82.273438 229.296875 81.882812 229.296875 81.492188 229.296875 C 81.492188 228.859375 81.492188 228.46875 81.492188 228.027344 C 81.152344 228.027344 80.761719 228.027344 80.371094 228.027344 C 79.148438 226.855469 79.148438 226.855469 78.125 225.488281 C 78.125 224.851562 78.125 224.21875 78.125 223.585938 C 77.734375 223.390625 77.390625 223.242188 77 223.046875 C 75.828125 222.3125 75.828125 222.3125 75.292969 220.359375 C 74.902344 220.359375 74.511719 220.359375 74.171875 220.359375 C 73.242188 219.1875 72.363281 217.96875 71.53125 216.699219 C 71.289062 216.308594 71.046875 215.96875 70.800781 215.625 C 69.042969 212.988281 69.042969 212.988281 69.042969 210.839844 C 68.703125 210.839844 68.3125 210.839844 67.921875 210.839844 C 66.40625 207.859375 64.890625 204.882812 63.378906 201.90625 C 63.085938 201.269531 62.742188 200.632812 62.402344 200 C 58.984375 193.066406 57.03125 186.035156 55.226562 178.417969 C 54.929688 177.296875 54.6875 176.171875 54.394531 175.046875 C 50 157.128906 51.171875 136.867188 55.46875 119.09375 C 55.664062 118.359375 55.8125 117.625 56.007812 116.84375 C 57.078125 112.648438 58.546875 108.835938 60.351562 104.929688 C 61.328125 102.6875 62.109375 100.4375 62.84375 98.09375 C 63.183594 98.09375 63.574219 98.09375 63.964844 98.09375 C 64.015625 97.65625 64.0625 97.21875 64.109375 96.777344 C 64.648438 94.335938 65.625 92.578125 66.796875 90.429688 C 67.1875 90.429688 67.53125 90.429688 67.921875 90.429688 C 68.3125 89.210938 68.652344 87.9375 69.042969 86.621094 C 69.433594 86.621094 69.824219 86.621094 70.164062 86.621094 C 70.3125 86.179688 70.410156 85.742188 70.554688 85.304688 C 71.582031 82.8125 73.09375 81.007812 74.707031 79.003906 C 75 78.5625 75.292969 78.171875 75.632812 77.78125 C 79.34375 72.851562 83.25 68.117188 88.039062 64.453125 C 88.964844 63.71875 88.964844 63.71875 89.453125 62.402344 C 89.992188 62.207031 90.578125 62.011719 91.113281 61.816406 C 91.699219 61.621094 92.234375 61.375 92.820312 61.132812 C 93.015625 60.5 93.210938 59.863281 93.40625 59.226562 C 94.335938 58.398438 94.335938 58.398438 95.554688 57.570312 C 96.046875 57.273438 96.484375 56.933594 96.921875 56.640625 C 97.414062 56.347656 97.851562 56.007812 98.339844 55.710938 C 98.828125 55.371094 99.265625 55.078125 99.757812 54.734375 C 105.320312 50.976562 105.320312 50.976562 108.105469 50.976562 C 108.105469 50.539062 108.105469 50.097656 108.105469 49.65625 C 108.691406 49.460938 108.691406 49.460938 109.328125 49.171875 C 109.863281 48.976562 110.398438 48.730469 110.9375 48.535156 C 111.476562 48.289062 112.011719 48.09375 112.546875 47.898438 C 113.476562 47.460938 114.453125 47.070312 115.382812 46.679688 C 135.984375 37.742188 159.03125 37.988281 179.980469 45.214844 Z M 179.980469 45.214844 "/>
<path style=" stroke:none;fill-rule:nonzero;fill:rgb(96.078432%,96.470588%,96.470588%);fill-opacity:1;" d="M 166.601562 137.9375 C 170.214844 140.332031 172.507812 143.945312 173.78125 148.390625 C 174.023438 150.148438 174.070312 151.90625 174.070312 153.664062 C 174.070312 154.148438 174.070312 154.589844 174.070312 155.078125 C 173.925781 159.765625 172.898438 163.71875 170.117188 167.285156 C 169.289062 168.164062 169.289062 168.164062 167.53125 169.433594 C 167.039062 169.824219 166.554688 170.164062 166.015625 170.605469 C 162.890625 171.828125 159.617188 172.167969 156.542969 170.65625 C 155.226562 169.726562 153.953125 168.75 152.832031 167.53125 C 152.636719 172.558594 152.441406 177.585938 152.246094 182.8125 C 149.65625 182.8125 147.023438 182.8125 144.335938 182.8125 C 144.335938 167.871094 144.335938 152.976562 144.335938 137.597656 C 146.972656 137.597656 149.5625 137.597656 152.246094 137.597656 C 152.246094 138.625 152.246094 139.695312 152.246094 140.773438 C 152.6875 140.382812 153.078125 139.992188 153.515625 139.550781 C 157.324219 136.328125 162.207031 135.742188 166.601562 137.9375 Z M 166.601562 137.9375 "/>
<path style=" stroke:none;fill-rule:nonzero;fill:rgb(96.470588%,97.254902%,97.254902%);fill-opacity:1;" d="M 132.46875 138.867188 C 135.007812 140.722656 136.132812 142.285156 136.71875 145.605469 C 137.011719 148.09375 137.0625 150.539062 137.0625 153.027344 C 137.011719 153.515625 137.011719 154.003906 137.011719 154.492188 C 137.011719 156.054688 137.011719 157.617188 137.011719 159.179688 C 137.011719 160.203125 137.011719 161.28125 137.011719 162.304688 C 137.011719 164.890625 137.011719 167.480469 136.960938 170.070312 C 134.570312 170.070312 132.128906 170.070312 129.640625 170.070312 C 129.640625 169.238281 129.640625 168.359375 129.640625 167.53125 C 128.90625 168.117188 128.90625 168.117188 128.125 168.703125 C 124.65625 171.191406 121.242188 172.117188 117.1875 171.335938 C 114.40625 169.875 111.914062 167.96875 110.398438 164.992188 C 109.8125 161.375 109.617188 157.617188 111.230469 154.34375 C 112.742188 152.34375 113.820312 151.171875 116.015625 150.34375 C 124.707031 149.707031 124.707031 149.707031 128.46875 152.246094 C 128.808594 148.632812 128.808594 148.632812 127.441406 145.554688 C 124.804688 144.140625 122.363281 144.09375 119.433594 144.578125 C 118.210938 145.164062 118.210938 145.164062 117.1875 145.945312 C 115.476562 147.117188 115.476562 147.117188 114.160156 146.828125 C 113.039062 145.703125 112.546875 144.921875 112.0625 143.3125 C 112.0625 142.039062 112.0625 142.039062 112.648438 140.773438 C 118.601562 136.28125 125.878906 135.203125 132.46875 138.867188 Z M 132.46875 138.867188 "/>
<path style=" stroke:none;fill-rule:nonzero;fill:rgb(94.509804%,94.901961%,95.294118%);fill-opacity:1;" d="M 204.34375 121.679688 C 208.445312 121.335938 211.230469 121.289062 214.550781 124.21875 C 218.015625 128.273438 217.726562 132.273438 217.675781 137.742188 C 217.675781 139.355469 217.675781 140.96875 217.675781 142.578125 C 217.675781 143.652344 217.675781 143.652344 217.675781 144.726562 C 217.773438 146.582031 217.773438 146.582031 219.042969 147.609375 C 219.433594 147.898438 219.824219 148.144531 220.164062 148.390625 C 220.507812 150.148438 220.3125 151.710938 220.164062 153.515625 C 219.335938 153.808594 219.335938 153.808594 218.507812 154.148438 C 217.726562 155.859375 217.820312 157.226562 217.820312 159.179688 C 217.773438 160.304688 217.773438 160.304688 217.773438 161.476562 C 217.726562 163.039062 217.726562 164.648438 217.675781 166.210938 C 217.675781 166.992188 217.625 167.726562 217.625 168.507812 C 217.625 169.1875 217.625 169.921875 217.578125 170.605469 C 217.335938 172.898438 216.648438 174.460938 215.671875 176.414062 C 215.28125 176.414062 214.890625 176.414062 214.550781 176.414062 C 214.550781 176.855469 214.550781 177.296875 214.550781 177.6875 C 211.132812 180.421875 208.445312 180.566406 204.34375 180.273438 C 204.34375 178.367188 204.34375 176.464844 204.34375 174.511719 C 207.421875 174.21875 207.421875 174.21875 210.546875 173.875 C 211.179688 171.875 211.230469 170.410156 211.28125 168.3125 C 211.28125 167.578125 211.328125 166.84375 211.328125 166.113281 C 211.375 164.601562 211.375 163.085938 211.425781 161.523438 C 211.425781 160.839844 211.476562 160.109375 211.476562 159.328125 C 211.476562 158.691406 211.523438 158.007812 211.523438 157.324219 C 211.71875 155.273438 212.207031 153.515625 212.84375 151.609375 C 213.183594 151.609375 213.574219 151.609375 213.964844 151.609375 C 213.671875 151.21875 213.429688 150.878906 213.132812 150.488281 C 211.621094 148 211.621094 145.65625 211.570312 142.675781 C 211.570312 141.945312 211.523438 141.210938 211.523438 140.476562 C 211.523438 138.964844 211.476562 137.402344 211.476562 135.890625 C 211.425781 135.15625 211.425781 134.421875 211.425781 133.640625 C 211.375 133.007812 211.375 132.324219 211.375 131.640625 C 211.230469 129.929688 211.230469 129.929688 210.351562 128.757812 C 209.132812 127.78125 208.25 127.6875 206.789062 127.585938 C 205.566406 127.492188 205.566406 127.492188 204.34375 127.390625 C 204.34375 125.488281 204.34375 123.585938 204.34375 121.679688 Z M 204.34375 121.679688 "/>
<path style=" stroke:none;fill-rule:nonzero;fill:rgb(97.254902%,97.647059%,97.647059%);fill-opacity:1;" d="M 91.503906 121.632812 C 92.335938 121.632812 92.335938 121.632812 93.210938 121.632812 C 93.652344 121.632812 94.09375 121.632812 94.53125 121.679688 C 94.53125 123.535156 94.53125 125.4375 94.53125 127.390625 C 93.261719 127.492188 91.992188 127.585938 90.722656 127.6875 C 89.109375 128.125 88.71875 128.46875 87.742188 129.929688 C 87.453125 131.882812 87.453125 131.882812 87.5 134.132812 C 87.453125 134.960938 87.453125 135.742188 87.453125 136.621094 C 87.453125 137.5 87.402344 138.328125 87.402344 139.210938 C 87.402344 140.917969 87.351562 142.625 87.351562 144.289062 C 87.351562 145.070312 87.351562 145.800781 87.304688 146.582031 C 87.15625 148.390625 87.15625 148.390625 86.035156 149.65625 C 86.28125 151.464844 86.28125 151.464844 87.15625 152.882812 C 87.257812 154.199219 87.257812 155.515625 87.304688 156.882812 C 87.304688 157.714844 87.304688 158.496094 87.351562 159.375 C 87.351562 160.695312 87.402344 161.960938 87.402344 163.28125 C 87.402344 164.550781 87.453125 165.820312 87.453125 167.089844 C 87.5 167.820312 87.5 168.601562 87.5 169.382812 C 87.742188 171.484375 88.085938 172.363281 89.453125 173.875 C 90.722656 174.316406 90.722656 174.316406 92.089844 174.367188 C 92.871094 174.414062 93.703125 174.460938 94.53125 174.511719 C 94.53125 176.414062 94.53125 178.320312 94.53125 180.273438 C 90.332031 180.515625 87.597656 180.273438 84.179688 177.195312 C 82.273438 174.511719 81.933594 171.53125 81.882812 168.164062 C 81.835938 167.140625 81.835938 167.140625 81.835938 166.0625 C 81.789062 164.601562 81.789062 163.132812 81.738281 161.671875 C 81.738281 160.984375 81.738281 160.304688 81.6875 159.570312 C 81.6875 158.9375 81.6875 158.300781 81.6875 157.664062 C 81.59375 155.90625 81.59375 155.90625 80.371094 154.148438 C 79.835938 153.90625 79.25 153.710938 78.664062 153.515625 C 78.664062 151.804688 78.664062 150.148438 78.664062 148.390625 C 79.539062 148.09375 79.539062 148.09375 80.371094 147.753906 C 81.445312 145.507812 81.640625 143.601562 81.6875 141.0625 C 81.6875 140.382812 81.6875 139.746094 81.738281 139.0625 C 81.738281 137.695312 81.789062 136.28125 81.789062 134.914062 C 81.882812 130.8125 82.03125 127.585938 84.617188 124.414062 C 87.15625 122.265625 88.328125 121.582031 91.503906 121.632812 Z M 91.503906 121.632812 "/>
<path style=" stroke:none;fill-rule:nonzero;fill:rgb(94.901961%,95.294118%,95.686275%);fill-opacity:1;" d="M 179.445312 137.597656 C 182.03125 137.597656 184.667969 137.597656 187.351562 137.597656 C 187.351562 148.484375 187.351562 159.421875 187.351562 170.703125 C 184.765625 170.703125 182.128906 170.703125 179.445312 170.703125 C 179.445312 159.765625 179.445312 148.828125 179.445312 137.597656 Z M 179.445312 137.597656 "/>
<path style=" stroke:none;fill-rule:nonzero;fill:rgb(9.411765%,12.941177%,16.078432%);fill-opacity:1;" d="M 160.742188 144.578125 C 162.84375 145.65625 164.304688 147.023438 165.527344 149.21875 C 166.308594 153.515625 166.210938 157.324219 164.160156 161.132812 C 162.351562 162.9375 160.59375 163.625 158.25 164.109375 C 155.957031 163.625 154.394531 163.132812 152.585938 161.476562 C 151.269531 159.082031 151.21875 156.882812 151.21875 154.101562 C 151.171875 153.613281 151.171875 153.078125 151.171875 152.585938 C 151.21875 150.488281 151.269531 149.023438 152.441406 147.363281 C 155.078125 144.875 157.324219 143.992188 160.742188 144.578125 Z M 160.742188 144.578125 "/>
<path style=" stroke:none;fill-rule:nonzero;fill:rgb(9.803922%,13.725491%,16.078432%);fill-opacity:1;" d="M 125.195312 155.90625 C 125.683594 156.054688 126.171875 156.152344 126.660156 156.25 C 127.929688 156.6875 127.929688 156.6875 129.054688 157.960938 C 129.199219 159.667969 129.101562 161.328125 129.054688 163.039062 C 126.757812 164.648438 124.851562 165.867188 122.070312 165.527344 C 120.019531 164.992188 120.019531 164.992188 118.3125 163.671875 C 117.429688 159.328125 117.429688 159.328125 118.359375 157.03125 C 120.460938 155.078125 122.65625 155.320312 125.195312 155.90625 Z M 125.195312 155.90625 "/>
<path style=" stroke:none;fill-rule:nonzero;fill:rgb(12.54902%,16.078432%,18.82353%);fill-opacity:1;" d="M 126.804688 144.433594 C 127.734375 145.164062 127.734375 145.164062 129.054688 147.117188 C 129.34375 149.316406 129.25 151.320312 129.054688 153.515625 C 128.859375 153.078125 128.664062 152.6875 128.46875 152.246094 C 125.34375 150.878906 122.21875 150.734375 118.847656 150.539062 C 117.234375 150.34375 116.308594 149.953125 114.890625 149.023438 C 114.550781 148.828125 114.160156 148.632812 113.769531 148.390625 C 113.378906 148.828125 113.039062 149.265625 112.648438 149.65625 C 112.648438 148 112.648438 146.335938 112.648438 144.578125 C 113.183594 145.214844 113.769531 145.851562 114.355469 146.484375 C 116.308594 145.65625 116.308594 145.65625 118.210938 144.578125 C 120.851562 143.261719 124.121094 143.3125 126.804688 144.433594 Z M 126.804688 144.433594 "/>
<path style=" stroke:none;fill-rule:nonzero;fill:rgb(94.901961%,95.686275%,95.686275%);fill-opacity:1;" d="M 185.109375 124.21875 C 186.476562 124.851562 186.476562 124.851562 187.351562 126.125 C 187.742188 129.296875 187.792969 130.515625 186.179688 133.15625 C 184.523438 134.375 184.523438 134.375 182.519531 134.472656 C 180.226562 133.640625 179.492188 132.910156 178.320312 130.566406 C 177.976562 129.003906 177.976562 129.003906 178.320312 127.390625 C 180.320312 124.316406 181.738281 123.679688 185.109375 124.21875 Z M 185.109375 124.21875 "/>
<path style=" stroke:none;fill-rule:nonzero;fill:rgb(8.627451%,11.764706%,14.117648%);fill-opacity:1;" d="M 124.511719 144.578125 C 126.074219 144.726562 127.050781 144.96875 128.273438 145.996094 C 129.34375 147.558594 129.25 148.535156 129.148438 150.4375 C 129.148438 151.023438 129.148438 151.5625 129.101562 152.195312 C 129.101562 152.636719 129.054688 153.078125 129.054688 153.515625 C 128.859375 153.078125 128.664062 152.6875 128.46875 152.246094 C 128.125 152.050781 127.78125 151.855469 127.390625 151.609375 C 126.21875 150.976562 126.21875 150.976562 125.097656 149.023438 C 125.097656 148.195312 125.097656 147.363281 125.097656 146.484375 C 124.511719 146.289062 123.976562 146.09375 123.390625 145.851562 C 123.78125 145.460938 124.121094 145.019531 124.511719 144.578125 Z M 124.511719 144.578125 "/>
<path style=" stroke:none;fill-rule:nonzero;fill:rgb(32.156864%,34.117648%,36.470589%);fill-opacity:1;" d="M 94.53125 58.59375 C 94.921875 58.789062 95.265625 59.03125 95.65625 59.226562 C 94.042969 62.792969 92.234375 63.914062 89.015625 65.429688 C 87.546875 66.359375 87.304688 67.089844 86.621094 68.796875 C 84.8125 69.289062 84.8125 69.289062 83.203125 69.433594 C 84.617188 67.773438 85.984375 66.257812 87.597656 64.84375 C 88.914062 63.820312 88.914062 63.820312 89.453125 62.402344 C 89.992188 62.207031 90.578125 62.011719 91.113281 61.816406 C 91.992188 61.476562 91.992188 61.476562 92.820312 61.132812 C 93.015625 60.5 93.210938 59.863281 93.40625 59.226562 C 93.75 59.03125 94.140625 58.835938 94.53125 58.59375 Z M 94.53125 58.59375 "/>
<path style=" stroke:none;fill-rule:nonzero;fill:rgb(30.19608%,32.156864%,34.117648%);fill-opacity:1;" d="M 199.804688 240.136719 C 201.515625 240.136719 203.171875 240.136719 204.882812 240.136719 C 203.027344 241.992188 201.757812 242.96875 199.265625 243.3125 C 199.265625 243.75 199.265625 244.140625 199.265625 244.578125 C 197.898438 245.65625 197.898438 245.65625 196.4375 246.484375 C 196.046875 246.289062 195.65625 246.09375 195.265625 245.851562 C 195.65625 245.019531 196.046875 244.1875 196.4375 243.3125 C 196.972656 243.507812 197.558594 243.75 198.09375 243.945312 C 198.09375 243.3125 198.09375 242.675781 198.09375 242.039062 C 198.484375 242.039062 198.875 242.039062 199.265625 242.039062 C 199.414062 241.40625 199.609375 240.773438 199.804688 240.136719 Z M 199.804688 240.136719 "/>
<path style=" stroke:none;fill-rule:nonzero;fill:rgb(5.490196%,8.627451%,10.980392%);fill-opacity:1;" d="M 178.320312 133.742188 C 180.371094 133.984375 182.421875 134.179688 184.523438 134.375 C 183.398438 135.007812 183.398438 135.007812 182.273438 135.644531 C 182.273438 135.890625 182.273438 136.085938 182.273438 136.328125 C 183.054688 136.28125 183.054688 136.28125 183.886719 136.230469 C 185.644531 136.328125 185.644531 136.328125 186.816406 137.597656 C 184.375 137.597656 181.933594 137.597656 179.445312 137.597656 C 179.054688 136.328125 178.710938 135.058594 178.320312 133.742188 Z M 178.320312 133.742188 "/>
<path style=" stroke:none;fill-rule:nonzero;fill:rgb(11.764706%,14.901961%,17.647059%);fill-opacity:1;" d="M 189.601562 123.585938 C 189.453125 125.046875 189.257812 126.515625 189.0625 128.027344 C 188.671875 128.027344 188.328125 128.027344 187.9375 128.027344 C 187.742188 128.859375 187.546875 129.6875 187.351562 130.566406 C 187.351562 129.101562 187.351562 127.636719 187.351562 126.125 C 186.816406 125.929688 186.230469 125.683594 185.644531 125.488281 C 185.644531 124.851562 185.644531 124.21875 185.644531 123.585938 C 187.15625 122.703125 188.039062 123.144531 189.601562 123.585938 Z M 189.601562 123.585938 "/>
<path style=" stroke:none;fill-rule:nonzero;fill:rgb(15.686275%,18.431373%,20.784314%);fill-opacity:1;" d="M 204.34375 127.390625 C 208.984375 127 208.984375 127 210.890625 128.664062 C 211.132812 129.101562 211.425781 129.492188 211.71875 129.929688 C 211.523438 130.566406 211.328125 131.203125 211.132812 131.835938 C 210.398438 131.640625 209.617188 131.445312 208.886719 131.203125 C 208.691406 130.371094 208.496094 129.539062 208.300781 128.664062 C 206.984375 128.46875 205.664062 128.222656 204.34375 128.027344 C 204.34375 127.832031 204.34375 127.585938 204.34375 127.390625 Z M 204.34375 127.390625 "/>
<path style=" stroke:none;fill-rule:nonzero;fill:rgb(25.490198%,27.843139%,29.803923%);fill-opacity:1;" d="M 87.742188 231.203125 C 88.085938 231.203125 88.476562 231.203125 88.867188 231.203125 C 90.085938 234.179688 90.085938 234.179688 89.453125 236.328125 C 88.476562 235.695312 87.546875 235.058594 86.621094 234.375 C 86.960938 233.351562 87.351562 232.273438 87.742188 231.203125 Z M 87.742188 231.203125 "/>
<path style=" stroke:none;fill-rule:nonzero;fill:rgb(35.294119%,36.862746%,38.82353%);fill-opacity:1;" d="M 179.980469 45.851562 C 180.8125 46.046875 181.640625 46.242188 182.46875 46.4375 C 182.960938 46.53125 183.398438 46.632812 183.886719 46.726562 C 185.109375 47.117188 185.109375 47.117188 186.230469 48.390625 C 185.644531 49.023438 185.109375 49.65625 184.523438 50.34375 C 181.25 47.3125 181.25 47.3125 179.980469 45.851562 Z M 179.980469 45.851562 "/>
<path style=" stroke:none;fill-rule:nonzero;fill:rgb(17.254902%,19.607843%,21.568628%);fill-opacity:1;" d="M 90.625 127.34375 C 91.308594 127.34375 91.308594 127.34375 91.992188 127.34375 C 92.480469 127.34375 92.96875 127.34375 93.457031 127.34375 C 93.796875 127.390625 94.140625 127.390625 94.53125 127.390625 C 94.53125 127.585938 94.53125 127.832031 94.53125 128.027344 C 94.1875 128.125 93.898438 128.171875 93.554688 128.273438 C 92.921875 128.417969 92.921875 128.417969 92.285156 128.5625 C 91.894531 128.664062 91.453125 128.808594 91.0625 128.90625 C 89.890625 129.199219 89.890625 129.199219 89.453125 130.566406 C 88.867188 130.566406 88.328125 130.566406 87.742188 130.566406 C 89.109375 127.390625 89.109375 127.390625 90.625 127.34375 Z M 90.625 127.34375 "/>
<path style=" stroke:none;fill-rule:nonzero;fill:rgb(30.980393%,32.941177%,34.901962%);fill-opacity:1;" d="M 67.382812 208.9375 C 67.726562 208.9375 68.117188 208.9375 68.507812 208.9375 C 68.507812 209.328125 68.507812 209.765625 68.507812 210.203125 C 69.433594 210.398438 70.359375 210.59375 71.335938 210.839844 C 71.484375 211.476562 71.679688 212.109375 71.875 212.742188 C 71.140625 212.9375 70.410156 213.183594 69.628906 213.378906 C 69.433594 212.546875 69.238281 211.671875 69.042969 210.839844 C 68.703125 210.839844 68.3125 210.839844 67.921875 210.839844 C 67.726562 210.203125 67.53125 209.570312 67.382812 208.9375 Z M 67.382812 208.9375 "/>
<path style=" stroke:none;fill-rule:nonzero;fill:rgb(12.54902%,14.901961%,17.254902%);fill-opacity:1;" d="M 152.832031 167.53125 C 154.785156 168.796875 154.785156 168.796875 156.789062 170.070312 C 156.25 170.359375 156.25 170.359375 155.664062 170.703125 C 155.46875 171.140625 155.273438 171.53125 155.078125 171.972656 C 154.34375 171.53125 153.613281 171.140625 152.832031 170.703125 C 152.832031 169.628906 152.832031 168.601562 152.832031 167.53125 Z M 152.832031 167.53125 "/>
<path style=" stroke:none;fill-rule:nonzero;fill:rgb(14.901961%,17.647059%,20%);fill-opacity:1;" d="M 211.71875 146.484375 C 212.453125 148.195312 213.183594 149.902344 213.964844 151.609375 C 213.039062 151.804688 212.109375 152 211.132812 152.246094 C 211.328125 150.34375 211.523438 148.4375 211.71875 146.484375 Z M 211.71875 146.484375 "/>
<path style=" stroke:none;fill-rule:nonzero;fill:rgb(41.176471%,43.137255%,44.705883%);fill-opacity:1;" d="M 191.894531 246.484375 C 192.625 246.921875 193.359375 247.3125 194.140625 247.753906 C 193.40625 248.195312 192.675781 248.632812 191.945312 249.070312 C 191.359375 249.460938 191.359375 249.460938 190.722656 249.804688 C 190.382812 250 189.992188 250.148438 189.601562 250.34375 C 189.257812 250.097656 188.867188 249.902344 188.476562 249.65625 C 188.476562 249.070312 188.476562 248.4375 188.476562 247.753906 C 189.40625 247.753906 190.382812 247.753906 191.308594 247.753906 C 191.503906 247.363281 191.699219 246.921875 191.894531 246.484375 Z M 191.894531 246.484375 "/>
<path style=" stroke:none;fill-rule:nonzero;fill:rgb(33.333334%,34.901962%,36.862746%);fill-opacity:1;" d="M 216.210938 227.390625 C 216.992188 227.585938 217.726562 227.832031 218.507812 228.027344 C 216.554688 229.929688 216.554688 229.929688 214.550781 231.835938 C 214.160156 231.640625 213.769531 231.445312 213.378906 231.203125 C 213.378906 230.8125 213.378906 230.371094 213.378906 229.929688 C 214.160156 229.929688 214.890625 229.929688 215.671875 229.929688 C 215.867188 229.101562 216.015625 228.273438 216.210938 227.390625 Z M 216.210938 227.390625 "/>
<path style=" stroke:none;fill-rule:nonzero;fill:rgb(25.490198%,27.843139%,29.411766%);fill-opacity:1;" d="M 222.460938 219.726562 C 222.804688 219.726562 223.195312 219.726562 223.585938 219.726562 C 223.289062 222.167969 222.363281 223.242188 220.75 224.851562 C 220.554688 223.78125 220.359375 222.753906 220.164062 221.679688 C 220.75 221.4375 221.289062 221.242188 221.875 220.996094 C 222.070312 220.605469 222.265625 220.164062 222.460938 219.726562 Z M 222.460938 219.726562 "/>
<path style=" stroke:none;fill-rule:nonzero;fill:rgb(21.960784%,24.705882%,27.058825%);fill-opacity:1;" d="M 111.523438 154.148438 C 111.328125 154.785156 111.132812 155.421875 110.9375 156.054688 C 110.839844 157.375 110.695312 158.691406 110.644531 160.007812 C 110.59375 160.695312 110.546875 161.375 110.5 162.109375 C 110.449219 162.597656 110.398438 163.132812 110.398438 163.671875 C 110.203125 163.671875 110.007812 163.671875 109.8125 163.671875 C 109.617188 160.742188 109.421875 157.8125 109.226562 154.785156 C 110.398438 154.148438 110.398438 154.148438 111.523438 154.148438 Z M 111.523438 154.148438 "/>
<path style=" stroke:none;fill-rule:nonzero;fill:rgb(20%,22.352941%,23.921569%);fill-opacity:1;" d="M 78.125 149.023438 C 78.320312 149.023438 78.46875 149.023438 78.664062 149.023438 C 78.664062 150.539062 78.664062 152 78.664062 153.515625 C 79.785156 153.808594 79.785156 153.808594 80.957031 154.148438 C 81.152344 154.980469 81.296875 155.8125 81.492188 156.6875 C 80.957031 156.492188 80.371094 156.25 79.835938 156.054688 C 79.835938 155.421875 79.835938 154.785156 79.835938 154.148438 C 79.25 154.148438 78.710938 154.148438 78.125 154.148438 C 78.125 152.441406 78.125 150.78125 78.125 149.023438 Z M 78.125 149.023438 "/>
<path style=" stroke:none;fill-rule:nonzero;fill:rgb(14.117648%,16.862746%,18.82353%);fill-opacity:1;" d="M 173.195312 160.5 C 173.585938 160.5 173.976562 160.5 174.316406 160.5 C 174.171875 161.765625 173.976562 163.039062 173.78125 164.355469 C 173.046875 164.550781 172.265625 164.746094 171.53125 164.992188 C 172.558594 161.230469 172.558594 161.230469 173.195312 160.5 Z M 173.195312 160.5 "/>
<path style=" stroke:none;fill-rule:nonzero;fill:rgb(23.137255%,25.098041%,27.450982%);fill-opacity:1;" d="M 242.285156 121.679688 C 242.820312 121.679688 243.40625 121.679688 243.945312 121.679688 C 244.140625 122.898438 244.335938 124.171875 244.53125 125.488281 C 243.796875 125.242188 243.015625 125.046875 242.285156 124.851562 C 242.285156 123.78125 242.285156 122.753906 242.285156 121.679688 Z M 242.285156 121.679688 "/>
<path style=" stroke:none;fill-rule:nonzero;fill:rgb(39.607844%,41.568628%,43.137255%);fill-opacity:1;" d="M 239.992188 110.203125 C 241.113281 110.839844 241.113281 110.839844 241.75 112.597656 C 242.234375 114.453125 242.382812 115.917969 242.285156 117.820312 C 240.28125 115.476562 240.234375 113.328125 239.992188 110.203125 Z M 239.992188 110.203125 "/>
<path style=" stroke:none;fill-rule:nonzero;fill:rgb(41.960785%,45.882353%,47.843137%);fill-opacity:1;" d="M 107.570312 51.609375 C 107.179688 52.441406 106.789062 53.273438 106.398438 54.148438 C 104.734375 53.808594 104.734375 53.808594 103.027344 53.515625 C 103.5625 52.246094 103.5625 52.246094 104.980469 51.464844 C 106.398438 50.976562 106.398438 50.976562 107.570312 51.609375 Z M 107.570312 51.609375 "/>
</g>
</svg>
