<?xml version="1.0" encoding="UTF-8"?>
<svg xmlns="http://www.w3.org/2000/svg" xmlns:xlink="http://www.w3.org/1999/xlink" width="300px" height="300px" viewBox="0 0 300 300" version="1.1">
<g id="surface1">
<path style=" stroke:none;fill-rule:nonzero;fill:rgb(48.627451%,6.666667%,97.647059%);fill-opacity:1;" d="M 94.566406 62.386719 C 95.914062 62.382812 97.261719 62.375 98.613281 62.367188 C 102.253906 62.351562 105.894531 62.363281 109.535156 62.378906 C 113.355469 62.394531 117.175781 62.386719 120.996094 62.382812 C 127.410156 62.378906 133.824219 62.390625 140.238281 62.417969 C 147.640625 62.445312 155.042969 62.445312 162.445312 62.429688 C 169.585938 62.414062 176.722656 62.421875 183.863281 62.4375 C 186.894531 62.441406 189.925781 62.441406 192.957031 62.433594 C 196.527344 62.429688 200.097656 62.4375 203.667969 62.460938 C 204.972656 62.46875 206.28125 62.46875 207.585938 62.460938 C 215.824219 62.425781 221.640625 62.84375 228.179688 68.320312 C 233.105469 74.175781 235.417969 78.730469 235.496094 86.421875 C 235.121094 113.648438 235.121094 113.648438 246.550781 137.070312 C 246.550781 137.636719 246.550781 138.207031 246.550781 138.792969 C 247.015625 139.023438 247.476562 139.253906 247.953125 139.492188 C 249.488281 140.261719 251.015625 141.058594 252.53125 141.863281 C 255.359375 143.320312 255.359375 143.320312 259.484375 143.964844 C 259.484375 147.664062 259.484375 151.363281 259.484375 155.171875 C 257.601562 155.984375 255.722656 156.800781 253.84375 157.613281 C 246.617188 161.046875 243.28125 165.996094 240.289062 173.378906 C 236.375 185.316406 235.921875 197.457031 235.871094 209.910156 C 235.714844 218.0625 234.554688 225.960938 228.449219 231.898438 C 223.082031 235.789062 219.230469 237.171875 212.570312 237.195312 C 212.015625 237.199219 211.460938 237.203125 210.890625 237.207031 C 209.039062 237.214844 207.183594 237.21875 205.332031 237.222656 C 204 237.226562 202.671875 237.234375 201.34375 237.238281 C 196.976562 237.257812 192.609375 237.265625 188.246094 237.273438 C 186.738281 237.277344 185.234375 237.28125 183.730469 237.285156 C 176.65625 237.300781 169.585938 237.3125 162.515625 237.320312 C 154.363281 237.328125 146.207031 237.351562 138.054688 237.386719 C 131.746094 237.414062 125.4375 237.425781 119.128906 237.429688 C 115.367188 237.429688 111.601562 237.4375 107.835938 237.460938 C 104.292969 237.480469 100.75 237.484375 97.203125 237.476562 C 95.90625 237.472656 94.609375 237.480469 93.3125 237.492188 C 85.019531 237.5625 78.378906 237.089844 71.765625 231.679688 C 66.894531 225.726562 64.59375 221.230469 64.472656 213.488281 C 64.449219 212.40625 64.429688 211.324219 64.40625 210.210938 C 64.394531 209.640625 64.382812 209.074219 64.371094 208.488281 C 63.941406 184.140625 63.941406 184.140625 53.894531 162.4375 C 50.140625 158.90625 45.25 157.015625 40.515625 155.171875 C 40.492188 153.628906 40.476562 152.082031 40.464844 150.539062 C 40.453125 149.679688 40.441406 148.820312 40.433594 147.933594 C 40.515625 145.691406 40.515625 145.691406 41.378906 143.964844 C 43.066406 143.335938 44.753906 142.707031 46.449219 142.089844 C 52.894531 139.585938 55.738281 135.355469 58.621094 129.308594 C 63.519531 116.664062 64.074219 103.851562 64.128906 90.4375 C 64.277344 82.355469 65.5625 76.375 69.933594 69.558594 C 77.25 62.71875 85.003906 62.304688 94.566406 62.386719 Z M 94.566406 62.386719 "/>
<path style=" stroke:none;fill-rule:nonzero;fill:rgb(96.470588%,92.941177%,98.431373%);fill-opacity:1;" d="M 116.378906 103.449219 C 167.671875 103.449219 167.671875 103.449219 176.722656 111.207031 C 180.867188 115.523438 182.710938 120.289062 182.785156 126.25 C 182.433594 131.988281 181.085938 136.949219 177 141.140625 C 175.511719 142.441406 174 143.648438 172.414062 144.828125 C 171.78125 145.300781 171.152344 145.777344 170.5 146.265625 C 169.996094 146.644531 169.488281 147.023438 168.964844 147.414062 C 169.519531 147.59375 170.070312 147.773438 170.640625 147.957031 C 177.003906 150.222656 181.304688 152.929688 184.753906 158.839844 C 187.984375 165.84375 188.273438 173.160156 185.722656 180.441406 C 182.671875 187.070312 177.945312 190.660156 171.566406 193.929688 C 154.695312 199.761719 131.496094 196.550781 116.378906 196.550781 C 116.378906 165.828125 116.378906 135.101562 116.378906 103.449219 Z M 116.378906 103.449219 "/>
<path style=" stroke:none;fill-rule:nonzero;fill:rgb(94.509804%,89.019608%,98.431373%);fill-opacity:1;" d="M 116.378906 103.449219 C 158.621094 104.308594 158.621094 104.308594 162.929688 107.757812 C 163.785156 107.191406 164.636719 106.621094 165.515625 106.035156 C 167.222656 108.59375 167.222656 108.59375 168.964844 111.207031 C 167.257812 112.058594 167.257812 112.058594 165.515625 112.929688 C 165.515625 114.921875 165.515625 116.914062 165.515625 118.964844 C 163.1875 118.542969 161.042969 118.042969 158.808594 117.242188 C 153.609375 115.738281 148.09375 115.972656 142.726562 115.839844 C 138.867188 115.734375 135.007812 115.628906 131.035156 115.515625 C 131.035156 123.765625 131.035156 132.015625 131.035156 140.515625 C 130.464844 140.515625 129.898438 140.515625 129.308594 140.515625 C 129.308594 139.664062 129.308594 138.808594 129.308594 137.929688 C 128.742188 138.785156 128.171875 139.636719 127.585938 140.515625 C 126.734375 139.664062 125.878906 138.808594 125 137.929688 C 125.03125 138.59375 125.058594 139.261719 125.089844 139.945312 C 125.113281 140.808594 125.136719 141.675781 125.160156 142.566406 C 125.191406 143.425781 125.222656 144.285156 125.253906 145.171875 C 125.167969 145.910156 125.085938 146.652344 125 147.414062 C 124.148438 147.984375 123.292969 148.550781 122.414062 149.136719 C 122.699219 149.992188 122.984375 150.84375 123.277344 151.722656 C 121.140625 152.152344 121.140625 152.152344 118.964844 152.585938 C 118.964844 154.578125 118.964844 156.570312 118.964844 158.621094 C 121.441406 158.621094 123.472656 158.386719 125.863281 157.757812 C 126.148438 157.191406 126.429688 156.621094 126.722656 156.035156 C 127.292969 156.601562 127.863281 157.171875 128.449219 157.757812 C 126.703125 156.011719 125.492188 153.777344 124.136719 151.722656 C 125.070312 149.859375 126.027344 148.785156 127.585938 147.414062 C 128.15625 147.414062 128.722656 147.414062 129.308594 147.414062 C 129.308594 149.40625 129.308594 151.398438 129.308594 153.449219 C 130.449219 152.59375 131.585938 151.742188 132.757812 150.863281 C 132.472656 149.722656 132.191406 148.585938 131.898438 147.414062 C 134.03125 146.988281 134.03125 146.988281 136.207031 146.550781 C 136.492188 147.691406 136.777344 148.828125 137.070312 150 C 137.351562 149.148438 137.636719 148.292969 137.929688 147.414062 C 139.070312 148.265625 140.207031 149.121094 141.378906 150 C 142.515625 149.429688 143.65625 148.863281 144.828125 148.277344 C 144.828125 149.128906 144.828125 149.984375 144.828125 150.863281 C 145.398438 150.863281 145.964844 150.863281 146.550781 150.863281 C 146.550781 151.429688 146.550781 152 146.550781 152.585938 C 148.542969 152.300781 150.535156 152.015625 152.585938 151.722656 C 152.585938 150.871094 152.585938 150.015625 152.585938 149.136719 C 153.441406 149.566406 153.441406 149.566406 154.308594 150 C 154.308594 150.851562 154.308594 151.707031 154.308594 152.585938 C 156.300781 152.585938 158.292969 152.585938 160.34375 152.585938 C 160.34375 153.15625 160.34375 153.722656 160.34375 154.308594 C 150.957031 154.308594 141.570312 154.308594 131.898438 154.308594 C 131.898438 164.265625 131.898438 174.222656 131.898438 184.484375 C 135.71875 184.375 139.542969 184.269531 143.480469 184.160156 C 144.671875 184.128906 145.859375 184.101562 147.085938 184.070312 C 157.902344 184.105469 157.902344 184.105469 167.1875 179.363281 C 167.65625 178.929688 168.128906 178.496094 168.613281 178.046875 C 170.011719 176.59375 170.011719 176.59375 171.550781 174.136719 C 171.835938 174.421875 172.121094 174.707031 172.414062 175 C 172.699219 172.722656 172.984375 170.449219 173.277344 168.101562 C 175.265625 168.101562 177.257812 168.101562 179.308594 168.101562 C 179.308594 170.09375 179.308594 172.085938 179.308594 174.136719 C 177.601562 174.992188 177.601562 174.992188 175.863281 175.863281 C 176.148438 176.148438 176.429688 176.429688 176.722656 176.722656 C 176.347656 178.503906 176.347656 178.503906 175.863281 180.171875 C 177.570312 181.027344 177.570312 181.027344 179.308594 181.898438 C 178.457031 183.035156 177.601562 184.171875 176.722656 185.34375 C 175.445312 184.917969 175.445312 184.917969 174.136719 184.484375 C 174.136719 185.621094 174.136719 186.757812 174.136719 187.929688 C 174.707031 188.5 175.277344 189.070312 175.863281 189.65625 C 175 192.242188 175 192.242188 173.054688 193.21875 C 172.238281 193.5 171.421875 193.78125 170.582031 194.074219 C 169.378906 194.503906 169.378906 194.503906 168.152344 194.941406 C 152.253906 199.453125 128.804688 196.550781 116.378906 196.550781 C 116.378906 165.828125 116.378906 135.101562 116.378906 103.449219 Z M 116.378906 103.449219 "/>
<path style=" stroke:none;fill-rule:nonzero;fill:rgb(47.843137%,6.666667%,96.862745%);fill-opacity:1;" d="M 131.898438 154.308594 C 136.003906 154.257812 140.109375 154.203125 144.34375 154.148438 C 145.621094 154.125 146.902344 154.101562 148.21875 154.078125 C 155.671875 154.03125 161.742188 154.40625 168.050781 158.566406 C 171.269531 161.789062 171.804688 164.398438 171.820312 168.910156 C 171.835938 169.789062 171.851562 170.667969 171.863281 171.574219 C 171.367188 175.664062 169.53125 177.871094 166.703125 180.765625 C 160.273438 185.753906 151.148438 184.691406 143.480469 184.589844 C 139.65625 184.554688 135.835938 184.519531 131.898438 184.484375 C 131.898438 174.527344 131.898438 164.570312 131.898438 154.308594 Z M 131.898438 154.308594 "/>
<path style=" stroke:none;fill-rule:nonzero;fill:rgb(98.823529%,97.647059%,98.823529%);fill-opacity:1;" d="M 117.242188 103.449219 C 158.621094 104.308594 158.621094 104.308594 162.929688 107.757812 C 163.785156 107.191406 164.636719 106.621094 165.515625 106.035156 C 167.222656 108.59375 167.222656 108.59375 168.964844 111.207031 C 167.257812 112.058594 167.257812 112.058594 165.515625 112.929688 C 165.515625 114.921875 165.515625 116.914062 165.515625 118.964844 C 163.1875 118.542969 161.042969 118.042969 158.808594 117.242188 C 153.609375 115.738281 148.09375 115.972656 142.726562 115.839844 C 138.867188 115.734375 135.007812 115.628906 131.035156 115.515625 C 131.035156 123.765625 131.035156 132.015625 131.035156 140.515625 C 130.464844 140.515625 129.898438 140.515625 129.308594 140.515625 C 129.308594 139.664062 129.308594 138.808594 129.308594 137.929688 C 128.742188 138.785156 128.171875 139.636719 127.585938 140.515625 C 126.734375 139.664062 125.878906 138.808594 125 137.929688 C 125.03125 138.59375 125.058594 139.261719 125.089844 139.945312 C 125.113281 140.808594 125.136719 141.675781 125.160156 142.566406 C 125.191406 143.425781 125.222656 144.285156 125.253906 145.171875 C 125.167969 145.910156 125.085938 146.652344 125 147.414062 C 124.148438 147.984375 123.292969 148.550781 122.414062 149.136719 C 122.699219 149.992188 122.984375 150.84375 123.277344 151.722656 C 121.140625 152.152344 121.140625 152.152344 118.964844 152.585938 C 118.964844 154.578125 118.964844 156.570312 118.964844 158.621094 C 121.441406 158.621094 123.472656 158.386719 125.863281 157.757812 C 126.148438 157.191406 126.429688 156.621094 126.722656 156.035156 C 127.292969 156.601562 127.863281 157.171875 128.449219 157.757812 C 126.703125 156.011719 125.492188 153.777344 124.136719 151.722656 C 125.070312 149.859375 126.027344 148.785156 127.585938 147.414062 C 128.15625 147.414062 128.722656 147.414062 129.308594 147.414062 C 129.308594 149.40625 129.308594 151.398438 129.308594 153.449219 C 129.878906 153.449219 130.449219 153.449219 131.035156 153.449219 C 131.035156 157.429688 131.035156 161.414062 131.035156 165.515625 C 129.898438 164.949219 128.757812 164.378906 127.585938 163.792969 C 128.441406 163.367188 128.441406 163.367188 129.308594 162.929688 C 129.308594 162.078125 129.308594 161.222656 129.308594 160.34375 C 126.253906 161.550781 126.253906 161.550781 123.277344 162.929688 C 123.277344 163.5 123.277344 164.070312 123.277344 164.65625 C 121.140625 165.507812 121.140625 165.507812 118.964844 166.378906 C 118.679688 165.808594 118.398438 165.242188 118.101562 164.65625 C 118.101562 174.328125 118.101562 184 118.101562 193.964844 C 117.820312 193.964844 117.535156 193.964844 117.242188 193.964844 C 117.242188 164.09375 117.242188 134.222656 117.242188 103.449219 Z M 117.242188 103.449219 "/>
<path style=" stroke:none;fill-rule:nonzero;fill:rgb(49.411765%,7.058824%,97.647059%);fill-opacity:1;" d="M 131.898438 115.515625 C 137.417969 115.4375 137.417969 115.4375 143.050781 115.355469 C 144.195312 115.332031 145.339844 115.308594 146.519531 115.285156 C 152.308594 115.242188 157.703125 115.367188 162.929688 118.101562 C 166.289062 121.542969 167.386719 123.929688 167.511719 128.664062 C 167.449219 133.058594 166.964844 135.542969 163.792969 138.792969 C 158.640625 142.128906 153.75 143.21875 147.640625 143.1875 C 146.808594 143.183594 145.980469 143.183594 145.125 143.179688 C 144.085938 143.171875 143.042969 143.164062 141.972656 143.15625 C 138.648438 143.140625 135.320312 143.121094 131.898438 143.101562 C 131.898438 134 131.898438 124.898438 131.898438 115.515625 Z M 131.898438 115.515625 "/>
<path style=" stroke:none;fill-rule:nonzero;fill:rgb(52.549022%,23.529412%,85.490197%);fill-opacity:1;" d="M 81.035156 62.929688 C 98.898438 62.851562 116.765625 62.789062 134.628906 62.753906 C 142.925781 62.734375 151.21875 62.710938 159.515625 62.671875 C 166.746094 62.636719 173.976562 62.613281 181.207031 62.605469 C 185.035156 62.601562 188.863281 62.589844 192.691406 62.566406 C 196.296875 62.542969 199.902344 62.535156 203.507812 62.539062 C 204.828125 62.539062 206.152344 62.535156 207.472656 62.519531 C 215.765625 62.441406 221.589844 62.804688 228.179688 68.320312 C 233.207031 74.300781 235.386719 78.894531 235.585938 86.726562 C 235.636719 88.402344 235.636719 88.402344 235.683594 90.109375 C 235.714844 91.289062 235.746094 92.464844 235.777344 93.640625 C 235.964844 100.964844 236.179688 108.238281 237.070312 115.515625 C 236.214844 115.945312 236.214844 115.945312 235.34375 116.378906 C 235.15625 114.914062 235.15625 114.914062 234.96875 113.414062 C 234.816406 110.511719 234.816406 110.511719 233.621094 109.484375 C 233.542969 107.308594 233.519531 105.160156 233.535156 102.988281 C 233.539062 102.011719 233.539062 102.011719 233.539062 101.019531 C 233.546875 98.9375 233.554688 96.855469 233.566406 94.773438 C 233.570312 93.367188 233.574219 91.957031 233.578125 90.550781 C 233.589844 87.089844 233.601562 83.632812 233.621094 80.171875 C 233.050781 80.171875 232.484375 80.171875 231.898438 80.171875 C 231.523438 78.570312 231.523438 78.570312 231.140625 76.941406 C 230.253906 73.183594 230.253906 73.183594 228.449219 69.828125 C 226.261719 68.722656 226.261719 68.722656 224.136719 68.101562 C 224.136719 67.535156 224.136719 66.964844 224.136719 66.378906 C 222.714844 66.378906 221.292969 66.378906 219.828125 66.378906 C 219.828125 65.808594 219.828125 65.242188 219.828125 64.65625 C 173.742188 64.65625 127.65625 64.65625 80.171875 64.65625 C 80.457031 64.085938 80.742188 63.515625 81.035156 62.929688 Z M 81.035156 62.929688 "/>
<path style=" stroke:none;fill-rule:nonzero;fill:rgb(46.666667%,18.039216%,81.960785%);fill-opacity:1;" d="M 231.035156 221.550781 C 231.886719 221.550781 232.742188 221.550781 233.621094 221.550781 C 233.230469 225.84375 231.328125 228.804688 228.449219 231.898438 C 223.578125 235.664062 219.554688 237.179688 213.402344 237.171875 C 212.445312 237.171875 211.492188 237.175781 210.507812 237.175781 C 208.941406 237.171875 208.941406 237.171875 207.34375 237.167969 C 206.242188 237.167969 205.140625 237.167969 204.007812 237.167969 C 200.988281 237.167969 197.96875 237.164062 194.949219 237.15625 C 191.792969 237.152344 188.636719 237.152344 185.480469 237.148438 C 179.507812 237.148438 173.53125 237.140625 167.558594 237.132812 C 160.753906 237.121094 153.953125 237.117188 147.148438 237.113281 C 133.15625 237.101562 119.164062 237.089844 105.171875 237.070312 C 106.898438 235.34375 106.898438 235.34375 108.871094 235.132812 C 109.703125 235.132812 110.535156 235.136719 111.390625 235.136719 C 112.34375 235.136719 113.296875 235.132812 114.277344 235.128906 C 115.851562 235.140625 115.851562 235.140625 117.460938 235.148438 C 119.113281 235.148438 119.113281 235.148438 120.796875 235.148438 C 123.824219 235.148438 126.847656 235.15625 129.875 235.171875 C 133.035156 235.179688 136.195312 235.183594 139.355469 235.183594 C 145.34375 235.1875 151.332031 235.203125 157.316406 235.21875 C 164.132812 235.238281 170.949219 235.25 177.765625 235.257812 C 191.785156 235.277344 205.804688 235.304688 219.828125 235.34375 C 219.828125 234.777344 219.828125 234.207031 219.828125 233.621094 C 220.679688 233.335938 221.535156 233.050781 222.414062 232.757812 C 222.128906 232.191406 221.84375 231.621094 221.550781 231.035156 C 221.835938 230.179688 222.121094 229.328125 222.414062 228.449219 C 223.265625 228.734375 224.121094 229.015625 225 229.308594 C 224.714844 229.878906 224.429688 230.449219 224.136719 231.035156 C 224.992188 231.035156 225.84375 231.035156 226.722656 231.035156 C 226.441406 230.179688 226.15625 229.328125 225.863281 228.449219 C 226.902344 227.941406 226.902344 227.941406 227.964844 227.425781 C 230.371094 226.0625 230.371094 226.0625 230.871094 223.546875 C 230.925781 222.886719 230.980469 222.230469 231.035156 221.550781 Z M 231.035156 221.550781 "/>
<path style=" stroke:none;fill-rule:nonzero;fill:rgb(44.313726%,9.803922%,84.705883%);fill-opacity:1;" d="M 114.65625 103.449219 C 115.222656 103.449219 115.792969 103.449219 116.378906 103.449219 C 116.378906 134.171875 116.378906 164.898438 116.378906 196.550781 C 115.808594 196.550781 115.242188 196.550781 114.65625 196.550781 C 114.523438 184.539062 114.394531 172.527344 114.273438 160.515625 C 114.214844 154.9375 114.160156 149.363281 114.097656 143.785156 C 114.035156 138.40625 113.980469 133.03125 113.929688 127.652344 C 113.90625 125.597656 113.886719 123.539062 113.863281 121.484375 C 113.828125 118.613281 113.800781 115.746094 113.773438 112.875 C 113.761719 112.015625 113.753906 111.15625 113.742188 110.269531 C 113.734375 109.492188 113.726562 108.714844 113.722656 107.914062 C 113.714844 107.238281 113.707031 106.558594 113.699219 105.855469 C 113.792969 104.308594 113.792969 104.308594 114.65625 103.449219 Z M 114.65625 103.449219 "/>
<path style=" stroke:none;fill-rule:nonzero;fill:rgb(41.960785%,12.941177%,79.215688%);fill-opacity:1;" d="M 131.898438 154.308594 C 139.863281 154.308594 147.828125 154.308594 156.035156 154.308594 C 156.035156 154.59375 156.035156 154.878906 156.035156 155.171875 C 148.351562 155.171875 140.671875 155.171875 132.757812 155.171875 C 132.757812 164.558594 132.757812 173.949219 132.757812 183.621094 C 136.15625 183.515625 139.550781 183.40625 143.050781 183.296875 C 144.105469 183.269531 145.160156 183.238281 146.246094 183.207031 C 151.714844 183.011719 156.785156 182.460938 162.070312 181.035156 C 163.21875 180.746094 164.367188 180.457031 165.515625 180.171875 C 165.515625 179.320312 165.515625 178.464844 165.515625 177.585938 C 166.070312 177.390625 166.621094 177.195312 167.1875 176.992188 C 169.132812 176.015625 169.132812 176.015625 169.613281 173.976562 C 170.074219 168.796875 170.253906 165.597656 167.242188 161.207031 C 167.242188 160.636719 167.242188 160.070312 167.242188 159.484375 C 166.671875 159.484375 166.101562 159.484375 165.515625 159.484375 C 165.515625 158.914062 165.515625 158.34375 165.515625 157.757812 C 168.855469 159.023438 169.980469 160.628906 171.550781 163.792969 C 171.894531 166.324219 171.894531 166.324219 171.875 168.964844 C 171.886719 170.273438 171.886719 170.273438 171.894531 171.605469 C 171.285156 176.097656 168.859375 179.089844 165.3125 181.84375 C 159 185.644531 150.527344 184.683594 143.480469 184.589844 C 139.65625 184.554688 135.835938 184.519531 131.898438 184.484375 C 131.898438 174.527344 131.898438 164.570312 131.898438 154.308594 Z M 131.898438 154.308594 "/>
<path style=" stroke:none;fill-rule:nonzero;fill:rgb(42.745098%,12.941177%,82.745099%);fill-opacity:1;" d="M 177.585938 150.863281 C 182.128906 152.535156 183.878906 154.382812 186.207031 158.621094 C 186.207031 159.191406 186.207031 159.757812 186.207031 160.34375 C 186.777344 160.34375 187.34375 160.34375 187.929688 160.34375 C 189.0625 165.441406 189.066406 170.664062 188.792969 175.863281 C 188.507812 176.148438 188.222656 176.429688 187.929688 176.722656 C 187.652344 178.066406 187.40625 179.414062 187.175781 180.765625 C 186.472656 184.375 185.6875 187.414062 183.621094 190.515625 C 181.789062 191.109375 181.789062 191.109375 180.171875 191.378906 C 179.886719 192.234375 179.601562 193.085938 179.308594 193.964844 C 176.75 193.964844 174.191406 193.964844 171.550781 193.964844 C 172.121094 193.519531 172.691406 193.078125 173.277344 192.617188 C 174.128906 191.925781 174.984375 191.230469 175.863281 190.515625 C 176.421875 190.097656 176.984375 189.679688 177.5625 189.246094 C 183.109375 184.859375 185.636719 180.351562 186.53125 173.3125 C 186.847656 165.5625 184.984375 159.285156 179.957031 153.339844 C 179.175781 152.523438 178.390625 151.703125 177.585938 150.863281 Z M 177.585938 150.863281 "/>
<path style=" stroke:none;fill-rule:nonzero;fill:rgb(50.196081%,22.745098%,84.313726%);fill-opacity:1;" d="M 219.828125 63.792969 C 226.9375 65.777344 229.773438 69.324219 233.417969 75.484375 C 235.3125 79.226562 235.480469 82.546875 235.585938 86.726562 C 235.621094 87.84375 235.652344 88.960938 235.683594 90.109375 C 235.714844 91.289062 235.746094 92.464844 235.777344 93.640625 C 235.964844 100.964844 236.179688 108.238281 237.070312 115.515625 C 236.214844 115.945312 236.214844 115.945312 235.34375 116.378906 C 235.21875 115.402344 235.097656 114.421875 234.96875 113.414062 C 234.816406 110.511719 234.816406 110.511719 233.621094 109.484375 C 233.542969 107.308594 233.519531 105.160156 233.535156 102.988281 C 233.539062 102.335938 233.539062 101.6875 233.539062 101.019531 C 233.546875 98.9375 233.554688 96.855469 233.566406 94.773438 C 233.570312 93.367188 233.574219 91.957031 233.578125 90.550781 C 233.589844 87.089844 233.601562 83.632812 233.621094 80.171875 C 233.050781 80.171875 232.484375 80.171875 231.898438 80.171875 C 231.648438 79.105469 231.398438 78.039062 231.140625 76.941406 C 230.253906 73.183594 230.253906 73.183594 228.449219 69.828125 C 226.261719 68.722656 226.261719 68.722656 224.136719 68.101562 C 224.136719 67.535156 224.136719 66.964844 224.136719 66.378906 C 222.714844 66.378906 221.292969 66.378906 219.828125 66.378906 C 219.828125 65.527344 219.828125 64.671875 219.828125 63.792969 Z M 219.828125 63.792969 "/>
<path style=" stroke:none;fill-rule:nonzero;fill:rgb(92.156863%,82.352942%,99.607843%);fill-opacity:1;" d="M 118.101562 103.449219 C 123.824219 103.382812 129.542969 103.335938 135.261719 103.304688 C 137.203125 103.292969 139.144531 103.277344 141.089844 103.253906 C 143.894531 103.222656 146.699219 103.207031 149.503906 103.195312 C 150.359375 103.183594 151.21875 103.167969 152.097656 103.15625 C 159.496094 103.152344 167.144531 104.207031 173.328125 108.566406 C 173.945312 108.984375 174.558594 109.398438 175.191406 109.828125 C 176.84375 111.316406 177.597656 112.617188 178.449219 114.65625 C 177.878906 114.65625 177.308594 114.65625 176.722656 114.65625 C 176.722656 114.085938 176.722656 113.515625 176.722656 112.929688 C 175.871094 112.648438 175.015625 112.363281 174.136719 112.070312 C 173.570312 112.636719 173 113.207031 172.414062 113.792969 C 172.09375 112.957031 171.773438 112.121094 171.445312 111.261719 C 170.078125 108.386719 170.078125 108.386719 167.1875 107.757812 C 166.351562 107.757812 165.515625 107.757812 164.65625 107.757812 C 164.085938 108.328125 163.515625 108.898438 162.929688 109.484375 C 161.207031 108.621094 161.207031 108.621094 160.34375 106.035156 C 158.296875 105.011719 156.988281 105.039062 154.707031 104.996094 C 153.894531 104.976562 153.082031 104.960938 152.246094 104.941406 C 151.371094 104.929688 150.492188 104.914062 149.589844 104.898438 C 148.691406 104.882812 147.796875 104.863281 146.871094 104.84375 C 144 104.789062 141.125 104.738281 138.253906 104.6875 C 136.308594 104.648438 134.367188 104.613281 132.421875 104.574219 C 127.648438 104.480469 122.875 104.394531 118.101562 104.308594 C 118.101562 104.027344 118.101562 103.742188 118.101562 103.449219 Z M 118.101562 103.449219 "/>
<path style=" stroke:none;fill-rule:nonzero;fill:rgb(59.215689%,30.19608%,87.843138%);fill-opacity:1;" d="M 71.550781 68.101562 C 71.835938 68.101562 72.121094 68.101562 72.414062 68.101562 C 72.414062 69.527344 72.414062 70.949219 72.414062 72.414062 C 71.558594 72.699219 70.707031 72.984375 69.828125 73.277344 C 69.132812 75.089844 69.132812 75.089844 68.804688 77.210938 C 68.667969 77.921875 68.53125 78.632812 68.390625 79.367188 C 68.296875 79.917969 68.199219 80.46875 68.101562 81.035156 C 67.820312 81.035156 67.535156 81.035156 67.242188 81.035156 C 67.230469 81.886719 67.214844 82.738281 67.203125 83.617188 C 67.152344 86.777344 67.085938 89.9375 67.015625 93.09375 C 66.988281 94.460938 66.960938 95.832031 66.941406 97.199219 C 66.914062 99.164062 66.867188 101.125 66.820312 103.089844 C 66.816406 103.703125 66.808594 104.316406 66.804688 104.949219 C 66.753906 106.675781 66.753906 106.675781 66.378906 109.484375 C 65.527344 110.050781 64.671875 110.621094 63.792969 111.207031 C 63.832031 107.066406 63.890625 102.929688 63.972656 98.789062 C 63.996094 97.386719 64.015625 95.980469 64.027344 94.574219 C 64.117188 84.761719 64.289062 75.613281 71.550781 68.101562 Z M 71.550781 68.101562 "/>
<path style=" stroke:none;fill-rule:nonzero;fill:rgb(56.470591%,25.098041%,87.058824%);fill-opacity:1;" d="M 41.378906 143.964844 C 43.085938 144.390625 43.085938 144.390625 44.828125 144.828125 C 43.972656 144.828125 43.121094 144.828125 42.242188 144.828125 C 42.242188 147.957031 42.242188 151.085938 42.242188 154.308594 C 45.371094 154.59375 48.5 154.878906 51.722656 155.171875 C 52.007812 156.308594 52.292969 157.449219 52.585938 158.621094 C 54.003906 159.238281 55.441406 159.8125 56.898438 160.34375 C 58.628906 162.945312 59.246094 164.839844 60.023438 167.835938 C 60.246094 168.691406 60.46875 169.546875 60.703125 170.429688 C 60.867188 171.085938 61.035156 171.738281 61.207031 172.414062 C 60.351562 172.839844 60.351562 172.839844 59.484375 173.277344 C 59.222656 172.703125 58.960938 172.132812 58.691406 171.542969 C 54.507812 162.726562 49.546875 158.683594 40.515625 155.171875 C 40.492188 153.628906 40.476562 152.082031 40.464844 150.539062 C 40.453125 149.679688 40.441406 148.820312 40.433594 147.933594 C 40.515625 145.691406 40.515625 145.691406 41.378906 143.964844 Z M 41.378906 143.964844 "/>
<path style=" stroke:none;fill-rule:nonzero;fill:rgb(42.352942%,11.764706%,78.431374%);fill-opacity:1;" d="M 131.898438 115.515625 C 137.417969 115.4375 137.417969 115.4375 143.050781 115.355469 C 144.195312 115.332031 145.339844 115.308594 146.519531 115.285156 C 152.210938 115.246094 157.839844 115.230469 162.929688 118.101562 C 163.5 118.957031 164.070312 119.808594 164.65625 120.691406 C 164.085938 120.972656 163.515625 121.257812 162.929688 121.550781 C 162.929688 120.984375 162.929688 120.414062 162.929688 119.828125 C 162.320312 119.714844 161.707031 119.597656 161.074219 119.480469 C 160.285156 119.328125 159.492188 119.175781 158.675781 119.019531 C 157.882812 118.871094 157.09375 118.71875 156.28125 118.566406 C 154.308594 118.101562 154.308594 118.101562 153.449219 117.242188 C 151.914062 117.105469 150.375 117.023438 148.839844 116.96875 C 147.582031 116.917969 147.582031 116.917969 146.300781 116.867188 C 145.226562 116.832031 144.15625 116.792969 143.050781 116.757812 C 139.652344 116.632812 136.257812 116.507812 132.757812 116.378906 C 132.757812 124.914062 132.757812 133.449219 132.757812 142.242188 C 138.734375 142.242188 144.707031 142.242188 150.863281 142.242188 C 150.863281 142.527344 150.863281 142.808594 150.863281 143.101562 C 144.601562 143.101562 138.34375 143.101562 131.898438 143.101562 C 131.898438 134 131.898438 124.898438 131.898438 115.515625 Z M 131.898438 115.515625 "/>
<path style=" stroke:none;fill-rule:nonzero;fill:rgb(41.960785%,10.980392%,81.568629%);fill-opacity:1;" d="M 117.242188 102.585938 C 123.46875 102.542969 129.695312 102.511719 135.921875 102.492188 C 138.035156 102.484375 140.152344 102.472656 142.265625 102.457031 C 145.316406 102.433594 148.371094 102.425781 151.421875 102.417969 C 152.355469 102.410156 153.292969 102.398438 154.257812 102.390625 C 159.941406 102.390625 165.167969 102.953125 170.691406 104.308594 C 170.691406 104.878906 170.691406 105.449219 170.691406 106.035156 C 171.542969 106.035156 172.398438 106.035156 173.277344 106.035156 C 173.277344 106.601562 173.277344 107.171875 173.277344 107.757812 C 174.414062 107.757812 175.550781 107.757812 176.722656 107.757812 C 177.152344 109.890625 177.152344 109.890625 177.585938 112.070312 C 176.929688 111.652344 176.273438 111.238281 175.597656 110.808594 C 174.707031 110.265625 173.816406 109.71875 172.898438 109.160156 C 172.027344 108.621094 171.160156 108.078125 170.261719 107.523438 C 163.613281 104.246094 156.789062 104.035156 149.484375 103.953125 C 148.558594 103.9375 147.632812 103.921875 146.675781 103.902344 C 143.742188 103.851562 140.808594 103.8125 137.878906 103.773438 C 135.878906 103.738281 133.878906 103.703125 131.878906 103.671875 C 127 103.589844 122.121094 103.515625 117.242188 103.449219 C 117.242188 103.164062 117.242188 102.878906 117.242188 102.585938 Z M 117.242188 102.585938 "/>
<path style=" stroke:none;fill-rule:nonzero;fill:rgb(49.019608%,21.176471%,83.137256%);fill-opacity:1;" d="M 67.242188 225 C 69.800781 225.425781 69.800781 225.425781 72.414062 225.863281 C 72.644531 226.699219 72.875 227.535156 73.113281 228.394531 C 73.453125 229.265625 73.789062 230.136719 74.136719 231.035156 C 74.992188 231.320312 75.84375 231.601562 76.722656 231.898438 C 77.007812 232.464844 77.292969 233.035156 77.585938 233.621094 C 80.15625 234.511719 82.664062 234.632812 85.367188 234.726562 C 86.195312 234.757812 87.019531 234.789062 87.867188 234.824219 C 88.726562 234.851562 89.582031 234.882812 90.464844 234.914062 C 92.160156 234.972656 93.855469 235.035156 95.550781 235.101562 C 96.300781 235.128906 97.050781 235.15625 97.824219 235.179688 C 100.042969 235.347656 102.136719 235.726562 104.308594 236.207031 C 104.308594 236.492188 104.308594 236.777344 104.308594 237.070312 C 100.738281 237.171875 97.164062 237.230469 93.589844 237.285156 C 92.082031 237.328125 92.082031 237.328125 90.546875 237.371094 C 82.996094 237.457031 77.496094 236.46875 71.660156 231.519531 C 69.929688 229.433594 68.53125 227.378906 67.242188 225 Z M 67.242188 225 "/>
<path style=" stroke:none;fill-rule:nonzero;fill:rgb(92.941177%,85.490197%,98.431373%);fill-opacity:1;" d="M 131.035156 115.515625 C 131.320312 115.515625 131.601562 115.515625 131.898438 115.515625 C 131.898438 124.621094 131.898438 133.722656 131.898438 143.101562 C 131.613281 142.535156 131.328125 141.964844 131.035156 141.378906 C 130.464844 143.085938 129.898438 144.792969 129.308594 146.550781 C 128.457031 146.265625 127.601562 145.984375 126.722656 145.691406 C 126.441406 146.257812 126.15625 146.828125 125.863281 147.414062 C 125.863281 146.84375 125.863281 146.277344 125.863281 145.691406 C 125.292969 145.691406 124.722656 145.691406 124.136719 145.691406 C 124.136719 142.84375 124.136719 140 124.136719 137.070312 C 124.992188 136.785156 125.84375 136.5 126.722656 136.207031 C 127.007812 137.058594 127.292969 137.914062 127.585938 138.792969 C 128.441406 138.222656 129.292969 137.65625 130.171875 137.070312 C 129.886719 138.207031 129.601562 139.34375 129.308594 140.515625 C 129.878906 140.515625 130.449219 140.515625 131.035156 140.515625 C 131.035156 132.265625 131.035156 124.015625 131.035156 115.515625 Z M 131.035156 115.515625 "/>
<path style=" stroke:none;fill-rule:nonzero;fill:rgb(52.941179%,23.921569%,84.705883%);fill-opacity:1;" d="M 64.65625 188.792969 C 65.222656 189.078125 65.792969 189.363281 66.378906 189.65625 C 66.378906 199.898438 66.378906 210.136719 66.378906 220.691406 C 63.914062 218.226562 64.335938 215.722656 64.269531 212.414062 C 64.25 211.769531 64.230469 211.125 64.210938 210.457031 C 64.171875 209.09375 64.140625 207.726562 64.109375 206.359375 C 64.0625 204.261719 64.003906 202.164062 63.941406 200.066406 C 63.90625 198.742188 63.871094 197.414062 63.835938 196.089844 C 63.820312 195.460938 63.800781 194.828125 63.78125 194.175781 C 63.753906 192.671875 63.769531 191.164062 63.792969 189.65625 C 64.078125 189.371094 64.363281 189.085938 64.65625 188.792969 Z M 64.65625 188.792969 "/>
<path style=" stroke:none;fill-rule:nonzero;fill:rgb(43.529412%,10.588235%,88.627452%);fill-opacity:1;" d="M 186.207031 180.171875 C 187.226562 183.238281 186.871094 183.875 185.613281 186.746094 C 185.328125 187.433594 185.039062 188.121094 184.742188 188.828125 C 183.351562 190.921875 182.542969 190.867188 180.171875 191.378906 C 179.886719 192.234375 179.601562 193.085938 179.308594 193.964844 C 176.75 193.964844 174.191406 193.964844 171.550781 193.964844 C 172.121094 193.519531 172.691406 193.078125 173.277344 192.617188 C 175.984375 190.417969 178.566406 188.109375 181.148438 185.765625 C 182.757812 184.484375 182.757812 184.484375 185.34375 183.621094 C 185.976562 181.882812 185.976562 181.882812 186.207031 180.171875 Z M 186.207031 180.171875 "/>
<path style=" stroke:none;fill-rule:nonzero;fill:rgb(92.54902%,87.843138%,96.470588%);fill-opacity:1;" d="M 162.929688 182.757812 C 162.285156 186.851562 162.285156 186.851562 160.34375 188.792969 C 161.164062 188.757812 161.980469 188.722656 162.824219 188.683594 C 165.515625 188.792969 165.515625 188.792969 167.242188 190.515625 C 163.800781 191.746094 160.511719 192.585938 156.898438 193.101562 C 155.171875 190.515625 155.171875 190.515625 155.496094 188.632812 C 155.671875 188.117188 155.851562 187.601562 156.035156 187.070312 C 156.601562 187.070312 157.171875 187.070312 157.757812 187.070312 C 158.042969 187.921875 158.328125 188.777344 158.621094 189.65625 C 158.90625 187.949219 159.191406 186.242188 159.484375 184.484375 C 158.34375 184.199219 157.207031 183.914062 156.035156 183.621094 C 160.992188 182.757812 160.992188 182.757812 162.929688 182.757812 Z M 162.929688 182.757812 "/>
<path style=" stroke:none;fill-rule:nonzero;fill:rgb(92.54902%,88.627452%,96.078432%);fill-opacity:1;" d="M 184.484375 167.242188 C 185.050781 168.378906 185.621094 169.515625 186.207031 170.691406 C 185.351562 171.96875 185.351562 171.96875 184.484375 173.277344 C 184.460938 175.257812 184.460938 175.257812 184.804688 177.316406 C 184.902344 178.011719 184.996094 178.710938 185.09375 179.429688 C 185.179688 179.957031 185.261719 180.488281 185.34375 181.035156 C 182.71875 181.835938 181.535156 182.152344 179.039062 180.871094 C 177.585938 179.308594 177.585938 179.308594 177.585938 175.863281 C 179.457031 176.296875 181.035156 176.722656 182.757812 177.585938 C 182.472656 176.734375 182.191406 175.878906 181.898438 175 C 181.328125 175 180.757812 175 180.171875 175 C 180.171875 173.863281 180.171875 172.722656 180.171875 171.550781 C 180.742188 171.550781 181.308594 171.550781 181.898438 171.550781 C 182.179688 170.984375 182.464844 170.414062 182.757812 169.828125 C 183.328125 170.113281 183.898438 170.398438 184.484375 170.691406 C 184.199219 169.835938 183.914062 168.984375 183.621094 168.101562 C 183.90625 167.820312 184.191406 167.535156 184.484375 167.242188 Z M 184.484375 167.242188 "/>
<path style=" stroke:none;fill-rule:nonzero;fill:rgb(44.705883%,10.196079%,90.588236%);fill-opacity:1;" d="M 177.585938 139.65625 C 178.660156 141.800781 178.253906 142.59375 177.585938 144.828125 C 177.015625 144.828125 176.449219 144.828125 175.863281 144.828125 C 176.429688 146.820312 177 148.808594 177.585938 150.863281 C 176.203125 150.472656 174.820312 150.074219 173.4375 149.675781 C 172.667969 149.457031 171.898438 149.238281 171.105469 149.011719 C 168.964844 148.277344 168.964844 148.277344 166.378906 146.550781 C 166.972656 146.269531 167.5625 145.988281 168.175781 145.699219 C 168.949219 145.324219 169.726562 144.945312 170.527344 144.558594 C 171.296875 144.1875 172.066406 143.816406 172.863281 143.4375 C 174.820312 142.34375 176.113281 141.324219 177.585938 139.65625 Z M 177.585938 139.65625 "/>
<path style=" stroke:none;fill-rule:nonzero;fill:rgb(46.27451%,16.862746%,86.666667%);fill-opacity:1;" d="M 231.035156 221.550781 C 231.886719 221.550781 232.742188 221.550781 233.621094 221.550781 C 233.234375 225.800781 231.1875 228.75 228.449219 231.898438 C 225.863281 233.621094 225.863281 233.621094 224.03125 233.40625 C 222.414062 232.757812 222.414062 232.757812 221.550781 231.035156 C 221.835938 230.179688 222.121094 229.328125 222.414062 228.449219 C 223.265625 228.734375 224.121094 229.015625 225 229.308594 C 224.714844 229.878906 224.429688 230.449219 224.136719 231.035156 C 224.992188 231.035156 225.84375 231.035156 226.722656 231.035156 C 226.441406 230.179688 226.15625 229.328125 225.863281 228.449219 C 226.902344 227.941406 226.902344 227.941406 227.964844 227.425781 C 230.371094 226.0625 230.371094 226.0625 230.871094 223.546875 C 230.925781 222.886719 230.980469 222.230469 231.035156 221.550781 Z M 231.035156 221.550781 "/>
<path style=" stroke:none;fill-rule:nonzero;fill:rgb(48.235294%,18.039216%,87.450981%);fill-opacity:1;" d="M 250.863281 155.171875 C 252.285156 155.457031 253.707031 155.742188 255.171875 156.035156 C 253.375 157.429688 251.675781 158.648438 249.648438 159.699219 C 246.964844 161.511719 245.789062 163.34375 244.128906 166.109375 C 243.34375 167.394531 243.34375 167.394531 242.546875 168.707031 C 241.96875 169.6875 241.96875 169.6875 241.378906 170.691406 C 239.582031 167.53125 239.582031 167.53125 240.246094 164.925781 C 241.378906 162.929688 241.378906 162.929688 243.964844 162.070312 C 244.597656 160.332031 244.597656 160.332031 244.828125 158.621094 C 247.816406 158.195312 247.816406 158.195312 250.863281 157.757812 C 250.863281 156.90625 250.863281 156.050781 250.863281 155.171875 Z M 250.863281 155.171875 "/>
<path style=" stroke:none;fill-rule:nonzero;fill:rgb(42.352942%,5.882353%,94.117647%);fill-opacity:1;" d="M 242.242188 135.34375 C 247.304688 139.441406 247.304688 139.441406 248.277344 141.378906 C 250.019531 141.941406 250.019531 141.941406 251.722656 142.242188 C 251.441406 143.09375 251.15625 143.949219 250.863281 144.828125 C 248.277344 144.828125 245.691406 144.828125 243.101562 144.828125 C 242.535156 144.257812 241.964844 143.691406 241.378906 143.101562 C 241.398438 141.238281 241.398438 141.238281 241.703125 139.117188 C 241.796875 138.410156 241.894531 137.707031 241.992188 136.980469 C 242.074219 136.441406 242.15625 135.902344 242.242188 135.34375 Z M 242.242188 135.34375 "/>
<path style=" stroke:none;fill-rule:nonzero;fill:rgb(56.470591%,16.470589%,94.509804%);fill-opacity:1;" d="M 80.550781 64.441406 C 81.214844 64.972656 81.214844 64.972656 81.898438 65.515625 C 80.460938 66.953125 79.023438 68.390625 77.585938 69.828125 C 77.105469 70.34375 76.625 70.859375 76.132812 71.390625 C 75 72.414062 75 72.414062 73.277344 72.414062 C 73.558594 70.992188 73.84375 69.570312 74.136719 68.101562 C 73.570312 67.820312 73 67.535156 72.414062 67.242188 C 77.929688 63.632812 77.929688 63.632812 80.550781 64.441406 Z M 80.550781 64.441406 "/>
<path style=" stroke:none;fill-rule:nonzero;fill:rgb(51.372552%,25.098041%,83.92157%);fill-opacity:1;" d="M 251.722656 142.242188 C 255.566406 143.09375 255.566406 143.09375 259.484375 143.964844 C 259.484375 147.664062 259.484375 151.363281 259.484375 155.171875 C 258.058594 155.457031 256.636719 155.742188 255.171875 156.035156 C 255.171875 155.464844 255.171875 154.898438 255.171875 154.308594 C 256.027344 154.308594 256.878906 154.308594 257.757812 154.308594 C 257.757812 151.464844 257.757812 148.621094 257.757812 145.691406 C 256.335938 145.691406 254.914062 145.691406 253.449219 145.691406 C 252.878906 144.550781 252.308594 143.414062 251.722656 142.242188 Z M 251.722656 142.242188 "/>
<path style=" stroke:none;fill-rule:nonzero;fill:rgb(95.686275%,88.235295%,99.607843%);fill-opacity:1;" d="M 178.449219 114.65625 C 181.101562 116.585938 181.8125 118.992188 182.523438 122.121094 C 182.941406 125.710938 182.4375 129.203125 181.898438 132.757812 C 179.980469 130.84375 179.375 129.238281 178.449219 126.722656 C 179.015625 126.441406 179.585938 126.15625 180.171875 125.863281 C 180.457031 125.007812 180.742188 124.15625 181.035156 123.277344 C 180.464844 122.992188 179.898438 122.707031 179.308594 122.414062 C 179.59375 121.277344 179.878906 120.136719 180.171875 118.964844 C 179.320312 118.679688 178.464844 118.398438 177.585938 118.101562 C 177.871094 116.964844 178.15625 115.828125 178.449219 114.65625 Z M 178.449219 114.65625 "/>
<path style=" stroke:none;fill-rule:nonzero;fill:rgb(47.058824%,15.294118%,83.529413%);fill-opacity:1;" d="M 133.621094 115.515625 C 137.050781 115.441406 140.480469 115.394531 143.910156 115.355469 C 144.875 115.332031 145.835938 115.3125 146.828125 115.289062 C 152.445312 115.242188 157.898438 115.320312 162.929688 118.101562 C 163.5 118.957031 164.070312 119.808594 164.65625 120.691406 C 164.085938 120.972656 163.515625 121.257812 162.929688 121.550781 C 162.929688 120.984375 162.929688 120.414062 162.929688 119.828125 C 162.320312 119.714844 161.707031 119.597656 161.074219 119.480469 C 160.285156 119.328125 159.492188 119.175781 158.675781 119.019531 C 157.882812 118.871094 157.09375 118.71875 156.28125 118.566406 C 154.308594 118.101562 154.308594 118.101562 153.449219 117.242188 C 151.976562 117.105469 150.503906 117.023438 149.027344 116.96875 C 148.136719 116.933594 147.242188 116.894531 146.324219 116.859375 C 145.386719 116.824219 144.449219 116.792969 143.480469 116.757812 C 142.539062 116.71875 141.597656 116.683594 140.625 116.644531 C 138.292969 116.550781 135.957031 116.464844 133.621094 116.378906 C 133.621094 116.09375 133.621094 115.808594 133.621094 115.515625 Z M 133.621094 115.515625 "/>
<path style=" stroke:none;fill-rule:nonzero;fill:rgb(45.09804%,15.294118%,82.745099%);fill-opacity:1;" d="M 166.378906 124.136719 C 166.664062 124.136719 166.949219 124.136719 167.242188 124.136719 C 167.527344 128.621094 167.769531 132.414062 165.949219 136.585938 C 162.433594 140.1875 158.925781 142.097656 153.878906 142.457031 C 153.167969 142.386719 152.457031 142.316406 151.722656 142.242188 C 151.722656 141.957031 151.722656 141.671875 151.722656 141.378906 C 152.316406 141.222656 152.910156 141.066406 153.519531 140.90625 C 154.296875 140.6875 155.074219 140.472656 155.871094 140.246094 C 157.027344 139.933594 157.027344 139.933594 158.207031 139.613281 C 160.433594 138.757812 161.472656 138.070312 162.929688 136.207031 C 163.214844 135.351562 163.5 134.5 163.792969 133.621094 C 164.363281 133.621094 164.929688 133.621094 165.515625 133.621094 C 165.800781 130.492188 166.085938 127.363281 166.378906 124.136719 Z M 166.378906 124.136719 "/>
<path style=" stroke:none;fill-rule:nonzero;fill:rgb(50.196081%,14.117648%,87.058824%);fill-opacity:1;" d="M 71.550781 68.101562 C 71.835938 68.101562 72.121094 68.101562 72.414062 68.101562 C 72.414062 69.527344 72.414062 70.949219 72.414062 72.414062 C 71.558594 72.699219 70.707031 72.984375 69.828125 73.277344 C 69.132812 75.089844 69.132812 75.089844 68.804688 77.210938 C 68.667969 77.921875 68.53125 78.632812 68.390625 79.367188 C 68.296875 79.917969 68.199219 80.46875 68.101562 81.035156 C 67.820312 81.035156 67.535156 81.035156 67.242188 81.035156 C 66.957031 84.734375 66.671875 88.429688 66.378906 92.242188 C 66.09375 92.242188 65.808594 92.242188 65.515625 92.242188 C 64.953125 83.214844 64.570312 76.289062 70.691406 68.964844 C 70.972656 68.679688 71.257812 68.398438 71.550781 68.101562 Z M 71.550781 68.101562 "/>
<path style=" stroke:none;fill-rule:nonzero;fill:rgb(93.333334%,89.803922%,96.862745%);fill-opacity:1;" d="M 138.792969 189.65625 C 143.414062 190.058594 143.414062 190.058594 145.582031 191.863281 C 146.0625 192.476562 146.0625 192.476562 146.550781 193.101562 C 144.828125 194.828125 144.828125 194.828125 141.703125 194.933594 C 140.742188 194.898438 139.78125 194.863281 138.792969 194.828125 C 138.464844 193.398438 138.175781 191.960938 137.929688 190.515625 C 138.214844 190.234375 138.5 189.949219 138.792969 189.65625 Z M 138.792969 189.65625 "/>
<path style=" stroke:none;fill-rule:nonzero;fill:rgb(45.882353%,7.450981%,96.078432%);fill-opacity:1;" d="M 171.550781 193.964844 C 171.835938 195.671875 172.121094 197.378906 172.414062 199.136719 C 170.707031 199.421875 169 199.707031 167.242188 200 C 167.242188 199.429688 167.242188 198.863281 167.242188 198.277344 C 166.671875 197.992188 166.101562 197.707031 165.515625 197.414062 C 165.515625 196.558594 165.515625 195.707031 165.515625 194.828125 C 167.664062 194.234375 169.292969 193.964844 171.550781 193.964844 Z M 171.550781 193.964844 "/>
<path style=" stroke:none;fill-rule:nonzero;fill:rgb(45.09804%,14.901961%,87.058824%);fill-opacity:1;" d="M 177.585938 150.863281 C 182.128906 152.535156 183.878906 154.382812 186.207031 158.621094 C 186.207031 159.191406 186.207031 159.757812 186.207031 160.34375 C 186.777344 160.34375 187.34375 160.34375 187.929688 160.34375 C 187.929688 161.765625 187.929688 163.191406 187.929688 164.65625 C 187.363281 164.941406 186.792969 165.222656 186.207031 165.515625 C 186.019531 164.964844 185.828125 164.414062 185.632812 163.84375 C 183.691406 158.539062 181.492188 154.945312 177.585938 150.863281 Z M 177.585938 150.863281 "/>
<path style=" stroke:none;fill-rule:nonzero;fill:rgb(51.372552%,21.176471%,87.843138%);fill-opacity:1;" d="M 67.242188 225 C 69.800781 225.425781 69.800781 225.425781 72.414062 225.863281 C 72.644531 226.699219 72.875 227.535156 73.113281 228.394531 C 73.453125 229.265625 73.789062 230.136719 74.136719 231.035156 C 74.992188 231.320312 75.84375 231.601562 76.722656 231.898438 C 77.316406 233.675781 77.316406 233.675781 77.585938 235.34375 C 72.582031 232.890625 70.191406 230.601562 67.242188 225.863281 C 67.242188 225.578125 67.242188 225.292969 67.242188 225 Z M 67.242188 225 "/>
<path style=" stroke:none;fill-rule:nonzero;fill:rgb(53.725493%,30.19608%,85.490197%);fill-opacity:1;" d="M 239.65625 126.722656 C 241.34375 128.414062 242.078125 129.664062 243.101562 131.789062 C 243.386719 132.375 243.671875 132.957031 243.964844 133.558594 C 244.554688 134.777344 245.128906 136 245.691406 137.230469 C 246.796875 139.238281 247.9375 139.613281 250 140.515625 C 250.570312 141.085938 251.136719 141.65625 251.722656 142.242188 C 250.300781 141.957031 248.878906 141.671875 247.414062 141.378906 C 247.414062 140.808594 247.414062 140.242188 247.414062 139.65625 C 246.558594 139.371094 245.707031 139.085938 244.828125 138.792969 C 243.445312 136.945312 243.445312 136.945312 242.078125 134.644531 C 241.621094 133.890625 241.167969 133.140625 240.695312 132.363281 C 239.65625 130.171875 239.65625 130.171875 239.65625 126.722656 Z M 239.65625 126.722656 "/>
<path style=" stroke:none;fill-rule:nonzero;fill:rgb(96.078432%,85.882354%,100%);fill-opacity:1;" d="M 139.761719 152.53125 C 140.414062 152.617188 141.0625 152.703125 141.734375 152.792969 C 143.339844 153.007812 144.945312 153.226562 146.550781 153.449219 C 146.550781 153.734375 146.550781 154.015625 146.550781 154.308594 C 141.429688 154.308594 136.308594 154.308594 131.035156 154.308594 C 131.035156 153.742188 131.035156 153.171875 131.035156 152.585938 C 133.832031 151.1875 136.757812 152.113281 139.761719 152.53125 Z M 139.761719 152.53125 "/>
<path style=" stroke:none;fill-rule:nonzero;fill:rgb(43.137255%,5.490196%,94.901961%);fill-opacity:1;" d="M 250.863281 151.722656 C 251.148438 152.292969 251.429688 152.863281 251.722656 153.449219 C 252.578125 153.164062 253.429688 152.878906 254.308594 152.585938 C 254.59375 153.722656 254.878906 154.863281 255.171875 156.035156 C 254.035156 156.035156 252.898438 156.035156 251.722656 156.035156 C 251.15625 156.601562 250.585938 157.171875 250 157.757812 C 248.863281 157.191406 247.722656 156.621094 246.550781 156.035156 C 246.550781 155.179688 246.550781 154.328125 246.550781 153.449219 C 248.683594 153.875 248.683594 153.875 250.863281 154.308594 C 250.863281 153.457031 250.863281 152.601562 250.863281 151.722656 Z M 250.863281 151.722656 "/>
<path style=" stroke:none;fill-rule:nonzero;fill:rgb(58.431375%,28.627452%,87.843138%);fill-opacity:1;" d="M 56.035156 133.621094 C 56.898438 136.207031 56.898438 136.207031 55.765625 138.523438 C 55.285156 139.179688 54.804688 139.839844 54.308594 140.515625 C 53.742188 140.515625 53.171875 140.515625 52.585938 140.515625 C 52.300781 141.371094 52.015625 142.222656 51.722656 143.101562 C 49.449219 143.386719 47.171875 143.671875 44.828125 143.964844 C 46.808594 142.441406 48.777344 141.070312 50.914062 139.761719 C 53.492188 137.898438 54.628906 136.429688 56.035156 133.621094 Z M 56.035156 133.621094 "/>
<path style=" stroke:none;fill-rule:nonzero;fill:rgb(58.823532%,22.745098%,91.37255%);fill-opacity:1;" d="M 42.242188 154.308594 C 45.371094 154.59375 48.5 154.878906 51.722656 155.171875 C 52.007812 156.59375 52.292969 158.015625 52.585938 159.484375 C 49.402344 159.484375 47.605469 158.378906 44.828125 156.898438 C 44.828125 156.328125 44.828125 155.757812 44.828125 155.171875 C 43.972656 154.886719 43.121094 154.601562 42.242188 154.308594 Z M 42.242188 154.308594 "/>
<path style=" stroke:none;fill-rule:nonzero;fill:rgb(45.882353%,7.058824%,92.54902%);fill-opacity:1;" d="M 168.101562 162.070312 C 168.671875 162.351562 169.242188 162.636719 169.828125 162.929688 C 170.824219 165.925781 170.75 168.414062 170.691406 171.550781 C 170.121094 171.550781 169.550781 171.550781 168.964844 171.550781 C 168.859375 170.714844 168.753906 169.878906 168.640625 169.019531 C 168.464844 168.148438 168.285156 167.277344 168.101562 166.378906 C 167.535156 166.09375 166.964844 165.808594 166.378906 165.515625 C 166.949219 164.378906 167.515625 163.242188 168.101562 162.070312 Z M 168.101562 162.070312 "/>
<path style=" stroke:none;fill-rule:nonzero;fill:rgb(43.529412%,5.882353%,93.725491%);fill-opacity:1;" d="M 236.207031 120.691406 C 236.457031 121.222656 236.703125 121.757812 236.960938 122.304688 C 237.875 124.253906 237.875 124.253906 239.65625 125.863281 C 240 127.863281 240.292969 129.878906 240.515625 131.898438 C 240.125 131.46875 239.734375 131.042969 239.332031 130.601562 C 238.039062 129.117188 238.039062 129.117188 236.207031 129.308594 C 235.238281 123.597656 235.238281 123.597656 236.207031 120.691406 Z M 236.207031 120.691406 "/>
<path style=" stroke:none;fill-rule:nonzero;fill:rgb(45.490196%,12.156863%,86.274511%);fill-opacity:1;" d="M 168.964844 104.308594 C 169.535156 104.308594 170.101562 104.308594 170.691406 104.308594 C 170.691406 104.878906 170.691406 105.449219 170.691406 106.035156 C 171.542969 106.035156 172.398438 106.035156 173.277344 106.035156 C 173.277344 106.601562 173.277344 107.171875 173.277344 107.757812 C 174.414062 107.757812 175.550781 107.757812 176.722656 107.757812 C 177.007812 109.179688 177.292969 110.601562 177.585938 112.070312 C 176.144531 111.273438 174.707031 110.460938 173.277344 109.644531 C 172.476562 109.195312 171.675781 108.746094 170.851562 108.28125 C 169.917969 107.59375 169.917969 107.59375 168.964844 106.898438 C 168.964844 106.042969 168.964844 105.191406 168.964844 104.308594 Z M 168.964844 104.308594 "/>
<path style=" stroke:none;fill-rule:nonzero;fill:rgb(44.705883%,5.490196%,95.294118%);fill-opacity:1;" d="M 190.515625 171.550781 C 191.085938 172.691406 191.65625 173.828125 192.242188 175 C 191.136719 176.472656 189.984375 177.910156 188.792969 179.308594 C 188.222656 179.308594 187.65625 179.308594 187.070312 179.308594 C 187.625 176.304688 188.878906 174.113281 190.515625 171.550781 Z M 190.515625 171.550781 "/>
<path style=" stroke:none;fill-rule:nonzero;fill:rgb(52.156866%,23.137255%,88.235295%);fill-opacity:1;" d="M 233.621094 103.449219 C 235.933594 106.101562 236.570312 107.929688 236.800781 111.421875 C 236.855469 112.191406 236.914062 112.960938 236.972656 113.753906 C 237.003906 114.335938 237.035156 114.917969 237.070312 115.515625 C 236.214844 115.945312 236.214844 115.945312 235.34375 116.378906 C 235.21875 115.402344 235.097656 114.421875 234.96875 113.414062 C 234.816406 110.511719 234.816406 110.511719 233.621094 109.484375 C 233.585938 107.472656 233.585938 105.460938 233.621094 103.449219 Z M 233.621094 103.449219 "/>
<path style=" stroke:none;fill-rule:nonzero;fill:rgb(53.725493%,22.352941%,87.058824%);fill-opacity:1;" d="M 64.65625 188.792969 C 65.222656 189.078125 65.792969 189.363281 66.378906 189.65625 C 66.59375 195.367188 66.59375 195.367188 64.65625 198.277344 C 64.488281 196.859375 64.328125 195.4375 64.171875 194.019531 C 64.082031 193.230469 63.992188 192.4375 63.898438 191.625 C 63.863281 190.976562 63.828125 190.324219 63.792969 189.65625 C 64.078125 189.371094 64.363281 189.085938 64.65625 188.792969 Z M 64.65625 188.792969 "/>
<path style=" stroke:none;fill-rule:nonzero;fill:rgb(41.568628%,8.235294%,89.019608%);fill-opacity:1;" d="M 222.414062 228.449219 C 223.265625 228.734375 224.121094 229.015625 225 229.308594 C 224.714844 229.878906 224.429688 230.449219 224.136719 231.035156 C 225.277344 231.320312 226.414062 231.601562 227.585938 231.898438 C 227.015625 232.464844 226.449219 233.035156 225.863281 233.621094 C 224.085938 233.40625 224.085938 233.40625 222.414062 232.757812 C 222.128906 232.191406 221.84375 231.621094 221.550781 231.035156 C 221.835938 230.179688 222.121094 229.328125 222.414062 228.449219 Z M 222.414062 228.449219 "/>
<path style=" stroke:none;fill-rule:nonzero;fill:rgb(42.745098%,7.450981%,91.37255%);fill-opacity:1;" d="M 179.308594 189.65625 C 179.878906 190.222656 180.449219 190.792969 181.035156 191.378906 C 180.171875 192.671875 180.171875 192.671875 178.449219 193.964844 C 176.105469 194.203125 173.917969 194.082031 171.550781 193.964844 C 173.832031 191.683594 176.347656 190.863281 179.308594 189.65625 Z M 179.308594 189.65625 "/>
<path style=" stroke:none;fill-rule:nonzero;fill:rgb(92.156863%,88.627452%,96.470588%);fill-opacity:1;" d="M 147.414062 189.65625 C 149.191406 190.03125 149.191406 190.03125 150.863281 190.515625 C 150.863281 191.371094 150.863281 192.222656 150.863281 193.101562 C 149.15625 193.957031 149.15625 193.957031 147.414062 194.828125 C 147.085938 193.398438 146.796875 191.960938 146.550781 190.515625 C 146.835938 190.234375 147.121094 189.949219 147.414062 189.65625 Z M 147.414062 189.65625 "/>
<path style=" stroke:none;fill-rule:nonzero;fill:rgb(54.11765%,7.450981%,98.823529%);fill-opacity:1;" d="M 48.277344 152.585938 C 47.992188 153.441406 47.707031 154.292969 47.414062 155.171875 C 47.984375 155.457031 48.550781 155.742188 49.136719 156.035156 C 46.839844 155.460938 44.539062 154.886719 42.242188 154.308594 C 42.242188 153.742188 42.242188 153.171875 42.242188 152.585938 C 44.539062 151.4375 45.832031 152.007812 48.277344 152.585938 Z M 48.277344 152.585938 "/>
<path style=" stroke:none;fill-rule:nonzero;fill:rgb(45.09804%,17.254902%,77.254903%);fill-opacity:1;" d="M 170.691406 145.691406 C 170.691406 146.257812 170.691406 146.828125 170.691406 147.414062 C 171.347656 147.503906 172.003906 147.589844 172.683594 147.683594 C 175.195312 148.324219 175.886719 149.003906 177.585938 150.863281 C 176.203125 150.472656 174.820312 150.074219 173.4375 149.675781 C 172.667969 149.457031 171.898438 149.238281 171.105469 149.011719 C 168.964844 148.277344 168.964844 148.277344 166.378906 146.550781 C 168.964844 145.691406 168.964844 145.691406 170.691406 145.691406 Z M 170.691406 145.691406 "/>
<path style=" stroke:none;fill-rule:nonzero;fill:rgb(59.215689%,29.411766%,89.019608%);fill-opacity:1;" d="M 71.550781 68.101562 C 71.835938 68.101562 72.121094 68.101562 72.414062 68.101562 C 72.414062 69.527344 72.414062 70.949219 72.414062 72.414062 C 71.558594 72.699219 70.707031 72.984375 69.828125 73.277344 C 68.785156 75 68.785156 75 68.101562 76.722656 C 67.535156 76.441406 66.964844 76.15625 66.378906 75.863281 C 67.21875 74.566406 68.066406 73.273438 68.910156 71.984375 C 69.382812 71.261719 69.851562 70.542969 70.335938 69.800781 C 70.738281 69.242188 71.136719 68.679688 71.550781 68.101562 Z M 71.550781 68.101562 "/>
<path style=" stroke:none;fill-rule:nonzero;fill:rgb(54.11765%,7.450981%,98.039216%);fill-opacity:1;" d="M 50 154.308594 C 50.851562 154.308594 51.707031 154.308594 52.585938 154.308594 C 54.472656 156.898438 54.472656 156.898438 56.035156 159.484375 C 51.941406 158.835938 51.941406 158.835938 50 156.898438 C 50.570312 156.898438 51.136719 156.898438 51.722656 156.898438 C 51.722656 156.328125 51.722656 155.757812 51.722656 155.171875 C 51.15625 154.886719 50.585938 154.601562 50 154.308594 Z M 50 154.308594 "/>
<path style=" stroke:none;fill-rule:nonzero;fill:rgb(42.745098%,9.803922%,89.411765%);fill-opacity:1;" d="M 171.550781 193.964844 C 171.550781 195.101562 171.550781 196.242188 171.550781 197.414062 C 168.992188 196.988281 168.992188 196.988281 166.378906 196.550781 C 166.378906 195.984375 166.378906 195.414062 166.378906 194.828125 C 168.964844 193.964844 168.964844 193.964844 171.550781 193.964844 Z M 171.550781 193.964844 "/>
<path style=" stroke:none;fill-rule:nonzero;fill:rgb(95.294118%,87.058824%,99.215686%);fill-opacity:1;" d="M 167.242188 127.585938 C 167.527344 127.585938 167.808594 127.585938 168.101562 127.585938 C 168.292969 128.839844 168.472656 130.097656 168.640625 131.359375 C 168.742188 132.058594 168.84375 132.757812 168.945312 133.480469 C 168.953125 134.09375 168.957031 134.710938 168.964844 135.34375 C 168.398438 135.914062 167.828125 136.484375 167.242188 137.070312 C 166.671875 137.070312 166.101562 137.070312 165.515625 137.070312 C 166.085938 133.941406 166.65625 130.808594 167.242188 127.585938 Z M 167.242188 127.585938 "/>
<path style=" stroke:none;fill-rule:nonzero;fill:rgb(92.54902%,90.588236%,95.686275%);fill-opacity:1;" d="M 134.96875 187.878906 C 136.007812 187.902344 136.007812 187.902344 137.070312 187.929688 C 137.070312 188.785156 137.070312 189.636719 137.070312 190.515625 C 135.917969 191.09375 134.769531 191.667969 133.621094 192.242188 C 133.621094 191.386719 133.621094 190.535156 133.621094 189.65625 C 133.050781 189.371094 132.484375 189.085938 131.898438 188.792969 C 132.757812 187.929688 132.757812 187.929688 134.96875 187.878906 Z M 134.96875 187.878906 "/>
<path style=" stroke:none;fill-rule:nonzero;fill:rgb(46.27451%,18.82353%,84.313726%);fill-opacity:1;" d="M 165.515625 157.757812 C 168.355469 158.738281 168.960938 159.476562 170.472656 162.175781 C 170.828125 162.996094 171.183594 163.8125 171.550781 164.65625 C 170.699219 165.082031 170.699219 165.082031 169.828125 165.515625 C 167.242188 161.421875 167.242188 161.421875 167.242188 159.484375 C 166.671875 159.484375 166.101562 159.484375 165.515625 159.484375 C 165.515625 158.914062 165.515625 158.34375 165.515625 157.757812 Z M 165.515625 157.757812 "/>
<path style=" stroke:none;fill-rule:nonzero;fill:rgb(43.137255%,5.490196%,93.725491%);fill-opacity:1;" d="M 237.070312 168.101562 C 238.207031 168.671875 239.34375 169.242188 240.515625 169.828125 C 239.664062 170.253906 239.664062 170.253906 238.792969 170.691406 C 238.507812 171.542969 238.222656 172.398438 237.929688 173.277344 C 237.363281 173.277344 236.792969 173.277344 236.207031 173.277344 C 236.171875 171.839844 236.171875 170.402344 236.207031 168.964844 C 236.492188 168.679688 236.777344 168.398438 237.070312 168.101562 Z M 237.070312 168.101562 "/>
</g>
</svg>
