<?xml version="1.0" encoding="UTF-8"?>
<svg xmlns="http://www.w3.org/2000/svg" xmlns:xlink="http://www.w3.org/1999/xlink" width="300px" height="300px" viewBox="0 0 300 300" version="1.1">
<g id="surface1">
<path style=" stroke:none;fill-rule:nonzero;fill:rgb(36.078432%,55.29412%,73.725492%);fill-opacity:1;" d="M 299.496094 88.242188 C 299.492188 83.210938 298.28125 78.765625 295.835938 74.949219 C 293.429688 71.199219 289.828125 68.054688 284.996094 65.566406 C 245.125 45.132812 205.210938 24.761719 165.351562 4.304688 C 154.605469 -1.207031 144.1875 -1.007812 133.519531 4.585938 C 117.648438 12.90625 38.191406 53.367188 14.515625 65.554688 C 4.761719 70.574219 0.015625 78.25 0.015625 88.230469 C 0 129.328125 0.015625 170.421875 0 211.515625 C 0.00390625 216.4375 1.160156 220.796875 3.5 224.554688 C 5.90625 228.417969 9.558594 231.648438 14.5 234.191406 C 38.179688 246.382812 117.648438 286.839844 133.515625 295.160156 C 144.1875 300.757812 154.605469 300.957031 165.355469 295.441406 C 205.21875 274.984375 245.132812 254.613281 285.011719 234.179688 C 289.953125 231.636719 293.605469 228.40625 296.007812 224.542969 C 298.347656 220.785156 299.507812 216.425781 299.511719 211.503906 C 299.511719 211.503906 299.511719 129.335938 299.496094 88.242188 "/>
<path style=" stroke:none;fill-rule:nonzero;fill:rgb(10.196079%,27.450982%,45.490196%);fill-opacity:1;" d="M 150.214844 149.472656 L 3.5 224.554688 C 5.90625 228.417969 9.558594 231.648438 14.5 234.191406 C 38.179688 246.382812 117.648438 286.839844 133.515625 295.160156 C 144.1875 300.757812 154.605469 300.957031 165.355469 295.441406 C 205.21875 274.984375 245.132812 254.613281 285.011719 234.179688 C 289.953125 231.636719 293.605469 228.40625 296.007812 224.542969 L 150.214844 149.472656 "/>
<path style=" stroke:none;fill-rule:nonzero;fill:rgb(10.196079%,27.450982%,45.490196%);fill-opacity:1;" d="M 106.757812 171.714844 C 115.296875 184.960938 131.34375 193.894531 149.753906 193.894531 C 168.277344 193.894531 184.417969 184.847656 192.914062 171.457031 L 150.214844 149.472656 L 106.757812 171.714844 "/>
<path style=" stroke:none;fill-rule:nonzero;fill:rgb(10.588235%,34.901962%,55.686277%);fill-opacity:1;" d="M 299.496094 88.242188 C 299.492188 83.210938 298.28125 78.765625 295.835938 74.949219 L 150.214844 149.472656 L 296.007812 224.542969 C 298.347656 220.785156 299.507812 216.425781 299.511719 211.503906 C 299.511719 211.503906 299.511719 129.335938 299.496094 88.242188 "/>
<path style=" stroke:none;fill-rule:nonzero;fill:rgb(100%,100%,100%);fill-opacity:1;" d="M 291.476562 154.839844 L 280.085938 154.839844 L 280.085938 164.96875 L 268.691406 164.96875 L 268.691406 154.839844 L 257.296875 154.839844 L 257.296875 144.714844 L 268.691406 144.714844 L 268.691406 134.589844 L 280.085938 134.589844 L 280.085938 144.714844 L 291.476562 144.714844 L 291.476562 154.839844 M 249.90625 154.839844 L 238.515625 154.839844 L 238.515625 164.96875 L 227.121094 164.96875 L 227.121094 154.839844 L 215.726562 154.839844 L 215.726562 144.714844 L 227.121094 144.714844 L 227.121094 134.589844 L 238.515625 134.589844 L 238.515625 144.714844 L 249.90625 144.714844 L 249.90625 154.839844 "/>
<path style=" stroke:none;fill-rule:nonzero;fill:rgb(100%,100%,100%);fill-opacity:1;" d="M 192.914062 171.457031 C 184.417969 184.847656 168.277344 193.894531 149.753906 193.894531 C 131.34375 193.894531 115.296875 184.960938 106.757812 171.714844 C 102.46875 165.066406 100.21875 157.535156 100.226562 149.875 C 100.226562 125.5625 122.402344 105.855469 149.753906 105.855469 C 168.046875 105.855469 184.011719 114.675781 192.589844 127.789062 L 235.878906 105.632812 C 218.675781 79.234375 186.550781 61.472656 149.753906 61.472656 C 94.820312 61.472656 50.292969 101.050781 50.292969 149.875 C 50.292969 165.890625 55.085938 180.910156 63.464844 193.867188 C 80.628906 220.40625 112.84375 238.277344 149.753906 238.277344 C 186.734375 238.277344 219 220.335938 236.140625 193.71875 L 192.914062 171.457031 "/>
</g>
</svg>
