<?xml version="1.0" encoding="UTF-8"?>
<svg xmlns="http://www.w3.org/2000/svg" xmlns:xlink="http://www.w3.org/1999/xlink" width="24px" height="24px" viewBox="0 0 24 24" version="1.1">
<g id="surface1">
<path style=" stroke:none;fill-rule:nonzero;fill:rgb(14.117648%,14.117648%,14.117648%);fill-opacity:1;" d="M 22.125 8.773438 C 22.457031 8.9375 22.660156 9.105469 22.800781 9.449219 C 22.839844 9.875 22.8125 10.132812 22.574219 10.5 C 22.511719 10.554688 22.449219 10.613281 22.382812 10.667969 C 22.160156 10.917969 22.148438 11.050781 22.125 11.382812 C 22.078125 11.875 21.964844 12.320312 21.8125 12.792969 C 21.664062 13.265625 21.617188 13.726562 21.589844 14.21875 C 21.492188 14.609375 21.246094 14.746094 20.917969 14.949219 C 20.75 15.007812 20.613281 15.015625 20.433594 15.015625 C 20.375 15.011719 20.316406 15.011719 20.257812 15.011719 C 20.101562 15 20.101562 15 19.875 14.925781 C 19.824219 14.949219 19.773438 14.972656 19.71875 14.996094 C 19.398438 15.113281 19.089844 15.121094 18.75 15.074219 C 18.597656 14.980469 18.445312 14.878906 18.300781 14.773438 C 18.101562 14.78125 18.101562 14.78125 17.925781 14.851562 C 17.550781 14.972656 17.226562 14.96875 16.859375 14.839844 C 16.542969 14.628906 16.324219 14.394531 16.199219 14.023438 C 16.140625 14.101562 16.078125 14.179688 16.015625 14.257812 C 15.683594 14.652344 15.21875 15.035156 14.691406 15.09375 C 14.242188 15.105469 13.917969 15.027344 13.507812 14.839844 C 13.34375 14.761719 13.34375 14.761719 13.125 14.773438 C 13.074219 14.824219 13.019531 14.875 12.964844 14.925781 C 12.664062 15.132812 12.429688 15.132812 12.074219 15.074219 C 11.746094 14.964844 11.460938 14.816406 11.175781 14.625 C 11.109375 14.664062 11.109375 14.664062 11.039062 14.703125 C 10.980469 14.738281 10.921875 14.773438 10.859375 14.808594 C 10.800781 14.839844 10.746094 14.875 10.683594 14.910156 C 10.148438 15.167969 9.414062 15.179688 8.851562 15.007812 C 8.457031 14.820312 8.191406 14.613281 7.949219 14.25 C 7.890625 14.070312 7.890625 14.070312 7.875 13.949219 C 7.800781 13.988281 7.800781 13.988281 7.726562 14.023438 C 7.257812 14.066406 6.847656 14.078125 6.449219 13.800781 C 6.371094 13.703125 6.296875 13.601562 6.226562 13.5 C 6.15625 13.601562 6.089844 13.699219 6.023438 13.800781 C 5.960938 13.890625 5.960938 13.890625 5.898438 13.984375 C 5.757812 14.199219 5.628906 14.417969 5.503906 14.636719 C 5.359375 14.828125 5.226562 14.945312 5.023438 15.074219 C 4.757812 15.097656 4.757812 15.097656 4.46875 15.085938 C 4.082031 15.066406 3.8125 15.097656 3.449219 15.226562 C 2.855469 15.289062 2.304688 15.269531 1.800781 14.925781 C 1.425781 14.589844 1.230469 14.257812 1.179688 13.75 C 1.140625 12.792969 1.527344 11.949219 2.167969 11.242188 C 2.589844 10.851562 3.058594 10.570312 3.640625 10.53125 C 3.964844 10.546875 4.179688 10.667969 4.4375 10.851562 C 4.578125 10.953125 4.71875 11.027344 4.875 11.101562 C 4.933594 11.050781 4.988281 11.003906 5.046875 10.953125 C 5.363281 10.710938 5.609375 10.699219 6 10.726562 C 6.128906 10.796875 6.253906 10.871094 6.375 10.949219 C 6.664062 10.96875 6.664062 10.96875 6.882812 10.875 C 7.390625 10.71875 7.738281 10.773438 8.199219 11.011719 C 8.324219 11.101562 8.324219 11.101562 8.476562 11.324219 C 8.660156 11.238281 8.820312 11.144531 8.992188 11.023438 C 9.429688 10.742188 9.835938 10.667969 10.351562 10.726562 C 10.699219 10.816406 10.96875 10.949219 11.25 11.175781 C 11.300781 11.175781 11.347656 11.175781 11.398438 11.175781 C 11.445312 11.128906 11.492188 11.082031 11.539062 11.035156 C 11.777344 10.796875 11.917969 10.734375 12.253906 10.703125 C 12.558594 10.726562 12.722656 10.78125 12.976562 10.949219 C 13.152344 11.1875 13.152344 11.1875 13.273438 11.398438 C 13.3125 11.367188 13.347656 11.335938 13.382812 11.304688 C 13.433594 11.261719 13.480469 11.222656 13.527344 11.179688 C 13.574219 11.140625 13.621094 11.097656 13.671875 11.054688 C 13.960938 10.816406 14.261719 10.839844 14.625 10.875 C 14.898438 10.996094 14.984375 11.074219 15.148438 11.324219 C 15.179688 11.449219 15.203125 11.574219 15.226562 11.699219 C 15.265625 11.632812 15.308594 11.5625 15.351562 11.492188 C 15.582031 11.171875 15.835938 10.957031 16.199219 10.800781 C 16.710938 10.726562 17.054688 10.808594 17.476562 11.101562 C 17.53125 11.050781 17.53125 11.050781 17.59375 10.996094 C 17.972656 10.742188 18.375 10.691406 18.824219 10.726562 C 18.976562 10.773438 19.125 10.824219 19.273438 10.875 C 19.46875 10.898438 19.660156 10.914062 19.855469 10.925781 C 20.023438 10.949219 20.023438 10.949219 20.25 11.101562 C 20.472656 10.953125 20.574219 10.878906 20.699219 10.648438 C 20.71875 10.390625 20.71875 10.152344 20.695312 9.894531 C 20.671875 9.5 20.75 9.304688 21 9 C 21.328125 8.710938 21.710938 8.714844 22.125 8.773438 Z M 2.476562 11.699219 C 2.015625 12.296875 1.671875 12.945312 1.699219 13.714844 C 1.753906 14.054688 1.921875 14.304688 2.175781 14.539062 C 2.519531 14.734375 2.914062 14.746094 3.300781 14.699219 C 3.5 14.628906 3.6875 14.546875 3.878906 14.449219 C 4.050781 14.398438 4.050781 14.398438 4.207031 14.464844 C 4.253906 14.492188 4.300781 14.519531 4.351562 14.550781 C 4.613281 14.59375 4.613281 14.59375 4.875 14.550781 C 5.167969 14.292969 5.316406 13.914062 5.496094 13.574219 C 5.710938 13.203125 5.964844 12.863281 6.226562 12.523438 C 6.277344 12.453125 6.277344 12.453125 6.332031 12.375 C 6.480469 12.179688 6.574219 12.082031 6.8125 12.007812 C 6.863281 12.007812 6.917969 12.003906 6.976562 12 C 6.9375 12.238281 6.882812 12.414062 6.777344 12.632812 C 6.667969 12.921875 6.65625 13.058594 6.75 13.351562 C 7.027344 13.535156 7.253906 13.539062 7.574219 13.5 C 7.800781 13.40625 7.914062 13.351562 8.019531 13.128906 C 8.039062 12.972656 8.039062 12.972656 7.941406 12.84375 C 7.859375 12.632812 7.898438 12.585938 7.984375 12.382812 C 8.101562 12.101562 8.121094 11.925781 8.023438 11.625 C 7.894531 11.414062 7.796875 11.398438 7.554688 11.335938 C 6.894531 11.3125 6.480469 11.746094 6 12.148438 C 6.027344 12.070312 6.054688 11.988281 6.085938 11.90625 C 6.167969 11.640625 6.167969 11.640625 6.109375 11.445312 C 6.003906 11.3125 6.003906 11.3125 5.832031 11.25 C 5.535156 11.25 5.40625 11.367188 5.175781 11.550781 C 5.023438 11.773438 5.023438 11.773438 4.90625 12.03125 C 4.886719 12.078125 4.863281 12.125 4.839844 12.171875 C 4.691406 12.484375 4.578125 12.800781 4.46875 13.128906 C 4.324219 13.519531 4.1875 13.707031 3.816406 13.894531 C 3.570312 13.992188 3.371094 14.039062 3.109375 14.042969 C 3.050781 14.046875 2.988281 14.046875 2.929688 14.050781 C 2.878906 14.042969 2.828125 14.035156 2.773438 14.023438 C 2.570312 13.71875 2.5625 13.476562 2.625 13.125 C 2.847656 12.554688 3.109375 12.007812 3.601562 11.625 C 3.761719 11.578125 3.761719 11.578125 3.898438 11.550781 C 3.867188 11.613281 3.867188 11.613281 3.835938 11.675781 C 3.636719 12.082031 3.546875 12.375 3.601562 12.824219 C 3.679688 12.988281 3.679688 12.988281 3.824219 13.050781 C 3.976562 13.050781 3.976562 13.050781 4.125 12.976562 C 4.351562 12.605469 4.492188 12.210938 4.515625 11.78125 C 4.394531 11.46875 4.253906 11.351562 3.976562 11.175781 C 3.367188 10.984375 2.921875 11.304688 2.476562 11.699219 Z M 8.914062 11.765625 C 8.464844 12.28125 8.300781 12.871094 8.308594 13.539062 C 8.332031 13.800781 8.398438 13.960938 8.550781 14.175781 C 9.039062 14.550781 9.449219 14.605469 10.050781 14.550781 C 10.574219 14.417969 10.890625 14.195312 11.25 13.800781 C 11.324219 13.773438 11.398438 13.75 11.476562 13.726562 C 11.496094 13.792969 11.515625 13.863281 11.535156 13.9375 C 11.648438 14.242188 11.742188 14.339844 12.023438 14.492188 C 12.289062 14.566406 12.410156 14.570312 12.675781 14.476562 C 12.824219 14.332031 12.949219 14.183594 13.078125 14.027344 C 13.1875 13.890625 13.300781 13.769531 13.425781 13.648438 C 13.429688 13.71875 13.4375 13.785156 13.445312 13.855469 C 13.507812 14.136719 13.574219 14.226562 13.800781 14.398438 C 14.101562 14.5625 14.359375 14.585938 14.699219 14.550781 C 15.578125 14.191406 16.050781 13.292969 16.496094 12.507812 C 16.644531 12.257812 16.800781 12.015625 16.957031 11.773438 C 17.050781 11.613281 17.050781 11.613281 16.949219 11.398438 C 16.734375 11.292969 16.589844 11.300781 16.351562 11.324219 C 15.933594 11.542969 15.785156 11.78125 15.601562 12.191406 C 15.550781 12.300781 15.496094 12.40625 15.445312 12.515625 C 15.410156 12.59375 15.410156 12.59375 15.371094 12.675781 C 15.269531 12.886719 15.164062 13.09375 15.050781 13.296875 C 15.019531 13.363281 14.984375 13.425781 14.949219 13.488281 C 14.851562 13.648438 14.773438 13.761719 14.625 13.875 C 14.527344 13.875 14.425781 13.875 14.324219 13.875 C 14.285156 13.296875 14.375 12.84375 14.558594 12.296875 C 14.640625 12.027344 14.664062 11.828125 14.625 11.550781 C 14.550781 11.476562 14.550781 11.476562 14.476562 11.398438 C 14.214844 11.394531 14.214844 11.394531 13.949219 11.476562 C 13.722656 11.71875 13.574219 11.976562 13.429688 12.273438 C 13.390625 12.351562 13.351562 12.429688 13.3125 12.511719 C 13.269531 12.59375 13.230469 12.675781 13.191406 12.757812 C 13.109375 12.921875 13.03125 13.085938 12.949219 13.246094 C 12.914062 13.320312 12.882812 13.390625 12.84375 13.464844 C 12.640625 13.859375 12.640625 13.859375 12.375 13.949219 C 12.328125 13.355469 12.425781 12.824219 12.574219 12.253906 C 12.660156 11.917969 12.6875 11.667969 12.601562 11.324219 C 12.398438 11.253906 12.398438 11.253906 12.148438 11.25 C 11.808594 11.457031 11.648438 11.652344 11.519531 12.039062 C 11.445312 12.355469 11.410156 12.671875 11.378906 12.992188 C 11.324219 13.199219 11.324219 13.199219 11.1875 13.292969 C 11.132812 13.3125 11.082031 13.328125 11.023438 13.351562 C 10.929688 13.414062 10.835938 13.480469 10.742188 13.546875 C 10.417969 13.753906 10.207031 13.761719 9.824219 13.726562 C 9.765625 13.71875 9.707031 13.714844 9.648438 13.710938 C 9.523438 13.648438 9.523438 13.648438 9.429688 13.457031 C 9.414062 13.398438 9.394531 13.335938 9.375 13.273438 C 9.484375 13.28125 9.484375 13.28125 9.59375 13.289062 C 9.988281 13.285156 10.398438 13.207031 10.699219 12.941406 C 10.964844 12.625 11.050781 12.417969 11.039062 12.003906 C 11.015625 11.765625 10.960938 11.648438 10.800781 11.476562 C 10.097656 11.105469 9.480469 11.238281 8.914062 11.765625 Z M 8.914062 11.765625 "/>
<path style=" stroke:none;fill-rule:nonzero;fill:rgb(14.901961%,14.901961%,14.901961%);fill-opacity:1;" d="M 22.125 8.773438 C 22.457031 8.9375 22.660156 9.105469 22.800781 9.449219 C 22.839844 9.875 22.8125 10.132812 22.574219 10.5 C 22.511719 10.554688 22.449219 10.613281 22.382812 10.667969 C 22.160156 10.917969 22.148438 11.050781 22.125 11.382812 C 22.078125 11.875 21.964844 12.320312 21.8125 12.792969 C 21.664062 13.265625 21.617188 13.726562 21.589844 14.21875 C 21.492188 14.609375 21.246094 14.746094 20.917969 14.949219 C 20.75 15.007812 20.613281 15.015625 20.433594 15.015625 C 20.375 15.011719 20.316406 15.011719 20.257812 15.011719 C 20.101562 15 20.101562 15 19.875 14.925781 C 19.824219 14.949219 19.773438 14.972656 19.71875 14.996094 C 19.398438 15.113281 19.089844 15.121094 18.75 15.074219 C 18.597656 14.980469 18.445312 14.878906 18.300781 14.773438 C 18.101562 14.78125 18.101562 14.78125 17.925781 14.851562 C 17.550781 14.972656 17.226562 14.96875 16.859375 14.839844 C 16.542969 14.628906 16.324219 14.394531 16.199219 14.023438 C 16.140625 14.101562 16.078125 14.179688 16.015625 14.257812 C 15.683594 14.652344 15.21875 15.035156 14.691406 15.09375 C 14.242188 15.105469 13.917969 15.027344 13.507812 14.839844 C 13.34375 14.761719 13.34375 14.761719 13.125 14.773438 C 13.046875 14.847656 13.046875 14.847656 12.964844 14.925781 C 12.664062 15.132812 12.429688 15.132812 12.074219 15.074219 C 11.746094 14.964844 11.460938 14.816406 11.175781 14.625 C 11.128906 14.652344 11.085938 14.675781 11.039062 14.703125 C 10.980469 14.738281 10.921875 14.773438 10.859375 14.808594 C 10.800781 14.839844 10.746094 14.875 10.683594 14.910156 C 10.140625 15.175781 9.320312 15.1875 8.75 14.996094 C 8.550781 14.851562 8.550781 14.851562 8.480469 14.582031 C 8.476562 14.445312 8.476562 14.3125 8.476562 14.175781 C 8.851562 14.324219 8.851562 14.324219 9.027344 14.402344 C 9.566406 14.597656 10.121094 14.496094 10.632812 14.273438 C 10.882812 14.125 11.054688 13.9375 11.25 13.726562 C 11.324219 13.726562 11.398438 13.726562 11.476562 13.726562 C 11.699219 14.15625 11.699219 14.15625 11.699219 14.324219 C 12.058594 14.449219 12.308594 14.507812 12.675781 14.398438 C 12.851562 14.230469 12.851562 14.230469 12.992188 14.019531 C 13.085938 13.894531 13.179688 13.769531 13.273438 13.648438 C 13.324219 13.648438 13.375 13.648438 13.425781 13.648438 C 13.433594 13.695312 13.445312 13.742188 13.457031 13.792969 C 13.507812 13.984375 13.558594 14.148438 13.648438 14.324219 C 13.992188 14.488281 14.324219 14.515625 14.699219 14.476562 C 15.421875 14.171875 15.84375 13.507812 16.226562 12.855469 C 16.351562 12.671875 16.46875 12.570312 16.648438 12.449219 C 16.722656 12.671875 16.722656 12.671875 16.800781 12.898438 C 16.828125 12.84375 16.859375 12.789062 16.890625 12.734375 C 16.929688 12.660156 16.96875 12.585938 17.011719 12.511719 C 17.050781 12.4375 17.089844 12.367188 17.128906 12.292969 C 17.382812 11.835938 17.589844 11.480469 18.074219 11.25 C 18.453125 11.191406 18.824219 11.152344 19.152344 11.363281 C 19.210938 11.417969 19.210938 11.417969 19.273438 11.476562 C 19.324219 11.449219 19.375 11.425781 19.425781 11.398438 C 19.65625 11.390625 19.65625 11.390625 19.875 11.398438 C 19.949219 11.476562 19.949219 11.476562 19.972656 11.679688 C 19.96875 12.050781 19.835938 12.378906 19.722656 12.726562 C 19.625 13.058594 19.589844 13.382812 19.574219 13.726562 C 19.828125 13.5 19.933594 13.320312 20.03125 13 C 20.054688 12.917969 20.078125 12.839844 20.105469 12.757812 C 20.128906 12.679688 20.152344 12.605469 20.175781 12.523438 C 20.371094 11.898438 20.371094 11.898438 20.523438 11.628906 C 20.707031 11.21875 20.703125 10.796875 20.695312 10.351562 C 20.691406 10.296875 20.691406 10.246094 20.691406 10.191406 C 20.6875 10.085938 20.683594 9.980469 20.675781 9.878906 C 20.667969 9.496094 20.761719 9.292969 21 9 C 21.328125 8.710938 21.710938 8.714844 22.125 8.773438 Z M 22.125 8.773438 "/>
<path style=" stroke:none;fill-rule:nonzero;fill:rgb(97.254902%,35.294119%,31.37255%);fill-opacity:1;" d="M 21.523438 11.023438 C 21.597656 11.0625 21.597656 11.0625 21.675781 11.101562 C 21.632812 11.703125 21.472656 12.25 21.300781 12.824219 C 21.199219 13.171875 21.144531 13.496094 21.132812 13.855469 C 21.101562 14.222656 21.101562 14.222656 20.867188 14.453125 C 20.636719 14.546875 20.496094 14.578125 20.25 14.550781 C 20.199219 14.449219 20.152344 14.351562 20.101562 14.25 C 20.015625 14.300781 19.933594 14.347656 19.847656 14.398438 C 19.488281 14.578125 19.144531 14.632812 18.75 14.550781 C 18.5625 14.375 18.5625 14.375 18.449219 14.175781 C 18.402344 14.101562 18.351562 14.027344 18.300781 13.949219 C 18.269531 13.980469 18.238281 14.011719 18.203125 14.046875 C 17.898438 14.332031 17.6875 14.476562 17.25 14.476562 C 16.957031 14.398438 16.894531 14.355469 16.726562 14.101562 C 16.621094 13.339844 16.777344 12.796875 17.175781 12.148438 C 17.222656 12.066406 17.269531 11.984375 17.316406 11.898438 C 17.59375 11.550781 17.851562 11.285156 18.304688 11.214844 C 18.707031 11.203125 18.964844 11.199219 19.273438 11.476562 C 19.324219 11.449219 19.375 11.425781 19.425781 11.398438 C 19.65625 11.390625 19.65625 11.390625 19.875 11.398438 C 19.949219 11.476562 19.949219 11.476562 19.972656 11.679688 C 19.96875 12.050781 19.835938 12.378906 19.722656 12.726562 C 19.625 13.058594 19.589844 13.382812 19.574219 13.726562 C 19.828125 13.5 19.933594 13.320312 20.03125 13 C 20.054688 12.917969 20.078125 12.839844 20.105469 12.757812 C 20.148438 12.617188 20.1875 12.476562 20.230469 12.335938 C 20.445312 11.640625 20.71875 10.964844 21.523438 11.023438 Z M 21.523438 11.023438 "/>
<path style=" stroke:none;fill-rule:nonzero;fill:rgb(96.470588%,35.294119%,31.764707%);fill-opacity:1;" d="M 18.976562 11.25 C 19.152344 11.363281 19.152344 11.363281 19.273438 11.476562 C 19.324219 11.449219 19.375 11.425781 19.425781 11.398438 C 19.65625 11.390625 19.65625 11.390625 19.875 11.398438 C 19.949219 11.476562 19.949219 11.476562 19.953125 11.742188 C 19.953125 11.828125 19.953125 11.914062 19.949219 12 C 19.925781 12 19.902344 12 19.875 12 C 19.824219 11.851562 19.777344 11.703125 19.726562 11.550781 C 19.601562 11.574219 19.476562 11.597656 19.351562 11.625 C 19.351562 11.675781 19.351562 11.722656 19.351562 11.773438 C 19.28125 11.785156 19.28125 11.785156 19.207031 11.792969 C 19.039062 11.835938 19.039062 11.835938 18.976562 11.992188 C 18.960938 12.050781 18.945312 12.109375 18.929688 12.167969 C 18.910156 12.230469 18.894531 12.289062 18.875 12.351562 C 18.859375 12.410156 18.84375 12.464844 18.824219 12.523438 C 18.777344 12.652344 18.726562 12.777344 18.675781 12.898438 C 18.625 12.898438 18.574219 12.898438 18.523438 12.898438 C 18.523438 12.972656 18.523438 13.046875 18.523438 13.125 C 18.402344 13.203125 18.277344 13.277344 18.148438 13.351562 C 18.125 13.398438 18.101562 13.449219 18.074219 13.5 C 18.125 13.574219 18.175781 13.648438 18.226562 13.726562 C 18.230469 13.9375 18.195312 14.050781 18.046875 14.210938 C 17.808594 14.40625 17.625 14.503906 17.3125 14.480469 C 17.003906 14.394531 16.914062 14.347656 16.726562 14.101562 C 16.578125 13.355469 16.789062 12.777344 17.175781 12.148438 C 17.222656 12.066406 17.269531 11.984375 17.316406 11.898438 C 17.777344 11.324219 18.230469 11.113281 18.976562 11.25 Z M 18.976562 11.25 "/>
<path style=" stroke:none;fill-rule:nonzero;fill:rgb(22.352941%,15.294118%,14.509805%);fill-opacity:1;" d="M 22.125 8.773438 C 22.457031 8.9375 22.660156 9.105469 22.800781 9.449219 C 22.847656 9.953125 22.773438 10.253906 22.449219 10.65625 C 22.253906 10.890625 22.082031 11.078125 21.824219 11.25 C 21.804688 11.480469 21.804688 11.480469 21.824219 11.699219 C 21.777344 11.699219 21.726562 11.699219 21.675781 11.699219 C 21.625 11.847656 21.574219 11.996094 21.523438 12.148438 C 21.414062 11.925781 21.496094 11.777344 21.558594 11.539062 C 21.589844 11.417969 21.589844 11.417969 21.625 11.292969 C 21.640625 11.226562 21.65625 11.164062 21.675781 11.101562 C 21.570312 11.09375 21.460938 11.089844 21.355469 11.085938 C 21.296875 11.082031 21.238281 11.082031 21.175781 11.078125 C 20.960938 11.105469 20.867188 11.191406 20.699219 11.324219 C 20.691406 11.023438 20.6875 10.71875 20.679688 10.414062 C 20.679688 10.328125 20.675781 10.246094 20.671875 10.15625 C 20.667969 9.671875 20.667969 9.363281 21 9 C 21.328125 8.710938 21.710938 8.714844 22.125 8.773438 Z M 22.125 8.773438 "/>
<path style=" stroke:none;fill-rule:nonzero;fill:rgb(14.117648%,14.117648%,13.725491%);fill-opacity:1;" d="M 22.125 8.773438 C 22.457031 8.9375 22.660156 9.105469 22.800781 9.449219 C 22.816406 9.652344 22.808594 9.84375 22.800781 10.050781 C 22.675781 10.074219 22.550781 10.097656 22.425781 10.125 C 22.425781 9.902344 22.425781 9.679688 22.425781 9.449219 C 22.375 9.425781 22.324219 9.402344 22.273438 9.375 C 22.273438 9.324219 22.273438 9.277344 22.273438 9.226562 C 22.140625 9.222656 22.007812 9.21875 21.875 9.214844 C 21.800781 9.214844 21.730469 9.210938 21.652344 9.210938 C 21.433594 9.210938 21.433594 9.210938 21.226562 9.375 C 21.195312 9.558594 21.195312 9.558594 21.207031 9.765625 C 21.207031 9.835938 21.210938 9.910156 21.210938 9.988281 C 21.226562 10.238281 21.257812 10.476562 21.300781 10.726562 C 21 10.726562 21 10.726562 20.851562 10.648438 C 20.613281 10.289062 20.65625 9.863281 20.699219 9.449219 C 21 8.816406 21.464844 8.679688 22.125 8.773438 Z M 22.125 8.773438 "/>
<path style=" stroke:none;fill-rule:nonzero;fill:rgb(92.941177%,35.294119%,32.156864%);fill-opacity:1;" d="M 21.792969 9.21875 C 22.070312 9.304688 22.191406 9.355469 22.351562 9.601562 C 22.378906 10.003906 22.148438 10.242188 21.898438 10.535156 C 21.710938 10.679688 21.605469 10.671875 21.375 10.648438 C 21.148438 10.273438 21.09375 10.027344 21.148438 9.601562 C 21.347656 9.304688 21.433594 9.226562 21.792969 9.21875 Z M 21.792969 9.21875 "/>
<path style=" stroke:none;fill-rule:nonzero;fill:rgb(27.450982%,13.333334%,12.156863%);fill-opacity:1;" d="M 18.824219 11.851562 C 18.800781 12.464844 18.550781 12.914062 18.148438 13.371094 C 18 13.5 18 13.5 17.773438 13.5 C 17.75 13.136719 17.816406 12.914062 17.980469 12.589844 C 18.019531 12.515625 18.058594 12.4375 18.097656 12.359375 C 18.40625 11.851562 18.40625 11.851562 18.824219 11.851562 Z M 18.824219 11.851562 "/>
<path style=" stroke:none;fill-rule:nonzero;fill:rgb(14.509805%,13.333334%,13.725491%);fill-opacity:1;" d="M 18.300781 13.875 C 18.527344 13.988281 18.570312 14.179688 18.675781 14.398438 C 18.796875 14.523438 18.9375 14.492188 19.105469 14.492188 C 19.429688 14.492188 19.609375 14.441406 19.875 14.25 C 19.949219 14.25 20.023438 14.25 20.101562 14.25 C 20.175781 14.363281 20.175781 14.363281 20.25 14.476562 C 20.554688 14.441406 20.808594 14.410156 21.074219 14.25 C 21.027344 14.375 20.976562 14.496094 20.925781 14.625 C 20.589844 14.664062 20.589844 14.664062 20.25 14.699219 C 20.273438 14.75 20.300781 14.800781 20.324219 14.851562 C 20.515625 14.898438 20.515625 14.898438 20.699219 14.925781 C 20.699219 14.949219 20.699219 14.972656 20.699219 15 C 20.605469 15 20.511719 15.003906 20.414062 15.003906 C 20.359375 15.003906 20.308594 15.007812 20.253906 15.007812 C 20.101562 15 20.101562 15 19.875 14.925781 C 19.800781 14.949219 19.726562 14.972656 19.648438 15 C 19.574219 14.949219 19.5 14.902344 19.425781 14.851562 C 19.425781 14.824219 19.425781 14.800781 19.425781 14.773438 C 19.367188 14.769531 19.3125 14.761719 19.253906 14.753906 C 19.027344 14.722656 18.816406 14.6875 18.601562 14.625 C 18.460938 14.429688 18.460938 14.429688 18.375 14.25 C 18.179688 14.21875 18.179688 14.21875 18 14.25 C 18.097656 14.125 18.199219 14.003906 18.300781 13.875 Z M 18.300781 13.875 "/>
<path style=" stroke:none;fill-rule:nonzero;fill:rgb(29.803923%,14.901961%,14.117648%);fill-opacity:1;" d="M 20.023438 11.175781 C 20.074219 11.25 20.125 11.324219 20.175781 11.398438 C 20.148438 11.425781 20.125 11.449219 20.101562 11.476562 C 20.082031 11.613281 20.070312 11.753906 20.058594 11.890625 C 20.050781 11.96875 20.046875 12.042969 20.039062 12.121094 C 20.035156 12.179688 20.03125 12.238281 20.023438 12.300781 C 20.074219 12.300781 20.125 12.300781 20.175781 12.300781 C 20.199219 12.199219 20.222656 12.101562 20.25 12 C 20.40625 12.308594 20.195312 12.734375 20.101562 13.050781 C 20.015625 13.269531 19.921875 13.445312 19.800781 13.648438 C 19.6875 13.6875 19.6875 13.6875 19.574219 13.726562 C 19.53125 13.175781 19.632812 12.746094 19.808594 12.226562 C 19.886719 11.957031 19.902344 11.75 19.875 11.476562 C 19.625 11.46875 19.441406 11.46875 19.199219 11.550781 C 19.152344 11.476562 19.101562 11.402344 19.050781 11.324219 C 19.113281 11.320312 19.179688 11.316406 19.246094 11.3125 C 19.367188 11.300781 19.367188 11.300781 19.496094 11.292969 C 19.578125 11.285156 19.660156 11.28125 19.746094 11.273438 C 19.941406 11.273438 19.941406 11.273438 20.023438 11.175781 Z M 20.023438 11.175781 "/>
<path style=" stroke:none;fill-rule:nonzero;fill:rgb(88.627452%,35.294119%,33.333334%);fill-opacity:1;" d="M 18.074219 11.25 C 18.21875 11.242188 18.363281 11.238281 18.507812 11.234375 C 18.625 11.230469 18.625 11.230469 18.75 11.226562 C 18.996094 11.253906 19.09375 11.308594 19.273438 11.476562 C 19.324219 11.449219 19.375 11.425781 19.425781 11.398438 C 19.65625 11.390625 19.65625 11.390625 19.875 11.398438 C 19.949219 11.476562 19.949219 11.476562 19.953125 11.742188 C 19.953125 11.828125 19.953125 11.914062 19.949219 12 C 19.925781 12 19.902344 12 19.875 12 C 19.824219 11.851562 19.777344 11.703125 19.726562 11.550781 C 19.601562 11.574219 19.476562 11.597656 19.351562 11.625 C 19.351562 11.675781 19.351562 11.722656 19.351562 11.773438 C 19.28125 11.785156 19.28125 11.785156 19.207031 11.792969 C 19.039062 11.835938 19.039062 11.835938 18.976562 11.992188 C 18.960938 12.050781 18.945312 12.109375 18.929688 12.167969 C 18.910156 12.230469 18.894531 12.289062 18.875 12.351562 C 18.859375 12.410156 18.84375 12.464844 18.824219 12.523438 C 18.777344 12.652344 18.726562 12.777344 18.675781 12.898438 C 18.625 12.898438 18.574219 12.898438 18.523438 12.898438 C 18.523438 12.972656 18.523438 13.046875 18.523438 13.125 C 18.476562 13.125 18.425781 13.125 18.375 13.125 C 18.460938 12.910156 18.546875 12.699219 18.640625 12.488281 C 18.730469 12.269531 18.789062 12.082031 18.824219 11.851562 C 18.492188 11.953125 18.351562 12.09375 18.148438 12.375 C 18.105469 12.433594 18.0625 12.488281 18.019531 12.546875 C 17.988281 12.589844 17.957031 12.632812 17.925781 12.675781 C 17.925781 12.550781 17.925781 12.425781 17.925781 12.300781 C 17.972656 12.300781 18.023438 12.300781 18.074219 12.300781 C 18.085938 12.253906 18.09375 12.210938 18.101562 12.164062 C 18.148438 12 18.148438 12 18.300781 11.773438 C 18.496094 11.761719 18.496094 11.761719 18.675781 11.773438 C 18.6875 11.730469 18.695312 11.683594 18.707031 11.632812 C 18.75 11.476562 18.75 11.476562 18.824219 11.324219 C 18.578125 11.324219 18.328125 11.324219 18.074219 11.324219 C 18.074219 11.300781 18.074219 11.277344 18.074219 11.25 Z M 18.074219 11.25 "/>
<path style=" stroke:none;fill-rule:nonzero;fill:rgb(14.509805%,14.509805%,14.509805%);fill-opacity:1;" d="M 10.273438 11.925781 C 10.335938 12.121094 10.335938 12.121094 10.351562 12.375 C 10.222656 12.597656 10.058594 12.78125 9.824219 12.898438 C 9.675781 12.902344 9.523438 12.902344 9.375 12.898438 C 9.667969 11.859375 9.667969 11.859375 10.273438 11.925781 Z M 10.273438 11.925781 "/>
<path style=" stroke:none;fill-rule:nonzero;fill:rgb(21.568628%,16.862746%,16.862746%);fill-opacity:1;" d="M 21.226562 10.351562 C 21.273438 10.425781 21.324219 10.5 21.375 10.574219 C 21.566406 10.628906 21.566406 10.628906 21.75 10.648438 C 21.75 10.699219 21.75 10.75 21.75 10.800781 C 21.699219 10.800781 21.652344 10.800781 21.601562 10.800781 C 21.625 10.875 21.648438 10.949219 21.675781 11.023438 C 21.523438 11.101562 21.523438 11.101562 21.273438 11.089844 C 20.988281 11.101562 20.902344 11.132812 20.699219 11.324219 C 20.699219 11.101562 20.699219 10.878906 20.699219 10.648438 C 20.824219 10.625 20.949219 10.601562 21.074219 10.574219 C 21.101562 10.625 21.125 10.675781 21.148438 10.726562 C 21.175781 10.601562 21.199219 10.476562 21.226562 10.351562 Z M 21.226562 10.351562 "/>
<path style=" stroke:none;fill-rule:nonzero;fill:rgb(27.058825%,12.941177%,11.372549%);fill-opacity:1;" d="M 21.917969 9.136719 C 22.039062 9.140625 22.039062 9.140625 22.164062 9.140625 C 22.226562 9.144531 22.285156 9.148438 22.351562 9.148438 C 22.324219 9.222656 22.300781 9.296875 22.273438 9.375 C 22.347656 9.398438 22.421875 9.425781 22.5 9.449219 C 22.476562 9.671875 22.449219 9.894531 22.425781 10.125 C 22.523438 10.125 22.621094 10.125 22.726562 10.125 C 22.675781 10.222656 22.625 10.324219 22.574219 10.425781 C 22.425781 10.375 22.277344 10.324219 22.125 10.273438 C 22.152344 10.222656 22.175781 10.167969 22.203125 10.117188 C 22.289062 9.855469 22.28125 9.710938 22.199219 9.449219 C 21.988281 9.28125 21.789062 9.28125 21.523438 9.300781 C 21.449219 9.324219 21.375 9.347656 21.300781 9.375 C 21.273438 9.449219 21.25 9.523438 21.226562 9.601562 C 21.199219 9.527344 21.175781 9.453125 21.148438 9.375 C 21.402344 9.140625 21.578125 9.125 21.917969 9.136719 Z M 21.917969 9.136719 "/>
<path style=" stroke:none;fill-rule:nonzero;fill:rgb(84.313726%,35.686275%,32.941177%);fill-opacity:1;" d="M 21.28125 10.988281 C 21.523438 11.023438 21.523438 11.023438 21.675781 11.101562 C 21.648438 11.324219 21.625 11.546875 21.601562 11.773438 C 21.574219 11.773438 21.550781 11.773438 21.523438 11.773438 C 21.523438 11.578125 21.523438 11.378906 21.523438 11.175781 C 21.375 11.175781 21.226562 11.175781 21.074219 11.175781 C 21.050781 11.246094 21.027344 11.316406 21.003906 11.390625 C 20.925781 11.625 20.925781 11.625 20.851562 11.773438 C 20.777344 11.75 20.703125 11.726562 20.625 11.699219 C 20.625 11.800781 20.625 11.898438 20.625 12 C 20.550781 12 20.476562 12 20.398438 12 C 20.519531 11.507812 20.75 11.058594 21.28125 10.988281 Z M 21.28125 10.988281 "/>
<path style=" stroke:none;fill-rule:nonzero;fill:rgb(17.254902%,17.254902%,17.254902%);fill-opacity:1;" d="M 15 11.101562 C 15.101562 11.265625 15.101562 11.265625 15.148438 11.398438 C 14.957031 11.492188 14.820312 11.554688 14.605469 11.535156 C 14.5625 11.515625 14.519531 11.496094 14.476562 11.476562 C 14.449219 11.402344 14.425781 11.328125 14.398438 11.25 C 14.351562 11.199219 14.300781 11.152344 14.25 11.101562 C 14.25 11.050781 14.25 11 14.25 10.949219 C 14.554688 10.820312 14.730469 10.929688 15 11.101562 Z M 15 11.101562 "/>
<path style=" stroke:none;fill-rule:nonzero;fill:rgb(28.627452%,13.725491%,11.764706%);fill-opacity:1;" d="M 16.574219 13.199219 C 16.625 13.199219 16.675781 13.199219 16.726562 13.199219 C 16.730469 13.261719 16.734375 13.324219 16.738281 13.390625 C 16.746094 13.46875 16.75 13.550781 16.757812 13.636719 C 16.765625 13.757812 16.765625 13.757812 16.777344 13.882812 C 16.792969 14.105469 16.792969 14.105469 16.875 14.324219 C 17.453125 14.421875 17.453125 14.421875 18 14.25 C 17.976562 14.324219 17.949219 14.398438 17.925781 14.476562 C 17.796875 14.53125 17.796875 14.53125 17.640625 14.570312 C 17.585938 14.582031 17.535156 14.59375 17.484375 14.605469 C 17.191406 14.640625 17.042969 14.5625 16.800781 14.398438 C 16.800781 14.351562 16.800781 14.300781 16.800781 14.25 C 16.726562 14.226562 16.652344 14.199219 16.574219 14.175781 C 16.574219 13.851562 16.574219 13.53125 16.574219 13.199219 Z M 16.574219 13.199219 "/>
<path style=" stroke:none;fill-rule:nonzero;fill:rgb(25.490198%,12.156863%,10.980392%);fill-opacity:1;" d="M 19.875 12.601562 C 19.925781 12.625 19.972656 12.648438 20.023438 12.675781 C 20.046875 13.066406 20.015625 13.316406 19.800781 13.648438 C 19.726562 13.675781 19.652344 13.699219 19.574219 13.726562 C 19.539062 13.242188 19.605469 13.003906 19.875 12.601562 Z M 19.875 12.601562 "/>
<path style=" stroke:none;fill-rule:nonzero;fill:rgb(34.901962%,15.686275%,12.941177%);fill-opacity:1;" d="M 18.300781 13.875 C 18.527344 13.988281 18.570312 14.179688 18.675781 14.398438 C 18.75 14.492188 18.75 14.492188 18.910156 14.484375 C 18.976562 14.484375 19.042969 14.484375 19.109375 14.484375 C 19.175781 14.484375 19.242188 14.484375 19.308594 14.484375 C 19.484375 14.476562 19.632812 14.449219 19.800781 14.398438 C 19.800781 14.449219 19.800781 14.5 19.800781 14.550781 C 19.476562 14.710938 19.179688 14.746094 18.824219 14.699219 C 18.605469 14.601562 18.605469 14.601562 18.449219 14.476562 C 18.425781 14.402344 18.402344 14.328125 18.375 14.25 C 18.25 14.25 18.128906 14.25 18 14.25 C 18.097656 14.125 18.199219 14.003906 18.300781 13.875 Z M 18.300781 13.875 "/>
<path style=" stroke:none;fill-rule:nonzero;fill:rgb(33.333334%,15.686275%,13.725491%);fill-opacity:1;" d="M 18.824219 11.851562 C 18.769531 12.492188 18.769531 12.492188 18.523438 12.75 C 18.515625 12.242188 18.515625 12.242188 18.601562 12.074219 C 18.550781 12.074219 18.5 12.074219 18.449219 12.074219 C 18.425781 12.199219 18.402344 12.324219 18.375 12.449219 C 18.277344 12.476562 18.175781 12.5 18.074219 12.523438 C 18.214844 12.101562 18.355469 11.851562 18.824219 11.851562 Z M 18.824219 11.851562 "/>
<path style=" stroke:none;fill-rule:nonzero;fill:rgb(27.450982%,14.117648%,13.333334%);fill-opacity:1;" d="M 17.625 11.175781 C 18.09375 11.175781 18.566406 11.175781 19.050781 11.175781 C 19.023438 11.222656 19 11.273438 18.976562 11.324219 C 18.914062 11.324219 18.855469 11.320312 18.792969 11.320312 C 18.710938 11.320312 18.632812 11.316406 18.546875 11.316406 C 18.46875 11.3125 18.390625 11.3125 18.308594 11.308594 C 18.070312 11.324219 17.910156 11.359375 17.699219 11.476562 C 17.675781 11.550781 17.652344 11.625 17.625 11.699219 C 17.574219 11.699219 17.527344 11.699219 17.476562 11.699219 C 17.425781 11.824219 17.375 11.949219 17.324219 12.074219 C 17.300781 11.976562 17.277344 11.878906 17.25 11.773438 C 17.300781 11.773438 17.347656 11.773438 17.398438 11.773438 C 17.375 11.699219 17.351562 11.625 17.324219 11.550781 C 17.398438 11.550781 17.472656 11.550781 17.550781 11.550781 C 17.574219 11.425781 17.597656 11.300781 17.625 11.175781 Z M 17.625 11.175781 "/>
<path style=" stroke:none;fill-rule:nonzero;fill:rgb(18.431373%,18.431373%,18.431373%);fill-opacity:1;" d="M 7.273438 10.78125 C 7.425781 10.78125 7.574219 10.789062 7.726562 10.800781 C 7.699219 10.898438 7.675781 10.996094 7.648438 11.101562 C 7.527344 11.125 7.402344 11.148438 7.273438 11.175781 C 7.273438 11.25 7.273438 11.324219 7.273438 11.398438 C 6.984375 11.269531 6.984375 11.269531 6.898438 11.101562 C 6.996094 10.910156 7.058594 10.808594 7.273438 10.78125 Z M 7.273438 10.78125 "/>
<path style=" stroke:none;fill-rule:nonzero;fill:rgb(13.725491%,13.725491%,13.725491%);fill-opacity:1;" d="M 7.726562 10.875 C 7.847656 10.898438 7.972656 10.925781 8.101562 10.949219 C 8.101562 11.175781 8.101562 11.175781 8.023438 11.304688 C 7.777344 11.460938 7.554688 11.375 7.273438 11.324219 C 7.273438 11.277344 7.273438 11.226562 7.273438 11.175781 C 7.398438 11.148438 7.523438 11.125 7.648438 11.101562 C 7.675781 11.027344 7.699219 10.953125 7.726562 10.875 Z M 7.726562 10.875 "/>
<path style=" stroke:none;fill-rule:nonzero;fill:rgb(20.784314%,12.54902%,12.156863%);fill-opacity:1;" d="M 21.148438 13.351562 C 21.175781 13.351562 21.199219 13.351562 21.226562 13.351562 C 21.226562 13.5 21.226562 13.648438 21.226562 13.800781 C 21.25 13.75 21.273438 13.699219 21.300781 13.648438 C 21.375 13.648438 21.449219 13.648438 21.523438 13.648438 C 21.523438 13.898438 21.523438 14.144531 21.523438 14.398438 C 21.449219 14.300781 21.375 14.203125 21.300781 14.101562 C 21.273438 14.148438 21.25 14.199219 21.226562 14.25 C 21.175781 14.25 21.125 14.25 21.074219 14.25 C 21.074219 14.113281 21.070312 13.976562 21.070312 13.84375 C 21.070312 13.765625 21.070312 13.691406 21.066406 13.613281 C 21.074219 13.425781 21.074219 13.425781 21.148438 13.351562 Z M 21.148438 13.351562 "/>
<path style=" stroke:none;fill-rule:nonzero;fill:rgb(17.647059%,17.647059%,17.647059%);fill-opacity:1;" d="M 2.699219 11.25 C 2.773438 11.300781 2.847656 11.347656 2.925781 11.398438 C 2.871094 11.441406 2.8125 11.480469 2.757812 11.523438 C 2.539062 11.710938 2.410156 11.910156 2.25 12.148438 C 2.199219 12.148438 2.152344 12.148438 2.101562 12.148438 C 2.050781 12 2 11.851562 1.949219 11.699219 C 2.214844 11.519531 2.378906 11.449219 2.699219 11.476562 C 2.699219 11.402344 2.699219 11.328125 2.699219 11.25 Z M 2.699219 11.25 "/>
<path style=" stroke:none;fill-rule:nonzero;fill:rgb(14.901961%,14.509805%,14.509805%);fill-opacity:1;" d="M 18.449219 12.074219 C 18.5 12.074219 18.550781 12.074219 18.601562 12.074219 C 18.5625 12.632812 18.5625 12.632812 18.371094 12.851562 C 18.324219 12.894531 18.273438 12.933594 18.226562 12.976562 C 18.226562 13.023438 18.226562 13.074219 18.226562 13.125 C 18.175781 13.125 18.125 13.125 18.074219 13.125 C 18.039062 12.570312 18.039062 12.570312 18.21875 12.347656 C 18.296875 12.285156 18.296875 12.285156 18.375 12.226562 C 18.398438 12.175781 18.425781 12.125 18.449219 12.074219 Z M 18.449219 12.074219 "/>
<path style=" stroke:none;fill-rule:nonzero;fill:rgb(80.000001%,34.117648%,31.764707%);fill-opacity:1;" d="M 17.023438 12.449219 C 17.074219 12.523438 17.125 12.597656 17.175781 12.675781 C 17.101562 12.699219 17.027344 12.722656 16.949219 12.75 C 16.933594 12.914062 16.917969 13.082031 16.902344 13.246094 C 16.894531 13.339844 16.886719 13.429688 16.875 13.527344 C 16.875 13.804688 16.921875 13.996094 17.023438 14.25 C 16.976562 14.273438 16.925781 14.300781 16.875 14.324219 C 16.621094 13.945312 16.683594 13.496094 16.726562 13.050781 C 16.800781 12.820312 16.894531 12.65625 17.023438 12.449219 Z M 17.023438 12.449219 "/>
<path style=" stroke:none;fill-rule:nonzero;fill:rgb(17.647059%,16.862746%,16.470589%);fill-opacity:1;" d="M 18.898438 14.699219 C 19.390625 14.671875 19.390625 14.671875 19.570312 14.8125 C 19.597656 14.851562 19.621094 14.886719 19.648438 14.925781 C 19.5 15.074219 19.5 15.074219 19.320312 15.089844 C 19.253906 15.089844 19.1875 15.085938 19.117188 15.085938 C 19.011719 15.082031 19.011719 15.082031 18.910156 15.082031 C 18.855469 15.078125 18.804688 15.078125 18.75 15.074219 C 18.800781 14.953125 18.847656 14.828125 18.898438 14.699219 Z M 18.898438 14.699219 "/>
<path style=" stroke:none;fill-rule:nonzero;fill:rgb(17.254902%,12.54902%,12.156863%);fill-opacity:1;" d="M 21.226562 8.851562 C 21.273438 8.875 21.324219 8.898438 21.375 8.925781 C 21.351562 8.972656 21.324219 9.023438 21.300781 9.074219 C 21.226562 9.074219 21.152344 9.074219 21.074219 9.074219 C 21.125 9.101562 21.175781 9.125 21.226562 9.148438 C 21.226562 9.59375 21.226562 10.039062 21.226562 10.5 C 21.074219 10.351562 21.074219 10.351562 21.058594 10.15625 C 21.0625 10.078125 21.0625 10.003906 21.066406 9.929688 C 21.066406 9.851562 21.066406 9.777344 21.070312 9.699219 C 21.070312 9.640625 21.074219 9.585938 21.074219 9.523438 C 21.027344 9.523438 20.976562 9.523438 20.925781 9.523438 C 20.863281 9.398438 20.863281 9.398438 20.851562 9.226562 C 21.03125 9.019531 21.03125 9.019531 21.226562 8.851562 Z M 21.226562 8.851562 "/>
<path style=" stroke:none;fill-rule:nonzero;fill:rgb(14.901961%,15.294118%,15.686275%);fill-opacity:1;" d="M 16.875 10.800781 C 16.882812 10.847656 16.894531 10.894531 16.902344 10.945312 C 16.925781 11.023438 16.925781 11.023438 16.949219 11.101562 C 17 11.125 17.050781 11.148438 17.101562 11.175781 C 17.027344 11.285156 17.027344 11.285156 16.949219 11.398438 C 16.902344 11.375 16.851562 11.351562 16.800781 11.324219 C 16.824219 11.277344 16.847656 11.226562 16.875 11.175781 C 16.726562 11.199219 16.578125 11.222656 16.425781 11.25 C 16.398438 11.125 16.375 11.003906 16.351562 10.875 C 16.609375 10.835938 16.609375 10.835938 16.875 10.800781 Z M 16.875 10.800781 "/>
<path style=" stroke:none;fill-rule:nonzero;fill:rgb(14.509805%,14.509805%,14.509805%);fill-opacity:1;" d="M 9.375 13.273438 C 9.574219 13.273438 9.769531 13.273438 9.976562 13.273438 C 9.949219 13.324219 9.925781 13.375 9.898438 13.425781 C 9.851562 13.425781 9.800781 13.425781 9.75 13.425781 C 9.929688 13.640625 10.074219 13.6875 10.351562 13.726562 C 10.351562 13.75 10.351562 13.773438 10.351562 13.800781 C 9.746094 13.824219 9.746094 13.824219 9.523438 13.648438 C 9.429688 13.453125 9.429688 13.453125 9.375 13.273438 Z M 9.375 13.273438 "/>
<path style=" stroke:none;fill-rule:nonzero;fill:rgb(18.82353%,19.215687%,20%);fill-opacity:1;" d="M 15.898438 13.726562 C 16.023438 13.726562 16.148438 13.726562 16.273438 13.726562 C 16.238281 14.042969 16.050781 14.191406 15.824219 14.398438 C 15.824219 14.351562 15.824219 14.300781 15.824219 14.25 C 15.75 14.25 15.675781 14.25 15.601562 14.25 C 15.601562 14.101562 15.601562 14.101562 15.707031 13.988281 C 15.746094 13.949219 15.785156 13.914062 15.824219 13.875 C 15.851562 13.824219 15.875 13.777344 15.898438 13.726562 Z M 15.898438 13.726562 "/>
<path style=" stroke:none;fill-rule:nonzero;fill:rgb(28.235295%,13.333334%,10.588235%);fill-opacity:1;" d="M 19.875 14.25 C 19.949219 14.25 20.023438 14.25 20.101562 14.25 C 20.148438 14.324219 20.199219 14.398438 20.25 14.476562 C 20.554688 14.441406 20.808594 14.410156 21.074219 14.25 C 21.027344 14.375 20.976562 14.496094 20.925781 14.625 C 20.804688 14.628906 20.679688 14.628906 20.558594 14.628906 C 20.492188 14.628906 20.421875 14.632812 20.355469 14.632812 C 20.175781 14.625 20.175781 14.625 20.023438 14.550781 C 20.023438 14.5 20.023438 14.449219 20.023438 14.398438 C 19.949219 14.375 19.875 14.351562 19.800781 14.324219 C 19.824219 14.300781 19.847656 14.277344 19.875 14.25 Z M 19.875 14.25 "/>
<path style=" stroke:none;fill-rule:nonzero;fill:rgb(80.784315%,35.294119%,31.764707%);fill-opacity:1;" d="M 19.726562 12 C 19.773438 12 19.824219 12 19.875 12 C 19.867188 12.042969 19.855469 12.085938 19.847656 12.128906 C 19.738281 12.660156 19.652344 13.191406 19.574219 13.726562 C 19.550781 13.726562 19.527344 13.726562 19.5 13.726562 C 19.484375 12.859375 19.484375 12.859375 19.574219 12.449219 C 19.625 12.449219 19.675781 12.449219 19.726562 12.449219 C 19.726562 12.300781 19.726562 12.152344 19.726562 12 Z M 19.726562 12 "/>
<path style=" stroke:none;fill-rule:nonzero;fill:rgb(98.823529%,34.901962%,29.803923%);fill-opacity:1;" d="M 21.375 9.675781 C 21.398438 9.675781 21.425781 9.675781 21.449219 9.675781 C 21.476562 9.871094 21.5 10.070312 21.523438 10.273438 C 21.574219 10.273438 21.625 10.273438 21.675781 10.273438 C 21.699219 10.347656 21.722656 10.421875 21.75 10.5 C 21.625 10.5 21.503906 10.5 21.375 10.5 C 21.347656 10.390625 21.316406 10.28125 21.289062 10.171875 C 21.273438 10.109375 21.257812 10.050781 21.242188 9.988281 C 21.238281 9.933594 21.230469 9.878906 21.226562 9.824219 C 21.273438 9.777344 21.324219 9.726562 21.375 9.675781 Z M 21.375 9.675781 "/>
<path style=" stroke:none;fill-rule:nonzero;fill:rgb(25.098041%,13.725491%,11.372549%);fill-opacity:1;" d="M 17.023438 12.074219 C 17.097656 12.101562 17.171875 12.125 17.25 12.148438 C 17.101562 12.445312 16.953125 12.742188 16.800781 13.050781 C 16.773438 13.050781 16.75 13.050781 16.726562 13.050781 C 16.726562 12.875 16.726562 12.703125 16.726562 12.523438 C 16.773438 12.523438 16.824219 12.523438 16.875 12.523438 C 16.886719 12.464844 16.898438 12.40625 16.90625 12.34375 C 16.949219 12.148438 16.949219 12.148438 17.023438 12.074219 Z M 17.023438 12.074219 "/>
<path style=" stroke:none;fill-rule:nonzero;fill:rgb(17.647059%,17.254902%,17.647059%);fill-opacity:1;" d="M 21.375 8.773438 C 21.449219 8.800781 21.523438 8.824219 21.601562 8.851562 C 21.601562 8.898438 21.601562 8.949219 21.601562 9 C 21.699219 9.023438 21.796875 9.050781 21.898438 9.074219 C 21.898438 9.101562 21.898438 9.125 21.898438 9.148438 C 21.628906 9.199219 21.355469 9.25 21.074219 9.300781 C 21.074219 9.226562 21.074219 9.152344 21.074219 9.074219 C 21.148438 9.074219 21.222656 9.074219 21.300781 9.074219 C 21.324219 8.976562 21.347656 8.878906 21.375 8.773438 Z M 21.375 8.773438 "/>
<path style=" stroke:none;fill-rule:nonzero;fill:rgb(89.803922%,33.725491%,29.803923%);fill-opacity:1;" d="M 19.949219 13.199219 C 20.125 13.414062 20.230469 13.617188 20.324219 13.875 C 20.203125 13.898438 20.078125 13.925781 19.949219 13.949219 C 19.949219 13.875 19.949219 13.800781 19.949219 13.726562 C 19.875 13.699219 19.800781 13.675781 19.726562 13.648438 C 19.800781 13.5 19.875 13.351562 19.949219 13.199219 Z M 19.949219 13.199219 "/>
<path style=" stroke:none;fill-rule:nonzero;fill:rgb(85.09804%,35.294119%,34.901962%);fill-opacity:1;" d="M 22.125 9.375 C 22.242188 9.460938 22.242188 9.460938 22.351562 9.601562 C 22.34375 9.882812 22.308594 10.011719 22.121094 10.226562 C 22.074219 10.269531 22.023438 10.308594 21.976562 10.351562 C 21.984375 10.300781 21.996094 10.25 22.007812 10.199219 C 22.058594 9.925781 22.09375 9.652344 22.125 9.375 Z M 22.125 9.375 "/>
<path style=" stroke:none;fill-rule:nonzero;fill:rgb(13.725491%,13.725491%,13.725491%);fill-opacity:1;" d="M 13.273438 13.648438 C 13.324219 13.648438 13.375 13.648438 13.425781 13.648438 C 13.449219 13.796875 13.472656 13.945312 13.5 14.101562 C 13.351562 14.148438 13.203125 14.199219 13.050781 14.25 C 13.050781 13.933594 13.070312 13.871094 13.273438 13.648438 Z M 13.273438 13.648438 "/>
<path style=" stroke:none;fill-rule:nonzero;fill:rgb(84.705883%,36.862746%,33.725491%);fill-opacity:1;" d="M 18.523438 14.25 C 18.710938 14.289062 18.710938 14.289062 18.898438 14.324219 C 18.898438 14.375 18.898438 14.425781 18.898438 14.476562 C 19.007812 14.453125 19.113281 14.429688 19.21875 14.40625 C 19.277344 14.390625 19.335938 14.378906 19.398438 14.363281 C 19.558594 14.328125 19.714844 14.289062 19.875 14.25 C 19.726562 14.476562 19.726562 14.476562 19.5 14.550781 C 19.320312 14.566406 19.320312 14.566406 19.125 14.574219 C 19.058594 14.578125 18.996094 14.578125 18.929688 14.582031 C 18.75 14.550781 18.75 14.550781 18.613281 14.398438 C 18.570312 14.324219 18.570312 14.324219 18.523438 14.25 Z M 18.523438 14.25 "/>
<path style=" stroke:none;fill-rule:nonzero;fill:rgb(26.666668%,18.82353%,17.254902%);fill-opacity:1;" d="M 22.351562 9.75 C 22.375 9.75 22.398438 9.75 22.425781 9.75 C 22.425781 9.875 22.425781 9.996094 22.425781 10.125 C 22.523438 10.125 22.621094 10.125 22.726562 10.125 C 22.675781 10.222656 22.625 10.324219 22.574219 10.425781 C 22.425781 10.375 22.277344 10.324219 22.125 10.273438 C 22.199219 10.101562 22.273438 9.929688 22.351562 9.75 Z M 22.351562 9.75 "/>
<path style=" stroke:none;fill-rule:nonzero;fill:rgb(17.647059%,17.647059%,17.647059%);fill-opacity:1;" d="M 9.449219 10.875 C 9.574219 10.875 9.699219 10.875 9.824219 10.875 C 9.851562 11.023438 9.875 11.171875 9.898438 11.324219 C 9.675781 11.289062 9.675781 11.289062 9.449219 11.25 C 9.449219 11.125 9.449219 11.003906 9.449219 10.875 Z M 9.449219 10.875 "/>
<path style=" stroke:none;fill-rule:nonzero;fill:rgb(11.372549%,11.372549%,11.372549%);fill-opacity:1;" d="M 9.675781 12.148438 C 9.746094 12.34375 9.761719 12.421875 9.679688 12.617188 C 9.640625 12.683594 9.640625 12.683594 9.601562 12.75 C 9.675781 12.773438 9.75 12.800781 9.824219 12.824219 C 9.824219 12.851562 9.824219 12.875 9.824219 12.898438 C 9.675781 12.898438 9.527344 12.898438 9.375 12.898438 C 9.410156 12.789062 9.445312 12.679688 9.484375 12.566406 C 9.503906 12.503906 9.523438 12.445312 9.542969 12.378906 C 9.601562 12.226562 9.601562 12.226562 9.675781 12.148438 Z M 9.675781 12.148438 "/>
<path style=" stroke:none;fill-rule:nonzero;fill:rgb(19.607843%,19.607843%,19.607843%);fill-opacity:1;" d="M 8.324219 12.675781 C 8.351562 12.773438 8.375 12.871094 8.398438 12.976562 C 8.175781 13.050781 8.175781 13.050781 8.015625 12.992188 C 7.875 12.898438 7.875 12.898438 7.800781 12.675781 C 8.035156 12.597656 8.097656 12.605469 8.324219 12.675781 Z M 8.324219 12.675781 "/>
<path style=" stroke:none;fill-rule:nonzero;fill:rgb(38.431373%,18.039216%,16.470589%);fill-opacity:1;" d="M 21.226562 10.351562 C 21.273438 10.425781 21.324219 10.5 21.375 10.574219 C 21.566406 10.628906 21.566406 10.628906 21.75 10.648438 C 21.75 10.699219 21.75 10.75 21.75 10.800781 C 21.699219 10.800781 21.652344 10.800781 21.601562 10.800781 C 21.625 10.875 21.648438 10.949219 21.675781 11.023438 C 21.460938 11.132812 21.304688 11.070312 21.074219 11.023438 C 21.074219 11 21.074219 10.976562 21.074219 10.949219 C 21.199219 10.925781 21.324219 10.902344 21.449219 10.875 C 21.449219 10.824219 21.449219 10.777344 21.449219 10.726562 C 21.375 10.699219 21.300781 10.675781 21.226562 10.648438 C 21.226562 10.550781 21.226562 10.453125 21.226562 10.351562 Z M 21.226562 10.351562 "/>
<path style=" stroke:none;fill-rule:nonzero;fill:rgb(14.901961%,17.254902%,17.254902%);fill-opacity:1;" d="M 20.773438 9.300781 C 20.824219 9.300781 20.875 9.300781 20.925781 9.300781 C 20.925781 9.375 20.925781 9.449219 20.925781 9.523438 C 20.972656 9.523438 21.023438 9.523438 21.074219 9.523438 C 21.050781 9.699219 21.027344 9.871094 21 10.050781 C 20.785156 9.871094 20.730469 9.726562 20.699219 9.449219 C 20.726562 9.402344 20.75 9.351562 20.773438 9.300781 Z M 20.773438 9.300781 "/>
<path style=" stroke:none;fill-rule:nonzero;fill:rgb(11.372549%,13.333334%,13.333334%);fill-opacity:1;" d="M 21.976562 11.023438 C 22.023438 11.023438 22.074219 11.023438 22.125 11.023438 C 22.128906 11.132812 22.132812 11.242188 22.132812 11.347656 C 22.136719 11.410156 22.136719 11.46875 22.140625 11.53125 C 22.125 11.699219 22.125 11.699219 21.976562 11.925781 C 21.882812 11.628906 21.832031 11.308594 21.976562 11.023438 Z M 21.976562 11.023438 "/>
<path style=" stroke:none;fill-rule:nonzero;fill:rgb(11.372549%,13.333334%,12.941177%);fill-opacity:1;" d="M 22.800781 9.601562 C 22.800781 9.75 22.800781 9.898438 22.800781 10.050781 C 22.675781 10.074219 22.550781 10.097656 22.425781 10.125 C 22.425781 9.824219 22.425781 9.824219 22.527344 9.695312 C 22.648438 9.601562 22.648438 9.601562 22.800781 9.601562 Z M 22.800781 9.601562 "/>
<path style=" stroke:none;fill-rule:nonzero;fill:rgb(85.09804%,35.294119%,34.117648%);fill-opacity:1;" d="M 19.949219 14.175781 C 20.050781 14.175781 20.148438 14.175781 20.25 14.175781 C 20.25 14.25 20.25 14.324219 20.25 14.398438 C 20.449219 14.375 20.644531 14.351562 20.851562 14.324219 C 20.761719 14.4375 20.761719 14.4375 20.625 14.550781 C 20.421875 14.5625 20.421875 14.5625 20.25 14.550781 C 20.226562 14.503906 20.207031 14.453125 20.183594 14.40625 C 20.113281 14.238281 20.113281 14.238281 19.949219 14.175781 Z M 19.949219 14.175781 "/>
<path style=" stroke:none;fill-rule:nonzero;fill:rgb(14.901961%,14.117648%,12.941177%);fill-opacity:1;" d="M 19.875 12.601562 C 19.925781 12.625 19.972656 12.648438 20.023438 12.675781 C 20.023438 12.796875 20.023438 12.921875 20.023438 13.050781 C 19.976562 13.050781 19.925781 13.050781 19.875 13.050781 C 19.875 13.148438 19.875 13.246094 19.875 13.351562 C 19.824219 13.351562 19.777344 13.351562 19.726562 13.351562 C 19.710938 13.054688 19.71875 12.855469 19.875 12.601562 Z M 19.875 12.601562 "/>
<path style=" stroke:none;fill-rule:nonzero;fill:rgb(10.196079%,10.196079%,10.196079%);fill-opacity:1;" d="M 8.023438 12.976562 C 8.125 12.976562 8.222656 12.976562 8.324219 12.976562 C 8.324219 13.171875 8.324219 13.371094 8.324219 13.574219 C 8.300781 13.574219 8.277344 13.574219 8.25 13.574219 C 8.25 13.453125 8.25 13.328125 8.25 13.199219 C 8.199219 13.199219 8.152344 13.199219 8.101562 13.199219 C 8.101562 13.25 8.101562 13.300781 8.101562 13.351562 C 8.027344 13.324219 7.953125 13.300781 7.875 13.273438 C 7.925781 13.175781 7.972656 13.078125 8.023438 12.976562 Z M 8.023438 12.976562 "/>
<path style=" stroke:none;fill-rule:nonzero;fill:rgb(12.941177%,13.333334%,14.117648%);fill-opacity:1;" d="M 22.125 10.273438 C 22.347656 10.3125 22.347656 10.3125 22.574219 10.351562 C 22.519531 10.496094 22.519531 10.496094 22.425781 10.648438 C 22.265625 10.707031 22.265625 10.707031 22.125 10.726562 C 22.148438 10.652344 22.175781 10.578125 22.199219 10.5 C 22.175781 10.425781 22.152344 10.351562 22.125 10.273438 Z M 22.125 10.273438 "/>
<path style=" stroke:none;fill-rule:nonzero;fill:rgb(84.705883%,36.470589%,33.725491%);fill-opacity:1;" d="M 16.726562 13.351562 C 16.75 13.351562 16.773438 13.351562 16.800781 13.351562 C 16.808594 13.394531 16.820312 13.441406 16.832031 13.488281 C 16.851562 13.578125 16.851562 13.578125 16.871094 13.667969 C 16.882812 13.726562 16.894531 13.785156 16.910156 13.847656 C 16.945312 14.007812 16.984375 14.167969 17.023438 14.324219 C 16.976562 14.324219 16.925781 14.324219 16.875 14.324219 C 16.710938 14.078125 16.707031 14 16.714844 13.710938 C 16.71875 13.644531 16.71875 13.574219 16.71875 13.507812 C 16.722656 13.453125 16.722656 13.402344 16.726562 13.351562 Z M 16.726562 13.351562 "/>
<path style=" stroke:none;fill-rule:nonzero;fill:rgb(16.078432%,12.156863%,12.156863%);fill-opacity:1;" d="M 21.601562 11.851562 C 21.75 12.074219 21.75 12.074219 21.75 12.226562 C 21.800781 12.226562 21.847656 12.226562 21.898438 12.226562 C 21.824219 12.375 21.824219 12.375 21.675781 12.449219 C 21.648438 12.402344 21.625 12.351562 21.601562 12.300781 C 21.550781 12.347656 21.5 12.398438 21.449219 12.449219 C 21.488281 12.242188 21.53125 12.050781 21.601562 11.851562 Z M 21.601562 11.851562 "/>
<path style=" stroke:none;fill-rule:nonzero;fill:rgb(11.764706%,11.764706%,11.764706%);fill-opacity:1;" d="M 6.523438 11.773438 C 6.402344 11.902344 6.277344 12.027344 6.148438 12.148438 C 6.101562 12.148438 6.050781 12.148438 6 12.148438 C 6.027344 11.96875 6.027344 11.96875 6.074219 11.773438 C 6.261719 11.679688 6.332031 11.714844 6.523438 11.773438 Z M 6.523438 11.773438 "/>
<path style=" stroke:none;fill-rule:nonzero;fill:rgb(20.392157%,18.82353%,20.392157%);fill-opacity:1;" d="M 21.375 14.324219 C 21.425781 14.375 21.472656 14.425781 21.523438 14.476562 C 21.394531 14.625 21.394531 14.625 21.226562 14.773438 C 21.125 14.773438 21.027344 14.773438 20.925781 14.773438 C 20.949219 14.699219 20.972656 14.625 21 14.550781 C 21.097656 14.523438 21.199219 14.496094 21.300781 14.476562 C 21.324219 14.425781 21.347656 14.375 21.375 14.324219 Z M 21.375 14.324219 "/>
<path style=" stroke:none;fill-rule:nonzero;fill:rgb(92.54902%,36.078432%,34.509805%);fill-opacity:1;" d="M 17.699219 13.875 C 17.875 13.898438 18.046875 13.925781 18.226562 13.949219 C 18.121094 14.101562 18.121094 14.101562 18 14.25 C 17.949219 14.25 17.902344 14.25 17.851562 14.25 C 17.800781 14.125 17.75 14.003906 17.699219 13.875 Z M 17.699219 13.875 "/>
<path style=" stroke:none;fill-rule:nonzero;fill:rgb(29.803923%,14.117648%,12.156863%);fill-opacity:1;" d="M 18.449219 11.925781 C 18.523438 12.074219 18.523438 12.074219 18.472656 12.265625 C 18.375 12.449219 18.375 12.449219 18.214844 12.511719 C 18.167969 12.515625 18.121094 12.519531 18.074219 12.523438 C 18.164062 12.273438 18.246094 12.101562 18.449219 11.925781 Z M 18.449219 11.925781 "/>
<path style=" stroke:none;fill-rule:nonzero;fill:rgb(10.196079%,10.196079%,10.196079%);fill-opacity:1;" d="M 9.675781 13.425781 C 9.714844 13.460938 9.757812 13.496094 9.800781 13.53125 C 9.988281 13.660156 10.128906 13.695312 10.351562 13.726562 C 10.351562 13.75 10.351562 13.773438 10.351562 13.800781 C 9.851562 13.820312 9.851562 13.820312 9.601562 13.648438 C 9.625 13.574219 9.648438 13.5 9.675781 13.425781 Z M 9.675781 13.425781 "/>
<path style=" stroke:none;fill-rule:nonzero;fill:rgb(23.921569%,13.725491%,11.764706%);fill-opacity:1;" d="M 20.398438 11.324219 C 20.449219 11.324219 20.5 11.324219 20.550781 11.324219 C 20.625 11.550781 20.625 11.550781 20.515625 11.789062 C 20.460938 11.894531 20.460938 11.894531 20.398438 12 C 20.316406 11.75 20.335938 11.578125 20.398438 11.324219 Z M 20.398438 11.324219 "/>
</g>
</svg>
