<?xml version="1.0" encoding="UTF-8"?>
<svg xmlns="http://www.w3.org/2000/svg" xmlns:xlink="http://www.w3.org/1999/xlink" width="300px" height="300px" viewBox="0 0 300 300" version="1.1">
<g id="surface1">
<path style=" stroke:none;fill-rule:nonzero;fill:rgb(14.117648%,14.117648%,14.117648%);fill-opacity:1;" d="M 276.5625 109.667969 C 280.710938 111.71875 283.25 113.820312 285.007812 118.117188 C 285.5 123.4375 285.15625 126.660156 282.179688 131.25 C 281.398438 131.933594 280.617188 132.664062 279.785156 133.351562 C 277 136.476562 276.855469 138.132812 276.5625 142.285156 C 275.976562 148.4375 274.5625 154.003906 272.65625 159.914062 C 270.800781 165.820312 270.214844 171.582031 269.875 177.734375 C 268.652344 182.617188 265.578125 184.328125 261.476562 186.867188 C 259.375 187.597656 257.664062 187.695312 255.421875 187.695312 C 254.6875 187.648438 253.953125 187.648438 253.222656 187.648438 C 251.269531 187.5 251.269531 187.5 248.4375 186.570312 C 247.804688 186.867188 247.167969 187.15625 246.484375 187.453125 C 242.480469 188.914062 238.625 189.015625 234.375 188.429688 C 232.46875 187.257812 230.566406 185.984375 228.757812 184.667969 C 226.269531 184.765625 226.269531 184.765625 224.070312 185.644531 C 219.382812 187.15625 215.332031 187.109375 210.742188 185.5 C 206.789062 182.859375 204.054688 179.929688 202.492188 175.292969 C 201.757812 176.269531 200.976562 177.246094 200.195312 178.222656 C 196.046875 183.15625 190.234375 187.9375 183.640625 188.671875 C 178.027344 188.820312 173.976562 187.84375 168.847656 185.5 C 166.796875 184.523438 166.796875 184.523438 164.0625 184.667969 C 163.429688 185.304688 162.742188 185.9375 162.0625 186.570312 C 158.300781 189.160156 155.371094 189.160156 150.929688 188.429688 C 146.828125 187.0625 143.261719 185.203125 139.695312 182.8125 C 138.867188 183.300781 138.867188 183.300781 137.988281 183.789062 C 137.257812 184.226562 136.523438 184.667969 135.742188 185.109375 C 135.007812 185.5 134.328125 185.9375 133.546875 186.375 C 126.855469 189.601562 117.675781 189.746094 110.644531 187.597656 C 105.710938 185.253906 102.390625 182.664062 99.367188 178.125 C 98.632812 175.878906 98.632812 175.878906 98.4375 174.367188 C 97.507812 174.851562 97.507812 174.851562 96.582031 175.292969 C 90.722656 175.828125 85.59375 175.976562 80.617188 172.507812 C 79.640625 171.289062 78.710938 170.019531 77.832031 168.75 C 76.953125 170.019531 76.125 171.242188 75.292969 172.507812 C 74.511719 173.632812 74.511719 173.632812 73.730469 174.804688 C 71.972656 177.492188 70.359375 180.226562 68.796875 182.960938 C 66.992188 185.351562 65.332031 186.816406 62.792969 188.429688 C 59.472656 188.71875 59.472656 188.71875 55.859375 188.574219 C 51.023438 188.328125 47.65625 188.71875 43.117188 190.332031 C 35.695312 191.113281 28.808594 190.867188 22.507812 186.570312 C 17.820312 182.375 15.382812 178.222656 14.746094 171.875 C 14.257812 159.914062 19.09375 149.367188 27.101562 140.527344 C 32.375 135.644531 38.234375 132.128906 45.507812 131.640625 C 49.5625 131.835938 52.246094 133.351562 55.46875 135.644531 C 57.226562 136.914062 58.984375 137.84375 60.9375 138.769531 C 61.671875 138.132812 62.351562 137.546875 63.085938 136.914062 C 67.039062 133.886719 70.117188 133.742188 75 134.082031 C 76.609375 134.960938 78.171875 135.890625 79.6875 136.867188 C 83.300781 137.109375 83.300781 137.109375 86.035156 135.9375 C 92.382812 133.984375 96.726562 134.667969 102.492188 137.648438 C 104.054688 138.769531 104.054688 138.769531 105.957031 141.554688 C 108.25 140.476562 110.253906 139.304688 112.402344 137.792969 C 117.871094 134.277344 122.949219 133.351562 129.394531 134.082031 C 133.742188 135.203125 137.109375 136.867188 140.625 139.695312 C 141.257812 139.695312 141.84375 139.695312 142.480469 139.695312 C 143.066406 139.109375 143.652344 138.523438 144.238281 137.9375 C 147.21875 134.960938 148.976562 134.179688 153.171875 133.789062 C 156.984375 134.082031 159.03125 134.765625 162.207031 136.867188 C 164.40625 139.84375 164.40625 139.84375 165.917969 142.480469 C 166.40625 142.089844 166.84375 141.699219 167.285156 141.308594 C 167.921875 140.773438 168.507812 140.28125 169.09375 139.746094 C 169.679688 139.257812 170.265625 138.71875 170.898438 138.183594 C 174.511719 135.203125 178.273438 135.5 182.8125 135.9375 C 186.230469 137.453125 187.304688 138.429688 189.355469 141.554688 C 189.746094 143.117188 190.039062 144.679688 190.332031 146.242188 C 190.820312 145.410156 191.359375 144.53125 191.894531 143.652344 C 194.773438 139.648438 197.949219 136.960938 202.492188 135.007812 C 208.886719 134.082031 213.183594 135.109375 218.457031 138.769531 C 219.140625 138.132812 219.140625 138.132812 219.921875 137.453125 C 224.65625 134.277344 229.6875 133.640625 235.304688 134.082031 C 237.207031 134.667969 239.0625 135.304688 240.917969 135.9375 C 243.359375 136.230469 245.75 136.425781 248.195312 136.570312 C 250.292969 136.867188 250.292969 136.867188 253.125 138.769531 C 255.90625 136.914062 257.179688 135.984375 258.742188 133.105469 C 258.984375 129.882812 258.984375 126.90625 258.691406 123.679688 C 258.398438 118.75 259.375 116.308594 262.5 112.5 C 266.601562 108.886719 271.386719 108.9375 276.5625 109.667969 Z M 30.957031 146.242188 C 25.195312 153.710938 20.898438 161.816406 21.242188 171.4375 C 21.921875 175.683594 24.023438 178.808594 27.195312 181.738281 C 31.492188 184.179688 36.425781 184.328125 41.257812 183.742188 C 43.75 182.859375 46.09375 181.835938 48.484375 180.617188 C 50.632812 179.980469 50.632812 179.980469 52.585938 180.8125 C 53.171875 181.152344 53.757812 181.492188 54.394531 181.882812 C 57.664062 182.421875 57.664062 182.421875 60.9375 181.882812 C 64.601562 178.664062 66.453125 173.925781 68.703125 169.679688 C 71.386719 165.039062 74.5625 160.789062 77.832031 156.542969 C 78.46875 155.664062 78.46875 155.664062 79.148438 154.6875 C 81.007812 152.246094 82.179688 151.023438 85.15625 150.097656 C 85.789062 150.097656 86.476562 150.046875 87.207031 150 C 86.71875 152.976562 86.035156 155.175781 84.71875 157.910156 C 83.351562 161.523438 83.203125 163.234375 84.375 166.894531 C 87.84375 169.1875 90.671875 169.238281 94.679688 168.75 C 97.507812 167.578125 98.925781 166.894531 100.242188 164.109375 C 100.488281 162.15625 100.488281 162.15625 99.265625 160.546875 C 98.242188 157.910156 98.730469 157.324219 99.804688 154.785156 C 101.269531 151.269531 101.515625 149.070312 100.292969 145.3125 C 98.679688 142.675781 97.460938 142.480469 94.433594 141.699219 C 86.179688 141.40625 81.007812 146.828125 75 151.855469 C 75.34375 150.878906 75.683594 149.851562 76.074219 148.828125 C 77.101562 145.507812 77.101562 145.507812 76.367188 143.066406 C 75.046875 141.40625 75.046875 141.40625 72.898438 140.625 C 69.1875 140.625 67.578125 142.089844 64.695312 144.382812 C 62.792969 147.167969 62.792969 147.167969 61.328125 150.390625 C 61.085938 150.976562 60.789062 151.5625 60.5 152.148438 C 58.640625 156.054688 57.226562 160.007812 55.859375 164.109375 C 54.054688 168.992188 52.34375 171.335938 47.703125 173.679688 C 44.628906 174.902344 42.140625 175.488281 38.867188 175.539062 C 38.132812 175.585938 37.351562 175.585938 36.621094 175.632812 C 35.984375 175.539062 35.351562 175.4375 34.667969 175.292969 C 32.128906 171.484375 32.03125 168.457031 32.8125 164.0625 C 35.59375 156.933594 38.867188 150.097656 45.019531 145.3125 C 47.023438 144.726562 47.023438 144.726562 48.730469 144.382812 C 48.339844 145.164062 48.339844 145.164062 47.949219 145.945312 C 45.460938 151.023438 44.335938 154.6875 45.019531 160.304688 C 45.996094 162.351562 45.996094 162.351562 47.804688 163.132812 C 49.707031 163.132812 49.707031 163.132812 51.5625 162.207031 C 54.394531 157.570312 56.152344 152.636719 56.445312 147.265625 C 54.929688 143.359375 53.171875 141.894531 49.707031 139.695312 C 42.089844 137.304688 36.523438 141.308594 30.957031 146.242188 Z M 111.425781 147.070312 C 105.8125 153.515625 103.757812 160.890625 103.859375 169.238281 C 104.148438 172.507812 104.980469 174.511719 106.882812 177.195312 C 112.988281 181.882812 118.117188 182.570312 125.632812 181.882812 C 132.179688 180.226562 136.132812 177.441406 140.625 172.507812 C 141.554688 172.167969 142.480469 171.875 143.457031 171.582031 C 143.703125 172.414062 143.945312 173.289062 144.1875 174.21875 C 145.605469 178.027344 146.777344 179.25 150.292969 181.152344 C 153.613281 182.078125 155.125 182.128906 158.445312 180.957031 C 160.304688 179.148438 161.867188 177.296875 163.476562 175.34375 C 164.84375 173.632812 166.257812 172.117188 167.820312 170.605469 C 167.871094 171.484375 167.96875 172.3125 168.066406 173.195312 C 168.847656 176.710938 169.679688 177.832031 172.507812 179.980469 C 176.269531 182.03125 179.492188 182.324219 183.742188 181.882812 C 194.726562 177.390625 200.632812 166.164062 206.203125 156.347656 C 208.054688 153.222656 210.007812 150.195312 211.960938 147.167969 C 213.132812 145.164062 213.132812 145.164062 211.867188 142.480469 C 209.179688 141.164062 207.375 141.257812 204.394531 141.554688 C 199.171875 144.289062 197.3125 147.265625 195.019531 152.390625 C 194.382812 153.757812 193.703125 155.078125 193.066406 156.445312 C 192.625 157.421875 192.625 157.421875 192.140625 158.445312 C 190.867188 161.085938 189.550781 163.671875 188.132812 166.210938 C 187.742188 167.039062 187.304688 167.820312 186.867188 168.601562 C 185.644531 170.605469 184.667969 172.023438 182.8125 173.4375 C 181.59375 173.4375 180.320312 173.4375 179.054688 173.4375 C 178.5625 166.210938 179.6875 160.546875 181.984375 153.710938 C 183.007812 150.34375 183.300781 147.851562 182.8125 144.382812 C 181.882812 143.457031 181.882812 143.457031 180.957031 142.480469 C 177.6875 142.429688 177.6875 142.429688 174.367188 143.457031 C 171.53125 146.484375 169.679688 149.707031 167.871094 153.417969 C 167.382812 154.394531 166.894531 155.371094 166.40625 156.398438 C 165.867188 157.421875 165.382812 158.445312 164.890625 159.472656 C 163.867188 161.523438 162.890625 163.574219 161.867188 165.578125 C 161.425781 166.503906 161.035156 167.382812 160.546875 168.3125 C 158.007812 173.242188 158.007812 173.242188 154.6875 174.367188 C 154.101562 166.945312 155.320312 160.304688 157.179688 153.171875 C 158.25 148.976562 158.59375 145.851562 157.519531 141.554688 C 154.980469 140.671875 154.980469 140.671875 151.855469 140.625 C 147.609375 143.210938 145.605469 145.65625 143.992188 150.488281 C 143.066406 154.445312 142.625 158.398438 142.234375 162.402344 C 141.554688 164.992188 141.554688 164.992188 139.84375 166.164062 C 139.160156 166.40625 138.523438 166.601562 137.792969 166.894531 C 136.621094 167.675781 135.449219 168.507812 134.277344 169.335938 C 130.226562 171.921875 127.585938 172.023438 122.804688 171.582031 C 122.070312 171.484375 121.335938 171.4375 120.605469 171.386719 C 119.042969 170.605469 119.042969 170.605469 117.871094 168.210938 C 117.675781 167.480469 117.429688 166.699219 117.1875 165.917969 C 118.554688 166.015625 118.554688 166.015625 119.921875 166.113281 C 124.851562 166.0625 129.980469 165.085938 133.742188 161.765625 C 137.0625 157.8125 138.132812 155.226562 137.988281 150.046875 C 137.695312 147.070312 137.011719 145.605469 135.007812 143.457031 C 126.21875 138.820312 118.507812 140.476562 111.425781 147.070312 Z M 111.425781 147.070312 "/>
<path style=" stroke:none;fill-rule:nonzero;fill:rgb(14.901961%,14.901961%,14.901961%);fill-opacity:1;" d="M 276.5625 109.667969 C 280.710938 111.71875 283.25 113.820312 285.007812 118.117188 C 285.5 123.4375 285.15625 126.660156 282.179688 131.25 C 281.398438 131.933594 280.617188 132.664062 279.785156 133.351562 C 277 136.476562 276.855469 138.132812 276.5625 142.285156 C 275.976562 148.4375 274.5625 154.003906 272.65625 159.914062 C 270.800781 165.820312 270.214844 171.582031 269.875 177.734375 C 268.652344 182.617188 265.578125 184.328125 261.476562 186.867188 C 259.375 187.597656 257.664062 187.695312 255.421875 187.695312 C 254.6875 187.648438 253.953125 187.648438 253.222656 187.648438 C 251.269531 187.5 251.269531 187.5 248.4375 186.570312 C 247.804688 186.867188 247.167969 187.15625 246.484375 187.453125 C 242.480469 188.914062 238.625 189.015625 234.375 188.429688 C 232.46875 187.257812 230.566406 185.984375 228.757812 184.667969 C 226.269531 184.765625 226.269531 184.765625 224.070312 185.644531 C 219.382812 187.15625 215.332031 187.109375 210.742188 185.5 C 206.789062 182.859375 204.054688 179.929688 202.492188 175.292969 C 201.757812 176.269531 200.976562 177.246094 200.195312 178.222656 C 196.046875 183.15625 190.234375 187.9375 183.640625 188.671875 C 178.027344 188.820312 173.976562 187.84375 168.847656 185.5 C 166.796875 184.523438 166.796875 184.523438 164.0625 184.667969 C 163.085938 185.59375 163.085938 185.59375 162.0625 186.570312 C 158.300781 189.160156 155.371094 189.160156 150.929688 188.429688 C 146.828125 187.0625 143.261719 185.203125 139.695312 182.8125 C 139.109375 183.15625 138.574219 183.445312 137.988281 183.789062 C 137.257812 184.226562 136.523438 184.667969 135.742188 185.109375 C 135.007812 185.5 134.328125 185.9375 133.546875 186.375 C 126.757812 189.695312 116.503906 189.84375 109.375 187.453125 C 106.882812 185.644531 106.882812 185.644531 106.007812 182.273438 C 105.957031 180.566406 105.957031 178.90625 105.957031 177.195312 C 110.644531 179.054688 110.644531 179.054688 112.84375 180.03125 C 119.578125 182.46875 126.515625 181.203125 132.910156 178.417969 C 136.035156 176.5625 138.183594 174.21875 140.625 171.582031 C 141.554688 171.582031 142.480469 171.582031 143.457031 171.582031 C 146.242188 176.953125 146.242188 176.953125 146.242188 179.054688 C 150.734375 180.617188 153.859375 181.347656 158.445312 179.980469 C 160.644531 177.882812 160.644531 177.882812 162.402344 175.242188 C 163.574219 173.679688 164.746094 172.117188 165.917969 170.605469 C 166.554688 170.605469 167.1875 170.605469 167.820312 170.605469 C 167.921875 171.191406 168.066406 171.777344 168.210938 172.414062 C 168.847656 174.804688 169.484375 176.855469 170.605469 179.054688 C 174.902344 181.101562 179.054688 181.445312 183.742188 180.957031 C 192.773438 177.148438 198.046875 168.847656 202.832031 160.695312 C 204.394531 158.398438 205.859375 157.128906 208.105469 155.617188 C 209.03125 158.398438 209.03125 158.398438 210.007812 161.230469 C 210.351562 160.546875 210.742188 159.863281 211.132812 159.179688 C 211.621094 158.25 212.109375 157.324219 212.648438 156.398438 C 213.132812 155.46875 213.625 154.589844 214.109375 153.664062 C 217.285156 147.949219 219.875 143.507812 225.929688 140.625 C 230.664062 139.890625 235.304688 139.40625 239.40625 142.039062 C 240.136719 142.726562 240.136719 142.726562 240.917969 143.457031 C 241.554688 143.117188 242.1875 142.820312 242.820312 142.480469 C 245.703125 142.382812 245.703125 142.382812 248.4375 142.480469 C 249.367188 143.457031 249.367188 143.457031 249.65625 145.996094 C 249.609375 150.632812 247.949219 154.734375 246.53125 159.082031 C 245.3125 163.234375 244.875 167.285156 244.679688 171.582031 C 247.851562 168.75 249.171875 166.503906 250.390625 162.5 C 250.683594 161.476562 250.976562 160.5 251.320312 159.472656 C 251.609375 158.496094 251.90625 157.570312 252.195312 156.542969 C 254.640625 148.730469 254.640625 148.730469 256.542969 145.359375 C 258.835938 140.234375 258.789062 134.960938 258.691406 129.394531 C 258.640625 128.710938 258.640625 128.078125 258.640625 127.390625 C 258.59375 126.074219 258.546875 124.757812 258.445312 123.484375 C 258.351562 118.703125 259.523438 116.164062 262.5 112.5 C 266.601562 108.886719 271.386719 108.9375 276.5625 109.667969 Z M 276.5625 109.667969 "/>
<path style=" stroke:none;fill-rule:nonzero;fill:rgb(97.254902%,35.294119%,31.37255%);fill-opacity:1;" d="M 269.042969 137.792969 C 269.96875 138.28125 269.96875 138.28125 270.945312 138.769531 C 270.410156 146.289062 268.40625 153.125 266.257812 160.304688 C 264.992188 164.648438 264.304688 168.703125 264.160156 173.195312 C 263.769531 177.78125 263.769531 177.78125 260.839844 180.664062 C 257.960938 181.835938 256.203125 182.226562 253.125 181.882812 C 252.492188 180.617188 251.90625 179.394531 251.269531 178.125 C 250.195312 178.757812 249.171875 179.34375 248.09375 179.980469 C 243.601562 182.226562 239.304688 182.910156 234.375 181.882812 C 232.03125 179.6875 232.03125 179.6875 230.617188 177.195312 C 230.03125 176.269531 229.394531 175.34375 228.757812 174.367188 C 228.367188 174.757812 227.976562 175.148438 227.539062 175.585938 C 223.730469 179.148438 221.09375 180.957031 215.625 180.957031 C 211.960938 179.980469 211.179688 179.445312 209.082031 176.269531 C 207.765625 166.75 209.71875 159.960938 214.695312 151.855469 C 215.28125 150.828125 215.867188 149.804688 216.453125 148.730469 C 219.921875 144.382812 223.144531 141.0625 228.808594 140.1875 C 233.835938 140.039062 237.0625 139.992188 240.917969 143.457031 C 241.554688 143.117188 242.1875 142.820312 242.820312 142.480469 C 245.703125 142.382812 245.703125 142.382812 248.4375 142.480469 C 249.367188 143.457031 249.367188 143.457031 249.65625 145.996094 C 249.609375 150.632812 247.949219 154.734375 246.53125 159.082031 C 245.3125 163.234375 244.875 167.285156 244.679688 171.582031 C 247.851562 168.75 249.171875 166.503906 250.390625 162.5 C 250.683594 161.476562 250.976562 160.5 251.320312 159.472656 C 251.855469 157.714844 252.34375 155.957031 252.882812 154.199219 C 255.566406 145.507812 258.984375 137.0625 269.042969 137.792969 Z M 269.042969 137.792969 "/>
<path style=" stroke:none;fill-rule:nonzero;fill:rgb(96.470588%,35.294119%,31.764707%);fill-opacity:1;" d="M 237.207031 140.625 C 239.40625 142.039062 239.40625 142.039062 240.917969 143.457031 C 241.554688 143.117188 242.1875 142.820312 242.820312 142.480469 C 245.703125 142.382812 245.703125 142.382812 248.4375 142.480469 C 249.367188 143.457031 249.367188 143.457031 249.414062 146.777344 C 249.414062 147.851562 249.414062 148.925781 249.367188 150 C 249.070312 150 248.78125 150 248.4375 150 C 247.804688 148.144531 247.21875 146.289062 246.582031 144.382812 C 245.019531 144.679688 243.457031 144.96875 241.894531 145.3125 C 241.894531 145.945312 241.894531 146.53125 241.894531 147.167969 C 241.015625 147.3125 241.015625 147.3125 240.085938 147.414062 C 237.988281 147.949219 237.988281 147.949219 237.207031 149.902344 C 237.011719 150.632812 236.816406 151.367188 236.621094 152.101562 C 236.375 152.882812 236.179688 153.613281 235.9375 154.394531 C 235.742188 155.125 235.546875 155.8125 235.304688 156.542969 C 234.71875 158.15625 234.082031 159.71875 233.445312 161.230469 C 232.8125 161.230469 232.179688 161.230469 231.542969 161.230469 C 231.542969 162.15625 231.542969 163.085938 231.542969 164.0625 C 230.03125 165.039062 228.46875 165.96875 226.855469 166.894531 C 226.5625 167.480469 226.269531 168.117188 225.929688 168.75 C 226.5625 169.679688 227.195312 170.605469 227.832031 171.582031 C 227.882812 174.21875 227.441406 175.632812 225.585938 177.636719 C 222.609375 180.078125 220.3125 181.296875 216.40625 181.007812 C 212.546875 179.929688 211.425781 179.34375 209.082031 176.269531 C 207.226562 166.945312 209.863281 159.71875 214.695312 151.855469 C 215.28125 150.828125 215.867188 149.804688 216.453125 148.730469 C 222.21875 141.554688 227.882812 138.914062 237.207031 140.625 Z M 237.207031 140.625 "/>
<path style=" stroke:none;fill-rule:nonzero;fill:rgb(22.352941%,15.294118%,14.509805%);fill-opacity:1;" d="M 276.5625 109.667969 C 280.710938 111.71875 283.25 113.820312 285.007812 118.117188 C 285.59375 124.414062 284.667969 128.171875 280.617188 133.203125 C 278.171875 136.132812 276.023438 138.476562 272.804688 140.625 C 272.558594 143.507812 272.558594 143.507812 272.804688 146.242188 C 272.21875 146.242188 271.582031 146.242188 270.945312 146.242188 C 270.3125 148.09375 269.679688 149.953125 269.042969 151.855469 C 267.675781 149.070312 268.703125 147.21875 269.484375 144.238281 C 269.875 142.726562 269.875 142.726562 270.3125 141.164062 C 270.507812 140.332031 270.703125 139.550781 270.945312 138.769531 C 269.628906 138.671875 268.261719 138.625 266.945312 138.574219 C 266.210938 138.523438 265.476562 138.523438 264.695312 138.476562 C 262.011719 138.820312 260.839844 139.890625 258.742188 141.554688 C 258.640625 137.792969 258.59375 133.984375 258.496094 130.175781 C 258.496094 129.101562 258.445312 128.078125 258.398438 126.953125 C 258.351562 120.898438 258.351562 117.039062 262.5 112.5 C 266.601562 108.886719 271.386719 108.9375 276.5625 109.667969 Z M 276.5625 109.667969 "/>
<path style=" stroke:none;fill-rule:nonzero;fill:rgb(14.117648%,14.117648%,13.725491%);fill-opacity:1;" d="M 276.5625 109.667969 C 280.710938 111.71875 283.25 113.820312 285.007812 118.117188 C 285.203125 120.65625 285.109375 123.046875 285.007812 125.632812 C 283.445312 125.929688 281.882812 126.21875 280.320312 126.5625 C 280.320312 123.78125 280.320312 120.996094 280.320312 118.117188 C 279.6875 117.820312 279.054688 117.53125 278.417969 117.1875 C 278.417969 116.554688 278.417969 115.96875 278.417969 115.332031 C 276.757812 115.28125 275.097656 115.234375 273.4375 115.1875 C 272.507812 115.1875 271.632812 115.136719 270.65625 115.136719 C 267.921875 115.136719 267.921875 115.136719 265.332031 117.1875 C 264.941406 119.484375 264.941406 119.484375 265.085938 122.070312 C 265.085938 122.949219 265.136719 123.875 265.136719 124.851562 C 265.332031 127.976562 265.722656 130.957031 266.257812 134.082031 C 262.5 134.082031 262.5 134.082031 260.644531 133.105469 C 257.664062 128.613281 258.203125 123.289062 258.742188 118.117188 C 262.5 110.203125 268.3125 108.496094 276.5625 109.667969 Z M 276.5625 109.667969 "/>
<path style=" stroke:none;fill-rule:nonzero;fill:rgb(92.941177%,35.294119%,32.156864%);fill-opacity:1;" d="M 272.414062 115.234375 C 275.878906 116.308594 277.390625 116.945312 279.394531 120.019531 C 279.734375 125.046875 276.855469 128.027344 273.730469 131.6875 C 271.386719 133.496094 270.070312 133.398438 267.1875 133.105469 C 264.355469 128.417969 263.671875 125.34375 264.355469 120.019531 C 266.84375 116.308594 267.921875 115.332031 272.414062 115.234375 Z M 272.414062 115.234375 "/>
<path style=" stroke:none;fill-rule:nonzero;fill:rgb(27.450982%,13.333334%,12.156863%);fill-opacity:1;" d="M 235.304688 148.144531 C 235.007812 155.8125 231.882812 161.425781 226.855469 167.140625 C 225 168.75 225 168.75 222.167969 168.75 C 221.875 164.210938 222.703125 161.425781 224.757812 157.375 C 225.242188 156.445312 225.734375 155.46875 226.21875 154.492188 C 230.078125 148.144531 230.078125 148.144531 235.304688 148.144531 Z M 235.304688 148.144531 "/>
<path style=" stroke:none;fill-rule:nonzero;fill:rgb(14.509805%,13.333334%,13.725491%);fill-opacity:1;" d="M 228.757812 173.4375 C 231.59375 174.851562 232.128906 177.246094 233.445312 179.980469 C 234.960938 181.542969 236.71875 181.152344 238.820312 181.152344 C 242.871094 181.152344 245.117188 180.515625 248.4375 178.125 C 249.367188 178.125 250.292969 178.125 251.269531 178.125 C 252.195312 179.539062 252.195312 179.539062 253.125 180.957031 C 256.933594 180.515625 260.109375 180.125 263.429688 178.125 C 262.84375 179.6875 262.207031 181.203125 261.570312 182.8125 C 257.375 183.300781 257.375 183.300781 253.125 183.742188 C 253.417969 184.375 253.757812 185.007812 254.054688 185.644531 C 256.445312 186.230469 256.445312 186.230469 258.742188 186.570312 C 258.742188 186.867188 258.742188 187.15625 258.742188 187.5 C 257.570312 187.5 256.398438 187.546875 255.175781 187.546875 C 254.492188 187.546875 253.859375 187.597656 253.171875 187.597656 C 251.269531 187.5 251.269531 187.5 248.4375 186.570312 C 247.507812 186.867188 246.582031 187.15625 245.605469 187.5 C 244.679688 186.867188 243.75 186.28125 242.820312 185.644531 C 242.820312 185.304688 242.820312 185.007812 242.820312 184.667969 C 242.089844 184.617188 241.40625 184.523438 240.671875 184.421875 C 237.84375 184.03125 235.203125 183.59375 232.519531 182.8125 C 230.761719 180.371094 230.761719 180.371094 229.6875 178.125 C 227.246094 177.734375 227.246094 177.734375 225 178.125 C 226.21875 176.5625 227.492188 175.046875 228.757812 173.4375 Z M 228.757812 173.4375 "/>
<path style=" stroke:none;fill-rule:nonzero;fill:rgb(29.803923%,14.901961%,14.117648%);fill-opacity:1;" d="M 250.292969 139.695312 C 250.929688 140.625 251.5625 141.554688 252.195312 142.480469 C 251.855469 142.820312 251.5625 143.117188 251.269531 143.457031 C 251.023438 145.164062 250.878906 146.921875 250.734375 148.632812 C 250.632812 149.609375 250.585938 150.539062 250.488281 151.515625 C 250.4375 152.246094 250.390625 152.976562 250.292969 153.757812 C 250.929688 153.757812 251.5625 153.757812 252.195312 153.757812 C 252.492188 152.492188 252.78125 151.269531 253.125 150 C 255.078125 153.859375 252.441406 159.179688 251.269531 163.132812 C 250.195312 165.867188 249.023438 168.066406 247.507812 170.605469 C 246.09375 171.09375 246.09375 171.09375 244.679688 171.582031 C 244.140625 164.695312 245.410156 159.328125 247.609375 152.832031 C 248.585938 149.460938 248.78125 146.875 248.4375 143.457031 C 245.3125 143.359375 243.015625 143.359375 239.992188 144.382812 C 239.40625 143.457031 238.769531 142.53125 238.132812 141.554688 C 238.914062 141.503906 239.746094 141.453125 240.578125 141.40625 C 242.089844 141.257812 242.089844 141.257812 243.703125 141.164062 C 244.726562 141.0625 245.75 141.015625 246.828125 140.917969 C 249.265625 140.917969 249.265625 140.917969 250.292969 139.695312 Z M 250.292969 139.695312 "/>
<path style=" stroke:none;fill-rule:nonzero;fill:rgb(88.627452%,35.294119%,33.333334%);fill-opacity:1;" d="M 225.929688 140.625 C 227.734375 140.527344 229.539062 140.476562 231.347656 140.429688 C 232.8125 140.382812 232.8125 140.382812 234.375 140.332031 C 237.453125 140.671875 238.671875 141.359375 240.917969 143.457031 C 241.554688 143.117188 242.1875 142.820312 242.820312 142.480469 C 245.703125 142.382812 245.703125 142.382812 248.4375 142.480469 C 249.367188 143.457031 249.367188 143.457031 249.414062 146.777344 C 249.414062 147.851562 249.414062 148.925781 249.367188 150 C 249.070312 150 248.78125 150 248.4375 150 C 247.804688 148.144531 247.21875 146.289062 246.582031 144.382812 C 245.019531 144.679688 243.457031 144.96875 241.894531 145.3125 C 241.894531 145.945312 241.894531 146.53125 241.894531 147.167969 C 241.015625 147.3125 241.015625 147.3125 240.085938 147.414062 C 237.988281 147.949219 237.988281 147.949219 237.207031 149.902344 C 237.011719 150.632812 236.816406 151.367188 236.621094 152.101562 C 236.375 152.882812 236.179688 153.613281 235.9375 154.394531 C 235.742188 155.125 235.546875 155.8125 235.304688 156.542969 C 234.71875 158.15625 234.082031 159.71875 233.445312 161.230469 C 232.8125 161.230469 232.179688 161.230469 231.542969 161.230469 C 231.542969 162.15625 231.542969 163.085938 231.542969 164.0625 C 230.957031 164.0625 230.320312 164.0625 229.6875 164.0625 C 230.761719 161.375 231.835938 158.742188 233.007812 156.101562 C 234.132812 153.367188 234.863281 151.023438 235.304688 148.144531 C 231.152344 149.414062 229.394531 151.171875 226.855469 154.6875 C 226.320312 155.421875 225.78125 156.101562 225.242188 156.835938 C 224.851562 157.375 224.460938 157.910156 224.070312 158.445312 C 224.070312 156.882812 224.070312 155.320312 224.070312 153.757812 C 224.65625 153.757812 225.292969 153.757812 225.929688 153.757812 C 226.074219 153.171875 226.171875 152.636719 226.269531 152.050781 C 226.855469 150 226.855469 150 228.757812 147.167969 C 231.203125 147.023438 231.203125 147.023438 233.445312 147.167969 C 233.59375 146.632812 233.691406 146.046875 233.835938 145.410156 C 234.375 143.457031 234.375 143.457031 235.304688 141.554688 C 232.226562 141.554688 229.101562 141.554688 225.929688 141.554688 C 225.929688 141.257812 225.929688 140.96875 225.929688 140.625 Z M 225.929688 140.625 "/>
<path style=" stroke:none;fill-rule:nonzero;fill:rgb(14.509805%,14.509805%,14.509805%);fill-opacity:1;" d="M 128.417969 149.070312 C 129.199219 151.515625 129.199219 151.515625 129.394531 154.6875 C 127.78125 157.46875 125.734375 159.765625 122.804688 161.230469 C 120.945312 161.28125 119.042969 161.28125 117.1875 161.230469 C 120.851562 148.242188 120.851562 148.242188 128.417969 149.070312 Z M 128.417969 149.070312 "/>
<path style=" stroke:none;fill-rule:nonzero;fill:rgb(21.568628%,16.862746%,16.862746%);fill-opacity:1;" d="M 265.332031 129.394531 C 265.917969 130.320312 266.554688 131.25 267.1875 132.179688 C 269.578125 132.859375 269.578125 132.859375 271.875 133.105469 C 271.875 133.742188 271.875 134.375 271.875 135.007812 C 271.242188 135.007812 270.65625 135.007812 270.019531 135.007812 C 270.3125 135.9375 270.605469 136.867188 270.945312 137.792969 C 269.042969 138.769531 269.042969 138.769531 265.917969 138.625 C 262.351562 138.769531 261.28125 139.160156 258.742188 141.554688 C 258.742188 138.769531 258.742188 135.984375 258.742188 133.105469 C 260.304688 132.8125 261.867188 132.519531 263.429688 132.179688 C 263.769531 132.8125 264.0625 133.445312 264.355469 134.082031 C 264.695312 132.519531 264.992188 130.957031 265.332031 129.394531 Z M 265.332031 129.394531 "/>
<path style=" stroke:none;fill-rule:nonzero;fill:rgb(27.058825%,12.941177%,11.372549%);fill-opacity:1;" d="M 273.976562 114.210938 C 275.488281 114.257812 275.488281 114.257812 277.050781 114.257812 C 277.832031 114.304688 278.5625 114.355469 279.394531 114.355469 C 279.054688 115.28125 278.757812 116.210938 278.417969 117.1875 C 279.34375 117.480469 280.273438 117.820312 281.25 118.117188 C 280.957031 120.898438 280.617188 123.679688 280.320312 126.5625 C 281.542969 126.5625 282.765625 126.5625 284.082031 126.5625 C 283.445312 127.78125 282.8125 129.054688 282.179688 130.320312 C 280.320312 129.6875 278.46875 129.054688 276.5625 128.417969 C 276.90625 127.78125 277.195312 127.101562 277.539062 126.464844 C 278.613281 123.195312 278.515625 121.386719 277.492188 118.117188 C 274.851562 116.015625 272.363281 116.015625 269.042969 116.257812 C 268.117188 116.554688 267.1875 116.84375 266.257812 117.1875 C 265.917969 118.117188 265.625 119.042969 265.332031 120.019531 C 264.992188 119.09375 264.695312 118.164062 264.355469 117.1875 C 267.53125 114.257812 269.726562 114.0625 273.976562 114.210938 Z M 273.976562 114.210938 "/>
<path style=" stroke:none;fill-rule:nonzero;fill:rgb(84.313726%,35.686275%,32.941177%);fill-opacity:1;" d="M 266.015625 137.351562 C 269.042969 137.792969 269.042969 137.792969 270.945312 138.769531 C 270.605469 141.554688 270.3125 144.335938 270.019531 147.167969 C 269.679688 147.167969 269.382812 147.167969 269.042969 147.167969 C 269.042969 144.726562 269.042969 142.234375 269.042969 139.695312 C 267.1875 139.695312 265.332031 139.695312 263.429688 139.695312 C 263.132812 140.578125 262.84375 141.453125 262.546875 142.382812 C 261.570312 145.3125 261.570312 145.3125 260.644531 147.167969 C 259.71875 146.875 258.789062 146.582031 257.8125 146.242188 C 257.8125 147.507812 257.8125 148.730469 257.8125 150 C 256.882812 150 255.957031 150 254.980469 150 C 256.492188 143.847656 259.375 138.234375 266.015625 137.351562 Z M 266.015625 137.351562 "/>
<path style=" stroke:none;fill-rule:nonzero;fill:rgb(17.254902%,17.254902%,17.254902%);fill-opacity:1;" d="M 187.5 138.769531 C 188.769531 140.820312 188.769531 140.820312 189.355469 142.480469 C 186.960938 143.652344 185.253906 144.433594 182.570312 144.1875 C 182.03125 143.945312 181.492188 143.703125 180.957031 143.457031 C 180.617188 142.53125 180.320312 141.601562 179.980469 140.625 C 179.394531 139.992188 178.757812 139.40625 178.125 138.769531 C 178.125 138.132812 178.125 137.5 178.125 136.867188 C 181.933594 135.253906 184.132812 136.621094 187.5 138.769531 Z M 187.5 138.769531 "/>
<path style=" stroke:none;fill-rule:nonzero;fill:rgb(28.627452%,13.725491%,11.764706%);fill-opacity:1;" d="M 207.179688 164.992188 C 207.8125 164.992188 208.445312 164.992188 209.082031 164.992188 C 209.132812 165.773438 209.179688 166.554688 209.226562 167.382812 C 209.328125 168.359375 209.375 169.382812 209.472656 170.460938 C 209.570312 171.972656 209.570312 171.972656 209.71875 173.535156 C 209.914062 176.320312 209.914062 176.320312 210.9375 179.054688 C 218.164062 180.273438 218.164062 180.273438 225 178.125 C 224.707031 179.054688 224.367188 179.980469 224.070312 180.957031 C 222.460938 181.640625 222.460938 181.640625 220.507812 182.128906 C 219.824219 182.273438 219.1875 182.421875 218.554688 182.570312 C 214.890625 183.007812 213.039062 182.03125 210.007812 179.980469 C 210.007812 179.394531 210.007812 178.757812 210.007812 178.125 C 209.082031 177.832031 208.15625 177.492188 207.179688 177.195312 C 207.179688 173.144531 207.179688 169.140625 207.179688 164.992188 Z M 207.179688 164.992188 "/>
<path style=" stroke:none;fill-rule:nonzero;fill:rgb(25.490198%,12.156863%,10.980392%);fill-opacity:1;" d="M 248.4375 157.519531 C 249.070312 157.8125 249.65625 158.105469 250.292969 158.445312 C 250.585938 163.328125 250.195312 166.453125 247.507812 170.605469 C 246.582031 170.945312 245.65625 171.242188 244.679688 171.582031 C 244.238281 165.527344 245.070312 162.546875 248.4375 157.519531 Z M 248.4375 157.519531 "/>
<path style=" stroke:none;fill-rule:nonzero;fill:rgb(34.901962%,15.686275%,12.941177%);fill-opacity:1;" d="M 228.757812 173.4375 C 231.59375 174.851562 232.128906 177.246094 233.445312 179.980469 C 234.375 181.152344 234.375 181.152344 236.375 181.054688 C 237.207031 181.054688 238.039062 181.054688 238.867188 181.054688 C 239.695312 181.054688 240.527344 181.054688 241.359375 181.054688 C 243.554688 180.957031 245.410156 180.617188 247.507812 179.980469 C 247.507812 180.617188 247.507812 181.25 247.507812 181.882812 C 243.457031 183.886719 239.746094 184.328125 235.304688 183.742188 C 232.570312 182.519531 232.570312 182.519531 230.617188 180.957031 C 230.320312 180.03125 230.03125 179.101562 229.6875 178.125 C 228.125 178.125 226.609375 178.125 225 178.125 C 226.21875 176.5625 227.492188 175.046875 228.757812 173.4375 Z M 228.757812 173.4375 "/>
<path style=" stroke:none;fill-rule:nonzero;fill:rgb(33.333334%,15.686275%,13.725491%);fill-opacity:1;" d="M 235.304688 148.144531 C 234.617188 156.152344 234.617188 156.152344 231.542969 159.375 C 231.445312 153.027344 231.445312 153.027344 232.519531 150.929688 C 231.882812 150.929688 231.25 150.929688 230.617188 150.929688 C 230.320312 152.492188 230.03125 154.054688 229.6875 155.617188 C 228.46875 155.957031 227.195312 156.25 225.929688 156.542969 C 227.6875 151.269531 229.445312 148.144531 235.304688 148.144531 Z M 235.304688 148.144531 "/>
<path style=" stroke:none;fill-rule:nonzero;fill:rgb(27.450982%,14.117648%,13.333334%);fill-opacity:1;" d="M 220.3125 139.695312 C 226.171875 139.695312 232.078125 139.695312 238.132812 139.695312 C 237.792969 140.28125 237.5 140.917969 237.207031 141.554688 C 236.425781 141.554688 235.695312 141.503906 234.914062 141.503906 C 233.886719 141.503906 232.910156 141.453125 231.835938 141.453125 C 230.859375 141.40625 229.882812 141.40625 228.859375 141.359375 C 225.878906 141.554688 223.875 141.992188 221.242188 143.457031 C 220.945312 144.382812 220.65625 145.3125 220.3125 146.242188 C 219.679688 146.242188 219.09375 146.242188 218.457031 146.242188 C 217.820312 147.804688 217.1875 149.367188 216.554688 150.929688 C 216.257812 149.707031 215.96875 148.484375 215.625 147.167969 C 216.257812 147.167969 216.84375 147.167969 217.480469 147.167969 C 217.1875 146.242188 216.894531 145.3125 216.554688 144.382812 C 217.480469 144.382812 218.40625 144.382812 219.382812 144.382812 C 219.679688 142.820312 219.96875 141.257812 220.3125 139.695312 Z M 220.3125 139.695312 "/>
<path style=" stroke:none;fill-rule:nonzero;fill:rgb(18.431373%,18.431373%,18.431373%);fill-opacity:1;" d="M 90.917969 134.765625 C 92.820312 134.765625 94.679688 134.863281 96.582031 135.007812 C 96.242188 136.230469 95.945312 137.453125 95.605469 138.769531 C 94.09375 139.0625 92.53125 139.355469 90.917969 139.695312 C 90.917969 140.625 90.917969 141.554688 90.917969 142.480469 C 87.304688 140.867188 87.304688 140.867188 86.230469 138.769531 C 87.453125 136.375 88.234375 135.109375 90.917969 134.765625 Z M 90.917969 134.765625 "/>
<path style=" stroke:none;fill-rule:nonzero;fill:rgb(13.725491%,13.725491%,13.725491%);fill-opacity:1;" d="M 96.582031 135.9375 C 98.09375 136.230469 99.65625 136.570312 101.269531 136.867188 C 101.269531 139.695312 101.269531 139.695312 100.292969 141.308594 C 97.21875 143.261719 94.433594 142.1875 90.917969 141.554688 C 90.917969 140.96875 90.917969 140.332031 90.917969 139.695312 C 92.480469 139.355469 94.042969 139.0625 95.605469 138.769531 C 95.945312 137.84375 96.242188 136.914062 96.582031 135.9375 Z M 96.582031 135.9375 "/>
<path style=" stroke:none;fill-rule:nonzero;fill:rgb(20.784314%,12.54902%,12.156863%);fill-opacity:1;" d="M 264.355469 166.894531 C 264.695312 166.894531 264.992188 166.894531 265.332031 166.894531 C 265.332031 168.75 265.332031 170.605469 265.332031 172.507812 C 265.625 171.875 265.917969 171.242188 266.257812 170.605469 C 267.1875 170.605469 268.117188 170.605469 269.042969 170.605469 C 269.042969 173.730469 269.042969 176.804688 269.042969 179.980469 C 268.117188 178.757812 267.1875 177.539062 266.257812 176.269531 C 265.917969 176.855469 265.625 177.492188 265.332031 178.125 C 264.695312 178.125 264.0625 178.125 263.429688 178.125 C 263.429688 176.414062 263.378906 174.707031 263.378906 173.046875 C 263.378906 172.070312 263.378906 171.140625 263.328125 170.164062 C 263.429688 167.820312 263.429688 167.820312 264.355469 166.894531 Z M 264.355469 166.894531 "/>
<path style=" stroke:none;fill-rule:nonzero;fill:rgb(17.647059%,17.647059%,17.647059%);fill-opacity:1;" d="M 33.742188 140.625 C 34.667969 141.257812 35.59375 141.84375 36.570312 142.480469 C 35.890625 143.015625 35.15625 143.507812 34.472656 144.042969 C 31.738281 146.386719 30.125 148.875 28.125 151.855469 C 27.492188 151.855469 26.90625 151.855469 26.269531 151.855469 C 25.632812 150 25 148.144531 24.367188 146.242188 C 27.6875 143.992188 29.734375 143.117188 33.742188 143.457031 C 33.742188 142.53125 33.742188 141.601562 33.742188 140.625 Z M 33.742188 140.625 "/>
<path style=" stroke:none;fill-rule:nonzero;fill:rgb(14.901961%,14.509805%,14.509805%);fill-opacity:1;" d="M 230.617188 150.929688 C 231.25 150.929688 231.882812 150.929688 232.519531 150.929688 C 232.03125 157.910156 232.03125 157.910156 229.640625 160.644531 C 229.054688 161.179688 228.417969 161.671875 227.832031 162.207031 C 227.832031 162.792969 227.832031 163.429688 227.832031 164.0625 C 227.195312 164.0625 226.5625 164.0625 225.929688 164.0625 C 225.488281 157.128906 225.488281 157.128906 227.734375 154.34375 C 228.710938 153.5625 228.710938 153.5625 229.6875 152.832031 C 229.980469 152.195312 230.320312 151.5625 230.617188 150.929688 Z M 230.617188 150.929688 "/>
<path style=" stroke:none;fill-rule:nonzero;fill:rgb(80.000001%,34.117648%,31.764707%);fill-opacity:1;" d="M 212.792969 155.617188 C 213.429688 156.542969 214.0625 157.46875 214.695312 158.445312 C 213.769531 158.742188 212.84375 159.03125 211.867188 159.375 C 211.671875 161.425781 211.476562 163.523438 211.28125 165.578125 C 211.179688 166.75 211.085938 167.871094 210.9375 169.09375 C 210.9375 172.558594 211.523438 174.953125 212.792969 178.125 C 212.207031 178.417969 211.570312 178.757812 210.9375 179.054688 C 207.765625 174.316406 208.546875 168.703125 209.082031 163.132812 C 210.007812 160.253906 211.179688 158.203125 212.792969 155.617188 Z M 212.792969 155.617188 "/>
<path style=" stroke:none;fill-rule:nonzero;fill:rgb(17.647059%,16.862746%,16.470589%);fill-opacity:1;" d="M 236.230469 183.742188 C 242.382812 183.398438 242.382812 183.398438 244.628906 185.15625 C 244.96875 185.644531 245.265625 186.085938 245.605469 186.570312 C 243.75 188.429688 243.75 188.429688 241.503906 188.625 C 240.671875 188.625 239.84375 188.574219 238.964844 188.574219 C 237.648438 188.523438 237.648438 188.523438 236.375 188.523438 C 235.695312 188.476562 235.058594 188.476562 234.375 188.429688 C 235.007812 186.914062 235.59375 185.351562 236.230469 183.742188 Z M 236.230469 183.742188 "/>
<path style=" stroke:none;fill-rule:nonzero;fill:rgb(17.254902%,12.54902%,12.156863%);fill-opacity:1;" d="M 265.332031 110.644531 C 265.917969 110.9375 266.554688 111.230469 267.1875 111.570312 C 266.894531 112.15625 266.554688 112.792969 266.257812 113.429688 C 265.332031 113.429688 264.40625 113.429688 263.429688 113.429688 C 264.0625 113.769531 264.695312 114.0625 265.332031 114.355469 C 265.332031 119.921875 265.332031 125.488281 265.332031 131.25 C 263.429688 129.394531 263.429688 129.394531 263.234375 126.953125 C 263.28125 125.976562 263.28125 125.046875 263.328125 124.121094 C 263.328125 123.144531 263.328125 122.21875 263.378906 121.242188 C 263.378906 120.507812 263.429688 119.824219 263.429688 119.042969 C 262.84375 119.042969 262.207031 119.042969 261.570312 119.042969 C 260.789062 117.480469 260.789062 117.480469 260.644531 115.332031 C 262.890625 112.742188 262.890625 112.742188 265.332031 110.644531 Z M 265.332031 110.644531 "/>
<path style=" stroke:none;fill-rule:nonzero;fill:rgb(14.901961%,15.294118%,15.686275%);fill-opacity:1;" d="M 210.9375 135.007812 C 211.035156 135.59375 211.179688 136.179688 211.28125 136.816406 C 211.570312 137.792969 211.570312 137.792969 211.867188 138.769531 C 212.5 139.0625 213.132812 139.355469 213.769531 139.695312 C 212.84375 141.0625 212.84375 141.0625 211.867188 142.480469 C 211.28125 142.1875 210.644531 141.894531 210.007812 141.554688 C 210.304688 140.96875 210.59375 140.332031 210.9375 139.695312 C 209.082031 139.992188 207.226562 140.28125 205.320312 140.625 C 204.980469 139.0625 204.6875 137.546875 204.394531 135.9375 C 207.617188 135.449219 207.617188 135.449219 210.9375 135.007812 Z M 210.9375 135.007812 "/>
<path style=" stroke:none;fill-rule:nonzero;fill:rgb(14.509805%,14.509805%,14.509805%);fill-opacity:1;" d="M 117.1875 165.917969 C 119.679688 165.917969 122.117188 165.917969 124.707031 165.917969 C 124.367188 166.554688 124.070312 167.1875 123.730469 167.820312 C 123.144531 167.820312 122.507812 167.820312 121.875 167.820312 C 124.121094 170.507812 125.929688 171.09375 129.394531 171.582031 C 129.394531 171.875 129.394531 172.167969 129.394531 172.507812 C 121.828125 172.804688 121.828125 172.804688 119.042969 170.605469 C 117.871094 168.164062 117.871094 168.164062 117.1875 165.917969 Z M 117.1875 165.917969 "/>
<path style=" stroke:none;fill-rule:nonzero;fill:rgb(18.82353%,19.215687%,20%);fill-opacity:1;" d="M 198.730469 171.582031 C 200.292969 171.582031 201.855469 171.582031 203.417969 171.582031 C 202.976562 175.539062 200.632812 177.390625 197.804688 179.980469 C 197.804688 179.394531 197.804688 178.757812 197.804688 178.125 C 196.875 178.125 195.945312 178.125 195.019531 178.125 C 195.019531 176.269531 195.019531 176.269531 196.335938 174.851562 C 196.828125 174.367188 197.3125 173.925781 197.804688 173.4375 C 198.144531 172.804688 198.4375 172.21875 198.730469 171.582031 Z M 198.730469 171.582031 "/>
<path style=" stroke:none;fill-rule:nonzero;fill:rgb(28.235295%,13.333334%,10.588235%);fill-opacity:1;" d="M 248.4375 178.125 C 249.367188 178.125 250.292969 178.125 251.269531 178.125 C 251.855469 179.054688 252.492188 179.980469 253.125 180.957031 C 256.933594 180.515625 260.109375 180.125 263.429688 178.125 C 262.84375 179.6875 262.207031 181.203125 261.570312 182.8125 C 260.058594 182.859375 258.496094 182.859375 256.984375 182.859375 C 256.152344 182.859375 255.273438 182.910156 254.445312 182.910156 C 252.195312 182.8125 252.195312 182.8125 250.292969 181.882812 C 250.292969 181.25 250.292969 180.617188 250.292969 179.980469 C 249.367188 179.6875 248.4375 179.394531 247.507812 179.054688 C 247.804688 178.757812 248.09375 178.46875 248.4375 178.125 Z M 248.4375 178.125 "/>
<path style=" stroke:none;fill-rule:nonzero;fill:rgb(80.784315%,35.294119%,31.764707%);fill-opacity:1;" d="M 246.582031 150 C 247.167969 150 247.804688 150 248.4375 150 C 248.339844 150.539062 248.195312 151.074219 248.09375 151.609375 C 246.726562 158.25 245.65625 164.890625 244.679688 171.582031 C 244.382812 171.582031 244.09375 171.582031 243.75 171.582031 C 243.554688 160.742188 243.554688 160.742188 244.679688 155.617188 C 245.3125 155.617188 245.945312 155.617188 246.582031 155.617188 C 246.582031 153.757812 246.582031 151.90625 246.582031 150 Z M 246.582031 150 "/>
<path style=" stroke:none;fill-rule:nonzero;fill:rgb(98.823529%,34.901962%,29.803923%);fill-opacity:1;" d="M 267.1875 120.945312 C 267.480469 120.945312 267.820312 120.945312 268.117188 120.945312 C 268.457031 123.390625 268.75 125.878906 269.042969 128.417969 C 269.679688 128.417969 270.3125 128.417969 270.945312 128.417969 C 271.242188 129.34375 271.53125 130.273438 271.875 131.25 C 270.3125 131.25 268.796875 131.25 267.1875 131.25 C 266.84375 129.882812 266.453125 128.515625 266.113281 127.148438 C 265.917969 126.367188 265.722656 125.632812 265.527344 124.851562 C 265.476562 124.171875 265.382812 123.484375 265.332031 122.804688 C 265.917969 122.21875 266.554688 121.582031 267.1875 120.945312 Z M 267.1875 120.945312 "/>
<path style=" stroke:none;fill-rule:nonzero;fill:rgb(25.098041%,13.725491%,11.372549%);fill-opacity:1;" d="M 212.792969 150.929688 C 213.71875 151.269531 214.648438 151.5625 215.625 151.855469 C 213.769531 155.566406 211.914062 159.277344 210.007812 163.132812 C 209.667969 163.132812 209.375 163.132812 209.082031 163.132812 C 209.082031 160.9375 209.082031 158.789062 209.082031 156.542969 C 209.667969 156.542969 210.304688 156.542969 210.9375 156.542969 C 211.085938 155.8125 211.230469 155.078125 211.328125 154.296875 C 211.867188 151.855469 211.867188 151.855469 212.792969 150.929688 Z M 212.792969 150.929688 "/>
<path style=" stroke:none;fill-rule:nonzero;fill:rgb(17.647059%,17.254902%,17.647059%);fill-opacity:1;" d="M 267.1875 109.667969 C 268.117188 110.007812 269.042969 110.304688 270.019531 110.644531 C 270.019531 111.230469 270.019531 111.867188 270.019531 112.5 C 271.242188 112.792969 272.460938 113.132812 273.730469 113.429688 C 273.730469 113.769531 273.730469 114.0625 273.730469 114.355469 C 270.359375 114.992188 266.945312 115.625 263.429688 116.257812 C 263.429688 115.332031 263.429688 114.40625 263.429688 113.429688 C 264.355469 113.429688 265.28125 113.429688 266.257812 113.429688 C 266.554688 112.207031 266.84375 110.984375 267.1875 109.667969 Z M 267.1875 109.667969 "/>
<path style=" stroke:none;fill-rule:nonzero;fill:rgb(89.803922%,33.725491%,29.803923%);fill-opacity:1;" d="M 249.367188 164.992188 C 251.5625 167.675781 252.882812 170.214844 254.054688 173.4375 C 252.539062 173.730469 250.976562 174.070312 249.367188 174.367188 C 249.367188 173.4375 249.367188 172.507812 249.367188 171.582031 C 248.4375 171.242188 247.507812 170.945312 246.582031 170.605469 C 247.507812 168.75 248.4375 166.894531 249.367188 164.992188 Z M 249.367188 164.992188 "/>
<path style=" stroke:none;fill-rule:nonzero;fill:rgb(85.09804%,35.294119%,34.901962%);fill-opacity:1;" d="M 276.5625 117.1875 C 278.027344 118.261719 278.027344 118.261719 279.394531 120.019531 C 279.296875 123.535156 278.859375 125.148438 276.515625 127.832031 C 275.929688 128.367188 275.292969 128.859375 274.707031 129.394531 C 274.804688 128.757812 274.953125 128.125 275.097656 127.492188 C 275.734375 124.070312 276.171875 120.65625 276.5625 117.1875 Z M 276.5625 117.1875 "/>
<path style=" stroke:none;fill-rule:nonzero;fill:rgb(13.725491%,13.725491%,13.725491%);fill-opacity:1;" d="M 165.917969 170.605469 C 166.554688 170.605469 167.1875 170.605469 167.820312 170.605469 C 168.117188 172.460938 168.40625 174.316406 168.75 176.269531 C 166.894531 176.855469 165.039062 177.492188 163.132812 178.125 C 163.132812 174.171875 163.378906 173.390625 165.917969 170.605469 Z M 165.917969 170.605469 "/>
<path style=" stroke:none;fill-rule:nonzero;fill:rgb(84.705883%,36.862746%,33.725491%);fill-opacity:1;" d="M 231.542969 178.125 C 233.886719 178.613281 233.886719 178.613281 236.230469 179.054688 C 236.230469 179.6875 236.230469 180.320312 236.230469 180.957031 C 237.597656 180.664062 238.914062 180.371094 240.234375 180.078125 C 240.96875 179.882812 241.699219 179.734375 242.480469 179.539062 C 244.484375 179.101562 246.4375 178.613281 248.4375 178.125 C 246.582031 180.957031 246.582031 180.957031 243.75 181.882812 C 241.503906 182.078125 241.503906 182.078125 239.0625 182.179688 C 238.234375 182.226562 237.453125 182.226562 236.621094 182.273438 C 234.375 181.882812 234.375 181.882812 232.664062 179.980469 C 232.128906 179.054688 232.128906 179.054688 231.542969 178.125 Z M 231.542969 178.125 "/>
<path style=" stroke:none;fill-rule:nonzero;fill:rgb(26.666668%,18.82353%,17.254902%);fill-opacity:1;" d="M 279.394531 121.875 C 279.6875 121.875 279.980469 121.875 280.320312 121.875 C 280.320312 123.4375 280.320312 124.953125 280.320312 126.5625 C 281.542969 126.5625 282.765625 126.5625 284.082031 126.5625 C 283.445312 127.78125 282.8125 129.054688 282.179688 130.320312 C 280.320312 129.6875 278.46875 129.054688 276.5625 128.417969 C 277.492188 126.269531 278.417969 124.121094 279.394531 121.875 Z M 279.394531 121.875 "/>
<path style=" stroke:none;fill-rule:nonzero;fill:rgb(17.647059%,17.647059%,17.647059%);fill-opacity:1;" d="M 118.117188 135.9375 C 119.679688 135.9375 121.242188 135.9375 122.804688 135.9375 C 123.144531 137.792969 123.4375 139.648438 123.730469 141.554688 C 120.945312 141.113281 120.945312 141.113281 118.117188 140.625 C 118.117188 139.0625 118.117188 137.546875 118.117188 135.9375 Z M 118.117188 135.9375 "/>
<path style=" stroke:none;fill-rule:nonzero;fill:rgb(11.372549%,11.372549%,11.372549%);fill-opacity:1;" d="M 120.945312 151.855469 C 121.828125 154.296875 122.023438 155.273438 120.996094 157.714844 C 120.507812 158.546875 120.507812 158.546875 120.019531 159.375 C 120.945312 159.667969 121.875 160.007812 122.804688 160.304688 C 122.804688 160.644531 122.804688 160.9375 122.804688 161.230469 C 120.945312 161.230469 119.09375 161.230469 117.1875 161.230469 C 117.625 159.863281 118.066406 158.496094 118.554688 157.078125 C 118.796875 156.296875 119.042969 155.566406 119.289062 154.734375 C 120.019531 152.832031 120.019531 152.832031 120.945312 151.855469 Z M 120.945312 151.855469 "/>
<path style=" stroke:none;fill-rule:nonzero;fill:rgb(19.607843%,19.607843%,19.607843%);fill-opacity:1;" d="M 104.054688 158.445312 C 104.394531 159.667969 104.6875 160.890625 104.980469 162.207031 C 102.195312 163.132812 102.195312 163.132812 100.195312 162.402344 C 98.4375 161.230469 98.4375 161.230469 97.507812 158.445312 C 100.4375 157.46875 101.21875 157.570312 104.054688 158.445312 Z M 104.054688 158.445312 "/>
<path style=" stroke:none;fill-rule:nonzero;fill:rgb(38.431373%,18.039216%,16.470589%);fill-opacity:1;" d="M 265.332031 129.394531 C 265.917969 130.320312 266.554688 131.25 267.1875 132.179688 C 269.578125 132.859375 269.578125 132.859375 271.875 133.105469 C 271.875 133.742188 271.875 134.375 271.875 135.007812 C 271.242188 135.007812 270.65625 135.007812 270.019531 135.007812 C 270.3125 135.9375 270.605469 136.867188 270.945312 137.792969 C 268.261719 139.160156 266.308594 138.378906 263.429688 137.792969 C 263.429688 137.5 263.429688 137.207031 263.429688 136.867188 C 264.992188 136.570312 266.554688 136.28125 268.117188 135.9375 C 268.117188 135.304688 268.117188 134.71875 268.117188 134.082031 C 267.1875 133.742188 266.257812 133.445312 265.332031 133.105469 C 265.332031 131.882812 265.332031 130.664062 265.332031 129.394531 Z M 265.332031 129.394531 "/>
<path style=" stroke:none;fill-rule:nonzero;fill:rgb(14.901961%,17.254902%,17.254902%);fill-opacity:1;" d="M 259.667969 116.257812 C 260.304688 116.257812 260.9375 116.257812 261.570312 116.257812 C 261.570312 117.1875 261.570312 118.117188 261.570312 119.042969 C 262.15625 119.042969 262.792969 119.042969 263.429688 119.042969 C 263.132812 121.242188 262.84375 123.390625 262.5 125.632812 C 259.8125 123.390625 259.132812 121.582031 258.742188 118.117188 C 259.082031 117.53125 259.375 116.894531 259.667969 116.257812 Z M 259.667969 116.257812 "/>
<path style=" stroke:none;fill-rule:nonzero;fill:rgb(11.372549%,13.333334%,13.333334%);fill-opacity:1;" d="M 274.707031 137.792969 C 275.292969 137.792969 275.929688 137.792969 276.5625 137.792969 C 276.609375 139.160156 276.660156 140.527344 276.660156 141.84375 C 276.710938 142.625 276.710938 143.359375 276.757812 144.140625 C 276.5625 146.242188 276.5625 146.242188 274.707031 149.070312 C 273.535156 145.359375 272.898438 141.359375 274.707031 137.792969 Z M 274.707031 137.792969 "/>
<path style=" stroke:none;fill-rule:nonzero;fill:rgb(11.372549%,13.333334%,12.941177%);fill-opacity:1;" d="M 285.007812 120.019531 C 285.007812 121.875 285.007812 123.730469 285.007812 125.632812 C 283.445312 125.929688 281.882812 126.21875 280.320312 126.5625 C 280.320312 122.804688 280.320312 122.804688 281.59375 121.191406 C 283.105469 120.019531 283.105469 120.019531 285.007812 120.019531 Z M 285.007812 120.019531 "/>
<path style=" stroke:none;fill-rule:nonzero;fill:rgb(85.09804%,35.294119%,34.117648%);fill-opacity:1;" d="M 249.367188 177.195312 C 250.632812 177.195312 251.855469 177.195312 253.125 177.195312 C 253.125 178.125 253.125 179.054688 253.125 179.980469 C 255.617188 179.6875 258.054688 179.394531 260.644531 179.054688 C 259.523438 180.46875 259.523438 180.46875 257.8125 181.882812 C 255.273438 182.03125 255.273438 182.03125 253.125 181.882812 C 252.832031 181.296875 252.585938 180.664062 252.296875 180.078125 C 251.414062 177.976562 251.414062 177.976562 249.367188 177.195312 Z M 249.367188 177.195312 "/>
<path style=" stroke:none;fill-rule:nonzero;fill:rgb(14.901961%,14.117648%,12.941177%);fill-opacity:1;" d="M 248.4375 157.519531 C 249.070312 157.8125 249.65625 158.105469 250.292969 158.445312 C 250.292969 159.960938 250.292969 161.523438 250.292969 163.132812 C 249.707031 163.132812 249.070312 163.132812 248.4375 163.132812 C 248.4375 164.355469 248.4375 165.578125 248.4375 166.894531 C 247.804688 166.894531 247.21875 166.894531 246.582031 166.894531 C 246.386719 163.183594 246.484375 160.695312 248.4375 157.519531 Z M 248.4375 157.519531 "/>
<path style=" stroke:none;fill-rule:nonzero;fill:rgb(10.196079%,10.196079%,10.196079%);fill-opacity:1;" d="M 100.292969 162.207031 C 101.5625 162.207031 102.78125 162.207031 104.054688 162.207031 C 104.054688 164.648438 104.054688 167.140625 104.054688 169.679688 C 103.757812 169.679688 103.46875 169.679688 103.125 169.679688 C 103.125 168.164062 103.125 166.601562 103.125 164.992188 C 102.492188 164.992188 101.90625 164.992188 101.269531 164.992188 C 101.269531 165.625 101.269531 166.257812 101.269531 166.894531 C 100.34375 166.554688 99.414062 166.257812 98.4375 165.917969 C 99.070312 164.695312 99.65625 163.476562 100.292969 162.207031 Z M 100.292969 162.207031 "/>
<path style=" stroke:none;fill-rule:nonzero;fill:rgb(12.941177%,13.333334%,14.117648%);fill-opacity:1;" d="M 276.5625 128.417969 C 279.34375 128.90625 279.34375 128.90625 282.179688 129.394531 C 281.492188 131.203125 281.492188 131.203125 280.320312 133.105469 C 278.320312 133.835938 278.320312 133.835938 276.5625 134.082031 C 276.855469 133.15625 277.195312 132.226562 277.492188 131.25 C 277.195312 130.320312 276.90625 129.394531 276.5625 128.417969 Z M 276.5625 128.417969 "/>
<path style=" stroke:none;fill-rule:nonzero;fill:rgb(84.705883%,36.470589%,33.725491%);fill-opacity:1;" d="M 209.082031 166.894531 C 209.375 166.894531 209.667969 166.894531 210.007812 166.894531 C 210.109375 167.429688 210.253906 168.015625 210.398438 168.601562 C 210.644531 169.726562 210.644531 169.726562 210.890625 170.851562 C 211.035156 171.582031 211.179688 172.3125 211.375 173.09375 C 211.816406 175.097656 212.304688 177.101562 212.792969 179.054688 C 212.207031 179.054688 211.570312 179.054688 210.9375 179.054688 C 208.886719 175.976562 208.835938 175 208.9375 171.386719 C 208.984375 170.554688 208.984375 169.679688 208.984375 168.847656 C 209.03125 168.164062 209.03125 167.53125 209.082031 166.894531 Z M 209.082031 166.894531 "/>
<path style=" stroke:none;fill-rule:nonzero;fill:rgb(16.078432%,12.156863%,12.156863%);fill-opacity:1;" d="M 270.019531 148.144531 C 271.875 150.929688 271.875 150.929688 271.875 152.832031 C 272.507812 152.832031 273.09375 152.832031 273.730469 152.832031 C 272.804688 154.6875 272.804688 154.6875 270.945312 155.617188 C 270.605469 155.03125 270.3125 154.394531 270.019531 153.757812 C 269.382812 154.34375 268.75 154.980469 268.117188 155.617188 C 268.601562 153.027344 269.140625 150.632812 270.019531 148.144531 Z M 270.019531 148.144531 "/>
<path style=" stroke:none;fill-rule:nonzero;fill:rgb(11.764706%,11.764706%,11.764706%);fill-opacity:1;" d="M 81.542969 147.167969 C 80.03125 148.78125 78.46875 150.34375 76.855469 151.855469 C 76.269531 151.855469 75.632812 151.855469 75 151.855469 C 75.34375 149.609375 75.34375 149.609375 75.929688 147.167969 C 78.273438 145.996094 79.148438 146.4375 81.542969 147.167969 Z M 81.542969 147.167969 "/>
<path style=" stroke:none;fill-rule:nonzero;fill:rgb(20.392157%,18.82353%,20.392157%);fill-opacity:1;" d="M 267.1875 179.054688 C 267.820312 179.6875 268.40625 180.320312 269.042969 180.957031 C 267.429688 182.8125 267.429688 182.8125 265.332031 184.667969 C 264.0625 184.667969 262.84375 184.667969 261.570312 184.667969 C 261.867188 183.742188 262.15625 182.8125 262.5 181.882812 C 263.71875 181.542969 264.992188 181.203125 266.257812 180.957031 C 266.554688 180.320312 266.84375 179.6875 267.1875 179.054688 Z M 267.1875 179.054688 "/>
<path style=" stroke:none;fill-rule:nonzero;fill:rgb(92.54902%,36.078432%,34.509805%);fill-opacity:1;" d="M 221.242188 173.4375 C 223.4375 173.730469 225.585938 174.070312 227.832031 174.367188 C 226.515625 176.269531 226.515625 176.269531 225 178.125 C 224.367188 178.125 223.78125 178.125 223.144531 178.125 C 222.507812 176.5625 221.875 175.046875 221.242188 173.4375 Z M 221.242188 173.4375 "/>
<path style=" stroke:none;fill-rule:nonzero;fill:rgb(29.803923%,14.117648%,12.156863%);fill-opacity:1;" d="M 230.617188 149.070312 C 231.542969 150.929688 231.542969 150.929688 230.90625 153.320312 C 229.6875 155.617188 229.6875 155.617188 227.6875 156.398438 C 227.101562 156.445312 226.515625 156.492188 225.929688 156.542969 C 227.050781 153.417969 228.078125 151.269531 230.617188 149.070312 Z M 230.617188 149.070312 "/>
<path style=" stroke:none;fill-rule:nonzero;fill:rgb(10.196079%,10.196079%,10.196079%);fill-opacity:1;" d="M 120.945312 167.820312 C 121.4375 168.261719 121.972656 168.703125 122.507812 169.140625 C 124.851562 170.75 126.609375 171.191406 129.394531 171.582031 C 129.394531 171.875 129.394531 172.167969 129.394531 172.507812 C 123.144531 172.753906 123.144531 172.753906 120.019531 170.605469 C 120.3125 169.679688 120.605469 168.75 120.945312 167.820312 Z M 120.945312 167.820312 "/>
<path style=" stroke:none;fill-rule:nonzero;fill:rgb(23.921569%,13.725491%,11.764706%);fill-opacity:1;" d="M 254.980469 141.554688 C 255.617188 141.554688 256.25 141.554688 256.882812 141.554688 C 257.8125 144.382812 257.8125 144.382812 256.445312 147.363281 C 255.761719 148.679688 255.761719 148.679688 254.980469 150 C 253.953125 146.875 254.199219 144.726562 254.980469 141.554688 Z M 254.980469 141.554688 "/>
</g>
</svg>
