<?xml version="1.0" encoding="UTF-8"?>
<svg xmlns="http://www.w3.org/2000/svg" xmlns:xlink="http://www.w3.org/1999/xlink" width="300px" height="300px" viewBox="0 0 300 300" version="1.1">
<g id="surface1">
<path style=" stroke:none;fill-rule:nonzero;fill:rgb(10.588235%,45.09804%,72.941178%);fill-opacity:1;" d="M 25.121094 268.574219 L 0 0.503906 L 300 1.042969 L 273.4375 268.574219 L 151.132812 299.496094 Z M 25.121094 268.574219 "/>
<path style=" stroke:none;fill-rule:nonzero;fill:rgb(10.980392%,53.333336%,78.039217%);fill-opacity:1;" d="M 151.132812 273.605469 L 151.132812 26.035156 L 274.675781 26.394531 L 252.644531 247.898438 Z M 151.132812 273.605469 "/>
<path style=" stroke:none;fill-rule:nonzero;fill:rgb(100%,100%,100%);fill-opacity:1;" d="M 243.996094 57.679688 L 53.945312 57.679688 L 59.09375 90.039062 L 149.277344 90.039062 L 60.535156 123.300781 L 65.683594 154.585938 L 196.433594 154.585938 L 191.695312 198.273438 L 147.425781 205.824219 L 107.277344 196.835938 L 104.1875 172.023438 L 67.332031 172.023438 L 72.269531 223.625 L 151.339844 242.863281 L 227.113281 221.828125 L 236.789062 120.960938 L 156.691406 120.960938 L 243.992188 89.320312 Z M 243.996094 57.679688 "/>
</g>
</svg>
