<?xml version="1.0" encoding="UTF-8"?>
<svg version="1.1" xmlns="http://www.w3.org/2000/svg" width="500" height="500">
<path d="M0 0 C3.2491237 0.0031519 6.49732643 -0.02035774 9.74633789 -0.0456543 C27.58017766 -0.10065053 44.7619814 1.72354797 62.08422852 6.06567383 C63.12844971 6.32461426 64.1726709 6.58355469 65.24853516 6.8503418 C96.74007893 14.85297759 126.80930398 28.34205406 152.58422852 48.31567383 C153.69561808 49.1615012 154.80763525 50.00650432 155.92016602 50.85083008 C159.15840802 53.31801907 162.38486739 55.79807644 165.58422852 58.31567383 C166.15189941 58.75862793 166.71957031 59.20158203 167.30444336 59.65795898 C168.76971439 60.8304334 170.18196968 62.06852284 171.58422852 63.31567383 C171.58422852 63.97567383 171.58422852 64.63567383 171.58422852 65.31567383 C172.17751953 65.58444336 172.77081055 65.85321289 173.38208008 66.13012695 C175.58962885 67.31858115 177.04965733 68.52309772 178.81860352 70.28442383 C179.39223633 70.85547852 179.96586914 71.4265332 180.55688477 72.01489258 C181.1434082 72.60915039 181.72993164 73.2034082 182.33422852 73.81567383 C182.9362207 74.40993164 183.53821289 75.00418945 184.15844727 75.61645508 C184.72692383 76.18750977 185.29540039 76.75856445 185.88110352 77.34692383 C186.40027344 77.86834961 186.91944336 78.38977539 187.4543457 78.92700195 C188.58422852 80.31567383 188.58422852 80.31567383 188.58422852 82.31567383 C189.24422852 82.31567383 189.90422852 82.31567383 190.58422852 82.31567383 C193.34796279 85.28787944 195.80439175 88.51420666 198.31225586 91.70385742 C199.52193912 93.23674205 200.74988864 94.75515949 201.97875977 96.27270508 C232.90905405 135.1979058 253.5696735 186.49030305 253.78735352 236.49145508 C253.79305359 237.5373027 253.79875366 238.58315033 253.80462646 239.66069031 C253.81402146 241.86671964 253.82058839 244.07276266 253.82446289 246.27880859 C253.83409119 249.58107449 253.86513638 252.8826961 253.89672852 256.18481445 C253.96539054 269.82324114 253.03160675 282.89599522 250.58422852 296.31567383 C250.36508789 297.52586182 250.14594727 298.7360498 249.92016602 299.98291016 C249.32408299 303.02735765 248.66681802 306.04533356 247.95922852 309.06567383 C247.70689453 310.14292725 247.45456055 311.22018066 247.19458008 312.33007812 C241.03655373 337.49853955 230.61793124 361.54778913 216.58422852 383.31567383 C216.17672363 383.95230957 215.76921875 384.58894531 215.34936523 385.24487305 C210.73550669 392.41863309 205.97865835 399.37195279 200.53735352 405.95239258 C197.69129669 409.39612134 194.97891699 412.94406525 192.24829102 416.47973633 C191.69915039 417.0855957 191.15000977 417.69145508 190.58422852 418.31567383 C189.92422852 418.31567383 189.26422852 418.31567383 188.58422852 418.31567383 C188.31545898 418.90896484 188.04668945 419.50225586 187.76977539 420.11352539 C186.5813212 422.32107416 185.37680462 423.78110264 183.61547852 425.55004883 C183.04442383 426.12368164 182.47336914 426.69731445 181.88500977 427.28833008 C181.29075195 427.87485352 180.69649414 428.46137695 180.08422852 429.06567383 C179.4899707 429.66766602 178.89571289 430.2696582 178.28344727 430.88989258 C177.42686523 431.74260742 177.42686523 431.74260742 176.55297852 432.61254883 C176.03155273 433.13171875 175.51012695 433.65088867 174.97290039 434.18579102 C173.58422852 435.31567383 173.58422852 435.31567383 171.58422852 435.31567383 C171.58422852 435.97567383 171.58422852 436.63567383 171.58422852 437.31567383 C168.60953228 440.08172403 165.37980996 442.53849722 162.18725586 445.0480957 C160.67814791 446.24140799 159.18715666 447.45752958 157.69750977 448.67504883 C124.60041338 475.15272594 85.03298331 490.89787574 43.58422852 498.31567383 C42.48771973 498.51362549 41.39121094 498.71157715 40.26147461 498.91552734 C29.28317209 500.6413036 18.33469152 500.65367812 7.24389648 500.63134766 C3.9859021 500.6281996 0.72882938 500.65168417 -2.52905273 500.67700195 C-20.38067894 500.731942 -37.57613412 498.91215886 -54.91577148 494.56567383 C-55.95999268 494.3067334 -57.00421387 494.04779297 -58.08007812 493.78100586 C-91.71080797 485.23475978 -123.48862327 470.38645954 -150.41577148 448.31567383 C-152.07898609 447.01956515 -153.7453577 445.72749096 -155.41577148 444.44067383 C-156.11573242 443.89282227 -156.81569336 443.3449707 -157.53686523 442.78051758 C-159.17193556 441.5057746 -160.82372085 440.25252839 -162.47827148 439.00317383 C-163.11764648 438.44629883 -163.75702148 437.88942383 -164.41577148 437.31567383 C-164.41577148 436.65567383 -164.41577148 435.99567383 -164.41577148 435.31567383 C-165.0090625 435.0469043 -165.60235352 434.77813477 -166.21362305 434.5012207 C-168.42117182 433.31276651 -169.8812003 432.10824994 -171.65014648 430.34692383 C-172.2237793 429.77586914 -172.79741211 429.20481445 -173.38842773 428.61645508 C-173.97495117 428.02219727 -174.56147461 427.42793945 -175.16577148 426.81567383 C-175.76776367 426.22141602 -176.36975586 425.6271582 -176.98999023 425.01489258 C-177.5584668 424.44383789 -178.12694336 423.8727832 -178.71264648 423.28442383 C-179.23181641 422.76299805 -179.75098633 422.24157227 -180.28588867 421.7043457 C-181.41577148 420.31567383 -181.41577148 420.31567383 -181.41577148 418.31567383 C-182.07577148 418.31567383 -182.73577148 418.31567383 -183.41577148 418.31567383 C-186.17950576 415.34346822 -188.63593472 412.117141 -191.14379883 408.92749023 C-192.35348209 407.39460561 -193.5814316 405.87618817 -194.81030273 404.35864258 C-225.74059702 365.43344185 -246.40121647 314.14104461 -246.61889648 264.13989258 C-246.62459656 263.09404495 -246.63029663 262.04819733 -246.63616943 260.97065735 C-246.64556443 258.76462802 -246.65213135 256.558585 -246.65600586 254.35253906 C-246.66563416 251.05027317 -246.69667935 247.74865155 -246.72827148 244.4465332 C-246.8198627 226.28789318 -244.8659354 208.93138952 -240.66577148 191.25317383 C-240.40683105 190.1594043 -240.14789063 189.06563477 -239.88110352 187.9387207 C-231.78444909 154.77776664 -216.33005396 122.54268709 -194.41577148 96.31567383 C-193.09562623 94.63414803 -191.7821301 92.94735954 -190.47827148 91.25317383 C-189.93944336 90.56223633 -189.40061523 89.87129883 -188.84545898 89.15942383 C-187.58506784 87.53400136 -186.34272776 85.89461593 -185.10327148 84.25317383 C-184.54639648 83.61379883 -183.98952148 82.97442383 -183.41577148 82.31567383 C-182.75577148 82.31567383 -182.09577148 82.31567383 -181.41577148 82.31567383 C-181.01261719 81.4257373 -181.01261719 81.4257373 -180.60131836 80.51782227 C-179.41286417 78.31027349 -178.20834759 76.85024501 -176.44702148 75.08129883 C-175.59043945 74.22084961 -175.59043945 74.22084961 -174.71655273 73.34301758 C-174.12229492 72.75649414 -173.52803711 72.1699707 -172.91577148 71.56567383 C-172.32151367 70.96368164 -171.72725586 70.36168945 -171.11499023 69.74145508 C-170.54393555 69.17297852 -169.97288086 68.60450195 -169.38452148 68.01879883 C-168.8630957 67.49962891 -168.34166992 66.98045898 -167.80444336 66.44555664 C-166.41577148 65.31567383 -166.41577148 65.31567383 -164.41577148 65.31567383 C-164.41577148 64.65567383 -164.41577148 63.99567383 -164.41577148 63.31567383 C-161.44107525 60.54962362 -158.21135292 58.09285043 -155.01879883 55.58325195 C-153.50969088 54.38993967 -152.01869963 53.17381808 -150.52905273 51.95629883 C-121.50000145 28.7330578 -86.72906765 13.14810026 -50.60327148 5.00317383 C-49.53141602 4.76066895 -48.45956055 4.51816406 -47.35522461 4.26831055 C-31.49307966 0.85307392 -16.1793208 -0.03270018 0 0 Z M7.58422852 150.31567383 C7.58422852 158.56567383 7.58422852 166.81567383 7.58422852 175.31567383 C16.49422852 175.31567383 25.40422852 175.31567383 34.58422852 175.31567383 C34.58422852 167.06567383 34.58422852 158.81567383 34.58422852 150.31567383 C25.67422852 150.31567383 16.76422852 150.31567383 7.58422852 150.31567383 Z M-61.41577148 182.31567383 C-61.50314794 184.16936994 -61.52275301 186.02634924 -61.51342773 187.88208008 C-61.51093018 188.89471924 -61.50843262 189.9073584 -61.50585938 190.95068359 C-61.49675537 192.24675537 -61.48765137 193.54282715 -61.47827148 194.87817383 C-61.45764648 198.98254883 -61.43702148 203.08692383 -61.41577148 207.31567383 C-52.50577148 207.31567383 -43.59577148 207.31567383 -34.41577148 207.31567383 C-34.39514648 203.21129883 -34.37452148 199.10692383 -34.35327148 194.87817383 C-34.34416748 193.58210205 -34.33506348 192.28603027 -34.32568359 190.95068359 C-34.32318604 189.93804443 -34.32068848 188.92540527 -34.31811523 187.88208008 C-34.31287842 186.83995361 -34.3076416 185.79782715 -34.30224609 184.72412109 C-34.14271593 182.36438636 -34.14271593 182.36438636 -35.41577148 181.31567383 C-37.25736171 181.21607762 -39.10274115 181.18486972 -40.94702148 181.18286133 C-42.62731445 181.18092773 -42.62731445 181.18092773 -44.34155273 181.17895508 C-46.11079102 181.18475586 -46.11079102 181.18475586 -47.91577148 181.19067383 C-49.09526367 181.18680664 -50.27475586 181.18293945 -51.48999023 181.17895508 C-52.61018555 181.18024414 -53.73038086 181.1815332 -54.88452148 181.18286133 C-56.43816406 181.18455322 -56.43816406 181.18455322 -58.02319336 181.1862793 C-60.36874972 181.0460223 -60.36874972 181.0460223 -61.41577148 182.31567383 Z M-26.41577148 182.31567383 C-26.50314794 184.16936994 -26.52275301 186.02634924 -26.51342773 187.88208008 C-26.51020508 189.00678711 -26.50698242 190.13149414 -26.50366211 191.2902832 C-26.4952832 192.47428711 -26.4869043 193.65829102 -26.47827148 194.87817383 C-26.47375977 196.06604492 -26.46924805 197.25391602 -26.46459961 198.4777832 C-26.45276823 201.42379609 -26.43628435 204.36971064 -26.41577148 207.31567383 C-22.10328539 207.3445392 -17.79082387 207.36242638 -13.47827148 207.37817383 C-11.63072266 207.39074219 -11.63072266 207.39074219 -9.74584961 207.40356445 C-8.57602539 207.40678711 -7.40620117 207.41000977 -6.20092773 207.41333008 C-5.11690674 207.41856689 -4.03288574 207.42380371 -2.91601562 207.42919922 C-0.47527201 207.5999428 -0.47527201 207.5999428 0.58422852 206.31567383 C0.68369304 204.5470819 0.71503069 202.77455932 0.71704102 201.00317383 C0.71833008 199.9280957 0.71961914 198.85301758 0.72094727 197.74536133 C0.71514648 196.04766602 0.71514648 196.04766602 0.70922852 194.31567383 C0.7150293 192.61797852 0.7150293 192.61797852 0.72094727 190.88598633 C0.71901367 189.27336914 0.71901367 189.27336914 0.71704102 187.62817383 C0.71591309 186.63430664 0.71478516 185.64043945 0.71362305 184.61645508 C0.84257182 182.35192157 0.84257182 182.35192157 -0.41577148 181.31567383 C-2.25736171 181.21607762 -4.10274115 181.18486972 -5.94702148 181.18286133 C-7.62731445 181.18092773 -7.62731445 181.18092773 -9.34155273 181.17895508 C-11.11079102 181.18475586 -11.11079102 181.18475586 -12.91577148 181.19067383 C-14.09526367 181.18680664 -15.27475586 181.18293945 -16.48999023 181.17895508 C-17.61018555 181.18024414 -18.73038086 181.1815332 -19.88452148 181.18286133 C-21.43816406 181.18455322 -21.43816406 181.18455322 -23.02319336 181.1862793 C-25.36874972 181.0460223 -25.36874972 181.0460223 -26.41577148 182.31567383 Z M7.58422852 182.31567383 C7.49685206 184.16936994 7.47724699 186.02634924 7.48657227 187.88208008 C7.48906982 188.89471924 7.49156738 189.9073584 7.49414062 190.95068359 C7.50324463 192.24675537 7.51234863 193.54282715 7.52172852 194.87817383 C7.54235352 198.98254883 7.56297852 203.08692383 7.58422852 207.31567383 C16.49422852 207.31567383 25.40422852 207.31567383 34.58422852 207.31567383 C34.60485352 203.21129883 34.62547852 199.10692383 34.64672852 194.87817383 C34.65583252 193.58210205 34.66493652 192.28603027 34.67431641 190.95068359 C34.67681396 189.93804443 34.67931152 188.92540527 34.68188477 187.88208008 C34.68712158 186.83995361 34.6923584 185.79782715 34.69775391 184.72412109 C34.85728407 182.36438636 34.85728407 182.36438636 33.58422852 181.31567383 C31.74263829 181.21607762 29.89725885 181.18486972 28.05297852 181.18286133 C26.37268555 181.18092773 26.37268555 181.18092773 24.65844727 181.17895508 C22.88920898 181.18475586 22.88920898 181.18475586 21.08422852 181.19067383 C19.90473633 181.18680664 18.72524414 181.18293945 17.51000977 181.17895508 C16.38981445 181.18024414 15.26961914 181.1815332 14.11547852 181.18286133 C12.56183594 181.18455322 12.56183594 181.18455322 10.97680664 181.1862793 C8.63125028 181.0460223 8.63125028 181.0460223 7.58422852 182.31567383 Z M98.58422852 190.31567383 C96.82463624 192.58363395 96.82463624 192.58363395 95.08422852 195.44067383 C94.47579102 196.39200195 93.86735352 197.34333008 93.24047852 198.32348633 C88.2199821 207.39353409 86.79455879 221.19157442 89.58422852 231.31567383 C91.06012583 234.76430517 92.73771974 238.05191847 94.58422852 241.31567383 C93.90875977 241.44844727 93.23329102 241.5812207 92.53735352 241.71801758 C91.64532227 241.89461914 90.75329102 242.0712207 89.83422852 242.25317383 C88.95250977 242.42719727 88.07079102 242.6012207 87.16235352 242.78051758 C84.71674145 243.2435154 84.71674145 243.2435154 82.91136837 243.8413353 C79.5414125 244.52822995 76.19582552 244.45150497 72.77186584 244.44024658 C71.97976682 244.44165673 71.18766779 244.44306688 70.37156576 244.44451976 C67.71465233 244.44817272 65.05779227 244.44483626 62.40087891 244.44165039 C60.49709532 244.44304517 58.59331205 244.44494449 56.68952942 244.4473114 C52.58839226 244.45180855 48.48726512 244.45366449 44.38612556 244.4537735 C37.90285323 244.4549132 31.41963792 244.46774614 24.93638611 244.4833374 C23.84256042 244.48591026 22.74873473 244.48848311 21.62176281 244.49113393 C19.38508665 244.49640041 17.14841053 244.5016859 14.91173446 244.50698996 C-0.18303881 244.54211747 -15.27774106 244.56864894 -30.37255859 244.56616211 C-40.55366367 244.56457496 -50.73457433 244.58057381 -60.91561705 244.61686873 C-66.30430236 244.63535147 -71.69266297 244.64465119 -77.08137321 244.63239288 C-82.14831088 244.62097795 -87.21466646 244.63260887 -92.28152657 244.66202736 C-94.14192273 244.66868152 -96.00237194 244.66677798 -97.86274719 244.65572929 C-100.40133976 244.64190241 -102.93795487 244.65869809 -105.47642517 244.6831665 C-106.21397645 244.67181113 -106.95152774 244.66045575 -107.71142906 244.64875627 C-111.68992333 244.72341522 -113.2629477 245.18663944 -116.34948063 247.79270554 C-117.03135661 248.62528507 -117.71323259 249.45786461 -118.41577148 250.31567383 C-118.91077148 250.81067383 -118.91077148 250.81067383 -119.41577148 251.31567383 C-121.25807275 274.55701289 -114.28995554 302.22806962 -100.47827148 320.94067383 C-99.79764648 321.72442383 -99.11702148 322.50817383 -98.41577148 323.31567383 C-97.61139648 324.27280273 -97.61139648 324.27280273 -96.79077148 325.24926758 C-82.23610844 342.34472309 -60.15507903 347.95303295 -38.54760742 350.07250977 C-12.43883101 352.09966453 18.93254566 350.90658285 42.29321289 337.53344727 C44.57307036 336.32160487 46.81897779 335.44413264 49.24438477 334.56567383 C54.80102249 332.37160594 59.48053405 329.39382122 64.33422852 325.94067383 C65.19822266 325.32925537 66.0622168 324.71783691 66.95239258 324.08789062 C78.45824591 315.74241129 89.24411678 305.62517798 96.58422852 293.31567383 C96.58422852 292.65567383 96.58422852 291.99567383 96.58422852 291.31567383 C97.24422852 291.31567383 97.90422852 291.31567383 98.58422852 291.31567383 C100.59920704 287.65710498 102.59479513 283.98817562 104.58422852 280.31567383 C104.95354492 279.63569336 105.32286133 278.95571289 105.70336914 278.25512695 C106.89851481 276.04916156 108.08581437 273.83911382 109.27172852 271.62817383 C109.84201782 270.57835327 109.84201782 270.57835327 110.42382812 269.50732422 C112.89255881 264.88327486 114.83662467 260.25889615 116.58422852 255.31567383 C117.63481445 255.21770508 118.68540039 255.11973633 119.76782227 255.01879883 C134.90174119 253.46789675 145.02694358 248.95643638 155.13891602 237.24536133 C157.2311953 234.45188574 158.55860772 232.34050566 158.64672852 228.81567383 C157.36476441 225.7992877 155.81798852 224.6190561 152.90844727 223.16723633 C142.70051119 219.4271858 132.17220499 220.30988402 121.58422852 221.31567383 C121.47208008 220.42428711 121.47208008 220.42428711 121.35766602 219.51489258 C120.20023843 212.21855984 117.38567644 206.60360341 113.58422852 200.31567383 C112.92422852 200.31567383 112.26422852 200.31567383 111.58422852 200.31567383 C111.58422852 199.65567383 111.58422852 198.99567383 111.58422852 198.31567383 C110.92422852 198.31567383 110.26422852 198.31567383 109.58422852 198.31567383 C109.58422852 197.65567383 109.58422852 196.99567383 109.58422852 196.31567383 C107.63808324 194.72218521 107.63808324 194.72218521 105.20922852 193.19067383 C104.39711914 192.6518457 103.58500977 192.11301758 102.74829102 191.55786133 C100.71100826 190.14973253 100.71100826 190.14973253 98.58422852 190.31567383 Z M-95.41577148 214.31567383 C-95.50303371 216.09638629 -95.5227619 217.88050523 -95.51342773 219.66333008 C-95.51093018 220.63536377 -95.50843262 221.60739746 -95.50585938 222.60888672 C-95.49675537 223.85275146 -95.48765137 225.09661621 -95.47827148 226.37817383 C-95.45764648 230.31754883 -95.43702148 234.25692383 -95.41577148 238.31567383 C-86.17577148 238.31567383 -76.93577148 238.31567383 -67.41577148 238.31567383 C-67.39514648 234.37629883 -67.37452148 230.43692383 -67.35327148 226.37817383 C-67.34416748 225.13430908 -67.33506348 223.89044434 -67.32568359 222.60888672 C-67.32318604 221.63685303 -67.32068848 220.66481934 -67.31811523 219.66333008 C-67.31287842 218.66309814 -67.3076416 217.66286621 -67.30224609 216.63232422 C-67.15396053 214.35360155 -67.15396053 214.35360155 -68.41577148 213.31567383 C-70.3303543 213.21595597 -72.24859466 213.18486794 -74.16577148 213.18286133 C-75.91374023 213.18092773 -75.91374023 213.18092773 -77.69702148 213.17895508 C-79.53780273 213.18475586 -79.53780273 213.18475586 -81.41577148 213.19067383 C-82.64295898 213.18680664 -83.87014648 213.18293945 -85.13452148 213.17895508 C-86.29983398 213.18024414 -87.46514648 213.1815332 -88.66577148 213.18286133 C-89.74342773 213.18398926 -90.82108398 213.18511719 -91.93139648 213.1862793 C-94.35797145 213.03475012 -94.35797145 213.03475012 -95.41577148 214.31567383 Z M-61.41577148 214.31567383 C-61.50303371 216.09638629 -61.5227619 217.88050523 -61.51342773 219.66333008 C-61.51093018 220.63536377 -61.50843262 221.60739746 -61.50585938 222.60888672 C-61.49675537 223.85275146 -61.48765137 225.09661621 -61.47827148 226.37817383 C-61.45764648 230.31754883 -61.43702148 234.25692383 -61.41577148 238.31567383 C-52.50577148 238.31567383 -43.59577148 238.31567383 -34.41577148 238.31567383 C-34.41577148 230.06567383 -34.41577148 221.81567383 -34.41577148 213.31567383 C-38.72831232 213.28885084 -43.04068856 213.26892139 -47.35327148 213.25317383 C-49.20082031 213.24060547 -49.20082031 213.24060547 -51.08569336 213.2277832 C-52.84042969 213.22294922 -52.84042969 213.22294922 -54.63061523 213.21801758 C-55.71463623 213.21278076 -56.79865723 213.20754395 -57.91552734 213.20214844 C-60.35627096 213.03140486 -60.35627096 213.03140486 -61.41577148 214.31567383 Z M-26.41577148 214.31567383 C-26.50303371 216.09638629 -26.5227619 217.88050523 -26.51342773 219.66333008 C-26.51093018 220.63536377 -26.50843262 221.60739746 -26.50585938 222.60888672 C-26.49675537 223.85275146 -26.48765137 225.09661621 -26.47827148 226.37817383 C-26.45764648 230.31754883 -26.43702148 234.25692383 -26.41577148 238.31567383 C-17.50577148 238.31567383 -8.59577148 238.31567383 0.58422852 238.31567383 C0.60485352 234.37629883 0.62547852 230.43692383 0.64672852 226.37817383 C0.65583252 225.13430908 0.66493652 223.89044434 0.67431641 222.60888672 C0.67681396 221.63685303 0.67931152 220.66481934 0.68188477 219.66333008 C0.68712158 218.66309814 0.6923584 217.66286621 0.69775391 216.63232422 C0.84603947 214.35360155 0.84603947 214.35360155 -0.41577148 213.31567383 C-2.25736171 213.21607762 -4.10274115 213.18486972 -5.94702148 213.18286133 C-7.62731445 213.18092773 -7.62731445 213.18092773 -9.34155273 213.17895508 C-11.11079102 213.18475586 -11.11079102 213.18475586 -12.91577148 213.19067383 C-14.09526367 213.18680664 -15.27475586 213.18293945 -16.48999023 213.17895508 C-17.61018555 213.18024414 -18.73038086 213.1815332 -19.88452148 213.18286133 C-21.43816406 213.18455322 -21.43816406 213.18455322 -23.02319336 213.1862793 C-25.36874972 213.0460223 -25.36874972 213.0460223 -26.41577148 214.31567383 Z M7.58422852 214.31567383 C7.49696629 216.09638629 7.4772381 217.88050523 7.48657227 219.66333008 C7.48906982 220.63536377 7.49156738 221.60739746 7.49414062 222.60888672 C7.50324463 223.85275146 7.51234863 225.09661621 7.52172852 226.37817383 C7.54235352 230.31754883 7.56297852 234.25692383 7.58422852 238.31567383 C16.49422852 238.31567383 25.40422852 238.31567383 34.58422852 238.31567383 C34.60485352 234.37629883 34.62547852 230.43692383 34.64672852 226.37817383 C34.65583252 225.13430908 34.66493652 223.89044434 34.67431641 222.60888672 C34.67681396 221.63685303 34.67931152 220.66481934 34.68188477 219.66333008 C34.68712158 218.66309814 34.6923584 217.66286621 34.69775391 216.63232422 C34.84603947 214.35360155 34.84603947 214.35360155 33.58422852 213.31567383 C31.74263829 213.21607762 29.89725885 213.18486972 28.05297852 213.18286133 C26.37268555 213.18092773 26.37268555 213.18092773 24.65844727 213.17895508 C22.88920898 213.18475586 22.88920898 213.18475586 21.08422852 213.19067383 C19.90473633 213.18680664 18.72524414 213.18293945 17.51000977 213.17895508 C16.38981445 213.18024414 15.26961914 213.1815332 14.11547852 213.18286133 C12.56183594 213.18455322 12.56183594 213.18455322 10.97680664 213.1862793 C8.63125028 213.0460223 8.63125028 213.0460223 7.58422852 214.31567383 Z M42.58422852 214.31567383 C42.49696629 216.09638629 42.4772381 217.88050523 42.48657227 219.66333008 C42.48906982 220.63536377 42.49156738 221.60739746 42.49414062 222.60888672 C42.50324463 223.85275146 42.51234863 225.09661621 42.52172852 226.37817383 C42.54235352 230.31754883 42.56297852 234.25692383 42.58422852 238.31567383 C51.49422852 238.31567383 60.40422852 238.31567383 69.58422852 238.31567383 C69.60485352 234.37629883 69.62547852 230.43692383 69.64672852 226.37817383 C69.65583252 225.13430908 69.66493652 223.89044434 69.67431641 222.60888672 C69.67681396 221.63685303 69.67931152 220.66481934 69.68188477 219.66333008 C69.68712158 218.66309814 69.6923584 217.66286621 69.69775391 216.63232422 C69.84603947 214.35360155 69.84603947 214.35360155 68.58422852 213.31567383 C66.74263829 213.21607762 64.89725885 213.18486972 63.05297852 213.18286133 C61.37268555 213.18092773 61.37268555 213.18092773 59.65844727 213.17895508 C57.88920898 213.18475586 57.88920898 213.18475586 56.08422852 213.19067383 C54.90473633 213.18680664 53.72524414 213.18293945 52.51000977 213.17895508 C51.38981445 213.18024414 50.26961914 213.1815332 49.11547852 213.18286133 C47.56183594 213.18455322 47.56183594 213.18455322 45.97680664 213.1862793 C43.63125028 213.0460223 43.63125028 213.0460223 42.58422852 214.31567383 Z " fill="#0191E1" transform="translate(246.415771484375,-0.315673828125)"/>
<path d="M0 0 C3.96952899 0.11798944 7.93880781 0.24221799 11.90795898 0.37231445 C13.25914147 0.41571223 14.61038053 0.4573837 15.96166992 0.49731445 C17.90036701 0.55489952 19.83886276 0.61914298 21.77734375 0.68359375 C22.94515381 0.72025146 24.11296387 0.75690918 25.31616211 0.79467773 C28 1 28 1 29 2 C29.40310863 6.61216778 29.48184929 11.24808232 29.625 15.875 C29.65868683 16.90744843 29.65868683 16.90744843 29.6930542 17.96075439 C30.01268903 28.11689346 30.00496666 38.21814577 29.625 48.375 C29.58197754 49.53241699 29.53895508 50.68983398 29.49462891 51.88232422 C29.13828673 59.86171327 29.13828673 59.86171327 28 61 C25.85441173 61.08775605 23.70595579 61.10695219 21.55859375 61.09765625 C20.25341797 61.09443359 18.94824219 61.09121094 17.60351562 61.08789062 C16.2148431 61.07953401 14.82617123 61.07106905 13.4375 61.0625 C12.04492344 61.05748666 10.65234519 61.05292347 9.25976562 61.04882812 C5.83982549 61.03699442 2.4199075 61.01905831 -1 61 C-1.33 56.71 -1.66 52.42 -2 48 C-2.99 48.495 -2.99 48.495 -4 49 C-4.43103098 51.51948641 -4.43103098 51.51948641 -4.5625 54.4375 C-4.9058296 59.81165919 -4.9058296 59.81165919 -6 62 C-15.57 62 -25.14 62 -35 62 C-35.020625 57.75125 -35.04125 53.5025 -35.0625 49.125 C-35.071604 47.7858252 -35.08070801 46.44665039 -35.09008789 45.06689453 C-35.09383423 43.49077393 -35.09383423 43.49077393 -35.09765625 41.8828125 C-35.10289307 40.80402832 -35.10812988 39.72524414 -35.11352539 38.61376953 C-35 36 -35 36 -34 34 C-30.72509004 33.122419 -27.51454636 32.8361408 -24.13671875 32.68359375 C-23.33709717 32.64548584 -22.53747559 32.60737793 -21.71362305 32.56811523 C-20.21569214 32.50346069 -20.21569214 32.50346069 -18.6875 32.4375 C-15.490625 32.293125 -12.29375 32.14875 -9 32 C-17.25 31.67 -25.5 31.34 -34 31 C-34.33 30.34 -34.66 29.68 -35 29 C-26.09 28.67 -17.18 28.34 -8 28 C-8 20.08 -8 12.16 -8 4 C-16.58 4 -25.16 4 -34 4 C-34 3.34 -34 2.68 -34 2 C-24.76 2 -15.52 2 -6 2 C-5.34 4.31 -4.68 6.62 -4 9 C-3.34 7.35 -2.68 5.7 -2 4 C-1.34 4 -0.68 4 0 4 C0 12.25 0 20.5 0 29 C8.91 29 17.82 29 27 29 C26.505 16.625 26.505 16.625 26 4 C13.13 3.505 13.13 3.505 0 3 C0 2.01 0 1.02 0 0 Z M-34 36 C-34.08726223 37.78071246 -34.10699041 39.5648314 -34.09765625 41.34765625 C-34.09515869 42.31968994 -34.09266113 43.29172363 -34.09008789 44.29321289 C-34.08098389 45.53707764 -34.07187988 46.78094238 -34.0625 48.0625 C-34.041875 52.001875 -34.02125 55.94125 -34 60 C-25.09 60 -16.18 60 -7 60 C-6.979375 56.060625 -6.95875 52.12125 -6.9375 48.0625 C-6.928396 46.81863525 -6.91929199 45.57477051 -6.90991211 44.29321289 C-6.90741455 43.3211792 -6.90491699 42.34914551 -6.90234375 41.34765625 C-6.89710693 40.34742432 -6.89187012 39.34719238 -6.88647461 38.31665039 C-6.73818905 36.03792772 -6.73818905 36.03792772 -8 35 C-9.84159023 34.90040379 -11.68696967 34.86919589 -13.53125 34.8671875 C-15.21154297 34.86525391 -15.21154297 34.86525391 -16.92578125 34.86328125 C-18.69501953 34.86908203 -18.69501953 34.86908203 -20.5 34.875 C-21.67949219 34.87113281 -22.85898438 34.86726563 -24.07421875 34.86328125 C-25.19441406 34.86457031 -26.31460938 34.86585938 -27.46875 34.8671875 C-29.02239258 34.86887939 -29.02239258 34.86887939 -30.60742188 34.87060547 C-32.95297823 34.73034847 -32.95297823 34.73034847 -34 36 Z M0 36 C-0.08726223 37.78071246 -0.10699041 39.5648314 -0.09765625 41.34765625 C-0.09515869 42.31968994 -0.09266113 43.29172363 -0.09008789 44.29321289 C-0.08098389 45.53707764 -0.07187988 46.78094238 -0.0625 48.0625 C-0.041875 52.001875 -0.02125 55.94125 0 60 C8.91 60 17.82 60 27 60 C27.020625 56.060625 27.04125 52.12125 27.0625 48.0625 C27.071604 46.81863525 27.08070801 45.57477051 27.09008789 44.29321289 C27.09258545 43.3211792 27.09508301 42.34914551 27.09765625 41.34765625 C27.10289307 40.34742432 27.10812988 39.34719238 27.11352539 38.31665039 C27.26181095 36.03792772 27.26181095 36.03792772 26 35 C24.15840977 34.90040379 22.31303033 34.86919589 20.46875 34.8671875 C18.78845703 34.86525391 18.78845703 34.86525391 17.07421875 34.86328125 C15.30498047 34.86908203 15.30498047 34.86908203 13.5 34.875 C12.32050781 34.87113281 11.14101563 34.86726563 9.92578125 34.86328125 C8.80558594 34.86457031 7.68539062 34.86585938 6.53125 34.8671875 C4.97760742 34.86887939 4.97760742 34.86887939 3.39257812 34.87060547 C1.04702177 34.73034847 1.04702177 34.73034847 0 36 Z " fill="#1795D8" transform="translate(254,178)"/>
<path d="M0 0 C1.29164063 -0.00128906 2.58328125 -0.00257813 3.9140625 -0.00390625 C4.92919922 -0.00076416 4.92919922 -0.00076416 5.96484375 0.00244141 C8.02351314 0.00777224 10.0819626 0.00250549 12.140625 -0.00390625 C13.43484375 -0.00261719 14.7290625 -0.00132812 16.0625 0 C17.85179932 0.00169189 17.85179932 0.00169189 19.67724609 0.00341797 C22.6640625 0.1328125 22.6640625 0.1328125 25.6640625 1.1328125 C26.6540625 0.8028125 27.6440625 0.4728125 28.6640625 0.1328125 C33.34791055 -0.10350477 38.037394 -0.05236498 42.7265625 -0.0546875 C44.03173828 -0.06693359 45.33691406 -0.07917969 46.68164062 -0.09179688 C47.92494141 -0.09373047 49.16824219 -0.09566406 50.44921875 -0.09765625 C52.16443726 -0.10381958 52.16443726 -0.10381958 53.91430664 -0.11010742 C56.6640625 0.1328125 56.6640625 0.1328125 58.6640625 2.1328125 C58.89111328 4.65478516 58.89111328 4.65478516 58.859375 7.796875 C58.85292969 8.91835937 58.84648437 10.03984375 58.83984375 11.1953125 C58.81470703 12.95875 58.81470703 12.95875 58.7890625 14.7578125 C58.78003906 15.94117188 58.77101563 17.12453125 58.76171875 18.34375 C58.73809062 21.27363773 58.70514764 24.2031259 58.6640625 27.1328125 C58.0040625 27.1328125 57.3440625 27.1328125 56.6640625 27.1328125 C56.6640625 27.7928125 56.6640625 28.4528125 56.6640625 29.1328125 C47.0940625 29.1328125 37.5240625 29.1328125 27.6640625 29.1328125 C26.30966582 26.42401915 26.59904799 24.12347982 26.6640625 21.1328125 C26.0040625 21.1328125 25.3440625 21.1328125 24.6640625 21.1328125 C24.7053125 22.2465625 24.7465625 23.3603125 24.7890625 24.5078125 C24.6640625 28.1328125 24.6640625 28.1328125 22.6640625 30.1328125 C19.77490234 30.35986328 19.77490234 30.35986328 16.125 30.328125 C14.17207031 30.31845703 14.17207031 30.31845703 12.1796875 30.30859375 C10.79947655 30.29188179 9.41926821 30.27495189 8.0390625 30.2578125 C6.65104798 30.24778256 5.26302661 30.23865673 3.875 30.23046875 C0.47118224 30.20683113 -2.93229256 30.17388117 -6.3359375 30.1328125 C-7.40862633 26.914746 -7.46517509 24.56987336 -7.46875 21.1875 C-7.47003906 20.02863281 -7.47132813 18.86976563 -7.47265625 17.67578125 C-7.46878906 16.46535156 -7.46492187 15.25492188 -7.4609375 14.0078125 C-7.46480469 12.78964844 -7.46867188 11.57148438 -7.47265625 10.31640625 C-7.47136719 9.16011719 -7.47007812 8.00382813 -7.46875 6.8125 C-7.46762207 5.74757324 -7.46649414 4.68264648 -7.46533203 3.58544922 C-7.21083984 -1.23837815 -4.1700818 0.00395054 0 0 Z M-5.3359375 3.1328125 C-5.42319973 4.91352496 -5.44292791 6.6976439 -5.43359375 8.48046875 C-5.43109619 9.45250244 -5.42859863 10.42453613 -5.42602539 11.42602539 C-5.41692139 12.66989014 -5.40781738 13.91375488 -5.3984375 15.1953125 C-5.3778125 19.1346875 -5.3571875 23.0740625 -5.3359375 27.1328125 C3.9040625 27.1328125 13.1440625 27.1328125 22.6640625 27.1328125 C22.6846875 23.1934375 22.7053125 19.2540625 22.7265625 15.1953125 C22.7356665 13.95144775 22.74477051 12.70758301 22.75415039 11.42602539 C22.75664795 10.4539917 22.75914551 9.48195801 22.76171875 8.48046875 C22.76695557 7.48023682 22.77219238 6.48000488 22.77758789 5.44946289 C22.92587345 3.17074022 22.92587345 3.17074022 21.6640625 2.1328125 C19.74947968 2.03309464 17.83123933 2.00200661 15.9140625 2 C14.16609375 1.99806641 14.16609375 1.99806641 12.3828125 1.99609375 C10.54203125 2.00189453 10.54203125 2.00189453 8.6640625 2.0078125 C7.436875 2.00394531 6.2096875 2.00007812 4.9453125 1.99609375 C3.78 1.99738281 2.6146875 1.99867188 1.4140625 2 C0.33640625 2.00112793 -0.74125 2.00225586 -1.8515625 2.00341797 C-4.27813747 1.85188879 -4.27813747 1.85188879 -5.3359375 3.1328125 Z M28.6640625 3.1328125 C28.57680027 4.91352496 28.55707209 6.6976439 28.56640625 8.48046875 C28.56890381 9.45250244 28.57140137 10.42453613 28.57397461 11.42602539 C28.58307861 12.66989014 28.59218262 13.91375488 28.6015625 15.1953125 C28.6221875 19.1346875 28.6428125 23.0740625 28.6640625 27.1328125 C37.5740625 27.1328125 46.4840625 27.1328125 55.6640625 27.1328125 C55.6640625 18.8828125 55.6640625 10.6328125 55.6640625 2.1328125 C51.35152167 2.10598951 47.03914543 2.08606006 42.7265625 2.0703125 C40.87901367 2.05774414 40.87901367 2.05774414 38.99414062 2.04492188 C37.2394043 2.04008789 37.2394043 2.04008789 35.44921875 2.03515625 C34.36519775 2.02991943 33.28117676 2.02468262 32.16430664 2.01928711 C29.72356302 1.84854353 29.72356302 1.84854353 28.6640625 3.1328125 Z " fill="#399FD6" transform="translate(156.3359375,210.8671875)"/>
<path d="M0 0 C4.43744539 -0.05793591 8.87479389 -0.09357467 13.3125 -0.125 C14.57513672 -0.14175781 15.83777344 -0.15851563 17.13867188 -0.17578125 C18.95141602 -0.18544922 18.95141602 -0.18544922 20.80078125 -0.1953125 C21.91622314 -0.20578613 23.03166504 -0.21625977 24.1809082 -0.22705078 C27 0 27 0 30 2 C30.34057617 4.24658203 30.34057617 4.24658203 30.29296875 7.0078125 C30.28330078 7.99394531 30.27363281 8.98007813 30.26367188 9.99609375 C30.23853516 11.02863281 30.21339844 12.06117188 30.1875 13.125 C30.16719727 14.68541016 30.16719727 14.68541016 30.14648438 16.27734375 C30.11105228 18.85207627 30.06165221 21.4257833 30 24 C30.66 24 31.32 24 32 24 C32 16.74 32 9.48 32 2 C32.66 2 33.32 2 34 2 C34.33 10.58 34.66 19.16 35 28 C43.25 28.33 51.5 28.66 60 29 C60.495 29.99 60.495 29.99 61 31 C52.42 31.33 43.84 31.66 35 32 C34.67 40.58 34.34 49.16 34 58 C32.68 58 31.36 58 30 58 C29.505 45.625 29.505 45.625 29 33 C23.13090427 30.03800033 23.13090427 30.03800033 17.1640625 29.48828125 C16.10058594 29.45283203 15.03710938 29.41738281 13.94140625 29.38085938 C12.84699219 29.35830078 11.75257813 29.33574219 10.625 29.3125 C9.50738281 29.27833984 8.38976562 29.24417969 7.23828125 29.20898438 C4.49228778 29.12683927 1.74660018 29.05757872 -1 29 C-1.02891546 24.54168018 -1.04676981 20.08338431 -1.0625 15.625 C-1.07087891 14.35398438 -1.07925781 13.08296875 -1.08789062 11.7734375 C-1.09111328 10.56171875 -1.09433594 9.35 -1.09765625 8.1015625 C-1.10289307 6.98088379 -1.10812988 5.86020508 -1.11352539 4.70556641 C-1 2 -1 2 0 0 Z M0 2 C-0.08737645 3.85369611 -0.10698153 5.71067541 -0.09765625 7.56640625 C-0.09515869 8.57904541 -0.09266113 9.59168457 -0.09008789 10.63500977 C-0.08098389 11.93108154 -0.07187988 13.22715332 -0.0625 14.5625 C-0.041875 18.666875 -0.02125 22.77125 0 27 C8.91 27 17.82 27 27 27 C27.020625 22.895625 27.04125 18.79125 27.0625 14.5625 C27.071604 13.26642822 27.08070801 11.97035645 27.09008789 10.63500977 C27.09258545 9.62237061 27.09508301 8.60973145 27.09765625 7.56640625 C27.10289307 6.52427979 27.10812988 5.48215332 27.11352539 4.40844727 C27.27305556 2.04871253 27.27305556 2.04871253 26 1 C24.15840977 0.90040379 22.31303033 0.86919589 20.46875 0.8671875 C18.78845703 0.86525391 18.78845703 0.86525391 17.07421875 0.86328125 C15.30498047 0.86908203 15.30498047 0.86908203 13.5 0.875 C12.32050781 0.87113281 11.14101562 0.86726562 9.92578125 0.86328125 C8.80558594 0.86457031 7.68539062 0.86585938 6.53125 0.8671875 C4.97760742 0.86887939 4.97760742 0.86887939 3.39257812 0.87060547 C1.04702177 0.73034847 1.04702177 0.73034847 0 2 Z " fill="#098FD8" transform="translate(185,180)"/>
<path d="M0 0 C2.31 0 4.62 0 7 0 C7 8.25 7 16.5 7 25 C15.91 25 24.82 25 34 25 C33.505 12.625 33.505 12.625 33 0 C33.66 0 34.32 0 35 0 C35 8.58 35 17.16 35 26 C25.43 26 15.86 26 6 26 C5.67 21.71 5.34 17.42 5 13 C4.34 13.33 3.68 13.66 3 14 C2.56896902 16.51948641 2.56896902 16.51948641 2.4375 19.4375 C2.0941704 24.81165919 2.0941704 24.81165919 1 27 C-8.57 27 -18.14 27 -28 27 C-28 18.42 -28 9.84 -28 1 C-27.67 1 -27.34 1 -27 1 C-27 8.92 -27 16.84 -27 25 C-18.09 25 -9.18 25 0 25 C0 16.75 0 8.5 0 0 Z " fill="#6CBBE4" transform="translate(247,213)"/>
<path d="M0 0 C3.96952899 0.11798944 7.93880781 0.24221799 11.90795898 0.37231445 C13.25914147 0.41571223 14.61038053 0.4573837 15.96166992 0.49731445 C17.90036701 0.55489952 19.83886276 0.61914298 21.77734375 0.68359375 C22.94515381 0.72025146 24.11296387 0.75690918 25.31616211 0.79467773 C28 1 28 1 29 2 C29.40311161 6.61220188 29.48122192 11.24807686 29.625 15.875 C29.64779022 16.56296661 29.67058044 17.25093323 29.69406128 17.95974731 C30.14432819 32.00607734 29.7606171 45.96566591 29 60 C28.67 60 28.34 60 28 60 C28 51.75 28 43.5 28 35 C25.36 34.67 22.72 34.34 20 34 C20.33 33.34 20.66 32.68 21 32 C14.07 31.67 7.14 31.34 0 31 C0 30.34 0 29.68 0 29 C8.91 29 17.82 29 27 29 C26.505 16.625 26.505 16.625 26 4 C13.13 3.505 13.13 3.505 0 3 C0 2.01 0 1.02 0 0 Z " fill="#188BCC" transform="translate(254,178)"/>
<path d="M0 0 C3.95096978 -0.04939662 7.9018203 -0.08571755 11.85302734 -0.10986328 C13.8591136 -0.12488107 15.86511324 -0.15028981 17.87109375 -0.17578125 C19.12792969 -0.18222656 20.38476562 -0.18867188 21.6796875 -0.1953125 C22.84226074 -0.20578613 24.00483398 -0.21625977 25.20263672 -0.22705078 C28 0 28 0 30 2 C30.22705078 4.52197266 30.22705078 4.52197266 30.1953125 7.6640625 C30.18886719 8.78554687 30.18242187 9.90703125 30.17578125 11.0625 C30.15902344 12.238125 30.14226562 13.41375 30.125 14.625 C30.11597656 15.80835938 30.10695312 16.99171875 30.09765625 18.2109375 C30.07402812 21.14082523 30.04108514 24.0703134 30 27 C29.34 27 28.68 27 28 27 C28 27.66 28 28.32 28 29 C18.43 29 8.86 29 -1 29 C-1.020625 24.58625 -1.04125 20.1725 -1.0625 15.625 C-1.071604 14.23361816 -1.08070801 12.84223633 -1.09008789 11.40869141 C-1.09258545 10.31733887 -1.09508301 9.22598633 -1.09765625 8.1015625 C-1.10289307 6.98088379 -1.10812988 5.86020508 -1.11352539 4.70556641 C-1 2 -1 2 0 0 Z M0 3 C-0.08726223 4.78071246 -0.10699041 6.5648314 -0.09765625 8.34765625 C-0.09515869 9.31968994 -0.09266113 10.29172363 -0.09008789 11.29321289 C-0.08098389 12.53707764 -0.07187988 13.78094238 -0.0625 15.0625 C-0.041875 19.001875 -0.02125 22.94125 0 27 C8.91 27 17.82 27 27 27 C27 18.75 27 10.5 27 2 C22.68745917 1.97317701 18.37508293 1.95324756 14.0625 1.9375 C12.21495117 1.92493164 12.21495117 1.92493164 10.33007812 1.91210938 C8.5753418 1.90727539 8.5753418 1.90727539 6.78515625 1.90234375 C5.70113525 1.89710693 4.61711426 1.89187012 3.50024414 1.88647461 C1.05950052 1.71573103 1.05950052 1.71573103 0 3 Z " fill="#54AAD4" transform="translate(185,211)"/>
<path d="M0 0 C4.45827926 -0.0578304 8.9164628 -0.09353855 13.375 -0.125 C15.28152344 -0.15013672 15.28152344 -0.15013672 17.2265625 -0.17578125 C18.43828125 -0.18222656 19.65 -0.18867188 20.8984375 -0.1953125 C22.01911621 -0.20578613 23.13979492 -0.21625977 24.29443359 -0.22705078 C27 0 27 0 29 2 C29.24291992 4.59790039 29.24291992 4.59790039 29.23046875 7.84765625 C29.22853516 9.00974609 29.22660156 10.17183594 29.22460938 11.36914062 C29.20624023 13.19735352 29.20624023 13.19735352 29.1875 15.0625 C29.18685547 16.28517578 29.18621094 17.50785156 29.18554688 18.76757812 C29.14011056 27.85988944 29.14011056 27.85988944 28 29 C25.85441173 29.08775605 23.70595579 29.10695219 21.55859375 29.09765625 C20.25341797 29.09443359 18.94824219 29.09121094 17.60351562 29.08789062 C16.2148431 29.07953401 14.82617123 29.07106905 13.4375 29.0625 C12.04492344 29.05748666 10.65234519 29.05292347 9.25976562 29.04882812 C5.8398013 29.03699434 2.41992156 29.0205088 -1 29 C-1.02891546 24.54168018 -1.04676981 20.08338431 -1.0625 15.625 C-1.07087891 14.35398438 -1.07925781 13.08296875 -1.08789062 11.7734375 C-1.09111328 10.56171875 -1.09433594 9.35 -1.09765625 8.1015625 C-1.10289307 6.98088379 -1.10812988 5.86020508 -1.11352539 4.70556641 C-1 2 -1 2 0 0 Z M0 2 C-0.08737645 3.85369611 -0.10698153 5.71067541 -0.09765625 7.56640625 C-0.09515869 8.57904541 -0.09266113 9.59168457 -0.09008789 10.63500977 C-0.08098389 11.93108154 -0.07187988 13.22715332 -0.0625 14.5625 C-0.041875 18.666875 -0.02125 22.77125 0 27 C8.91 27 17.82 27 27 27 C27.020625 22.895625 27.04125 18.79125 27.0625 14.5625 C27.071604 13.26642822 27.08070801 11.97035645 27.09008789 10.63500977 C27.09258545 9.62237061 27.09508301 8.60973145 27.09765625 7.56640625 C27.10289307 6.52427979 27.10812988 5.48215332 27.11352539 4.40844727 C27.27305556 2.04871253 27.27305556 2.04871253 26 1 C24.15840977 0.90040379 22.31303033 0.86919589 20.46875 0.8671875 C18.78845703 0.86525391 18.78845703 0.86525391 17.07421875 0.86328125 C15.30498047 0.86908203 15.30498047 0.86908203 13.5 0.875 C12.32050781 0.87113281 11.14101562 0.86726562 9.92578125 0.86328125 C8.80558594 0.86457031 7.68539062 0.86585938 6.53125 0.8671875 C4.97760742 0.86887939 4.97760742 0.86887939 3.39257812 0.87060547 C1.04702177 0.73034847 1.04702177 0.73034847 0 2 Z " fill="#3F9FCE" transform="translate(185,180)"/>
<path d="M0 0 C-5.07339556 2.76730667 -9.52809399 4.56175996 -15.21484375 5.60546875 C-17.01468921 5.83540496 -17.01468921 5.83540496 -18 7 C-19.97509873 7.2094361 -21.95571682 7.36803822 -23.9375 7.5 C-28.12167415 7.67735084 -28.12167415 7.67735084 -32 9 C-34.8468233 9.09923812 -37.66863251 9.13980697 -40.515625 9.1328125 C-41.36421082 9.13376923 -42.21279663 9.13472595 -43.08709717 9.13571167 C-44.88602777 9.136393 -46.68496082 9.13454196 -48.48388672 9.13037109 C-51.22499194 9.12504856 -53.96593132 9.13030393 -56.70703125 9.13671875 C-58.45572953 9.13605744 -60.2044277 9.13477519 -61.953125 9.1328125 C-63.17687836 9.13584885 -63.17687836 9.13584885 -64.425354 9.13894653 C-68.72892295 9.12141775 -72.76143724 8.85604346 -77 8 C-77 7.67 -77 7.34 -77 7 C-76.08524902 7.01571045 -75.17049805 7.0314209 -74.22802734 7.04760742 C-41.30313849 7.54533455 -41.30313849 7.54533455 -9.27319336 0.53833008 C-3.41344807 -1.4208261 -3.41344807 -1.4208261 0 0 Z " fill="#64B9E7" transform="translate(281,342)"/>
<path d="M0 0 C1.16208984 -0.00128906 2.32417969 -0.00257813 3.52148438 -0.00390625 C4.74029297 -0.00003906 5.95910156 0.00382813 7.21484375 0.0078125 C8.43751953 0.00394531 9.66019531 0.00007812 10.91992188 -0.00390625 C12.08072266 -0.00261719 13.24152344 -0.00132812 14.4375 0 C15.5087915 0.00112793 16.58008301 0.00225586 17.68383789 0.00341797 C20.15234375 0.1328125 20.15234375 0.1328125 21.15234375 1.1328125 C21.23992378 3.13246232 21.25930951 5.1351736 21.25 7.13671875 C21.24677734 8.35166016 21.24355469 9.56660156 21.24023438 10.81835938 C21.23185547 12.09775391 21.22347656 13.37714844 21.21484375 14.6953125 C21.21033203 15.97857422 21.20582031 17.26183594 21.20117188 18.58398438 C21.1893392 21.76697272 21.17285443 24.94987012 21.15234375 28.1328125 C17.18303386 28.15747131 13.21375341 28.17565273 9.24438477 28.18774414 C7.89313989 28.19278307 6.54190049 28.19961427 5.19067383 28.20825195 C3.25213941 28.22033669 1.31356575 28.22551078 -0.625 28.23046875 C-2.37671509 28.23832397 -2.37671509 28.23832397 -4.16381836 28.24633789 C-6.84765625 28.1328125 -6.84765625 28.1328125 -7.84765625 27.1328125 C-7.93513832 25.20613743 -7.95462959 23.27629389 -7.9453125 21.34765625 C-7.94208984 20.17783203 -7.93886719 19.00800781 -7.93554688 17.80273438 C-7.92716797 16.57103516 -7.91878906 15.33933594 -7.91015625 14.0703125 C-7.90564453 12.83474609 -7.90113281 11.59917969 -7.89648438 10.32617188 C-7.88465233 7.26167133 -7.86816798 4.19726529 -7.84765625 1.1328125 C-5.14669548 -0.21766789 -3.02039108 0.00317673 0 0 Z M-6.84765625 3.1328125 C-6.93491848 4.91352496 -6.95464666 6.6976439 -6.9453125 8.48046875 C-6.94281494 9.45250244 -6.94031738 10.42453613 -6.93774414 11.42602539 C-6.92864014 12.66989014 -6.91953613 13.91375488 -6.91015625 15.1953125 C-6.88953125 19.1346875 -6.86890625 23.0740625 -6.84765625 27.1328125 C2.06234375 27.1328125 10.97234375 27.1328125 20.15234375 27.1328125 C20.17296875 23.1934375 20.19359375 19.2540625 20.21484375 15.1953125 C20.22394775 13.95144775 20.23305176 12.70758301 20.24243164 11.42602539 C20.2449292 10.4539917 20.24742676 9.48195801 20.25 8.48046875 C20.25523682 7.48023682 20.26047363 6.48000488 20.26586914 5.44946289 C20.4141547 3.17074022 20.4141547 3.17074022 19.15234375 2.1328125 C17.31075352 2.03321629 15.46537408 2.00200839 13.62109375 2 C11.94080078 1.99806641 11.94080078 1.99806641 10.2265625 1.99609375 C8.45732422 2.00189453 8.45732422 2.00189453 6.65234375 2.0078125 C5.47285156 2.00394531 4.29335938 2.00007812 3.078125 1.99609375 C1.95792969 1.99738281 0.83773438 1.99867188 -0.31640625 2 C-1.87004883 2.00169189 -1.87004883 2.00169189 -3.45507812 2.00341797 C-5.80063448 1.86316097 -5.80063448 1.86316097 -6.84765625 3.1328125 Z " fill="#7EC6EB" transform="translate(295.84765625,210.8671875)"/>
<path d="M0 0 C2.31 0.33 4.62 0.66 7 1 C7 1.66 7 2.32 7 3 C7.99 2.67 8.98 2.34 10 2 C10.99 3.485 10.99 3.485 12 5 C12.99 4.67 13.98 4.34 15 4 C15 6.31 15 8.62 15 11 C14.01 11.33 13.02 11.66 12 12 C12 11.34 12 10.68 12 10 C9.48916886 11.25541557 9.12874554 12.50063488 8 15 C7.34 15 6.68 15 6 15 C5.9175 15.61875 5.835 16.2375 5.75 16.875 C4.76174558 19.67505419 3.59640015 19.74113932 1 21 C-0.26804566 23.0335948 -0.26804566 23.0335948 -1 25 C-2.32 25 -3.64 25 -5 25 C-5 25.66 -5 26.32 -5 27 C-6.32 26.67 -7.64 26.34 -9 26 C-8.49210937 25.64808594 -7.98421875 25.29617187 -7.4609375 24.93359375 C-1.5109536 20.66609594 4.15634566 15.9363905 7 9 C7 7.68 7 6.36 7 5 C3.535 3.02 3.535 3.02 0 1 C0 0.67 0 0.34 0 0 Z " fill="#2FA1DC" transform="translate(397,222)"/>
<path d="M0 0 C3.96952899 0.11798944 7.93880781 0.24221799 11.90795898 0.37231445 C13.25914147 0.41571223 14.61038053 0.4573837 15.96166992 0.49731445 C17.90036701 0.55489952 19.83886276 0.61914298 21.77734375 0.68359375 C22.94515381 0.72025146 24.11296387 0.75690918 25.31616211 0.79467773 C28 1 28 1 29 2 C29.08748207 3.92667507 29.10697334 5.85651861 29.09765625 7.78515625 C29.09443359 8.95498047 29.09121094 10.12480469 29.08789062 11.33007812 C29.07951172 12.56177734 29.07113281 13.79347656 29.0625 15.0625 C29.05798828 16.29806641 29.05347656 17.53363281 29.04882812 18.80664062 C29.03699608 21.87114117 29.02051173 24.93554721 29 28 C28.34 28.33 27.68 28.66 27 29 C26.505 16.625 26.505 16.625 26 4 C13.13 3.505 13.13 3.505 0 3 C0 2.01 0 1.02 0 0 Z " fill="#50A7D7" transform="translate(254,178)"/>
<path d="M0 0 C0.66 0 1.32 0 2 0 C2.02886537 4.31248609 2.04675255 8.62494762 2.0625 12.9375 C2.07087891 14.16919922 2.07925781 15.40089844 2.08789062 16.66992188 C2.09272461 18.4246582 2.09272461 18.4246582 2.09765625 20.21484375 C2.10551147 21.84087524 2.10551147 21.84087524 2.11352539 23.49975586 C2 26 2 26 1 27 C-1.07262076 27.08767112 -3.14820294 27.10695873 -5.22265625 27.09765625 C-6.48271484 27.09443359 -7.74277344 27.09121094 -9.04101562 27.08789062 C-10.38151109 27.07953403 -11.72200588 27.07106907 -13.0625 27.0625 C-14.40689942 27.0574866 -15.7513006 27.05292342 -17.09570312 27.04882812 C-20.39717941 27.03699488 -23.69856803 27.02050971 -27 27 C-27 26.34 -27 25.68 -27 25 C-18.09 25 -9.18 25 0 25 C0 16.75 0 8.5 0 0 Z " fill="#5FB0DA" transform="translate(281,150)"/>
<path d="M0 0 C0.99 0.33 1.98 0.66 3 1 C2.34 1 1.68 1 1 1 C0.73123047 1.59329102 0.46246094 2.18658203 0.18554688 2.79785156 C-1.00290732 5.00540033 -2.20742389 6.46542882 -3.96875 8.234375 C-4.82533203 9.09482422 -4.82533203 9.09482422 -5.69921875 9.97265625 C-6.59060547 10.85244141 -6.59060547 10.85244141 -7.5 11.75 C-8.09425781 12.35199219 -8.68851562 12.95398438 -9.30078125 13.57421875 C-9.87183594 14.14269531 -10.44289063 14.71117187 -11.03125 15.296875 C-11.55267578 15.81604492 -12.07410156 16.33521484 -12.61132812 16.87011719 C-14 18 -14 18 -16 18 C-16.33 18.66 -16.66 19.32 -17 20 C-17 18.02 -17 16.04 -17 14 C-15.68 14.33 -14.36 14.66 -13 15 C-13 14.01 -13 13.02 -13 12 C-11.68 11.67 -10.36 11.34 -9 11 C-9.33 10.01 -9.66 9.02 -10 8 C-8.68 7.34 -7.36 6.68 -6 6 C-9.20395416 6 -11.09399739 6.74335022 -14 8 C-12.70700306 5.11562221 -11.34058637 3.12780579 -9 1 C-8.401875 1.309375 -7.80375 1.61875 -7.1875 1.9375 C-4.91043228 3.10209704 -4.91043228 3.10209704 -2 4 C-1.34 2.68 -0.68 1.36 0 0 Z M-15 8 C-14.67 8.99 -14.34 9.98 -14 11 C-14.66 11 -15.32 11 -16 11 C-15.67 10.01 -15.34 9.02 -15 8 Z " fill="#0390DB" transform="translate(434,417)"/>
<path d="M0 0 C6.64766356 2.0229398 12.81944187 4.65072929 19.0625 7.6875 C19.92810547 8.10322266 20.79371094 8.51894531 21.68554688 8.94726562 C23.79270985 9.96010087 25.8974094 10.9777159 28 12 C24.71480525 13.09506492 22.26336585 13.09960608 18.8125 13.0625 C17.18248047 13.04896484 17.18248047 13.04896484 15.51953125 13.03515625 C14.68808594 13.02355469 13.85664063 13.01195312 13 13 C13 12.34 13 11.68 13 11 C12.34 10.67 11.68 10.34 11 10 C11.66 9.01 12.32 8.02 13 7 C11.56656 6.46809459 10.12804633 5.94984742 8.6875 5.4375 C7.48673828 5.00244141 7.48673828 5.00244141 6.26171875 4.55859375 C3.8566826 3.75084375 3.8566826 3.75084375 1 5 C0.01 4.34 -0.98 3.68 -2 3 C-1.34 3 -0.68 3 0 3 C0 2.01 0 1.02 0 0 Z " fill="#0490DE" transform="translate(342,17)"/>
<path d="M0 0 C-3.09523395 1.71780479 -5.96735039 2.54911755 -9.4296875 3.25390625 C-10.99396484 3.57584961 -10.99396484 3.57584961 -12.58984375 3.90429688 C-14.21599609 4.23010742 -14.21599609 4.23010742 -15.875 4.5625 C-17.48955078 4.89411133 -17.48955078 4.89411133 -19.13671875 5.23242188 C-26.86513138 6.8095517 -34.10315913 8.13615243 -42 8 C-38.09971775 5.39981184 -34.52565431 5.84914486 -30 6 C-30 5.34 -30 4.68 -30 4 C-28.700625 3.9175 -27.40125 3.835 -26.0625 3.75 C-22.44880423 3.37849857 -19.88565584 2.5736542 -16.6875 0.875 C-11.1594168 -1.84983534 -5.92538852 -0.92239551 0 0 Z " fill="#5DB2DC" transform="translate(318,491)"/>
<path d="M0 0 C3.375 -0.125 3.375 -0.125 7 0 C7.66 0.66 8.32 1.32 9 2 C8.67 2.99 8.34 3.98 8 5 C5.525 4.01 5.525 4.01 3 3 C-2.27658553 11.39607634 -5.16450767 18.10601193 -6 28 C-8 25 -8 25 -7.8125 21.875 C-7.03882479 18.18516438 -6.00789357 14.77286495 -4.765625 11.22265625 C-3.71742747 8.17967463 -2.85783757 5.10141275 -2 2 C-1.34 2 -0.68 2 0 2 C0 1.34 0 0.68 0 0 Z " fill="#43A8DC" transform="translate(342,188)"/>
<path d="M0 0 C4.52589199 -0.17078838 8.5593432 0.03055799 13 0.9375 C17.72368802 1.87960235 22.38516281 2.26565838 27.1875 2.5 C32.68995529 2.7720286 37.72856553 3.35267673 43 5 C43 5.33 43 5.66 43 6 C34.91805678 6.40484688 27.24008731 5.78015084 19.25 4.625 C17.93866089 4.43587036 17.93866089 4.43587036 16.60083008 4.24291992 C11.00301229 3.39550261 5.51396689 2.28361577 0 1 C0 0.67 0 0.34 0 0 Z " fill="#47ABDC" transform="translate(195,494)"/>
<path d="M0 0 C0.66 0 1.32 0 2 0 C2.185625 1.7015625 2.185625 1.7015625 2.375 3.4375 C2.684375 5.2009375 2.684375 5.2009375 3 7 C3.66 7.33 4.32 7.66 5 8 C5.99 7.67 6.98 7.34 8 7 C8 11 8 11 7.4375 14 C7.00644418 16.95581136 7.23894283 18.20945704 8 21 C8.03888349 23.33300933 8.0448635 25.66709801 8 28 C5.93447334 24.27244492 4.70540252 20.29825848 3.4375 16.25 C3.21642578 15.57195312 2.99535156 14.89390625 2.76757812 14.1953125 C1.27840807 9.46236116 0.49269899 4.93806175 0 0 Z " fill="#309FDA" transform="translate(6,306)"/>
<path d="M0 0 C0.33 0 0.66 0 1 0 C0.96447021 0.59538574 0.92894043 1.19077148 0.89233398 1.80419922 C0.73501206 4.49416774 0.58615438 7.18453917 0.4375 9.875 C0.38142578 10.81214844 0.32535156 11.74929687 0.26757812 12.71484375 C0.21923828 13.61074219 0.17089844 14.50664062 0.12109375 15.4296875 C0.0739624 16.25710449 0.02683105 17.08452148 -0.02172852 17.93701172 C-0.14984957 20.06510813 -0.14984957 20.06510813 1 22 C0.34 22 -0.32 22 -1 22 C-1 22.66 -1 23.32 -1 24 C-1.66 24 -2.32 24 -3 24 C-2.98839844 24.69867188 -2.97679687 25.39734375 -2.96484375 26.1171875 C-2.95130859 27.48230469 -2.95130859 27.48230469 -2.9375 28.875 C-2.92589844 29.77992188 -2.91429687 30.68484375 -2.90234375 31.6171875 C-3 34 -3 34 -4 36 C-4.66 36 -5.32 36 -6 36 C-4.81155417 23.78715533 -2.70577857 11.96584599 0 0 Z " fill="#4CABDD" transform="translate(6,191)"/>
<path d="M0 0 C0.33 0 0.66 0 1 0 C1.28814698 5.2113439 0.25637204 9.49483085 -1.1875 14.4375 C-1.40946045 15.21722168 -1.6314209 15.99694336 -1.86010742 16.80029297 C-4.01743175 24.27547864 -6.45226188 31.64950447 -9 39 C-9.66 39 -10.32 39 -11 39 C-11 37.68 -11 36.36 -11 35 C-10.34 35 -9.68 35 -9 35 C-8.83564453 33.82244141 -8.83564453 33.82244141 -8.66796875 32.62109375 C-7.2137351 22.98531793 -7.2137351 22.98531793 -5.4375 19.25 C-4.04040134 16.09134217 -3.63059829 13.48240907 -3.31640625 10.06640625 C-2.76941657 6.49409091 -1.3687023 3.33249256 0 0 Z " fill="#55AEDC" transform="translate(494,300)"/>
<path d="M0 0 C0 0.66 0 1.32 0 2 C-0.99 2 -1.98 2 -3 2 C-3.433125 2.9590625 -3.433125 2.9590625 -3.875 3.9375 C-5 6 -5 6 -7 7 C-7.76699219 7.13277344 -8.53398437 7.26554687 -9.32421875 7.40234375 C-12.21072014 8.04706596 -14.2640583 9.07907871 -16.8125 10.5625 C-17.60269531 11.01753906 -18.39289063 11.47257812 -19.20703125 11.94140625 C-19.79871094 12.29074219 -20.39039063 12.64007813 -21 13 C-21 13.66 -21 14.32 -21 15 C-23.97 14.505 -23.97 14.505 -27 14 C-23.08579054 10.64281265 -19.04254517 8.24072155 -14.5 5.875 C-13.52353516 5.35486328 -13.52353516 5.35486328 -12.52734375 4.82421875 C-3.37796336 0 -3.37796336 0 0 0 Z " fill="#3EA4DA" transform="translate(149,21)"/>
<path d="M0 0 C-0.33 0.66 -0.66 1.32 -1 2 C-2.83837891 2.36303711 -2.83837891 2.36303711 -5.2265625 2.52734375 C-6.09410156 2.59759766 -6.96164063 2.66785156 -7.85546875 2.74023438 C-9.67822825 2.87006421 -11.50114362 2.99772695 -13.32421875 3.12304688 C-17.4296958 3.45861974 -20.99004242 3.79346936 -24.74609375 5.5546875 C-28.28332219 7.12584539 -30.60175066 7.31679492 -34.4375 7.1875 C-35.48808594 7.16042969 -36.53867188 7.13335938 -37.62109375 7.10546875 C-38.79865234 7.05326172 -38.79865234 7.05326172 -40 7 C-37.124505 5.42560793 -34.54896616 4.56981764 -31.33203125 3.96484375 C-29.99108398 3.71057617 -29.99108398 3.71057617 -28.62304688 3.45117188 C-27.69556641 3.28166016 -26.76808594 3.11214844 -25.8125 2.9375 C-24.4502832 2.67743164 -24.4502832 2.67743164 -23.06054688 2.41210938 C-15.39949387 0.98080312 -7.81334438 -0.20034216 0 0 Z " fill="#59B5DD" transform="translate(231,0)"/>
<path d="M0 0 C0.66 0.99 1.32 1.98 2 3 C-1.90349285 8.41452234 -6.05874497 11.06657176 -12 14 C-12.75152344 14.37640625 -13.50304687 14.7528125 -14.27734375 15.140625 C-15.13005859 15.56601563 -15.13005859 15.56601563 -16 16 C-8.94975689 7.63371151 -8.94975689 7.63371151 -6 5 C-5.34 5 -4.68 5 -4 5 C-4 4.34 -4 3.68 -4 3 C-2 1.375 -2 1.375 0 0 Z " fill="#2096D6" transform="translate(86,60)"/>
<path d="M0 0 C-5.07339556 2.76730667 -9.52809399 4.56175996 -15.21484375 5.60546875 C-17.01468921 5.83540496 -17.01468921 5.83540496 -18 7 C-19.51928038 7.07179964 -21.04167482 7.08392007 -22.5625 7.0625 C-23.38878906 7.05347656 -24.21507812 7.04445313 -25.06640625 7.03515625 C-25.70449219 7.02355469 -26.34257812 7.01195312 -27 7 C-27 6.34 -27 5.68 -27 5 C-26.37432129 4.85377197 -25.74864258 4.70754395 -25.10400391 4.55688477 C-22.27705709 3.89467208 -19.45102513 3.2286345 -16.625 2.5625 C-15.64015625 2.33240234 -14.6553125 2.10230469 -13.640625 1.86523438 C-12.69960938 1.64287109 -11.75859375 1.42050781 -10.7890625 1.19140625 C-9.91975098 0.98717041 -9.05043945 0.78293457 -8.15478516 0.57250977 C-2.818058 -0.8454174 -2.818058 -0.8454174 0 0 Z " fill="#4AAADA" transform="translate(281,342)"/>
<path d="M0 0 C9.57 0 19.14 0 29 0 C26 3 26 3 23.36450195 3.2487793 C22.33284912 3.19117432 21.30119629 3.13356934 20.23828125 3.07421875 C19.12001953 3.01943359 18.00175781 2.96464844 16.84960938 2.90820312 C15.09874023 2.79895508 15.09874023 2.79895508 13.3125 2.6875 C12.13365234 2.62626953 10.95480469 2.56503906 9.74023438 2.50195312 C6.82577331 2.34856044 3.91287541 2.18069004 1 2 C0.67 1.34 0.34 0.68 0 0 Z " fill="#1D88C3" transform="translate(219,207)"/>
<path d="M0 0 C13.86 0.495 13.86 0.495 28 1 C28.33 1.99 28.66 2.98 29 4 C27.74445313 3.9278125 26.48890625 3.855625 25.1953125 3.78125 C16.78835967 3.31051434 8.42368601 2.86190679 0 3 C0 2.01 0 1.02 0 0 Z " fill="#52AAD6" transform="translate(368,218)"/>
<path d="M0 0 C0.75023437 0.19335938 1.50046875 0.38671875 2.2734375 0.5859375 C11.47005015 2.92562989 20.56340308 4.95148923 30 6 C30 6.33 30 6.66 30 7 C24.19617504 7.20727946 18.57479467 6.82277787 12.8125 6.125 C11.79736328 6.00729248 11.79736328 6.00729248 10.76171875 5.88720703 C6.63564481 5.36032357 2.89862551 4.44303713 -1 3 C-0.67 2.01 -0.34 1.02 0 0 Z " fill="#57B1DE" transform="translate(174,342)"/>
<path d="M0 0 C6.84826688 -0.32610795 12.86089306 0.88814333 19.5 2.5 C20.51320313 2.73847656 21.52640625 2.97695312 22.5703125 3.22265625 C25.04886426 3.80722034 27.52519334 4.39981469 30 5 C30 5.33 30 5.66 30 6 C19.86295948 5.42358005 9.98242354 3.76356149 0 2 C0 1.34 0 0.68 0 0 Z " fill="#45A8D9" transform="translate(288,3)"/>
<path d="M0 0 C0.66 0 1.32 0 2 0 C2.06058594 0.78246094 2.12117187 1.56492187 2.18359375 2.37109375 C2.26738281 3.38300781 2.35117187 4.39492188 2.4375 5.4375 C2.55931641 6.95150391 2.55931641 6.95150391 2.68359375 8.49609375 C2.73211468 10.93640779 2.73211468 10.93640779 4 12 C4.14115161 14.67058851 4.04247107 17.32432238 4 20 C4.66 20 5.32 20 6 20 C5.67 22.97 5.34 25.94 5 29 C4.67 29 4.34 29 4 29 C3.32081305 25.66909377 2.65897708 22.33495832 2 19 C1.80921875 18.06542969 1.6184375 17.13085938 1.421875 16.16796875 C0.3445329 10.66582872 -0.21153456 5.60566572 0 0 Z " fill="#59B0DE" transform="translate(1,277)"/>
<path d="M0 0 C0.66 0.33 1.32 0.66 2 1 C1.34 2.32 0.68 3.64 0 5 C-1.32 4.67 -2.64 4.34 -4 4 C-4.04125 4.598125 -4.0825 5.19625 -4.125 5.8125 C-5.44403415 9.11008538 -7.86035807 9.59036485 -11 11 C-11.66 11.66 -12.32 12.32 -13 13 C-14.32 12.34 -15.64 11.68 -17 11 C-14.21681883 9.13284189 -11.42220667 7.28356646 -8.625 5.4375 C-7.8309375 4.90447266 -7.036875 4.37144531 -6.21875 3.82226562 C-5.45820312 3.32275391 -4.69765625 2.82324219 -3.9140625 2.30859375 C-2.8614624 1.60947876 -2.8614624 1.60947876 -1.78759766 0.89624023 C-1.19769043 0.60048096 -0.6077832 0.30472168 0 0 Z " fill="#2A9AD6" transform="translate(120,35)"/>
<path d="M0 0 C4.30764815 1.56641751 8.06171464 3.68336156 12 6 C12 6.33 12 6.66 12 7 C10.58398286 7.48108275 9.16715563 7.95978141 7.75 8.4375 C6.96109375 8.70433594 6.1721875 8.97117187 5.359375 9.24609375 C3.25178012 9.91954708 1.15246027 10.49150595 -1 11 C0.32 9.02 1.64 7.04 3 5 C2.2575 4.319375 2.2575 4.319375 1.5 3.625 C0 2 0 2 0 0 Z " fill="#0F95D9" transform="translate(371,31)"/>
<path d="M0 0 C0.94101563 0.00322266 1.88203125 0.00644531 2.8515625 0.00976562 C3.83640625 0.01814453 4.82125 0.02652344 5.8359375 0.03515625 C6.82851562 0.03966797 7.82109375 0.04417969 8.84375 0.04882812 C11.2995391 0.0606348 13.75520854 0.07710225 16.2109375 0.09765625 C16.5409375 0.75765625 16.8709375 1.41765625 17.2109375 2.09765625 C9.2909375 2.42765625 1.3709375 2.75765625 -6.7890625 3.09765625 C-6.7890625 2.43765625 -6.7890625 1.77765625 -6.7890625 1.09765625 C-4.33631109 -0.12871945 -2.7384844 -0.01649689 0 0 Z " fill="#0191E2" transform="translate(228.7890625,208.90234375)"/>
<path d="M0 0 C0 0.99 0 1.98 0 3 C-9.22095672 4.87699317 -9.22095672 4.87699317 -13.5625 5.5625 C-15.94014233 5.7497875 -15.94014233 5.7497875 -17 7 C-18.99958364 7.04080783 -21.00045254 7.04254356 -23 7 C-19.68742918 4.79161945 -16.36583975 3.61713212 -12.625 2.375 C-11.965 2.14554688 -11.305 1.91609375 -10.625 1.6796875 C-6.97578468 0.45843616 -3.85183766 -0.28256724 0 0 Z " fill="#41A5DC" transform="translate(181,10)"/>
<path d="M0 0 C-1.95467752 1.33898399 -3.9133579 2.67129047 -5.875 4 C-6.96554687 4.7425 -8.05609375 5.485 -9.1796875 6.25 C-12 8 -12 8 -14 8 C-14.33 6.35 -14.66 4.7 -15 3 C-13.68 2.01 -12.36 1.02 -11 0 C-10.01 0.99 -9.02 1.98 -8 3 C-8 2.34 -8 1.68 -8 1 C-2.25 -1.125 -2.25 -1.125 0 0 Z " fill="#1798DC" transform="translate(392,457)"/>
<path d="M0 0 C2.4375 0.8125 2.4375 0.8125 5 2 C5.33 2.99 5.66 3.98 6 5 C6.66 5.33 7.32 5.66 8 6 C8.40729228 8.32156597 8.74438677 10.6568787 9 13 C9.66 13 10.32 13 11 13 C11 14.65 11 16.3 11 18 C7.8411676 14.28907079 5.51404508 10.49789353 3.25 6.1875 C2.63640625 5.02605469 2.0228125 3.86460937 1.390625 2.66796875 C0.93171875 1.78753906 0.4728125 0.90710938 0 0 Z " fill="#3FA8DC" transform="translate(28,367)"/>
<path d="M0 0 C-5 4 -10 8 -15 12 C-16.125 8.25 -16.125 8.25 -15 6 C-13.02 6 -11.04 6 -9 6 C-9 4.68 -9 3.36 -9 2 C-5.86501708 0.14223235 -3.62528568 -0.20140476 0 0 Z " fill="#41A6DC" transform="translate(410,443)"/>
<path d="M0 0 C6.20477864 1.93624298 12.10825719 4.25609141 18 7 C18 7.33 18 7.66 18 8 C14.10981937 7.60304279 10.78285596 7.02467048 7.25 5.375 C4.07257549 3.60865241 4.07257549 3.60865241 1 5 C0.01 4.34 -0.98 3.68 -2 3 C-1.34 3 -0.68 3 0 3 C0 2.01 0 1.02 0 0 Z " fill="#3DA5DA" transform="translate(342,17)"/>
<path d="M0 0 C0.66 0 1.32 0 2 0 C1.91802415 2.78717889 1.43764605 4.51752767 -0.44921875 6.59765625 C-3.73536039 9.49887023 -6.74427801 11.71038728 -11 13 C-10.57847656 12.51789063 -10.15695313 12.03578125 -9.72265625 11.5390625 C-9.17480469 10.90742187 -8.62695312 10.27578125 -8.0625 9.625 C-7.51722656 8.99851562 -6.97195312 8.37203125 -6.41015625 7.7265625 C-4.93041376 6.04367666 -4.93041376 6.04367666 -4 4 C-3.34 4 -2.68 4 -2 4 C-1.34 2.68 -0.68 1.36 0 0 Z " fill="#41A2DC" transform="translate(67,78)"/>
<path d="M0 0 C0.66 0 1.32 0 2 0 C2 1.98 2 3.96 2 6 C1.34 6 0.68 6 0 6 C0.020625 6.804375 0.04125 7.60875 0.0625 8.4375 C0 11 0 11 -1 12 C-1.23192865 13.51469448 -1.41215238 15.03754562 -1.5625 16.5625 C-1.64628906 17.38878906 -1.73007813 18.21507812 -1.81640625 19.06640625 C-1.87699219 19.70449219 -1.93757812 20.34257812 -2 21 C-4 19 -4 19 -4.08203125 17.1875 C-3.34785391 11.22895927 -1.89019026 5.69434675 0 0 Z " fill="#359CD7" transform="translate(11,172)"/>
<path d="M0 0 C-3.36404218 2.24269478 -6.75716923 3.38655744 -10.5625 4.625 C-11.24763672 4.85445313 -11.93277344 5.08390625 -12.63867188 5.3203125 C-17.73272414 7 -17.73272414 7 -20 7 C-20 6.34 -20 5.68 -20 5 C-17.79567015 4.15450362 -15.58751467 3.32357186 -13.375 2.5 C-11.53035156 1.80390625 -11.53035156 1.80390625 -9.6484375 1.09375 C-6.18957134 0.05683081 -3.57814964 -0.22019382 0 0 Z " fill="#41A3D8" transform="translate(342,483)"/>
<path d="M0 0 C0.68707031 0.0721875 1.37414062 0.144375 2.08203125 0.21875 C2.98308594 0.3115625 3.88414062 0.404375 4.8125 0.5 C5.70582031 0.5928125 6.59914062 0.685625 7.51953125 0.78125 C10.08305099 1.04392401 10.08305099 1.04392401 13 1 C13.33 2.32 13.66 3.64 14 5 C10.08428299 6.305239 8.96107003 5.32239848 5.3125 3.5625 C4.31863281 3.08941406 3.32476562 2.61632812 2.30078125 2.12890625 C1.54152344 1.75636719 0.78226563 1.38382812 0 1 C0 0.67 0 0.34 0 0 Z " fill="#31A3DD" transform="translate(134,472)"/>
<path d="M0 0 C2.97 0.495 2.97 0.495 6 1 C6 2.32 6 3.64 6 5 C6.99 5.33 7.98 5.66 9 6 C9 7.65 9 9.3 9 11 C9.66 11.33 10.32 11.66 11 12 C10.01 12 9.02 12 8 12 C5.95703125 9.62890625 5.95703125 9.62890625 3.8125 6.5625 C3.09707031 5.55316406 2.38164063 4.54382813 1.64453125 3.50390625 C0 1 0 1 0 0 Z " fill="#3CA5DB" transform="translate(42,390)"/>
<path d="M0 0 C1.60294922 0.16628906 1.60294922 0.16628906 3.23828125 0.3359375 C4.04652344 0.43132812 4.85476563 0.52671875 5.6875 0.625 C0.82170184 3.3282212 -3.61849244 3.75384346 -9.125 3.6875 C-10.58873047 3.67396484 -10.58873047 3.67396484 -12.08203125 3.66015625 C-13.18611328 3.64275391 -13.18611328 3.64275391 -14.3125 3.625 C-9.29102012 0.27734675 -6.03366288 -0.66303988 0 0 Z " fill="#31A1D9" transform="translate(312.3125,490.375)"/>
<path d="M0 0 C2.61841871 2.61841871 2.81850937 4.71587765 3.625 8.3125 C3.88539063 9.44300781 4.14578125 10.57351562 4.4140625 11.73828125 C4.9267439 14.59220771 5.11914675 17.11339907 5 20 C4.34 20 3.68 20 3 20 C1.09579269 13.19925959 -0.40850553 7.08076251 0 0 Z " fill="#4EAAD9" transform="translate(491,184)"/>
<path d="M0 0 C0.845625 0.309375 1.69125 0.61875 2.5625 0.9375 C6.04680608 2.01446733 9.39471328 2.50515672 13 3 C14 4 14 4 14 9 C7.07 5.04 7.07 5.04 0 1 C0 0.67 0 0.34 0 0 Z " fill="#36A3D9" transform="translate(119,463)"/>
<path d="M0 0 C0.33 0 0.66 0 1 0 C1.28934017 4.91878297 1.27699736 8.15800309 -2 12 C-4.6875 12.8125 -4.6875 12.8125 -7 13 C-7 12.34 -7 11.68 -7 11 C-6.34 11 -5.68 11 -5 11 C-4.731875 10.29875 -4.46375 9.5975 -4.1875 8.875 C-2.9318551 5.8350176 -1.49764877 2.9272226 0 0 Z " fill="#4DABE0" transform="translate(350,280)"/>
<path d="M0 0 C1.12021481 3.32279933 0.88681157 5.26909001 -0.25 8.5625 C-0.50265625 9.32691406 -0.7553125 10.09132813 -1.015625 10.87890625 C-2.05827428 13.12556721 -3.24130601 14.2933104 -5 16 C-5.33 16.99 -5.66 17.98 -6 19 C-6.66 19 -7.32 19 -8 19 C-6.21127475 14.42419121 -4.17969187 9.98271532 -2.12109375 5.5234375 C-0.93154689 2.95494272 -0.93154689 2.95494272 0 0 Z " fill="#67B8E3" transform="translate(361,257)"/>
<path d="M0 0 C2 2 2 2 2.1953125 5.9140625 C2.18200376 7.48449351 2.15813602 9.05486221 2.125 10.625 C2.11597656 11.42679688 2.10695313 12.22859375 2.09765625 13.0546875 C2.07406223 15.03658523 2.03819065 17.01832981 2 19 C-0.64997034 16.35684192 -0.9969914 15.14884659 -1.07421875 11.328125 C-0.96191582 9.96727774 -0.832515 8.60775103 -0.6875 7.25 C-0.62626953 6.55261719 -0.56503906 5.85523438 -0.50195312 5.13671875 C-0.34937092 3.42310319 -0.17666411 1.7113005 0 0 Z " fill="#138CCF" transform="translate(333,211)"/>
<path d="M0 0 C3.29967665 2.80472516 5.08459104 6.16918209 7 10 C6.67 10.99 6.34 11.98 6 13 C5.34 13 4.68 13 4 13 C4 12.01 4 11.02 4 10 C3.34 10 2.68 10 2 10 C0.68373308 6.38026598 0 3.90432869 0 0 Z " fill="#38A4D9" transform="translate(465,122)"/>
<path d="M0 0 C0.33 1.32 0.66 2.64 1 4 C-0.65 4.33 -2.3 4.66 -4 5 C-4 5.66 -4 6.32 -4 7 C-5.88069983 9.6120831 -6.97535795 9.99468505 -10.1875 10.6875 C-11.5796875 10.8421875 -11.5796875 10.8421875 -13 11 C-10.24881027 8.14784917 -7.39684775 5.65641299 -4.25 3.25 C-3.45078125 2.63640625 -2.6515625 2.0228125 -1.828125 1.390625 C-1.22484375 0.93171875 -0.6215625 0.4728125 0 0 Z " fill="#38A5D5" transform="translate(102,47)"/>
<path d="M0 0 C-4.04134931 2.69423287 -5.80989528 3.11848959 -10.625 3.0625 C-11.62789062 3.05347656 -12.63078125 3.04445313 -13.6640625 3.03515625 C-14.43492187 3.02355469 -15.20578125 3.01195312 -16 3 C-16 2.34 -16 1.68 -16 1 C-10.61509359 0.08342019 -5.45769811 -0.11138159 0 0 Z " fill="#5EB4DE" transform="translate(254,348)"/>
<path d="M0 0 C2.12075567 3.18113351 3.06017176 5.92004956 4.1875 9.5625 C4.55230469 10.71878906 4.91710937 11.87507812 5.29296875 13.06640625 C6 16 6 16 5 18 C0.36070726 12.72807643 -0.27818815 6.81560969 0 0 Z " fill="#44A2D7" transform="translate(485,163)"/>
<path d="M0 0 C3.42931954 3.7559214 4.56429083 8.23466745 6 13 C3.08482708 11.92598892 1.22189824 11.22189824 -1 9 C-0.34 9 0.32 9 1 9 C0.67 6.03 0.34 3.06 0 0 Z " fill="#38A0DC" transform="translate(473,136)"/>
<path d="M0 0 C0.33 0 0.66 0 1 0 C1.67012098 6.19861907 -0.75052827 11.35623611 -3 17 C-3.66 17 -4.32 17 -5 17 C-5 15.68 -5 14.36 -5 13 C-4.34 13 -3.68 13 -3 13 C-2.86722656 12.14535156 -2.73445313 11.29070312 -2.59765625 10.41015625 C-2.33275391 8.75306641 -2.33275391 8.75306641 -2.0625 7.0625 C-1.88847656 5.96035156 -1.71445312 4.85820312 -1.53515625 3.72265625 C-1 1 -1 1 0 0 Z " fill="#3F9ED5" transform="translate(488,322)"/>
<path d="M0 0 C2.31 0.33 4.62 0.66 7 1 C7 1.99 7 2.98 7 4 C7.66 4 8.32 4 9 4 C9 4.66 9 5.32 9 6 C10.32 6.33 11.64 6.66 13 7 C13 7.66 13 8.32 13 9 C7.97290493 7.42903279 3.97133531 4.38006951 0 1 C0 0.67 0 0.34 0 0 Z " fill="#3DA2D8" transform="translate(98,449)"/>
<path d="M0 0 C1.32 0.33 2.64 0.66 4 1 C-0.455 6.94 -0.455 6.94 -5 13 C-5.33 11.68 -5.66 10.36 -6 9 C-5.34 9 -4.68 9 -4 9 C-3.34 7.02 -2.68 5.04 -2 3 C-1.01 3 -0.02 3 1 3 C0.67 2.01 0.34 1.02 0 0 Z " fill="#4CAAD9" transform="translate(451,394)"/>
<path d="M0 0 C0.66 0.33 1.32 0.66 2 1 C-0.51636411 5.19394018 -2.50770483 7.926633 -7 10 C-7.99 10 -8.98 10 -10 10 C-6.7 6.7 -3.4 3.4 0 0 Z " fill="#40A1D5" transform="translate(80,65)"/>
<path d="M0 0 C1.65 0 3.3 0 5 0 C5.268125 0.804375 5.53625 1.60875 5.8125 2.4375 C6.204375 3.283125 6.59625 4.12875 7 5 C7.99 5.33 8.98 5.66 10 6 C9.34 7.32 8.68 8.64 8 10 C7.67 9.01 7.34 8.02 7 7 C6.34 7 5.68 7 5 7 C3.7109375 5.46875 3.7109375 5.46875 2.375 3.5 C1.70597656 2.52546875 1.70597656 2.52546875 1.0234375 1.53125 C0.68570313 1.0259375 0.34796875 0.520625 0 0 Z " fill="#3FA3DA" transform="translate(58,411)"/>
<path d="M0 0 C-0.99 0 -1.98 0 -3 0 C-3 0.66 -3 1.32 -3 2 C-6.96 2.66 -10.92 3.32 -15 4 C-14 2 -14 2 -11.85546875 1.11328125 C-10.97503906 0.84902344 -10.09460938 0.58476562 -9.1875 0.3125 C-8.31480469 0.04050781 -7.44210937 -0.23148437 -6.54296875 -0.51171875 C-3.93126166 -1.01319861 -2.48283616 -0.86233704 0 0 Z " fill="#4DABDB" transform="translate(296,337)"/>
<path d="M0 0 C2.00753698 1.09040327 4.00588751 2.19773572 6 3.3125 C7.11375 3.92738281 8.2275 4.54226563 9.375 5.17578125 C10.24125 5.77777344 11.1075 6.37976563 12 7 C12 7.99 12 8.98 12 10 C11.67 9.34 11.34 8.68 11 8 C9.66961551 7.6550855 8.33542939 7.32483418 7 7 C3.8125 5.6875 3.8125 5.6875 1 4 C0.32421875 1.89453125 0.32421875 1.89453125 0 0 Z " fill="#6DBBDF" transform="translate(154,330)"/>
<path d="M0 0 C0.66 0 1.32 0 2 0 C3.33583899 4.84241633 4.25328119 8.93437617 4 14 C3.67 12.68 3.34 11.36 3 10 C2.34 10 1.68 10 1 10 C-0.60725635 6.78548731 -0.05748185 3.56387464 0 0 Z " fill="#4BA8D8" transform="translate(129,282)"/>
<path d="M0 0 C0.33 0 0.66 0 1 0 C0.52013969 5.56890517 -0.29915181 10.67067568 -2 16 C-2.33 16 -2.66 16 -3 16 C-3 12.37 -3 8.74 -3 5 C-2.34 5 -1.68 5 -1 5 C-0.67 3.35 -0.34 1.7 0 0 Z " fill="#088CD6" transform="translate(3,222)"/>
<path d="M0 0 C1.37351794 3.12163168 0.89111525 4.33811581 -0.1875 7.6875 C-2 11 -2 11 -4.1875 11.9375 C-4.785625 11.958125 -5.38375 11.97875 -6 12 C-4.43358249 7.69235185 -2.31663844 3.93828536 0 0 Z " fill="#3DA5DC" transform="translate(41,110)"/>
<path d="M0 0 C-3.38583802 3.13107836 -5.71109462 3.33550778 -10.25 3.1875 C-11.86648437 3.14689453 -11.86648437 3.14689453 -13.515625 3.10546875 C-14.33546875 3.07066406 -15.1553125 3.03585937 -16 3 C-10.60634314 0.2066535 -6.07347984 -0.11908784 0 0 Z " fill="#42A5D8" transform="translate(207,4)"/>
<path d="M0 0 C0.99 0.33 1.98 0.66 3 1 C2.0479279 2.00596297 1.08812654 3.00461563 0.125 4 C-0.40867187 4.556875 -0.94234375 5.11375 -1.4921875 5.6875 C-3 7 -3 7 -5 7 C-5.33 7.66 -5.66 8.32 -6 9 C-6 7.02 -6 5.04 -6 3 C-4.68 3.33 -3.36 3.66 -2 4 C-2 3.01 -2 2.02 -2 1 C-1.34 0.67 -0.68 0.34 0 0 Z " fill="#49ACDB" transform="translate(423,428)"/>
<path d="M0 0 C1.32 0.33 2.64 0.66 4 1 C0.04 6.94 0.04 6.94 -4 13 C-4.33 12.34 -4.66 11.68 -5 11 C-4.67 10.01 -4.34 9.02 -4 8 C-3.34 8 -2.68 8 -2 8 C-1.7834375 7.13375 -1.7834375 7.13375 -1.5625 6.25 C-1.04166667 4.16666667 -0.52083333 2.08333333 0 0 Z " fill="#41A5D6" transform="translate(461,379)"/>
<path d="M0 0 C0.66 0 1.32 0 2 0 C6.59225513 8.261959 6.59225513 8.261959 6 13 C2.57068046 9.2440786 1.43570917 4.76533255 0 0 Z " fill="#41A9DB" transform="translate(21,351)"/>
<path d="M0 0 C0.75 1.75 0.75 1.75 1 4 C-1.05226666 6.76266666 -2.41531259 7.8405398 -5.75 8.75 C-6.86375 8.87375 -6.86375 8.87375 -8 9 C-7.04270084 7.87411986 -6.08412105 6.7493285 -5.125 5.625 C-4.59132813 4.99851562 -4.05765625 4.37203125 -3.5078125 3.7265625 C-2.38567993 2.44163349 -1.20628025 1.20628025 0 0 Z " fill="#50B2E3" transform="translate(333,305)"/>
<path d="M0 0 C2.10494301 0.08708038 4.20902142 0.19525693 6.3125 0.3125 C8.07013672 0.39951172 8.07013672 0.39951172 9.86328125 0.48828125 C13.0983686 1.01604768 14.08684881 1.42380724 16 4 C10.43109483 3.52013969 5.32932432 2.70084819 0 1 C0 0.67 0 0.34 0 0 Z " fill="#52AADB" transform="translate(179,490)"/>
<path d="M0 0 C0 0.66 0 1.32 0 2 C0.66 2 1.32 2 2 2 C2.33 3.32 2.66 4.64 3 6 C0 6 0 6 -2 5 C-2 4.34 -2 3.68 -2 3 C-2.99 2.67 -3.98 2.34 -5 2 C-2 0 -2 0 0 0 Z " fill="#3CA2DB" transform="translate(84,432)"/>
<path d="M0 0 C0.66 1.32 1.32 2.64 2 4 C-0.96178773 5.67110042 -3.37071192 6.32682752 -6.75 6.625 C-7.54921875 6.69976562 -8.3484375 6.77453125 -9.171875 6.8515625 C-10.07679688 6.92503906 -10.07679688 6.92503906 -11 7 C-10.67 6.34 -10.34 5.68 -10 5 C-7.69 5 -5.38 5 -3 5 C-3 4.01 -3 3.02 -3 2 C-2.01 2 -1.02 2 0 2 C0 1.34 0 0.68 0 0 Z " fill="#6BBDE3" transform="translate(339,237)"/>
<path d="M0 0 C0 3.10551666 -0.5393715 4.35261084 -2 7 C-3.32 7 -4.64 7 -6 7 C-6 7.66 -6 8.32 -6 9 C-7.32 8.67 -8.64 8.34 -10 8 C-9.44570313 7.59007812 -8.89140625 7.18015625 -8.3203125 6.7578125 C-7.59585937 6.21898437 -6.87140625 5.68015625 -6.125 5.125 C-5.04605469 4.32449219 -5.04605469 4.32449219 -3.9453125 3.5078125 C-1.91747368 2.00126838 -1.91747368 2.00126838 0 0 Z " fill="#78C0E4" transform="translate(398,240)"/>
<path d="M0 0 C0 0.99 0 1.98 0 3 C-3.47823115 4.15941038 -5.45895578 3.70820884 -9 3 C-9 2.34 -9 1.68 -9 1 C-5.92677456 0.08941469 -3.19902639 -0.08886184 0 0 Z " fill="#2697D7" transform="translate(181,10)"/>
<path d="M0 0 C0.66 0.33 1.32 0.66 2 1 C1.46930939 4.82097239 0.50298434 7.06171403 -2 10 C-2.33 7.69 -2.66 5.38 -3 3 C-2.34 3 -1.68 3 -1 3 C-0.67 2.01 -0.34 1.02 0 0 Z " fill="#35A8DB" transform="translate(475,354)"/>
<path d="M0 0 C-4.95 2.97 -4.95 2.97 -10 6 C-10.33 5.01 -10.66 4.02 -11 3 C-10.01 3 -9.02 3 -8 3 C-8 2.34 -8 1.68 -8 1 C-2.25 -1.125 -2.25 -1.125 0 0 Z " fill="#3DA3D7" transform="translate(392,457)"/>
<path d="M0 0 C1.98 0 3.96 0 6 0 C6 1.65 6 3.3 6 5 C6.66 5.33 7.32 5.66 8 6 C5 6 5 6 3.61328125 4.6875 C2.40885417 3.125 1.20442708 1.5625 0 0 Z " fill="#2897D6" transform="translate(70,424)"/>
<path d="M0 0 C1.32 0.33 2.64 0.66 4 1 C2.02 3.31 0.04 5.62 -2 8 C-2.33 7.01 -2.66 6.02 -3 5 C-2.34 5 -1.68 5 -1 5 C-0.67 3.35 -0.34 1.7 0 0 Z " fill="#38A1DB" transform="translate(440,408)"/>
<path d="M0 0 C0.33 1.32 0.66 2.64 1 4 C-0.98 3.34 -2.96 2.68 -5 2 C-5.66 2.66 -6.32 3.32 -7 4 C-7 2.68 -7 1.36 -7 0 C-4.3333581 -1.33332095 -2.83319697 -0.67102033 0 0 Z " fill="#6FBCE4" transform="translate(350,189)"/>
<path d="M0 0 C0.33 1.32 0.66 2.64 1 4 C0.01 5.485 0.01 5.485 -1 7 C-1.99 7 -2.98 7 -4 7 C-4 7.66 -4 8.32 -4 9 C-4.66 8.67 -5.32 8.34 -6 8 C-4.02 5.36 -2.04 2.72 0 0 Z " fill="#3AA4D6" transform="translate(55,92)"/>
<path d="M0 0 C0.33 0.66 0.66 1.32 1 2 C1.804375 2.309375 2.60875 2.61875 3.4375 2.9375 C6 4 6 4 8 7 C5.69 6.67 3.38 6.34 1 6 C0.67 4.02 0.34 2.04 0 0 Z " fill="#1A94D4" transform="translate(433,81)"/>
<path d="M0 0 C2.88437779 1.29299694 4.87219421 2.65941363 7 5 C6.01 5.495 6.01 5.495 5 6 C2.375 5.0625 2.375 5.0625 0 4 C0 2.68 0 1.36 0 0 Z " fill="#38A1D8" transform="translate(396,47)"/>
<path d="M0 0 C0 0.66 0 1.32 0 2 C-0.99 2 -1.98 2 -3 2 C-3.28875 2.639375 -3.5775 3.27875 -3.875 3.9375 C-5 6 -5 6 -7 7 C-7.66 6.34 -8.32 5.68 -9 5 C-8.34 5 -7.68 5 -7 5 C-7 4.01 -7 3.02 -7 2 C-2.25 0 -2.25 0 0 0 Z " fill="#299AD7" transform="translate(149,21)"/>
<path d="M0 0 C-1.32 0.33 -2.64 0.66 -4 1 C-4 1.99 -4 2.98 -4 4 C-5.32 4 -6.64 4 -8 4 C-8 2.68 -8 1.36 -8 0 C-5.13822943 -1.43088528 -3.06624227 -0.59991697 0 0 Z " fill="#1999DB" transform="translate(324,10)"/>
<path d="M0 0 C0.33 0.99 0.66 1.98 1 3 C-3.29 2.67 -7.58 2.34 -12 2 C-12 1.67 -12 1.34 -12 1 C-7.95858806 0.36605303 -4.0934693 -0.12404452 0 0 Z " fill="#69B8DD" transform="translate(396,219)"/>
<path d="M0 0 C1.9375 0.3125 1.9375 0.3125 4 1 C4.33 1.99 4.66 2.98 5 4 C5.66 4 6.32 4 7 4 C7 4.99 7 5.98 7 7 C6.34 7 5.68 7 5 7 C5 6.34 5 5.68 5 5 C4.34 5 3.68 5 3 5 C3 4.34 3 3.68 3 3 C2.01 2.67 1.02 2.34 0 2 C0 1.34 0 0.68 0 0 Z " fill="#50AEDC" transform="translate(353,193)"/>
<path d="M0 0 C2 3 2 3 1.625 5.6875 C1.41875 6.450625 1.2125 7.21375 1 8 C-0.32 8.33 -1.64 8.66 -3 9 C-2.01 6.03 -1.02 3.06 0 0 Z " fill="#48ACDF" transform="translate(20,149)"/>
<path d="M0 0 C0.33 0.66 0.66 1.32 1 2 C3.01669827 3.13350534 3.01669827 3.13350534 5 4 C3 5 3 5 0.8359375 4.44140625 C0.02382812 4.15136719 -0.78828125 3.86132812 -1.625 3.5625 C-2.44226563 3.27503906 -3.25953125 2.98757813 -4.1015625 2.69140625 C-4.72804687 2.46324219 -5.35453125 2.23507812 -6 2 C-6 1.67 -6 1.34 -6 1 C-4.02 0.67 -2.04 0.34 0 0 Z " fill="#48A5DB" transform="translate(164,482)"/>
<path d="M0 0 C2.625 0.375 2.625 0.375 5 1 C-0.14285714 5.42857143 -0.14285714 5.42857143 -4 6 C-4 5.34 -4 4.68 -4 4 C-3.34 4 -2.68 4 -2 4 C-2 3.34 -2 2.68 -2 2 C-1.34 1.34 -0.68 0.68 0 0 Z " fill="#42A6DC" transform="translate(368,467)"/>
<path d="M0 0 C0.99 0.33 1.98 0.66 3 1 C2.34 1 1.68 1 1 1 C0.7525 1.598125 0.505 2.19625 0.25 2.8125 C-1.16370012 5.28647521 -2.65055383 6.43370255 -5 8 C-5 6.68 -5 5.36 -5 4 C-4.01 4 -3.02 4 -2 4 C-1.34 2.68 -0.68 1.36 0 0 Z " fill="#57B1DB" transform="translate(434,417)"/>
<path d="M0 0 C0.33 0 0.66 0 1 0 C1.6875 2.75 1.6875 2.75 2 6 C0.5625 8.375 0.5625 8.375 -1 10 C-2.25 3.375 -2.25 3.375 0 0 Z " fill="#249EE2" transform="translate(468,365)"/>
<path d="M0 0 C2.35448165 2.55068845 2.98327924 3.71017358 3.1875 7.25 C3.125625 8.1575 3.06375 9.065 3 10 C0.51280729 7.08025204 -0.58572305 4.83206182 -1 1 C-0.67 0.67 -0.34 0.34 0 0 Z " fill="#50ADDD" transform="translate(18,341)"/>
<path d="M0 0 C0 0.99 0 1.98 0 3 C-0.99 3 -1.98 3 -3 3 C-3.33 3.99 -3.66 4.98 -4 6 C-4.66 6 -5.32 6 -6 6 C-6 5.34 -6 4.68 -6 4 C-6.66 3.67 -7.32 3.34 -8 3 C-5.36 2.01 -2.72 1.02 0 0 Z " fill="#4AB0DF" transform="translate(387,249)"/>
<path d="M0 0 C0.33 0 0.66 0 1 0 C1 1.65 1 3.3 1 5 C-0.98 5.99 -0.98 5.99 -3 7 C-3.33 6.01 -3.66 5.02 -4 4 C-2.68 3.34 -1.36 2.68 0 2 C0 1.34 0 0.68 0 0 Z " fill="#1591DB" transform="translate(428,421)"/>
<path d="M0 0 C1 2 1 2 0.375 4.5 C-1 7 -1 7 -3.625 8.3125 C-4.40875 8.539375 -5.1925 8.76625 -6 9 C-4.16172132 5.84866512 -2.24027294 2.88035092 0 0 Z " fill="#66B6E2" transform="translate(340,296)"/>
<path d="M0 0 C1.32 0 2.64 0 4 0 C4.33 2.64 4.66 5.28 5 8 C2.27573689 5.64722731 1.1858237 3.37503669 0 0 Z " fill="#51B0E2" transform="translate(360,200)"/>
<path d="M0 0 C2.97 1.65 5.94 3.3 9 5 C9 5.99 9 6.98 9 8 C8.67 7.34 8.34 6.68 8 6 C7.030625 5.71125 6.06125 5.4225 5.0625 5.125 C2 4 2 4 0 0 Z " fill="#3DA0D7" transform="translate(385,39)"/>
<path d="M0 0 C3.45925163 1.2491742 6.14693203 2.67527795 9 5 C5.625 4.75 5.625 4.75 2 4 C0.5625 1.9375 0.5625 1.9375 0 0 Z " fill="#46AADB" transform="translate(371,31)"/>
<path d="M0 0 C3.91211733 1.15585285 6.8745041 2.35534962 10 5 C7.36 4.67 4.72 4.34 2 4 C2 3.34 2 2.68 2 2 C1.34 2 0.68 2 0 2 C0 1.34 0 0.68 0 0 Z " fill="#52AEDD" transform="translate(360,25)"/>
<path d="M0 0 C3.3 0.33 6.6 0.66 10 1 C6.00889681 2.9955516 4.30013434 3.19546065 0 3 C0 2.01 0 1.02 0 0 Z " fill="#168DCE" transform="translate(270,496)"/>
<path d="M0 0 C0.66 0.33 1.32 0.66 2 1 C0.25 6.75 0.25 6.75 -2 9 C-2.25 3.375 -2.25 3.375 0 0 Z " fill="#49AADC" transform="translate(479,346)"/>
<path d="M0 0 C1.98 1.65 3.96 3.3 6 5 C5.67 5.66 5.34 6.32 5 7 C3.0625 6.3125 3.0625 6.3125 1 5 C0.25 2.375 0.25 2.375 0 0 Z " fill="#2595D3" transform="translate(424,70)"/>
<path d="M0 0 C0.33 0.66 0.66 1.32 1 2 C3.52733235 2.65555119 3.52733235 2.65555119 6 3 C6 3.33 6 3.66 6 4 C2.625 4.125 2.625 4.125 -1 4 C-1.66 3.34 -2.32 2.68 -3 2 C-2.01 1.34 -1.02 0.68 0 0 Z " fill="#098ED6" transform="translate(196,490)"/>
<path d="M0 0 C0.66 0.99 1.32 1.98 2 3 C-2.625 5.125 -2.625 5.125 -6 4 C-3.94766315 1.7522025 -2.99332739 0.9977758 0 0 Z " fill="#0D8DD5" transform="translate(353,474)"/>
<path d="M0 0 C0.66 1.32 1.32 2.64 2 4 C2.66 4 3.32 4 4 4 C4 4.66 4 5.32 4 6 C0.62496331 4.8141763 -1.64722731 3.72426311 -4 1 C-2.68 1.33 -1.36 1.66 0 2 C0 1.34 0 0.68 0 0 Z " fill="#319CD5" transform="translate(115,457)"/>
<path d="M0 0 C0.99 0.33 1.98 0.66 3 1 C2.6875 2.9375 2.6875 2.9375 2 5 C1.01 5.33 0.02 5.66 -1 6 C-0.67 4.02 -0.34 2.04 0 0 Z " fill="#309CD7" transform="translate(395,449)"/>
<path d="M0 0 C0.66 0 1.32 0 2 0 C1.67 1.65 1.34 3.3 1 5 C0.01 5.33 -0.98 5.66 -2 6 C-1.125 1.125 -1.125 1.125 0 0 Z " fill="#319FD5" transform="translate(67,78)"/>
<path d="M0 0 C0.66 0.33 1.32 0.66 2 1 C1.34 2.32 0.68 3.64 0 5 C-1.65 4.67 -3.3 4.34 -5 4 C-3.35 2.68 -1.7 1.36 0 0 Z " fill="#37A5DE" transform="translate(120,35)"/>
</svg>
