<?xml version="1.0" encoding="UTF-8"?>
<svg xmlns="http://www.w3.org/2000/svg" xmlns:xlink="http://www.w3.org/1999/xlink" width="300px" height="300px" viewBox="0 0 300 300" version="1.1">
<g id="surface1">
<path style=" stroke:none;fill-rule:nonzero;fill:rgb(30.19608%,21.960784%,95.686275%);fill-opacity:1;" d="M 101.171875 11.671875 C 103.757812 11.671875 103.757812 11.671875 106.347656 11.621094 C 111.035156 11.621094 115.722656 11.621094 120.410156 11.621094 C 125.292969 11.671875 130.226562 11.621094 135.15625 11.621094 C 143.40625 11.621094 151.609375 11.621094 159.863281 11.671875 C 169.382812 11.671875 178.90625 11.671875 188.429688 11.671875 C 196.632812 11.621094 204.835938 11.621094 212.988281 11.621094 C 217.871094 11.621094 222.753906 11.621094 227.636719 11.621094 C 233.105469 11.621094 238.523438 11.621094 243.992188 11.671875 C 246.386719 11.671875 246.386719 11.671875 248.875 11.621094 C 268.601562 11.71875 268.601562 11.71875 276.414062 17.675781 C 281.640625 23 284.179688 27.539062 284.667969 35.007812 C 283.9375 48.828125 273.242188 61.71875 266.164062 73.242188 C 265.1875 74.851562 264.210938 76.464844 263.234375 78.078125 C 260.398438 82.714844 257.519531 87.351562 254.6875 91.992188 C 253.367188 94.09375 253.367188 94.09375 252.050781 96.289062 C 251.21875 97.558594 250.4375 98.875 249.609375 100.195312 C 248.535156 101.90625 248.535156 101.90625 247.460938 103.664062 C 243.40625 109.421875 238.71875 113.769531 231.984375 116.015625 C 228.757812 116.210938 225.539062 116.359375 222.265625 116.40625 C 221.335938 116.453125 220.410156 116.453125 219.433594 116.503906 C 216.40625 116.601562 213.429688 116.648438 210.398438 116.75 C 208.398438 116.796875 206.347656 116.84375 204.296875 116.945312 C 199.316406 117.089844 194.335938 117.1875 189.355469 117.335938 C 189.84375 118.40625 190.382812 119.53125 190.917969 120.605469 C 192.871094 124.757812 194.824219 128.859375 196.726562 132.960938 C 197.558594 134.765625 198.390625 136.523438 199.265625 138.28125 C 204.539062 149.171875 209.570312 159.667969 206.6875 172.023438 C 203.808594 178.664062 200.195312 184.667969 196.335938 190.773438 C 195.3125 192.429688 194.238281 194.140625 193.210938 195.851562 C 191.164062 199.21875 189.0625 202.585938 186.960938 205.957031 C 184.328125 210.15625 181.738281 214.355469 179.199219 218.554688 C 177.832031 220.851562 176.464844 223.09375 175.097656 225.34375 C 174.460938 226.320312 173.875 227.34375 173.242188 228.367188 C 168.796875 235.449219 164.210938 241.257812 156.007812 243.992188 C 152 244.09375 148 244.140625 143.992188 244.09375 C 141.554688 244.09375 139.109375 244.140625 136.671875 244.140625 C 132.859375 244.140625 129.003906 244.1875 125.195312 244.140625 C 121.484375 244.09375 117.773438 244.140625 114.0625 244.1875 C 112.351562 244.140625 112.351562 244.140625 110.644531 244.09375 C 104.148438 244.238281 100.78125 245.164062 96.140625 249.757812 C 94.726562 251.367188 93.359375 253.027344 91.992188 254.6875 C 85.9375 261.71875 79.6875 268.507812 73.144531 275.148438 C 71.972656 276.414062 71.972656 276.414062 70.75 277.6875 C 66.601562 281.835938 63.234375 285.203125 57.324219 286.671875 C 49.902344 286.570312 46.484375 285.742188 40.671875 280.8125 C 37.0625 277 35.253906 272.460938 33.25 267.675781 C 32.8125 266.601562 32.324219 265.578125 31.882812 264.5 C 30.421875 261.179688 29.003906 257.8125 27.585938 254.492188 C 26.609375 252.246094 25.632812 250 24.65625 247.753906 C 13.71875 222.609375 13.71875 222.609375 16.992188 213.183594 C 22.21875 202.246094 29.054688 192.039062 35.449219 181.738281 C 38.378906 177 41.210938 172.265625 44.09375 167.480469 C 44.578125 166.699219 45.070312 165.867188 45.554688 165.039062 C 46.828125 162.9375 48.09375 160.789062 49.316406 158.640625 C 49.902344 157.859375 50.4375 157.078125 51.023438 156.25 C 52.539062 151.710938 50.683594 149.171875 48.679688 144.921875 C 48.339844 144.09375 47.949219 143.3125 47.558594 142.429688 C 46.386719 139.84375 45.164062 137.257812 43.898438 134.667969 C 42.726562 132.128906 41.554688 129.589844 40.382812 127 C 39.601562 125.34375 38.820312 123.679688 38.039062 121.972656 C 25.976562 95.996094 25.976562 95.996094 27.976562 87.988281 C 32.324219 76.90625 39.0625 66.894531 45.410156 56.882812 C 48.390625 52.195312 51.269531 47.460938 54.101562 42.675781 C 54.929688 41.308594 55.761719 39.890625 56.59375 38.476562 C 58.25 35.742188 59.863281 33.007812 61.476562 30.273438 C 66.699219 21.582031 70.75 15.332031 81.007812 12.546875 C 87.648438 11.328125 94.433594 11.621094 101.171875 11.671875 Z M 77.148438 36.179688 C 75.828125 38.71875 74.5625 41.359375 73.339844 43.992188 C 71.972656 46.335938 70.554688 48.679688 69.140625 50.976562 C 66.601562 55.125 64.210938 59.375 61.765625 63.574219 C 60.742188 65.28125 59.765625 67.039062 58.742188 68.75 C 56.054688 73.390625 53.367188 78.027344 50.683594 82.664062 C 50.148438 83.496094 49.65625 84.328125 49.171875 85.203125 C 46.191406 89.84375 46.191406 89.84375 45.507812 95.164062 C 46.53125 97.609375 46.53125 97.609375 49.316406 98.679688 C 52.882812 98.78125 56.398438 98.828125 59.914062 98.828125 C 60.984375 98.828125 62.109375 98.828125 63.234375 98.828125 C 66.84375 98.828125 70.460938 98.828125 74.070312 98.78125 C 76.609375 98.78125 79.101562 98.78125 81.59375 98.78125 C 88.234375 98.78125 94.824219 98.78125 101.414062 98.78125 C 108.15625 98.730469 114.890625 98.730469 121.632812 98.730469 C 134.863281 98.730469 148.09375 98.679688 161.328125 98.679688 C 158.789062 90.625 155.859375 82.960938 152.390625 75.292969 C 151.953125 74.265625 151.515625 73.195312 151.023438 72.167969 C 150.046875 70.019531 149.121094 67.820312 148.144531 65.671875 C 146.679688 62.402344 145.214844 59.132812 143.75 55.859375 C 142.820312 53.757812 141.84375 51.609375 140.917969 49.511719 C 140.28125 48.046875 140.28125 48.046875 139.601562 46.582031 C 137.207031 41.210938 134.667969 35.9375 131.984375 30.664062 C 125.148438 30.320312 118.3125 30.078125 111.425781 29.929688 C 109.082031 29.882812 106.789062 29.785156 104.445312 29.640625 C 89.0625 28.222656 89.0625 28.222656 77.148438 36.179688 Z M 150.683594 30.664062 C 153.027344 38.132812 155.664062 45.265625 158.886719 52.34375 C 159.472656 53.664062 159.472656 53.664062 160.109375 54.980469 C 161.328125 57.714844 162.597656 60.449219 163.820312 63.183594 C 164.648438 64.992188 165.476562 66.796875 166.308594 68.601562 C 168.261719 72.949219 170.265625 77.246094 172.21875 81.59375 C 174.851562 87.257812 177.390625 92.96875 179.980469 98.679688 C 186.71875 98.78125 193.457031 98.875 200.195312 98.976562 C 202.492188 98.976562 204.785156 99.023438 207.078125 99.070312 C 210.398438 99.121094 213.671875 99.171875 216.992188 99.171875 C 218.015625 99.21875 219.042969 99.21875 220.070312 99.265625 C 224.511719 99.265625 227.34375 99.121094 231.054688 96.484375 C 233.742188 92.773438 236.132812 88.964844 238.429688 84.960938 C 238.914062 84.132812 239.355469 83.351562 239.84375 82.519531 C 241.359375 79.929688 242.871094 77.34375 244.335938 74.757812 C 245.800781 72.21875 247.265625 69.679688 248.730469 67.140625 C 249.707031 65.476562 250.683594 63.820312 251.609375 62.109375 C 254.054688 57.910156 256.542969 53.808594 259.132812 49.757812 C 259.667969 48.925781 260.15625 48.144531 260.695312 47.363281 C 262.0625 45.214844 263.476562 43.066406 264.890625 40.917969 C 266.945312 37.546875 266.945312 37.546875 266.359375 34.277344 C 265.476562 32.03125 265.476562 32.03125 264.015625 30.664062 C 260.449219 30.515625 256.984375 30.515625 253.46875 30.515625 C 252.34375 30.515625 251.21875 30.515625 250.097656 30.515625 C 246.4375 30.515625 242.773438 30.515625 239.0625 30.515625 C 236.523438 30.515625 233.984375 30.515625 231.445312 30.566406 C 224.757812 30.566406 218.066406 30.566406 211.375 30.566406 C 204.539062 30.566406 197.703125 30.617188 190.867188 30.617188 C 177.492188 30.617188 164.0625 30.617188 150.683594 30.664062 Z M 56.007812 116.015625 C 59.960938 128.613281 59.960938 128.613281 66.648438 142.675781 C 104.054688 142.234375 141.453125 141.796875 179.980469 141.359375 C 176.171875 128.859375 176.171875 128.859375 169.335938 116.015625 C 131.933594 116.015625 94.53125 116.015625 56.007812 116.015625 Z M 74.65625 158.640625 C 75.4375 163.183594 76.5625 167.089844 78.417969 171.289062 C 78.953125 172.414062 79.445312 173.535156 79.929688 174.707031 C 80.46875 175.929688 81.007812 177.148438 81.59375 178.367188 C 82.128906 179.640625 82.664062 180.90625 83.25 182.179688 C 84.421875 184.8125 85.59375 187.453125 86.765625 190.085938 C 88.574219 194.140625 90.382812 198.195312 92.140625 202.246094 C 93.3125 204.835938 94.433594 207.421875 95.554688 209.960938 C 96.09375 211.179688 96.632812 212.402344 97.21875 213.625 C 97.703125 214.746094 98.195312 215.917969 98.730469 217.039062 C 99.171875 218.066406 99.609375 219.042969 100.046875 220.070312 C 101.414062 223 101.414062 223 104.003906 226.660156 C 107.617188 227.050781 110.984375 227.246094 114.601562 227.195312 C 115.671875 227.195312 116.75 227.195312 117.820312 227.195312 C 120.019531 227.195312 122.265625 227.195312 124.511719 227.195312 C 127.882812 227.148438 131.296875 227.195312 134.71875 227.195312 C 136.867188 227.195312 139.0625 227.195312 141.210938 227.195312 C 142.234375 227.195312 143.261719 227.195312 144.289062 227.246094 C 149.5625 227.195312 149.5625 227.195312 154.34375 225.195312 C 156.882812 221.335938 159.328125 217.382812 161.671875 213.378906 C 162.207031 212.453125 162.742188 211.523438 163.28125 210.59375 C 164.992188 207.664062 166.699219 204.734375 168.40625 201.855469 C 170.65625 198 172.898438 194.1875 175.148438 190.382812 C 175.683594 189.453125 176.21875 188.523438 176.757812 187.597656 C 180.273438 181.640625 183.984375 175.929688 187.988281 170.3125 C 190.039062 166.796875 190.039062 163.914062 189.355469 160.007812 C 186.960938 157.617188 183.789062 158.496094 180.664062 158.496094 C 179.589844 158.496094 178.515625 158.496094 177.441406 158.496094 C 176.320312 158.496094 175.242188 158.496094 174.070312 158.496094 C 170.410156 158.496094 166.75 158.546875 163.085938 158.546875 C 160.546875 158.546875 158.007812 158.546875 155.46875 158.546875 C 148.78125 158.546875 142.089844 158.546875 135.351562 158.59375 C 128.5625 158.59375 121.726562 158.59375 114.890625 158.59375 C 101.464844 158.59375 88.085938 158.640625 74.65625 158.640625 Z M 60.007812 174.65625 C 58.15625 177.390625 56.542969 180.078125 54.929688 182.910156 C 54.445312 183.742188 53.953125 184.570312 53.417969 185.449219 C 51.855469 188.132812 50.292969 190.867188 48.730469 193.601562 C 47.703125 195.410156 46.679688 197.21875 45.605469 199.023438 C 43.703125 202.34375 41.75 205.664062 39.84375 209.03125 C 37.351562 213.328125 37.351562 213.328125 34.8125 216.796875 C 34.082031 218.40625 34.082031 218.40625 33.351562 220.019531 C 34.226562 222.21875 35.109375 224.414062 35.984375 226.660156 C 51.855469 226.660156 67.675781 226.660156 83.984375 226.660156 C 82.765625 220.410156 80.761719 215.1875 78.171875 209.421875 C 77.492188 207.960938 77.492188 207.960938 76.804688 206.398438 C 75.4375 203.222656 74.023438 200.097656 72.609375 196.921875 C 71.632812 194.773438 70.65625 192.625 69.726562 190.476562 C 67.382812 185.203125 65.039062 179.929688 62.648438 174.65625 C 61.765625 174.65625 60.890625 174.65625 60.007812 174.65625 Z M 43.992188 243.992188 C 47.117188 253.5625 47.117188 253.5625 50.929688 262.742188 C 51.367188 263.769531 51.855469 264.746094 52.296875 265.820312 C 52.832031 266.894531 52.832031 266.894531 53.320312 268.015625 C 57.519531 266.164062 60.203125 264.0625 63.28125 260.742188 C 64.109375 259.863281 64.941406 258.984375 65.773438 258.054688 C 66.601562 257.128906 67.480469 256.203125 68.3125 255.273438 C 69.1875 254.296875 70.070312 253.367188 70.945312 252.441406 C 75.148438 248.679688 75.148438 248.679688 77.34375 243.992188 C 66.359375 243.992188 55.320312 243.992188 43.992188 243.992188 Z M 43.992188 243.992188 "/>
<path style=" stroke:none;fill-rule:nonzero;fill:rgb(29.803923%,22.745098%,87.843138%);fill-opacity:1;" d="M 87.988281 12.011719 C 110.398438 11.914062 132.8125 11.914062 155.226562 11.867188 C 165.671875 11.867188 176.074219 11.816406 186.476562 11.816406 C 195.554688 11.765625 204.640625 11.765625 213.71875 11.765625 C 218.507812 11.765625 223.289062 11.71875 228.125 11.71875 C 233.496094 11.71875 238.820312 11.71875 244.1875 11.71875 C 246.582031 11.671875 246.582031 11.671875 249.023438 11.671875 C 268.601562 11.71875 268.601562 11.71875 276.414062 17.675781 C 281.640625 23 284.179688 27.539062 284.667969 35.007812 C 283.9375 48.828125 273.242188 61.71875 266.164062 73.242188 C 265.1875 74.851562 264.210938 76.464844 263.234375 78.078125 C 260.398438 82.714844 257.519531 87.351562 254.6875 91.992188 C 253.367188 94.09375 253.367188 94.09375 252.050781 96.289062 C 251.21875 97.558594 250.4375 98.875 249.609375 100.195312 C 248.535156 101.90625 248.535156 101.90625 247.460938 103.664062 C 243.40625 109.421875 238.71875 113.769531 231.984375 116.015625 C 228.664062 116.113281 225.34375 116.164062 221.972656 116.113281 C 220.996094 116.113281 220.019531 116.113281 219.042969 116.113281 C 215.96875 116.113281 212.84375 116.113281 209.765625 116.0625 C 207.664062 116.0625 205.566406 116.0625 203.46875 116.0625 C 198.289062 116.0625 193.164062 116.015625 187.988281 116.015625 C 188.671875 120.605469 188.671875 120.605469 189.355469 125.34375 C 185.789062 127.148438 183.9375 127.976562 179.980469 127.976562 C 180.226562 129.445312 180.421875 130.859375 180.664062 132.324219 C 181.347656 137.351562 181.347656 137.351562 181.347656 142.675781 C 143.945312 142.675781 106.542969 142.675781 68.015625 142.675781 C 68.015625 142.234375 68.015625 141.796875 68.015625 141.359375 C 104.980469 141.359375 141.945312 141.359375 179.980469 141.359375 C 176.464844 133.398438 172.949219 125.488281 169.335938 117.335938 C 131.933594 116.894531 94.53125 116.453125 56.007812 116.015625 C 56.007812 115.136719 56.007812 114.257812 56.007812 113.328125 C 93.40625 112.890625 130.8125 112.453125 169.335938 112.011719 C 168.457031 109.8125 167.578125 107.617188 166.648438 105.320312 C 175.195312 99.902344 175.195312 99.902344 179.25 100.34375 C 180.273438 100.828125 180.273438 100.828125 181.347656 101.320312 C 180.566406 100.734375 179.785156 100.148438 179.003906 99.511719 C 174.609375 94.382812 170.65625 86.867188 170.65625 79.980469 C 169.628906 81.101562 168.554688 82.179688 167.480469 83.351562 C 164.015625 86.671875 164.015625 86.671875 161.328125 86.671875 C 161.328125 89.304688 161.328125 91.945312 161.328125 94.679688 C 162.207031 94.679688 163.085938 94.679688 164.015625 94.679688 C 163.574219 96.4375 163.132812 98.195312 162.648438 100 C 153.027344 81.882812 145.3125 62.890625 137.351562 43.992188 C 138.234375 43.554688 139.109375 43.117188 139.992188 42.675781 C 146.09375 54.199219 150.632812 66.308594 154.6875 78.664062 C 156.445312 74.65625 156.445312 74.65625 154.6875 70.65625 C 155.515625 69.628906 156.347656 68.554688 157.226562 67.480469 C 160.15625 64.355469 160.15625 64.355469 160.5 61.132812 C 159.765625 55.664062 157.324219 51.515625 154.734375 46.726562 C 151.367188 40.476562 148.730469 35.253906 148 27.976562 C 152 25.976562 156.101562 26.5625 160.5 26.660156 C 161.523438 26.660156 162.546875 26.660156 163.574219 26.660156 C 166.945312 26.710938 170.3125 26.757812 173.679688 26.804688 C 176.023438 26.855469 178.320312 26.90625 180.664062 26.90625 C 186.816406 27 192.921875 27.101562 199.070312 27.195312 C 205.320312 27.296875 211.570312 27.390625 217.820312 27.441406 C 230.125 27.636719 242.382812 27.832031 254.6875 27.976562 C 255.125 26.660156 255.566406 25.34375 256.007812 24.023438 C 258.203125 24.902344 260.398438 25.78125 262.648438 26.660156 C 262.207031 26.21875 261.765625 25.78125 261.328125 25.34375 C 260.007812 23.585938 258.640625 21.777344 257.324219 20.019531 C 258.640625 19.140625 259.960938 18.261719 261.328125 17.335938 C 261.328125 18.210938 261.328125 19.09375 261.328125 20.019531 C 262.207031 20.019531 263.085938 20.019531 264.015625 20.019531 C 263.574219 18.703125 263.132812 17.382812 262.648438 16.015625 C 260.253906 15.96875 260.253906 15.96875 257.765625 15.96875 C 242.335938 15.820312 226.90625 15.671875 211.476562 15.527344 C 203.5625 15.476562 195.605469 15.382812 187.695312 15.332031 C 119.382812 14.746094 119.382812 14.746094 87.988281 13.328125 C 87.988281 12.890625 87.988281 12.453125 87.988281 12.011719 Z M 150.683594 30.664062 C 153.027344 38.132812 155.664062 45.265625 158.886719 52.34375 C 159.472656 53.664062 159.472656 53.664062 160.109375 54.980469 C 161.328125 57.714844 162.597656 60.449219 163.820312 63.183594 C 164.648438 64.992188 165.476562 66.796875 166.308594 68.601562 C 168.261719 72.949219 170.265625 77.246094 172.21875 81.59375 C 174.851562 87.257812 177.390625 92.96875 179.980469 98.679688 C 186.71875 98.78125 193.457031 98.875 200.195312 98.976562 C 202.492188 98.976562 204.785156 99.023438 207.078125 99.070312 C 210.398438 99.121094 213.671875 99.171875 216.992188 99.171875 C 218.015625 99.21875 219.042969 99.21875 220.070312 99.265625 C 224.511719 99.265625 227.34375 99.121094 231.054688 96.484375 C 233.742188 92.773438 236.132812 88.964844 238.429688 84.960938 C 238.914062 84.132812 239.355469 83.351562 239.84375 82.519531 C 241.359375 79.929688 242.871094 77.34375 244.335938 74.757812 C 245.800781 72.21875 247.265625 69.679688 248.730469 67.140625 C 249.707031 65.476562 250.683594 63.820312 251.609375 62.109375 C 254.054688 57.910156 256.542969 53.808594 259.132812 49.757812 C 259.667969 48.925781 260.15625 48.144531 260.695312 47.363281 C 262.0625 45.214844 263.476562 43.066406 264.890625 40.917969 C 266.945312 37.546875 266.945312 37.546875 266.359375 34.277344 C 265.476562 32.03125 265.476562 32.03125 264.015625 30.664062 C 260.449219 30.515625 256.984375 30.515625 253.46875 30.515625 C 252.34375 30.515625 251.21875 30.515625 250.097656 30.515625 C 246.4375 30.515625 242.773438 30.515625 239.0625 30.515625 C 236.523438 30.515625 233.984375 30.515625 231.445312 30.566406 C 224.757812 30.566406 218.066406 30.566406 211.375 30.566406 C 204.539062 30.566406 197.703125 30.617188 190.867188 30.617188 C 177.492188 30.617188 164.0625 30.617188 150.683594 30.664062 Z M 150.683594 30.664062 "/>
<path style=" stroke:none;fill-rule:nonzero;fill:rgb(38.82353%,32.156864%,93.725491%);fill-opacity:1;" d="M 87.988281 12.011719 C 110.398438 11.914062 132.8125 11.914062 155.226562 11.867188 C 165.671875 11.867188 176.074219 11.816406 186.476562 11.816406 C 195.554688 11.765625 204.640625 11.765625 213.71875 11.765625 C 218.507812 11.765625 223.289062 11.71875 228.125 11.71875 C 233.496094 11.71875 238.820312 11.71875 244.1875 11.71875 C 246.582031 11.671875 246.582031 11.671875 249.023438 11.671875 C 268.601562 11.71875 268.601562 11.71875 276.414062 17.675781 C 281.640625 23 284.179688 27.539062 284.667969 35.007812 C 284.226562 46.679688 276.269531 57.8125 268.652344 66.257812 C 266.648438 68.015625 266.648438 68.015625 264.015625 68.015625 C 263.574219 68.898438 263.132812 69.773438 262.648438 70.65625 C 258.640625 69.335938 258.640625 69.335938 256.007812 68.015625 C 256.007812 69.773438 256.007812 71.53125 256.007812 73.339844 C 255.125 73.339844 254.25 73.339844 253.320312 73.339844 C 252 69.335938 252 69.335938 252.929688 66.75 C 254.6875 64.015625 254.6875 64.015625 257.421875 61.328125 C 260.203125 58.445312 260.984375 57.226562 261.328125 53.320312 C 261.035156 52.296875 260.742188 51.320312 260.398438 50.242188 C 259.914062 46.09375 260.546875 45.3125 262.648438 41.894531 C 266.015625 37.402344 266.015625 37.402344 264.015625 31.984375 C 226.609375 31.542969 189.210938 31.101562 150.683594 30.664062 C 154.199219 38.574219 157.714844 46.484375 161.328125 54.6875 C 160.695312 56.007812 160.695312 56.007812 160.007812 57.324219 C 158.25 53.953125 156.492188 50.585938 154.734375 47.167969 C 154.003906 45.75 154.003906 45.75 153.222656 44.289062 C 150.488281 38.820312 148.632812 34.179688 148 27.976562 C 152 25.976562 156.101562 26.5625 160.5 26.660156 C 162.0625 26.660156 162.0625 26.660156 163.574219 26.660156 C 166.945312 26.710938 170.3125 26.757812 173.679688 26.804688 C 176.023438 26.855469 178.320312 26.90625 180.664062 26.90625 C 186.816406 27 192.921875 27.101562 199.070312 27.195312 C 205.320312 27.296875 211.570312 27.390625 217.820312 27.441406 C 230.125 27.636719 242.382812 27.832031 254.6875 27.976562 C 255.125 26.660156 255.566406 25.34375 256.007812 24.023438 C 258.203125 24.902344 260.398438 25.78125 262.648438 26.660156 C 262.207031 26.21875 261.765625 25.78125 261.328125 25.34375 C 260.007812 23.585938 258.640625 21.777344 257.324219 20.019531 C 258.640625 19.140625 259.960938 18.261719 261.328125 17.335938 C 261.328125 18.210938 261.328125 19.09375 261.328125 20.019531 C 262.207031 20.019531 263.085938 20.019531 264.015625 20.019531 C 263.574219 18.703125 263.132812 17.382812 262.648438 16.015625 C 260.253906 15.96875 260.253906 15.96875 257.765625 15.96875 C 242.335938 15.820312 226.90625 15.671875 211.476562 15.527344 C 203.5625 15.476562 195.605469 15.382812 187.695312 15.332031 C 119.382812 14.746094 119.382812 14.746094 87.988281 13.328125 C 87.988281 12.890625 87.988281 12.453125 87.988281 12.011719 Z M 87.988281 12.011719 "/>
<path style=" stroke:none;fill-rule:nonzero;fill:rgb(30.588236%,21.960784%,97.254902%);fill-opacity:1;" d="M 258.640625 48 C 259.328125 50 259.328125 50 260.007812 52 C 260.890625 52.441406 261.765625 52.882812 262.648438 53.320312 C 259.179688 62.351562 259.179688 62.351562 254.6875 65.332031 C 253.710938 69.433594 253.710938 69.433594 253.320312 73.339844 C 254.199219 71.582031 255.078125 69.824219 256.007812 68.015625 C 257.03125 68.261719 258.054688 68.507812 259.082031 68.75 C 262.792969 69.628906 262.792969 69.628906 266.648438 68.015625 C 267.089844 66.699219 267.53125 65.382812 268.015625 64.015625 C 268.898438 64.453125 269.773438 64.890625 270.65625 65.332031 C 265.332031 74.21875 260.007812 83.105469 254.6875 91.992188 C 254.003906 93.210938 253.367188 94.484375 252.6875 95.75 C 252 96.726562 251.367188 97.65625 250.683594 98.679688 C 249.367188 98.679688 248.046875 98.679688 246.679688 98.679688 C 246.335938 99.65625 245.996094 100.632812 245.65625 101.660156 C 243.847656 105.710938 242.140625 107.910156 238.671875 110.644531 C 236.914062 110.644531 235.15625 110.644531 233.351562 110.644531 C 233.351562 111.523438 233.351562 112.402344 233.351562 113.328125 C 227.101562 113.429688 220.898438 113.523438 214.695312 113.574219 C 212.546875 113.574219 210.449219 113.625 208.351562 113.625 C 205.273438 113.671875 202.246094 113.71875 199.21875 113.71875 C 198.289062 113.71875 197.3125 113.769531 196.335938 113.769531 C 193.652344 113.769531 193.652344 113.769531 189.355469 113.328125 C 188.476562 112.011719 187.597656 110.695312 186.671875 109.328125 C 187.546875 108.445312 188.429688 107.570312 189.355469 106.6875 C 188.914062 103.859375 188.914062 103.859375 187.988281 101.320312 C 191.796875 99.460938 194.875 99.953125 199.121094 100.097656 C 201.710938 100.097656 204.34375 100.148438 206.933594 100.148438 C 208.742188 100.148438 210.546875 100.195312 212.351562 100.292969 C 218.261719 100.488281 223.632812 100.34375 229.34375 98.679688 C 233.445312 94.433594 235.109375 89.40625 237.351562 83.984375 C 239.109375 80.859375 240.917969 77.78125 242.773438 74.707031 C 243.75 73.09375 244.679688 71.484375 245.605469 69.921875 C 246.582031 68.3125 247.558594 66.699219 248.484375 65.085938 C 249.511719 63.429688 250.488281 61.765625 251.464844 60.058594 C 253.859375 56.054688 256.25 52 258.640625 48 Z M 258.640625 48 "/>
<path style=" stroke:none;fill-rule:nonzero;fill:rgb(30.19608%,22.352941%,96.862745%);fill-opacity:1;" d="M 166.648438 222.65625 C 167.53125 223.535156 168.40625 224.414062 169.335938 225.34375 C 169.1875 230.664062 166.84375 234.03125 163.671875 238.234375 C 157.128906 243.210938 148.289062 243.117188 140.429688 243.3125 C 139.355469 243.359375 138.28125 243.359375 137.207031 243.40625 C 134.960938 243.457031 132.664062 243.554688 130.421875 243.601562 C 127 243.652344 123.535156 243.796875 120.117188 243.898438 C 117.921875 243.945312 115.722656 243.992188 113.523438 244.042969 C 112.5 244.09375 111.476562 244.140625 110.398438 244.1875 C 105.273438 244.289062 103.027344 244.238281 98.679688 241.359375 C 100 237.351562 100 237.351562 101.320312 235.984375 C 100.4375 235.546875 99.5625 235.109375 98.679688 234.667969 C 100.097656 230.761719 101.023438 228.273438 104.003906 225.34375 C 104.445312 226.21875 104.882812 227.101562 105.320312 227.976562 C 107.46875 228.027344 107.46875 228.027344 109.71875 228.078125 C 115.039062 228.171875 120.359375 228.320312 125.683594 228.417969 C 128.027344 228.46875 130.320312 228.515625 132.617188 228.5625 C 135.9375 228.613281 139.257812 228.710938 142.578125 228.757812 C 143.601562 228.808594 144.628906 228.808594 145.703125 228.808594 C 153.027344 229.054688 153.027344 229.054688 156.007812 231.984375 C 156.789062 231.152344 157.617188 230.273438 158.398438 229.394531 C 161.328125 226.660156 161.328125 226.660156 165.332031 225.34375 C 165.773438 224.460938 166.210938 223.585938 166.648438 222.65625 Z M 166.648438 222.65625 "/>
<path style=" stroke:none;fill-rule:nonzero;fill:rgb(29.411766%,21.568628%,92.156863%);fill-opacity:1;" d="M 258.640625 48 C 259.132812 49.316406 259.570312 50.632812 260.007812 52 C 260.890625 52.441406 261.765625 52.882812 262.648438 53.320312 C 259.179688 62.351562 259.179688 62.351562 254.6875 65.332031 C 253.710938 69.433594 253.710938 69.433594 253.320312 73.339844 C 254.199219 71.582031 255.078125 69.824219 256.007812 68.015625 C 257.03125 68.261719 258.054688 68.507812 259.082031 68.75 C 262.792969 69.628906 262.792969 69.628906 266.648438 68.015625 C 267.089844 66.699219 267.53125 65.382812 268.015625 64.015625 C 268.898438 64.453125 269.773438 64.890625 270.65625 65.332031 C 268.117188 69.628906 265.578125 73.925781 262.988281 78.273438 C 262.304688 79.445312 261.570312 80.664062 260.839844 81.933594 C 257.324219 87.84375 253.859375 93.457031 249.316406 98.679688 C 248 94.042969 248 94.042969 246.679688 89.355469 C 237.5 91.113281 237.5 91.113281 230.664062 97.3125 C 232.8125 91.359375 235.890625 86.132812 239.109375 80.664062 C 239.695312 79.734375 240.234375 78.808594 240.820312 77.832031 C 242.625 74.851562 244.382812 71.875 246.140625 68.898438 C 247.363281 66.894531 248.585938 64.84375 249.804688 62.84375 C 252.734375 57.910156 255.710938 52.929688 258.640625 48 Z M 258.640625 48 "/>
<path style=" stroke:none;fill-rule:nonzero;fill:rgb(28.235295%,21.568628%,85.09804%);fill-opacity:1;" d="M 70.65625 17.335938 C 71.53125 17.335938 72.414062 17.335938 73.339844 17.335938 C 73.339844 18.210938 73.339844 19.09375 73.339844 20.019531 C 72.023438 20.898438 70.703125 21.777344 69.335938 22.65625 C 67.726562 26.074219 67.726562 26.074219 66.648438 29.34375 C 65.773438 29.34375 64.890625 29.34375 64.015625 29.34375 C 62.011719 33.835938 62.011719 33.835938 61.328125 38.671875 C 62.207031 39.109375 63.085938 39.550781 64.015625 39.992188 C 63.476562 42.578125 63.476562 42.578125 62.648438 45.3125 C 61.765625 45.75 60.890625 46.191406 60.007812 46.679688 C 60.449219 48 60.890625 49.316406 61.328125 50.683594 C 62.207031 50.683594 63.085938 50.683594 64.015625 50.683594 C 64.015625 49.367188 64.015625 48.046875 64.015625 46.679688 C 64.890625 46.679688 65.773438 46.679688 66.648438 46.679688 C 66.648438 47.558594 66.648438 48.4375 66.648438 49.316406 C 67.53125 49.316406 68.40625 49.316406 69.335938 49.316406 C 69.679688 48.339844 69.96875 47.363281 70.3125 46.335938 C 72.117188 42.382812 74.121094 40.1875 77.34375 37.351562 C 75.390625 42.578125 72.898438 47.167969 70.019531 51.953125 C 69.140625 53.417969 68.261719 54.929688 67.335938 56.445312 C 66.40625 58.007812 65.429688 59.523438 64.5 61.085938 C 63.523438 62.648438 62.597656 64.257812 61.671875 65.820312 C 59.328125 69.679688 56.984375 73.484375 54.6875 77.34375 C 54.25 76.464844 53.808594 75.585938 53.320312 74.65625 C 54.980469 71.386719 56.6875 68.3125 58.59375 65.1875 C 59.082031 64.304688 59.617188 63.429688 60.15625 62.5 C 61.425781 60.351562 62.695312 58.15625 64.015625 56.007812 C 63.132812 55.566406 62.257812 55.125 61.328125 54.6875 C 61.328125 55.566406 61.328125 56.445312 61.328125 57.324219 C 59.082031 57.519531 59.082031 57.519531 56.835938 57.664062 C 51.90625 58.105469 51.90625 58.105469 50.097656 61.425781 C 49.851562 62.257812 49.609375 63.132812 49.316406 64.015625 C 48.875 63.132812 48.4375 62.257812 48 61.328125 C 45.019531 64.0625 43.992188 65.332031 42.675781 69.335938 C 41.796875 69.335938 40.917969 69.335938 39.992188 69.335938 C 39.648438 70.214844 39.355469 71.09375 39.015625 72.023438 C 37.351562 75.976562 37.351562 75.976562 35.984375 78.367188 C 31.789062 85.644531 30.90625 91.648438 31.984375 100 C 33.691406 105.421875 35.984375 110.449219 38.429688 115.578125 C 39.015625 116.894531 39.601562 118.210938 40.234375 119.578125 C 42.382812 124.265625 44.484375 128.90625 46.726562 133.496094 C 48.875 138.132812 49.511719 140.476562 48 145.3125 C 45.554688 139.746094 43.164062 134.179688 40.722656 128.613281 C 39.941406 126.710938 39.109375 124.804688 38.28125 122.949219 C 37.109375 120.214844 35.890625 117.480469 34.71875 114.746094 C 34.375 113.914062 33.984375 113.039062 33.59375 112.207031 C 25.734375 93.992188 25.734375 93.992188 29.34375 84.523438 C 33.9375 74.851562 39.695312 65.867188 45.410156 56.882812 C 51.023438 48.046875 56.398438 39.015625 61.816406 30.078125 C 62.546875 28.808594 63.328125 27.539062 64.109375 26.21875 C 65.136719 24.511719 65.136719 24.511719 66.210938 22.804688 C 68.015625 20.019531 68.015625 20.019531 70.65625 17.335938 Z M 70.65625 17.335938 "/>
<path style=" stroke:none;fill-rule:nonzero;fill:rgb(29.411766%,24.705882%,78.431374%);fill-opacity:1;" d="M 153.664062 26.5625 C 155.617188 26.5625 157.570312 26.609375 159.523438 26.660156 C 161.132812 26.660156 161.132812 26.660156 162.742188 26.660156 C 166.308594 26.710938 169.824219 26.757812 173.390625 26.804688 C 175.828125 26.855469 178.273438 26.90625 180.710938 26.90625 C 187.207031 27 193.652344 27.101562 200.097656 27.195312 C 206.6875 27.296875 213.28125 27.390625 219.875 27.441406 C 232.8125 27.636719 245.75 27.832031 258.640625 27.976562 C 258.640625 28.859375 258.640625 29.734375 258.640625 30.664062 C 223.046875 30.664062 187.402344 30.664062 150.683594 30.664062 C 154.199219 38.574219 157.714844 46.484375 161.328125 54.6875 C 160.890625 55.566406 160.449219 56.445312 160.007812 57.324219 C 158.25 53.953125 156.492188 50.585938 154.734375 47.167969 C 154.25 46.242188 153.757812 45.265625 153.222656 44.289062 C 150.488281 38.867188 148.4375 34.179688 148 27.976562 C 149.316406 26.660156 149.316406 26.660156 153.664062 26.5625 Z M 153.664062 26.5625 "/>
<path style=" stroke:none;fill-rule:nonzero;fill:rgb(27.058825%,20.784314%,80.392158%);fill-opacity:1;" d="M 16.015625 216.015625 C 18.015625 219.773438 19.382812 223.4375 20.507812 227.585938 C 22.167969 233.398438 24.367188 238.671875 26.953125 244.140625 C 27.976562 246.679688 27.976562 246.679688 27.976562 250.683594 C 28.859375 250.683594 29.734375 250.683594 30.664062 250.683594 C 31.054688 251.757812 31.492188 252.882812 31.882812 254.054688 C 36.71875 267.625 36.71875 267.625 43.992188 279.980469 C 45.996094 280.664062 45.996094 280.664062 48 281.347656 C 48 282.226562 48 283.105469 48 283.984375 C 56.347656 283.984375 61.230469 282.617188 67.234375 276.804688 C 67.96875 276.125 68.652344 275.390625 69.335938 274.65625 C 71.046875 273 71.046875 273 72.851562 271.242188 C 73.875 270.164062 74.902344 269.09375 75.976562 268.015625 C 77.195312 266.84375 78.417969 265.671875 79.6875 264.5 C 82.910156 261.523438 82.910156 261.523438 83.984375 257.324219 C 85.304688 257.324219 86.621094 257.324219 87.988281 257.324219 C 87.351562 255.371094 87.351562 255.371094 86.671875 253.320312 C 87.648438 252.78125 88.625 252.246094 89.648438 251.660156 C 93.210938 249.414062 95.800781 247.070312 98.679688 243.992188 C 99.5625 244.433594 100.4375 244.875 101.320312 245.3125 C 100.78125 245.898438 100.195312 246.4375 99.609375 247.023438 C 95.554688 251.023438 91.601562 255.03125 87.9375 259.421875 C 83.203125 264.84375 78.222656 270.019531 73.144531 275.148438 C 71.972656 276.414062 71.972656 276.414062 70.75 277.6875 C 66.601562 281.835938 63.234375 285.203125 57.324219 286.671875 C 49.902344 286.570312 46.484375 285.742188 40.671875 280.8125 C 37.0625 277 35.253906 272.460938 33.25 267.675781 C 32.8125 266.601562 32.324219 265.578125 31.882812 264.5 C 30.421875 261.179688 29.003906 257.8125 27.585938 254.492188 C 26.609375 252.246094 25.632812 250 24.65625 247.753906 C 15.820312 227.441406 15.820312 227.441406 16.015625 216.015625 Z M 16.015625 216.015625 "/>
<path style=" stroke:none;fill-rule:nonzero;fill:rgb(27.843139%,21.960784%,80.000001%);fill-opacity:1;" d="M 246.679688 98.679688 C 247.558594 98.679688 248.4375 98.679688 249.316406 98.679688 C 247.558594 106.101562 241.894531 110.304688 235.984375 114.648438 C 231.347656 116.210938 227.148438 116.164062 222.265625 116.113281 C 220.851562 116.113281 220.851562 116.113281 219.433594 116.113281 C 216.40625 116.113281 213.429688 116.113281 210.398438 116.0625 C 208.398438 116.0625 206.347656 116.0625 204.296875 116.0625 C 199.316406 116.0625 194.335938 116.015625 189.355469 116.015625 C 189.355469 115.136719 189.355469 114.257812 189.355469 113.328125 C 203.859375 113.328125 218.359375 113.328125 233.351562 113.328125 C 233.351562 112.453125 233.351562 111.570312 233.351562 110.644531 C 234.328125 110.351562 235.304688 110.058594 236.328125 109.765625 C 241.453125 107.324219 244.140625 103.710938 246.679688 98.679688 Z M 246.679688 98.679688 "/>
<path style=" stroke:none;fill-rule:nonzero;fill:rgb(28.235295%,21.176471%,89.411765%);fill-opacity:1;" d="M 75.976562 245.3125 C 76.90625 245.75 77.78125 246.191406 78.664062 246.679688 C 76.757812 248.4375 76.757812 248.4375 74.851562 250.242188 C 71.4375 253.710938 68.898438 256.445312 68.015625 261.328125 C 69.875 264.160156 69.875 264.160156 72.023438 266.648438 C 71.582031 267.96875 71.140625 269.289062 70.65625 270.65625 C 69.09375 270.265625 69.09375 270.265625 67.480469 269.824219 C 65.773438 269.578125 65.773438 269.578125 64.015625 269.335938 C 63.132812 270.214844 62.257812 271.09375 61.328125 272.023438 C 60.449219 270.703125 59.570312 269.335938 58.640625 268.015625 C 56.007812 269.335938 56.007812 269.335938 53.320312 270.65625 C 53.320312 269.773438 53.320312 268.898438 53.320312 268.015625 C 55.03125 266.359375 55.03125 266.359375 57.421875 264.5 C 62.109375 260.644531 65.96875 256.398438 69.875 251.757812 C 71.828125 249.511719 73.875 247.414062 75.976562 245.3125 Z M 75.976562 245.3125 "/>
<path style=" stroke:none;fill-rule:nonzero;fill:rgb(29.803923%,23.529412%,81.960785%);fill-opacity:1;" d="M 45.3125 195.996094 C 46.191406 196.4375 47.070312 196.875 48 197.3125 C 47.609375 198 47.167969 198.632812 46.777344 199.316406 C 44.921875 202.34375 43.066406 205.320312 41.257812 208.351562 C 40.625 209.375 39.941406 210.398438 39.304688 211.476562 C 38.671875 212.5 38.085938 213.476562 37.453125 214.5 C 36.867188 215.429688 36.328125 216.359375 35.742188 217.335938 C 34.226562 220.359375 34.226562 220.359375 35.984375 225.34375 C 51.855469 225.78125 67.675781 226.21875 83.984375 226.660156 C 83.105469 223.585938 82.226562 220.507812 81.347656 217.335938 C 83.351562 218.898438 83.351562 218.898438 85.351562 221.335938 C 85.449219 224.804688 85.449219 224.804688 85.351562 227.976562 C 78.171875 228.078125 71.046875 228.171875 63.914062 228.222656 C 61.476562 228.222656 59.03125 228.273438 56.59375 228.320312 C 53.125 228.367188 49.609375 228.367188 46.140625 228.367188 C 44.53125 228.417969 44.53125 228.417969 42.820312 228.46875 C 35.203125 228.46875 35.203125 228.46875 32.324219 225.976562 C 31.789062 225.34375 31.25 224.65625 30.664062 224.023438 C 32.617188 217.089844 35.742188 211.523438 39.5 205.515625 C 40.039062 204.589844 40.625 203.664062 41.210938 202.734375 C 42.578125 200.488281 43.945312 198.242188 45.3125 195.996094 Z M 45.3125 195.996094 "/>
<path style=" stroke:none;fill-rule:nonzero;fill:rgb(28.235295%,22.352941%,80.392158%);fill-opacity:1;" d="M 79.980469 242.675781 C 76.464844 244.433594 73.730469 244.140625 69.773438 244.140625 C 68.261719 244.140625 66.796875 244.140625 65.234375 244.140625 C 63.671875 244.09375 62.109375 244.09375 60.5 244.09375 C 58.9375 244.09375 57.324219 244.09375 55.710938 244.042969 C 51.804688 244.042969 47.898438 244.042969 43.992188 243.992188 C 44.433594 245.75 44.875 247.507812 45.3125 249.316406 C 43.992188 248.875 42.675781 248.4375 41.359375 248 C 41.359375 246.242188 41.359375 244.484375 41.359375 242.675781 C 47.023438 239.84375 54.394531 240.671875 60.644531 240.429688 C 62.207031 240.332031 63.769531 240.234375 65.382812 240.1875 C 66.84375 240.085938 68.359375 240.039062 69.875 239.992188 C 71.242188 239.941406 72.609375 239.84375 74.023438 239.796875 C 77.34375 239.992188 77.34375 239.992188 79.980469 242.675781 Z M 79.980469 242.675781 "/>
<path style=" stroke:none;fill-rule:nonzero;fill:rgb(29.019609%,21.960784%,89.803922%);fill-opacity:1;" d="M 161.328125 57.324219 C 165.917969 62.351562 167.429688 68.3125 169.335938 74.65625 C 168.457031 74.65625 167.578125 74.65625 166.648438 74.65625 C 165.773438 72.460938 164.890625 70.265625 164.015625 68.015625 C 161.375 71.972656 161.375 71.972656 158.640625 75.976562 C 157.324219 74.65625 156.007812 73.339844 154.6875 72.023438 C 156.007812 68.015625 156.007812 68.015625 158.007812 66.164062 C 160.59375 63.378906 160.839844 61.035156 161.328125 57.324219 Z M 161.328125 57.324219 "/>
<path style=" stroke:none;fill-rule:nonzero;fill:rgb(27.450982%,20.784314%,85.09804%);fill-opacity:1;" d="M 106.007812 12.402344 C 108.007812 12.5 110.007812 12.597656 112.011719 12.648438 C 116.894531 12.84375 121.777344 13.085938 126.660156 13.328125 C 126.660156 13.769531 126.660156 14.210938 126.660156 14.648438 C 125.292969 14.695312 123.925781 14.695312 122.558594 14.746094 C 117.53125 14.84375 112.5 14.992188 107.421875 15.085938 C 105.273438 15.136719 103.078125 15.1875 100.878906 15.234375 C 97.753906 15.28125 94.628906 15.382812 91.503906 15.429688 C 90.039062 15.476562 90.039062 15.476562 88.523438 15.476562 C 83.007812 15.476562 83.007812 15.476562 78.664062 18.652344 C 76.90625 17.773438 75.148438 16.894531 73.339844 16.015625 C 83.886719 10.59375 94.53125 11.867188 106.007812 12.402344 Z M 106.007812 12.402344 "/>
<path style=" stroke:none;fill-rule:nonzero;fill:rgb(28.627452%,21.176471%,90.588236%);fill-opacity:1;" d="M 56.007812 129.34375 C 56.007812 131.984375 56.007812 134.617188 56.007812 137.351562 C 54.25 137.792969 52.492188 138.234375 50.683594 138.671875 C 51.125 139.695312 51.609375 140.722656 52.101562 141.75 C 53.320312 145.3125 53.320312 145.3125 52 149.316406 C 52.882812 149.316406 53.757812 149.316406 54.6875 149.316406 C 54.6875 151.515625 54.6875 153.710938 54.6875 156.007812 C 53.808594 156.445312 52.929688 156.882812 52 157.324219 C 51.804688 156.347656 51.609375 155.421875 51.464844 154.394531 C 50.734375 150.734375 50.734375 150.734375 49.707031 147.363281 C 47.363281 138.625 47.363281 138.625 49.265625 134.71875 C 53.710938 129.34375 53.710938 129.34375 56.007812 129.34375 Z M 56.007812 129.34375 "/>
<path style=" stroke:none;fill-rule:nonzero;fill:rgb(27.843139%,21.568628%,80.392158%);fill-opacity:1;" d="M 34.667969 183.984375 C 35.546875 185.742188 36.425781 187.5 37.351562 189.355469 C 36.523438 189.40625 35.695312 189.453125 34.8125 189.5 C 33.886719 189.890625 32.960938 190.28125 31.984375 190.671875 C 31.054688 193.3125 30.175781 195.996094 29.34375 198.679688 C 27.34375 201.804688 25.292969 204.785156 23.09375 207.8125 C 21.386719 210.59375 20.605469 212.792969 20.019531 216.015625 C 19.140625 216.015625 18.261719 216.015625 17.335938 216.015625 C 18.117188 210.890625 19.53125 207.46875 22.3125 203.125 C 23 202 23.730469 200.878906 24.460938 199.757812 C 25.242188 198.585938 25.976562 197.460938 26.757812 196.242188 C 27.492188 195.070312 28.273438 193.898438 29.054688 192.675781 C 30.90625 189.796875 32.765625 186.867188 34.667969 183.984375 Z M 34.667969 183.984375 "/>
<path style=" stroke:none;fill-rule:nonzero;fill:rgb(27.843139%,20.784314%,87.450981%);fill-opacity:1;" d="M 258.640625 48 C 259.132812 49.316406 259.570312 50.632812 260.007812 52 C 260.890625 52.441406 261.765625 52.882812 262.648438 53.320312 C 262.5 55.761719 262.5 55.761719 261.328125 58.640625 C 258.691406 60.109375 256.054688 61.425781 253.320312 62.648438 C 250.929688 64.746094 250.929688 64.746094 249.316406 66.648438 C 251.710938 60.058594 255.175781 54.101562 258.640625 48 Z M 258.640625 48 "/>
<path style=" stroke:none;fill-rule:nonzero;fill:rgb(28.235295%,21.568628%,81.960785%);fill-opacity:1;" d="M 68.015625 186.671875 C 68.898438 186.671875 69.773438 186.671875 70.65625 186.671875 C 72.507812 190.773438 74.316406 194.875 76.074219 199.023438 C 76.609375 200.148438 77.101562 201.320312 77.636719 202.539062 C 78.125 203.664062 78.613281 204.785156 79.148438 205.957031 C 79.589844 206.984375 80.03125 208.007812 80.515625 209.082031 C 81.445312 212.402344 81.152344 214.109375 79.980469 217.335938 C 77.976562 212.742188 75.976562 208.105469 74.023438 203.515625 C 73.4375 202.195312 72.851562 200.878906 72.265625 199.511719 C 71.726562 198.242188 71.191406 197.023438 70.605469 195.703125 C 70.117188 194.578125 69.628906 193.40625 69.09375 192.1875 C 68.015625 189.355469 68.015625 189.355469 68.015625 186.671875 Z M 68.015625 186.671875 "/>
<path style=" stroke:none;fill-rule:nonzero;fill:rgb(28.235295%,21.568628%,80.000001%);fill-opacity:1;" d="M 172.023438 224.023438 C 172.898438 224.460938 173.78125 224.902344 174.65625 225.34375 C 166.0625 239.210938 166.0625 239.210938 160.007812 242.675781 C 155.566406 243.015625 155.566406 243.015625 152 242.675781 C 152 242.234375 152 241.796875 152 241.359375 C 153.417969 241.0625 154.785156 240.773438 156.25 240.476562 C 162.257812 238.769531 164.5 235.789062 168.015625 230.664062 C 168.945312 227.734375 168.945312 227.734375 169.335938 225.34375 C 170.214844 224.902344 171.09375 224.460938 172.023438 224.023438 Z M 172.023438 224.023438 "/>
<path style=" stroke:none;fill-rule:nonzero;fill:rgb(29.803923%,22.352941%,84.705883%);fill-opacity:1;" d="M 45.3125 250.683594 C 48.632812 255.078125 50.046875 257.324219 51.5625 262.351562 C 52.101562 263.914062 52.101562 263.914062 52.585938 265.578125 C 52.832031 266.359375 53.078125 267.1875 53.320312 268.015625 C 52 267.578125 50.683594 267.140625 49.316406 266.648438 C 49.316406 265.773438 49.316406 264.890625 49.316406 264.015625 C 48 264.015625 46.679688 264.015625 45.3125 264.015625 C 45.3125 259.617188 45.3125 255.175781 45.3125 250.683594 Z M 45.3125 250.683594 "/>
<path style=" stroke:none;fill-rule:nonzero;fill:rgb(27.450982%,21.568628%,83.92157%);fill-opacity:1;" d="M 98.679688 243.992188 C 99.5625 244.433594 100.4375 244.875 101.320312 245.3125 C 100.4375 246.242188 100.4375 246.242188 99.460938 247.117188 C 95.75 250.828125 92.1875 254.445312 88.914062 258.59375 C 87.792969 259.960938 87.792969 259.960938 86.671875 261.328125 C 85.789062 261.328125 84.914062 261.328125 83.984375 261.328125 C 83.984375 260.007812 83.984375 258.691406 83.984375 257.324219 C 85.304688 257.324219 86.621094 257.324219 87.988281 257.324219 C 87.546875 256.007812 87.109375 254.6875 86.671875 253.320312 C 87.648438 252.78125 88.625 252.246094 89.648438 251.660156 C 93.210938 249.414062 95.800781 247.070312 98.679688 243.992188 Z M 98.679688 243.992188 "/>
<path style=" stroke:none;fill-rule:nonzero;fill:rgb(27.058825%,21.176471%,80.392158%);fill-opacity:1;" d="M 189.355469 165.332031 C 189.796875 166.648438 190.234375 167.96875 190.671875 169.335938 C 188.820312 172.65625 186.914062 175.78125 184.765625 178.90625 C 184.179688 179.785156 183.59375 180.664062 183.007812 181.542969 C 181.542969 183.691406 180.125 185.839844 178.664062 187.988281 C 178.222656 187.109375 177.78125 186.230469 177.34375 185.351562 C 179.199219 181.835938 181.152344 178.515625 183.25 175.148438 C 184.132812 173.730469 184.132812 173.730469 185.007812 172.3125 C 186.425781 169.96875 187.890625 167.675781 189.355469 165.332031 Z M 189.355469 165.332031 "/>
</g>
</svg>
