<?xml version="1.0" encoding="UTF-8"?>
<svg xmlns="http://www.w3.org/2000/svg" xmlns:xlink="http://www.w3.org/1999/xlink" width="24px" height="24px" viewBox="0 0 24 24" version="1.1">
<g id="surface1">
<path style=" stroke:none;fill-rule:nonzero;fill:rgb(30.19608%,21.960784%,95.686275%);fill-opacity:1;" d="M 8.09375 0.933594 C 8.300781 0.933594 8.300781 0.933594 8.507812 0.929688 C 8.882812 0.929688 9.257812 0.929688 9.632812 0.929688 C 10.023438 0.933594 10.417969 0.929688 10.8125 0.929688 C 11.472656 0.929688 12.128906 0.929688 12.789062 0.933594 C 13.550781 0.933594 14.3125 0.933594 15.074219 0.933594 C 15.730469 0.929688 16.386719 0.929688 17.039062 0.929688 C 17.429688 0.929688 17.820312 0.929688 18.210938 0.929688 C 18.648438 0.929688 19.082031 0.929688 19.519531 0.933594 C 19.710938 0.933594 19.710938 0.933594 19.910156 0.929688 C 21.488281 0.9375 21.488281 0.9375 22.113281 1.414062 C 22.53125 1.839844 22.734375 2.203125 22.773438 2.800781 C 22.714844 3.90625 21.859375 4.9375 21.292969 5.859375 C 21.214844 5.988281 21.136719 6.117188 21.058594 6.246094 C 20.832031 6.617188 20.601562 6.988281 20.375 7.359375 C 20.269531 7.527344 20.269531 7.527344 20.164062 7.703125 C 20.097656 7.804688 20.035156 7.910156 19.96875 8.015625 C 19.882812 8.152344 19.882812 8.152344 19.796875 8.292969 C 19.472656 8.753906 19.097656 9.101562 18.558594 9.28125 C 18.300781 9.296875 18.042969 9.308594 17.78125 9.3125 C 17.707031 9.316406 17.632812 9.316406 17.554688 9.320312 C 17.3125 9.328125 17.074219 9.332031 16.832031 9.339844 C 16.671875 9.34375 16.507812 9.347656 16.34375 9.355469 C 15.945312 9.367188 15.546875 9.375 15.148438 9.386719 C 15.1875 9.472656 15.230469 9.5625 15.273438 9.648438 C 15.429688 9.980469 15.585938 10.308594 15.738281 10.636719 C 15.804688 10.78125 15.871094 10.921875 15.941406 11.0625 C 16.363281 11.933594 16.765625 12.773438 16.535156 13.761719 C 16.304688 14.292969 16.015625 14.773438 15.707031 15.261719 C 15.625 15.394531 15.539062 15.53125 15.457031 15.667969 C 15.292969 15.9375 15.125 16.207031 14.957031 16.476562 C 14.746094 16.8125 14.539062 17.148438 14.335938 17.484375 C 14.226562 17.667969 14.117188 17.847656 14.007812 18.027344 C 13.957031 18.105469 13.910156 18.1875 13.859375 18.269531 C 13.503906 18.835938 13.136719 19.300781 12.480469 19.519531 C 12.160156 19.527344 11.839844 19.53125 11.519531 19.527344 C 11.324219 19.527344 11.128906 19.53125 10.933594 19.53125 C 10.628906 19.53125 10.320312 19.535156 10.015625 19.53125 C 9.71875 19.527344 9.421875 19.53125 9.125 19.535156 C 8.988281 19.53125 8.988281 19.53125 8.851562 19.527344 C 8.332031 19.539062 8.0625 19.613281 7.691406 19.980469 C 7.578125 20.109375 7.46875 20.242188 7.359375 20.375 C 6.875 20.9375 6.375 21.480469 5.851562 22.011719 C 5.757812 22.113281 5.757812 22.113281 5.660156 22.214844 C 5.328125 22.546875 5.058594 22.816406 4.585938 22.933594 C 3.992188 22.925781 3.71875 22.859375 3.253906 22.464844 C 2.964844 22.160156 2.820312 21.796875 2.660156 21.414062 C 2.625 21.328125 2.585938 21.246094 2.550781 21.160156 C 2.433594 20.894531 2.320312 20.625 2.207031 20.359375 C 2.128906 20.179688 2.050781 20 1.972656 19.820312 C 1.097656 17.808594 1.097656 17.808594 1.359375 17.054688 C 1.777344 16.179688 2.324219 15.363281 2.835938 14.539062 C 3.070312 14.160156 3.296875 13.78125 3.527344 13.398438 C 3.566406 13.335938 3.605469 13.269531 3.644531 13.203125 C 3.746094 13.035156 3.847656 12.863281 3.945312 12.691406 C 3.992188 12.628906 4.035156 12.566406 4.082031 12.5 C 4.203125 12.136719 4.054688 11.933594 3.894531 11.59375 C 3.867188 11.527344 3.835938 11.464844 3.804688 11.394531 C 3.710938 11.1875 3.613281 10.980469 3.511719 10.773438 C 3.417969 10.570312 3.324219 10.367188 3.230469 10.160156 C 3.167969 10.027344 3.105469 9.894531 3.042969 9.757812 C 2.078125 7.679688 2.078125 7.679688 2.238281 7.039062 C 2.585938 6.152344 3.125 5.351562 3.632812 4.550781 C 3.871094 4.175781 4.101562 3.796875 4.328125 3.414062 C 4.394531 3.304688 4.460938 3.191406 4.527344 3.078125 C 4.660156 2.859375 4.789062 2.640625 4.917969 2.421875 C 5.335938 1.726562 5.660156 1.226562 6.480469 1.003906 C 7.011719 0.90625 7.554688 0.929688 8.09375 0.933594 Z M 6.171875 2.894531 C 6.066406 3.097656 5.964844 3.308594 5.867188 3.519531 C 5.757812 3.707031 5.644531 3.894531 5.53125 4.078125 C 5.328125 4.410156 5.136719 4.75 4.941406 5.085938 C 4.859375 5.222656 4.78125 5.363281 4.699219 5.5 C 4.484375 5.871094 4.269531 6.242188 4.054688 6.613281 C 4.011719 6.679688 3.972656 6.746094 3.933594 6.816406 C 3.695312 7.1875 3.695312 7.1875 3.640625 7.613281 C 3.722656 7.808594 3.722656 7.808594 3.945312 7.894531 C 4.230469 7.902344 4.511719 7.90625 4.792969 7.90625 C 4.878906 7.90625 4.96875 7.90625 5.058594 7.90625 C 5.347656 7.90625 5.636719 7.90625 5.925781 7.902344 C 6.128906 7.902344 6.328125 7.902344 6.527344 7.902344 C 7.058594 7.902344 7.585938 7.902344 8.113281 7.902344 C 8.652344 7.898438 9.191406 7.898438 9.730469 7.898438 C 10.789062 7.898438 11.847656 7.894531 12.90625 7.894531 C 12.703125 7.25 12.46875 6.636719 12.191406 6.023438 C 12.15625 5.941406 12.121094 5.855469 12.082031 5.773438 C 12.003906 5.601562 11.929688 5.425781 11.851562 5.253906 C 11.734375 4.992188 11.617188 4.730469 11.5 4.46875 C 11.425781 4.300781 11.347656 4.128906 11.273438 3.960938 C 11.222656 3.84375 11.222656 3.84375 11.167969 3.726562 C 10.976562 3.296875 10.773438 2.875 10.558594 2.453125 C 10.011719 2.425781 9.464844 2.40625 8.914062 2.394531 C 8.726562 2.390625 8.542969 2.382812 8.355469 2.371094 C 7.125 2.257812 7.125 2.257812 6.171875 2.894531 Z M 12.054688 2.453125 C 12.242188 3.050781 12.453125 3.621094 12.710938 4.1875 C 12.757812 4.292969 12.757812 4.292969 12.808594 4.398438 C 12.90625 4.617188 13.007812 4.835938 13.105469 5.054688 C 13.171875 5.199219 13.238281 5.34375 13.304688 5.488281 C 13.460938 5.835938 13.621094 6.179688 13.777344 6.527344 C 13.988281 6.980469 14.191406 7.4375 14.398438 7.894531 C 14.9375 7.902344 15.476562 7.910156 16.015625 7.917969 C 16.199219 7.917969 16.382812 7.921875 16.566406 7.925781 C 16.832031 7.929688 17.09375 7.933594 17.359375 7.933594 C 17.441406 7.9375 17.523438 7.9375 17.605469 7.941406 C 17.960938 7.941406 18.1875 7.929688 18.484375 7.71875 C 18.699219 7.421875 18.890625 7.117188 19.074219 6.796875 C 19.113281 6.730469 19.148438 6.667969 19.1875 6.601562 C 19.308594 6.394531 19.429688 6.1875 19.546875 5.980469 C 19.664062 5.777344 19.78125 5.574219 19.898438 5.371094 C 19.976562 5.238281 20.054688 5.105469 20.128906 4.96875 C 20.324219 4.632812 20.523438 4.304688 20.730469 3.980469 C 20.773438 3.914062 20.8125 3.851562 20.855469 3.789062 C 20.964844 3.617188 21.078125 3.445312 21.191406 3.273438 C 21.355469 3.003906 21.355469 3.003906 21.308594 2.742188 C 21.238281 2.5625 21.238281 2.5625 21.121094 2.453125 C 20.835938 2.441406 20.558594 2.441406 20.277344 2.441406 C 20.1875 2.441406 20.097656 2.441406 20.007812 2.441406 C 19.714844 2.441406 19.421875 2.441406 19.125 2.441406 C 18.921875 2.441406 18.71875 2.441406 18.515625 2.445312 C 17.980469 2.445312 17.445312 2.445312 16.910156 2.445312 C 16.363281 2.445312 15.816406 2.449219 15.269531 2.449219 C 14.199219 2.449219 13.125 2.449219 12.054688 2.453125 Z M 4.480469 9.28125 C 4.796875 10.289062 4.796875 10.289062 5.332031 11.414062 C 8.324219 11.378906 11.316406 11.34375 14.398438 11.308594 C 14.09375 10.308594 14.09375 10.308594 13.546875 9.28125 C 10.554688 9.28125 7.5625 9.28125 4.480469 9.28125 Z M 5.972656 12.691406 C 6.035156 13.054688 6.125 13.367188 6.273438 13.703125 C 6.316406 13.792969 6.355469 13.882812 6.394531 13.976562 C 6.4375 14.074219 6.480469 14.171875 6.527344 14.269531 C 6.570312 14.371094 6.613281 14.472656 6.660156 14.574219 C 6.753906 14.785156 6.847656 14.996094 6.941406 15.207031 C 7.085938 15.53125 7.230469 15.855469 7.371094 16.179688 C 7.464844 16.386719 7.554688 16.59375 7.644531 16.796875 C 7.6875 16.894531 7.730469 16.992188 7.777344 17.089844 C 7.816406 17.179688 7.855469 17.273438 7.898438 17.363281 C 7.933594 17.445312 7.96875 17.523438 8.003906 17.605469 C 8.113281 17.839844 8.113281 17.839844 8.320312 18.132812 C 8.609375 18.164062 8.878906 18.179688 9.167969 18.175781 C 9.253906 18.175781 9.339844 18.175781 9.425781 18.175781 C 9.601562 18.175781 9.78125 18.175781 9.960938 18.175781 C 10.230469 18.171875 10.503906 18.175781 10.777344 18.175781 C 10.949219 18.175781 11.125 18.175781 11.296875 18.175781 C 11.378906 18.175781 11.460938 18.175781 11.542969 18.179688 C 11.964844 18.175781 11.964844 18.175781 12.347656 18.015625 C 12.550781 17.707031 12.746094 17.390625 12.933594 17.070312 C 12.976562 16.996094 13.019531 16.921875 13.0625 16.847656 C 13.199219 16.613281 13.335938 16.378906 13.472656 16.148438 C 13.652344 15.839844 13.832031 15.535156 14.011719 15.230469 C 14.054688 15.15625 14.097656 15.082031 14.140625 15.007812 C 14.421875 14.53125 14.71875 14.074219 15.039062 13.625 C 15.203125 13.34375 15.203125 13.113281 15.148438 12.800781 C 14.957031 12.609375 14.703125 12.679688 14.453125 12.679688 C 14.367188 12.679688 14.28125 12.679688 14.195312 12.679688 C 14.105469 12.679688 14.019531 12.679688 13.925781 12.679688 C 13.632812 12.679688 13.339844 12.683594 13.046875 12.683594 C 12.84375 12.683594 12.640625 12.683594 12.4375 12.683594 C 11.902344 12.683594 11.367188 12.683594 10.828125 12.6875 C 10.285156 12.6875 9.738281 12.6875 9.191406 12.6875 C 8.117188 12.6875 7.046875 12.691406 5.972656 12.691406 Z M 4.800781 13.972656 C 4.652344 14.191406 4.523438 14.40625 4.394531 14.632812 C 4.355469 14.699219 4.316406 14.765625 4.273438 14.835938 C 4.148438 15.050781 4.023438 15.269531 3.898438 15.488281 C 3.816406 15.632812 3.734375 15.777344 3.648438 15.921875 C 3.496094 16.1875 3.339844 16.453125 3.1875 16.722656 C 2.988281 17.066406 2.988281 17.066406 2.785156 17.34375 C 2.726562 17.472656 2.726562 17.472656 2.667969 17.601562 C 2.738281 17.777344 2.808594 17.953125 2.878906 18.132812 C 4.148438 18.132812 5.414062 18.132812 6.71875 18.132812 C 6.621094 17.632812 6.460938 17.214844 6.253906 16.753906 C 6.199219 16.636719 6.199219 16.636719 6.144531 16.511719 C 6.035156 16.257812 5.921875 16.007812 5.808594 15.753906 C 5.730469 15.582031 5.652344 15.410156 5.578125 15.238281 C 5.390625 14.816406 5.203125 14.394531 5.011719 13.972656 C 4.941406 13.972656 4.871094 13.972656 4.800781 13.972656 Z M 3.519531 19.519531 C 3.769531 20.285156 3.769531 20.285156 4.074219 21.019531 C 4.109375 21.101562 4.148438 21.179688 4.183594 21.265625 C 4.226562 21.351562 4.226562 21.351562 4.265625 21.441406 C 4.601562 21.292969 4.816406 21.125 5.0625 20.859375 C 5.128906 20.789062 5.195312 20.71875 5.261719 20.644531 C 5.328125 20.570312 5.398438 20.496094 5.464844 20.421875 C 5.535156 20.34375 5.605469 20.269531 5.675781 20.195312 C 6.011719 19.894531 6.011719 19.894531 6.1875 19.519531 C 5.308594 19.519531 4.425781 19.519531 3.519531 19.519531 Z M 3.519531 19.519531 "/>
<path style=" stroke:none;fill-rule:nonzero;fill:rgb(29.803923%,22.745098%,87.843138%);fill-opacity:1;" d="M 7.039062 0.960938 C 8.832031 0.953125 10.625 0.953125 12.417969 0.949219 C 13.253906 0.949219 14.085938 0.945312 14.917969 0.945312 C 15.644531 0.941406 16.371094 0.941406 17.097656 0.941406 C 17.480469 0.941406 17.863281 0.9375 18.25 0.9375 C 18.679688 0.9375 19.105469 0.9375 19.535156 0.9375 C 19.726562 0.933594 19.726562 0.933594 19.921875 0.933594 C 21.488281 0.9375 21.488281 0.9375 22.113281 1.414062 C 22.53125 1.839844 22.734375 2.203125 22.773438 2.800781 C 22.714844 3.90625 21.859375 4.9375 21.292969 5.859375 C 21.214844 5.988281 21.136719 6.117188 21.058594 6.246094 C 20.832031 6.617188 20.601562 6.988281 20.375 7.359375 C 20.269531 7.527344 20.269531 7.527344 20.164062 7.703125 C 20.097656 7.804688 20.035156 7.910156 19.96875 8.015625 C 19.882812 8.152344 19.882812 8.152344 19.796875 8.292969 C 19.472656 8.753906 19.097656 9.101562 18.558594 9.28125 C 18.292969 9.289062 18.027344 9.292969 17.757812 9.289062 C 17.679688 9.289062 17.601562 9.289062 17.523438 9.289062 C 17.277344 9.289062 17.027344 9.289062 16.78125 9.285156 C 16.613281 9.285156 16.445312 9.285156 16.277344 9.285156 C 15.863281 9.285156 15.453125 9.28125 15.039062 9.28125 C 15.09375 9.648438 15.09375 9.648438 15.148438 10.027344 C 14.863281 10.171875 14.714844 10.238281 14.398438 10.238281 C 14.417969 10.355469 14.433594 10.46875 14.453125 10.585938 C 14.507812 10.988281 14.507812 10.988281 14.507812 11.414062 C 11.515625 11.414062 8.523438 11.414062 5.441406 11.414062 C 5.441406 11.378906 5.441406 11.34375 5.441406 11.308594 C 8.398438 11.308594 11.355469 11.308594 14.398438 11.308594 C 14.117188 10.671875 13.835938 10.039062 13.546875 9.386719 C 10.554688 9.351562 7.5625 9.316406 4.480469 9.28125 C 4.480469 9.210938 4.480469 9.140625 4.480469 9.066406 C 7.472656 9.03125 10.464844 8.996094 13.546875 8.960938 C 13.476562 8.785156 13.40625 8.609375 13.332031 8.425781 C 14.015625 7.992188 14.015625 7.992188 14.339844 8.027344 C 14.421875 8.066406 14.421875 8.066406 14.507812 8.105469 C 14.445312 8.058594 14.382812 8.011719 14.320312 7.960938 C 13.96875 7.550781 13.652344 6.949219 13.652344 6.398438 C 13.570312 6.488281 13.484375 6.574219 13.398438 6.667969 C 13.121094 6.933594 13.121094 6.933594 12.90625 6.933594 C 12.90625 7.144531 12.90625 7.355469 12.90625 7.574219 C 12.976562 7.574219 13.046875 7.574219 13.121094 7.574219 C 13.085938 7.714844 13.050781 7.855469 13.011719 8 C 12.242188 6.550781 11.625 5.03125 10.988281 3.519531 C 11.058594 3.484375 11.128906 3.449219 11.199219 3.414062 C 11.6875 4.335938 12.050781 5.304688 12.375 6.292969 C 12.515625 5.972656 12.515625 5.972656 12.375 5.652344 C 12.441406 5.570312 12.507812 5.484375 12.578125 5.398438 C 12.8125 5.148438 12.8125 5.148438 12.839844 4.890625 C 12.78125 4.453125 12.585938 4.121094 12.378906 3.738281 C 12.109375 3.238281 11.898438 2.820312 11.839844 2.238281 C 12.160156 2.078125 12.488281 2.125 12.839844 2.132812 C 12.921875 2.132812 13.003906 2.132812 13.085938 2.132812 C 13.355469 2.136719 13.625 2.140625 13.894531 2.144531 C 14.082031 2.148438 14.265625 2.152344 14.453125 2.152344 C 14.945312 2.160156 15.433594 2.167969 15.925781 2.175781 C 16.425781 2.183594 16.925781 2.191406 17.425781 2.195312 C 18.410156 2.210938 19.390625 2.226562 20.375 2.238281 C 20.410156 2.132812 20.445312 2.027344 20.480469 1.921875 C 20.65625 1.992188 20.832031 2.0625 21.011719 2.132812 C 20.976562 2.097656 20.941406 2.0625 20.90625 2.027344 C 20.800781 1.886719 20.691406 1.742188 20.585938 1.601562 C 20.691406 1.53125 20.796875 1.460938 20.90625 1.386719 C 20.90625 1.457031 20.90625 1.527344 20.90625 1.601562 C 20.976562 1.601562 21.046875 1.601562 21.121094 1.601562 C 21.085938 1.496094 21.050781 1.390625 21.011719 1.28125 C 20.820312 1.277344 20.820312 1.277344 20.621094 1.277344 C 19.386719 1.265625 18.152344 1.253906 16.917969 1.242188 C 16.285156 1.238281 15.648438 1.230469 15.015625 1.226562 C 9.550781 1.179688 9.550781 1.179688 7.039062 1.066406 C 7.039062 1.03125 7.039062 0.996094 7.039062 0.960938 Z M 12.054688 2.453125 C 12.242188 3.050781 12.453125 3.621094 12.710938 4.1875 C 12.757812 4.292969 12.757812 4.292969 12.808594 4.398438 C 12.90625 4.617188 13.007812 4.835938 13.105469 5.054688 C 13.171875 5.199219 13.238281 5.34375 13.304688 5.488281 C 13.460938 5.835938 13.621094 6.179688 13.777344 6.527344 C 13.988281 6.980469 14.191406 7.4375 14.398438 7.894531 C 14.9375 7.902344 15.476562 7.910156 16.015625 7.917969 C 16.199219 7.917969 16.382812 7.921875 16.566406 7.925781 C 16.832031 7.929688 17.09375 7.933594 17.359375 7.933594 C 17.441406 7.9375 17.523438 7.9375 17.605469 7.941406 C 17.960938 7.941406 18.1875 7.929688 18.484375 7.71875 C 18.699219 7.421875 18.890625 7.117188 19.074219 6.796875 C 19.113281 6.730469 19.148438 6.667969 19.1875 6.601562 C 19.308594 6.394531 19.429688 6.1875 19.546875 5.980469 C 19.664062 5.777344 19.78125 5.574219 19.898438 5.371094 C 19.976562 5.238281 20.054688 5.105469 20.128906 4.96875 C 20.324219 4.632812 20.523438 4.304688 20.730469 3.980469 C 20.773438 3.914062 20.8125 3.851562 20.855469 3.789062 C 20.964844 3.617188 21.078125 3.445312 21.191406 3.273438 C 21.355469 3.003906 21.355469 3.003906 21.308594 2.742188 C 21.238281 2.5625 21.238281 2.5625 21.121094 2.453125 C 20.835938 2.441406 20.558594 2.441406 20.277344 2.441406 C 20.1875 2.441406 20.097656 2.441406 20.007812 2.441406 C 19.714844 2.441406 19.421875 2.441406 19.125 2.441406 C 18.921875 2.441406 18.71875 2.441406 18.515625 2.445312 C 17.980469 2.445312 17.445312 2.445312 16.910156 2.445312 C 16.363281 2.445312 15.816406 2.449219 15.269531 2.449219 C 14.199219 2.449219 13.125 2.449219 12.054688 2.453125 Z M 12.054688 2.453125 "/>
<path style=" stroke:none;fill-rule:nonzero;fill:rgb(38.82353%,32.156864%,93.725491%);fill-opacity:1;" d="M 7.039062 0.960938 C 8.832031 0.953125 10.625 0.953125 12.417969 0.949219 C 13.253906 0.949219 14.085938 0.945312 14.917969 0.945312 C 15.644531 0.941406 16.371094 0.941406 17.097656 0.941406 C 17.480469 0.941406 17.863281 0.9375 18.25 0.9375 C 18.679688 0.9375 19.105469 0.9375 19.535156 0.9375 C 19.726562 0.933594 19.726562 0.933594 19.921875 0.933594 C 21.488281 0.9375 21.488281 0.9375 22.113281 1.414062 C 22.53125 1.839844 22.734375 2.203125 22.773438 2.800781 C 22.738281 3.734375 22.101562 4.625 21.492188 5.300781 C 21.332031 5.441406 21.332031 5.441406 21.121094 5.441406 C 21.085938 5.511719 21.050781 5.582031 21.011719 5.652344 C 20.691406 5.546875 20.691406 5.546875 20.480469 5.441406 C 20.480469 5.582031 20.480469 5.722656 20.480469 5.867188 C 20.410156 5.867188 20.339844 5.867188 20.265625 5.867188 C 20.160156 5.546875 20.160156 5.546875 20.234375 5.339844 C 20.375 5.121094 20.375 5.121094 20.59375 4.90625 C 20.816406 4.675781 20.878906 4.578125 20.90625 4.265625 C 20.882812 4.183594 20.859375 4.105469 20.832031 4.019531 C 20.792969 3.6875 20.84375 3.625 21.011719 3.351562 C 21.28125 2.992188 21.28125 2.992188 21.121094 2.558594 C 18.128906 2.523438 15.136719 2.488281 12.054688 2.453125 C 12.335938 3.085938 12.617188 3.71875 12.90625 4.375 C 12.855469 4.480469 12.855469 4.480469 12.800781 4.585938 C 12.660156 4.316406 12.519531 4.046875 12.378906 3.773438 C 12.320312 3.660156 12.320312 3.660156 12.257812 3.542969 C 12.039062 3.105469 11.890625 2.734375 11.839844 2.238281 C 12.160156 2.078125 12.488281 2.125 12.839844 2.132812 C 12.964844 2.132812 12.964844 2.132812 13.085938 2.132812 C 13.355469 2.136719 13.625 2.140625 13.894531 2.144531 C 14.082031 2.148438 14.265625 2.152344 14.453125 2.152344 C 14.945312 2.160156 15.433594 2.167969 15.925781 2.175781 C 16.425781 2.183594 16.925781 2.191406 17.425781 2.195312 C 18.410156 2.210938 19.390625 2.226562 20.375 2.238281 C 20.410156 2.132812 20.445312 2.027344 20.480469 1.921875 C 20.65625 1.992188 20.832031 2.0625 21.011719 2.132812 C 20.976562 2.097656 20.941406 2.0625 20.90625 2.027344 C 20.800781 1.886719 20.691406 1.742188 20.585938 1.601562 C 20.691406 1.53125 20.796875 1.460938 20.90625 1.386719 C 20.90625 1.457031 20.90625 1.527344 20.90625 1.601562 C 20.976562 1.601562 21.046875 1.601562 21.121094 1.601562 C 21.085938 1.496094 21.050781 1.390625 21.011719 1.28125 C 20.820312 1.277344 20.820312 1.277344 20.621094 1.277344 C 19.386719 1.265625 18.152344 1.253906 16.917969 1.242188 C 16.285156 1.238281 15.648438 1.230469 15.015625 1.226562 C 9.550781 1.179688 9.550781 1.179688 7.039062 1.066406 C 7.039062 1.03125 7.039062 0.996094 7.039062 0.960938 Z M 7.039062 0.960938 "/>
<path style=" stroke:none;fill-rule:nonzero;fill:rgb(30.588236%,21.960784%,97.254902%);fill-opacity:1;" d="M 20.691406 3.839844 C 20.746094 4 20.746094 4 20.800781 4.160156 C 20.871094 4.195312 20.941406 4.230469 21.011719 4.265625 C 20.734375 4.988281 20.734375 4.988281 20.375 5.226562 C 20.296875 5.554688 20.296875 5.554688 20.265625 5.867188 C 20.335938 5.726562 20.40625 5.585938 20.480469 5.441406 C 20.5625 5.460938 20.644531 5.480469 20.726562 5.5 C 21.023438 5.570312 21.023438 5.570312 21.332031 5.441406 C 21.367188 5.335938 21.402344 5.230469 21.441406 5.121094 C 21.511719 5.15625 21.582031 5.191406 21.652344 5.226562 C 21.226562 5.9375 20.800781 6.648438 20.375 7.359375 C 20.320312 7.457031 20.269531 7.558594 20.214844 7.660156 C 20.160156 7.738281 20.109375 7.8125 20.054688 7.894531 C 19.949219 7.894531 19.84375 7.894531 19.734375 7.894531 C 19.707031 7.972656 19.679688 8.050781 19.652344 8.132812 C 19.507812 8.457031 19.371094 8.632812 19.09375 8.851562 C 18.953125 8.851562 18.8125 8.851562 18.667969 8.851562 C 18.667969 8.921875 18.667969 8.992188 18.667969 9.066406 C 18.167969 9.074219 17.671875 9.082031 17.175781 9.085938 C 17.003906 9.085938 16.835938 9.089844 16.667969 9.089844 C 16.421875 9.09375 16.179688 9.097656 15.9375 9.097656 C 15.863281 9.097656 15.785156 9.101562 15.707031 9.101562 C 15.492188 9.101562 15.492188 9.101562 15.148438 9.066406 C 15.078125 8.960938 15.007812 8.855469 14.933594 8.746094 C 15.003906 8.675781 15.074219 8.605469 15.148438 8.535156 C 15.113281 8.308594 15.113281 8.308594 15.039062 8.105469 C 15.34375 7.957031 15.589844 7.996094 15.929688 8.007812 C 16.136719 8.007812 16.347656 8.011719 16.554688 8.011719 C 16.699219 8.011719 16.84375 8.015625 16.988281 8.023438 C 17.460938 8.039062 17.890625 8.027344 18.347656 7.894531 C 18.675781 7.554688 18.808594 7.152344 18.988281 6.71875 C 19.128906 6.46875 19.273438 6.222656 19.421875 5.976562 C 19.5 5.847656 19.574219 5.71875 19.648438 5.59375 C 19.726562 5.464844 19.804688 5.335938 19.878906 5.207031 C 19.960938 5.074219 20.039062 4.941406 20.117188 4.804688 C 20.308594 4.484375 20.5 4.160156 20.691406 3.839844 Z M 20.691406 3.839844 "/>
<path style=" stroke:none;fill-rule:nonzero;fill:rgb(30.19608%,22.352941%,96.862745%);fill-opacity:1;" d="M 13.332031 17.8125 C 13.402344 17.882812 13.472656 17.953125 13.546875 18.027344 C 13.535156 18.453125 13.347656 18.722656 13.09375 19.058594 C 12.570312 19.457031 11.863281 19.449219 11.234375 19.464844 C 11.148438 19.46875 11.0625 19.46875 10.976562 19.472656 C 10.796875 19.476562 10.613281 19.484375 10.433594 19.488281 C 10.160156 19.492188 9.882812 19.503906 9.609375 19.511719 C 9.433594 19.515625 9.257812 19.519531 9.082031 19.523438 C 9 19.527344 8.917969 19.53125 8.832031 19.535156 C 8.421875 19.542969 8.242188 19.539062 7.894531 19.308594 C 8 18.988281 8 18.988281 8.105469 18.878906 C 8.035156 18.84375 7.964844 18.808594 7.894531 18.773438 C 8.007812 18.460938 8.082031 18.261719 8.320312 18.027344 C 8.355469 18.097656 8.390625 18.167969 8.425781 18.238281 C 8.597656 18.242188 8.597656 18.242188 8.777344 18.246094 C 9.203125 18.253906 9.628906 18.265625 10.054688 18.273438 C 10.242188 18.277344 10.425781 18.28125 10.609375 18.285156 C 10.875 18.289062 11.140625 18.296875 11.40625 18.300781 C 11.488281 18.304688 11.570312 18.304688 11.65625 18.304688 C 12.242188 18.324219 12.242188 18.324219 12.480469 18.558594 C 12.542969 18.492188 12.609375 18.421875 12.671875 18.351562 C 12.90625 18.132812 12.90625 18.132812 13.226562 18.027344 C 13.261719 17.957031 13.296875 17.886719 13.332031 17.8125 Z M 13.332031 17.8125 "/>
<path style=" stroke:none;fill-rule:nonzero;fill:rgb(29.411766%,21.568628%,92.156863%);fill-opacity:1;" d="M 20.691406 3.839844 C 20.730469 3.945312 20.765625 4.050781 20.800781 4.160156 C 20.871094 4.195312 20.941406 4.230469 21.011719 4.265625 C 20.734375 4.988281 20.734375 4.988281 20.375 5.226562 C 20.296875 5.554688 20.296875 5.554688 20.265625 5.867188 C 20.335938 5.726562 20.40625 5.585938 20.480469 5.441406 C 20.5625 5.460938 20.644531 5.480469 20.726562 5.5 C 21.023438 5.570312 21.023438 5.570312 21.332031 5.441406 C 21.367188 5.335938 21.402344 5.230469 21.441406 5.121094 C 21.511719 5.15625 21.582031 5.191406 21.652344 5.226562 C 21.449219 5.570312 21.246094 5.914062 21.039062 6.261719 C 20.984375 6.355469 20.925781 6.453125 20.867188 6.554688 C 20.585938 7.027344 20.308594 7.476562 19.945312 7.894531 C 19.839844 7.523438 19.839844 7.523438 19.734375 7.148438 C 19 7.289062 19 7.289062 18.453125 7.785156 C 18.625 7.308594 18.871094 6.890625 19.128906 6.453125 C 19.175781 6.378906 19.21875 6.304688 19.265625 6.226562 C 19.410156 5.988281 19.550781 5.75 19.691406 5.511719 C 19.789062 5.351562 19.886719 5.1875 19.984375 5.027344 C 20.21875 4.632812 20.457031 4.234375 20.691406 3.839844 Z M 20.691406 3.839844 "/>
<path style=" stroke:none;fill-rule:nonzero;fill:rgb(28.235295%,21.568628%,85.09804%);fill-opacity:1;" d="M 5.652344 1.386719 C 5.722656 1.386719 5.792969 1.386719 5.867188 1.386719 C 5.867188 1.457031 5.867188 1.527344 5.867188 1.601562 C 5.761719 1.671875 5.65625 1.742188 5.546875 1.8125 C 5.417969 2.085938 5.417969 2.085938 5.332031 2.347656 C 5.261719 2.347656 5.191406 2.347656 5.121094 2.347656 C 4.960938 2.707031 4.960938 2.707031 4.90625 3.09375 C 4.976562 3.128906 5.046875 3.164062 5.121094 3.199219 C 5.078125 3.40625 5.078125 3.40625 5.011719 3.625 C 4.941406 3.660156 4.871094 3.695312 4.800781 3.734375 C 4.835938 3.839844 4.871094 3.945312 4.90625 4.054688 C 4.976562 4.054688 5.046875 4.054688 5.121094 4.054688 C 5.121094 3.949219 5.121094 3.84375 5.121094 3.734375 C 5.191406 3.734375 5.261719 3.734375 5.332031 3.734375 C 5.332031 3.804688 5.332031 3.875 5.332031 3.945312 C 5.402344 3.945312 5.472656 3.945312 5.546875 3.945312 C 5.574219 3.867188 5.597656 3.789062 5.625 3.707031 C 5.769531 3.390625 5.929688 3.214844 6.1875 2.988281 C 6.03125 3.40625 5.832031 3.773438 5.601562 4.15625 C 5.53125 4.273438 5.460938 4.394531 5.386719 4.515625 C 5.3125 4.640625 5.234375 4.761719 5.160156 4.886719 C 5.082031 5.011719 5.007812 5.140625 4.933594 5.265625 C 4.746094 5.574219 4.558594 5.878906 4.375 6.1875 C 4.339844 6.117188 4.304688 6.046875 4.265625 5.972656 C 4.398438 5.710938 4.535156 5.464844 4.6875 5.214844 C 4.726562 5.144531 4.769531 5.074219 4.8125 5 C 4.914062 4.828125 5.015625 4.652344 5.121094 4.480469 C 5.050781 4.445312 4.980469 4.410156 4.90625 4.375 C 4.90625 4.445312 4.90625 4.515625 4.90625 4.585938 C 4.726562 4.601562 4.726562 4.601562 4.546875 4.613281 C 4.152344 4.648438 4.152344 4.648438 4.007812 4.914062 C 3.988281 4.980469 3.96875 5.050781 3.945312 5.121094 C 3.910156 5.050781 3.875 4.980469 3.839844 4.90625 C 3.601562 5.125 3.519531 5.226562 3.414062 5.546875 C 3.34375 5.546875 3.273438 5.546875 3.199219 5.546875 C 3.171875 5.617188 3.148438 5.6875 3.121094 5.761719 C 2.988281 6.078125 2.988281 6.078125 2.878906 6.269531 C 2.542969 6.851562 2.472656 7.332031 2.558594 8 C 2.695312 8.433594 2.878906 8.835938 3.074219 9.246094 C 3.121094 9.351562 3.167969 9.457031 3.21875 9.566406 C 3.390625 9.941406 3.558594 10.3125 3.738281 10.679688 C 3.910156 11.050781 3.960938 11.238281 3.839844 11.625 C 3.644531 11.179688 3.453125 10.734375 3.257812 10.289062 C 3.195312 10.136719 3.128906 9.984375 3.0625 9.835938 C 2.96875 9.617188 2.871094 9.398438 2.777344 9.179688 C 2.75 9.113281 2.71875 9.042969 2.6875 8.976562 C 2.058594 7.519531 2.058594 7.519531 2.347656 6.761719 C 2.714844 5.988281 3.175781 5.269531 3.632812 4.550781 C 4.082031 3.84375 4.511719 3.121094 4.945312 2.40625 C 5.003906 2.304688 5.066406 2.203125 5.128906 2.097656 C 5.210938 1.960938 5.210938 1.960938 5.296875 1.824219 C 5.441406 1.601562 5.441406 1.601562 5.652344 1.386719 Z M 5.652344 1.386719 "/>
<path style=" stroke:none;fill-rule:nonzero;fill:rgb(29.411766%,24.705882%,78.431374%);fill-opacity:1;" d="M 12.292969 2.125 C 12.449219 2.125 12.605469 2.128906 12.761719 2.132812 C 12.890625 2.132812 12.890625 2.132812 13.019531 2.132812 C 13.304688 2.136719 13.585938 2.140625 13.871094 2.144531 C 14.066406 2.148438 14.261719 2.152344 14.457031 2.152344 C 14.976562 2.160156 15.492188 2.167969 16.007812 2.175781 C 16.535156 2.183594 17.0625 2.191406 17.589844 2.195312 C 18.625 2.210938 19.660156 2.226562 20.691406 2.238281 C 20.691406 2.308594 20.691406 2.378906 20.691406 2.453125 C 17.84375 2.453125 14.992188 2.453125 12.054688 2.453125 C 12.335938 3.085938 12.617188 3.71875 12.90625 4.375 C 12.871094 4.445312 12.835938 4.515625 12.800781 4.585938 C 12.660156 4.316406 12.519531 4.046875 12.378906 3.773438 C 12.339844 3.699219 12.300781 3.621094 12.257812 3.542969 C 12.039062 3.109375 11.875 2.734375 11.839844 2.238281 C 11.945312 2.132812 11.945312 2.132812 12.292969 2.125 Z M 12.292969 2.125 "/>
<path style=" stroke:none;fill-rule:nonzero;fill:rgb(27.058825%,20.784314%,80.392158%);fill-opacity:1;" d="M 1.28125 17.28125 C 1.441406 17.582031 1.550781 17.875 1.640625 18.207031 C 1.773438 18.671875 1.949219 19.09375 2.15625 19.53125 C 2.238281 19.734375 2.238281 19.734375 2.238281 20.054688 C 2.308594 20.054688 2.378906 20.054688 2.453125 20.054688 C 2.484375 20.140625 2.519531 20.230469 2.550781 20.324219 C 2.9375 21.410156 2.9375 21.410156 3.519531 22.398438 C 3.679688 22.453125 3.679688 22.453125 3.839844 22.507812 C 3.839844 22.578125 3.839844 22.648438 3.839844 22.71875 C 4.507812 22.71875 4.898438 22.609375 5.378906 22.144531 C 5.4375 22.089844 5.492188 22.03125 5.546875 21.972656 C 5.683594 21.839844 5.683594 21.839844 5.828125 21.699219 C 5.910156 21.613281 5.992188 21.527344 6.078125 21.441406 C 6.175781 21.347656 6.273438 21.253906 6.375 21.160156 C 6.632812 20.921875 6.632812 20.921875 6.71875 20.585938 C 6.824219 20.585938 6.929688 20.585938 7.039062 20.585938 C 6.988281 20.429688 6.988281 20.429688 6.933594 20.265625 C 7.011719 20.222656 7.089844 20.179688 7.171875 20.132812 C 7.457031 19.953125 7.664062 19.765625 7.894531 19.519531 C 7.964844 19.554688 8.035156 19.589844 8.105469 19.625 C 8.0625 19.671875 8.015625 19.714844 7.96875 19.761719 C 7.644531 20.082031 7.328125 20.402344 7.035156 20.753906 C 6.65625 21.1875 6.257812 21.601562 5.851562 22.011719 C 5.757812 22.113281 5.757812 22.113281 5.660156 22.214844 C 5.328125 22.546875 5.058594 22.816406 4.585938 22.933594 C 3.992188 22.925781 3.71875 22.859375 3.253906 22.464844 C 2.964844 22.160156 2.820312 21.796875 2.660156 21.414062 C 2.625 21.328125 2.585938 21.246094 2.550781 21.160156 C 2.433594 20.894531 2.320312 20.625 2.207031 20.359375 C 2.128906 20.179688 2.050781 20 1.972656 19.820312 C 1.265625 18.195312 1.265625 18.195312 1.28125 17.28125 Z M 1.28125 17.28125 "/>
<path style=" stroke:none;fill-rule:nonzero;fill:rgb(27.843139%,21.960784%,80.000001%);fill-opacity:1;" d="M 19.734375 7.894531 C 19.804688 7.894531 19.875 7.894531 19.945312 7.894531 C 19.804688 8.488281 19.351562 8.824219 18.878906 9.171875 C 18.507812 9.296875 18.171875 9.292969 17.78125 9.289062 C 17.667969 9.289062 17.667969 9.289062 17.554688 9.289062 C 17.3125 9.289062 17.074219 9.289062 16.832031 9.285156 C 16.671875 9.285156 16.507812 9.285156 16.34375 9.285156 C 15.945312 9.285156 15.546875 9.28125 15.148438 9.28125 C 15.148438 9.210938 15.148438 9.140625 15.148438 9.066406 C 16.308594 9.066406 17.46875 9.066406 18.667969 9.066406 C 18.667969 8.996094 18.667969 8.925781 18.667969 8.851562 C 18.746094 8.828125 18.824219 8.804688 18.90625 8.78125 C 19.316406 8.585938 19.53125 8.296875 19.734375 7.894531 Z M 19.734375 7.894531 "/>
<path style=" stroke:none;fill-rule:nonzero;fill:rgb(28.235295%,21.176471%,89.411765%);fill-opacity:1;" d="M 6.078125 19.625 C 6.152344 19.660156 6.222656 19.695312 6.292969 19.734375 C 6.140625 19.875 6.140625 19.875 5.988281 20.019531 C 5.714844 20.296875 5.511719 20.515625 5.441406 20.90625 C 5.589844 21.132812 5.589844 21.132812 5.761719 21.332031 C 5.726562 21.4375 5.691406 21.542969 5.652344 21.652344 C 5.527344 21.621094 5.527344 21.621094 5.398438 21.585938 C 5.261719 21.566406 5.261719 21.566406 5.121094 21.546875 C 5.050781 21.617188 4.980469 21.6875 4.90625 21.761719 C 4.835938 21.65625 4.765625 21.546875 4.691406 21.441406 C 4.480469 21.546875 4.480469 21.546875 4.265625 21.652344 C 4.265625 21.582031 4.265625 21.511719 4.265625 21.441406 C 4.402344 21.308594 4.402344 21.308594 4.59375 21.160156 C 4.96875 20.851562 5.277344 20.511719 5.589844 20.140625 C 5.746094 19.960938 5.910156 19.792969 6.078125 19.625 Z M 6.078125 19.625 "/>
<path style=" stroke:none;fill-rule:nonzero;fill:rgb(29.803923%,23.529412%,81.960785%);fill-opacity:1;" d="M 3.625 15.679688 C 3.695312 15.714844 3.765625 15.75 3.839844 15.785156 C 3.808594 15.839844 3.773438 15.890625 3.742188 15.945312 C 3.59375 16.1875 3.445312 16.425781 3.300781 16.667969 C 3.25 16.75 3.195312 16.832031 3.144531 16.917969 C 3.09375 17 3.046875 17.078125 2.996094 17.160156 C 2.949219 17.234375 2.90625 17.308594 2.859375 17.386719 C 2.738281 17.628906 2.738281 17.628906 2.878906 18.027344 C 4.148438 18.0625 5.414062 18.097656 6.71875 18.132812 C 6.648438 17.886719 6.578125 17.640625 6.507812 17.386719 C 6.667969 17.511719 6.667969 17.511719 6.828125 17.707031 C 6.835938 17.984375 6.835938 17.984375 6.828125 18.238281 C 6.253906 18.246094 5.683594 18.253906 5.113281 18.257812 C 4.917969 18.257812 4.722656 18.261719 4.527344 18.265625 C 4.25 18.269531 3.96875 18.269531 3.691406 18.269531 C 3.5625 18.273438 3.5625 18.273438 3.425781 18.277344 C 2.816406 18.277344 2.816406 18.277344 2.585938 18.078125 C 2.542969 18.027344 2.5 17.972656 2.453125 17.921875 C 2.609375 17.367188 2.859375 16.921875 3.160156 16.441406 C 3.203125 16.367188 3.25 16.292969 3.296875 16.21875 C 3.40625 16.039062 3.515625 15.859375 3.625 15.679688 Z M 3.625 15.679688 "/>
<path style=" stroke:none;fill-rule:nonzero;fill:rgb(28.235295%,22.352941%,80.392158%);fill-opacity:1;" d="M 6.398438 19.414062 C 6.117188 19.554688 5.898438 19.53125 5.582031 19.53125 C 5.460938 19.53125 5.34375 19.53125 5.21875 19.53125 C 5.09375 19.527344 4.96875 19.527344 4.839844 19.527344 C 4.714844 19.527344 4.585938 19.527344 4.457031 19.523438 C 4.144531 19.523438 3.832031 19.523438 3.519531 19.519531 C 3.554688 19.660156 3.589844 19.800781 3.625 19.945312 C 3.519531 19.910156 3.414062 19.875 3.308594 19.839844 C 3.308594 19.699219 3.308594 19.558594 3.308594 19.414062 C 3.761719 19.1875 4.351562 19.253906 4.851562 19.234375 C 4.976562 19.226562 5.101562 19.21875 5.230469 19.214844 C 5.347656 19.207031 5.46875 19.203125 5.589844 19.199219 C 5.699219 19.195312 5.808594 19.1875 5.921875 19.183594 C 6.1875 19.199219 6.1875 19.199219 6.398438 19.414062 Z M 6.398438 19.414062 "/>
<path style=" stroke:none;fill-rule:nonzero;fill:rgb(29.019609%,21.960784%,89.803922%);fill-opacity:1;" d="M 12.90625 4.585938 C 13.273438 4.988281 13.394531 5.464844 13.546875 5.972656 C 13.476562 5.972656 13.40625 5.972656 13.332031 5.972656 C 13.261719 5.796875 13.191406 5.621094 13.121094 5.441406 C 12.910156 5.757812 12.910156 5.757812 12.691406 6.078125 C 12.585938 5.972656 12.480469 5.867188 12.375 5.761719 C 12.480469 5.441406 12.480469 5.441406 12.640625 5.292969 C 12.847656 5.070312 12.867188 4.882812 12.90625 4.585938 Z M 12.90625 4.585938 "/>
<path style=" stroke:none;fill-rule:nonzero;fill:rgb(27.450982%,20.784314%,85.09804%);fill-opacity:1;" d="M 8.480469 0.992188 C 8.640625 1 8.800781 1.007812 8.960938 1.011719 C 9.351562 1.027344 9.742188 1.046875 10.132812 1.066406 C 10.132812 1.101562 10.132812 1.136719 10.132812 1.171875 C 10.023438 1.175781 9.914062 1.175781 9.804688 1.179688 C 9.402344 1.1875 9 1.199219 8.59375 1.207031 C 8.421875 1.210938 8.246094 1.214844 8.070312 1.21875 C 7.820312 1.222656 7.570312 1.230469 7.320312 1.234375 C 7.203125 1.238281 7.203125 1.238281 7.082031 1.238281 C 6.640625 1.238281 6.640625 1.238281 6.292969 1.492188 C 6.152344 1.421875 6.011719 1.351562 5.867188 1.28125 C 6.710938 0.847656 7.5625 0.949219 8.480469 0.992188 Z M 8.480469 0.992188 "/>
<path style=" stroke:none;fill-rule:nonzero;fill:rgb(28.627452%,21.176471%,90.588236%);fill-opacity:1;" d="M 4.480469 10.347656 C 4.480469 10.558594 4.480469 10.769531 4.480469 10.988281 C 4.339844 11.023438 4.199219 11.058594 4.054688 11.09375 C 4.089844 11.175781 4.128906 11.257812 4.167969 11.339844 C 4.265625 11.625 4.265625 11.625 4.160156 11.945312 C 4.230469 11.945312 4.300781 11.945312 4.375 11.945312 C 4.375 12.121094 4.375 12.296875 4.375 12.480469 C 4.304688 12.515625 4.234375 12.550781 4.160156 12.585938 C 4.144531 12.507812 4.128906 12.433594 4.117188 12.351562 C 4.058594 12.058594 4.058594 12.058594 3.976562 11.789062 C 3.789062 11.089844 3.789062 11.089844 3.941406 10.777344 C 4.296875 10.347656 4.296875 10.347656 4.480469 10.347656 Z M 4.480469 10.347656 "/>
<path style=" stroke:none;fill-rule:nonzero;fill:rgb(27.843139%,21.568628%,80.392158%);fill-opacity:1;" d="M 2.773438 14.71875 C 2.84375 14.859375 2.914062 15 2.988281 15.148438 C 2.921875 15.152344 2.855469 15.15625 2.785156 15.160156 C 2.710938 15.191406 2.636719 15.222656 2.558594 15.253906 C 2.484375 15.464844 2.414062 15.679688 2.347656 15.894531 C 2.1875 16.144531 2.023438 16.382812 1.847656 16.625 C 1.710938 16.847656 1.648438 17.023438 1.601562 17.28125 C 1.53125 17.28125 1.460938 17.28125 1.386719 17.28125 C 1.449219 16.871094 1.5625 16.597656 1.785156 16.25 C 1.839844 16.160156 1.898438 16.070312 1.957031 15.980469 C 2.019531 15.886719 2.078125 15.796875 2.140625 15.699219 C 2.199219 15.605469 2.261719 15.511719 2.324219 15.414062 C 2.472656 15.183594 2.621094 14.949219 2.773438 14.71875 Z M 2.773438 14.71875 "/>
<path style=" stroke:none;fill-rule:nonzero;fill:rgb(27.843139%,20.784314%,87.450981%);fill-opacity:1;" d="M 20.691406 3.839844 C 20.730469 3.945312 20.765625 4.050781 20.800781 4.160156 C 20.871094 4.195312 20.941406 4.230469 21.011719 4.265625 C 21 4.460938 21 4.460938 20.90625 4.691406 C 20.695312 4.808594 20.484375 4.914062 20.265625 5.011719 C 20.074219 5.179688 20.074219 5.179688 19.945312 5.332031 C 20.136719 4.804688 20.414062 4.328125 20.691406 3.839844 Z M 20.691406 3.839844 "/>
<path style=" stroke:none;fill-rule:nonzero;fill:rgb(28.235295%,21.568628%,81.960785%);fill-opacity:1;" d="M 5.441406 14.933594 C 5.511719 14.933594 5.582031 14.933594 5.652344 14.933594 C 5.800781 15.261719 5.945312 15.589844 6.085938 15.921875 C 6.128906 16.011719 6.167969 16.105469 6.210938 16.203125 C 6.25 16.292969 6.289062 16.382812 6.332031 16.476562 C 6.367188 16.558594 6.402344 16.640625 6.441406 16.726562 C 6.515625 16.992188 6.492188 17.128906 6.398438 17.386719 C 6.238281 17.019531 6.078125 16.648438 5.921875 16.28125 C 5.875 16.175781 5.828125 16.070312 5.78125 15.960938 C 5.738281 15.859375 5.695312 15.761719 5.648438 15.65625 C 5.609375 15.566406 5.570312 15.472656 5.527344 15.375 C 5.441406 15.148438 5.441406 15.148438 5.441406 14.933594 Z M 5.441406 14.933594 "/>
<path style=" stroke:none;fill-rule:nonzero;fill:rgb(28.235295%,21.568628%,80.000001%);fill-opacity:1;" d="M 13.761719 17.921875 C 13.832031 17.957031 13.902344 17.992188 13.972656 18.027344 C 13.285156 19.136719 13.285156 19.136719 12.800781 19.414062 C 12.445312 19.441406 12.445312 19.441406 12.160156 19.414062 C 12.160156 19.378906 12.160156 19.34375 12.160156 19.308594 C 12.273438 19.285156 12.382812 19.261719 12.5 19.238281 C 12.980469 19.101562 13.160156 18.863281 13.441406 18.453125 C 13.515625 18.21875 13.515625 18.21875 13.546875 18.027344 C 13.617188 17.992188 13.6875 17.957031 13.761719 17.921875 Z M 13.761719 17.921875 "/>
<path style=" stroke:none;fill-rule:nonzero;fill:rgb(29.803923%,22.352941%,84.705883%);fill-opacity:1;" d="M 3.625 20.054688 C 3.890625 20.40625 4.003906 20.585938 4.125 20.988281 C 4.167969 21.113281 4.167969 21.113281 4.207031 21.246094 C 4.226562 21.308594 4.246094 21.375 4.265625 21.441406 C 4.160156 21.40625 4.054688 21.371094 3.945312 21.332031 C 3.945312 21.261719 3.945312 21.191406 3.945312 21.121094 C 3.839844 21.121094 3.734375 21.121094 3.625 21.121094 C 3.625 20.769531 3.625 20.414062 3.625 20.054688 Z M 3.625 20.054688 "/>
<path style=" stroke:none;fill-rule:nonzero;fill:rgb(27.450982%,21.568628%,83.92157%);fill-opacity:1;" d="M 7.894531 19.519531 C 7.964844 19.554688 8.035156 19.589844 8.105469 19.625 C 8.035156 19.699219 8.035156 19.699219 7.957031 19.769531 C 7.660156 20.066406 7.375 20.355469 7.113281 20.6875 C 7.023438 20.796875 7.023438 20.796875 6.933594 20.90625 C 6.863281 20.90625 6.792969 20.90625 6.71875 20.90625 C 6.71875 20.800781 6.71875 20.695312 6.71875 20.585938 C 6.824219 20.585938 6.929688 20.585938 7.039062 20.585938 C 7.003906 20.480469 6.96875 20.375 6.933594 20.265625 C 7.011719 20.222656 7.089844 20.179688 7.171875 20.132812 C 7.457031 19.953125 7.664062 19.765625 7.894531 19.519531 Z M 7.894531 19.519531 "/>
<path style=" stroke:none;fill-rule:nonzero;fill:rgb(27.058825%,21.176471%,80.392158%);fill-opacity:1;" d="M 15.148438 13.226562 C 15.183594 13.332031 15.21875 13.4375 15.253906 13.546875 C 15.105469 13.8125 14.953125 14.0625 14.78125 14.3125 C 14.734375 14.382812 14.6875 14.453125 14.640625 14.523438 C 14.523438 14.695312 14.410156 14.867188 14.292969 15.039062 C 14.257812 14.96875 14.222656 14.898438 14.1875 14.828125 C 14.335938 14.546875 14.492188 14.28125 14.660156 14.011719 C 14.730469 13.898438 14.730469 13.898438 14.800781 13.785156 C 14.914062 13.597656 15.03125 13.414062 15.148438 13.226562 Z M 15.148438 13.226562 "/>
</g>
</svg>
