<?xml version="1.0" encoding="UTF-8"?>
<svg xmlns="http://www.w3.org/2000/svg" xmlns:xlink="http://www.w3.org/1999/xlink" width="300px" height="300px" viewBox="0 0 300 300" version="1.1">
<g id="surface1">
<path style=" stroke:none;fill-rule:nonzero;fill:rgb(94.117647%,31.37255%,19.607843%);fill-opacity:1;" d="M 294.324219 136.625 L 163.335938 5.648438 C 155.789062 -1.886719 143.5625 -1.886719 135.988281 5.648438 L 108.851562 32.835938 L 143.351562 67.335938 C 151.414062 64.648438 160.585938 66.460938 166.960938 72.851562 C 173.414062 79.289062 175.1875 88.574219 172.4375 96.601562 L 205.664062 129.851562 C 213.726562 127.0625 223 128.875 229.414062 135.289062 C 238.425781 144.289062 238.425781 158.835938 229.414062 167.835938 C 220.425781 176.824219 205.898438 176.824219 196.914062 167.835938 C 190.175781 161.074219 188.488281 151.125 191.863281 142.886719 L 160.75 111.9375 L 160.75 193.5 C 162.949219 194.574219 165.023438 196.039062 166.851562 197.851562 C 175.761719 206.863281 175.761719 221.386719 166.851562 230.351562 C 157.863281 239.363281 143.238281 239.363281 134.238281 230.351562 C 125.25 221.363281 125.25 206.863281 134.238281 197.875 C 136.511719 195.625 139.074219 193.925781 141.800781 192.800781 L 141.800781 110.4375 C 139.085938 109.300781 136.5 107.664062 134.300781 105.425781 C 127.488281 98.613281 125.851562 88.648438 129.351562 80.3125 L 95.449219 46.25 L 5.625 136.011719 C -1.875 143.574219 -1.875 155.8125 5.625 163.375 L 136.625 294.335938 C 144.175781 301.886719 156.398438 301.886719 163.949219 294.335938 L 294.324219 163.960938 C 301.886719 156.425781 301.886719 144.1875 294.324219 136.625 "/>
</g>
</svg>
