<?xml version="1.0" encoding="UTF-8"?>
<svg xmlns="http://www.w3.org/2000/svg" xmlns:xlink="http://www.w3.org/1999/xlink" width="300px" height="300px" viewBox="0 0 300 300" version="1.1">
<g id="surface1">
<rect x="0" y="0" width="300" height="300" style="fill:rgb(94.117647%,85.882354%,30.980393%);fill-opacity:1;stroke:none;"/>
<path style=" stroke:none;fill-rule:nonzero;fill:rgb(19.607843%,20%,18.82353%);fill-opacity:1;" d="M 275.445312 228.449219 C 273.25 214.761719 264.324219 203.269531 237.890625 192.546875 C 228.707031 188.328125 218.46875 185.304688 215.417969 178.347656 C 214.335938 174.296875 214.191406 172.015625 214.875 169.5625 C 216.84375 161.605469 226.339844 159.125 233.867188 161.40625 C 238.714844 163.03125 243.308594 166.769531 246.074219 172.726562 C 259.019531 164.34375 258.992188 164.402344 268.03125 158.640625 C 264.722656 153.507812 262.957031 151.140625 260.789062 148.945312 C 253.003906 140.246094 242.394531 135.769531 225.429688 136.113281 C 222.492188 136.484375 219.523438 136.882812 216.585938 137.253906 C 208.117188 139.390625 200.046875 143.839844 195.3125 149.800781 C 181.113281 165.914062 185.160156 194.117188 202.441406 205.722656 C 219.46875 218.5 244.476562 221.40625 247.671875 233.355469 C 250.78125 247.984375 236.921875 252.71875 223.144531 251.035156 C 212.996094 248.925781 207.347656 243.765625 201.246094 234.382812 C 190.011719 240.882812 190.011719 240.882812 178.460938 247.527344 C 181.199219 253.515625 184.078125 256.226562 188.667969 261.417969 C 210.398438 283.460938 264.78125 282.375 274.535156 249.011719 C 274.933594 247.871094 277.558594 240.226562 275.445312 228.449219 Z M 163.089844 137.878906 L 135.027344 137.878906 C 135.027344 162.121094 134.914062 186.1875 134.914062 210.429688 C 134.914062 225.855469 135.714844 240 133.203125 244.335938 C 129.097656 252.859375 118.460938 251.804688 113.613281 250.152344 C 108.679688 247.726562 106.167969 244.277344 103.261719 239.402344 C 102.460938 238.003906 101.863281 236.921875 101.664062 236.835938 C 94.050781 241.484375 86.464844 246.160156 78.851562 250.808594 C 82.644531 258.59375 88.230469 265.351562 95.390625 269.742188 C 106.082031 276.160156 120.457031 278.128906 135.484375 274.675781 C 145.265625 271.824219 153.707031 265.921875 158.128906 256.9375 C 164.515625 245.160156 163.144531 230.902344 163.089844 215.132812 C 163.230469 189.410156 163.089844 163.6875 163.089844 137.878906 Z M 163.089844 137.878906 "/>
</g>
</svg>
