<?xml version="1.0" encoding="UTF-8"?>
<svg version="1.1" xmlns="http://www.w3.org/2000/svg" width="492" height="507">
<path d="M0 0 C0.82514099 0.00087616 1.65028198 0.00175232 2.50042725 0.00265503 C15.07268611 0.04674841 27.04358403 0.58370482 39.125 4.375 C40.332771 4.75301758 40.332771 4.75301758 41.56494141 5.13867188 C54.45999748 9.31111679 66.95561907 14.5685623 77.5390625 23.2109375 C79.2388234 24.58317205 79.2388234 24.58317205 82.125 25.375 C82.125 26.035 82.125 26.695 82.125 27.375 C82.805625 27.58125 83.48625 27.7875 84.1875 28 C88.04139375 29.80395027 91.20287764 32.2760345 94.125 35.375 C94.125 36.035 94.125 36.695 94.125 37.375 C94.7025 37.6225 95.28 37.87 95.875 38.125 C98.45439979 39.55799988 100.18621592 41.15924676 102.125 43.375 C102.125 44.035 102.125 44.695 102.125 45.375 C102.785 45.375 103.445 45.375 104.125 45.375 C119.125 61.58189655 119.125 61.58189655 119.125 68.375 C119.785 68.375 120.445 68.375 121.125 68.375 C135.66681683 92.99274574 135.66681683 92.99274574 135.125 100.375 C133.85527344 100.34019531 132.58554687 100.30539063 131.27734375 100.26953125 C114.91719378 99.95838044 97.75644833 100.51219964 85.125 112.375 C76.70789115 122.91032168 75.44328586 133.92888542 76.375 147.125 C77.03453568 152.73105327 78.4520393 157.99458827 80.125 163.375 C80.42921875 164.42558594 80.7334375 165.47617188 81.046875 166.55859375 C85.60233129 181.36382669 92.26740556 195.75262446 99.90576172 209.21240234 C102.00145962 212.92960139 103.96072586 216.71861982 105.9375 220.5 C108.44589124 225.29503577 110.95664643 230.08659335 113.55078125 234.8359375 C113.92291748 235.52026855 114.29505371 236.20459961 114.6784668 236.90966797 C115.3766107 238.19015519 116.07966618 239.46798055 116.78833008 240.74267578 C118.2987385 243.52138709 119.125 245.15587575 119.125 248.375 C119.785 248.375 120.445 248.375 121.125 248.375 C122.4921875 250.16796875 122.4921875 250.16796875 124 252.5625 C125.74564441 255.28365158 127.46257265 257.79252407 129.5 260.3125 C131.125 262.375 131.125 262.375 131.125 264.375 C131.785 264.375 132.445 264.375 133.125 264.375 C132.125 267.375 132.125 267.375 130.19921875 268.5078125 C129.41160156 268.83523438 128.62398437 269.16265625 127.8125 269.5 C126.64267578 269.99886719 126.64267578 269.99886719 125.44921875 270.5078125 C123.125 271.375 123.125 271.375 120.8984375 271.8515625 C120.31320312 272.02429688 119.72796875 272.19703125 119.125 272.375 C117.98954438 274.67034258 117.98954438 274.67034258 117.125 277.375 C116.37959961 278.53237671 116.37959961 278.53237671 115.61914062 279.71313477 C114.01899982 282.56384313 113.60247043 284.4841294 113.28125 287.71484375 C113.17103516 288.76269043 113.06082031 289.81053711 112.94726562 290.89013672 C112.84091797 292.0195166 112.73457031 293.14889648 112.625 294.3125 C112.50318359 295.49602051 112.38136719 296.67954102 112.25585938 297.89892578 C111.86538503 301.72307134 111.49311271 305.54864095 111.125 309.375 C110.62744153 314.50024093 110.12768863 319.62525963 109.625 324.75 C109.439375 326.65108521 109.439375 326.65108521 109.25 328.59057617 C108.44788916 336.6351839 107.46291322 344.62410513 106.24560547 352.61572266 C105.38253927 358.33868677 104.70876984 364.06321553 104.10205078 369.81884766 C99.18037915 416.03887344 99.18037915 416.03887344 87.125 430.375 C86.465 430.375 85.805 430.375 85.125 430.375 C85.125 431.035 85.125 431.695 85.125 432.375 C71.89286989 443.76933426 51.89472599 448.27646454 34.78515625 447.75390625 C25.48193967 446.79081979 17.67098775 443.09390063 11.125 436.375 C8.49698267 432.85734256 6.2623408 429.20707151 4.125 425.375 C3.526875 424.323125 2.92875 423.27125 2.3125 422.1875 C-3.39153864 408.67793479 -3.28422851 392.31247466 -4 377.8125 C-4.0650322 376.56362503 -4.0650322 376.56362503 -4.13137817 375.28952026 C-4.75866024 362.87170414 -4.93593743 350.47018164 -4.89453125 338.0390625 C-4.89149113 336.98247909 -4.89149113 336.98247909 -4.88838959 335.90455055 C-4.86644572 328.81429554 -4.82642982 321.72471234 -4.73732853 314.63496399 C-4.71372436 312.60755245 -4.69667319 310.58019856 -4.68205261 308.55270386 C-4.66285055 306.0569878 -4.63170623 303.56132234 -4.58613586 301.06594849 C-4.53351422 292.04758676 -6.299139 284.62698692 -9.875 276.375 C-10.535 276.375 -11.195 276.375 -11.875 276.375 C-11.875 275.715 -11.875 275.055 -11.875 274.375 C-12.535 274.375 -13.195 274.375 -13.875 274.375 C-13.875 273.715 -13.875 273.055 -13.875 272.375 C-14.596875 272.08625 -15.31875 271.7975 -16.0625 271.5 C-17.78331685 270.81167326 -19.49480777 270.09859924 -21.1875 269.34375 C-24.09451239 268.29587344 -26.61166904 267.97234923 -29.6875 267.75 C-30.66332031 267.67523438 -31.63914062 267.60046875 -32.64453125 267.5234375 C-33.38058594 267.47445313 -34.11664063 267.42546875 -34.875 267.375 C-32.90256651 257.96800953 -30.43216367 249.28410271 -26.3359375 240.5703125 C-24.5424884 236.647742 -22.88884231 232.67665028 -21.25 228.6875 C-20.96092773 227.98681396 -20.67185547 227.28612793 -20.37402344 226.56420898 C-8.41949376 197.38815678 -9.19145769 167.96447164 -14.875 137.375 C-15.03548828 136.24964844 -15.03548828 136.24964844 -15.19921875 135.1015625 C-16.26413715 128.75785506 -19.25309474 123.61322244 -22.4140625 118.09765625 C-23.875 115.375 -23.875 115.375 -23.875 113.375 C-24.535 113.375 -25.195 113.375 -25.875 113.375 C-25.875 112.715 -25.875 112.055 -25.875 111.375 C-26.44347656 111.09785156 -27.01195312 110.82070312 -27.59765625 110.53515625 C-30.65610553 108.97707831 -33.59783187 107.23135767 -36.55859375 105.49609375 C-49.06082863 99.44526506 -67.39986457 103.4248455 -79.8125 107.6875 C-85.97723746 109.95623142 -91.95344156 112.53506891 -97.875 115.375 C-98.39164417 106.83602005 -97.67473672 98.99536946 -96.0625 90.625 C-95.89717773 89.76302002 -95.73185547 88.90104004 -95.56152344 88.01293945 C-93.64797747 78.5668333 -90.75602123 69.56930297 -87.1875 60.625 C-86.84444824 59.76463135 -86.50139648 58.9042627 -86.14794922 58.01782227 C-82.56773906 49.27081041 -78.11913898 41.24120847 -72.875 33.375 C-72.215 33.375 -71.555 33.375 -70.875 33.375 C-70.606875 32.611875 -70.33875 31.84875 -70.0625 31.0625 C-68.92365495 28.48511382 -68.06083329 27.10545136 -65.875 25.375 C-65.215 25.375 -64.555 25.375 -63.875 25.375 C-63.63652344 24.79492188 -63.39804688 24.21484375 -63.15234375 23.6171875 C-56.51107199 11.95941994 -38.04322134 5.27701434 -25.875 1.80419922 C-17.38082649 -0.22677945 -8.67994968 -0.02237936 0 0 Z " fill="#316792" transform="translate(255.875,32.625)"/>
<path d="M0 0 C1.07749512 0.05365723 1.07749512 0.05365723 2.17675781 0.10839844 C14.01650833 0.76165894 25.51174208 2.49130808 37.125 4.875 C38.91925415 5.24165771 38.91925415 5.24165771 40.74975586 5.61572266 C48.3634722 7.24666558 55.6699965 9.37580181 63 12 C61.97472187 16.5156486 60.16001072 18.60876898 57 22 C56.34 22 55.68 22 55 22 C54.62875 22.7734375 54.62875 22.7734375 54.25 23.5625 C52.60418384 26.77184151 50.8023904 29.87585664 49 33 C48.34 33 47.68 33 47 33 C46.59007812 34.31871094 46.59007812 34.31871094 46.171875 35.6640625 C45.08152122 38.76793625 43.79435838 41.47725228 42.25 44.375 C35.53491003 57.65813418 31.41590035 71.56476269 28 86 C27.83870605 86.67450195 27.67741211 87.34900391 27.51123047 88.04394531 C24.0990995 102.61267709 23.91504963 117.01061204 23.97265625 131.89453125 C23.97522556 132.57160818 23.97779488 133.24868511 23.98044205 133.94627953 C24.00693769 140.33153564 24.04554472 146.71669544 24.09594727 153.10180664 C24.31918421 182.41915893 24.31918421 182.41915893 22.4597168 196.40161133 C20.15680603 214.42742218 24.45376427 232.93472602 34.9921875 247.8125 C37.82383813 251.40281928 40.68567776 254.78895967 44.0625 257.875 C46 260 46 260 46.125 261.9375 C44.43361496 265.03837257 42.41453957 267.40878681 40 270 C39.34 270 38.68 270 38 270 C38 270.66 38 271.32 38 272 C37.34 272 36.68 272 36 272 C35.5978125 272.86625 35.5978125 272.86625 35.1875 273.75 C33.97070811 276.05550043 32.69666121 278.02056192 31 280 C30.34 280 29.68 280 29 280 C28.5978125 280.86625 28.5978125 280.86625 28.1875 281.75 C26.97070811 284.05550043 25.69666121 286.02056192 24 288 C23.34 288 22.68 288 22 288 C21.5978125 288.86625 21.5978125 288.86625 21.1875 289.75 C19.97070811 292.05550043 18.69666121 294.02056192 17 296 C16.34 296 15.68 296 15 296 C14.73316406 296.56976563 14.46632813 297.13953125 14.19140625 297.7265625 C9.77669937 306.15069169 3.43926511 311.78036745 -5 316 C-11.93375805 316.77323444 -16.2996815 315.99022295 -22 312 C-23.2065625 311.195625 -23.2065625 311.195625 -24.4375 310.375 C-25.2109375 309.694375 -25.2109375 309.694375 -26 309 C-26 308.34 -26 307.68 -26 307 C-26.66 307 -27.32 307 -28 307 C-28 306.34 -28 305.68 -28 305 C-28.66 305 -29.32 305 -30 305 C-32.93630939 301.192923 -35.43572384 297.06481692 -38 293 C-38.57105469 292.11054688 -39.14210937 291.22109375 -39.73046875 290.3046875 C-48.33518555 276.28370004 -54.76419064 260.70391855 -60.21972656 245.21289062 C-61.11124915 242.6844924 -62.0212455 240.16299177 -62.9296875 237.640625 C-69.33972776 219.68642197 -74.48868778 201.51263709 -79 183 C-79.26554687 181.98035156 -79.53109375 180.96070313 -79.8046875 179.91015625 C-81.37078482 173.89601964 -82.63112617 167.87286894 -83.73461914 161.75683594 C-84.6748709 156.59415173 -85.73968859 151.46523267 -86.84155273 146.3347168 C-87.93107104 141.23050329 -88.97181451 136.11687631 -90 131 C-90.17096191 130.1651709 -90.34192383 129.3303418 -90.51806641 128.47021484 C-97.34837369 94.12008173 -94.70556515 56.55834772 -75 27 C-74.34 27 -73.68 27 -73 27 C-72.75507812 26.42765625 -72.51015625 25.8553125 -72.2578125 25.265625 C-65.80969847 13.65100967 -50.25141693 7.44876782 -38.1875 3.625 C-25.92809268 0.45857022 -12.63159757 -0.67721852 0 0 Z " fill="#326792" transform="translate(121,33)"/>
<path d="M0 0 C0.92037048 -0.01252808 1.84074097 -0.02505615 2.78900146 -0.03796387 C22.47253885 -0.25412541 41.21455867 -0.33617191 60.25390625 5.2734375 C61.07729492 5.50337402 61.90068359 5.73331055 62.74902344 5.97021484 C93.75219275 14.75631156 125.65587218 35.41077871 141.7421875 63.91015625 C145.28053628 71.05991706 146.91467367 78.44407781 148.25390625 86.2734375 C148.38667969 87.04171875 148.51945312 87.81 148.65625 88.6015625 C156.79253752 147.00450303 128.36763035 213.33200864 102.94140625 264.2734375 C102.60896912 264.94048706 102.27653198 265.60753662 101.934021 266.2947998 C97.67335856 274.81295748 93.16305689 283.10704403 88.25390625 291.2734375 C89.96363762 290.95165619 91.67336235 290.6298396 93.38305664 290.30786133 C94.85194959 290.0324131 96.32119635 289.75884565 97.79077148 289.48706055 C100.94926609 288.90200037 104.09818007 288.30706946 107.23828125 287.62890625 C119.468274 285.05319565 131.16520624 284.73347068 142.0546875 291.37109375 C146.32290644 294.49547238 148.95104727 298.20839022 150.25390625 303.2734375 C151.14766775 310.72272864 151.88390146 319.89981343 147.703125 326.45703125 C147.22488281 327.05644531 146.74664062 327.65585937 146.25390625 328.2734375 C145.62097656 329.06878906 144.98804688 329.86414063 144.3359375 330.68359375 C126.25531658 351.90032237 99.88162911 362.32017711 72.62841797 365.10791016 C68.1510616 365.42002692 63.67717148 365.37651854 59.19140625 365.3359375 C58.23041016 365.33142578 57.26941406 365.32691406 56.27929688 365.32226562 C53.93743203 365.31061456 51.59570444 365.29425775 49.25390625 365.2734375 C49.21426758 366.15676758 49.17462891 367.04009766 49.13378906 367.95019531 C45.9480908 436.01149456 45.9480908 436.01149456 32.25390625 461.2734375 C31.83882813 462.14226562 31.42375 463.01109375 30.99609375 463.90625 C22.15933692 481.63025942 6.81671423 494.68258572 -11.98242188 501.02832031 C-17.19004379 502.63317127 -22.4493453 503.99867153 -27.74609375 505.2734375 C-28.44943848 505.46035156 -29.1527832 505.64726562 -29.87744141 505.83984375 C-46.36992263 509.9823822 -64.71609293 508.77101762 -79.43359375 500.1484375 C-89.07156209 493.54516473 -95.8915079 485.88646602 -100.74609375 475.2734375 C-101.18566406 474.314375 -101.62523437 473.3553125 -102.078125 472.3671875 C-114.90833378 442.90809785 -114.86649485 410.87463684 -115.74609375 379.2734375 C-116.48432373 379.54768555 -117.22255371 379.82193359 -117.9831543 380.10449219 C-119.44942261 380.64444824 -119.44942261 380.64444824 -120.9453125 381.1953125 C-121.91041748 381.55206055 -122.87552246 381.90880859 -123.86987305 382.27636719 C-144.09682071 389.28823836 -169.63706219 386.1624085 -188.74609375 377.2734375 C-191.81758447 375.26558573 -194.69006416 373.158463 -197.5390625 370.84765625 C-199.70133314 368.98309108 -199.70133314 368.98309108 -202.74609375 369.2734375 C-204.30024731 370.15459979 -205.81730572 371.10211827 -207.30859375 372.0859375 C-217.94362262 378.55876802 -229.62090099 380.21398482 -241.83203125 377.6171875 C-260.05464675 371.56038693 -271.65750086 357.81621455 -281.74609375 342.2734375 C-282.14199707 341.66419434 -282.53790039 341.05495117 -282.94580078 340.42724609 C-293.15526973 324.46851588 -301.15404064 306.78162892 -306.6484375 288.65234375 C-307.54007912 285.90761065 -308.52772963 283.30257657 -309.62109375 280.63671875 C-323.66235831 245.93756415 -331.40974739 207.56279119 -338.09423828 170.84033203 C-338.49232341 168.66204598 -338.89980022 166.48541574 -339.32373047 164.31201172 C-343.84327858 141.05077219 -343.99371045 114.41089346 -338.74609375 91.2734375 C-338.58512207 90.52964844 -338.42415039 89.78585938 -338.25830078 89.01953125 C-334.40357198 71.74916128 -327.20502454 55.81768722 -315.74609375 42.2734375 C-315.12347656 41.4896875 -314.50085938 40.7059375 -313.859375 39.8984375 C-296.4718881 18.9022269 -269.22071919 9.57770678 -242.890625 6.7109375 C-212.79781901 3.88768308 -181.18216793 8.71905636 -152.72973633 18.60375977 C-147.07992949 19.87185732 -142.93588888 18.06719964 -137.93359375 15.5234375 C-132.79104791 13.08409991 -127.70140677 11.14376627 -122.24609375 9.5234375 C-121.59535889 9.32524414 -120.94462402 9.12705078 -120.27416992 8.92285156 C-108.48728248 5.55064021 -96.66988015 4.93868461 -84.49609375 5.0234375 C-83.40941406 5.02559769 -83.40941406 5.02559769 -82.30078125 5.02780151 C-72.83066891 5.04989252 -63.5413186 5.36371228 -54.18359375 6.93359375 C-45.88118271 7.7544003 -37.75388909 5.53551072 -29.68359375 3.7734375 C-27.61005403 3.32238784 -25.53584463 2.87440444 -23.4609375 2.4296875 C-22.554646 2.23181641 -21.64835449 2.03394531 -20.71459961 1.83007812 C-13.78514612 0.53069874 -7.03333446 0.08758251 0 0 Z M-43.72241211 22.6652832 C-47.45825586 23.78797433 -51.22746163 24.03275356 -54.74609375 22.2734375 C-64.12091015 20.24606735 -73.42433806 19.93006713 -82.96630859 19.95776367 C-85.24364736 19.96093409 -87.51969447 19.93732434 -89.796875 19.91210938 C-98.84386167 19.87276506 -106.99459848 20.73957795 -115.74609375 23.2734375 C-116.83567383 23.57157349 -116.83567383 23.57157349 -117.94726562 23.87573242 C-126.3217767 26.25780117 -133.37539375 29.42813203 -140.74609375 34.015625 C-147.51870746 36.85518439 -155.44782318 33.0031039 -162.18359375 31.0234375 C-178.95604446 26.22493857 -196.2031879 21.49856857 -213.74609375 21.2734375 C-214.71369629 21.25974121 -215.68129883 21.24604492 -216.67822266 21.23193359 C-238.37006482 20.73094119 -238.37006482 20.73094119 -259.62109375 24.4609375 C-260.39066406 24.68015869 -261.16023438 24.89937988 -261.953125 25.12524414 C-272.35216069 28.20407677 -283.01721031 32.73170093 -291.74609375 39.2734375 C-291.74609375 39.9334375 -291.74609375 40.5934375 -291.74609375 41.2734375 C-292.73609375 41.2734375 -293.72609375 41.2734375 -294.74609375 41.2734375 C-294.74609375 41.9334375 -294.74609375 42.5934375 -294.74609375 43.2734375 C-295.40609375 43.2734375 -296.06609375 43.2734375 -296.74609375 43.2734375 C-296.74609375 43.9334375 -296.74609375 44.5934375 -296.74609375 45.2734375 C-297.40609375 45.2734375 -298.06609375 45.2734375 -298.74609375 45.2734375 C-298.74609375 45.9334375 -298.74609375 46.5934375 -298.74609375 47.2734375 C-299.40609375 47.2734375 -300.06609375 47.2734375 -300.74609375 47.2734375 C-321.03198323 69.8741069 -326.56961672 98.57159729 -326.24609375 128.0234375 C-326.23989014 129.03556305 -326.23368652 130.0476886 -326.22729492 131.09048462 C-326.1188563 146.20322341 -325.22265524 160.52957441 -321.74609375 175.2734375 C-321.27501566 177.37812656 -320.81055695 179.48422508 -320.34606934 181.59037781 C-318.38942707 190.45100188 -316.3417609 199.28862143 -314.25323486 208.11895752 C-313.7268127 210.35534888 -313.20718329 212.59323724 -312.68896484 214.83154297 C-312.42660034 215.95998375 -312.42660034 215.95998375 -312.15893555 217.11122131 C-311.82888276 218.53112774 -311.50030161 219.95137751 -311.17358398 221.37205505 C-309.72321497 227.58895739 -307.94306113 233.69685547 -306.078125 239.80078125 C-305.15392842 242.86493703 -304.28212572 245.93819681 -303.4453125 249.02734375 C-296.36572532 275.00787696 -287.31722468 300.91508346 -273.74609375 324.2734375 C-273.19308594 325.26601563 -272.64007813 326.25859375 -272.0703125 327.28125 C-268.42814813 333.72570047 -264.4799114 339.58628158 -259.74609375 345.2734375 C-259.23046875 345.91152344 -258.71484375 346.54960937 -258.18359375 347.20703125 C-251.466478 355.34103861 -244.34167031 361.00412466 -233.68359375 362.1484375 C-226.19670052 362.54347458 -220.44776474 360.28235101 -213.74609375 357.2734375 C-213.74609375 356.6134375 -213.74609375 355.9534375 -213.74609375 355.2734375 C-212.91851562 354.933125 -212.91851562 354.933125 -212.07421875 354.5859375 C-209.05916958 352.88617824 -206.93379006 350.72538934 -204.49609375 348.2734375 C-203.6040625 347.3865625 -202.71203125 346.4996875 -201.79296875 345.5859375 C-199.52516302 343.53854647 -199.52516302 343.53854647 -199.74609375 341.2734375 C-199.08609375 341.2734375 -198.42609375 341.2734375 -197.74609375 341.2734375 C-197.08609375 339.6234375 -196.42609375 337.9734375 -195.74609375 336.2734375 C-195.08609375 336.2734375 -194.42609375 336.2734375 -193.74609375 336.2734375 C-193.74609375 335.6134375 -193.74609375 334.9534375 -193.74609375 334.2734375 C-193.08609375 334.2734375 -192.42609375 334.2734375 -191.74609375 334.2734375 C-189.70153316 332.10079095 -189.70153316 332.10079095 -187.62109375 329.3984375 C-186.89664063 328.49351562 -186.1721875 327.58859375 -185.42578125 326.65625 C-183.55404141 324.48687939 -183.55404141 324.48687939 -183.74609375 322.2734375 C-183.08609375 322.2734375 -182.42609375 322.2734375 -181.74609375 322.2734375 C-181.74609375 321.6134375 -181.74609375 320.9534375 -181.74609375 320.2734375 C-181.08609375 320.2734375 -180.42609375 320.2734375 -179.74609375 320.2734375 C-179.74609375 319.6134375 -179.74609375 318.9534375 -179.74609375 318.2734375 C-179.08609375 318.2734375 -178.42609375 318.2734375 -177.74609375 318.2734375 C-176.14129096 316.72567752 -176.14129096 316.72567752 -174.49609375 314.7109375 C-173.88121094 313.98777344 -173.26632813 313.26460938 -172.6328125 312.51953125 C-172.01019531 311.77832031 -171.38757813 311.03710938 -170.74609375 310.2734375 C-169.60135912 308.93916075 -168.45562647 307.60573917 -167.30859375 306.2734375 C-166.46296875 305.2834375 -165.61734375 304.2934375 -164.74609375 303.2734375 C-161.05651501 303.91510337 -157.74976249 304.96437445 -154.24609375 306.2734375 C-147.7763363 308.49439901 -141.55071257 309.05393367 -134.74609375 309.2734375 C-134.74609375 310.5934375 -134.74609375 311.9134375 -134.74609375 313.2734375 C-135.40609375 313.2734375 -136.06609375 313.2734375 -136.74609375 313.2734375 C-139.1442968 315.91028497 -139.1442968 315.91028497 -139.74609375 319.2734375 C-140.40609375 319.2734375 -141.06609375 319.2734375 -141.74609375 319.2734375 C-142.36484375 320.1603125 -142.98359375 321.0471875 -143.62109375 321.9609375 C-150.36120085 330.14123842 -163.20450774 331.48723604 -173.00366211 333.48657227 C-178.03926796 334.53511973 -182.2832451 335.69125417 -186.74609375 338.2734375 C-186.74609375 338.9334375 -186.74609375 339.5934375 -186.74609375 340.2734375 C-187.40609375 340.2734375 -188.06609375 340.2734375 -188.74609375 340.2734375 C-188.74609375 340.9334375 -188.74609375 341.5934375 -188.74609375 342.2734375 C-189.40609375 342.2734375 -190.06609375 342.2734375 -190.74609375 342.2734375 C-192.51418117 347.07416558 -192.51418117 347.07416558 -191.99609375 352.0234375 C-190.6922165 354.44180389 -190.6922165 354.44180389 -188.74609375 357.2734375 C-188.08609375 357.2734375 -187.42609375 357.2734375 -186.74609375 357.2734375 C-186.74609375 357.9334375 -186.74609375 358.5934375 -186.74609375 359.2734375 C-174.48731612 369.48908553 -155.04631746 370.30539132 -139.859375 369.03125 C-125.35391273 367.13333905 -114.35672767 360.59627945 -102.74609375 352.2734375 C-102.7618042 354.24860352 -102.7618042 354.24860352 -102.77783203 356.26367188 C-104.05822192 403.58153481 -104.05822192 403.58153481 -97.74609375 450.2734375 C-97.4934375 451.32402344 -97.24078125 452.37460937 -96.98046875 453.45703125 C-93.89864273 464.22941402 -86.89152605 476.53469791 -77.74609375 483.2734375 C-77.08609375 483.2734375 -76.42609375 483.2734375 -75.74609375 483.2734375 C-75.74609375 483.9334375 -75.74609375 484.5934375 -75.74609375 485.2734375 C-55.77231598 495.22901952 -37.6014666 494.92565063 -16.546875 487.953125 C1.74565207 481.34633801 12.94246034 470.61515708 21.25390625 453.2734375 C23.24402797 448.90240651 24.22191172 444.45395502 25.19140625 439.7734375 C25.36470459 438.938125 25.53800293 438.1028125 25.71655273 437.2421875 C28.77439681 422.08407801 30.47303801 406.74995159 32.12475586 391.38647461 C33.02242671 383.1055938 34.09894483 374.86211043 35.26293945 366.61499023 C36.16098327 360.17729379 36.85679964 353.76407654 37.25390625 347.2734375 C38.22070312 347.4178125 39.1875 347.5621875 40.18359375 347.7109375 C67.98585062 351.67482363 96.36277527 347.62623474 119.50390625 330.9609375 C121.09552035 329.74251242 122.6798783 328.514498 124.25390625 327.2734375 C125.011875 326.74363281 125.76984375 326.21382813 126.55078125 325.66796875 C127.1128125 325.20777344 127.67484375 324.74757813 128.25390625 324.2734375 C128.25390625 323.6134375 128.25390625 322.9534375 128.25390625 322.2734375 C128.91390625 322.2734375 129.57390625 322.2734375 130.25390625 322.2734375 C133.66392398 318.03674881 134.95282179 314.69295785 135.25390625 309.2734375 C134.9073133 306.95185685 134.9073133 306.95185685 134.25390625 305.2734375 C133.59390625 305.2734375 132.93390625 305.2734375 132.25390625 305.2734375 C132.25390625 304.6134375 132.25390625 303.9534375 132.25390625 303.2734375 C124.95675 299.01393466 115.99835732 301.24646302 108.12890625 302.7734375 C100.3325557 304.23450865 92.67985275 304.60805051 84.75390625 304.6484375 C83.12557861 304.66874023 83.12557861 304.66874023 81.46435547 304.68945312 C74.58172285 304.65139833 68.71669598 303.65094981 62.25390625 301.2734375 C62.25390625 300.6134375 62.25390625 299.9534375 62.25390625 299.2734375 C62.91390625 299.2734375 63.57390625 299.2734375 64.25390625 299.2734375 C64.52203125 298.77457031 64.79015625 298.27570313 65.06640625 297.76171875 C67.638423 293.04917491 70.35411611 288.45661762 73.19140625 283.8984375 C76.14943433 279.12136037 78.96903602 274.31153161 81.60961914 269.35229492 C82.74573131 267.22497338 83.89198458 265.10304783 85.04638672 262.9855957 C89.87672754 254.09652238 94.25408416 245.07145202 98.37890625 235.8359375 C98.83512863 234.8198793 98.83512863 234.8198793 99.30056763 233.78329468 C103.6593163 224.06631262 107.77757524 214.34534516 111.25390625 204.2734375 C111.83962311 202.63877651 112.42697456 201.00470064 113.015625 199.37109375 C118.63383123 183.69141874 122.92812849 167.87785629 126.69433594 151.66308594 C127.17361764 149.6163105 127.66916625 147.57335595 128.16796875 145.53125 C131.33047506 132.46594615 132.60727459 119.83618773 132.56958008 106.44067383 C132.56639532 104.07782805 132.59007594 101.71621019 132.61523438 99.35351562 C132.70362177 77.91774796 124.78336783 65.04338518 110.19140625 49.9609375 C107.67153813 47.04843301 107.67153813 47.04843301 105.25390625 47.2734375 C105.25390625 46.6134375 105.25390625 45.9534375 105.25390625 45.2734375 C104.59390625 45.2734375 103.93390625 45.2734375 103.25390625 45.2734375 C103.25390625 44.6134375 103.25390625 43.9534375 103.25390625 43.2734375 C102.26390625 43.2734375 101.27390625 43.2734375 100.25390625 43.2734375 C100.25390625 42.6134375 100.25390625 41.9534375 100.25390625 41.2734375 C61.58811153 11.12580922 1.59470204 6.1510246 -43.72241211 22.6652832 Z " fill="#0E0E0E" transform="translate(341.74609375,-0.2734375)"/>
<path d="M0 0 C0 0.66 0 1.32 0 2 C0.99 2.309375 0.99 2.309375 2 2.625 C6.07180186 4.49124252 9.68796998 6.97561527 13 10 C13 10.66 13 11.32 13 12 C13.5775 12.2475 14.155 12.495 14.75 12.75 C17.32939979 14.18299988 19.06121592 15.78424676 21 18 C21 18.66 21 19.32 21 20 C21.66 20 22.32 20 23 20 C34.82388642 33.64732915 34.80404647 49.8386332 34 67 C30.51013827 111.86653487 14.79851656 155.17782668 -4.4375 195.5 C-5.11522461 196.93279297 -5.11522461 196.93279297 -5.80664062 198.39453125 C-10.23987484 207.68860241 -15.13611213 216.64492126 -20.484375 225.44140625 C-22.66418431 229.12123897 -24.68503148 232.88198085 -26.703125 236.65234375 C-28 239 -28 239 -30 242 C-31.32 241.34 -32.64 240.68 -34 240 C-34.37687318 235.47752181 -34.37687318 235.47752181 -32.68359375 233.33203125 C-26.73610321 225.0938599 -24.05467194 212.97762907 -24 203 C-23.97421875 201.79085937 -23.9484375 200.58171875 -23.921875 199.3359375 C-23.74265056 187.59818214 -24.14832701 175.84364353 -26.0625 164.25 C-28.0952661 150.45512163 -27.23449798 137.34109666 -25 123.625 C-21.15187789 99.84922481 -21.15187789 99.84922481 -27 77 C-27.92731787 74.81699391 -28.84382225 72.62936585 -29.75 70.4375 C-30.17796875 69.44621094 -30.6059375 68.45492187 -31.046875 67.43359375 C-32 65 -32 65 -32 63 C-32.66 63 -33.32 63 -34 63 C-34 61.68 -34 60.36 -34 59 C-34.66 59 -35.32 59 -36 59 C-37.4606285 56.35261084 -38 55.10551666 -38 52 C-38.66 52 -39.32 52 -40 52 C-42.31663844 48.06171464 -44.43358249 44.30764815 -46 40 C-46.66 40 -47.32 40 -48 40 C-49.65625 37.953125 -49.65625 37.953125 -51.5 35.25 C-52.1084375 34.36828125 -52.716875 33.4865625 -53.34375 32.578125 C-54.72685204 30.42518314 -55.91843613 28.31454668 -57 26 C-57.66 26 -58.32 26 -59 26 C-59 25.34 -59 24.68 -59 24 C-59.66 24 -60.32 24 -61 24 C-62.5859375 22.35546875 -62.5859375 22.35546875 -64.375 20.1875 C-66.23566282 17.93749143 -67.86872703 16.09649715 -70.2265625 14.36328125 C-71.10441406 13.68845703 -71.10441406 13.68845703 -72 13 C-72 12.34 -72 11.68 -72 11 C-72.598125 10.71125 -73.19625 10.4225 -73.8125 10.125 C-76 9 -76 9 -79 7 C-79 6.34 -79 5.68 -79 5 C-79.763125 4.71125 -80.52625 4.4225 -81.3125 4.125 C-84 3 -84 3 -87 1 C-87 0.34 -87 -0.32 -87 -1 C-87.56203125 -1.11214844 -88.1240625 -1.22429688 -88.703125 -1.33984375 C-91.31513108 -2.09057339 -93.39471322 -3.21167376 -95.75 -4.5625 C-96.54921875 -5.01753906 -97.3484375 -5.47257812 -98.171875 -5.94140625 C-98.77515625 -6.29074219 -99.3784375 -6.64007813 -100 -7 C-100 -7.66 -100 -8.32 -100 -9 C-100.61488281 -9.18175781 -101.22976563 -9.36351562 -101.86328125 -9.55078125 C-102.67152344 -9.80214844 -103.47976563 -10.05351563 -104.3125 -10.3125 C-105.11300781 -10.55613281 -105.91351563 -10.79976562 -106.73828125 -11.05078125 C-109.09964573 -12.04182023 -110.33879993 -13.08074943 -112 -15 C-74.64517013 -24.81285818 -33.26626635 -19.56587352 0 0 Z " fill="#336893" transform="translate(428,46)"/>
<path d="M0 0 C5.49342603 5.49342603 7.45654212 11.18805292 8.875 18.625 C9.03967773 19.46015137 9.20435547 20.29530273 9.37402344 21.15576172 C15.95557794 55.56882045 13.24101921 86.04951434 -1.83984375 117.69921875 C-5.72884038 126.1128098 -8.77209256 134.8255041 -11.25 143.75 C-25.05372839 144.75188351 -35.72557188 140.69911563 -46.25 131.75 C-56.75986373 121.45276358 -64.4598795 109.52737717 -65.39526367 94.40087891 C-65.42032046 91.7254607 -65.43566492 89.05054408 -65.4375 86.375 C-65.44974609 85.47394531 -65.46199219 84.57289063 -65.47460938 83.64453125 C-65.4857566 78.33102065 -65.06209288 73.33047306 -64.203125 68.0859375 C-63.21831039 61.26211408 -63.22705377 54.69694299 -63.44140625 47.8125 C-63.46897507 46.75412933 -63.49654388 45.69575867 -63.52494812 44.60531616 C-63.64209342 40.19799582 -63.7636151 35.79333266 -63.9699707 31.38916016 C-64.80244186 12.75870083 -64.80244186 12.75870083 -60.96557617 7.79418945 C-58.0769482 5.92501977 -55.51242367 4.81257948 -52.25 3.75 C-50.30487863 2.82841692 -48.36622174 1.89292919 -46.4375 0.9375 C-31.87275992 -5.34855143 -13.93809166 -9.64944808 0 0 Z M-25.25 7.75 C-24.83424938 12.60042388 -22.83340022 14.59319505 -19.25 17.75 C-15.53841602 20.22438932 -12.55236379 20.53653817 -8.25 19.75 C-5.5900412 18.42764955 -3.32281542 16.88289703 -1.25 14.75 C-0.92 13.76 -0.59 12.77 -0.25 11.75 C-5.29443567 6.40092946 -5.29443567 6.40092946 -12.125 4.44921875 C-13.15625 4.44535156 -14.1875 4.44148437 -15.25 4.4375 C-16.28125 4.42074219 -17.3125 4.40398437 -18.375 4.38671875 C-21.56011968 4.78918632 -22.90733538 5.61569737 -25.25 7.75 Z " fill="#326792" transform="translate(220.25,152.25)"/>
<path d="M0 0 C1.08732422 0.00064453 2.17464844 0.00128906 3.29492188 0.00195312 C11.28085667 0.04667834 11.28085667 0.04667834 13.5625 1.1875 C13.90817115 6.99989634 13.59981778 12.45819243 12.49151611 18.18441772 C10.62220374 27.88565243 10.15323982 37.27300475 10.28125 47.13378906 C10.31311344 49.61017586 10.32231145 52.08592606 10.328125 54.5625 C10.3372722 56.15365364 10.34764056 57.74480084 10.359375 59.3359375 C10.36362488 60.06815521 10.36787476 60.80037292 10.37225342 61.55477905 C10.41959655 64.91728253 10.597352 67.96166591 11.5625 71.1875 C12.46149663 79.62253006 12.66138587 88.08569625 12.6875 96.5625 C12.69438843 97.79129883 12.69438843 97.79129883 12.70141602 99.04492188 C12.68195942 106.7466213 12.34059249 114.01107074 9.5 121.25 C9.13777344 122.18972656 8.77554688 123.12945312 8.40234375 124.09765625 C8.12519531 124.78730469 7.84804688 125.47695313 7.5625 126.1875 C6.5725 126.1875 5.5825 126.1875 4.5625 126.1875 C4.06621094 125.17171875 3.56992187 124.1559375 3.05859375 123.109375 C-0.63743891 115.60003348 -4.47919361 108.27864246 -8.76171875 101.08203125 C-16.4375 87.82386364 -16.4375 87.82386364 -16.4375 83.1875 C-17.0975 83.1875 -17.7575 83.1875 -18.4375 83.1875 C-20.02654137 79.58582423 -21.60764306 75.98071282 -23.1875 72.375 C-23.85265625 70.86776367 -23.85265625 70.86776367 -24.53125 69.33007812 C-31.77818382 52.75804563 -40.70197994 31.32467223 -33.9375 13.125 C-33.4425 12.155625 -32.9475 11.18625 -32.4375 10.1875 C-31.7775 10.1875 -31.1175 10.1875 -30.4375 10.1875 C-30.4375 9.5275 -30.4375 8.8675 -30.4375 8.1875 C-29.7775 8.1875 -29.1175 8.1875 -28.4375 8.1875 C-28.4375 7.5275 -28.4375 6.8675 -28.4375 6.1875 C-19.29663446 0.35290497 -10.68916443 -0.12346147 0 0 Z M-21.4375 11.1875 C-22.72859892 13.20457161 -22.72859892 13.20457161 -23.4375 15.1875 C-20.80927103 18.88648892 -18.92040957 21.09410742 -14.4375 22.1875 C-9.57614869 21.82289865 -5.9359772 19.78932045 -2.625 16.25 C-1.10485704 14.00640654 -1.10485704 14.00640654 -1.4375 10.1875 C-8.16150152 7.02326399 -14.91878588 7.69346923 -21.4375 11.1875 Z " fill="#356994" transform="translate(379.4375,144.8125)"/>
<path d="M0 0 C4.30841423 1.86890905 6.86978131 4.77052775 9.03515625 8.8828125 C10.24025862 13.19959711 10.24213091 16.56282626 9.03515625 20.8828125 C2.29918753 31.6689799 -9.81262722 39.94380256 -22.0078125 43.26171875 C-27.15665118 44.2284115 -32.36520441 44.27344349 -37.58984375 44.3203125 C-38.5435083 44.330625 -39.49717285 44.3409375 -40.47973633 44.3515625 C-49.53599294 44.23932384 -58.05282854 42.37341573 -65.96484375 37.8828125 C-65.96484375 36.8928125 -65.96484375 35.9028125 -65.96484375 34.8828125 C-61.65565381 33.33912403 -57.46940307 32.36152281 -52.96484375 31.5703125 C-46.31147686 30.33398598 -40.22370615 28.37926532 -33.890625 25.96875 C-31.57725286 25.11011522 -29.3694935 24.40937814 -26.96484375 23.8828125 C-26.96484375 23.2228125 -26.96484375 22.5628125 -26.96484375 21.8828125 C-26.30484375 21.8828125 -25.64484375 21.8828125 -24.96484375 21.8828125 C-24.96484375 21.2228125 -24.96484375 20.5628125 -24.96484375 19.8828125 C-23.84955446 18.76752321 -22.72839712 17.65775281 -21.5859375 16.5703125 C-19.56099868 14.46242438 -17.81804924 12.19251325 -16.02734375 9.8828125 C-6.94663836 -1.47231256 -6.94663836 -1.47231256 0 0 Z " fill="#386C94" transform="translate(229.96484375,312.1171875)"/>
<path d="M0 0 C7.06261849 3.42156106 14.38855497 3.38511589 22.07421875 3.34765625 C23.17145264 3.34636719 24.26868652 3.34507812 25.39916992 3.34375 C33.44545313 3.24962078 41.05326439 2.39462169 48.90625 0.69140625 C52.13671875 0.03515625 52.13671875 0.03515625 56.13671875 0.03515625 C55.80671875 1.02515625 55.47671875 2.01515625 55.13671875 3.03515625 C54.47671875 3.03515625 53.81671875 3.03515625 53.13671875 3.03515625 C53.13671875 3.69515625 53.13671875 4.35515625 53.13671875 5.03515625 C51.161189 6.42645922 49.210784 7.68187865 47.13671875 8.91015625 C46.53512939 9.26948242 45.93354004 9.62880859 45.3137207 9.99902344 C43.59283845 11.01918301 41.86496157 12.02751642 40.13671875 13.03515625 C39.44964844 13.45539063 38.76257813 13.875625 38.0546875 14.30859375 C27.80430563 20.09323363 14.69445523 21.71944611 3.13671875 22.03515625 C1.26113281 22.09509766 1.26113281 22.09509766 -0.65234375 22.15625 C-17.06204578 22.43577398 -17.06204578 22.43577398 -23.86328125 19.03515625 C-24.48438278 8.37291338 -24.48438278 8.37291338 -22.23828125 3.53515625 C-14.99375102 -4.09066505 -8.89792821 -5.89459728 0 0 Z " fill="#3B6E96" transform="translate(403.86328125,313.96484375)"/>
<path d="M0 0 C1.08732422 0.00064453 2.17464844 0.00128906 3.29492188 0.00195312 C11.28085667 0.04667834 11.28085667 0.04667834 13.5625 1.1875 C13.61679959 2.93715358 13.65542823 4.68729787 13.6875 6.4375 C13.71070313 7.41203125 13.73390625 8.3865625 13.7578125 9.390625 C13.5545406 12.30147859 13.28113663 13.84009387 11.5625 16.1875 C9.3984375 17.234375 9.3984375 17.234375 6.9375 17.9375 C6.12023437 18.17984375 5.30296875 18.4221875 4.4609375 18.671875 C3.83445312 18.84203125 3.20796875 19.0121875 2.5625 19.1875 C2.5625 18.5275 2.5625 17.8675 2.5625 17.1875 C3.5525 17.1875 4.5425 17.1875 5.5625 17.1875 C5.0675 15.2075 5.0675 15.2075 4.5625 13.1875 C3.9025 13.1875 3.2425 13.1875 2.5625 13.1875 C2.2325 13.8475 1.9025 14.5075 1.5625 15.1875 C1.8925 13.5375 2.2225 11.8875 2.5625 10.1875 C1.5725 9.8575 0.5825 9.5275 -0.4375 9.1875 C-0.4375 10.8375 -0.4375 12.4875 -0.4375 14.1875 C-0.7675 12.8675 -1.0975 11.5475 -1.4375 10.1875 C-9.21073077 8.96092556 -15.07625604 9.36116555 -22.4375 12.1875 C-23.0975 11.5275 -23.7575 10.8675 -24.4375 10.1875 C-24.1075 9.8575 -23.7775 9.5275 -23.4375 9.1875 C-25.0875 8.8575 -26.7375 8.5275 -28.4375 8.1875 C-28.4375 7.5275 -28.4375 6.8675 -28.4375 6.1875 C-19.29663446 0.35290497 -10.68916443 -0.12346147 0 0 Z " fill="#457498" transform="translate(379.4375,144.8125)"/>
<path d="M0 0 C0.33 0 0.66 0 1 0 C1 5.94 1 11.88 1 18 C1.99 18.33 2.98 18.66 4 19 C4 21.31 4 23.62 4 26 C7.24849977 24.27773504 7.24849977 24.27773504 8 21 C8.66 21 9.32 21 10 21 C10 19.35 10 17.7 10 16 C10.99 16 11.98 16 13 16 C13.80967438 13.08517222 14.21845993 11.53886783 13.0625 8.6875 C12.711875 8.130625 12.36125 7.57375 12 7 C13.65 8.32 15.3 9.64 17 11 C7.07593835 30.12369624 7.07593835 30.12369624 2.375 37.72265625 C0.21834221 41.29462072 -1.73446454 44.97433563 -3.703125 48.65234375 C-5 51 -5 51 -7 54 C-8.32 53.34 -9.64 52.68 -11 52 C-11.37572254 47.49132948 -11.37572254 47.49132948 -9.6796875 45.2734375 C-0.32885998 32.61720118 -0.62518245 14.97501939 0 0 Z " fill="#4B799D" transform="translate(405,234)"/>
<path d="M0 0 C1.89573956 1.56119728 3.38411469 3.13163261 5 5 C4.34 5.33 3.68 5.66 3 6 C2.505 5.505 2.505 5.505 2 5 C2 8.27275026 2.29925156 10.846632 3 14 C1.53515625 12.73046875 0.0703125 11.4609375 -1.39453125 10.19140625 C-4.7094664 7.73141788 -7.961954 7.83707074 -11.9375 7.8125 C-12.97777344 7.79832031 -14.01804688 7.78414062 -15.08984375 7.76953125 C-17.95046613 7.99607718 -19.57670151 8.52266381 -22 10 C-22 8.68 -22 7.36 -22 6 C-21.01 5.67 -20.02 5.34 -19 5 C-21.97 4.505 -21.97 4.505 -25 4 C-25.33 3.01 -25.66 2.02 -26 1 C-28.31 1 -30.62 1 -33 1 C-32.67 0.34 -32.34 -0.32 -32 -1 C-21.88830385 -4.12613507 -9.53838425 -4.93952042 0 0 Z " fill="#3B6D93" transform="translate(217,150)"/>
<path d="M0 0 C2.080882 3.121323 2.24949894 3.80896169 2.23046875 7.3515625 C2.22853516 8.20363281 2.22660156 9.05570313 2.22460938 9.93359375 C2.21236328 10.82175781 2.20011719 11.70992187 2.1875 12.625 C2.18685547 13.48996094 2.18621094 14.35492188 2.18554688 15.24609375 C2.13225671 23.14488106 1.85086366 30.63812165 -1.0625 38.0625 C-1.60583984 39.47208984 -1.60583984 39.47208984 -2.16015625 40.91015625 C-2.43730469 41.59980469 -2.71445312 42.28945313 -3 43 C-3.99 43 -4.98 43 -6 43 C-7.65 39.7 -9.3 36.4 -11 33 C-10.01 33 -9.02 33 -8 33 C-8 33.66 -8 34.32 -8 35 C-7.01 35 -6.02 35 -5 35 C-5 34.34 -5 33.68 -5 33 C-4.34 33 -3.68 33 -3 33 C-1.39420807 28.72352255 -0.71619713 25.0668995 -0.5859375 20.5078125 C-0.52792969 18.70957031 -0.52792969 18.70957031 -0.46875 16.875 C-0.4378125 15.6375 -0.406875 14.4 -0.375 13.125 C-0.33632813 11.86429688 -0.29765625 10.60359375 -0.2578125 9.3046875 C-0.16383011 6.20326863 -0.07816589 3.10185114 0 0 Z " fill="#6187A5" transform="translate(390,228)"/>
<path d="M0 0 C0.99 1.32 1.98 2.64 3 4 C2.01 4.99 1.02 5.98 0 7 C1.32 7 2.64 7 4 7 C3.42176904 11.06225548 2.10882263 13.84762346 -0.0625 17.3125 C-0.61035156 18.19550781 -1.15820312 19.07851563 -1.72265625 19.98828125 C-2.14417969 20.65214844 -2.56570313 21.31601562 -3 22 C-4.32 21.34 -5.64 20.68 -7 20 C-7.37542662 15.49488055 -7.37542662 15.49488055 -5.625 13.1875 C-3.73509824 10.64340148 -2.84468148 8.23976706 -1.8125 5.25 C-1.46832031 4.26515625 -1.12414062 3.2803125 -0.76953125 2.265625 C-0.51558594 1.51796875 -0.26164062 0.7703125 0 0 Z " fill="#487395" transform="translate(401,266)"/>
<path d="M0 0 C-0.33 0.99 -0.66 1.98 -1 3 C-1.66 3 -2.32 3 -3 3 C-3 3.66 -3 4.32 -3 5 C-5.01687578 6.40941913 -7.01293333 7.68633007 -9.125 8.9375 C-9.97964844 9.45860352 -9.97964844 9.45860352 -10.8515625 9.99023438 C-14.48103777 12.18029275 -18.11687435 14.29480135 -22 16 C-22.66 15.67 -23.32 15.34 -24 15 C-23.34 14.34 -22.68 13.68 -22 13 C-21.01 13 -20.02 13 -19 13 C-18.67 12.01 -18.34 11.02 -18 10 C-15.9375 9.3125 -15.9375 9.3125 -14 9 C-14 8.34 -14 7.68 -14 7 C-13.01 6.67 -12.02 6.34 -11 6 C-10.67 5.34 -10.34 4.68 -10 4 C-13.63 4 -17.26 4 -21 4 C-21 3.67 -21 3.34 -21 3 C-18.25071558 2.49576443 -15.50068857 1.99646574 -12.75 1.5 C-11.97269531 1.35691406 -11.19539063 1.21382813 -10.39453125 1.06640625 C-9.64042969 0.93105469 -8.88632812 0.79570312 -8.109375 0.65625 C-7.07248535 0.46772461 -7.07248535 0.46772461 -6.01464844 0.27539062 C-4 0 -4 0 0 0 Z " fill="#7996AE" transform="translate(460,314)"/>
<path d="M0 0 C4.97636781 -0.0753878 9.95238761 -0.12917163 14.92919922 -0.16479492 C16.61447962 -0.17967916 18.29972276 -0.19999321 19.98486328 -0.22631836 C31.36911496 -0.39942415 41.89508276 0.43665989 53 3 C52.34 4.32 51.68 5.64 51 7 C49.35 7 47.7 7 46 7 C45.505 5.515 45.505 5.515 45 4 C43.741875 3.814375 42.48375 3.62875 41.1875 3.4375 C40.47980469 3.33308594 39.77210938 3.22867188 39.04296875 3.12109375 C36.7974658 2.86095201 36.7974658 2.86095201 34 4 C34 3.34 34 2.68 34 2 C33.0925 2.185625 32.185 2.37125 31.25 2.5625 C28.12723153 2.98287268 26.92481068 2.73621382 24 2 C22.37466976 1.94305139 20.74704928 1.93786894 19.12109375 1.97265625 C18.20005859 1.98490234 17.27902344 1.99714844 16.33007812 2.00976562 C14.39771276 2.04499443 12.46541384 2.08407286 10.53320312 2.12695312 C9.15358398 2.14338867 9.15358398 2.14338867 7.74609375 2.16015625 C6.48817017 2.18541382 6.48817017 2.18541382 5.20483398 2.21118164 C3 2 3 2 0 0 Z " fill="#496D8B" transform="translate(238,33)"/>
<path d="M0 0 C1.30894168 2.37245679 1.21620175 4.1460118 1 6.8125 C1.66 7.1425 2.32 7.4725 3 7.8125 C-3.62177926 7.50593615 -8.22125154 6.06961277 -14 2.8125 C-14 1.8225 -14 0.8325 -14 -0.1875 C-9.65720388 -1.63509871 -4.02569892 -2.39025873 0 0 Z " fill="#507A9C" transform="translate(178,347.1875)"/>
<path d="M0 0 C1.65 1.32 3.3 2.64 5 4 C3.43929326 6.98010932 1.87609572 9.95890559 0.3125 12.9375 C-0.34008789 14.18370117 -0.34008789 14.18370117 -1.00585938 15.45507812 C-3.9262822 21.01469787 -6.9249047 26.52442654 -10 32 C-10.33 32 -10.66 32 -11 32 C-11.02712066 30.56260487 -11.04645067 29.12506137 -11.0625 27.6875 C-11.07410156 26.88699219 -11.08570313 26.08648437 -11.09765625 25.26171875 C-11 23 -11 23 -10 20 C-9.01 20 -8.02 20 -7 20 C-6.67 19.34 -6.34 18.68 -6 18 C-5.33333333 16.66666667 -4.66666667 15.33333333 -4 14 C-3.34 14 -2.68 14 -2 14 C-2 12.35 -2 10.7 -2 9 C-1.01 9 -0.02 9 1 9 C1.80967438 6.08517222 2.21845993 4.53886783 1.0625 1.6875 C0.711875 1.130625 0.36125 0.57375 0 0 Z " fill="#4B789E" transform="translate(417,241)"/>
<path d="M0 0 C3.91402949 1.26941497 5.79072873 2.51167694 8 6 C7.01 6.495 7.01 6.495 6 7 C5.67 6.67 5.34 6.34 5 6 C5 9.27275026 5.29925156 11.846632 6 15 C4.53515625 13.73046875 3.0703125 12.4609375 1.60546875 11.19140625 C-1.68898515 8.74661686 -5.22684472 8.73561384 -9.1875 8.4375 C-10.27417969 8.35371094 -11.36085937 8.26992187 -12.48046875 8.18359375 C-13.31191406 8.12300781 -14.14335937 8.06242188 -15 8 C-14.67 7.34 -14.34 6.68 -14 6 C-9.38 6 -4.76 6 0 6 C0 4.02 0 2.04 0 0 Z " fill="#6990AD" transform="translate(214,149)"/>
<path d="M0 0 C0.66 0 1.32 0 2 0 C2.34779762 14.67884305 2.08679672 28.61332245 -1 43 C-1.33 43 -1.66 43 -2 43 C-2.88690292 39.45238834 -3.07693216 37.26926255 -2.0625 33.71875 C-0.34941934 27.28171963 -0.5305987 20.61942795 -0.375 14 C-0.33674348 12.63930002 -0.29768752 11.27862226 -0.2578125 9.91796875 C-0.16402932 6.6121118 -0.07832611 3.30625326 0 0 Z " fill="#708FA5" transform="translate(231,198)"/>
<path d="M0 0 C-2.58504604 1.98223068 -5.04049858 3.62594577 -8 5 C-8.33 4.34 -8.66 3.68 -9 3 C-9.33 3.66 -9.66 4.32 -10 5 C-10.66 5 -11.32 5 -12 5 C-12 5.66 -12 6.32 -12 7 C-13.65 7 -15.3 7 -17 7 C-17.33 6.01 -17.66 5.02 -18 4 C-20.31 4 -22.62 4 -25 4 C-24.67 3.34 -24.34 2.68 -24 2 C-16.21601612 -0.40649883 -8.05724784 -0.23057307 0 0 Z " fill="#648BAA" transform="translate(209,147)"/>
<path d="M0 0 C0.33 0.66 0.66 1.32 1 2 C0.030625 2.5775 -0.93875 3.155 -1.9375 3.75 C-5.05270781 5.60241553 -5.05270781 5.60241553 -5.68431091 7.88275146 C-6.00007638 10.00051229 -6.12029946 11.9853715 -6.11352539 14.12597656 C-6.11344986 14.92650452 -6.11337433 15.72703247 -6.11329651 16.55181885 C-6.10813522 17.40612488 -6.10297394 18.26043091 -6.09765625 19.140625 C-6.0962413 20.02280701 -6.09482635 20.90498901 -6.09336853 21.81390381 C-6.08778001 24.62597065 -6.07522961 27.4379573 -6.0625 30.25 C-6.05748352 32.15885302 -6.05292087 34.06770728 -6.04882812 35.9765625 C-6.03781434 40.65107247 -6.02055758 45.32552265 -6 50 C-6.33 50 -6.66 50 -7 50 C-7.24414153 43.50458365 -7.45663119 37.00868874 -7.64697266 30.51147461 C-7.71549848 28.3006236 -7.79131169 26.0899861 -7.87451172 23.87963867 C-7.99274327 20.70519267 -8.08487976 17.53090503 -8.171875 14.35546875 C-8.21439392 13.36475876 -8.25691284 12.37404877 -8.30072021 11.35331726 C-8.32104309 10.43258926 -8.34136597 9.51186127 -8.36230469 8.56323242 C-8.38895203 7.7527092 -8.41559937 6.94218597 -8.4430542 6.10710144 C-8 4 -8 4 -6.11798096 2.25776672 C-4.04446684 1.02640671 -2.36178694 0.42174767 0 0 Z " fill="#40698A" transform="translate(165,159)"/>
<path d="M0 0 C0 0.66 0 1.32 0 2 C-0.78375 2.12375 -1.5675 2.2475 -2.375 2.375 C-5.14057822 2.79117993 -5.14057822 2.79117993 -7 5 C-6.34 6.32 -5.68 7.64 -5 9 C-6.65 9.66 -8.3 10.32 -10 11 C-10.66 10.34 -11.32 9.68 -12 9 C-11.67 8.67 -11.34 8.34 -11 8 C-12.65 7.67 -14.3 7.34 -16 7 C-16 6.34 -16 5.68 -16 5 C-10.405545 1.59944892 -6.64769936 0 0 0 Z " fill="#658AAA" transform="translate(367,146)"/>
<path d="M0 0 C-0.99 0.33 -1.98 0.66 -3 1 C-3 1.66 -3 2.32 -3 3 C-7.38461538 6 -7.38461538 6 -10 6 C-9.896875 6.7425 -9.79375 7.485 -9.6875 8.25 C-10 11 -10 11 -12.3125 13.375 C-13.199375 13.91125 -14.08625 14.4475 -15 15 C-15.99 14.67 -16.98 14.34 -18 14 C-6.93917669 -1.02046716 -6.93917669 -1.02046716 0 0 Z " fill="#6185A3" transform="translate(229,312)"/>
<path d="M0 0 C-1.134375 0.37125 -2.26875 0.7425 -3.4375 1.125 C-10.11040832 3.62585907 -16.26338858 7.6455697 -21 13 C-21 10.69 -21 8.38 -21 6 C-19.68 6.33 -18.36 6.66 -17 7 C-16.34 5.68 -15.68 4.36 -15 3 C-14.34 3.33 -13.68 3.66 -13 4 C-12.67 2.68 -12.34 1.36 -12 0 C-3.96428571 -1.20535714 -3.96428571 -1.20535714 0 0 Z " fill="#6C8FA9" transform="translate(359,135)"/>
<path d="M0 0 C0.66 0.33 1.32 0.66 2 1 C2.78175124 6.61702744 3.22267544 11.15526162 -0.00390625 16.0234375 C-2.24675001 18.47336699 -4.52785384 20.78291654 -7 23 C-7.68707555 20.50935112 -8 18.62113708 -8 16 C-5.69 15.34 -3.38 14.68 -1 14 C-0.06380187 10.84493858 0.1057123 8.03413498 0.0625 4.75 C0.05347656 3.85796875 0.04445312 2.9659375 0.03515625 2.046875 C0.02355469 1.37140625 0.01195312 0.6959375 0 0 Z " fill="#7D9DB4" transform="translate(237,320)"/>
<path d="M0 0 C0 0.33 0 0.66 0 1 C-1.46373047 1.27263672 -1.46373047 1.27263672 -2.95703125 1.55078125 C-4.22933594 1.80214844 -5.50164062 2.05351562 -6.8125 2.3125 C-8.70935547 2.67794922 -8.70935547 2.67794922 -10.64453125 3.05078125 C-13.80837446 3.94579161 -15.06561381 4.43280346 -17 7 C-18.98 6.01 -20.96 5.02 -23 4 C-17.9622841 -1.0377159 -6.85294071 -0.26874277 0 0 Z " fill="#658BA6" transform="translate(339,28)"/>
<path d="M0 0 C1.32 0 2.64 0 4 0 C4.125 2.625 4.125 2.625 3 6 C-1.54054446 9.64416391 -6.22718536 12.11746539 -12 13 C-11.34 12.01 -10.68 11.02 -10 10 C-9.01 10 -8.02 10 -7 10 C-6.67 9.01 -6.34 8.02 -6 7 C-3.9375 6.3125 -3.9375 6.3125 -2 6 C-2 5.34 -2 4.68 -2 4 C-1.01 3.67 -0.02 3.34 1 3 C1.33 2.34 1.66 1.68 2 1 C1.34 0.67 0.68 0.34 0 0 Z " fill="#6288A6" transform="translate(448,317)"/>
<path d="M0 0 C0.33 0.66 0.66 1.32 1 2 C1.66 2 2.32 2 3 2 C3 3.32 3 4.64 3 6 C5.31 6 7.62 6 10 6 C10 6.33 10 6.66 10 7 C2.38445882 7.73226358 -3.16076141 5.19164467 -10 2 C-10 1.67 -10 1.34 -10 1 C-7.98177083 1.03255208 -5.96354167 1.06510417 -3.9453125 1.09765625 C-1.91814596 1.12649242 -1.91814596 1.12649242 0 0 Z " fill="#658AA7" transform="translate(194,289)"/>
<path d="M0 0 C0.66 0 1.32 0 2 0 C2.03738281 1.27617187 2.07476562 2.55234375 2.11328125 3.8671875 C2.17892791 5.53648838 2.2453757 7.20575789 2.3125 8.875 C2.33505859 9.71675781 2.35761719 10.55851563 2.38085938 11.42578125 C2.41630859 12.23144531 2.45175781 13.03710938 2.48828125 13.8671875 C2.51446533 14.61081543 2.54064941 15.35444336 2.56762695 16.12060547 C2.86729591 18.40733826 2.86729591 18.40733826 6 20 C4.02 20.99 4.02 20.99 2 22 C0 20 0 20 -0.22705078 17.93701172 C-0.21657715 17.10959473 -0.20610352 16.28217773 -0.1953125 15.4296875 C-0.18886719 14.53378906 -0.18242187 13.63789063 -0.17578125 12.71484375 C-0.15902344 11.77769531 -0.14226562 10.84054688 -0.125 9.875 C-0.11597656 8.93011719 -0.10695313 7.98523438 -0.09765625 7.01171875 C-0.07404522 4.67422708 -0.04111516 2.33723877 0 0 Z " fill="#5A81A1" transform="translate(401,183)"/>
<path d="M0 0 C0.33 0.66 0.66 1.32 1 2 C-1.97 1.67 -4.94 1.34 -8 1 C-8.66 2.32 -9.32 3.64 -10 5 C-11.7265625 6.484375 -11.7265625 6.484375 -13.625 7.75 C-14.57246094 8.39195312 -14.57246094 8.39195312 -15.5390625 9.046875 C-16.02117187 9.36140625 -16.50328125 9.6759375 -17 10 C-16.71711523 6.60538272 -16.25867941 5.25867941 -13.8125 2.8125 C-9.21113379 -0.15282489 -5.3684725 -1.84061914 0 0 Z " fill="#5B819F" transform="translate(399,311)"/>
<path d="M0 0 C0.99 0.33 1.98 0.66 3 1 C3 1.66 3 2.32 3 3 C3.99 3 4.98 3 6 3 C6 2.34 6 1.68 6 1 C6.66 1.33 7.32 1.66 8 2 C8.85056945 5.55692677 9.16909807 7.49270578 8 11 C7.01 11 6.02 11 5 11 C4.16426177 9.35538655 3.33147118 7.70927487 2.5 6.0625 C2.0359375 5.14597656 1.571875 4.22945313 1.09375 3.28515625 C0 1 0 1 0 0 Z " fill="#688DA9" transform="translate(379,260)"/>
<path d="M0 0 C1.98 0.99 1.98 0.99 4 2 C4 3.98 4 5.96 4 8 C4.99 8.33 5.98 8.66 7 9 C7.74259349 11.31029085 8.411438 13.645752 9 16 C9.33 16.33 9.66 16.66 10 17 C10.04063832 18.66617115 10.042721 20.33388095 10 22 C6.72419972 20.36209986 6.13469687 16.82626007 4.875 13.5625 C4.59785156 12.86833984 4.32070313 12.17417969 4.03515625 11.45898438 C2 6.28086515 2 6.28086515 2 4 C1.34 4 0.68 4 0 4 C0 2.68 0 1.36 0 0 Z " fill="#7B99B1" transform="translate(394,105)"/>
<path d="M0 0 C2.58463502 0.28250662 5.16731135 0.5756226 7.75 0.875 C8.47960937 0.95363281 9.20921875 1.03226563 9.9609375 1.11328125 C13.66777257 1.55136176 16.80452172 1.9986215 20 4 C19.01 4.495 19.01 4.495 18 5 C18 5.66 18 6.32 18 7 C16.35 7 14.7 7 13 7 C12.67 6.01 12.34 5.02 12 4 C10.741875 3.814375 9.48375 3.62875 8.1875 3.4375 C7.47980469 3.33308594 6.77210938 3.22867188 6.04296875 3.12109375 C3.7974658 2.86095201 3.7974658 2.86095201 1 4 C0.67 2.68 0.34 1.36 0 0 Z " fill="#6F93B2" transform="translate(271,33)"/>
<path d="M0 0 C3.90861793 3.81430812 3.54726724 8.12148763 3.6875 13.25 C3.72166016 14.09046875 3.75582031 14.9309375 3.79101562 15.796875 C3.87323568 17.86412204 3.93830157 19.93203874 4 22 C4.99 22.33 5.98 22.66 7 23 C6.34 23.99 5.68 24.98 5 26 C-0.05208672 18.42186992 0.43616592 8.8151429 0 0 Z " fill="#85A2BA" transform="translate(254,429)"/>
<path d="M0 0 C2.97 0 5.94 0 9 0 C9 1.65 9 3.3 9 5 C8.01 5.495 8.01 5.495 7 6 C6.67 6.66 6.34 7.32 6 8 C2.52082818 5.68055212 1.70570234 3.73630036 0 0 Z " fill="#31658F" transform="translate(383,146)"/>
<path d="M0 0 C-2 3 -2 3 -5.58984375 3.984375 C-7.03668192 4.25275086 -8.48610687 4.50746289 -9.9375 4.75 C-10.66646484 4.88792969 -11.39542969 5.02585937 -12.14648438 5.16796875 C-15.53591803 5.77067281 -17.68672414 6.10442529 -21 5 C-18.62854106 4.15520547 -16.25365876 3.32406717 -13.875 2.5 C-12.87726563 2.14228516 -12.87726563 2.14228516 -11.859375 1.77734375 C-7.76645945 0.37291194 -4.38868208 -0.27343814 0 0 Z " fill="#7A98B1" transform="translate(238,34)"/>
<path d="M0 0 C0.99 0.33 1.98 0.66 3 1 C3.33 3.31 3.66 5.62 4 8 C4.66 8 5.32 8 6 8 C6 8.99 6 9.98 6 11 C6.66 11 7.32 11 8 11 C8.309375 11.94875 8.61875 12.8975 8.9375 13.875 C9.87394742 16.86080408 9.87394742 16.86080408 11 19 C10.34 19.66 9.68 20.32 9 21 C9 20.01 9 19.02 9 18 C8.34 18 7.68 18 7 18 C5.82887054 15.37690901 4.66294036 12.75171858 3.5 10.125 C3.16613281 9.37863281 2.83226562 8.63226563 2.48828125 7.86328125 C2.17246094 7.14785156 1.85664063 6.43242187 1.53125 5.6953125 C1.23798828 5.03547363 0.94472656 4.37563477 0.64257812 3.69580078 C0 2 0 2 0 0 Z " fill="#5F87A5" transform="translate(354,210)"/>
<path d="M0 0 C0.33 0 0.66 0 1 0 C1 2.31 1 4.62 1 7 C5.25566547 8.16063604 8.6835078 7.76173392 13 7 C10.825892 9.43990804 9.02166354 10.57580792 5.9375 11.625 C3.87387384 12.33977554 1.95515745 13.02242128 0 14 C0 9.38 0 4.76 0 0 Z " fill="#7A98AE" transform="translate(158,134)"/>
<path d="M0 0 C5.65020618 0.60108576 10.66164461 2.07528683 16 4 C15.6875 5.875 15.6875 5.875 15 8 C14.01 8.66 13.02 9.32 12 10 C12 8.35 12 6.7 12 5 C11.1028125 5.2784375 11.1028125 5.2784375 10.1875 5.5625 C8 6 8 6 5 5 C4.33333333 3.66666667 3.66666667 2.33333333 3 1 C2.01 0.67 1.02 0.34 0 0 Z " fill="#7094B3" transform="translate(168,41)"/>
<path d="M0 0 C1.65 1.32 3.3 2.64 5 4 C2.36 9.28 -0.28 14.56 -3 20 C-3.66 19.01 -4.32 18.02 -5 17 C-4.505 15.515 -4.505 15.515 -4 14 C-3.34 14 -2.68 14 -2 14 C-2 12.35 -2 10.7 -2 9 C-1.01 9 -0.02 9 1 9 C1.80967438 6.08517222 2.21845993 4.53886783 1.0625 1.6875 C0.711875 1.130625 0.36125 0.57375 0 0 Z " fill="#6D91AC" transform="translate(417,241)"/>
<path d="M0 0 C0.33 0.66 0.66 1.32 1 2 C4.3 2 7.6 2 11 2 C6.17353323 5.21764451 0.80178176 6.36261136 -5 6 C-3.63016497 2.83884224 -3.0109362 2.0072908 0 0 Z " fill="#4E789A" transform="translate(309,473)"/>
<path d="M0 0 C0.33 0 0.66 0 1 0 C1.36799953 9.46576558 0.22914592 18.63873691 -1 28 C-1.33 28 -1.66 28 -2 28 C-2 21.07 -2 14.14 -2 7 C-1.34 7 -0.68 7 0 7 C0 4.69 0 2.38 0 0 Z " fill="#809CB3" transform="translate(365,344)"/>
<path d="M0 0 C0.33 0 0.66 0 1 0 C1.22134176 2.12368444 1.42670007 4.24904024 1.625 6.375 C1.74101562 7.55835938 1.85703125 8.74171875 1.9765625 9.9609375 C1.98429688 10.96382812 1.99203125 11.96671875 2 13 C1.34 13.66 0.68 14.32 0 15 C-0.66 14.67 -1.32 14.34 -2 14 C-3.51478702 8.17389609 -2.62779243 5.15047317 0 0 Z " fill="#4478A0" transform="translate(245,168)"/>
<path d="M0 0 C0.8723412 2.99480917 1.10829766 5.63575911 1.0625 8.75 C1.05347656 9.54921875 1.04445312 10.3484375 1.03515625 11.171875 C1.01775391 12.07679687 1.01775391 12.07679687 1 13 C0.01 13.33 -0.98 13.66 -2 14 C-2.12375 14.94875 -2.2475 15.8975 -2.375 16.875 C-3 20 -3 20 -5 22 C-3.89644911 14.44392214 -2.40656211 7.25177382 0 0 Z M1 10 C3 11 3 11 3 11 Z " fill="#6F94AE" transform="translate(165,103)"/>
<path d="M0 0 C0.66 0.33 1.32 0.66 2 1 C-3.28 6.28 -8.56 11.56 -14 17 C-14.66 16.67 -15.32 16.34 -16 16 C-5.62642369 4.29384966 -5.62642369 4.29384966 0 0 Z " fill="#3E3E3E" transform="translate(40,28)"/>
<path d="M0 0 C0.33 0.66 0.66 1.32 1 2 C0.109375 4.27734375 0.109375 4.27734375 -1.25 6.9375 C-1.90742188 8.25041016 -1.90742188 8.25041016 -2.578125 9.58984375 C-3.87297665 11.78468845 -5.10963121 13.31534782 -7 15 C-7.66 13.35 -8.32 11.7 -9 10 C-7.6875 8.5 -7.6875 8.5 -6 7 C-5.01 7 -4.02 7 -3 7 C-3 6.01 -3 5.02 -3 4 C-2.34 4 -1.68 4 -1 4 C-0.67 2.68 -0.34 1.36 0 0 Z " fill="#6A90AF" transform="translate(350,447)"/>
<path d="M0 0 C2.64 0.33 5.28 0.66 8 1 C4.94295868 3.68198764 3.05569345 4.39287197 -1 4.3125 C-1.845625 4.30863281 -2.69125 4.30476563 -3.5625 4.30078125 C-6.11537729 3.98576274 -7.79013935 3.28396996 -10 2 C-6.7169902 0.3584951 -3.57454967 1.48111376 0 2 C0 1.34 0 0.68 0 0 Z " fill="#6D91AD" transform="translate(112,345)"/>
<path d="M0 0 C0.99 1.32 1.98 2.64 3 4 C2.01 4.99 1.02 5.98 0 7 C1.32 7 2.64 7 4 7 C3.50168276 10.68754757 2.89932357 12.60490662 0 15 C0 11 0 11 1 10 C-0.32 10 -1.64 10 -3 10 C-2.01 6.7 -1.02 3.4 0 0 Z " fill="#7395B0" transform="translate(401,266)"/>
<path d="M0 0 C2.33524782 2.25740623 4.18705073 4.2805761 6 7 C6 7.99 6 8.98 6 10 C6.66 10 7.32 10 8 10 C7.67 10.66 7.34 11.32 7 12 C5.25 11.9375 5.25 11.9375 3 11 C0.65312444 8.07602389 -1.14013944 5.36635955 -0.75 1.5625 C-0.5025 1.046875 -0.255 0.53125 0 0 Z " fill="#5C86A4" transform="translate(369,91)"/>
<path d="M0 0 C0.33 0.66 0.66 1.32 1 2 C1.66 2 2.32 2 3 2 C6.39366878 7.37330889 6.32712342 11.86946489 6 18 C4.36798362 14.89034717 3.08562641 11.73309413 1.875 8.4375 C1.34519531 7.01244141 1.34519531 7.01244141 0.8046875 5.55859375 C0 3 0 3 0 0 Z " fill="#7193AD" transform="translate(55,258)"/>
<path d="M0 0 C0.99 0 1.98 0 3 0 C4.06775224 1.96466413 5.06553465 3.96855359 6 6 C5.67 6.66 5.34 7.32 5 8 C1.9375 8.625 1.9375 8.625 -1 9 C-0.67 6.03 -0.34 3.06 0 0 Z " fill="#4A779D" transform="translate(346,229)"/>
<path d="M0 0 C2.25076614 3.37614921 2 5.06731665 2 9 C-1.01031744 9.93423645 -1.86650268 10.04449911 -5 9 C-5 8.34 -5 7.68 -5 7 C-4.34 7 -3.68 7 -3 7 C-2.690625 6.030625 -2.38125 5.06125 -2.0625 4.0625 C-1 1 -1 1 0 0 Z " fill="#42739A" transform="translate(333,30)"/>
<path d="M0 0 C1.21386936 3.64160808 0.6674695 4.33165469 -0.9375 7.6875 C-1.31777344 8.49574219 -1.69804687 9.30398438 -2.08984375 10.13671875 C-2.39019531 10.75160156 -2.69054687 11.36648438 -3 12 C-3.33 12 -3.66 12 -4 12 C-5.25 4.375 -5.25 4.375 -3 1 C-2.01 0.67 -1.02 0.34 0 0 Z " fill="#5C86A6" transform="translate(224,252)"/>
<path d="M0 0 C-3.87024733 3.38646642 -8.10132476 6.32953125 -13 8 C-13.99 7.67 -14.98 7.34 -16 7 C-15.34 7 -14.68 7 -14 7 C-14 6.34 -14 5.68 -14 5 C-11.69 4.34 -9.38 3.68 -7 3 C-7 2.34 -7 1.68 -7 1 C-4.53721199 -0.231394 -2.7204945 -0.07159196 0 0 Z " fill="#7E9EB5" transform="translate(225,346)"/>
<path d="M0 0 C0.99 0.33 1.98 0.66 3 1 C2.27991594 5.60853797 0.68704061 9.67237409 -1 14 C-1.33 14 -1.66 14 -2 14 C-2 10.04 -2 6.08 -2 2 C-1.34 2 -0.68 2 0 2 C0 1.34 0 0.68 0 0 Z " fill="#668BA7" transform="translate(435,205)"/>
<path d="M0 0 C1.32 0 2.64 0 4 0 C2.55049545 3.7910119 0.84827434 7.3874638 -1 11 C-1.33 11 -1.66 11 -2 11 C-2.25 3.375 -2.25 3.375 0 0 Z " fill="#5A86A7" transform="translate(163,68)"/>
<path d="M0 0 C1.19923631 1.79885447 2.35982835 3.62578844 3.4375 5.5 C4.80504308 7.68806893 6.10001566 9.28096655 8 11 C6.68 11.33 5.36 11.66 4 12 C3.67 11.01 3.34 10.02 3 9 C2.01 8.67 1.02 8.34 0 8 C0 5.36 0 2.72 0 0 Z " fill="#628AA7" transform="translate(194,160)"/>
<path d="M0 0 C0.33 0 0.66 0 1 0 C1.10251672 5.12583611 1.03590199 9.94997778 0 15 C-0.66 15 -1.32 15 -2 15 C-2 10.71 -2 6.42 -2 2 C-1.34 2 -0.68 2 0 2 C0 1.34 0 0.68 0 0 Z " fill="#5E849F" transform="translate(147,116)"/>
<path d="M0 0 C0 3 0 3 -1.6796875 4.82421875 C-2.40414062 5.43910156 -3.12859375 6.05398437 -3.875 6.6875 C-4.59429687 7.31011719 -5.31359375 7.93273438 -6.0546875 8.57421875 C-8 10 -8 10 -10 10 C-8.50006099 6.10015857 -4.53875449 0 0 0 Z " fill="#6992AA" transform="translate(58,50)"/>
<path d="M0 0 C0.99 0.33 1.98 0.66 3 1 C2.01 2.32 1.02 3.64 0 5 C0.99 6.32 1.98 7.64 3 9 C2.01 9.495 2.01 9.495 1 10 C0.34 9.67 -0.32 9.34 -1 9 C-1 8.34 -1 7.68 -1 7 C-2.32 6.34 -3.64 5.68 -5 5 C-4.34 4.67 -3.68 4.34 -3 4 C-2.67 3.01 -2.34 2.02 -2 1 C-1.34 0.67 -0.68 0.34 0 0 Z " fill="#5F87A7" transform="translate(357,50)"/>
<path d="M0 0 C0.33 1.32 0.66 2.64 1 4 C1.66 4 2.32 4 3 4 C4.35439668 6.70879335 4.06501451 9.00933268 4 12 C2.35 11.67 0.7 11.34 -1 11 C-0.67 10.01 -0.34 9.02 0 8 C0 7.67 0 7.34 0 7 C0 4.66666667 0 2.33333333 0 0 Z " fill="#417199" transform="translate(402,262)"/>
<path d="M0 0 C0.99 0.33 1.98 0.66 3 1 C4 4 4 4 3.0625 6.1875 C2.5365625 7.0846875 2.5365625 7.0846875 2 8 C0.0625 7.25 0.0625 7.25 -2 6 C-2.75 3.875 -2.75 3.875 -3 2 C-2.01 1.34 -1.02 0.68 0 0 Z " fill="#49769C" transform="translate(380,253)"/>
<path d="M0 0 C0.33 0.66 0.66 1.32 1 2 C0.05125 2.495 -0.8975 2.99 -1.875 3.5 C-4.76364124 5.38034194 -5.57127452 6.91690316 -6.375 10.25 C-6.58125 11.4875 -6.7875 12.725 -7 14 C-7.33 14 -7.66 14 -8 14 C-8.10824843 12.3973218 -8.18570645 10.79254252 -8.25 9.1875 C-8.29640625 8.29417969 -8.3428125 7.40085938 -8.390625 6.48046875 C-8 4 -8 4 -6.125 2.21875 C-4.05371571 1.03080754 -2.34033394 0.41791677 0 0 Z " fill="#5D85A0" transform="translate(165,159)"/>
<path d="M0 0 C1.98 0 3.96 0 6 0 C6 2.31 6 4.62 6 7 C6.66 7 7.32 7 8 7 C8 7.66 8 8.32 8 9 C8.99 9.33 9.98 9.66 11 10 C11 10.66 11 11.32 11 12 C10.34 12 9.68 12 9 12 C9 11.34 9 10.68 9 10 C8.34 10 7.68 10 7 10 C7 9.34 7 8.68 7 8 C6.34 8 5.68 8 5 8 C3.7109375 6.25 3.7109375 6.25 2.375 4 C1.92898437 3.2575 1.48296875 2.515 1.0234375 1.75 C0.68570313 1.1725 0.34796875 0.595 0 0 Z " fill="#85A6BC" transform="translate(86,330)"/>
<path d="M0 0 C0.66 0.66 1.32 1.32 2 2 C1.64969438 6.553973 0.8021402 10.7950062 -1 15 C-1.99 15.33 -2.98 15.66 -4 16 C-2.68 10.72 -1.36 5.44 0 0 Z " fill="#58809E" transform="translate(242,239)"/>
<path d="M0 0 C0.66 0.99 1.32 1.98 2 3 C1.5390625 5.04296875 1.5390625 5.04296875 0.625 7.1875 C0.32851562 7.90292969 0.03203125 8.61835937 -0.2734375 9.35546875 C-0.51320312 9.89816406 -0.75296875 10.44085938 -1 11 C-1.66 11 -2.32 11 -3 11 C-3 12.65 -3 14.3 -3 16 C-3.66 16 -4.32 16 -5 16 C-3.71291613 10.45563871 -2.08135307 5.29798964 0 0 Z " fill="#6B8DA8" transform="translate(171,87)"/>
<path d="M0 0 C1.98 0.66 3.96 1.32 6 2 C5.67 4.31 5.34 6.62 5 9 C1.7457985 6.16569547 0.4793247 4.31392226 0 0 Z " fill="#688DAA" transform="translate(260,455)"/>
<path d="M0 0 C0.99 0.495 0.99 0.495 2 1 C2 1.99 2 2.98 2 4 C4.31 4 6.62 4 9 4 C8.67 4.99 8.34 5.98 8 7 C1.125 6.125 1.125 6.125 0 5 C-0.04063832 3.33382885 -0.042721 1.66611905 0 0 Z " fill="#2D6794" transform="translate(382,326)"/>
<path d="M0 0 C3.3125 0.125 3.3125 0.125 7 1 C8.9375 4.0625 8.9375 4.0625 10 7 C5.56541027 5.6062718 3.12621626 3.39417765 0 0 Z " fill="#668AA7" transform="translate(174,283)"/>
<path d="M0 0 C0.33 0 0.66 0 1 0 C0.88556397 2.0839403 0.75804453 4.16716493 0.625 6.25 C0.55539063 7.41015625 0.48578125 8.5703125 0.4140625 9.765625 C0.03751692 12.70694334 -0.4774123 14.49949011 -2 17 C-3.80789124 10.91891127 -1.83657235 5.83137661 0 0 Z " fill="#7799B1" transform="translate(231,224)"/>
<path d="M0 0 C-0.3125 1.9375 -0.3125 1.9375 -1 4 C-1.99 4.33 -2.98 4.66 -4 5 C-4.73323796 7.01508358 -4.73323796 7.01508358 -5 9 C-6.32 9.33 -7.64 9.66 -9 10 C-9 9.34 -9 8.68 -9 8 C-8.34 8 -7.68 8 -7 8 C-6.731875 7.236875 -6.46375 6.47375 -6.1875 5.6875 C-4.80876015 2.56719402 -3.66285015 0 0 0 Z " fill="#7595B0" transform="translate(192,58)"/>
<path d="M0 0 C2.97 0.33 5.94 0.66 9 1 C7.375 3.0625 7.375 3.0625 5 5 C1.75 4.75 1.75 4.75 -1 4 C-0.67 2.68 -0.34 1.36 0 0 Z " fill="#5B86A8" transform="translate(139,35)"/>
<path d="M0 0 C0.33 0 0.66 0 1 0 C1 6.27 1 12.54 1 19 C-0.74834267 16.377486 -1.51529754 15.00515522 -2 12 C-1.67 11.34 -1.34 10.68 -1 10 C-0.77377919 8.29636178 -0.59111527 6.58671299 -0.4375 4.875 C-0.35371094 3.96492187 -0.26992188 3.05484375 -0.18359375 2.1171875 C-0.12300781 1.41851562 -0.06242187 0.71984375 0 0 Z " fill="#4A718E" transform="translate(388,199)"/>
<path d="M0 0 C-1.65 0.33 -3.3 0.66 -5 1 C-5.33 1.99 -5.66 2.98 -6 4 C-9.0625 5.1875 -9.0625 5.1875 -12 6 C-12.66 5.34 -13.32 4.68 -14 4 C-12.23494565 3.13395466 -10.46271926 2.28251358 -8.6875 1.4375 C-7.70136719 0.96183594 -6.71523437 0.48617187 -5.69921875 -0.00390625 C-3 -1 -3 -1 0 0 Z " fill="#7999B1" transform="translate(79,40)"/>
<path d="M0 0 C0.69287109 0.09990234 1.38574219 0.19980469 2.09960938 0.30273438 C3.79667213 0.54851588 5.49225459 0.80448152 7.1875 1.0625 C7.1875 1.3925 7.1875 1.7225 7.1875 2.0625 C4.60388482 2.11657567 2.02140745 2.156207 -0.5625 2.1875 C-1.29210937 2.20425781 -2.02171875 2.22101563 -2.7734375 2.23828125 C-6.6169624 2.27322239 -9.55856772 2.23749684 -12.8125 0.0625 C-8.38499834 -1.16688396 -4.46430393 -0.68780185 0 0 Z " fill="#81A3BC" transform="translate(295.8125,477.9375)"/>
<path d="M0 0 C0.93045933 2.55144824 1.08564091 3.74006478 0.22265625 6.359375 C-0.16019531 7.14828125 -0.54304688 7.9371875 -0.9375 8.75 C-1.50791016 9.94882813 -1.50791016 9.94882813 -2.08984375 11.171875 C-2.39019531 11.77515625 -2.69054687 12.3784375 -3 13 C-5 9.25 -5 9.25 -5 7 C-4.01 7 -3.02 7 -2 7 C-2.33 5.02 -2.66 3.04 -3 1 C-2.67 1.66 -2.34 2.32 -2 3 C-1.34 3 -0.68 3 0 3 C0 2.01 0 1.02 0 0 Z " fill="#789AB3" transform="translate(431,220)"/>
<path d="M0 0 C1.32 0.66 2.64 1.32 4 2 C3.01 2.66 2.02 3.32 1 4 C0.01 3.67 -0.98 3.34 -2 3 C-2 3.66 -2 4.32 -2 5 C-4.02045442 4.39816251 -6.02111039 3.72693904 -8 3 C-8.33 2.34 -8.66 1.68 -9 1 C-6.03 1 -3.06 1 0 1 C0 0.67 0 0.34 0 0 Z " fill="#5580A1" transform="translate(284,473)"/>
<path d="M0 0 C0.680625 0.12375 1.36125 0.2475 2.0625 0.375 C1.0725 0.705 0.0825 1.035 -0.9375 1.375 C-0.9375 2.035 -0.9375 2.695 -0.9375 3.375 C-6.2109375 6.59765625 -6.2109375 6.59765625 -7.9375 7.375 C-8.5975 7.045 -9.2575 6.715 -9.9375 6.375 C-3.86310175 0.49316193 -3.86310175 0.49316193 0 0 Z " fill="#8BA4BA" transform="translate(226.9375,311.625)"/>
<path d="M0 0 C1.98 0.99 1.98 0.99 4 2 C3.67 5.96 3.34 9.92 3 14 C2.67 14 2.34 14 2 14 C1.66179834 12.4176994 1.32964061 10.83410625 1 9.25 C0.814375 8.36828125 0.62875 7.4865625 0.4375 6.578125 C0 4 0 4 0 0 Z " fill="#6488A4" transform="translate(33,171)"/>
<path d="M0 0 C-0.33 1.65 -0.66 3.3 -1 5 C-2.98 5.66 -4.96 6.32 -7 7 C-3.86206897 0 -3.86206897 0 0 0 Z " fill="#7292AA" transform="translate(199,51)"/>
<path d="M0 0 C0.66 0.33 1.32 0.66 2 1 C2 2.65 2 4.3 2 6 C1.01 6 0.02 6 -1 6 C-1.33 7.98 -1.66 9.96 -2 12 C-2.66 12 -3.32 12 -4 12 C-3.52309796 10.37433394 -3.04340334 8.74948689 -2.5625 7.125 C-2.29566406 6.22007812 -2.02882812 5.31515625 -1.75390625 4.3828125 C-1 2 -1 2 0 0 Z " fill="#6A8EA8" transform="translate(237,256)"/>
<path d="M0 0 C0.33 0 0.66 0 1 0 C1.66 5.61 2.32 11.22 3 17 C2.67 16.34 2.34 15.68 2 15 C1.34 15 0.68 15 0 15 C0 10.05 0 5.1 0 0 Z " fill="#7B9BB5" transform="translate(142,244)"/>
<path d="M0 0 C2.96404505 2.80804268 5.44499019 5.18315774 7 9 C1.25 8.125 1.25 8.125 -1 7 C-0.01 6.67 0.98 6.34 2 6 C1.34 4.02 0.68 2.04 0 0 Z " fill="#7C9BB3" transform="translate(378,285)"/>
<path d="M0 0 C0.33 0 0.66 0 1 0 C1.185625 1.7015625 1.185625 1.7015625 1.375 3.4375 C1.684375 5.2009375 1.684375 5.2009375 2 7 C2.66 7.33 3.32 7.66 4 8 C3 10 3 10 1 11 C0.34 10.67 -0.32 10.34 -1 10 C-0.67 6.7 -0.34 3.4 0 0 Z " fill="#5B83A0" transform="translate(403,171)"/>
<path d="M0 0 C1.32 0.33 2.64 0.66 4 1 C2.6875 4.4375 2.6875 4.4375 1 8 C0.01 8.33 -0.98 8.66 -2 9 C-1.34 6.03 -0.68 3.06 0 0 Z " fill="#3A6385" transform="translate(379,154)"/>
<path d="M0 0 C0.33 0.66 0.66 1.32 1 2 C1.61875 2.28875 2.2375 2.5775 2.875 2.875 C5.36796335 4.19480413 6.45147781 5.67721672 8 8 C6.35 7.67 4.7 7.34 3 7 C3 6.34 3 5.68 3 5 C1.68 4.34 0.36 3.68 -1 3 C-0.67 2.01 -0.34 1.02 0 0 Z " fill="#89A4B8" transform="translate(349,68)"/>
<path d="M0 0 C1.65 0.33 3.3 0.66 5 1 C4.01 1.33 3.02 1.66 2 2 C2.33 3.32 2.66 4.64 3 6 C0.525 5.01 0.525 5.01 -2 4 C-1.34 2.68 -0.68 1.36 0 0 Z " fill="#3D6C90" transform="translate(325,31)"/>
<path d="M0 0 C0.66 0 1.32 0 2 0 C2 0.99 2 1.98 2 3 C2.66 3 3.32 3 4 3 C4 5.31 4 7.62 4 10 C1.16625119 6.79663178 0.4794463 4.21912747 0 0 Z " fill="#7497B0" transform="translate(66,288)"/>
<path d="M0 0 C2.53833449 1.26916725 2.89400901 2.41624809 4.125 4.9375 C4.47820312 5.64777344 4.83140625 6.35804688 5.1953125 7.08984375 C6 9 6 9 6 11 C3 10 3 10 1 7 C0.60612212 4.67612053 0.26513915 2.34206251 0 0 Z " fill="#80A2B5" transform="translate(369,269)"/>
<path d="M0 0 C0.99 0.33 1.98 0.66 3 1 C3.33 4.63 3.66 8.26 4 12 C3.34 12 2.68 12 2 12 C2 10.02 2 8.04 2 6 C1.34 6 0.68 6 0 6 C0 4.02 0 2.04 0 0 Z " fill="#386588" transform="translate(49,233)"/>
<path d="M0 0 C0.66 0 1.32 0 2 0 C2.39063507 1.43333021 2.76198474 2.87192679 3.125 4.3125 C3.33382812 5.11300781 3.54265625 5.91351563 3.7578125 6.73828125 C4 9 4 9 2 12 C1.66269158 10.56342755 1.33030409 9.12569907 1 7.6875 C0.814375 6.88699219 0.62875 6.08648437 0.4375 5.26171875 C0 3 0 3 0 0 Z " fill="#6385A0" transform="translate(36,185)"/>
<path d="M0 0 C2.09749995 2.35968744 2.96905704 3.54616994 3.1875 6.75 C3.125625 7.4925 3.06375 8.235 3 9 C1.02 9 -0.96 9 -3 9 C-2.01 8.34 -1.02 7.68 0 7 C-0.33 6.34 -0.66 5.68 -1 5 C-0.72057545 3.32345271 -0.39171753 1.65391846 0 0 Z " fill="#95ADBE" transform="translate(388,124)"/>
<path d="M0 0 C0.99 0 1.98 0 3 0 C3 1.65 3 3.3 3 5 C3.66 5.33 4.32 5.66 5 6 C2.03 5.67 -0.94 5.34 -4 5 C-2.68 4.67 -1.36 4.34 0 4 C-0.33 3.01 -0.66 2.02 -1 1 C-0.67 0.67 -0.34 0.34 0 0 Z " fill="#6C92B1" transform="translate(176,349)"/>
<path d="M0 0 C1.32 0 2.64 0 4 0 C3.40072174 3.35595828 2.15377564 5.37801226 0 8 C0 5.36 0 2.72 0 0 Z " fill="#6388A1" transform="translate(406,265)"/>
<path d="M0 0 C1.32 0.33 2.64 0.66 4 1 C4 1.66 4 2.32 4 3 C6.475 3.99 6.475 3.99 9 5 C6 6 6 6 4 6 C4 5.34 4 4.68 4 4 C2.68 3.34 1.36 2.68 0 2 C0 1.34 0 0.68 0 0 Z " fill="#7899B1" transform="translate(424,45)"/>
<path d="M0 0 C4.455 0.99 4.455 0.99 9 2 C8.67 2.99 8.34 3.98 8 5 C4.62537285 4.45276317 2.91765 3.9451 0 2 C0 1.34 0 0.68 0 0 Z " fill="#668FAF" transform="translate(298,39)"/>
<path d="M0 0 C0.99 0.33 1.98 0.66 3 1 C2.67 4.3 2.34 7.6 2 11 C-0.67927341 6.98108988 -0.15601248 4.75838077 0 0 Z " fill="#6B90A9" transform="translate(354,418)"/>
<path d="M0 0 C-0.6875 1.9375 -0.6875 1.9375 -2 4 C-4.5 4.875 -4.5 4.875 -7 5 C-7.66 4.34 -8.32 3.68 -9 3 C-3.375 0 -3.375 0 0 0 Z " fill="#7091AA" transform="translate(203,336)"/>
<path d="M0 0 C0.33 0.66 0.66 1.32 1 2 C-1.97 1.67 -4.94 1.34 -8 1 C-8.33 1.66 -8.66 2.32 -9 3 C-9.66 2.34 -10.32 1.68 -11 1 C-6.9366946 -0.60642307 -4.21472177 -1.44504746 0 0 Z " fill="#A5B9C8" transform="translate(399,311)"/>
<path d="M0 0 C0.99 0.33 1.98 0.66 3 1 C3.185625 2.7015625 3.185625 2.7015625 3.375 4.4375 C3.684375 6.2009375 3.684375 6.2009375 4 8 C4.66 8.33 5.32 8.66 6 9 C5.34 9.66 4.68 10.32 4 11 C3.32880451 9.5437455 2.66318193 8.08492133 2 6.625 C1.62875 5.81289062 1.2575 5.00078125 0.875 4.1640625 C0 2 0 2 0 0 Z " fill="#7A9BB3" transform="translate(354,210)"/>
<path d="M0 0 C1.46726798 3.81489674 0.43336419 6.29011622 -1 10 C-3 8 -3 8 -3.3125 5.5625 C-2.95209822 2.60720543 -2.28773145 1.81112073 0 0 Z " fill="#7194AD" transform="translate(445,183)"/>
<path d="M0 0 C1.65 0 3.3 0 5 0 C5.33 1.65 5.66 3.3 6 5 C3.5625 4.1875 3.5625 4.1875 1 3 C0.67 2.01 0.34 1.02 0 0 Z " fill="#6286A3" transform="translate(223,138)"/>
<path d="M0 0 C2.15377564 2.62198774 3.40072174 4.64404172 4 8 C1.525 7.01 1.525 7.01 -1 6 C-0.67 4.02 -0.34 2.04 0 0 Z " fill="#6085A8" transform="translate(379,106)"/>
<path d="M0 0 C1.65 0 3.3 0 5 0 C2.525 3.465 2.525 3.465 0 7 C-1.04449911 3.86650268 -0.93423645 3.01031744 0 0 Z " fill="#6D8CA6" transform="translate(129,332)"/>
<path d="M0 0 C0.99 0 1.98 0 3 0 C3 2.97 3 5.94 3 9 C0.87491756 5.81237635 0.4979837 3.73487777 0 0 Z " fill="#80A3B7" transform="translate(52,249)"/>
<path d="M0 0 C0.99 0.33 1.98 0.66 3 1 C2.67 2.32 2.34 3.64 2 5 C0.35 5 -1.3 5 -3 5 C-2.625 3.0625 -2.625 3.0625 -2 1 C-1.34 0.67 -0.68 0.34 0 0 Z " fill="#5382A5" transform="translate(365,149)"/>
<path d="M0 0 C0.721875 0.144375 1.44375 0.28875 2.1875 0.4375 C3.5796875 0.7159375 3.5796875 0.7159375 5 1 C6.66666667 1.33333333 8.33333333 1.66666667 10 2 C10 2.66 10 3.32 10 4 C6.37 3.34 2.74 2.68 -1 2 C-0.67 1.34 -0.34 0.68 0 0 Z " fill="#5F84A2" transform="translate(209,133)"/>
<path d="M0 0 C0.75 1.6875 0.75 1.6875 1 4 C-0.9375 6.75 -0.9375 6.75 -3 9 C-3 4.72290301 -2.29379749 3.44069624 0 0 Z " fill="#7292AD" transform="translate(43,65)"/>
<path d="M0 0 C1.32 0.33 2.64 0.66 4 1 C3.6875 2.875 3.6875 2.875 3 5 C2.01 5.66 1.02 6.32 0 7 C0 4.69 0 2.38 0 0 Z " fill="#8EAABA" transform="translate(180,44)"/>
<path d="M0 0 C3.3 0 6.6 0 10 0 C6.81237635 2.12508244 4.73487777 2.5020163 1 3 C0.67 2.01 0.34 1.02 0 0 Z " fill="#6994B0" transform="translate(310,475)"/>
<path d="M0 0 C3 1 3 1 5 2 C5.625 5.0625 5.625 5.0625 6 8 C1.125 3.375 1.125 3.375 0 0 Z " fill="#80A1B7" transform="translate(164,271)"/>
<path d="M0 0 C1.94268841 2.91403262 3.46395304 5.85808576 5 9 C4.34 9.66 3.68 10.32 3 11 C0.84694043 7.14243493 -0.39253254 4.44870215 0 0 Z " fill="#6D92AB" transform="translate(158,256)"/>
<path d="M0 0 C3 1 3 1 4.25 2.8125 C5.11637742 5.33943414 4.88492145 6.52221994 4 9 C0 2.25 0 2.25 0 0 Z " fill="#7698B0" transform="translate(366,235)"/>
<path d="M0 0 C0.66 0 1.32 0 2 0 C2.33 2.64 2.66 5.28 3 8 C2.01 8 1.02 8 0 8 C0 5.36 0 2.72 0 0 Z " fill="#5C7C9B" transform="translate(332,188)"/>
<path d="M0 0 C0.33 0 0.66 0 1 0 C1 2.31 1 4.62 1 7 C1.66 7.33 2.32 7.66 3 8 C3.33 8.66 3.66 9.32 4 10 C2.68 10.33 1.36 10.66 0 11 C0 7.37 0 3.74 0 0 Z " fill="#5581A1" transform="translate(158,134)"/>
<path d="M0 0 C2.5 2.3125 2.5 2.3125 5 5 C5 5.99 5 6.98 5 8 C3.0625 7.375 3.0625 7.375 1 6 C0.25 2.875 0.25 2.875 0 0 Z " fill="#7A9AB2" transform="translate(363,83)"/>
<path d="M0 0 C0 0.66 0 1.32 0 2 C-1.32 2.33 -2.64 2.66 -4 3 C-4.99 1.68 -5.98 0.36 -7 -1 C-3.51418144 -2.2020064 -3.32007656 -2.21338437 0 0 Z " fill="#5080A5" transform="translate(370,65)"/>
<path d="M0 0 C3.11198065 1.49836105 6.0534615 3.19933758 9 5 C7.3125 5.8125 7.3125 5.8125 5 6 C2.25 3.625 2.25 3.625 0 1 C0 0.67 0 0.34 0 0 Z " fill="#8DAABF" transform="translate(324,50)"/>
<path d="M0 0 C2.25 0.25 2.25 0.25 4 1 C2.02 1.99 2.02 1.99 0 3 C0 3.66 0 4.32 0 5 C-0.99 5.33 -1.98 5.66 -3 6 C-3.33 5.34 -3.66 4.68 -4 4 C-2.25 1.9375 -2.25 1.9375 0 0 Z " fill="#32638A" transform="translate(391,312)"/>
<path d="M0 0 C0.33 0.66 0.66 1.32 1 2 C0.67 2.99 0.34 3.98 0 5 C1.32 5 2.64 5 4 5 C3.67 5.99 3.34 6.98 3 8 C1.68 7.34 0.36 6.68 -1 6 C-1.042721 4.33388095 -1.04063832 2.66617115 -1 1 C-0.67 0.67 -0.34 0.34 0 0 Z " fill="#B4C7D1" transform="translate(395,280)"/>
<path d="M0 0 C0.99 0 1.98 0 3 0 C3.33 0.99 3.66 1.98 4 3 C2.5625 5.1875 2.5625 5.1875 1 7 C0.67 4.69 0.34 2.38 0 0 Z " fill="#326385" transform="translate(403,208)"/>
<path d="M0 0 C0.99 0 1.98 0 3 0 C2.67 1.98 2.34 3.96 2 6 C1.01 5.01 0.02 4.02 -1 3 C-0.67 2.01 -0.34 1.02 0 0 Z " fill="#5D89A7" transform="translate(445,177)"/>
<path d="M0 0 C2.5654594 2.5654594 2.54046087 4.47686668 3 8 C1.68 7.34 0.36 6.68 -1 6 C-0.67 4.02 -0.34 2.04 0 0 Z " fill="#42749A" transform="translate(222,155)"/>
<path d="M0 0 C0.66 0.33 1.32 0.66 2 1 C-0.625 5.875 -0.625 5.875 -4 7 C-4 6.01 -4 5.02 -4 4 C-3.34 4 -2.68 4 -2 4 C-1.34 2.68 -0.68 1.36 0 0 Z " fill="#346387" transform="translate(352,152)"/>
<path d="M0 0 C1.98 0.99 1.98 0.99 4 2 C4 3.32 4 4.64 4 6 C3.34 6 2.68 6 2 6 C2 5.34 2 4.68 2 4 C1.34 4 0.68 4 0 4 C0 2.68 0 1.36 0 0 Z " fill="#6588A3" transform="translate(394,105)"/>
<path d="M0 0 C0.99 0.33 1.98 0.66 3 1 C3 1.99 3 2.98 3 4 C3.66 4 4.32 4 5 4 C4.67 4.66 4.34 5.32 4 6 C2.68 5.67 1.36 5.34 0 5 C0 3.35 0 1.7 0 0 Z " fill="#537B99" transform="translate(372,97)"/>
<path d="M0 0 C1.98 0.66 3.96 1.32 6 2 C6 3.65 6 5.3 6 7 C5.34 6.67 4.68 6.34 4 6 C4 5.34 4 4.68 4 4 C3.34 4 2.68 4 2 4 C2 3.34 2 2.68 2 2 C1.34 2 0.68 2 0 2 C0 1.34 0 0.68 0 0 Z " fill="#7F9DB3" transform="translate(367,68)"/>
</svg>
