<?xml version="1.0" encoding="UTF-8"?>
<svg xmlns="http://www.w3.org/2000/svg" xmlns:xlink="http://www.w3.org/1999/xlink" width="300px" height="300px" viewBox="0 0 300 300" version="1.1">
<g id="surface1">
<path style=" stroke:none;fill-rule:nonzero;fill:rgb(38.039216%,85.490197%,98.431373%);fill-opacity:1;" d="M 300 150.027344 C 300 132.585938 275.113281 116.058594 236.953125 105.808594 C 245.761719 71.675781 241.847656 44.523438 224.601562 35.828125 C 220.628906 33.789062 215.980469 32.824219 210.90625 32.824219 L 210.90625 44.789062 C 213.71875 44.789062 215.980469 45.273438 217.875 46.183594 C 226.191406 50.371094 229.800781 66.308594 226.988281 86.808594 C 226.316406 91.855469 225.214844 97.167969 223.867188 102.585938 C 211.882812 100.011719 198.796875 98.027344 185.039062 96.738281 C 176.785156 86.808594 168.222656 77.792969 159.601562 69.90625 C 179.535156 53.644531 198.246094 44.734375 210.964844 44.734375 L 210.964844 32.769531 C 194.148438 32.769531 172.136719 43.289062 149.878906 61.535156 C 127.621094 43.394531 105.605469 32.984375 88.789062 32.984375 L 88.789062 44.949219 C 101.445312 44.949219 120.21875 53.804688 140.15625 69.957031 C 131.59375 77.847656 123.03125 86.808594 114.898438 96.738281 C 101.082031 98.027344 87.996094 100.011719 76.007812 102.640625 C 74.601562 97.273438 73.5625 92.070312 72.828125 87.078125 C 69.957031 66.578125 73.5 50.640625 81.757812 46.398438 C 83.589844 45.433594 85.976562 45.003906 88.789062 45.003906 L 88.789062 33.039062 C 83.652344 33.039062 79.003906 34.003906 74.96875 36.042969 C 57.785156 44.734375 53.933594 71.835938 62.800781 105.859375 C 24.765625 116.164062 0 132.640625 0 150.027344 C 0 167.46875 24.886719 183.996094 63.046875 194.246094 C 54.238281 228.378906 58.152344 255.53125 75.398438 264.226562 C 79.371094 266.265625 84.019531 267.230469 89.15625 267.230469 C 105.972656 267.230469 127.984375 256.710938 150.246094 238.464844 C 172.503906 256.605469 194.515625 267.015625 211.332031 267.015625 C 216.46875 267.015625 221.117188 266.050781 225.152344 264.011719 C 242.335938 255.316406 246.1875 228.214844 237.320312 194.191406 C 275.234375 183.941406 300 167.414062 300 150.027344 Z M 220.382812 114.230469 C 218.121094 121.15625 215.308594 128.292969 212.128906 135.429688 C 209.621094 131.136719 206.992188 126.84375 204.117188 122.550781 C 201.304688 118.257812 198.308594 114.070312 195.3125 109.992188 C 203.996094 111.121094 212.371094 112.515625 220.382812 114.230469 Z M 192.375 171.386719 C 187.605469 178.628906 182.714844 185.5 177.640625 191.886719 C 168.527344 192.582031 159.292969 192.957031 150 192.957031 C 140.765625 192.957031 131.53125 192.582031 122.484375 191.9375 C 117.40625 185.554688 112.453125 178.738281 107.683594 171.546875 C 103.035156 164.515625 98.816406 157.378906 94.964844 150.1875 C 98.757812 142.996094 103.035156 135.804688 107.625 128.777344 C 112.394531 121.53125 117.285156 114.660156 122.359375 108.277344 C 131.472656 107.578125 140.707031 107.203125 150 107.203125 C 159.234375 107.203125 168.46875 107.578125 177.515625 108.222656 C 182.59375 114.609375 187.546875 121.421875 192.316406 128.613281 C 196.964844 135.644531 201.183594 142.78125 205.035156 149.972656 C 201.183594 157.164062 196.964844 164.355469 192.375 171.386719 Z M 212.128906 164.410156 C 215.429688 171.601562 218.242188 178.792969 220.566406 185.769531 C 212.554688 187.484375 204.117188 188.933594 195.371094 190.0625 C 198.371094 185.929688 201.367188 181.6875 204.179688 177.34375 C 206.992188 173.050781 209.621094 168.703125 212.128906 164.410156 Z M 150.121094 221.667969 C 144.433594 216.519531 138.75 210.777344 133.121094 204.496094 C 138.625 204.710938 144.25 204.871094 149.9375 204.871094 C 155.6875 204.871094 161.375 204.765625 166.9375 204.496094 C 161.433594 210.777344 155.75 216.519531 150.121094 221.667969 Z M 104.628906 190.0625 C 95.945312 188.933594 87.566406 187.539062 79.554688 185.820312 C 81.816406 178.898438 84.632812 171.761719 87.8125 164.625 C 90.316406 168.917969 92.949219 173.210938 95.820312 177.503906 C 98.695312 181.796875 101.628906 185.980469 104.628906 190.0625 Z M 149.816406 78.382812 C 155.503906 83.535156 161.191406 89.277344 166.816406 95.558594 C 161.3125 95.34375 155.6875 95.179688 150 95.179688 C 144.25 95.179688 138.566406 95.289062 133 95.558594 C 138.503906 89.277344 144.191406 83.535156 149.816406 78.382812 Z M 104.566406 109.992188 C 101.570312 114.125 98.574219 118.363281 95.761719 122.710938 C 92.949219 127.003906 90.316406 131.296875 87.8125 135.589844 C 84.507812 128.398438 81.695312 121.207031 79.371094 114.230469 C 87.382812 112.570312 95.820312 111.121094 104.566406 109.992188 Z M 49.226562 177.179688 C 27.578125 169.078125 13.574219 158.453125 13.574219 150.027344 C 13.574219 141.601562 27.578125 130.921875 49.226562 122.871094 C 54.484375 120.886719 60.230469 119.117188 66.164062 117.453125 C 69.648438 127.96875 74.234375 138.917969 79.921875 150.132812 C 74.296875 161.296875 69.773438 172.191406 66.347656 182.65625 C 60.292969 180.992188 54.546875 179.167969 49.226562 177.179688 Z M 82.125 253.867188 C 73.808594 249.683594 70.199219 233.742188 73.011719 213.242188 C 73.683594 208.199219 74.785156 202.886719 76.132812 197.464844 C 88.117188 200.042969 101.203125 202.027344 114.960938 203.316406 C 123.214844 213.242188 131.777344 222.261719 140.398438 230.148438 C 120.464844 246.410156 101.753906 255.316406 89.035156 255.316406 C 86.28125 255.265625 83.957031 254.78125 82.125 253.867188 Z M 227.171875 212.976562 C 230.042969 233.476562 226.5 249.414062 218.242188 253.652344 C 216.410156 254.621094 214.023438 255.050781 211.210938 255.050781 C 198.554688 255.050781 179.78125 246.195312 159.84375 230.042969 C 168.40625 222.152344 176.96875 213.191406 185.101562 203.261719 C 198.917969 201.972656 212.003906 199.988281 223.992188 197.359375 C 225.398438 202.78125 226.5 207.984375 227.171875 212.976562 Z M 250.714844 177.179688 C 245.453125 179.167969 239.707031 180.9375 233.773438 182.601562 C 230.289062 172.082031 225.703125 161.136719 220.015625 149.917969 C 225.640625 138.757812 230.167969 127.863281 233.589844 117.398438 C 239.644531 119.0625 245.394531 120.886719 250.773438 122.871094 C 272.421875 130.976562 286.425781 141.601562 286.425781 150.027344 C 286.363281 158.453125 272.359375 169.132812 250.714844 177.179688 Z M 250.714844 177.179688 "/>
<path style=" stroke:none;fill-rule:nonzero;fill:rgb(38.039216%,85.490197%,98.431373%);fill-opacity:1;" d="M 177.882812 150.027344 C 177.882812 136.480469 165.371094 125.503906 149.9375 125.503906 C 134.503906 125.503906 121.992188 136.480469 121.992188 150.027344 C 121.992188 163.570312 134.503906 174.550781 149.9375 174.550781 C 165.371094 174.550781 177.882812 163.570312 177.882812 150.027344 Z M 177.882812 150.027344 "/>
</g>
</svg>
