<?xml version="1.0" encoding="UTF-8"?>
<svg xmlns="http://www.w3.org/2000/svg" xmlns:xlink="http://www.w3.org/1999/xlink" width="300px" height="300px" viewBox="0 0 300 300" version="1.1">
<defs>
<linearGradient id="linear0" gradientUnits="userSpaceOnUse" x1="2.983" y1="0.53" x2="2.983" y2="4.744" gradientTransform="matrix(45.76659,0,0,45.76659,0.0228816,0)">
<stop offset="0" style="stop-color:rgb(59.215686%,85.098039%,96.470588%);stop-opacity:1;"/>
<stop offset="0.92024" style="stop-color:rgb(5.882353%,50.196078%,80%);stop-opacity:1;"/>
<stop offset="1" style="stop-color:rgb(5.882353%,50.196078%,80%);stop-opacity:1;"/>
</linearGradient>
</defs>
<g id="surface1">
<path style=" stroke:none;fill-rule:nonzero;fill:rgb(5.882353%,50.196081%,80.000001%);fill-opacity:1;" d="M 227.023438 13.273438 L 38.789062 13.273438 C 26.15625 13.273438 15.902344 23.617188 15.902344 36.15625 L 15.902344 243.753906 C 15.902344 256.382812 26.246094 266.636719 38.789062 266.636719 L 162.816406 266.636719 C 161.441406 204.941406 182.496094 85.21875 227.070312 13.089844 Z M 227.023438 13.273438 "/>
<path style=" stroke:none;fill-rule:nonzero;fill:url(#linear0);" d="M 220.160156 20 L 38.789062 20 C 29.816406 20 22.539062 27.324219 22.539062 36.246094 L 22.539062 228.695312 C 63.636719 212.90625 125.285156 199.3125 167.941406 199.953125 C 181.089844 138.808594 198.554688 78.675781 220.207031 20 Z M 220.160156 20 "/>
<path style=" stroke:none;fill-rule:nonzero;fill:rgb(0%,23.137255%,34.117648%);fill-opacity:1;" d="M 270.960938 6.5 C 258.054688 -4.941406 242.449219 -0.367188 227.023438 13.273438 L 220.160156 19.953125 C 193.796875 47.871094 169.816406 99.679688 161.761719 139.269531 C 164.632812 145.539062 166.898438 152.066406 168.535156 158.765625 L 169.542969 163.339844 L 170.550781 168.007812 C 170.550781 168.007812 170.320312 167.09375 169.359375 164.347656 L 168.71875 162.515625 C 166.566406 157.527344 161.898438 149.0625 159.75 145.402344 C 158.082031 150.265625 156.511719 155.164062 155.035156 160.089844 C 161.074219 171.167969 164.738281 190.113281 164.738281 190.113281 C 164.738281 190.113281 164.417969 188.878906 162.90625 184.621094 C 161.53125 180.824219 154.851562 169.0625 153.296875 166.316406 C 150.550781 176.382812 149.496094 183.15625 150.457031 184.804688 C 152.289062 188.007812 154.117188 193.957031 155.722656 199.632812 C 158.191406 209.699219 160.207031 219.867188 161.761719 230.113281 L 161.992188 232.953125 C 161.515625 244.398438 161.746094 255.859375 162.675781 267.277344 C 163.867188 281.601562 166.109375 293.914062 168.949219 300.503906 L 170.871094 299.449219 C 166.75 286.453125 165.011719 269.472656 165.742188 249.839844 C 166.886719 219.863281 173.753906 183.707031 186.523438 146.042969 C 208.167969 88.695312 238.007812 43.019531 265.378906 21.234375 C 240.433594 43.753906 206.703125 116.613281 196.636719 143.570312 C 185.332031 173.777344 177.324219 202.152344 172.472656 229.289062 C 180.800781 203.84375 207.710938 192.859375 207.710938 192.859375 C 207.710938 192.859375 220.984375 176.566406 236.363281 153.273438 L 206.84375 161.144531 L 197.324219 165.355469 C 197.324219 165.355469 221.578125 150.570312 242.496094 143.84375 C 271.191406 98.671875 302.449219 34.460938 270.960938 6.453125 "/>
</g>
</svg>
