<?xml version="1.0" encoding="UTF-8"?>
<svg xmlns="http://www.w3.org/2000/svg" xmlns:xlink="http://www.w3.org/1999/xlink" width="300px" height="300px" viewBox="0 0 300 300" version="1.1">
<g id="surface1">
<path style=" stroke:none;fill-rule:nonzero;fill:rgb(2.352941%,71.372551%,83.137256%);fill-opacity:1;" d="M 150 0 C 110.015625 0 85.023438 33.335938 75.027344 99.996094 C 90.023438 66.660156 107.515625 54.167969 127.507812 62.496094 C 138.914062 67.25 147.066406 81.050781 156.09375 96.324219 C 170.792969 121.203125 187.808594 149.996094 224.972656 149.996094 C 264.953125 149.996094 289.945312 116.664062 299.941406 49.996094 C 284.949219 83.328125 267.453125 95.832031 247.460938 87.5 C 236.058594 82.746094 227.90625 68.945312 218.878906 53.671875 C 204.179688 28.792969 187.160156 0 150 0 Z M 75.027344 149.996094 C 35.046875 149.996094 10.054688 183.332031 0.0585938 250 C 15.050781 216.664062 32.546875 204.164062 52.539062 212.5 C 63.941406 217.257812 72.09375 231.054688 81.121094 246.320312 C 95.820312 271.199219 112.839844 300 150 300 C 189.984375 300 214.976562 266.664062 224.972656 199.996094 C 209.976562 233.332031 192.484375 245.832031 172.492188 237.496094 C 161.085938 232.75 152.933594 218.941406 143.90625 203.675781 C 129.207031 178.796875 112.191406 149.996094 75.027344 149.996094 Z M 75.027344 149.996094 "/>
</g>
</svg>
