<?xml version="1.0" encoding="UTF-8"?>
<svg xmlns="http://www.w3.org/2000/svg" xmlns:xlink="http://www.w3.org/1999/xlink" width="300px" height="300px" viewBox="0 0 300 300" version="1.1">
<g id="surface1">
<path style=" stroke:none;fill-rule:nonzero;fill:rgb(14.117648%,53.725493%,79.215688%);fill-opacity:1;" d="M 8.574219 107.242188 C 8.574219 107.242188 1.472656 102.027344 9.992188 95.066406 L 29.847656 76.988281 C 29.847656 76.988281 35.53125 70.902344 41.539062 76.207031 L 224.757812 217.46875 L 224.757812 285.203125 C 224.757812 285.203125 224.671875 295.839844 211.265625 294.667969 Z M 8.574219 107.242188 "/>
<path style=" stroke:none;fill-rule:nonzero;fill:rgb(6.27451%,43.921569%,70.19608%);fill-opacity:1;" d="M 55.800781 150.902344 L 8.574219 194.625 C 8.574219 194.625 3.722656 198.300781 8.574219 204.871094 L 30.5 225.179688 C 30.5 225.179688 35.707031 230.875 43.402344 224.398438 L 93.46875 185.738281 Z M 55.800781 150.902344 "/>
<path style=" stroke:none;fill-rule:nonzero;fill:rgb(3.137255%,46.666667%,72.549021%);fill-opacity:1;" d="M 138.710938 151.265625 L 225.320312 83.917969 L 224.757812 16.542969 C 224.757812 16.542969 221.0625 1.839844 208.722656 9.492188 L 93.46875 116.3125 Z M 138.710938 151.265625 "/>
<path style=" stroke:none;fill-rule:nonzero;fill:rgb(23.529412%,60.000002%,83.137256%);fill-opacity:1;" d="M 211.265625 294.757812 C 216.296875 300 222.390625 298.28125 222.390625 298.28125 L 289.886719 264.414062 C 298.527344 258.417969 297.316406 250.972656 297.316406 250.972656 L 297.316406 48.722656 C 297.316406 39.835938 288.378906 36.761719 288.378906 36.761719 L 229.878906 8.046875 C 217.097656 0 208.722656 9.492188 208.722656 9.492188 C 208.722656 9.492188 219.492188 1.597656 224.757812 16.542969 L 224.757812 283.96875 C 224.757812 285.808594 224.375 287.617188 223.605469 289.242188 C 222.066406 292.40625 218.722656 295.359375 210.703125 294.125 Z M 211.265625 294.757812 "/>
</g>
</svg>
