<?xml version="1.0" encoding="UTF-8"?>
<svg version="1.1" xmlns="http://www.w3.org/2000/svg" width="348" height="348">
<path d="M0 0 C2.45953385 2.33243503 4.84273075 4.70543493 7.1875 7.15234375 C8.76684653 8.76232416 10.35780285 10.168071 12.125 11.5625 C15.12510033 14.10606332 17.56296228 16.8018318 20.09765625 19.796875 C21.37829538 21.27999711 22.70033581 22.72824292 24.05859375 24.140625 C51.66144034 53.07195083 60.87130481 92.41152182 60.3125 131.25 C60.30095501 133.30988663 60.29118598 135.36978399 60.28320312 137.4296875 C60.24920364 143.2882605 60.14578583 149.14320413 60 155 C59.98022095 155.85687408 59.96044189 156.71374817 59.94006348 157.59658813 C59.6886478 167.04849304 58.90426159 175.72897222 55.625 184.6875 C55.09543701 186.18941895 55.09543701 186.18941895 54.55517578 187.72167969 C45.41956517 212.85740108 32.02316032 234.30704689 14 254 C13.3296875 254.74121094 12.659375 255.48242188 11.96875 256.24609375 C5.96540952 262.56740777 -1.05414035 267.76866345 -8 273 C-9.32064453 273.99580078 -9.32064453 273.99580078 -10.66796875 275.01171875 C-16.17967448 279.01287544 -21.95537402 282.22935653 -28.01953125 285.32421875 C-31.01446706 286.87974534 -31.01446706 286.87974534 -33.33203125 289.00390625 C-36.92643452 291.69313037 -40.63199723 292.88443589 -44.875 294.25 C-45.65230469 294.518125 -46.42960938 294.78625 -47.23046875 295.0625 C-57.84797152 298.56003032 -57.84797152 298.56003032 -62.92578125 296.046875 C-66.26382554 292.92509837 -68.69694663 290.46735138 -69.26501465 285.84234619 C-69.27230591 285.06453796 -69.27959717 284.28672974 -69.28710938 283.48535156 C-69.30052368 282.59632141 -69.31393799 281.70729126 -69.32775879 280.7913208 C-69.33567444 279.35547638 -69.33567444 279.35547638 -69.34375 277.890625 C-69.3583728 276.89101746 -69.37299561 275.89140991 -69.38806152 274.86151123 C-69.43453578 271.65771534 -69.46867822 268.4539776 -69.5 265.25 C-69.17832934 241.20873009 -69.17832934 241.20873009 -74.40234375 217.97265625 C-75.41861618 214.61829299 -75.18966496 211.47719101 -75 208 C-71.46601326 206.44427758 -68.32256039 205.66532005 -64.5 205.1875 C-57.54089944 204.07438379 -51.42300745 201.86282618 -45 199 C-44.09628662 198.60216309 -44.09628662 198.60216309 -43.17431641 198.19628906 C-26.26963827 190.5744248 -14.75853071 178.29676519 -8 161 C-0.10868497 139.36049955 0.38148383 114.07171151 -9.234375 93.08984375 C-11.13100267 89.01770616 -13.09904776 84.9859752 -15.1237793 80.97607422 C-17.00879069 76.72495072 -17.08130318 73.06669976 -17 68.4375 C-17.00033461 67.10156 -17.00305886 65.76561908 -17.0078125 64.4296875 C-17.01299273 62.1410614 -16.99609255 59.85916174 -16.93261719 57.57128906 C-16.38704013 47.28173208 -16.38704013 47.28173208 -20.08203125 38.05078125 C-24.44269035 34.40927133 -28.26370518 32.36362024 -34 32 C-36.84774562 32.72730772 -36.84774562 32.72730772 -39.625 34.0625 C-40.67300781 34.52527344 -41.72101563 34.98804687 -42.80078125 35.46484375 C-45.85896175 36.9323223 -48.82647297 38.51713929 -51.8125 40.125 C-62.15057294 45.38900564 -73.98878502 47.17317622 -85.44433594 45.49560547 C-90.66628434 44.84171699 -95.85709657 44.85650522 -101.11328125 44.8671875 C-102.16347946 44.86623077 -103.21367767 44.86527405 -104.29570007 44.86428833 C-106.50857605 44.86361061 -108.72145406 44.86543633 -110.93432617 44.86962891 C-114.29155023 44.87496669 -117.64863953 44.8696783 -121.00585938 44.86328125 C-123.16666696 44.86394242 -125.32747446 44.86522438 -127.48828125 44.8671875 C-128.47822586 44.86516327 -129.46817047 44.86313904 -130.4881134 44.86105347 C-136.23432598 44.88003257 -141.85425806 45.19492786 -147.56472778 45.84809875 C-151.42090551 46.08862965 -154.8600025 45.31380435 -158.5625 44.3125 C-159.28848389 44.12824463 -160.01446777 43.94398926 -160.76245117 43.75415039 C-174.07906836 40.26211871 -174.07906836 40.26211871 -178.95703125 36.484375 C-183.34276428 33.29780033 -188.94620838 32.40270424 -194.1875 31.375 C-198.79159131 32.3981314 -201.26134253 35.27929868 -204 39 C-208.99703741 47.90317228 -207.70251586 59.05235786 -205.625 68.625 C-204.05748814 77.62449117 -208.86838698 83.76815889 -213.625 91 C-223.73434676 106.62057129 -223.20627646 130.07208838 -219.51367188 147.64770508 C-217.4051448 156.44532473 -214.53821993 164.15111144 -210 172 C-209.53722656 173.02222656 -209.07445312 174.04445312 -208.59765625 175.09765625 C-206.88814906 178.20319132 -205.45207436 179.51189488 -202.5625 181.5 C-199.59888741 183.65406347 -198.08148267 184.86232238 -196.1875 188.0625 C-193.20095572 192.07300232 -189.73050521 193.43343645 -185.2421875 195.5 C-182 197 -182 197 -179.3203125 198.5 C-171.68496286 202.74923806 -163.83747612 204.88505094 -155.38916016 206.99609375 C-154.46409668 207.22941406 -153.5390332 207.46273437 -152.5859375 207.703125 C-151.7511084 207.90583008 -150.9162793 208.10853516 -150.05615234 208.31738281 C-148 209 -148 209 -146 211 C-146.21863184 214.27947755 -146.69467623 216.50882697 -148.4375 219.3125 C-149.95276242 221.91875137 -150.39836375 223.58770149 -150.9375 226.5 C-151.74441357 230.56847177 -153.01155937 233.01155937 -156 236 C-162.56381662 239.28190831 -172.12001977 238.12155911 -179.375 238.1875 C-180.13554687 238.20047119 -180.89609375 238.21344238 -181.6796875 238.22680664 C-186.14070814 238.23416968 -189.88341048 237.92849239 -194 236 C-195.328125 234.30078125 -195.328125 234.30078125 -196.25 232.3125 C-198.84612555 227.63947401 -202.35930574 225.303596 -206.79296875 222.4453125 C-209 221 -209 221 -211 219 C-211.4140625 216.6171875 -211.4140625 216.6171875 -211.625 213.875 C-211.69976562 212.96492187 -211.77453125 212.05484375 -211.8515625 211.1171875 C-211.90054688 210.41851562 -211.94953125 209.71984375 -212 209 C-212.54527344 208.84144531 -213.09054688 208.68289062 -213.65234375 208.51953125 C-217.98857505 207.17789387 -221.785328 205.64849412 -225.6875 203.3125 C-229.28766949 201.21659713 -231.75523674 200.37881513 -236 201 C-236.66 201.33 -237.32 201.66 -238 202 C-237.38212466 204.70320463 -236.72172548 206.51654753 -234.3671875 208.09375 C-233.70976562 208.4546875 -233.05234375 208.815625 -232.375 209.1875 C-227.75197712 211.82203573 -225.06953736 215.34499001 -221.95703125 219.59765625 C-220.04900749 222.11312324 -220.04900749 222.11312324 -217.3671875 224.1015625 C-213.31002014 227.35533038 -212.29422578 231.76004848 -211.125 236.6875 C-209.55037768 241.32388793 -207.06867627 242.76911777 -202.96484375 245.2109375 C-202.25457031 245.63632812 -201.54429687 246.06171875 -200.8125 246.5 C-200.13832031 246.8815625 -199.46414062 247.263125 -198.76953125 247.65625 C-197 249 -197 249 -196.13964844 251.04223633 C-195.20126479 253.16177297 -195.20126479 253.16177297 -193.18530273 253.56323242 C-192.46286377 253.59779541 -191.7404248 253.6323584 -190.99609375 253.66796875 C-189.78735596 253.75183838 -189.78735596 253.75183838 -188.55419922 253.83740234 C-187.28987061 253.91788818 -187.28987061 253.91788818 -186 254 C-162.8209558 256.68534889 -162.8209558 256.68534889 -156 261 C-154.01802723 263.97295916 -153.69191298 264.96371223 -153.3671875 268.3515625 C-153.28339844 269.20363281 -153.19960937 270.05570312 -153.11328125 270.93359375 C-153.03464844 271.82175781 -152.95601562 272.70992188 -152.875 273.625 C-152.78863281 274.48996094 -152.70226562 275.35492188 -152.61328125 276.24609375 C-151.13923103 291.85230803 -151.13923103 291.85230803 -153.875 295.5 C-158.14309386 298.51277213 -161.90369027 298.62609882 -167 298 C-170.38600481 297.03605002 -173.70887076 295.98217817 -177.03881836 294.84472656 C-181.01091103 293.51648051 -184.46166789 292.73254363 -188.6875 292.625 C-191.046875 292.484375 -191.046875 292.484375 -193 292 C-195.4375 288.875 -195.4375 288.875 -196.56640625 286.9453125 C-198.96226686 283.69425368 -202.35286063 282.06497476 -205.76953125 280.00390625 C-215.19194856 274.15904521 -223.96656885 267.5937202 -231.55859375 259.484375 C-233.59700082 257.41009196 -235.65658208 255.58803917 -237.87890625 253.72265625 C-242.04566316 250.11506189 -245.25586732 246.12211709 -248.5 241.6875 C-249.62404199 240.18157612 -250.74903859 238.67636429 -251.875 237.171875 C-252.40996094 236.45322266 -252.94492188 235.73457031 -253.49609375 234.99414062 C-255.97435519 231.70803033 -258.58723109 228.53489716 -261.21875 225.37109375 C-265.79963756 219.27328948 -268.95139578 213.19881527 -271.4375 206 C-272.03662401 204.30428556 -272.63690126 202.60897817 -273.23828125 200.9140625 C-273.53299316 200.07907227 -273.82770508 199.24408203 -274.13134766 198.38378906 C-274.90580496 196.25849365 -275.73232958 194.17216091 -276.60546875 192.0859375 C-284.56640563 172.92616614 -286.83611799 152.74074048 -286.59692383 132.1484375 C-286.56213509 128.84030018 -286.5764919 125.53478415 -286.59570312 122.2265625 C-286.58747884 110.46610676 -285.81593724 100.15896328 -282 89 C-281.59048034 87.55837101 -281.18780524 86.11474933 -280.796875 84.66796875 C-275.99612901 68.70727966 -269.15532452 53.92887344 -260 40 C-259.61086426 39.40735352 -259.22172852 38.81470703 -258.82080078 38.20410156 C-253.09657104 29.60720429 -246.62524085 22.02714045 -239.48925781 14.57910156 C-238.02184405 13.02316186 -236.59579139 11.43860588 -235.1796875 9.8359375 C-229.29254917 3.1894376 -223.05430897 -2.58115679 -216 -8 C-215.38253906 -8.50660156 -214.76507813 -9.01320312 -214.12890625 -9.53515625 C-191.75266517 -27.42618197 -162.42466704 -38.72869876 -134 -41 C-132.87207031 -41.10828125 -131.74414062 -41.2165625 -130.58203125 -41.328125 C-81.12753685 -45.57506463 -37.38352185 -32.8531459 0 0 Z " fill="#FEFEFE" transform="translate(286,46)"/>
</svg>
